<svg xmlns="http://www.w3.org/2000/svg" width="38" height="32"><path d="M25.253.31c.173.018.022.275-.076.265-.093-.098.082-.141.076-.265zm-1.21.189h.113v.189c-.173.023-.156-.085-.114-.189zm-.832.152c.187.008.254.328.038.34.026-.152-.036-.216-.038-.34zm1.286.075c.05.013.059.067.113.076-.084.311.055.585.076.832.014.171-.108.316 0 .454-.312-.142.064-.556-.227-.756.056-.202.015-.46.037-.605zm1.248.076c.032.121-.06.117-.076.189-.066-.009-.086-.065-.076-.151.034-.029.085-.041.151-.038zm.037.075h.151c.035.176-.2.194-.151 0zm-3.402.416h.113c.016.079-.026.1-.038.151-.067-.009-.087-.065-.077-.151zm3.592.076c.184.083-.038.247-.076.34-.064-.087-.184-.118-.189-.265.083-.081.203.061.265-.076zm-6.805 2.457c.26.097.41.492.416.718-.235-.143-.282-.475-.416-.718zm8.883.151c.117.011.158.293.113.34-.164-.057-.127-.168-.113-.34zm-4.461.076c.148.054.126.278.189.416-.2-.002-.176-.226-.189-.416zm-1.738.68h.113c.016.079-.026.1-.038.151-.066-.009-.086-.065-.076-.151zm-.038.189c-.015.091.069.082.038.189-.072.071-.095.004-.189 0-.022.035.088.212-.038.302-.14-.011-.016-.287-.151-.302.02-.155.153-.199.339-.189zm5.406.114h.189c-.011.056-.159.163-.189.076v-.076zm-3.327.756c-.206-.05-.074-.487.076-.529.021.223-.097.306-.076.529zm2.873-.416c.079-.016.1.026.151.038-.084.042-.026.226-.189.189-.028-.116.065-.111.037-.227zm-5.368.038c.163.05.094.222.076.378-.149-.023-.126-.26-.076-.378zm2.117.075h.113v.567c-.105-.107-.189-.401-.113-.567zm3.062.114c-.022.079-.094.108-.076.227-.157-.043-.147.08-.265.076-.009-.209.19-.373.34-.302zm-.643.227c.181-.055.094.158.113.265-.15.025-.108-.144-.114-.265zm9.603.037c-.1.14-.321.188-.492.265-.165.075-.358.228-.529.151-.036-.173.085-.053.151-.076.266-.089.59-.377.87-.34zm.53 0c.079.021.08.059.038.113-.543.188-1.03.432-1.55.643.392-.364 1.037-.474 1.512-.756zm-14.782.038c.044-.006.067.008.076.038.029.344-.052.578-.038.907-.247-.136-.063-.715-.037-.945zm7.636.114c-.233.296-.681.377-.945.643-.1-.179.159-.25.302-.34.192-.121.351-.257.643-.302zm3.554.189h-.189c-.04.166.128.124.113.265.031.203-.221.166-.113.34-.121.032-.117-.059-.189-.076.03-.121.137-.165.189-.265-.009-.147-.261-.194-.151-.34.068-.049.375-.095.34.076zm-13.988-.076c.282.159.537.345.756.567-.103.089-.374-.094-.529-.227-.095-.082-.231-.225-.227-.34zm3.252.303c.2.09.23.35.302.567-.159.02-.15-.127-.189-.227-.107-.006-.095.107-.151.151-.094-.121.101-.275.037-.491zm7.182.075c-.054.109-.172.156-.302.189.05-.114.182-.146.302-.189zm1.512.265c-.123.021-.366-.128-.567-.151-.168.077.08.289-.038.416.11.192.564.04.643.265-.256.016-.424-.055-.605-.113-.107.032-.045.232-.113.302-.172-.038-.102-.272-.038-.378.048-.226-.097-.413-.038-.529.239-.069.631.017.755.189zm-2.041-.114c.108.185-.256.222-.302.378-.172-.129.225-.256.302-.378zm-4.99.114h.076c-.007.032.015.036.038.038v.076c-.032-.007-.036.015-.038.038h-.076c.007-.032-.015-.036-.038-.038v-.076c.032.007.035-.015.037-.038zm-.265.076c.162-.011.167.135.189.265-.127-.024-.174-.128-.189-.265zm-1.739.151c.061-.011.065.036.113.038.133.497.427.833.869 1.021.145.284.455.402.454.832-.236-.117-.199-.507-.492-.567v-.113c-.218-.11-.381-.274-.643-.34.062-.315-.366-.429-.302-.869zm2.231.038c.197.105.258.347.378.529-.242-.061-.284-.321-.378-.529zm-5.936.075c.389.09.669.289.832.605-.277.007-.399-.454-.794-.454-.029-.034-.04-.085-.037-.151zm-5.292.227c.169.129-.509.381-.718.34.139-.214.574-.132.719-.34zm11.53.378c-.203-.087-.372-.208-.567-.302.11-.101.513.1.567.302zm6.654-.076c-.122.185-.462-.032-.605-.076-.061.011-.065-.036-.113-.038.131-.133.525.063.718.113zm-1.626.227c-.072-.067-.25-.028-.378-.038-.005-.211.41-.196.378.038zm4.499.114c-.149.109-.271-.131-.492-.076.107-.179.354.046.492.076zm-15.5.34c-.085.198-.358-.03-.529 0 .055-.136.466-.095.529 0zm13.988-.038h.113c.067.39-.646.516-.529.113.156-.03.071.181.227.151.161.008.106-.197.189-.265zm-14.48.302c.165-.027.213.064.378.038 0 .209-.37.089-.378-.038zm9.224.038h.113c.089.301.371.41.454.718-.191-.076-.28-.271-.416-.454-.063-.088-.232-.149-.15-.265zm2.42.151c-.124.209-.382-.06-.529-.076.121-.184.355.072.529.076zm-2.722-.075c.149.166.4.23.454.491-.135-.087-.229-.068-.416-.038-.115-.137-.316-.188-.34-.416.224.015.212.267.416.302.117-.144-.167-.14-.113-.34zm-.529.151h.113c.058.106.124.204.151.34-.218.016-.267-.137-.265-.34zm-2.647.227c.126.051.133.22.189.34-.106-.07-.146-.207-.189-.34zm4.31.151c.129.01.2.077.227.189-.087.068-.202-.077-.227-.189zm-.454.454c-.232.018-.118-.31-.302-.34.182-.235.266.189.302.341zm-1.852-.151c-.03.133-.132.044-.189 0 .027-.131.113-.025.189 0zm-.831.113c-.055-.164-.084.04-.227 0 .04-.096.194-.203.302-.113.001.089-.065.111-.038.227-.071-.017-.228.051-.189-.076.033-.029.084-.04.15-.037zm8.127.038c-.1.001-.223-.021-.227.076 0 .139.177.1.113.302-.12.006-.166.086-.302.076-.001-.115.19-.037.189-.151.018-.119-.102-.1-.113-.189-.02-.14.293-.289.342-.113zM4.99 9.875c.011.1-.052.124-.151.113.003-.101.086-.181.151-.113zm7.902.189c.079.021.08.059.038.113-.248.174-.495.331-.718.529-.215.19-.385.462-.68.567.126-.264.411-.441.643-.643.225-.198.45-.415.718-.568zm19.165.076c-.079.11-.063.315-.151.416-.104-.007-.001-.417.151-.415zm-11.832.453c-.029.184-.27.142-.416.113v-.113a1.81 1.81 0 0 1 .416.001zm-.604.227c.067.009.086.065.076.151-.147.032-.378.093-.378-.113.091-.023.274.048.302-.037zm-6.654.076c.046.017.078.048.076.113-.472.234-.796.615-1.172.945-.14-.187.165-.241.265-.34.214-.215.544-.534.831-.718zm13.42 0c.034.017.068.033.076.076-.084.08-.087.24-.227.265-.001-.166.094-.234.151-.341zm-7.296.188c.091.023.172.054.302.038-.002.198-.338.189-.302-.038zm19.129.303c-.085.16-.287.156-.454.227-.21.09-.35.267-.718.227.03-.158.154-.055.227-.076.331-.096.585-.461.945-.378zm-22.985.492c.046.176-.152.146-.227.189-.191.111-.418.218-.605.34-.31.203-.557.543-.945.643.045-.147.2-.151.302-.227.456-.333.828-.797 1.475-.944zm9.98 0c.157.045-.004.187 0 .302-.204.005-.079-.261 0-.302zm.34.075h.151c.004.168-.045.283-.189.302-.017-.131.015-.212.037-.302zm-17.578.189c-.104.123-.299.155-.491.189.011-.201.333-.258.491-.19zm1.02.114c-.024.204-.296.272-.151.529.163-.001.139-.188.302-.189-.02.232-.178.326-.34.416-.032-.082-.098-.129-.076-.265-.14-.014-.099.153-.265.113.05-.208.23-.246.151-.491.192.196.151-.137.378-.115zm4.499 0c-.005.121-.086.166-.227.151.001-.125.107-.145.227-.151zm18.259.113c.182.131-.211.309-.227.491-.332.021-.375.33-.605.454.153-.439.633-.552.832-.945zm6.389.075c.044.006.032.069.038.113-.176.106-.426.173-.643.265-.195.082-.412.27-.567.151-.007-.146.237-.04.302-.113.252-.177.614-.244.871-.415zm-19.998.114c-.055.202-.301.292-.454.378-.477.267-.962.63-1.512.869-.101-.196.132-.177.151-.189.521-.311 1.15-.726 1.701-1.059l.114-.001zm-14.177.076c.114.002.11.268-.038.227-.083-.079-.008-.168.038-.227zm21.02.037c.143.041.079.363-.076.34-.002-.14.038-.239.076-.34zm2.343 0c.103-.028.076.075.151.076-.029.034-.041.085-.038.151-.136.022-.116-.112-.114-.227zm2.534 0a1.5 1.5 0 0 1 .416.605c-.212-.13-.333-.348-.416-.605z"/><path d="M37.237 12.672c-.097.25-.462.239-.756.34-.397.137-.831.356-1.134.491-.081.036-.193.144-.265.151-.06.006-.506.071-.34-.189.15-.006-.012.058.076.113.785-.325 1.551-.667 2.42-.907zm-11.682.038c.151-.025.108.144.113.265-.094-.045-.118-.159-.189-.227.043.007.067-.008.075-.037zm1.059.227c-.081-.095-.309-.044-.34-.189.123-.045.376-.036.34.189zm-7.976-.075c-.099.15-.35.275-.567.189-.29.138-.53.327-.832.454-.276.175-.562.418-.869.605-.083.05-.217.131-.302.113-.028-.229.178-.225.302-.302.504-.365 1.071-.668 1.626-.983.234.184.456-.13.641-.077zm-14.782.113a.286.286 0 0 1-.227.227.286.286 0 0 1 .227-.227zm22.72.038c.129-.039.497.006.567.151-.213.11-.464-.032-.568-.151zm-1.965 0h.113c-.021.055.044.195-.038.189-.128.038-.06-.119-.077-.19zm1.814.075c.058.055.079.147.076.265-.112-.027-.396-.129-.605 0 .041-.235.373-.256.529-.265zm3.137 0c.111.066.176.177.189.34-.153-.023-.138-.215-.189-.34zm-1.625.038c.097.029.131.121.113.265-.135.008-.171-.197-.114-.265zm8.922.075c-.351.153-.834.174-1.096.416-.033-.095.258-.273.416-.34.198-.084.468-.157.68-.076zm-15.84 0a.86.86 0 0 0 .34.189v.265c-.114.038-.067-.084-.076-.151-.063-.127-.31-.069-.265-.303zm10.434.039c.084.005.016.16.038.227-.169.139-.336.463-.529.454.093-.299.512-.272.492-.68zm-22.191.037c.119-.018.086.116.227.076-.086.128-.194.234-.378.265-.042-.204.219-.107.151-.34zm.832.114c-.233-.006-.159.295-.454.227.12-.072.323-.525.454-.227zm11.757-.076c.112.064.155.197.189.34-.203.026-.199-.155-.189-.341zm2.306 0c.171.031.304.099.34.265-.135.067-.3-.117-.341-.264zm4.196 0c.132.057.114.264.189.378.079-.021.122-.108.189-.038-.046.244.061.116.151.189-.218.273-.623-.125-.529-.529zm9.602.113c-.415.039-.745.162-1.096.265.15-.177.914-.493 1.096-.265zm-17.125-.037c.103-.1.245.08.265.189-.174.022-.177-.126-.265-.189zm1.852-.038c.11.186.434.339.416.529-.175-.121-.465-.309-.416-.529zm-2.722.075c.275.09.49.241.605.491a1.852 1.852 0 0 1-.605-.491zm.492.038c.115.044.203.115.34.038-.028.116.104.073.076.189-.14.1-.469-.059-.416-.227zm4.234.076h.113c-.012.127.05.328-.113.302.008-.159-.062-.179 0-.302zm-.378.037c-.05.126-.172.181-.265.265-.101-.148.119-.244.265-.265zm-2.76.039a.422.422 0 0 1 .189.265c-.19.044-.242-.185-.189-.264zm1.663.037c.068-.09.283-.009.265.113-.142.018-.176-.074-.264-.113zm7.373-.037c-.017.109-.08.172-.189.189.017-.11.08-.174.189-.19zm-24.989.037c.044-.006.067.008.076.038-.207.385-.471.714-.68 1.096-.007-.385.427-.764.605-1.134zm32.36 0c-.659.361-1.364.593-2.041.945-.996.518-2.017.942-3.138 1.361-.703.263-1.425.521-2.193.794-.345.123-.696.384-1.096.302.29-.201.694-.298 1.058-.416 1.086-.352 2.153-.783 3.213-1.21 1.409-.566 2.662-1.324 4.121-1.777l.075.001zm-28.769.038a1.923 1.923 0 0 1-.302.454c-.105.108-.314.363-.378.076.396-.007.338-.469.68-.529zm11.908 0c.144-.005.178.099.189.227-.149.011-.203-.073-.189-.227zm1.173.076c.215-.013.132.272.302.302-.14.088-.3-.128-.302-.302zm-12.211.113c-.001.156-.375.351-.416.113.22.053.256-.227.415-.114zm11.87 0c.086.078.131.197.113.378-.136-.02-.195-.259-.114-.378zm14.517 0h.076c.002.209-.26.172-.378.227-.361.168-.739.393-1.134.567-.534.236-1.1.437-1.663.643-.554.202-1.099.438-1.663.643-.291.106-.581.194-.869.302-.292.11-.578.168-.869.265-.429.142-.807.434-1.285.378.092-.186.332-.146.491-.189.173-.047.329-.133.491-.189.339-.117.69-.179 1.021-.302.157-.059.3-.171.454-.227 3.869-1.305 4.996-1.727 6.12-2.155l-2.718.908c.324-.121.646-.229.945-.378.325-.162.613-.348.945-.491a.236.236 0 0 0 .037.002zm-15.008.151c.156-.091.298.155.416.227.005.068-.046.08-.038.151-.199-.054-.224-.281-.379-.378zm16.331 0c-.296.183-.614.344-1.021.416.312-.15.7-.399 1.021-.416zm-15.537.038c.23.132.5.075.529.454-.183-.229-.497-.095-.529-.454zm13.345.038c-.383.234-.932.303-1.361.491-.047.042-.078.033-.076-.038.461-.17.916-.345 1.437-.455zm2.192.151c.167-.006.011.107 0 .151-1.753.563-3.306 1.372-4.99 2.042-.407.162-.831.355-1.248.529-.231.097-.488.251-.869.227.574-.265 1.163-.489 1.739-.718.582-.231 1.132-.498 1.701-.756 1.169-.531 2.421-1.009 3.629-1.474a.445.445 0 0 0 .037.001zm-27.332.076c-.052.15-.236.368-.416.265.109-.119.224-.231.416-.265zm11.87.038c.127.314.543.34.68.643-.294-.125-.73-.3-.68-.643zm14.253.075c.044.006.032.069.038.113-.393.073-.61.323-1.021.378.118-.132.327-.191.492-.265.174-.079.346-.136.492-.228zm-20.906.038c-.097.198-.352.204-.529.302-.166.092-.294.27-.491.302-.24.29-.633.426-.869.718-.086.027-.193.034-.265.076-.074.127-.234.169-.34.265-.057-.101.097-.134.151-.189.246-.249.564-.405.907-.643.415-.287.783-.64 1.21-.832l.227-.001zm6.313 0c.239-.012.299.154.378.302-.2-.027-.329-.124-.378-.302zm15.916.265c.003.235-.279.206-.416.265-.301.128-.606.266-.945.416-.806.356-1.707.752-2.646 1.059-.203.066-.4.156-.605.227-.317.11-.581.239-1.021.265.903-.437 1.863-.621 2.76-1.021.907-.405 1.808-.857 2.722-1.21h.151zm-27.106.075c.005.144-.099.178-.227.189-.006-.145.099-.179.227-.19zm25.934.227c-.061.204-.314.141-.454.189-.965.333-1.954.944-3.024 1.21.191-.228.54-.218.832-.34.766-.323 1.627-.726 2.457-1.059l.189.001zm-25.745.038a.353.353 0 0 1-.34.265c.046-.157.167-.237.341-.265zm-6.54.265c-.136.144-.319.204-.491.302-.16.092-.324.229-.529.265.266-.24.676-.53 1.021-.567zm6.691-.039c.042.153-.116.187-.189.113.035-.065.071-.131.19-.113zm17.844.152c-.317.275-.727.457-1.21.567.167-.211.624-.132.718-.416.161-.055.301-.128.492-.151zm-17.541.151c-.068-.005-.08.046-.151.038a.18.18 0 0 1-.038-.113c.057-.06.217-.055.19.076zm-6.049.075c-.131.209-.391.273-.567.416-.178.144-.295.354-.529.416.094-.246.371-.31.454-.567.248-.055.374-.231.643-.265zm6.163.076c.114.117-.158.326-.265.227-.001-.164.22-.106.264-.227zm-7.977.265c-.068.108-.107.246-.265.265a.378.378 0 0 1 .265-.264zm8.014.076c.164.053-.026.197-.189.151-.023-.138.181-.047.19-.151zm-1.776.113c-.045.107-.187.115-.302.151.012-.133.209-.217.302-.151zm22.719-.038c.067.028.005.069 0 .113-.657.238-1.329.461-1.928.756.209-.242.572-.364.907-.491.344-.132.738-.179 1.021-.378zm-20.527.076c-.119.133-.309.195-.491.265.078-.172.318-.307.492-.265zm-7.901.264c.046.017.078.048.076.113-.404.327-.785.676-1.285.907.329-.413.896-.59 1.21-1.02zm7.901 0c-.082.045-.186.181-.265.113.028-.097.119-.131.264-.113zm.264.038c.038.146.063.16.227.113.012.088.074.156 0 .227-.152-.157-.232.022-.416.038-.089-.035.13-.299-.038-.189-.084-.076.075-.227.226-.19zm-11.341.303h.151c.004.094.071.117 0 .189-.119.006-.13-.097-.151-.189zm4.159.037c-.185.181-.461.27-.68.416.132-.233.346-.385.68-.416zm-4.31.114c.037.138-.184.018-.113.189-.14.026-.167-.06-.151-.189.117.049.21-.112.265 0zm1.059.076c.088-.012.145.006.189.038.011.097-.256.131-.189-.038zm8.581 0c-.255.476-.99.471-1.323.869-.091.015-.082-.069-.189-.038-.401.242-.818.467-1.059.869-.649.233-1.039.726-1.512 1.134-.027.107-.106.3-.302.34-.136-.06.056-.201.076-.227.39-.523 1.034-.907 1.588-1.323.408-.306.757-.692 1.172-.907h.227c.342-.301.91-.375 1.21-.718l.114-.001zm-4.952.113c-.066.255-.309.216-.491.302-.414.195-.65.607-1.058.794a3.29 3.29 0 0 1 1.55-1.096zm-4.31.038c.037.226-.115.422-.302.302.188-.041.013-.313.302-.302zm1.701 0c.079-.016.1.026.151.038-.009.066-.065.086-.151.076v-.114zm-1.474.075h.151c.044.131-.211.175-.151 0z"/><path d="M1.55 17.511c.012.087-.109.042-.113.113-.046-.017-.078-.048-.076-.113a.14.14 0 0 1 .189 0zm1.928.038c.037.001.029.046.038.076a1.655 1.655 0 0 1-.794.605c.214-.265.576-.382.756-.68zm-2.155.189c-.038.151-.155.109-.076.302-.111-.041-.198-.104-.189-.265.123.021.176-.026.265-.038zm13.042.529c-.03.123-.282.22-.378.151.062-.105.27-.213.378-.151zm-3.704 0c.079-.016.1.026.151.038.027.203-.22.275-.34.34-.425.231-.869.5-1.361.68.198-.183.467-.321.756-.492.292-.171.689-.289.794-.567zm3.402.341c-.032.106-.107.17-.265.151.063-.075.148-.249.265-.151zm-10.358.188c.079-.016.1.026.151.038.006.119-.097.13-.189.151-.093-.089.056-.07.038-.189zm-.114.19c.068.12-.178.249-.34.265.001-.201.256-.147.34-.265zm-.945.453c-.135.008-.171-.196-.113-.265.129-.003.112.14.113.265zm17.768 4.121c-.66.08-.701-.458-.945-.794-.071-.647-.146-1.493.038-2.079-.07-.106-.143-.21-.189-.34-.126.139.078.604-.113.832.012.089.131.07.113.189-.136.441-.094.823 0 1.285-.19-.184-.178-.701-.113-1.021-.286.364-.049.911 0 1.323.097-.004.061-.141.113-.189.236.293.26.798.492 1.096.061-.053.04-.187.113-.227.144.066-.086.309.038.492.14.026.065-.162.151-.189.173-.001.002.133.038.227.167.148.217.413.302.643.212.072.286.246.492.227.283-.026.477-.459.605-.68-.025-.098-.116-.368 0-.378-.366-.163-.658-.602-.756-.907.288.204.41.573.718.756.191.029.245-.025.34.113-.003.175-.171.008-.265.038.254.545-.206.925-.529 1.134.12.082.363.04.491.113-.373.187-.917-.084-1.134-.302.057-.229-.159-.228-.302-.34-.249-.195-.599-.469-.756-.718a1.138 1.138 0 0 1-.113-.378c0-.088-.079-.212-.113-.378-.094-.452-.34-.903-.189-1.474.024-.091.126-.152.151-.227.069-.203.1-.722.038-1.021-.042-.203-.23-.414-.113-.605.129.035.117.21.151.34.048.09.123.154.265.151.444.905 1.03 1.667 1.323 2.722-.074.232-.233.375-.342.569zm-.945-1.55c.111-.04.096-.228.113-.34a3.35 3.35 0 0 0 .038-.416c-.091.015.021-.172-.113-.113-.075.228-.021.582-.037.87zm.264-.378c.07.036.126-.113.151 0 .01.406.266.566.265.983.259-.047.099-.405.038-.567-.04-.106-.142-.223-.189-.34-.065-.164-.06-.32-.151-.416-.048-.002-.052-.048-.113-.038.025.183-.049.267.001.378zm.114 1.247c.167.011.201.308.416.151.077-.252-.259-.373-.415-.151zm-.114 1.059c-.15-.128-.163-.392-.227-.605h-.113c-.015.306.168.614.341.605zM4.877 19.969c.049.163-.107.12-.151.189-.114-.08.067-.183.151-.189zm17.163.378c.114.042.181.208.34.189.026-.003.145-.06.113-.076.103.05.249.156.113.302-.137.036-.038-.163-.113-.189-.198.164-.54-.021-.454-.227zm-.643.113c-.004.109.021.247-.038.302-.103.028-.076-.075-.151-.076.038-.1.063-.215.189-.227zm.189 0c.158-.032.083.169.151.227.116.028.073-.104.189-.076.059.055.033.194.038.302-.143-.078-.162-.135-.378-.076.007-.2.025-.192.001-.378zm-2.873.151c.053.218-.103.552-.265.68.042-.273.201-.429.265-.68zm4.12 0c.15-.005.074.327 0 .34-.172-.017-.007-.26 0-.341zm.983.378c-.167.077-.469 0-.529-.151.169-.078.477-.007.529.151zm.114-.037c.041-.075.314-.064.265.076-.117.004-.18-.047-.264-.076zm-8.997.869c.095.095-.043.148-.038.265-.169.003-.151-.305.037-.264zm1.247.226c.034.017.068.033.076.076-.066.136-.195.208-.34.265-.04-.242.185-.218.265-.34zm8.96 0c.051.012.031.095.038.151-.247-.008-.156.323-.378.34.05-.225.204-.349.34-.491zm-10.397.076c.087.03.037.234-.076.189-.032-.12.06-.118.076-.189zm9.868.151c-.06.129-.126.252-.265.302-.005-.194.094-.285.265-.302zm1.739.076c.625.105 1.033.261 1.663.302-.01.143-.159.121-.265.076-.182-.018-.109.218-.265.227-.025-.138.082-.145.076-.265-.099-.031-.207.114-.265 0-.121.056-.118.235-.265.265-.016-.155.08-.197.151-.265-.258-.131-.335.244-.491.34-.098-.177.126-.316.265-.378-.081-.161-.278.093-.416.113-.05.063.014.241-.113.227-.091-.204.192-.328.302-.454-.151-.037-.433.12-.416.378-.18-.108.045-.354.189-.378-.125-.164-.422.166-.378.302-.137.036-.032-.17-.151-.151-.162.052.025.454-.189.454-.02-.348.129-.652.529-.68a.174.174 0 0 0 .039-.114zm-10.094.038c-.024.165-.14.238-.34.227.028-.162.191-.188.341-.227zm-1.626.264c.026.204-.187.232-.189.038.091.016.081-.068.189-.037zm1.626.152c-.011.14-.054.248-.227.227-.032-.121.06-.117.076-.189-.091-.015-.082.069-.189.038-.016-.189.271-.183.341-.075zm13.306.416h.076c.416.181.153.751 0 1.21-.102.308-.146.666-.34.756.119-.581.606-1.29.34-1.89-.063.014-.071-.03-.076-.076z"/><path d="M29.789 25.147c-.125-.091.048-.201.076-.265.035-.506.254-.928.151-1.361.044-.111-.181-.14-.076-.189.105-.082.171.095.189.151.158.475-.168 1.261-.34 1.662zm-1.776-1.625c.159.108.012.533 0 .718-.187-.136-.025-.546 0-.719zm2.381.189c.044-.006.067.008.076.038-.021.458-.108.867-.189 1.361-.027.166-.025.422-.189.491.11-.618.19-1.203.302-1.889zm-12.815.378c.237.204.166.584.34.832.11.156.284.142.34.34-.438-.018-.615-.618-.756-1.059-.021-.084.072-.054.076-.114zm17.2.075c.047.016.078.048.076.113-.08.059-.234.043-.189.227-.06.003-.144-.018-.151.038-.077-.024-.025-.177-.113-.189.119-.072.295-.086.379-.19zm-6.464.983h.151c.016.079-.026.1-.038.151-.099.012-.123-.052-.113-.151zm-5.482.19c-.008.353-.459.104-.605.038-.126.025-.205.097-.189.265-.265-.075.016-.386.113-.454.279.021.409.223.68.151zm-4.044.151c-.204-.052-.158.144-.34.113-.009-.162.33-.428.341-.114zm18.184-.076c-.074.166-.407.272-.567.227a.807.807 0 0 1 .568-.227zm-9.414.038c.044-.006.067.008.076.038.081.64-.163 1.201-.189 1.701-.262-.143-.037-.489 0-.718.057-.35.036-.713.113-1.022zm-5.255.265c-.028.189-.226.075-.34.113-.202.068-.352.234-.491.34-.333-.052-.91.161-.907-.113.035-.203.119.075.227.038.716.111.894-.517 1.512-.378zm6.427-.038c.131.003.023.358-.038.416-.148-.092.005-.285.037-.416zm-5.444.114c.128.012.176.273-.038.227-.006-.093-.006-.182.037-.227zm-4.12.112c-.213.052-.308.221-.491.302.031-.221.309-.468.491-.302zm.34.039c-.143.128-.358.363-.567.302.18-.086.353-.378.568-.302zm.945.151a.942.942 0 0 1-.605-.038v-.113c.189-.077.52.001.605.151zm-2.117-.151c.07.22-.345.347-.416.567-.312-.097-.5.384-.605.038.311.076.348-.295.567-.189.162-.127.245-.334.453-.416zm19.129 0c-.119.184-.415.19-.605.302.101-.202.338-.267.605-.302zm-9.224.075a.18.18 0 0 0 .113.038c.003.218.008.437-.038.605-.088-.178.074-.476-.077-.643zm-8.468.189c-.147.269-.467.365-.718.529.147-.269.427-.405.719-.529zm3.515.038c.056.07.195.057.189.189-.13.107-.288-.052-.189-.189zm-1.927.037c.06.346-.422.463-.567.265-.125.077-.211.192-.416.189.103-.187.333-.247.491-.378.122-.033.052.125.151.113.2.024.138-.214.341-.189zm-1.248.114c-.02.223-.276.218-.416.302-.174.106-.307.31-.529.34.23-.302.557-.502.946-.643zm17.843.076c-.064.135-.246.176-.378.227-.53.204-1.129.399-1.512.794-.739.207-1.241.85-2.004.907.116-.141.305-.19.454-.265.432-.216.88-.532 1.323-.794.599-.355 1.238-.585 1.89-.907.067.023.223-.045.227.039zm-8.544.151c.158-.011.158.352 0 .34-.056-.062-.056-.28 0-.341zm8.885.038c-.154.251-.474.316-.718.454-.246.138-.474.311-.718.454-.249.146-.539.236-.794.378-.247.138-.49.377-.794.302.028-.186.328-.1.416-.227.054-.009.013-.113.076-.113.753-.47 1.744-.701 2.382-1.285.077-.015.098.027.149.038zm.113.302v.189c-.569.143-1.084.523-1.512.756-.311.169-.607.369-.945.378.121-.208.374-.212.567-.302.64-.3 1.234-.756 1.89-1.021zm-15.878.076c.107.006.259-.033.265.076.028.129-.139.062-.151.151-.081-.032-.133-.092-.114-.227zm-2.532.075c.043.356-.662.245-.416.567-.232-.142-.284.312-.529.151-.205.047-.202.302-.529.227-.136.305-.424.458-.718.605-.035-.237.155-.248.302-.302.2-.102.221-.384.416-.491.258.136.332-.148.491-.227.086-.011.142.009.151.076.17-.12.28-.3.416-.454.253.065.207-.169.415-.15zm.339 0c.186.123-.097.33-.302.302.007-.195.259-.144.302-.302zm-3.1.114c-.063.064-.03.222-.189.189-.033-.16.088-.28.189-.189zm12.06.189c.242.059.062.493-.113.491.017-.186.157-.247.114-.492zm9.111.113v.113c-.637.233-1.112.627-1.89.718.593-.22 1.175-.624 1.739-.832a.185.185 0 0 1 .151 0zm-16.974.152c-.075.101-.238.115-.378.151v-.151c.197.055.293-.167.378 0zm6.767-.076c.152-.01.085.309-.076.227-.018-.119.054-.148.076-.227zm.907 1.852c-.074.279-.393.344-.605.454-.649.335-1.285.764-1.928 1.172-.215.137-.402.342-.68.378.004-.097.147-.054.151-.151-.587.12-.881.73-1.55.643.062-.165.258-.038.34-.227.592-.164 1.038-.474 1.512-.756.06.003.144-.018.151.038.849-.539 1.674-1.101 2.609-1.551zm-10.51.341c.022.186-.037.291-.227.265-.063-.099.107-.228.227-.264zm.303.113c-.026.163-.1.278-.227.34.016-.173.035-.342.227-.34z"/><path d="M28.656 30.062c-.114.294-.462.356-.718.491-.507.268-.986.614-1.512.907-.253.141-.539.302-.832.302.062-.148.257-.167.378-.227.861-.426 1.678-1.041 2.608-1.474h.077z"/><path d="M25.064 6.813c.054.008-.035.188 0 .302.214-.316.332-.726.756-.832-.004.097-.148.054-.151.151.853-.143 1.298-.693 1.852-1.134-.028-.179.054-.249.113-.34.523.057.525-.408.756-.643-.017-.135-.137-.165-.189-.265.019-.445.351-.854.378-1.323.033-.561-.282-1.077-.529-1.474-.071.068-.053.224-.227.189.017-.122.082-.195.189-.227-.077-.321-.529-.516-.832-.378-.006-.117.089-.214 0-.302-.195.032-.145.309-.416.265.042-.165.08-.138.038-.34-.155-.004-.151.151-.34.113.095-.155-.094-.126-.113-.265-.166-.04-.124.128-.265.113.006-.094.007-.183-.076-.189-.104.06-.098.23-.265.227-.129-.136-.313-.216-.567-.227-.15.039 0 .378-.227.34-.046-.172.104-.148.076-.302-.044-.032-.101-.05-.189-.038-.143.051.026.246-.113.34-.121-.073-.003-.19-.189-.227-.105-.017.03.206-.076.189-.114.038-.067-.084-.076-.151-.099-.011-.03.147-.151.113-.046-.059-.121-.147-.038-.227-.116-.027-.111.065-.227.038-.103.035.053.118 0 .227a1.044 1.044 0 0 0-.378 0c.012.124.087.31 0 .416-.192-.031-.052-.17-.076-.34-.132.04-.362-.089-.567.038.059.091.22.474 0 .491-.052-.143.006-.283-.076-.454-.199-.01-.206.172-.189.378-.158.032-.083-.169-.151-.227-.044.032-.101.05-.189.038-.174.073-.044.227-.151.378-.204.006-.022-.154-.113-.227-.164.063-.321.133-.265.416-.148.022-.097-.155-.189-.189-.171.121-.028.482-.151.567-.084-.089-.189-.264-.076-.34-.134-.02-.093.134-.227.113-.028.154.122.13.076.302-.179.04-.087-.19-.227-.189-.14.024-.211.117-.189.302-.067.07-.117-.01-.151-.076-.323.232-.525.584-.869.794-.028.205.131.222.189.34.065.351.262.57.34.907-.313-.254-.356-.778-.643-1.058-.172.029-.157.246-.265.34.183.258.42.462.416.907-.144-.164-.189-.391-.302-.567-.077-.12-.23-.176-.227-.34-.293.11-.379.427-.454.756-.509-.296.117-.607.378-.945.085-.11.129-.271.189-.34.077-.088.21-.139.302-.227.118-.113.191-.269.302-.378.276-.269.633-.4.794-.605.094.049.157-.111.189 0 .209-.298.592-.435.983-.643.183-.097.582-.376.869-.454.069-.019.155.009.227 0 .483-.062.981-.36 1.437-.416.293-.036.672.064.983.038.283-.024.571.027.907.113.617.159 1.144.331 1.626.605.506.565 1.099 1.043 1.55 1.663.27.044.498.132.567.378.415.086.602.448 1.021.454.233.003.618-.173.945-.265.647-.182 1.296-.351 1.966-.378-.313.257-.788.204-1.21.302-.086.02-.135.086-.227.113-.394.117-.865.082-1.172.302.334.245.833.024 1.323-.113.445-.124.946-.221 1.323-.34.182-.058.367-.265.529-.113-.088.176-.319.138-.492.189-.566.168-1.409.426-2.079.567.778.449 1.661-.369 2.457-.265-.034.174-.172.087-.265.113-.496.142-1.003.29-1.588.416.028.161.259.119.34.227.099-.027.129-.123.227-.151.732.001 1.101-.361 1.777-.416.013.191-.166.114-.265.151-.478.182-1.033.384-1.626.454-.007.133.128.124.151.227.442.043.772-.123 1.096-.227.162-.052.358-.186.491-.076-.021.148-.171.083-.265.113-.304.098-.664.23-.945.34.31.375.78-.164 1.172-.038-.196.208-.617.19-.907.302-.03.131.042.16.076.227.412-.007.714-.315 1.059-.265-.076.147-.317.203-.529.265-.172.05-.508-.002-.492.265.362.151.782-.268 1.172-.189-.266.213-.706.252-1.059.378-.015.091.069.082.038.189.438-.092.743-.316 1.172-.416-.046.23-.345.23-.529.302-.206.081-.416.157-.529.302.432.205.693-.347 1.172-.34-.081.147-.283.224-.454.302-.205.095-.38.187-.68.227.06.242-.014.619.113.794.406-.165.841-.287 1.248-.454.398-.163.758-.444 1.172-.454-.487.282-1.148.577-1.739.794-.264.097-.553.119-.68.378.482-.022.925-.41 1.437-.529-.034.067-.139.062-.151.151.402-.08.721-.435 1.134-.378-.2.162-.471.282-.718.378-.592.231-1.2.463-1.663.832.317.02.584-.205.869-.34.472-.224.988-.415 1.474-.643-.067.294-.445.286-.68.378-.267.105-.495.245-.718.34-.103.155-.302.197-.529.302-.147.069-.496.178-.491.302.005.156.105-.067.189-.038.02.007-.015.085.038.076.152-.027.47-.339.643-.454.694-.138 1.124-.54 1.701-.794.145-.017.29-.272.416-.076-.115.132-.304.155-.454.227-.393.19-.835.458-1.285.643-.192.287-.603.355-.869.567.742-.14 1.396-.696 2.117-.983-.172.281-.641.266-.794.567-.275.116-.567.215-.756.416.205.023.389-.126.567-.227.181-.102.381-.201.567-.302.368-.201.71-.474 1.134-.567.023.199-.177.175-.302.227a7.981 7.981 0 0 0-1.626 1.058c.296-.03.589-.252.907-.416.313-.161.639-.301.945-.454.116.143.33-.047.416.113-.148.165-.377.171-.567.265-.238.118-.475.277-.718.416-.535.306-1.089.677-1.626 1.021-.362.232-.777.39-1.059.718.303.038.471-.385.869-.378.34-.315.837-.474 1.134-.832.204.041.225-.102.416-.076.082-.069.191-.112.227-.227a5.75 5.75 0 0 0 .68-.34c.199-.118.366-.344.605-.302.044.208-.147.18-.265.227-.542.289-1.039.676-1.588.983-.552.309-1.14.579-1.588 1.021.319-.031.596-.261.869-.416.287-.162.586-.322.869-.491.64-.383 1.26-.824 1.966-1.096-.031.348-.634.225-.718.529-.478.102-.752.407-1.172.567-.063.075.003.048 0 .151-.37.147-.724.309-.945.605-.588.244-1.086.578-1.55.945.266.039.493-.288.756-.378v.151c.212-.088.279-.264.34-.416.416-.071.72-.378 1.059-.567.185-.103.389-.152.567-.265.158-.1.291-.248.454-.34.169-.095.356-.161.529-.265.144-.086.323-.294.529-.189-.136.28-.616.216-.756.491-.874.311-1.475.894-2.344 1.21.032.121-.06.117-.076.189.129.05.363-.079.378-.265.077.021.074.114.151.038.718-.328 1.384-.797 2.079-1.172.215-.116.443-.262.68-.302-.251.303-.714.395-1.021.643-.108.175-.248.263-.529.416-.134.073-.329.199-.416.227-.064.02-.169-.022-.227 0-.532.201-.94.59-1.437.832a.18.18 0 0 0 .038-.113c-.084.007-.265.109-.151.189-.206.26-.607.325-.756.643.259-.04.478-.281.718-.454s.472-.359.718-.491c.084-.021.054.072.113.076.39-.111.674-.496 1.059-.605.057-.016.135.021.189 0 .303-.119.553-.329.832-.491.272-.159.555-.347.869-.416-.012.338-.403.319-.605.416-.331.158-.64.399-.983.567s-.716.285-.983.529c.462-.034.877-.286 1.285-.491.405-.204.782-.487 1.21-.643.091.217-.094.167-.189.227-.22.139-.534.255-.756.378-.741.494-1.589.881-2.382 1.323.282-.235.673-.36.945-.605-.439.029-.956.49-1.361.756-.066.043-.166.033-.227.076-.105.074-.238.187-.378.302.158-.031.252-.126.378-.189-.008.182-.524.181-.567.454.219-.021.417-.19.605-.302.55-.331 1.182-.722 1.777-1.059.076.063.28-.003.34.076.363-.217.732-.428 1.096-.643-.231-.054-.452.228-.718.265.23-.199.585-.272.832-.454.279.023.445.188.567.265-.035.117-.177.126-.302.151-.335.257-.825.36-1.134.643.408.043.645-.414 1.134-.416-.22.284-.617.391-.945.567.029.034.041.085.038.151.38-.087.748-.512 1.248-.605-.089.265-.423.234-.643.34-.223.108-.391.298-.605.378-.088.012-.145-.006-.189-.038-.873.413-1.789.782-2.533 1.323-.173.154-.355.3-.605.378.067-.122.259-.119.302-.265-.765.356-1.493.75-2.079 1.285.396-.234.8-.46 1.134-.756.304.027.392-.163.567-.265-.263.342-.899.638-1.323.945.764-.158 1.31-1.057 2.23-1.059.146-.043.322-.215.492-.113.198-.104.374-.231.567-.34-.117.236-.675.358-.869.643.616-.193 1.087-.638 1.701-.718-.053-.11-.13.067-.227.038.24-.164.543-.321.832-.454.298-.137.615-.287.907-.302-.078.262-.631.049-.567.454.343-.11.617-.29.983-.378-.133.346-.7.258-.945.491-.119.018-.1-.102-.189-.113-.292.109-.542.362-.832.529-.264.152-.628.383-.907.416-.227.027-.496-.108-.567.227-.198.087-.502.156-.491.34-.857.264-1.54.703-2.193 1.172-.462.065-.779.401-1.134.605-.365.209-.751.347-1.134.567.202.179.45-.052.643-.151.199-.103.438-.198.643-.302.267-.136.632-.368.945-.491.121-.033.078.098.151.113.327-.164.82-.163.907-.567.134-.059.023.128.114.113.304-.081.521-.273.794-.416.239-.125.553-.332.832-.378.163-.027.348.04.454-.076.084-.006-.049-.095 0-.189.089.05.172.105.34.076a15.762 15.762 0 0 1 2.419-.794c.063.256-.288.193-.416.227-.563.151-1.405.356-1.852.68-1.233.191-2.013.835-3.062 1.21-.075.026-.087.115-.151.151-.951.232-1.767.66-2.684.945-.323.1-.635.224-.907.416.078-.263.432-.249.605-.416-.297.069-.738.32-1.134.416-.061.065-.035.217-.189.189.027-.116-.039-.138-.038-.227.1-.089.34-.038.416-.151-.243-.098-.636-.049-.832.113-.332-.004-.635.021-.832.151-.539-.217-1.288-.069-1.966-.189-.266-.047-.493-.255-.756-.113-.154-.123-.38-.174-.567-.265-.116-.027-.111.065-.227.038-.243-.21-.65-.257-.794-.567-.444-.136-.67-.489-.907-.832-.169-.071-.313-.166-.378-.34-.396-.097-.575-.18-.907-.34.11-.3.5-.069.643.038 0-.239-.266-.213-.302-.416.144-.006.182.095.302.113.119.373.542.441.643.832.207.07.372.182.529.302.027.116-.065.111-.038.227.305-.05.429.199.794.189-.22-.158-.402-.354-.68-.454.252-.185.467.277.869.189.035-.149-.131-.095-.076-.265-.085-.061-.299-.127-.189-.265a.826.826 0 0 1 .491.643c.187.016.185-.024.416.038-.005-.159-.173-.154-.34-.151.146-.138-.108-.349-.265-.416.028-.067.069-.005.113 0-.045-.156-.064-.339-.227-.378-.106-.016.095.141-.038.151-.144-.071-.274-.154-.265-.378-.17-.194-.312-.58-.567-.567-.027-.429-.403-.643-.302-.983-.167.035-.165.238-.227.378-.014.128.167.059.113.227a.546.546 0 0 0-.34.189c-.15-.127-.43-.125-.416-.416-.215.157-.761.653-1.172.302-.034-.111-.034-.116 0-.227-.005-.108-.158-.069-.265-.076-.028-.103.075-.076.076-.151-.173-.016-.416.038-.529-.038-.094.134.254.148.378.189-.015.219.089.308.302.378-.026.119-.101.049-.189.038.178.225.466.34.643.567-.406.076-.647-.421-.907-.68-.055-.054-.165-.06-.227-.113-.078-.067-.093-.181-.151-.227-.047-.037-.14-.008-.189-.038-.112-.067-.103-.192-.227-.227-.168-.004-.222.106-.416.076.045-.107.187-.115.302-.151-.055-.264-.253-.43-.378-.68-.077-.154-.173-.509-.416-.605-.176.022-.04.137-.113.227-.439.28-1.124.313-1.248.907.354-.2 1.009-.428 1.248-.869.135.029.26-.117.302.038.006.159-.058-.001-.113 0-.169.041-.03.154-.113.265-.532.173-.833.578-1.399.718.004.109-.021.247.038.302.541-.316.971-.743 1.626-.945-.042.158-.213.229-.34.302-.359.207-.802.42-1.134.718-.086.027-.193.034-.265.076-.022.123.026.176.038.265.693-.328 1.168-.873 1.928-1.134-.228.298-.602.428-.907.643-.3.211-.617.392-.907.605-.116.028-.073-.104-.189-.076-.222.314-.069.859-.302 1.096.207.137.407-.123.567-.227.55-.356 1.166-.694 1.739-1.059.226.173.375-.138.605-.038-.164.176-.49.19-.68.34-.365-.023-.792.44-1.21.605-.214.185-.527.349-.794.529-.149.1-.343.191-.302.378.969-.632 2.036-1.165 3.1-1.701.15.16-.26.262-.416.34a23.34 23.34 0 0 0-1.916 1.08l.101-.059c-.415.258-.884.456-1.172.794.404-.163.714-.42 1.058-.643.067.028.005.069 0 .113.933-.39 1.565-1.081 2.533-1.437.035.226-.234.211-.34.265-.128.065-.283.123-.378.189-.121.084-.182.247-.302.34-.087.067-.234.088-.34.151-.269.162-.419.322-.756.491a14.53 14.53 0 0 0-1.588.907c-.062.042-.125.15-.189.189-.095.057-.21.046-.302.113-.125.091-.21.254-.34.34 1.123-.503 2.004-1.248 3.1-1.777.101-.038.125-.153.189-.227.42-.099.639-.593 1.096-.529-.117.173-.39.19-.567.302-.093.089.056.07.038.189-.988.574-2.06 1.065-2.911 1.777a22.32 22.32 0 0 0 2.533-1.437c.104.082-.038.174.038.265-.312.243-.66.449-.983.68.227.062.433-.38.68-.302-.015.228-.226.181-.189.378-.162.127-.392.188-.567.302.112.043.112.164.227.189.053.011.138-.062.189-.038.236.111.504.514.643.794.044.088.032.213.076.302.134.275.36.718.567.983v.34c.186.142.304.351.491.491.089.616.494.917.718 1.399.207-.284.119-.864.34-1.134.003-.312-.107-.82.113-1.058.331-.16.891-.16 1.323 0 .189.07.327.23.491.265.314.067.593.113.869.227.19.078.369.223.567.302.137.055.276.091.416.151.728.312 1.517.608 2.344.907.117.042.226.143.34.189.251.101.514.163.756.265.033.118.178.124.227.227.605.205 1.167.437 1.701.718.257.135.519.189.794.302.473.195.942.546 1.437.756.302.266.69.383 1.096.605.156.085.344.192.529.302.334.2.512.335.945.302-.038.063-.161.041-.227.076-.018.119.102.1.113.189.154-.01.187-.141.378-.113.035.173-.169.108-.227.189.167.19.281.666 0 .794.107.068.329-.073.302-.265.217-.038.405-.454.643-.227.039.127-.118.059-.189.076-.107.182-.281.299-.454.416.281-.015.655-.447 1.059-.34-.112.166-.418.137-.605.227-.091.022-.084.143-.113.227-.399.08-.589.368-.869.567.141.036.288-.135.416-.227.149-.107.305-.19.416-.302.371-.057.587-.269.983-.302.023.237-.305.124-.34.302-.393-.168-.611.396-.945.529.368.08.657-.406 1.059-.492.075-.016.163.023.227 0 .158-.057.35-.316.529-.151-.367.326-1.091.295-1.437.643.001.067.178-.06.227.038-.419.211-.75.51-1.096.794.918-.317 1.47-1.202 2.571-1.21-.147.208-.378.133-.567.189-.663.199-1.072.791-1.739.983-.219.247-.543.39-.756.643.154-.015.315-.135.454-.227.389-.258.887-.572 1.285-.869.382-.008.64-.504.983-.302-1.009.465-1.953.996-2.722 1.701 1.024-.523 1.815-1.338 3.138-1.55.196-.031.306-.208.492-.151.032.183-.202.1-.302.151-.064.062-.17.082-.227.151-.557.035-1.062.367-1.512.643-.206.126-.336.172-.567.302-.581.329-1.05.775-1.663.983-.058.169-.195.259-.302.378.638-.298 1.255-.718 1.89-1.096.204-.121.398-.309.605-.378.044-.015.108.018.151 0 .521-.218.972-.639 1.55-.718-.556.426-1.325.641-1.852 1.096-.293-.017-.307.135-.378.265a5.814 5.814 0 0 0-.869.643c.295-.041.54-.259.794-.416.763-.472 1.6-.988 2.419-1.437.142-.028.083.144.189.151.145-.078.353-.264.529-.189-.069.183-.347.157-.491.265-.094.006-.184.007-.189-.076-1.139.512-2.054 1.247-3.138 1.815.102.06.199.082.076.189-.173.034-.083-.194-.227-.189-.249.029-.406.35-.68.227.084-.168.312-.192.529-.227.188-.379.647-.487.945-.756-.21.052-.453.177-.68.302-.3.165-.565.379-.869.529-.087.077-.157.17-.302.189-.141.04-.122-.08-.189-.113-.267.067-.529.272-.718.038-.144.051-.24.171-.378.038-.113.001-.129.098-.227.113-.242-.08-.567.038-.832.038-.146 0-.296-.127-.378 0-.236-.289-.766-.132-1.096-.265-1.05.286-1.855.816-2.646 1.361.316-.025.7-.308.945-.529.472.09.606-.373 1.058-.416-.039.198-.273.255-.416.34-.159.095-.294.193-.454.265.412.025.751-.374 1.134-.567.091-.046.229-.249.34-.076-.127.159-.332.201-.492.302-.2.128-.365.309-.605.378-.055.059-.08.147-.113.227a3.796 3.796 0 0 0-1.21.794c.631-.21 1.189-.543 1.739-.945.153-.112.431-.24.643-.378.176-.115.33-.318.567-.302-.325.378-.798.566-1.21.832-.129.083-.213.162-.378.265-.832.517-1.691 1.112-2.533 1.626-.619-.118-.953.551-1.55.454.049-.152.259-.145.416-.189.234-.285.88-.266.945-.605-.588.294-1.11.654-1.852.794.173-.281.725-.182.869-.492.282-.058.447-.233.643-.378-.473-.032-.76.449-1.172.605-.028-.103.075-.076.076-.151-.239.045-.454.293-.68.227.266-.326.755-.43 1.021-.756-.249.003-.504.192-.756.34-.262.154-.518.373-.756.416-.11-.121.086-.165.113-.265-.242.01-.318.186-.529.227a.192.192 0 0 0-.112-.113h-.001c.146-.295.653-.229.907-.416-.366-.063-.698.234-1.058.302-.092-.171.253-.189.378-.265-.186-.097-.449.054-.605.113-.067-.046-.11-.117-.189-.151-.151.025-.259.094-.378.151-.282-.071-.591-.115-.756-.302-.624-.002-1.146-.213-1.588-.454-.192-.105-.421-.173-.567-.265-.295-.186-.495-.515-.794-.718-.233-.158-.556-.292-.756-.492-.059-.059-.09-.169-.151-.227-.099-.094-.236-.137-.34-.227-.091-.078-.169-.225-.265-.302-.081-.065-.186-.094-.265-.151-.085-.061-.139-.178-.265-.151.036-.169-.153-.169-.227-.265-.155-.202-.251-.472-.378-.718-.079-.154-.183-.325-.265-.491-.076-.155-.205-.297-.265-.454-.097-.253-.085-.561-.151-.832-.089-.369-.183-.701-.265-1.134-.03-.159-.011-.316-.038-.454-.074-.376-.148-.608-.189-1.096-.05-.6-.256-1.053-.227-1.626.008-.155-.071-.308-.076-.454-.016-.455.118-.851.189-1.248-.206.008-.311.118-.416.227-.64.28-1.317.574-1.89.907-.153.089-.282.294-.491.227.427-.397 1.034-.607 1.512-.869.11-.061.188-.17.302-.227.412-.205.997-.245 1.172-.756-.891.42-1.674.947-2.571 1.361-.341.289-.785.475-1.172.718-.228.176-.447.36-.832.378.065-.167.312-.185.454-.265.343-.193.687-.475 1.096-.718a35.65 35.65 0 0 1 2.306-1.285c.457-.23.929-.372.983-.832-.093-.066-.2.177-.265.265a1.021 1.021 0 0 0-.491.302c-1.668.802-3.127 1.812-4.763 2.646.086-.272.38-.364.605-.492.647-.366 1.405-.764 2.004-1.248-.22-.064-.446.128-.643.227-.213.107-.439.205-.605.34-.349.268-.73.505-1.172.68-.159.147-.413.222-.605.34-.147.091-.281.295-.454.227.554-.668 1.614-.831 2.23-1.437-.307.065-.581.212-.869.378-.077.044-.145.142-.227.189-.344.198-.731.303-1.059.492-.228.131-.427.384-.718.34-.021-.185.137-.191.265-.227.429-.302.933-.529 1.437-.756-.266-.133-.572.092-.794.227-.2.121-.381.264-.605.378-.194.099-.424.272-.643.227.14-.247.473-.286.718-.416.266-.142.489-.28.702-.43l-.021.014c-.189-.112-.357.121-.491.189-.331-.041-.613.26-.945.34.089-.251.421-.259.605-.416-.272-.113-.577.074-.869.076-.054 0-.134-.043-.189-.038-.066.006-.094.063-.151.076-.175.038-.343-.044-.491-.038-.193.008-.548.118-.869.038-.39-.097-.68-.338-1.021-.529-.565-.017-.941-.544-1.21-.983-.12-.006-.166-.086-.302-.076a4.353 4.353 0 0 1-.794-.794c-.017-.022-.016-.088-.038-.113-.078-.094-.219-.126-.302-.227-.124-.149-.327-.634-.454-.945-.195-.479-.312-1.214-.151-2.041.264-.373.308-.763.491-1.21.021-.051.092-.096.113-.151.089-.231.224-.353.34-.567.35-.643.938-1.205 1.361-1.815.243-.074.368-.449.643-.454.141-.002.146.129.34.113.044.347.474.308.643.529-.464.154-.629-.416-1.096-.265.166-.252-.311.142-.454.302-.136.153-.202.357-.302.454-.064.062-.156.077-.189.113-.59.662-1.077 1.723-1.474 2.344-.094.654-.635 1.716 0 2.193.625.053 1.101-.219 1.55-.454.396-.207.564-.89 1.096-1.021.029.181-.079.223-.227.227-.189.277-.479.453-.605.794-.285.143-.584.273-.832.454.048.05.114.074.038.151-.149.048-.091-.11-.189-.113-.174.078-.332.172-.605.151-.127-.014-.068.159-.189.151-.088-.063-.089-.213-.227-.227.057.438.374.957.68 1.323.15.179.232.313.454.416.125-.144-.063-.217-.076-.34a.753.753 0 0 0 .189-.151c-.031-.08-.156-.147-.076-.227.072.016.068.108.189.076-.101.341-.235.84 0 1.021.177-.181-.037-.534.113-.756-.12-.244.007-.529-.038-.68.06-.003.144.018.151-.038.119.064-.042.265.038.302.153-.137.174-.406.189-.68-.075-.047-.268.04-.34.113-.183.037.014-.211-.076-.189-.224.035.122.359-.076.378-.119-.082-.11-.293-.151-.454.1-.026.18-.072.265-.113.128.011.04.237.265.151.036-.068-.101-.249-.076-.34-.111-.01-.116.085-.227.076-.033-.203.193-.101.227-.113.381-.142.545-.519.945-.681.013-.076-.008-.118-.076-.113.03-.109.183-.094.265-.151.115-.44.563-.546.756-.907.349-.13.516-.442.756-.68.354-.051.541-.39.794-.567.276-.194.619-.3.794-.605.106.007.161.066.151.189-.265-.112-.299.262-.454.378.224-.034.416-.334.605-.076.16-.059.064-.349-.076-.34-.007-.509-.564-.469-.794-.756a.57.57 0 0 0-.416.265c.157-.015.221-.166.378-.076-.017.121-.147.13-.227.189-.003.054-.006.107.038.113-.195.094-.205.374-.34.529.146-.019.264-.264.378-.189-.358.323-.657.704-1.096.945.119-.31.395-.462.529-.756-.216-.436.141-.769.378-.983-.149-.292-.68-.202-.907-.416-.301.165-.334.598-.567.832.025.038.087.039.076.113-.14-.001-.26.017-.265.151.063.109.182-.041.227-.076.093.133-.236.166-.265.302-.065.137.079.231.113.34.015.048-.035.122-.038.113.061.176.202.275.151.491-.012.053-.08.071-.113.151-.042.1-.002.23-.038.302-.011.022-.082.053-.113.113-.065.126-.244.378-.416.416.002-.188.147-.231.265-.302.078-.362.383-.813.076-1.134.057-.23-.056-.358-.113-.567.073-.129.153-.25.265-.34-.034-.104-.139.074-.151-.076.014-.149.152-.127.227-.227.085-.113.076-.279.151-.378.125-.162.349-.206.454-.378-.027-.086-.216-.011-.189-.151.161-.082.361.081.378.265.383.033.673.159.907.34.084-.029.147-.079.265-.076.209.081.314.266.605.265.022.079.094.108.076.227.304.024.32.335.567.416.19.001.143-.235.34-.227-.008.194-.182.221-.265.34.209.199.387-.227.605-.265.085.245-.392.231-.454.454.223.166.423.02.567-.189.126-.184.438-.399.567-.605.156-.247.161-.671.378-.832-.048-.286.175-.333.076-.567.2-.128.249-.406.34-.643-.034-.145-.15-.34 0-.454-.057-.107-.208-.119-.151-.34.456.002.538-.369.794-.567.073-.009.154.012.227 0 .612-.098 1.326-.575 1.815-.832.17-.089.406-.088.454-.34-.144-.064-.19.1-.302.151-.532.242-1.293.361-1.777.68-.326-.011-.43.2-.643.302-.399.05-.811.09-1.21.151-.126.019-.247.096-.378.113-.097.013-.209-.019-.302 0-.403.081-.776.244-1.172.302-.627.093-1.229.127-1.777.302.016.224.106.373.265.454.078.231.146.571.302.794.023.032.056.041.113.038.018.081-.054.072-.113.076.102.251.282.424.302.756-.263.078-.172-.203-.227-.302a.863.863 0 0 0-.227-.265v-.265c-.176-.22-.332-.544-.491-.907-.139-.317-.202-.408-.038-.68.384-.057.646-.236 1.058-.265.313-.261.798-.311 1.248-.302-.179.233-.451.098-.68.151-.237.055-.404.259-.643.34-.254.087-.501.031-.756.151.387.009.954-.129 1.285-.302.416.025.634-.147.907-.265.099-.083-.117-.126 0-.227a.37.37 0 0 1 .302 0c.26-.189.601-.19.907-.302.127-.047.238-.152.378-.189.076-.02.117.044.189.038.203-.017.335-.212.529-.227.1-.011.124.052.113.151.362-.331 1.042-.344 1.437-.643h.34c.223-.131.454-.453.832-.302.152-.062.295-.134.416-.227.693.025 1.116-.22 1.777-.227.081-.018.072.054.076.113.134.008.075-.177.227-.151.096.198.105.463.227.643.176.261.549.304.756.529.41.445.138 1.047.567 1.55.232.036.42-.281.718-.302-.111.242-.412.294-.643.416.02.056.056.095.076.151.394-.025.56-.469.945-.378.024.162-.125.083-.189.113-.265.125-.492.337-.794.416.114.136.179-.096.34-.038-.012.088.006.145.038.189.292-.053.459-.416.756-.34-.207.272-.715.243-.794.643.287.017.538-.316.869-.378-.124-.382-.044-.665-.076-1.21-.036-.62-.141-1.145 0-1.739.064-.273.116-.463.173-.65l-.022.083c.052-.179.185-.332.227-.491.022-.084-.023-.156 0-.227.022-.069.104-.201.151-.34.023-.068.053-.133.076-.189.045-.111.014-.18.076-.34.026-.068.119-.118.151-.189.024-.053-.019-.134 0-.189.082-.241.363-.555.567-.718.074.102.023.33.038.491-.299.18-.424.534-.605.832.171.136-.051.256 0 .491-.044.032-.101.05-.189.038a.51.51 0 0 1-.113.378c.305.212.621.412.794.756-.424-.055-.447-.511-.832-.605-.099.089.062.239.038.378-.118.017-.121-.081-.113-.189-.092.19-.238.567-.038.718-.089.049-.07-.005-.189.038-.101.308-.179.703-.038 1.021-.043.19-.051.479 0 .832.059.413.237.833.34 1.134.193.261.504.403.605.756.27.045.427.204.567.378.27-.006.402.127.605.189.07-.005.126-.025.151-.076.109.162.586.233.718.038.359.049.786-.006.945-.265h.189c.239-.2.585-.434.869-.718.365-.365.713-.894.529-1.512.415-.025.247.534.491.68-.008.092-.154.138 0 .189-.249.255-.39.618-.643.869.081.004.299-.179.34-.34.564-.112 1.014-.671 1.701-.416.716-.144.949.509 1.55.605.329.301.935.325 1.285.605.775-.019 1.198-.39 1.701-.68.023-.229.161-.343.265-.491v-.416c.119-.12.174-.305.302-.416-.062-.233.104-.421.113-.643.01-.249-.233-.596.038-.756.155.569.06 1.504-.302 1.89.079.457-.22.537-.265.869-.387.27-.866.636-1.361.756-.48.117-.859-.156-1.248-.34-.078-.037-.201-.008-.265-.038-.568-.26-1.055-.654-1.512-.832-.308.126-1.009-.257-1.21.189h-.227c-.146.106-.317.188-.378.378-.103.028-.076-.075-.151-.076-.451.339-.702 1.05-.756 1.663.026.163.223.155.265.302-.086.664-.085 1.277.492 1.512-.013.05-.067.059-.076.113.161.217.55.206.605.529.37.038.755.27 1.172.34.091.015.175-.021.265 0 .167.04.321.161.491.189.099.016.182-.038.302-.038.364-.001.67.072.983 0 .169-.039.323-.151.491-.189.06-.013.128.008.189 0 .405-.05.735-.294.983-.491.416 0 .574-.257.907-.34.645-.539 1.3-1.069 1.852-1.701-.091-.322.293-.451.416-.68.041.009.026.075.076.076.084-.067.137-.165.113-.34.387-.444.72-.944 1.096-1.399v-.189c.236-.319.478-.631.567-1.096-.001-.113-.178-.049-.227-.113.127-.135.036-.223-.113-.265.085-.107.213.062.302.076.012.088-.006.145-.038.189.184.021.284-.231.34-.378.121-.316.168-.809.34-1.134-.035-.53.053-1.105-.113-1.588-.032-.081-.093-.134-.227-.113.219-.148-.046-.312-.076-.529-.11.078-.381.116-.416-.076.063-.063.222-.03.34-.038-.015-.149-.166-.161-.189-.302-.38-.106-.52-.63-1.021-.491-.302-.139-.637-.282-.945-.302-.049-.003-.165.08-.265.076-.108-.005-.153-.073-.34 0-.212.083-.489.149-.718.227-.07.024-.133.1-.189.113-.155.037-.347-.015-.491.151.009.117.311-.059.265.113-.196.031-.423.031-.529.151.123.158.329-.079.605 0-.047.218-.503.026-.529.265.09.128.232-.137.34 0-.005.133-.169.108-.265.151.012.132-.014.141-.038.378.203-.044.5-.17.68-.113-.122.155-.422.133-.643.189.015.111.124.128.151.227.129-.017.34-.086.454 0-.011.178-.418-.04-.378.189-.01.249.508-.029.491.227-.099-.036-.324-.073-.416 0 .032.22.342.162.567.189.028.116-.104.073-.076.189-.235.014-.312-.133-.529-.038-.033-.294-.151-.505-.227-.756-.077-.09-.15.052-.227-.038.032-.42-.024-1.051-.492-.945-.285.521-.565 1.048-.794 1.626.245-.032.307-.248.567-.265-.183.233-.545.287-.718.529-.094.523-.481.754-.756 1.096.384.031.459-.574.832-.68.132.057.309.069.378.189.199-.153.407-.299.756-.302-.084.124-.256.09-.378.151-.105.053-.15.166-.265.189.26.201.045.655.378.794 0 .138-.177.1-.113.302.398.056.825.082.983.378-.154-.005-.447-.177-.643-.265-.069.095-.234.095-.302 0-.225.076-.176.366-.265.491-.242-.035-.048-.36.038-.416.041-.203-.024-.321.076-.416-.066-.161-.138-.316-.113-.567-.047-.079-.105-.147-.151-.227-.172.047.065.11-.038.189-.134-.008-.227.025-.265.113.005.108.158.069.265.076-.21.231-.097.785-.529.794.024.228.187.317.227.529.184.048.177-.22.302-.113-.242.616-.872-.12-1.134-.302-.704-.184-1.219.172-1.663.416-.293.16-.691.212-.945.454-.029-.284.452-.373.718-.491.301-.134.557-.349.832-.416.058-.02.002-.039-.038-.038.039-.084.174.049.302 0 .126-.038-.01-.153.113-.227.18-.097.479-.076.454-.378-.202-.01-.387.178-.605.302-.335.192-.732.419-1.134.567-.076.051-.164.088-.189.189h-.227c-.566.35-.909.771-1.285 1.248-.123-.213.287-.216.227-.491.186-.129.305-.325.492-.454v-.189c.112-.103.254-.175.302-.34.103.003.076-.063.151 0 .167-.264.447-.37.68-.567.246-.208.464-.444.718-.68.08-.075.112-.196.189-.265.037-.033.109-.008.151-.038.124-.087.242-.274.378-.416.13-.136.324-.268.416-.378.055-.065.058-.169.113-.227.202-.212.499-.353.567-.68-.534.235-.843.694-1.172 1.134-.254.005-.26.179-.416.227.143-.044-.078-.104-.038-.038-.058.044.001.095 0 .038.003.133-.472.634-.643.794-.3.28-.669.476-.794.718-.034.029-.085.041-.151.038-.042.147-.185.194-.227.34-.407.135-.529.555-.794.832-.187-.08.098-.291.038-.491.295-.272.581-.553.907-.794.007-.258.2-.33.302-.491-.027-.292.177-.352.265-.529-.068-.173-.093-.318.039-.453zm9.715.227c-.116.061-.363.074-.302.265.341-.113.75-.359.907-.529-.237.1-.418.167-.605.265zm-1.549 6.653c.155-.099.4-.172.529-.265.044-.032.261-.149.113-.227-.35.255-.835.375-1.096.718.19.043.306-.133.454-.226zm0 .264c.386-.217.916-.317 1.021-.718-.822.325-1.423.87-2.193 1.248-.052.023-.006.146-.076.151h-.189c-.55.355-1.103.781-1.701 1.096-.22.116-.492.158-.643.378.472-.145.828-.407 1.285-.567.093-.05-.041-.141.038-.151.7-.195 1.124-.666 1.777-.907.115-.067-.103-.117 0-.151.249-.056.441-.244.68-.378zm1.549-.982c-.195.057-.395.109-.454.302.141.028.311-.21.454-.302zm-6.69-5.595c-.225-.01-.359.07-.454.189.213-.002.369-.06.454-.189zm-.076-.114c-.065-.082-.263.127-.151-.076-.115-.027-.138.039-.227.038-.068.297-.379.352-.491.605.048.002.052.048.113.038.174-.279.461-.445.755-.605zm1.247-4.763c-.058.114.196.099.189.038-.067-.033-.11-.12-.189-.038zm-.037.529c.179.027.166-.137.189-.265-.17-.018-.083.22-.189.265zm.566-.038c-.158.032-.178-.073-.302-.076-.26.158.353.453.302.076zm-.642.492c.02-.059.146-.202.038-.265-.028.051-.084.264-.037.265zm-.189.075c.005-.074.166-.299 0-.302.022.101-.111.236 0 .302zm.529.038c.062-.077.173-.105.189-.227-.2.133-.138-.143-.34-.113-.079.117-.052.388.151.34zm.189 0c.047.163.356.284.454.076a.35.35 0 0 1-.151-.227c.104.042.212.059.189-.113-.306-.053-.39.114-.492.265zm-1.02.643c.045-.195.173-.506.113-.68-.079.213-.291.422-.114.68zm.075.076c.273-.13.508-.298.68-.529-.106-.128-.26 0-.378-.076-.04.262-.304.3-.302.605zm.605-.265c.147-.068.375-.053.416-.227-.051-.012-.072-.054-.151-.038.069.245-.251.102-.265.265zm-.756.454c-.078-.078-.192 0-.189.113.262.09.505-.144.605-.34-.15.064-.341.088-.416.227zm.378.037c.043.025.147.175.189.076-.056-.007-.035-.091-.038-.151.124-.015.244-.033.265-.151-.187.028-.357.073-.417.227zm-1.21.908c.248-.092.37-.311.567-.454-.263.076-.571.108-.567.454zm-1.625 2.684c.583-.319 1.1-.741 1.399-1.285.093-.169.145-.35.227-.529.138-.301.44-.756.416-.945.002.012-.001.025 0 .038h-.151c-.098.659-.638.875-.756 1.512-.362.211-.616.526-.945.794-.469.382-1.099.563-1.512 1.021.453-.056.891-.368 1.324-.605zm-.417-1.323c.095.05.118-.149.151-.038.028.116-.104.073-.076.189.16-.054.248-.18.302-.34-.095-.05-.118.149-.151.038.001-.075.103-.048.076-.151-.174.028-.197.206-.302.302zm-11.945.189c-.391.164-.877.232-1.399.265-.104.098-.292.111-.416.189-.279-.116-.481.106-.68.189-.075.026.009.211-.076.227-.342.174-.7.37-1.059.529-.211.093-.439.192-.643.189.419-.16.71-.449 1.21-.529.038-.151.227-.151.302-.265-.261-.037-.553.128-.756.265-.584.121-.932.48-1.399.718-.452-.096-.8.231-1.21.302.326-.084.626-.073.983-.113.453-.051.835-.287 1.172-.378.201-.054.287-.067.416-.113.299-.108.46-.216.68-.302.188-.074.411-.119.605-.189.365-.133.683-.225 1.059-.34.504-.154.908-.382 1.399-.491.025-.14-.133-.094-.19-.151zm20.603 2.117c.245.096.365-.346.68-.189.346-.254.761-.484 1.172-.718.407-.232.871-.436 1.134-.718-.992.546-2.044 1.031-2.987 1.626zm-20.565-.832c-.199.103-.388.172-.529.265-.091.06-.246.215-.378.113.479-.247.905-.575 1.399-.756.104-.038.232-.049.302-.151-.225-.005-.256-.037-.416.038-.318-.285-.837-.16-1.323-.151-.008.134.177.075.151.227h-.151c.067.233-.252.23-.151.378.184-.129.301-.337.529-.416.135-.047.435-.109.491 0-.295.146-.798.084-.832.491.397-.007.65-.358.945-.34-.233.259-.623.36-.983.491a1.236 1.236 0 0 0-.076.378c.517-.102.863-.506 1.323-.643.069-.02.193.02.265 0 .084-.023.154-.091.227-.113.105-.032.316.025.378-.151-.514-.062-.794.145-1.173.34zm13.193-.189c.008-.042.042-.059.076-.076-.028-.124-.136-.167-.227-.227-.011.163-.003.305.151.302zm7.145-.076c.121.053.096-.226.038-.227-.043.045-.042.134-.037.227zm.114.945c.642-.183 1.207-.72 1.739-1.134-.675.17-1.111.779-1.626.983 0-.079.206-.142.113-.189-.145.046-.268.112-.228.34zm-22.342-.415c.284-.144.539-.318.756-.529-.281-.129-.68.209-.756.529zm22.455-.378c.008.138.052.145 0 .265.318-.085.539-.267.756-.454-.316 0-.511.35-.756.189zM15.009 8.06c-.193.211-.661.146-.832.378.398.191.592-.126.983-.227-.005-.096-.055-.147-.151-.151zm18.826.454c.148-.03.254-.414.151-.454-.046.156-.129.275-.151.454zM11.077 9.762c.405-.254.654-.793 1.021-1.096.1-.082.29-.219.454-.151-.639.369-1.004 1.013-1.55 1.474.079.226.047.458.227.643-.043.045-.043.134-.038.227.01.078.167.009.151.113.11.57.41.951.454 1.588.449-.27.815-.823 1.399-.832-.508.299-1.053.56-1.361 1.059.084.005.016.16.038.227.245-.136.524-.324.454-.567.361.2.658-.555 1.021-.34-.565.241-.975.638-1.399 1.021.127-.081.159.157.265.151.023-.001.137-.181.189-.227.277-.245.735-.492.945-.529-.373.345-.879.557-1.21.945.123-.009.089.138.151.189.118-.174.323-.337.529-.491.171-.128.406-.391.605-.265-.279.182-.657.374-.907.605-.103.095-.248.269-.227.416.274.003.442-.287.68-.454.187-.131.391-.25.605-.34.107-.031.098.053.189.038a5.292 5.292 0 0 1 1.172-.756c.052-.048.023-.178.076-.227.351-.053.627-.438 1.021-.567-.066-.212.15-.276.038-.416-.337.104-.529.353-.832.491-.107.031-.098-.053-.189-.038-.298.166-.588.325-.869.529-.267.194-.495.52-.832.529.239-.28.572-.459.869-.681a4.184 4.184 0 0 1 1.021-.567c.104-.081.158.022.265-.038.123-.23.544-.162.529-.529-.398.018-.538.495-.869.454.205-.337.735-.349.869-.756-.387.066-.644.264-.794.567-.49.194-.938.542-1.323.832-.107.081-.302.335-.454.151.296-.116.506-.344.756-.529.519-.385 1.073-.62 1.474-1.059-.172.046-.119-.133-.227-.151-.141.125-.288.22-.265.416h-.189c-.399.239-.838.591-1.21.832-.109.07-.287.241-.416.113.242-.142.394-.224.605-.378.116-.085.221-.186.34-.265.255-.168.55-.283.756-.454.069-.057.131-.187.227-.265.239-.192.519-.252.567-.567-.392.062-.549.358-.869.491.005.093.006.182-.038.227-.089.012-.142.06-.265.038-.365.215-.665.494-1.059.68-.108.124-.379.427-.567.227.686-.284 1.108-.833 1.815-1.096-.012-.088.006-.145.038-.189.088.012.145-.006.189-.038.139-.239.489-.267.643-.491-.207-.29-.476.155-.718.189-.053.048-.016.185-.113.189-.761.322-1.428.739-1.928 1.323-.446.184-.751.711-1.172.794.345-.31.666-.645 1.096-.869.039-.05.037-.139.076-.189.453-.239.859-.672 1.285-.907.169-.093.367-.125.529-.227.129-.081.239-.25.378-.34s.405-.1.378-.302c-.253-.051-.56.171-.718.34-.612.132-1.051.475-1.437.794-.121.1-.276.28-.454.227.399-.353.794-.712 1.285-.945.181-.086.393-.101.567-.189.105-.053.19-.158.302-.227.116-.071.287-.086.34-.227.012-.088-.006-.145-.038-.189-.328.025-.442.263-.643.416-.672.223-1.097.692-1.701.983-.083.079.033.122-.038.189-.26.168-.549.352-.794.567-.211.186-.349.487-.605.529.088-.187.268-.355.416-.491.262-.242.552-.467.832-.643.078-.067.033-.117.076-.151.66-.55 1.502-.917 2.193-1.437.102-.074.298-.055.265-.265-.198-.158-.411.115-.643.151.004.094.071.117 0 .189-.512.13-.931.518-1.323.756-.113.069-.331.235-.454.113.591-.278 1.022-.717 1.663-.945.014-.389.54-.266.643-.567-.227-.1-.394.185-.643.189.006.094-.02.157-.076.189-.655.214-1.065.674-1.701.907.005.093.006.182-.038.227-.609.235-.887.802-1.437 1.096.35-.482.814-.85 1.323-1.172.023-.091.054-.172.038-.302-.424.206-.737.523-1.021.869-.201.014-.281.348-.491.227.044-.127.172-.115.265-.189.391-.313.665-.785 1.172-.983-.003-.154.12-.183.113-.34-.864.082-1.079 1.013-1.663 1.248.423-.535.854-1.062 1.474-1.399-.046-.206.021-.525-.113-.643-.542.437-1.127.835-1.433 1.512zm-.038 6.956c.074.106.266.153.416.076.006-.056-.014-.139.038-.151.164.05.264.164.454.189-.087.077-.178.15-.265.227.513.104.987-.09 1.399 0 .023.067-.111.157 0 .189.236-.119.337-.169.605-.34.436-.28.986-.647 1.172-1.021-.458.153-.772.505-1.134.756-.18.124-.312.286-.529.34.05-.165.209-.159.34-.265.409-.33 1.011-.977 1.512-.945.049-.204.378-.327.265-.567-.822.388-1.59.829-2.079 1.55-.128-.175.1-.263.113-.416.64-.431 1.159-.983 1.966-1.248h.227c.048-.365.341-.654.265-1.021-.802.181-1.339.828-1.89 1.134.512-.584 1.14-1.053 1.966-1.323v-.265c-.869.189-1.413.704-2.004 1.172-.12-.006-.126.101-.265.076-.166.297-.867.519-.756.869.209-.013.295-.273.454-.416.124-.111.416-.373.567-.189-.46.145-.719.491-.983.832.183.08.077.265.038.416.045.006.107-.006.113.038-.062.235.027.324 0 .454-.165-.109-.24-.344-.227-.605-.167-.137-.088-.307-.151-.567-.045-.006-.107.007-.113-.038.034-.08.115-.112.113-.227-.131-.008-.201-.076-.302-.113.243-.159-.059-.541-.113-.756.007-.107.18-.047.151-.189-.263-.052-.152-.478-.34-.605.032-.044.05-.101.038-.189-.048-.052-.179-.023-.227-.076.035-.091.152-.1.113-.265-.114.053-.274.055-.302-.076.103-.307-.191-.664-.076-.983-.065.002-.097-.029-.113-.076.101-.297-.177-.523-.302-.718h.113c-.113-.252-.228-.503-.454-.643-.013-.152.001-.277.113-.302-.118-.105.098-.32-.076-.34-.103-.027.027.178-.076.151-.03-.083-.178-.049-.189-.151.176-.111.018-.207.076-.34.095.031.12.132.189.189.091-.104.069-.222 0-.34-.259-.056-.394.142-.529-.038.08-.097.279-.074.454-.076.261-.495.833-.679 1.059-1.21-.597.336-1.047.818-1.588 1.21-.044.032-.101.05-.189.038.227.277.006.85-.189 1.059-.115.027-.138-.039-.227-.038.016.084.087.205-.038.227-.116.028-.073-.104-.189-.076a2.46 2.46 0 0 0-.869 1.134c.101.131.167-.21.265-.076-.089.062-.043.26-.113.34-.079-.021-.122-.108-.189-.038-.136.128-.256.273-.265.529-.058.123-.212.079-.302.151-.218.174-.297.524-.643.605-.025.138.082.145.076.265.38-.111.494-.489.832-.643-.142.35-.554.429-.68.794.45.081.496-.56.869-.68-.173.318-.434.549-.68.794-.028.116.104.073.076.189.219-.05.321-.244.454-.416.127-.164.237-.41.416-.416-.082.158-.189.277-.265.378-.032.043-.045.114-.076.151-.136.168-.398.25-.454.491.168.121.222-.141.34-.189.21-.067.274-.28.454-.378-.078-.139.01-.209.038-.34.3-.015.314-.316.567-.378-.018.309-.284.371-.491.491-.096.092.08.081.038.227-.213.19-.437.369-.605.605.197-.046.222.08.227.227.501.157.604-.568.945-.567-.127.289-.439.393-.567.681.27.222.404-.15.605-.227.098.199-.294.201-.302.416.283.029.448-.348.681-.491.218.016.284-.319.454-.227-.126.151-.21.344-.491.34-.081.309-.49.291-.529.643.421.101.424-.4.68-.34-.053.25-.359.246-.416.491.642.062.674-.687 1.134-.68-.266.264-.479.579-.832.756 0 .1-.014.216.038.265.357-.009.43-.502.718-.454-.082.271-.571.336-.491.643.226-.034.347-.349.529-.302-.117.223-.436.244-.454.567.371.031.443-.439.718-.378-.042.185-.28.173-.302.378.238.134.385-.304.567-.227-.046.132-.313.239-.151.454.062-.041.195-.205.265-.113-.067.147-.28.148-.302.34.197.08.22-.097.416-.113-.039.064-.028.371-.113.265.073-.222-.156.007-.23.073zm-2.495-8.28c-.138.001-.17.107-.265.151-.236.092-.617.038-.643.34.533.029.778-.389 1.285-.265.036-.117.363-.139.265-.265-.172.149-.423.108-.643.038zm4.348.492c.034.111.034.116 0 .227.346-.108.611-.355.907-.529.113-.066.296-.062.34-.227-.554.04-.797.388-1.248.529zm14.478-.227c.015-.065-.056-.097 0-.113.111.116.18.273.34.34.066-.421-.498-.621-.907-.491.244.034.338.218.568.265zm6.54.302c.157-.006.243-.447.114-.491-.055.147-.147.257-.114.491zm-19.809-.453c-.219.145-.435.3-.681.454-.182.114-.562.186-.529.491.286-.046.492-.275.718-.416.239-.148.55-.213.718-.454-.005-.097-.127-.075-.227-.075zm-2.533.302c.074-.064.189-.088.227-.189-.147-.04-.285.268-.227.189zm12.626.227c.171-.018.224-.154.34-.227-.133-.076-.246.143-.341.227zM7.448 8.854c-.207.221-.644.213-.832.454.498.077.657-.328.945-.34.026-.102-.078-.073-.113-.113zm26.311.189c.139.036.15-.186.038-.189.016.091-.068.082-.037.189zm-23.325.151c.173-.067.306-.173.416-.302-.164.075-.318.161-.416.302zm.529.341c.102.075.206-.102.227-.227.108-.066.384-.333.265-.378-.148.217-.398.333-.492.605zm-1.058-.227c.173-.117.513-.067.529-.34-.232.058-.45.13-.529.34zm24.27.189c.119-.071.397-.182.34-.302-.121.069-.402.176-.341.302zm-24.648 0c.07.036.126-.113.151 0 .002.069-.194.128-.076.189.094-.107.231-.172.227-.378-.186-.021-.278.049-.302.19zm23.438.907c.283-.246.585-.675.605-1.059-.22.334-.441.667-.605 1.059zm-10.169-.415c-.027.402-.466.592-.567.794.045-.005.086-.067.113 0-.017.134-.093.21-.227.227-.014.256-.191.297-.302.416-.383.408-.742.771-1.21 1.021-.246-.032-.336.092-.491.151-.04.166.128.124.113.265.702-.08.878-.684 1.399-.945-.14.226-.376.355-.529.567.325-.027.465-.297.605-.491.055-.077.146-.125.189-.189.074-.11.084-.272.151-.378.211-.335.529-.616.718-.945-.111-.043-.14.181-.189.076.226-.202.5-.357.567-.718-.03-.158-.147-.117-.076-.302-.15.086-.105.371-.264.451zm-13.723-.19c.072.025.32-.042.34-.189-.185-.009-.264.089-.341.189zm.492-.037c-.108.105-.373.47-.265.491.054-.11.259-.069.302-.189-.168-.061.103-.286.151-.378-.054-.011-.14.027-.19.076zm20.792 4.612c-.384.296-.831.532-1.172.869-.329.024-.56.146-.756.302h-.189c-.274.268-.799.284-.983.643.349.071.564-.191.794-.113-.201.089-.465.115-.567.302.325.01.554-.076.68-.265.531-.15.972-.389 1.399-.643.005-.07.025-.126.076-.151.928-.445 1.424-1.323 2.117-2.004-.029-.18.135-.168.113-.34.622-.714 1.218-1.454 1.55-2.457-.22.045-.246.283-.302.491-.079.047-.147.105-.227.151-.032.182-.157.272-.189.454-.112.052-.153.175-.265.227a4.599 4.599 0 0 1-.983 1.285c-.172.163-.392.267-.567.416-.193.164-.326.383-.529.529-.077.056-.188.062-.265.113-.182.123-.347.313-.529.454-.184.142-.345.332-.567.416.08-.241.355-.298.529-.454.156-.139.238-.312.416-.416.101-.059.242-.053.34-.113.201-.122.312-.372.491-.529.04-.035.138-.035.189-.076.71-.556 1.149-1.211 1.701-1.928-.039-.354.212-.418.265-.68-.376.267-.529.757-.832 1.096-.437.168-.604.605-.983.832-.037.329-.307.424-.529.567-.399.774-1.266 1.077-1.89 1.626-.099.011-.03-.147-.151-.113-.191.074-.367.162-.491.302.205.041.399-.156.529-.151.109.188-.267.175-.302.34-.236-.163-.526.112-.718.227.027.086.262-.035.227.113-.365-.021-.445.051-.718.151-.127-.009-.238-.081-.302.038.127.18.505.127.605-.038.459-.035.872-.363 1.323-.567.147-.066.344-.077.492-.151.213-.107.448-.331.68-.491.306-.21.691-.517.832-.681-.052.182-.209.316-.343.418zm-2.382.793a.949.949 0 0 1-.454.076c-.065.023.003.179-.076.189-.275.065-.513.168-.68.34.498-.08 1.014-.345 1.21-.604zm5.633-5.368c-.231.198-.448.61-.454.907.117-.337.434-.473.454-.907zm-24.346.87c.044-.032.101-.05.189-.038-.011-.086.009-.142.076-.151.3-.003.446-.36.416-.567-.045.056-.033.169-.151.151.004.453-.599.072-.605.491.251-.063-.034.225.075.114zm24.573-.227c.167-.097.413-.116.491-.302-.203.061-.433.095-.491.302zm-17.353.264c.378-.076.729-.178.907-.454-.029-.008-.044-.032-.038-.076-.35.117-.736.196-.87.529zm20.037.152c.022.133-.179.124-.076.227.413-.268 1.083-.479 1.323-.794-.454.051-.792.407-1.247.568zm-20.452-.416c.077.011.074.102.151.113.032-.044.05-.101.038-.189-.094-.006-.184-.007-.189.076zm1.285-.038c-.13.323-.579.328-.869.491-.009.134.025.227.113.265.266-.206.607-.298.945-.34-.011-.19-.03-.373-.189-.416zm15.235.529c.136-.103.317-.162.34-.378-.211.03-.255.225-.341.378zm1.815.417c.367-.251.806-.429 1.096-.756-.324.08-.625.181-.794.416-.487.105-.968.545-1.323.907.606-.112.776-.661 1.285-.869-.042.123-.33.199-.264.303zm-18.033-.379c-.006-.153.094-.295-.076-.34-.06.077-.073.352.076.34zm17.277.265c.078-.083.212-.196.34-.302.104-.086.39-.189.227-.302-.137.216-.646.339-.568.605zm-16.445-.152c-.006-.045.006-.107-.038-.113-.183.236-.815.214-.718.605.296-.161.63-.315.907-.454.085-.042.295-.074.265-.227-.232-.029-.23.175-.416.189zm18.826-.113c-.409.196-.956.455-1.172.718.008-.029.032-.044.076-.038-.108.17-.346.208-.491.34.594-.2 1.115-.674 1.663-.794-.291.313-.815.395-1.172.643-.036.078-.047.18-.151.189-.058-.132-.366.102-.416.227.114 0 .01.071.076.151.105-.059.21-.117.34-.151.142-.362.601-.407.907-.605-.034.067-.139.062-.151.151.372-.182.731-.378 1.134-.529-.013-.1-.099-.128-.189-.151-.095.031-.148.104-.265.113.003-.066-.008-.118-.038-.151-.145-.053-.275.099-.34 0 .119.017.154-.048.189-.114zm-4.045.908c.132-.03.262-.226.34-.378.08-.155.211-.483.113-.491-.144.298-.333.55-.455.87zm-15.5-.151c.03.131-.056.145-.038.265.455-.264.965-.472 1.285-.869-.535.082-.847.388-1.248.605zm1.702-.454c-.073-.015-.03-.147-.151-.113-.049.117.107.215.151.114zm.453.529c.036-.212-.122-.231-.265-.265-.053.099.105.256.264.264zm.076-.038c.078.073.272.05.265-.076-.107.007-.26-.033-.265.076zm-3.705.983c.26-.42.906-.455 1.059-.983-.42.147-.781.353-.983.718-.585.197-.97.593-1.474.869-.091.015-.082-.069-.189-.038-.214.094-.378.274-.567.416-.179.135-.478.227-.491.529.203.02.387-.175.567-.302.193-.137.378-.295.605-.378.088-.012.145.006.189.038.24-.151.446-.335.718-.454-.119-.157.187-.282.265-.227-.063.075.003.048 0 .151-.391.214-.626.584-1.21.605-.373.32-.94.446-1.096.983.268.075.424-.199.605-.34.241-.188.535-.415.869-.454.419-.299.724-.712 1.285-.869.27-.247.527-.506.945-.605.001-.089-.065-.111-.038-.227-.536.096-.81.65-1.285.68a.741.741 0 0 1 .378-.378c.028.145-.287.141-.154.263zm1.247-.794c.016-.072.108-.068.076-.189-.121-.015-.216.161-.076.19zm2.912.189h-.227c-.087-.069-.176-.278-.302-.189.092.374.607.326.643.756.159.008.316.014.34-.113-.217-.022-.344-.134-.454-.265.203-.036.373.211.605.227.114.008.327-.082.378-.113.107-.067.267-.109.265-.227-.422.171-.957.278-1.247-.075zm13.949-.037c.119.018.107-.095.151-.151-.118-.018-.168.033-.151.151zm.756.037a.503.503 0 0 0 .302-.189c-.141.023-.282.046-.302.19zm-14.214.038c.252 0 .477-.027.605-.151-.179.072-.5.003-.605.151zm-.869.34c.189-.116.157.154.378.113-.095-.245-.317-.363-.567-.454-.02.196.194.159.189.34zm14.101-.037c.129.003.141-.111.189-.189-.048-.002-.052-.049-.113-.038-.009.1-.159.143-.075.226zm.982-.227c-.031.155-.192.089-.302.151-.062.035-.111.139-.189.189-.161.103-.36.146-.491.265-.046.042-.066.117-.113.151-.15.108-.241.043-.114.189-.289.177-.635.297-.794.605.463-.079.544-.54 1.021-.605-.002-.065.029-.097.076-.113.011-.074-.051-.075-.076-.113.188-.013.217-.187.378-.227.202.137.437-.24.68-.302-.017-.071.051-.228-.077-.189zm-1.361.718c.252-.102.591-.299.794-.454.045-.034.26-.149.113-.189-.331.184-.683.349-.907.642zm-10.471-.303c.004.097.147.054.151.151-.136.213.067.41.151.529.099-.295-.105-.595-.113-.907h-.151c.028.116-.065.111-.037.227zm-6.049-.151c-.651.509-1.439.88-2.041 1.437-.32.054-.631.261-.869.454-.223.181-.573.393-.529.718.452-.279.677-.785 1.323-.869.088-.114.243-.361.416-.265-.152.138-.32.26-.454.416-.577.129-.918.493-1.21.907.167-.054.099.128.227.113a3.129 3.129 0 0 1 1.021-.756c.267-.131.455-.429.718-.605a6.604 6.604 0 0 1 1.172-.605c.146-.025.134 0 .227-.038.054-.185.108-.371.113-.605a.669.669 0 0 0-.454.265c.076-.015.28-.094.34 0-.217.106-.41.19-.605.302-.197.113-.366.241-.567.34-.084.156-.326.354-.454.34.326-.367.72-.666 1.172-.907.031-.372.515-.292.605-.605-.051-.011-.073-.053-.151-.037zm17.503.416c.172-.169.508-.172.605-.416-.213.102-.651.18-.605.416zm-12.815-.114c.108-.057.391-.137.302-.265-.067.123-.259.119-.302.265zm-.946-.075c.111-.034.116-.034.227 0v-.151c-.092.034-.218.035-.227.151zm12.363.265c.167-.035.236-.167.302-.302-.142.06-.216.188-.302.302zm3.175.113c.358-.057.572-.26.832-.416-.29.126-.645.187-.832.416zm-15.121.114c.038-.05.036-.141.113-.151-.044-.133-.113-.24-.302-.227.008.179.028.349.189.378zm.188-.114c.139-.012.197-.106.227-.227h-.151c.03.131-.042.16-.076.227zm-13.722.038c.148.117.325.204.454.34.053.073.021.231.189.189-.017-.386-.467-.339-.529-.68h-.113v.151zm25.404-.038c-.291.013-.02.285 0 0zm-25.48.265c-.259-.085-.33.216-.454.378-.05 0-.035-.066-.076-.076-.021.092-.146.081-.113.227.143-.055.073.104.189.076.245-.171.401-.43.567-.68-.048-.002-.052-.048-.113-.038v.114zm-2.457 1.285c-.207-.018-.264.115-.302.265.167-.022.244-.133.302-.264zm1.21.227c-.042-.008-.059-.042-.076-.076.2-.455.486-.825.643-1.323-.146.071-.102-.088-.265 0-.008-.072.043-.083.038-.151-.43.163-.549.636-1.059.718-.106.373-.459.498-.567.869.242.04.182-.221.416-.189v.189c.138-.016.186.013.378 0 .051.176.217.237.416.265.165-.402.502-.632.68-1.021-.002-.048-.049-.052-.038-.113-.329.136-.399.532-.567.831zm-1.248.189c.115.027.138-.039.227-.038.011-.086-.009-.142-.076-.151-.007.106-.18.047-.151.189zm3.1.189c-.04-.035-.012-.139-.113-.113-.079.022-.122.079-.189.113-.001.089.065.111.038.227-.099.011-.03-.147-.151-.113-.07.106-.261.092-.265.265.096.128.21.036.34 0 .46-.12.723-.436 1.096-.643-.045-.157-.167-.237-.34-.265v.227c-.089-.012-.07-.131-.189-.113-.14.071-.185.241-.227.414zm.227-.529c-.067-.261-.266-.389-.567-.416.114-.226.445-.235.491-.529-.334-.126-.414.278-.605.416-.077-.214.259-.313.302-.529-.063-.101-.089-.238-.189-.302-.254.162-.478.353-.567.68.351.153.354-.544.68-.416-.076.138-.224.204-.34.302v.227c-.282.323-.636.573-.794 1.021-.036.146.147.156.038.265-.205-.063-.056-.351-.113-.491.221-.245.442-.491.681-.718-.081-.07-.277-.025-.416-.038-.205.213-.314.63-.416.832-.06-.028.009-.185-.113-.151-.025.114-.145.132-.113.302.079.093.242.144.151.302.176.038.245.183.454.189.102-.106-.067-.155-.038-.302.238-.316.291-1.019.756-.983-.195.134-.495.317-.416.605-.123.129-.262.242-.227.529.508.247.811-.385.756-.832-.287.154-.368.514-.491.832-.159-.18.117-.523.227-.68-.02-.172.076-.226.113-.34.149.089.116-.071.265-.076-.136.171-.043.438-.038.68.143.004.203-.074.227-.189-.028-.162-.198-.38-.113-.529.182.095.094.46.302.529.012-.089.131-.07.113-.189zm24.194-1.021c.024-.102.158-.094.151-.227-.102.001-.254.146-.151.227zm-1.89.378c.064-.075.166-.111.189-.227-.102.015-.273.154-.189.227zm-22.645.151c.166.108.367-.022.378-.189-.162-.105-.305.085-.378.19zm.53.454c.156-.164-.225-.264-.076-.416.132.045.096.257.265.265.049-.043.155-.078.151-.151.001.025-.322-.399-.34-.378-.178.167-.356.556 0 .68zm23.552.113c.254-.212.709-.223.869-.529-.386.055-.736.347-.869.529zM2.495 18.305c-.212.024-.308-.3-.151-.416.013.113.022.23.113.265.088-.378.06-.872.34-1.058-.171.597-.239 1.18-.076 1.852.313-.103.519-.513.832-.491-.234.232-.582.351-.756.643.248.408.453.857.907 1.059.514-.381 1.053-.737 1.55-1.134 1.043-.608 1.78-1.522 2.911-2.041.325-.293.61-.625 1.096-.756-.031.107.053.098.038.189-.152-.026-.216.036-.34.038-.247.232-.553.405-.794.643-.837.386-1.457.987-2.117 1.55-.107-.031-.098.053-.189.038-.512.509-1.246.796-1.701 1.361-.11.054-.237.091-.265.227.35.099.637.221 1.021.227.994.016 1.88-.203 2.76-.34.124-.019.244.017.378 0 .316-.039.73-.184 1.021-.302.234-.095.436-.276.68-.378.14-.058.319-.055.454-.113.646-.281 1.23-.842 1.777-1.172-.191-.325-.489-.545-.718-.832a2.85 2.85 0 0 1-.454.416c-.016-.144.246-.205.151-.302-.386.235-.736.544-1.134.794-.178.112-.437.197-.529.302-.016.019-.093-.015-.113 0-.416.299-.812.649-1.172.945-.129.106-.261.303-.454.265 1.017-1.012 2.325-1.733 3.591-2.495-.03-.222-.223-.281-.265-.492-.269-.058-.315-.34-.643-.34-.099.09-.219.159-.302.265-.481.022-.782.261-1.059.454a34.87 34.87 0 0 1-.718.492c-.509.335-.944.674-1.361 1.058-.44.406-.868.859-1.285 1.21-.098.083-.355.335-.454.151.511-.251.818-.665 1.21-1.021.214-.194.405-.354.605-.529.638-.561 1.383-1.091 2.079-1.55.403-.265.938-.43 1.361-.605-.23-.312-.651-.432-.756-.869-.417.02-.476-.455-.832-.378-.045-.232-.189-.365-.378-.454-.189.328-.594.439-.794.756-.107.12-.384.07-.454.227.086.028.295-.068.265.076-.117.063-.363.055-.454.038-.156.175-.431.25-.567.454-.05.075-.023.243-.113.302.029.097.038.214.113.265.052-.023.006-.146.076-.151-.023.098.015.136.113.113-.246.196.157.389.038.567.252-.086.431-.29.643-.454.42-.325.885-.606 1.285-.907.201-.152.356-.38.605-.416-.472.582-1.22.9-1.815 1.361-.039.03-.065.111-.113.151-.209.173-.519.302-.567.567-.056-.044-.095-.044-.151 0-.192.237-.489.368-.794.491-.462.516-1.174.833-1.701 1.248-.152.12-.323.474-.567.265.045-.056.033-.169.151-.151.036.07-.113.126 0 .151.933-.793 2.022-1.431 2.987-2.193-.06-.154-.085-.343-.189-.454-.389.135-.62.508-.945.756-.268.204-.586.358-.832.567-.19.162-.303.408-.567.416.694-.68 1.553-1.194 2.268-1.852a.623.623 0 0 1-.113-.454c-.344.059-.529.278-.832.378.158-.271.504-.353.794-.491-.023-.179-.128-.275-.227-.378-.163.076-.321.276-.529.189-.18.122-.334.271-.454.454-.104.022-.158.094-.265.113-.014.163-.191.168-.302.265-.198.172-.344.48-.567.491.465-.555 1.077-.964 1.626-1.437.107-.031.098.053.189.038.027-.137.22-.108.227-.265-.407-.085-.513-.47-1.021-.454-.022-.079-.079-.122-.113-.189-.303.044-.782.108-1.021.189-.289.467-.617.895-.756 1.512.709-.463 1.338-1.006 2.117-1.399-.104.287-.479.303-.643.529-.357.096-.487.42-.869.492-.168.235-.434.372-.643.567-.119-.099-.2.105-.34 0-.117.101.099.144 0 .227-.121-.032-.117.06-.189.076-.142.375-.204.83-.265 1.285.133.157.188.392.34.529.06.163-.008.251.113.378.138-.034.201.067.265 0-.151-.349-.399-.734-.301-1.213zm5.292-3.591c.063.076.101.176.227.189.104-.085.187-.191.34-.227-.063-.314-.512-.242-.567.037zm1.172.038h-.151c.012.031.041.052.076.052s.064-.022.075-.052v-.001zm14.971.151c-.029-.008-.044-.032-.038-.076-.191.076-.277-.148-.378-.038.136.022.339.271.416.114zm6.426.529c.258-.108.501-.23.68-.416-.247.117-.63.1-.68.415zm-.265-.151c.156-.021.229-.124.302-.227-.131.045-.27.082-.302.227zm-27.029.34c.003.06.096.03.076.113-.094.154-.351.318-.227.567-.368-.011.04.501-.302.34.053-.098.052-.25.113-.34-.138.025-.176.152-.302.189.176.066-.038.288.076.416.546-.033.373-.786.718-1.021v-.151c.155-.122.386-.369.34-.567-.084.232-.446.185-.491.455zm20.943-.189c.293-.17.391.148.718.038-.141-.174-.457-.173-.756-.189-.004.064.007.117.037.15zm.945 0c.1.036.324.073.416 0-.04-.212-.327-.068-.416 0zm-1.398.227c.244-.122.393.087.567.151.091-.204-.245-.275-.492-.265-.123-.066-.235-.143-.454-.113.019.183.302.102.378.228zm6.199.113c.19-.049.313-.166.491-.227.002-.065-.029-.097-.076-.113-.119.133-.348.156-.415.341zm-4.045-.264c-.035.137.25.086.227 0-.07-.075-.138-.012-.227 0zm-10.207.793c.006.05-.127.141-.038.151.476-.331 1.13-.483 1.512-.907-.563.18-.873.614-1.474.756zm7.334-.717c.079.199.37.385.567.34-.208-.077-.301-.448-.568-.341zm1.512.075c.116.074.306.101.378-.038-.155.038-.321-.13-.378.037zm1.437.113c.204.009.344.067.529 0 .011.099-.147.03-.113.151.131-.03.145.056.265.038.128-.126-.044-.131.076-.265-.351.018-.554-.162-.756.076zm-.643-.113c-.094.004-.117.071-.189 0-.013.129.219.159.189 0zm-19.128.113c-.002.216.11.318.227.416.006-.056-.014-.139.038-.151.016.047.049.077.113.076.069-.133.245-.158.302-.302-.173-.034-.214.063-.34.076.008-.229-.186-.11-.34-.113zm19.317.076c.168-.03.227.05.378.038-.027-.13-.324-.15-.378-.037zm-1.361 0c-.034.066-.133.069-.189.113-.067-.061-.266-.185-.34-.113a.433.433 0 0 1 .265.265c.297-.107.322.256.529.113-.105-.084-.28-.098-.34-.227-.009-.067.179-.118.077-.152zm.87.075a1.76 1.76 0 0 0-.643-.113c.067.231.521.232.643.113zm4.612.039c.093-.033.218-.034.227-.151-.089.036-.24.012-.227.151zm-4.424.037c.086.011.142-.009.151-.076-.051-.012-.072-.054-.151-.038v.113zm-8.316.416c-.421.019-.814.266-1.134.34-.057.013-.15-.1-.151.038.139.012.335-.032.416.038.325-.279 1.002-.208 1.285-.529-.16-.189-.265.075-.416.115zm.226-.265c-.056-.115.012-.147-.038-.227-.167-.024-.256.126-.378.189-.389.2-.826.313-1.172.567.601-.045 1.098-.278 1.587-.53zm10.132-.113c-.284.069-.649.056-.945.113.214.234.806.081 1.021-.038-.005-.047-.012-.09-.077-.076zm-2.306.227c.176.134.36-.001.416-.189-.229-.027-.333.07-.416.189zm-14.214-.114c-.032.209.075.278.227.302.059-.092.141-.161.113-.34-.178-.009-.207.207-.34.038zm15.159.038v.113c.186.041.276.02.491.076-.075-.137-.331-.259-.491-.189zm2.987.265c.217-.048.494-.035.529-.265-.234.031-.343.187-.529.265zm-1.663-.076c.082-.044.245-.007.265-.113-.102-.041-.307-.088-.265.113zm-10.132.227c.07.036.126-.113.151 0-.144.219-.638.12-.794.302.518-.011.86-.198 1.248-.34-.014-.112-.066-.186-.151-.227-.018.222-.39.089-.454.264zm.642.038a1.203 1.203 0 0 1-.34.227c-.163.075-.418.061-.491.227.318.029.72-.119.983-.265-.022-.092-.033-.195-.152-.189zm-3.591.491c.278-.025.396-.209.529-.378-.256.047-.432.173-.529.378zm-2.646-.151c.077.03.378.015.416-.113-.135-.088-.34.023-.416.113zm7.145 3.592c.204-.299.221-.837.151-1.248-.022-.132-.17-.24-.076-.378-.338-.329-.525-.811-1.021-.983-.022-.155-.174-.179-.189-.34-.489-.178-.81-.526-1.361-.643-.116-.028-.073.104-.189.076-.08-.046-.11-.142-.227-.151-1.245.154-1.685 1.112-2.004 2.193.14.017.303-.182.378 0-.58.063-.585.701-.643 1.285.19 0 .303-.275.454-.189-.047.231-.378.177-.454.378.002.048.048.052.038.113.14.027.162-.065.302-.038-.034.168-.344.059-.265.34.174-.015.278-.259.416-.189-.041.286-.527.128-.454.529.094.049.157-.111.189 0-.042.084-.239.128-.113.265.041.134.186-.134.227 0-.031.133-.231.097-.227.265.051.025.07.081.076.151.11.004.217-.159.265 0-.152.037-.273.105-.227.34.086.129.146-.172.227-.038-.042.138-.251.168-.151.34.175-.002.137-.215.34-.189-.013.264-.399.155-.34.491.132.111.217-.254.378-.113-.067.134-.247.156-.34.265-.022.161.027.25.038.378.224.034.255-.323.416-.227-.031.208-.229.25-.34.378.023.091.054.173.038.302.173.037.147-.25.302-.113-.14.144-.361.368-.189.605.088-.022.194-.221.265-.038-.037.102-.184.093-.227.189a.956.956 0 0 0 .038.378c.059.108.176-.079.227.038-.091.107-.164.317-.076.491.126 0 .185-.182.302-.076-.12.154-.347.3-.227.491.03-.037.178-.144.189-.076-.071.13-.177.274-.038.416.2.011.114-.264.302-.265.026.274-.335.335-.189.605.15.132.187-.193.302-.076.002.165-.138.19-.113.378.067.131.188-.011.265.076-.012.089-.131.07-.113.189.053.123.109.243.189.34.206-.008.144-.284.34-.302.065.279-.204.224-.189.454.271.241.549.676.945.567.078-.1.118-.392.265-.302-.041.237-.214.341-.34.492.093.033.112.14.189.189.235-.042.25-.305.454-.378.032.296-.25.28-.302.492.093.109.246.157.265.34.271.056.274-.355.454-.265-.05.164-.176.252-.227.416.218.174.483.256.718.454.032.027.051.128.076.151.286.27.642.519.983.68.155.073.41.23.529.265.299.086.669.077 1.021.151.191.04.379.17.567.189.35.035.6-.18.945 0 .466-.186.968-.077 1.323-.34.186-.138.319-.516.454-.68.042-.051.146-.056.189-.113.375-.496.465-1.089.416-1.928a.977.977 0 0 0 .113-.302v-.34c.087.012.042-.109.113-.113.113.045.211-.01.34.076-.067.218.007.357-.038.567.154-.098.329-.175.454-.302-.146-.084-.033-.26 0-.378-.089.012-.142.06-.265.038-.185-.13-.264-.366-.529-.416-.164-.541-.652-.759-.68-1.437-.108-.194-.416-.189-.454-.454.088.012.145-.006.189-.038a8.76 8.76 0 0 0 .302-2.495c.115-.014.086.167.151.227.02.018.138.007.189.038.229.137.259.312.643.227.147.08.227.226.34.34.275-.158.63.147.869.265.203-.226.776-.152 1.134-.113.094-.108.272-.131.492-.113.255-.173.598-.259.794-.492.041-.097-.163-.132-.038-.189.141-.04.06.142.189.113.044-.056.157-.045.151-.151-.253-.009-.575-.107-.756-.151-.163-.04-.317.025-.491 0-.373-.052-.804-.311-1.21-.378-.27-.045-.366-.044-.529-.151-.011-.099.147-.03.113-.151-.14-.078-.099.054-.265.038-.259-.195-.445-.462-.68-.68-.04.035-.012.139-.113.113-.154-.212-.513-.419-.491-.68.253 0 .279.426.491.34-.066-.035-.083-.118-.076-.227.066-.003.118.009.151.038-.064-.138-.148-.255-.189-.416-.249-.041-.515-.065-.756-.113-.018.182.235.093.265.227-.051.183-.026.233-.113.34-.05-.038-.141-.036-.151-.113.043-.045.108-.068.076-.189-.408.001-.418-.586-.794-.492-.033.146.165.062.113.227-.253-.075-.537-.118-.794-.189-.052-.101-.041-.239-.189-.151-.115.047.041.13 0 .227-.15.052-.234.169-.378.227-.377-.15-.501.041-.869.076-.001-.089.065-.111.038-.227-.283.044-.36.277-.643.227-.072.117-.127.251-.265.302.136.066.188.215.302.302.023-.103-.048-.3.038-.34.173.041-.044.473.189.454.093-.168-.036-.409.076-.605.204.212-.079.911.227 1.021.13-.299-.067-.751.038-1.021.335.276-.161 1.15.227 1.361.021-.109.001-.317 0-.529-.001-.211-.061-.489.076-.567.107.434-.03 1.114.189 1.437.064-.328-.086-.988.189-1.285-.066.303 0 .639 0 .945 0 .242-.138.523.076.68.115-.488.006-1.014.227-1.512.046.614-.086 1.241-.038 1.814.159-.044.139-.324.151-.529.024-.401-.019-.769.113-1.021.095.527-.018 1.165-.038 1.701.121-.036.089-.215.113-.34.065-.334.133-.784.113-1.058.078.01.076.101.113.151-.015.604-.36 1.35-.038 1.739.085-.273.089-.678.113-1.059.012-.196-.082-.484.113-.567.018.552-.085 1.297-.113 1.928.107.031.098-.053.189-.038.036-.347.094-.721.113-1.021.013-.207-.073-.438.076-.567.179.588-.082 1.338-.076 2.079.12-.112.158-.333.189-.529.072-.456.045-1.137.189-1.474.092.612-.137 1.464-.189 2.041-.012.138-.03.357.076.416.167-.627.215-1.373.34-2.041.176.422-.163 1.212-.151 1.739.006.272-.015.509-.302.529a4.1 4.1 0 0 1-.378-.983c-.164-.088-.315-.189-.605-.151-.278-.221-.59-.308-.794-.605-.35-.511-.54-1.235-.869-1.815a4.112 4.112 0 0 1-.302-.605c-.407-.349-.658-.855-.907-1.361-.218.186-.129-.137-.34-.151-.005.291.138.506.113.794-.063.736-.723 1.297-.907 1.852-.096.289-.179.795-.227 1.059-.029.162.061.358-.151.529.01-.86.166-1.573.491-2.117-.136-.115-.204.267-.34.151.06-.344.58-.227.605-.605-.07-.036-.126.113-.151 0 .008-.179.229-.197.301-.302zm-1.134-3.441c.116.166.368-.22.378.076h.227c-.048-.116-.057-.27-.189-.302-.06.154-.338.09-.415.227zm-15.084.341c.036-.139.333-.455.113-.491-.013.163-.227.325-.113.491zm10.207-.227c.058.058.259.067.227-.076-.086-.087-.166.025-.227.076zm-1.058 0c-.022.187.377.097.416 0-.092-.103-.246.053-.415 0zm1.549.264c.144.017.465-.114.567-.265-.196.081-.482.073-.567.265zm-1.096 0c.219.018.402-.002.416-.189-.19.011-.304.098-.415.189zm.491.19c.225-.09.458-.172.567-.378-.237.077-.491.138-.567.378zm5.747-.152c-.007-.119-.027-.226-.151-.227.009.117.105.147.151.227zm-.53 0h.227c.049-.227-.24-.152-.227 0zm-4.234-.114c-.159.093-.253.251-.529.227-.096.245-.593.088-.605.416.301-.052.395-.311.756-.302.07-.182.428-.076.454-.302-.008-.03-.032-.044-.076-.038zm-1.436.266v.151c.164 0 .272-.056.302-.189-.142-.03-.18.046-.302.037zm0 .831c.277-.101.542-.214.756-.378-.245-.012-.574.203-.756.378zm1.058-.151c.088-.013.163-.039.189-.113-.108-.007-.206-.005-.19.114zm8.053.227c.172-.073.453-.043.756 0-.194-.21-.593-.214-.945-.265.014.135.061.24.189.264zm-8.431-.038a.668.668 0 0 0 .302-.151c-.095-.067-.259.049-.302.151zm-.491.226c.215.013.313-.091.416-.189-.209-.007-.302.103-.416.189zm8.203.946c-.035.131-.157.334 0 .416.116-.136-.049-.553.265-.492.06-.46.179-.813-.151-1.058.147.434-.045.877-.114 1.134zm.87-1.021c.212.132.72.092 1.058.038-.236-.165-.765-.131-1.058-.037zm1.323.151c-.271-.008-.784-.129-.983.038.388.133.905.122 1.474.151-.093-.13-.372-.316-.492-.189zm-10.963.265c.181-.084.358-.171.491-.302-.239.024-.372.157-.491.302zm9.64-.114c.131.03.166-.035.189-.113-.116.028-.073-.104-.189-.076-.071.073.022.069 0 .189zm-.378.114c.428-.016.112.559.34.68-.068-.163.082-.315.113-.491-.155-.122-.164-.39-.378-.454h-.076l-.001.265zm-9.338.189a1.21 1.21 0 0 0 .718-.378c-.304.061-.515.215-.718.378zm-.718 0c.159-.119.438-.117.529-.302a.762.762 0 0 0-.529.302zm11.454-.227c-.089.001-.111-.065-.227-.038-.026.162.197.122.227.037zm1.361.114c-.355-.155-.961-.057-1.285-.076.319.109.924.134 1.285.076zm-1.625.075c.018-.118-.033-.169-.151-.151.005.096.055.147.151.151zm-1.285.303c.182-.056.158.094.151.227.175-.067.206-.487 0-.529-.049.101-.102.201-.151.302zm.718-.265c.047.129.066.287.265.265.002-.169-.099-.385-.265-.265zm1.172.113c.224.076.613.015.756-.113-.294.029-.48-.049-.756-.038v.151zm1.21-.075c-.124.056.112.059.113.113-.252.02-.597-.139-.718.076.457-.054.899.109 1.285 0-.266-.018-.424-.283-.68-.189zm-12.892.188c.27-.045.378.002.529-.113-.201-.108-.438-.078-.529.113zm11.606.114c-.001-.113.004-.23-.113-.227 0 .112-.004.23.113.227zm-.453.076c.088-.013.177-.025.151-.151-.119-.018-.169.033-.151.151zm-.378.302c.001-.1-.021-.223.076-.227.004.097.127.075.227.076.014-.14-.153-.099-.113-.265-.153.025-.54.358-.189.416zm1.436-.378c.005.159.173.154.34.151-.028-.179-.191-.186-.341-.151zm2.079.227a2.422 2.422 0 0 0-.945-.189c-.106-.003-.247-.118-.302.038.398.174 1.064.265 1.512.265-.023-.126-.174-.078-.265-.114zm-1.663-.075a.956.956 0 0 1 .378.038c.052-.161-.384-.169-.378-.038zm-20.339.112c.011-.099-.014-.163-.113-.151-.068.065.012.149.113.151zm20.604 0c-.067.022-.222-.046-.227.038.049.052.226.066.227-.037zm1.588.227c-.255-.01-.747-.12-.983-.151-.101-.014-.701-.062-.265.038.355.081.644.123 1.058.151.361.024.756.17.945.038-.247-.151-.446-.063-.756-.076zm-.644.303c.133.114.084-.195.302-.113.304.187.762-.053 1.096.189-.262.106-.608-.216-.832.038.27-.008.605.062.907.076.368.017.748.056.907-.038-.631-.276-1.544-.27-2.382-.34v.189zm2.647.265c-.559.056-1.455-.048-1.966-.038-.04.002-.03.048.038.038.343.188.929.128 1.437.151.278.013.551.121.718 0-.071-.054-.196-.055-.227-.15zm-2.647.037c-.003.167.08.247.227.265.039-.087.147-.105.189-.189-.192-.013-.211-.165-.416-.076zm.341.303c.121.032.117-.06.189-.076v.151c.203-.038.308.21.491.302-.115.027-.138-.039-.227-.038.014.201.282.146.378.265-.134.051-.06.076-.113.189.734.173 1.294.521 2.23.492.136-.149.455.073.718.038-.002.048-.049.052-.038.113 1.011-.041 1.938.204 2.76.227-.385-.364-1.021-.268-1.626-.34-.681-.082-1.386-.182-1.966-.227-.075 0-.048.103-.151.076-.391-.163-.955-.154-1.096-.567-.393.04-.5-.205-.643-.416.301-.137.233.354.567.302a3.276 3.276 0 0 1-.34-.454c-.351.061-.348-.231-.68-.189-.033.146.165.062.113.227-.183.007-.132-.221-.302-.227-.153-.016-.263.013-.264.15zm3.176.189c-.286-.36-1.117-.144-1.512-.302-.215.025-.529-.05-.68.038.613.206 1.471.167 2.193.265zm-3.214-.076c.161.117.305.45.492.416a.781.781 0 0 1-.302-.491c-.067.021-.157.02-.189.076zm1.512.189c.736.092 1.599.093 2.42.189-.12-.259-.513-.154-.794-.189-.482-.06-1.24-.135-1.701-.151-.027.103.076.076.076.15zm.227.265c.27.071.49.191.832.189.049-.187-.313.036-.265-.151.111-.007.455-.03.605.038-.028.098-.28-.028-.265.113.759-.06 1.383.129 1.966.038-.263-.166-.856-.339-1.096-.189.116-.025.309.065.227.113-.1-.102-.432.029-.529-.076.069-.057.212-.04.265-.113-.714.003-1.04-.06-1.739-.113v.15zm1.55.415c.432.195 1.179.155 1.777.227.196.024.39.161.567.038-.159-.106-.353-.176-.492-.302-.794-.028-2.146-.092-3.024-.151.153.3.755.152 1.171.189zm-7.07.492c.061-.138.003-.481-.189-.491.066.161.026.427.189.492zm.076.189a.66.66 0 0 0 .34.34c.063-.063.03-.222.038-.34-.141-.04-.06.142-.189.113-.122-.13.02-.354-.113-.416.042.166-.063.188-.076.302zm7.485-.037c.074.102.376-.023.454.076-.046-.094-.387-.249-.454-.076zm3.251.453c-.05-.189-.32-.159-.416-.302-.711.049-1.536-.299-2.306-.189.684.386 1.835.306 2.721.491zm-8.505 1.512c.215.081-.13.402.076.454.133-.431.332-1.149.34-1.663.002-.139-.104-.263 0-.34.224.124.089.397.076.567-.058.716-.344 1.352-.227 1.89.112-.09.036-.368.189-.416a2.645 2.645 0 0 0-.038.794c.23-.146.115-.437.113-.643-.005-.733.217-1.611.302-2.268-.278-.012-.344-.236-.605-.265-.045.661-.018 1.394-.227 1.89zm4.649-1.209c.069-.208.157-.398.34-.492-.321.045-.529.202-.756.34-.007.514-.067.782-.076 1.323.308-.078.428-.221.605-.454.275-.362.406-.738.529-1.248.047.175-.077.374 0 .454.345-.14.208-.574-.038-.567-.353.01-.275.741-.491.983-.074-.148.177-.47.113-.605-.096.068-.096.232-.228.265zm-3.591-.039c-.107-.007-.047-.18-.189-.151.027.595-.181 1.311-.189 1.89-.002.109.05.243.038.34-.023.186-.331.521 0 .605.205-.7.218-1.403.302-2.004.023-.163.028-.444.189-.529.01.434-.247 1.151 0 1.399.044-.347.043-.863.151-1.248h.113c.012-.182.032-.137.038-.34-.096-.112-.184.096-.265 0-.049-.127-.052-.301-.151-.378h-.113c-.036.195.153.304.077.416zm-2.721.114c.12-.006.126.1.265.076-.098-.204-.143-.462-.34-.567.038.15.055.322.076.491zm8.77-.34c.305.117.634.149.983.189.481.055.986.136 1.399.151a2.342 2.342 0 0 1-.535-.307l.006.004c-.646.027-1.385-.142-2.079-.189.017.079.144.119.227.151zm-3.97 3.704c.041-.512.191-1.283.076-1.777-.304.057-.189.494-.189.794 0 .56.034 1.153-.113 1.474.269-.006.212-.286.228-.491zm-.037.568c.091.023.172.054.302.038.126-.24.025-.706.151-.945.064.236.027.671-.076.945.137.09.232.222.454.227.085-.028-.112-.335.076-.34.121.12-.088.338.076.416h.189c-.049-.393.129-.883.189-1.172.037-.177-.072-.461.113-.529-.055.587-.191 1.095-.189 1.739.204.036.292.187.529.189.147-.18.177-.579.227-.907.019-.127-.096-.435.151-.416a8.83 8.83 0 0 1-.227 1.399c.22.168.528.099.869.151.126.019.23.107.34.113.207.013.467-.11.68-.076.09.014.152.078.227.076.165-.006.326-.141.567-.189.211-.042.488.008.68-.038.987-.237 1.369-1.213 1.134-2.344-.177-.214-.28-.502-.454-.718-.117-.072-.292-.086-.34-.227v-.189c-.269-.411-.854-.507-1.134-.907-.455-.099-.639-.47-1.134-.529-.045-.056-.033-.169-.151-.151-.142.047-.342.036-.454.113.014.171-.021.463-.038.605-.056.491-.141 1.248-.454 1.285.209-.3.32-.824.378-1.285.028-.22.091-.516-.038-.605-.195.045-.145.334-.151.567-.189.29-.065.893-.378 1.058.127-.44.249-.885.302-1.399a.641.641 0 0 0-.378.567c-.012.118.109-.096.113.038-.055.147-.101.302-.189.416-.011.178-.025.512-.189.416-.008-.254.269-.517.076-.718-.202.151-.118.588-.302.756-.099-.089.016-.284.038-.378-.428.114-.216.868-.378 1.248-.12-.262.039-.721-.038-.945-.186.028-.306.122-.491.151-.142.375-.105.928-.265 1.285-.035-.401.055-.834.151-1.21-.108-.089-.259.021-.34.076-.012.817-.004 1.658-.229 2.343zm.718-4.007c-.063.403-.03.902-.038 1.361.43.012.285-.487.302-.832.013-.254.072-.451.076-.643-.18-.03-.168.134-.341.113zm4.045 0c.453.429 1.429.336 2.155.491-.201-.425-.892-.289-1.512-.416-.361-.074-.846-.169-1.172-.151.103.099.329.075.529.076zm-6.389 1.02c-.025-.202.05-.503-.038-.643-.02.104-.063.262-.076.416-.027.321-.045.726.113.869.169-.164.267-.427.302-.718.026-.216-.109-.755.113-.869-.068.511.018 1.173-.227 1.588a.719.719 0 0 0 .416 0c-.032-.544.073-.926.038-1.55-.173-.042-.191-.238-.454-.189-.091.208-.007.858-.189 1.096zm1.626-.983c-.154.413-.036 1.098-.113 1.588.147.009.196-.081.302-.113.025-.441-.05-.983.038-1.361.248.465-.037.806.076 1.361.111.01.116-.085.227-.076.086-.406.002-.981.076-1.399-.008-.042-.042-.059-.076-.076-.091.138-.348.13-.528.077zm-.492 0a7.832 7.832 0 0 0 0 1.663c.016-.084.186-.015.265-.038.086-.475-.006-1.22.076-1.588-.155.03-.193-.058-.34-.038zm-.378.19c.021.552-.107 1.05-.038 1.55.139.012.21-.042.302-.076-.152-.484.136-1.175-.076-1.588-.004.097-.141.061-.189.114zm8.242.604c.093-.112-.127-.153-.151-.265-.495-.01-1.006-.204-1.474-.113.388.192.717.443 1.21.529-.072.017-.228-.051-.189.076.37-.021.677.308.945.151-.031-.328-.294-.302-.605-.34a3.206 3.206 0 0 1-.983-.302c.417.089.761.248 1.248.266zm-1.55.189c.094-.019.228.001.227-.113-.056-.089-.292-.042-.227.114zm.264.302c.106-.007.161-.066.151-.189-.051-.012-.072-.054-.151-.038v.226zm.567.076c.1.011.124-.052.114-.151h-.114v.151zm.34.114c.015-.073.147-.03.113-.151-.117-.049-.215.107-.114.151zm.416-.076c.006-.082-.134-.017-.189-.038-.087.149.231.167.189.037zm-.944.227c.14.026.167-.06.151-.189a.179.179 0 0 1-.114-.038c-.044.045-.043.133-.037.227zm-8.696 1.134c.289-.191.493-.824.302-1.247h-.113c-.067.399-.192.896-.189 1.247zm9.716-.794c.196-.036.545-.261.416-.378-.128.136-.398.132-.415.378zm-8.997-.038c.084.133.095-.161.151-.038.196.435-.481 1.292.038 1.361.036-.544.176-.984.227-1.512-.159-.032-.456-.079-.415.189zm8.354.152c.144.004.31-.326.151-.378-.055.121-.185.168-.151.378zm-8.468.075c-.087.253-.206.474-.227.794.079.022.122.08.189.113.138-.265.16-.647.227-.983-.219.043-.168-.185-.189-.34h-.113c-.049.226.059.295.114.416zm.945-.302c.006.094-.059.117-.076.189.086.052.142-.097.151 0-.101.308-.151.813-.189 1.172-.013.127-.175.333.038.378.136-.44.142-.983.227-1.399.026-.129.049-.306.151-.378-.079.445-.136 1.001-.189 1.437-.019.157-.154.344 0 .454.14-.339.091-.866.302-1.134.01.45-.322.88-.151 1.248h.189c.021-.381.122-1.048-.038-1.361.18-.137.113-.521.038-.718h-.302c.055.188-.093.245-.151.114zm-.226-.038c-.209.27-.154.619-.227.983-.029.147-.233.556.076.605.321-.338.122-1.103.265-1.588h-.114zm8.241.604c-.188.001-.21.168-.265.302.175-.003.321-.189.264-.302zm0 .227c.187-.021.234-.276.416-.189.071-.067-.045-.11.038-.189-.283-.007-.354.199-.453.377zm-9.3.227c.075-.089.089-.239.113-.378h-.113c.016.146-.241.349 0 .378zm-.265.265c.086.018.227-.095.113-.151-.016.073-.147.03-.114.151zm.492.416c.116.049.33.049.34-.113-.121-.091-.302.007-.341.114zm.34.075c.112.014.274.093.34.038.043-.167-.333-.151-.341-.038zm.075.416c.201-.025.294-.16.416-.265-.137-.048-.395.073-.416.264zm.19.34c.265-.075.487-.194.605-.416-.244.096-.498.182-.605.415zm.605-.075a.467.467 0 0 0 .454-.227c-.196.032-.388.065-.454.227zm.642-.152c-.329.251-.779.38-1.058.68.25-.002.304-.2.605-.151.091-.149.286-.193.378-.34.131-.008.246-.031.227-.189h-.151zm.265.378c.034-.066.132-.069.189-.113-.009-.13-.113-.165-.227-.189.041.112.012.267.037.302zm-2.458.681c.289-.128.356-.677.718-.605-.274.109-.504.734-.756.643-.022.242-.119.41-.227.567.081.678-.475 1.033-.68 1.55.306-.015.405-.391.529-.643.151-.306.333-.631.378-.983.256-.273.439-.821.869-.794-.705.416-.896 1.347-1.248 2.117.516-.16.392-.962.68-1.361.11-.152.423-.411.605-.34-.236.217-.6.307-.643.718.167.069.329-.369.529-.265-.216.237-.584.323-.605.756.062.072.148-.153.265-.151.056-.55.914-.439.945-.869.014-.193-.265-.372-.378-.567-.141-.244-.175-.453-.265-.718-.435.121-.57.54-.719.947zm1.059-.567c.13.089.376-.192.302-.302-.11.091-.24.162-.302.302zm1.663 0c-.14-.027-.162.064-.302.038-.209.143-.44.266-.643.416-.126.052-.387.123-.302.265.268.035.513-.264.718-.416.35-.117.688-.245.907-.492-.188.025-.161.018-.302-.038-.053.05-.023.18-.077.229zm-2.722-.075c-.011.086.009.142.076.151-.041-.097.163-.132.038-.189-.007.044-.06.04-.114.037zm1.626.453c.246-.132.653-.304.718-.491-.26.143-.661.145-.719.491zm1.701-.492c-.038.05-.062.114-.113.151h-.189c-.375.318-.901.485-1.21.869.173.097.293-.117.416-.189.44-.258.983-.434 1.285-.794-.091.016-.082-.068-.189-.037zm4.613.227c.11.099.224-.028.265-.113-.114.014-.231.022-.265.114zm-4.726.417c.002-.023.006-.045.038-.038.21-.066.434-.186.643-.265.045-.017.176.06.151-.076-.075-.076-.173-.129-.34-.113-.164.177-.493.188-.643.378.178-.033.104.092.15.114zm-1.89-.19c.005-.109.161-.066.151-.189-.127-.035-.253.12-.151.189zm1.285.454c.217.027.437-.141.416-.227-.119.094-.384.045-.415.227zm-.87.416c-.065.048-.224.05-.189.189.167-.018.318-.193.491-.302.115-.073.522-.205.378-.302a4.178 4.178 0 0 0-.681.415zm-.188-.151c.112-.014.186-.066.227-.151-.114-.053-.263-.044-.227.151zm.717.34c-.718.429-1.431.862-2.004 1.437.82-.503 1.615-1.031 2.344-1.626-.161.016-.186.168-.341.189zm-2.646.151c-.01-.111.085-.116.076-.227-.125-.015-.211.204-.076.227zm-.151 1.248c.413-.082.747-.41 1.058-.643.329-.245.692-.458.907-.718-.748.36-1.281.936-1.966 1.361zm1.663-.341c-.156.113-.365.166-.416.34.455-.307 1.045-.6 1.474-.907.148-.106.388-.246.378-.378-.54.228-1.02.643-1.437.945zm-.717-.037c.371-.12.749-.436.907-.643-.288.23-.655.379-.907.643zm-1.815.415c-.1.001-.223-.021-.227.076.215.001.332-.096.567-.076-.14-.392.493-.506.378-.869-.228.302-.429.63-.718.87zm2.344.265a8.942 8.942 0 0 0 1.134-.756c-.379.087-.545.388-.983.416.01.123-.147.08-.151.189.126-.026.061.078.038.113-.041-.002-.097.017-.038.037zm-2.836.303c.244-.084.474-.181.643-.34-.323.005-.554.102-.643.341z"/><path d="M34.742 13.806c-.493.314-1.153.46-1.55.869-.424-.157-.577.444-.983.302.012-.177.225-.153.265-.302.126.08-.114.11-.076.227.556-.291 1.099-.63 1.739-.907.187-.08.392-.215.605-.189zM24.762.802c-.017-.118.081-.121.189-.113-.097.209.142.324.038.529-.11-.103-.044-.384-.226-.416zm3.44 3.667c-.165.039-.174-.078-.265-.113-.328.176-.829.008-1.096.189-.167-.143-.379-.086-.567-.113-.058-.008-.096-.066-.151-.076-.059-.01-.07.049-.113.038-.161-.041-.245-.171-.492-.227-.267-.061-.462-.005-.643-.227-.138-.025-.145.082-.265.076-.029-.034-.041-.085-.038-.151-.295.136-.992-.147-1.323.113.038.227.169.36.151.643-.233-.019-.086-.418-.227-.529-.274.056-.509.205-.869.265-.115.1-.176.252-.34.302-.045-.223.101-.409.265-.302.136-.092.263-.305.454-.227.125-.013.164-.113.227-.189.079-.016.1.026.151.038.266-.316.911-.406 1.361-.189.056-.02.095-.056.151-.076.176.117.174.077.416.038.03.096.069.183.151.227.572-.122.928.44 1.437.265.159.211.471.061.718.038.067-.009.086-.065.076-.151.102-.026.073.078.113.113.056-.032.081-.095.076-.189.162-.036.066.186.189.189.13-.062.022-.126.076-.265.166.01.115.238.189.34.097.021.199.032.193.151zm-2.798 1.739c-.038-.016.055-.22.151-.227.028.103-.075.076-.076.151.21.183.165-.212.34-.189-.006.107-.069.158-.076.265-.156.091-.247-.072-.341 0zm-1.058 1.474c.11-.054.082-.246.151-.34-.305-.388-.124-1.144-.265-1.626-.225.015-.131.348-.151.567-.087-.065-.014-.289-.038-.416-.295.116-.033.788-.038.945-.311-.151-.174-.528-.227-.907.092-.071.183-.144.302-.189.01-.148.026-.268.038-.491.133.021.061.219.038.302.262.014.046-.223.151-.34.083.006.081.095.076.189.136-.05.138.003.265-.038v-.491c.2-.011.081.297.113.454.123.022.176-.026.265-.038v-.416c.163.127-.018.598.265.605.073-.204.04-.514.151-.68-.019.268.045.82.038 1.058-.146.021-.033-.219-.151-.227-.123.034-.122.465.038.454a.687.687 0 0 0-.189.454c-.051-.012-.031-.095-.038-.151-.487.307-.319 1.269-.756 1.626.033-.171-.042-.236-.151-.265-.026-.642-.527-.809-.794-1.21.157-.099.184.119.265.189.061.053.122.043.189.113.208.219.416.487.453.869zm.643-1.588c-.014.276-.312.278-.378.605.227-.139.304-.426.567-.529v-.68c-.166-.051-.203.003-.34-.076-.271.278.164.419.151.68zm-.341-.264c.118-.008.064-.188.076-.302-.215-.086-.275.314-.076.302zm-.34.113c.217.082.213-.412.038-.378-.067.072-.027.25-.037.378zm.303.416c.032-.104.21-.187.113-.302-.112.004-.215.212-.114.302zm-.114-.302c-.087.039-.078.174-.076.302.085-.013.235-.289.076-.302zm-.113.453c-.001.089.065.111.038.227.118-.02.136-.141.151-.265-.066-.07-.11.016-.189.038zm.075.567c.093.022.184-.249.038-.227-.043.045-.043.134-.037.227zm8.771.189c.208-.069.445.159.68.189-.101.074-.286-.091-.491-.038-.061-.052-.119-.107-.189-.151zm2.608 4.764c-.013.05-.067.059-.076.113.359-.167.735-.346 1.096-.529.358-.181.714-.411 1.096-.454-.375.243-.826.409-1.248.605.055.112.147-.05.265 0-.139.172-.369.223-.567.302-.689.276-1.37.601-2.079.869.003-.138.18-.28.227-.151.255-.427.845-.517 1.285-.756zm-1.059.642c.302-.114.576-.256.794-.454-.286.13-.653.177-.793.454zm1.626-.529c-.16.13-.388.192-.567.302.025-.114.355-.249.568-.302zm-7.221.719c-.094.004-.117.071-.189 0-.006-.095.085-.092.113-.151.135.022.188.29.227.416.007.022.136.146 0 .113-.026-.151-.094-.259-.152-.378zm-1.02.944c-.068-.005-.08.046-.151.038-.08-.089-.169-.245-.038-.34.068.209.272.282.34.491-.141.026-.168-.06-.152-.19zm2.533.454c-.175.48-.693.617-1.021.945-.049-.141.158-.222.265-.302.189-.141.48-.281.643-.491.049-.065-.037-.165.113-.152zM7.674 15.659c.229-.237.433-.499.794-.605-.013.138-.129.173-.227.227.032.044.05.101.038.189.119-.082.269-.134.34-.265.059.055.147.08.227.113.001.102-.19.102-.189 0-.606.402-1.173.843-1.739 1.285-.046-.172.168-.223.265-.302.307-.251.705-.528 1.021-.756-.035-.103-.118.053-.227 0 .043-.108.218-.085.265-.189-.21-.071-.361.243-.567.302zm21.586-.378c.08.07-.173.127-.227.189-.091-.082.171-.131.227-.19zm-4.498 6.654c-.029-.135-.302-.026-.302-.189-.135.016-.026.276-.227.227.012-.124.087-.309 0-.416-.095-.006-.118.058-.151.113-.037.151.113.114.076.265-.075 0-.048.103-.151.076-.112-.116.039-.373-.038-.454-.12.019-.154.123-.189.227-.014.127.159.068.151.189-.16.115-.22-.028-.454.076-.014.128.066.161.113.227-.076.131-.14.011-.265 0-.005-.282-.015-.569.076-.756.294-.161 1.353-.555 1.21.151.034.066.132.069.189.113.016-.154-.125-.153-.076-.34.18.034.136.292.265.378.068.005.08-.046.151-.038.148.217.522.209.68.416.117.06.383-.03.378.151-.072.075-.179.018-.265 0-.154.215-.28.412-.416.718-.073-.015-.03-.146-.151-.113.044-.192.182-.354.038-.529.08-.067.112-.085.227-.038-.027.086-.034.193-.076.265.207.018.098-.28.265-.302-.062-.089-.195-.108-.265-.189-.177.037-.228.201-.302.34-.16-.08.056-.315.189-.34-.14-.202-.621-.345-.756-.038-.055-.002.007-.192.077-.191zm-.719-.492c.072-.009.083.043.151.038.009-.054.062-.064.076-.113-.1.002-.222-.02-.227.077zm-.491.34c-.011.099.014.163.113.151-.015-.091.069-.082.038-.189-.066-.003-.118.008-.151.038zm.681-8.77c-.354-.169-.402.238-.492.454-.079-.016-.1.026-.151.038-.108-.164-.401.08-.491-.113.24-.012.476-.029.491-.265.102-.026.073.078.113.113.07-.181.359-.603.529-.227z"/></svg>