<svg xmlns="http://www.w3.org/2000/svg" width="30" height="32"><path d="M15.25 32h-.015c-2.392 0-4.723-.258-6.968-.747l.215.039-.278-.058c-1.415-.304-2.558-1.258-2.958-2.493l-1.914-5.908c-.578-1.716-.911-3.692-.911-5.747 0-1.547.189-3.049.545-4.486l-.027.128a.58.58 0 0 1 .564-.448h.004a.59.59 0 0 1 .14.017l-.004-.001a.58.58 0 0 1 .352.261l.001.003a.583.583 0 0 1 .07.446l.001-.004a17.01 17.01 0 0 0-.482 4.07c0 1.929.314 3.786.893 5.52l-.036-.123 1.914 5.908c.272.839 1.074 1.493 2.091 1.711l.278.058c1.953.433 4.197.681 6.498.681h.029-.002.025c2.275 0 4.494-.242 6.632-.702l-.206.037.354-.076c1.03-.216 1.835-.885 2.104-1.725l1.96-6.193c.52-1.577.819-3.393.819-5.279 0-1.578-.21-3.107-.603-4.56l.028.122a.583.583 0 0 1 .412-.706l.004-.001a.583.583 0 0 1 .711.412l.001.004c.392 1.423.617 3.058.617 4.744 0 2.008-.319 3.941-.908 5.752l.037-.131-1.959 6.193c-.396 1.249-1.536 2.213-2.976 2.516l-.354.074c-2.004.44-4.306.692-6.666.692h-.034.002z"/><path d="M15.25 31.8c-2.382 0-4.703-.258-6.937-.747l.214.039-.278-.058c-1.354-.288-2.431-1.193-2.808-2.358l-1.92-5.904c-.571-1.697-.901-3.652-.901-5.684 0-1.531.187-3.018.54-4.44l-.027.126a.382.382 0 0 1 .743.179v-.002a17.195 17.195 0 0 0-.492 4.138c0 1.947.315 3.82.898 5.572l-.036-.125 1.914 5.908c.295.906 1.154 1.614 2.24 1.845l.278.058c1.974.436 4.242.686 6.569.686a31.88 31.88 0 0 0 6.701-.708l-.209.038.354-.076c1.101-.23 1.964-.945 2.254-1.861l1.96-6.193c.524-1.592.826-3.424.826-5.327 0-1.6-.213-3.15-.613-4.623l.029.123a.382.382 0 0 1 .738-.197l.001.003c.388 1.41.612 3.029.612 4.7 0 1.987-.316 3.9-.899 5.692l.037-.13-1.959 6.193c-.373 1.18-1.456 2.093-2.831 2.381l-.354.076c-1.981.43-4.257.676-6.59.676h-.057.003z"/><path d="M17.799 14.724h-.024a4.278 4.278 0 0 1-1.49-.266l.03.01c-.616-.226-1.097-.61-1.564-.984a5.666 5.666 0 0 0-1.054-.73l-.03-.015a1.452 1.452 0 0 0-.608-.131h-.023.001c-.717 0-1.546.439-2.265.849A3.426 3.426 0 0 1 9.043 14h-.007a2.941 2.941 0 0 1-1.407-.376l.015.008a4.843 4.843 0 0 1-.789-.546l.007.006c-.354-.285-.656-.531-.968-.531a.712.712 0 0 0-.123.011l.004-.001a5.43 5.43 0 0 0-1.218.446l.031-.014c-.596.272-1.21.55-1.978.55a3.338 3.338 0 0 1-.78-.095l.023.005c-.756-.177-1.295-.587-1.516-1.154-.149-.379-.219-.987.281-1.737C1.637 9.043 3.93 7.267 5.013 6.474 4.374 5.306 3.5 3.714 3.911 2.376a2.258 2.258 0 0 1 1.182-1.349l.014-.006C6.303.411 7.892.283 9.291.175h.019c.324-.025.637-.051.932-.081.542-.06 1.173-.095 1.811-.096h.001c2.323 0 4.6.414 6.803.814 1.09.198 2.215.403 3.325.552.269.037.566.053.885.073 1.159.065 2.477.14 3.185 1.239.612.947.449 2.185-.499 3.786.885.572 2.654 1.75 3.236 2.477.261.308.419.71.419 1.148 0 .345-.098.667-.268.94l.004-.008c-.633 1.143-2.318 1.998-3.402 1.998h-.01c-.072 0-.144-.005-.214-.013l.008.001a9.227 9.227 0 0 1-1.374-.283l.065.016a4.543 4.543 0 0 0-1.109-.203l-.013-.001c-.444 0-.819.177-1.253.563-.863.786-2.38 1.626-4.043 1.626zm-4.756-3.276h.035c.39 0 .76.085 1.093.237l-.016-.007c.504.256.939.55 1.331.891l-.008-.007c.355.319.763.587 1.209.788l.03.012c.321.119.692.188 1.079.188h.02-.001c1.316 0 2.537-.685 3.243-1.325.649-.591 1.295-.867 2.028-.867.513.022.997.109 1.455.253l-.04-.011c.319.1.709.189 1.108.249l.046.006.05.001.053-.002h-.002c.708 0 1.946-.658 2.362-1.398a.623.623 0 0 0-.044-.786v.001c-.469-.587-2.355-1.858-3.434-2.521a.59.59 0 0 1-.263-.366l-.001-.004a.578.578 0 0 1 .082-.45l-.001.002c.343-.531 1.391-2.123.81-3.008-.391-.605-1.302-.656-2.267-.708a12.39 12.39 0 0 1-.973-.08 68.146 68.146 0 0 1-3.378-.561c-2.151-.405-4.376-.809-6.6-.809h-.021c-.588 0-1.168.03-1.74.089l.072-.006c-.308.032-.637.058-.977.085-1.293.104-2.758.221-3.747.727-.287.125-.507.36-.61.65l-.002.008c-.265.86.503 2.265 1.01 3.185.09.166.177.322.251.465a.584.584 0 0 1-.175.747l-.002.001c-.041.032-3.358 2.357-4.517 4.101-.101.15-.255.435-.177.66.076.193.338.354.708.444.145.037.311.058.482.058h.003c.52 0 .973-.205 1.499-.444a6.292 6.292 0 0 1 1.402-.506l.044-.009c.106-.022.228-.035.353-.035.708 0 1.239.421 1.69.791.174.151.366.291.571.413l.018.01c.241.141.529.228.836.237h.003c.334 0 .695-.12 1.168-.391.699-.398 1.755-1.001 2.852-1.001z"/><path d="M17.799 14.523h-.025c-.499 0-.977-.089-1.419-.252l.028.009a5.56 5.56 0 0 1-1.515-.959l.006.005a5.751 5.751 0 0 0-1.092-.749l-.031-.015c-.924-.425-2.028.126-3.08.727-.809.462-1.725.803-2.935.177a4.702 4.702 0 0 1-.754-.535l.005.005c-.43-.354-.801-.648-1.251-.559-.47.11-.883.263-1.27.46l.031-.014c-.757.354-1.539.708-2.606.448-.69-.163-1.178-.531-1.377-1.032-.131-.331-.191-.869.264-1.55C1.84 9.086 4.41 7.15 5.265 6.538a7.329 7.329 0 0 1-.085-.156c-.614-1.139-1.465-2.696-1.079-3.946a2.075 2.075 0 0 1 1.084-1.233l.013-.005C6.359.605 7.925.49 9.306.37c.333-.027.653-.051.955-.083 2.925-.299 5.789.221 8.56.725 1.092.198 2.222.403 3.333.554.278.037.579.055.897.073 1.109.062 2.367.133 3.026 1.152.748 1.157.081 2.629-.605 3.74.791.501 2.755 1.785 3.362 2.535.231.274.371.632.371 1.022 0 .309-.088.598-.241.842l.004-.007c-.637 1.152-2.412 1.998-3.418 1.883a8.822 8.822 0 0 1-1.338-.277l.062.015c-.993-.255-1.647-.425-2.56.405s-2.429 1.573-3.916 1.573zm-4.756-2.874h.019c.366 0 .713.08 1.025.224l-.015-.006c.488.251.909.537 1.291.868l-.008-.007c.425.34.826.66 1.293.832 1.592.584 3.471-.2 4.545-1.177 1.219-1.109 2.213-.851 3.266-.58.325.097.722.183 1.127.239l.044.005c.738.083 2.189-.639 2.654-1.495a.824.824 0 0 0-.064-1.009l.001.001c-.547-.683-2.702-2.084-3.487-2.567a.38.38 0 0 1-.176-.24v-.003a.404.404 0 0 1 .056-.296l-.001.001c.354-.552 1.461-2.231.812-3.234-.448-.692-1.415-.747-2.426-.803-.32-.018-.651-.037-.957-.078a66.928 66.928 0 0 1-3.362-.559c-2.718-.495-5.527-1.005-8.344-.708-.308.032-.635.058-.973.085-1.311.106-2.797.225-3.824.748a1.315 1.315 0 0 0-.705.769l-.003.009c-.288.932.504 2.383 1.03 3.346.088.165.177.318.248.462a.38.38 0 0 1-.119.489l-.001.001c-.034.021-3.381 2.366-4.572 4.142-.143.223-.295.552-.177.844.101.258.407.465.84.568.812.191 1.415-.081 2.113-.4a6.094 6.094 0 0 1 1.359-.492l.043-.008c.8-.156 1.373.308 1.879.708.183.16.387.307.604.434l.019.01c.741.387 1.318.354 2.201-.157.674-.38 1.704-.966 2.748-.966z"/><path d="M5.09 6.518c.432-.039.86-.05 1.286-.05s.853 0 1.277.023.848.037 1.27.071.844.067 1.263.131.84.136 1.26.214.84.133 1.263.177.848.042 1.272.037.849-.041 1.272-.073c.848-.087 1.69-.166 2.53-.225l1.26-.115c.419-.05.839-.074 1.26-.111s.84-.06 1.262-.087l.632-.046c.211-.014.423-.018.633-.037.423-.03.848-.051 1.274-.069s.851-.041 1.285-.037c.024 0 .044.02.044.044a.046.046 0 0 1-.028.042 18.68 18.68 0 0 1-1.228.398c-.207.06-.414.111-.623.163s-.418.104-.626.149c-.682.16-1.545.308-2.422.41l-.115.011c-.853.092-1.713.113-2.569.12q-.646 0-1.286-.023c-.428-.021-.856-.069-1.283-.103s-.853-.103-1.276-.119-.851-.05-1.277-.053c-.846-.014-1.713.069-2.569.069a18.604 18.604 0 0 1-2.656-.269l.11.016a17.838 17.838 0 0 1-2.633-.604l.127.034a.047.047 0 0 1-.032-.045l.002-.012a.051.051 0 0 1 .04-.034zm-2.082 9.475a.54.54 0 0 1-.128-.015l.004.001a3.842 3.842 0 0 1-2.646-2.482L.23 13.47c-.718-2.162.497-3.02.548-3.056a.584.584 0 0 1 .667.958l-.002.001c-.016.012-.531.435-.106 1.729a2.7 2.7 0 0 0 1.772 1.732l.019.005a.585.585 0 0 1-.124 1.154z"/><path d="M3.008 15.791a.254.254 0 0 1-.083 0h.002a3.625 3.625 0 0 1-2.502-2.36l-.007-.025c-.672-2.021.425-2.79.467-2.826a.384.384 0 0 1 .438.629l-.001.001c-.039.028-.656.531-.177 1.946a2.873 2.873 0 0 0 1.917 1.877l.02.005a.385.385 0 0 1-.073.752h-.001zm24.51.202h-.013a.584.584 0 0 1-.209-1.13l.004-.001c.055-.028.72-.393 1.177-1.769.495-1.493-.08-2.587-.104-2.633a.584.584 0 0 1 .229-.789l.003-.002a.577.577 0 0 1 .28-.073h.001c.219 0 .409.12.509.298l.002.003c.286.589.453 1.281.453 2.012 0 .556-.097 1.089-.274 1.584l.01-.033c-.658 1.975-1.736 2.438-1.858 2.477a.597.597 0 0 1-.207.055h-.002z"/><path d="M27.518 15.791h-.001a.382.382 0 0 1-.138-.739l.003-.001s.773-.345 1.285-1.888c.138-.372.218-.802.218-1.25a3.68 3.68 0 0 0-.346-1.563l.01.023a.388.388 0 0 1 .15-.519l.002-.001a.384.384 0 0 1 .518.149l.001.002a4.41 4.41 0 0 1 .431 1.916c0 .533-.093 1.044-.264 1.518l.01-.031c-.628 1.886-1.626 2.318-1.737 2.36a.365.365 0 0 1-.135.025h-.005zM8.847 7.077l-4.823 4.202 4.28-4.749a.384.384 0 0 1 .57.514l.001-.001zm1.488-.09-1.269 5.06.513-5.191a.384.384 0 1 1 .764.078v-.002a.471.471 0 0 1-.009.058l.001-.003z"/><path d="M7.222 6.9a10.006 10.006 0 0 1-.466-1.196l-.021-.076a6.625 6.625 0 0 1-.289-1.298l-.003-.033a7.829 7.829 0 0 1-.018-.354c.001-.126.01-.248.028-.368l-.002.014.03-.177c.016-.057.039-.113.057-.177.045-.122.093-.225.147-.323l-.006.012c.111-.216.228-.401.361-.574l-.007.009c.128-.183.304-.324.509-.408l.008-.003c-.188.11-.338.268-.434.457l-.003.006a3.499 3.499 0 0 0-.251.569l-.007.025a1.707 1.707 0 0 0-.085.292l-.002.012c0 .048-.021.096-.027.145v.152c0 .107.008.213.023.316l-.001-.012c.018.103.037.205.06.306.125.455.278.848.466 1.221L7.272 5.4c.211.436.417.799.644 1.147l-.024-.04a.386.386 0 0 1-.638.433l-.001-.001c-.014-.016-.025-.034-.032-.042zm-1.164 4.977 1.019-1.511-.531 1.739a.269.269 0 1 1-.513-.159l-.001.002a.266.266 0 0 1 .025-.072l-.001.001zm6.717-.152.506-1.748.019 1.821a.269.269 0 0 1-.53.001V11.781c0-.02.002-.04.006-.059v.002zm10.173.437-.246-1.803.756 1.656a.268.268 0 1 1-.488.225l-.001-.002a.288.288 0 0 1-.021-.074v-.002zM5.91 20.961c0-.046-.073-.083-.119-.131-.221.202-.193.368.058.492.179-.126.062-.242.06-.361zm-.414-.513c.018.097.03.207.225.239.025-.039.064-.076.067-.111a3.282 3.282 0 0 0-.14-1.096l.006.023c0-.034-.092-.053-.186-.106-.028.092-.048.2-.055.311v.004c.018.246.046.492.083.736zm-.011-1.254a.33.33 0 0 0 .117-.314v.002l-.073-.708c-.032-.294-.087-.586-.115-.885a.5.5 0 0 0-.06-.137l.001.002c-.165.067-.163.149-.163.225 0 .23.009.46.016.692s.016.462.042.692v.021c0 .173.093.325.232.408l.002.001zm.283 2.569c.085.218.212.423.177.674-.014.11.057.214.248.234a.312.312 0 0 0 .016-.292l.001.002c-.041-.177-.065-.354-.099-.518a1.831 1.831 0 0 0-.073-.294l.004.013c-.014-.041-.069-.071-.127-.124-.159.111-.188.198-.147.306zm1.01 3.774c.062.216.111.435.188.646.161.432.226.885.421 1.313.1.239.204.541.289.851l.013.057c.037.159.055.251.083.341.092.292.191.584.292.876.028.085.101.159.188.117.058-.03.09-.131.111-.203.012-.037-.027-.087-.041-.131-.085-.28-.177-.557-.249-.839a10.128 10.128 0 0 0-.378-1.198l.024.071c-.087-.23-.147-.471-.216-.708l-.288-1.012a1.392 1.392 0 0 0-.163-.36l.003.006a.202.202 0 0 0-.178-.062h.001c-.051.018-.08.103-.111.163-.007.014.004.05.011.073zm.082-.329c.101-.104.115-.177 0-.223h-.01a.224.224 0 0 0-.135.045h.001c-.06.096-.002.149.145.179zm-.234-.386c.047.032.102.06.159.081l.005.002a1.682 1.682 0 0 0 0-.213v.005c-.046-.251-.081-.506-.14-.754-.088-.354-.193-.72-.292-1.079 0-.027-.078-.037-.177-.078a1.168 1.168 0 0 0-.03.252v.001c.029.204.065.38.11.551l-.007-.033c.104.386.214.771.329 1.154a.24.24 0 0 0 .043.112l-.001-.001zM5.338 13.406a.506.506 0 0 1-.101.469l.001-.001a.184.184 0 0 0-.023.091v.01a2.58 2.58 0 0 0-.048.506l.002.115v-.005l.001.101c0 .228-.014.452-.041.672l.003-.027a2.072 2.072 0 0 0 0 .291v-.007a1.081 1.081 0 0 1-.03.361l.002-.007a.734.734 0 0 0 .029.359l-.002-.005c.014.06.087.106.218.055.019-.074.035-.163.044-.254l.001-.008c0-.269.03-.531.044-.807a8.56 8.56 0 0 1 .111-1.079l-.007.049a2.47 2.47 0 0 0 .023-.458v.005c.003-.162.038-.315.1-.453l-.003.007c.034-.074-.034-.177-.057-.271-.209.037-.297.152-.267.288zm.26-.437-.005-.007v.002l.005.005zm-.269 3.574c-.299.177-.294.278-.011.432a.276.276 0 0 0 .011-.431zm.273-3.427-.005-.005.002.007.004-.002zM5.752 11.87c-.051 0-.101-.011-.152-.018a.98.98 0 0 0-.014.203v-.002a.566.566 0 0 1-.07.365l.001-.003a.39.39 0 0 0 .075.544l.001.001c.048-.062.12-.119.142-.188l.264-.856a.609.609 0 0 0-.238-.048h-.008zm2.741 18.856.472.267a28.24 28.24 0 0 0-.435-.948c-.034-.073-.119-.122-.177-.177a.448.448 0 0 0 .029.595.508.508 0 0 1 .111.261v.002zM3.34 18.077a.564.564 0 0 0-.022.092l-.001.004c-.023.225.081.437.051.662a.739.739 0 0 1 .095.521l.001-.005c-.002.014-.002.03-.002.047 0 .159.08.3.202.384l.002.001c.053-.074.099-.111.103-.147.011-.159.016-.318.012-.476 0-.276-.023-.55-.021-.826a2.112 2.112 0 0 0-.026-.27l.002.012c-.011-.067-.048-.127-.177-.124s-.196.051-.218.126zm.301 2.185c.034.127.056.273.058.423v.002c.06.354.14.708.211 1.062a.551.551 0 0 0 .047.152l-.001-.003a.245.245 0 0 0 .142.104H4.1a.234.234 0 0 0 .116-.156v-.002a.461.461 0 0 0-.014-.167l.001.003c-.094-.49-.2-.98-.271-1.474-.014-.083 0-.177-.177-.223-.113.085-.15.186-.113.278zm-.102-2.774c-.248.127-.258.15-.083.31.26-.15.269-.172.083-.31zm.633 5.396c.039.188.06.38.106.566.062.249.136.495.219.736.028.083.028.188.255.202a1.112 1.112 0 0 0 .017-.321v.004l-.442-1.769c-.012-.051-.069-.092-.131-.177-.157.195-.157.195-.131.306.035.157.078.304.106.453zm.536 2.178a.474.474 0 0 1 .079.217v.002l-.001.048a.99.99 0 0 0 .108.451l-.003-.006c.079.11.144.238.187.374l.003.009c.045.331.121.63.227.913l-.009-.029c.028.103.049.223.058.347v.006c.053.242.189.469.253.708s.149.52.23.777c.018.057.021.133.189.099.113-.074.14-.147.119-.221-.064-.221-.129-.441-.177-.665-.081-.372-.226-.731-.301-1.104a2.052 2.052 0 0 0-.125-.438l.005.014a2.144 2.144 0 0 1-.224-.716l-.001-.011c0-.101.041-.212-.014-.297a2.676 2.676 0 0 1-.338-.785l-.004-.019c-.016-.06-.051-.117-.225-.129a.417.417 0 0 0-.036.455l-.001-.002zm1.662 4.641a.463.463 0 0 0-.052-.307l.001.002c-.048-.099-.027-.244-.218-.283a.608.608 0 0 0 .196.562l.001.001zM3.956 12.369c-.1.06-.217.116-.339.161l-.015.005c-.009.034-.021.067-.03.103-.028.111-.035.228-.057.341-.035.218-.092.434-.106.653s-.014.437-.03.653c-.007.231-.04.451-.097.662l.005-.02a1.02 1.02 0 0 0 .038.36l-.002-.007c0 .039.032.087.009.119a.72.72 0 0 0-.102.564l-.001-.005c.011.136.018.272.023.407v.214c0 .205.011.41.028.614 0 .065.083.11.216.111.249-.207.196-.433.149-.648-.096-.444 0-.885 0-1.329 0-.226.071-.453.087-.683.018-.324.035-.653.071-.978.028-.23.096-.457.129-.688.028-.174.046-.376.05-.582v-.004a.089.089 0 0 0-.011-.043v.001zm3.438 6.45c0-.035-.053-.065-.09-.11-.177.099-.177.205-.138.301.067.194.106.417.106.649v.026-.001c0 .134.019.269.034.403s.041.267.062.402a.353.353 0 0 0 .175.28l.002.001c.034-.023.065-.037.067-.046a6.334 6.334 0 0 0-.092-.995l.005.038c-.046-.315-.111-.628-.131-.948zm.15 2.503c.085.382.189.761.269 1.145s.177.747.278 1.12c.044.177.074.368.122.549.031.101.065.185.104.266l-.005-.012c.029.058.059.131.086.206l.005.015c.053.198.096.398.154.595.12.403.334.775.4 1.196.005.072.06.13.13.14h.001c.115-.041.119-.081.113-.122a2.86 2.86 0 0 0-.259-1.017l.007.018a.45.45 0 0 1-.049-.089l-.001-.003a3.87 3.87 0 0 0-.177-.664l.009.027c-.12-.267-.078-.58-.267-.826-.011-.012.011-.037 0-.053-.027-.12-.053-.241-.083-.354-.087-.336-.165-.674-.257-1.009l-.384-1.299a.217.217 0 0 0-.147-.194h-.002c-.035.057-.067.088-.067.113l-.001.053c0 .071.008.14.022.206l-.001-.006zm-.353-2.767c.046-.035.11-.064.111-.09 0-.085.053-.177-.115-.242-.11.161-.11.163.004.333zm-.073-1.039a.228.228 0 0 0 .136-.272v.002c0-.053-.021-.108-.136-.12-.17.172-.173.214 0 .391zm.023-2.04a.352.352 0 0 0 .101-.319v.002c0-.104.087-.221-.126-.333-.188.223-.131.439.025.649zm.028.998c.223-.237.032-.474.088-.708.014-.06-.018-.12-.108-.163-.189.11-.219.156-.195.559a.261.261 0 0 0 .212.311h.002zm.037.17a.092.092 0 0 0-.072-.034h-.001a.182.182 0 0 0-.105.039c-.103.12-.08.237.078.363.191-.129.127-.249.099-.368zm-.065.954c-.211.195-.124.354.03.51.122-.096.131-.097.122-.177-.011-.106.055-.237-.152-.333zm2.272 9.913a.221.221 0 0 0 .056-.292l.001.001c-.016-.051-.05-.099-.163-.08-.117.212-.106.242.106.37zm-.156-.86a.095.095 0 0 0-.05-.015c-.01 0-.019.002-.028.004h.001a.174.174 0 0 0-.088.067v.001c-.062.145-.011.251.177.327.145-.177.055-.278-.011-.384zm.2.94c-.156.244-.034.373.156.488.094-.122.103-.124.076-.196-.041-.104-.007-.244-.232-.292zM7.498 12.695l-.143-.087a.468.468 0 0 0-.028.098v.003a11.899 11.899 0 0 0-.18 1.14c0 .011.001.022.003.032v-.001a.606.606 0 0 1-.056.358l.002-.004a1.172 1.172 0 0 0-.051.349v.005c0 .032.057.069.103.119a.323.323 0 0 0 .141-.212v-.002c.013-.176.05-.339.107-.492l-.004.012c.193-.396.177-.817.251-1.23-.051-.044-.097-.06-.143-.088zm2.325 16.322a.168.168 0 0 1-.011-.06.532.532 0 0 0-.124-.317l.001.001a1.06 1.06 0 0 1-.121-.31l-.001-.007c0-.032.041-.08.073-.138a.306.306 0 0 1 .176.175l.001.002c.052.166.121.31.206.442l-.004-.007c.28.354.334.796.476 1.203.023.065.053.142-.088.232h-.011a.22.22 0 0 1-.215-.176v-.001c-.12-.345-.237-.685-.356-1.039zm.52 1.373a.18.18 0 0 1 .087-.072h.001c.035-.011.104-.011.111 0 .055.106.168.189.207.301l-.311.12a1.226 1.226 0 0 1-.112-.233l-.003-.009a.14.14 0 0 1 .02-.107v.001z"/><path d="M3.572 15.841c.337.36.773.624 1.265.748l.018.004c.073.019.177.046.195.081.081.134.29.203.451.297.169.117.365.21.575.269l.014.003c.149.177.552.202.738.354a.46.46 0 0 0 .347.01l-.003.001c.078-.037.058-.11-.06-.177-.241-.119-.492-.239-.738-.366a3.338 3.338 0 0 0-.298-.168l-.021-.009a6.473 6.473 0 0 1-1.624-.958l.012.009a1.443 1.443 0 0 0-.636-.271l-.008-.001c-.221.004-.313.08-.226.173zM8.9 17.032a.377.377 0 0 0 .158.095l.003.001.038.001a.867.867 0 0 0 .199-.023l-.006.001c.016 0 .021-.021.03-.032-.019-.062-.221-.111-.354-.085-.032.005-.076.037-.069.042zm1.585-.703c-.218-.097-.435-.2-.653-.304s-.428-.214-.644-.326c-.062-.032-.177-.046-.226-.081a2.795 2.795 0 0 0-.844-.451l-.02-.006a.134.134 0 0 1-.067-.049c-.106-.177-.4-.295-.635-.437a21.152 21.152 0 0 1-1.442-.947c-.301-.219-.566-.464-.885-.69a8.533 8.533 0 0 1-.874-.662l.011.009a1.022 1.022 0 0 0-.131-.086l-.005-.002c-.039.025-.078.05-.119.073l-.087.048c.014.101.113.177.212.255.175.126.33.256.473.397.196.237.531.407.754.617.224.198.475.375.745.52l.021.01c.283.157.471.354.805.478.145.087.319.178.499.258l.032.013c.03.008.054.028.067.054v.001c.025.092.143.14.304.166.094.016.149.034.142.088a.1.1 0 0 0 .067.094h.001c.196.078.327.189.518.251.173.058.323.137.457.237l-.004-.003c.238.154.515.306.803.439l.042.017c.116.05.259.1.405.141l.024.006a.666.666 0 0 0 .159.019c.129 0 .214-.046.159-.094a.355.355 0 0 0-.064-.052l-.001-.001zm-6.978-2.318a.1.1 0 0 0 .039.115c.235.119.287.34.628.391.019 0 .035.027.044.041.159.246.469.419.777.595.518.292 1.03.57 1.483.856.31.193.708.311 1.039.472a.56.56 0 0 0 .192.034h.003c.203.011.308-.053.214-.136a1.183 1.183 0 0 0-.263-.155l-.008-.003c-.246-.115-.508-.23-.757-.354-.531-.257-.931-.596-1.499-.867a.538.538 0 0 1-.164-.115c-.156-.177-.444-.285-.72-.395a.817.817 0 0 1-.24-.137l.002.001c-.163-.131-.368-.248-.557-.372a.393.393 0 0 0-.101-.023h-.002c-.03.018-.101.028-.108.051zm4.503 2.677c.127.057.283.097.453.152.05-.044.113-.074.103-.096a.484.484 0 0 0-.353-.177h-.001a.386.386 0 0 0-.191.019l.003-.001c-.03.023-.05.087-.012.103zm-4.324 2.661a.367.367 0 0 0 .186.076h.002c.304.048.575.158.811.316l-.007-.005a.916.916 0 0 0 .447.154h.003c.113 0 .203.023.235.092s.147.092.34.064c.025-.012.134-.044.142-.073s-.053-.076-.11-.096-.219-.025-.269-.064c-.354-.276-.994-.387-1.323-.708a.39.39 0 0 0-.404-.038l.002-.001a.161.161 0 0 0-.053.281zm6.233 10.938a.482.482 0 0 0-.306.056l.002-.001c-.021-.085-.099-.14-.255-.122a.639.639 0 0 1-.413-.05l.004.002a.286.286 0 0 0-.257.045h.001c-.046.035-.104.097-.088.119a.221.221 0 0 0 .142.052l.017-.001h-.001c.076 0 .191-.057.237 0 .104.126.317.09.564 0-.023.09.03.138.157.152l.825.094.14.014.655-.255-.223-.016zM5.414 18.401c.055.04.118.077.185.105l.006.002c.067.034.149.06.216.092.244.119.467.246.727.343.318.106.582.215.836.341l-.038-.017a.585.585 0 0 0 .15.058l.004.001a.464.464 0 0 0 .346-.056l-.002.001a.085.085 0 0 0 .039-.07.085.085 0 0 0-.026-.061 1.356 1.356 0 0 0-.345-.195l-.009-.003c-.457-.163-.932-.331-1.401-.517-.104-.042-.193-.097-.301-.138a1.584 1.584 0 0 0-.206-.052l-.01-.002c-.18.025-.248.106-.17.166zm-2.128-.982c0 .124.131.177.267.221.354.113.724.219 1.088.317l.036.001a.616.616 0 0 0 .122-.012l-.004.001c0-.027 0-.06-.023-.08a3.614 3.614 0 0 0-.317-.207l-.656-.391a.39.39 0 0 0-.356-.013l.002-.001c-.073.035-.106.108-.159.165zm6.164-.092c.177.021.235.062.283.133a.53.53 0 0 0 .345.128h.018-.001c.133.012.281-.039.267-.099 0 0-.016-.028-.041-.039l-.665-.276a.318.318 0 0 0-.261.027l.002-.001c-.073.048-.062.115.053.127zm-1.476 3.358a.554.554 0 0 0 .14-.061l-.002.001c-.058-.048-.083-.097-.15-.117-.223-.071-.455-.14-.708-.202-.317-.081-.699-.11-.945-.257a.125.125 0 0 0-.063-.021h-.007a.634.634 0 0 0-.186.028l.004-.001c-.044.025-.085.087-.064.106a.352.352 0 0 0 .209.102H6.222c.093 0 .178.036.241.094a.796.796 0 0 0 .275.091l.005.001c.343.061.641.137.929.234l-.045-.013a.946.946 0 0 0 .352.013l-.005.001zm.731-.976c.125.026.278.047.434.059l.014.001a.77.77 0 0 0 .181-.073l-.004.002a.06.06 0 0 0-.035-.082q-.52-.152-1.062-.318c-.065-.019-.15-.071-.241-.012a.115.115 0 0 0-.045.09c0 .018.004.035.012.05v-.001c.03.044.075.077.128.09h.002c.198.071.405.14.617.193zM7.711 30.3c.177.011.354.018.531.034h.015a.258.258 0 0 0 .104-.021l-.002.001c.061-.035.113-.07.163-.109l-.003.003a1.046 1.046 0 0 0-.17-.088l-.007-.003c-.177-.048-.384-.074-.545-.136-.32-.12-.741-.129-1.136-.177.429.176.774.342 1.109.525l-.059-.029zm1.012-16.349a.39.39 0 0 0-.299-.029l.003-.001c-.065.044-.042.097.039.149.138.076.302.124.476.131h.002c.044-.096-.055-.175-.221-.249zm5.219 15.303a.27.27 0 0 0-.059-.009h-.001c-.423-.032-.812-.115-1.29-.111a2.429 2.429 0 0 1-.347-.034l.015.002-.759-.085c-.177-.021-.354-.034-.531-.057l-.807-.127c-.165-.023-.354-.023-.518-.042l-1.214-.15-1.539-.177a13.58 13.58 0 0 0-.531-.046h-.008a.967.967 0 0 0-.153.013l.005-.001c-.177.06-.265.163-.205.226a.46.46 0 0 0 .114.066l.003.001a1.663 1.663 0 0 0 .738.112H6.85c.429.012.838.051 1.238.117l-.053-.007 1.217.15c.146.013.278.036.406.068l-.018-.004a4.081 4.081 0 0 0 1.171.092l-.012.001.158-.002c.272 0 .54.017.802.051l-.031-.003c.274.067.597.117.928.14l.018.001a3.553 3.553 0 0 1 .848.054l-.022-.003a.718.718 0 0 0 .296-.039l-.005.002a.726.726 0 0 0 .213-.096l-.003.002c.076-.06.012-.094-.058-.104zm-4.984-14.94a.4.4 0 0 0 .188.069h.002c.051 0 .157-.019.152-.034a.207.207 0 0 0-.115-.097h-.001a1.286 1.286 0 0 0-.224-.045l-.006-.001c-.005.035-.027.076.005.108zm-.005-.108v-.005h-.009l-.002.004.011.002zm-3.822 3.866c-.053.016-.083.06-.124.092.073.027.163.053.256.073l.014.003c.018 0 .08-.055.106-.074a.215.215 0 0 0-.254-.093h.002zm3.806.405c.281.039.453.156.771.154.055 0 .094.035.143.051.048.02.107.04.168.055l.009.002c.157.034.311.023.336-.014s-.065-.083-.143-.106-.285-.035-.322-.081c-.12-.147-.464-.177-.708-.255a7.094 7.094 0 0 1-1.105-.422l.043.019a3.307 3.307 0 0 0-.522-.191l-.025-.006a1.077 1.077 0 0 0-.188-.019h-.001c-.019.035-.064.074-.042.092.076.065.16.124.251.173l.008.004c.262.136.593.225.819.375.145.09.318.151.503.169h.005zm-4.16 2.558a1.846 1.846 0 0 0-.436-.223l-.013-.004a1.229 1.229 0 0 0-.443.001l.008-.001c-.039 0-.119.09-.11.124.05.189.58.354.885.278.11-.023.189-.119.11-.175zm6.651 5.505-.15-.023c-.025.03-.067.064-.069.087s.058.019.108.034zm-6.016.462a.112.112 0 0 0-.008.042c0 .041.023.077.057.094h.001c.247.09.564.182.887.256l.058.011c.384.081.794.133 1.198.191.177.025.38.028.552.058l1.398.258a.776.776 0 0 0 .154.032h.003c.674 0 1.239.129 1.851.177.472.039 1.021 0 1.415.115a1.21 1.21 0 0 0 .18-.001h-.004.002a.28.28 0 0 0 .205-.09c.05-.051.05-.096-.025-.108-.126-.021-.249-.044-.38-.06l-1.279-.168a1.15 1.15 0 0 0-.189-.03h-.004a8.203 8.203 0 0 1-1.272-.146l.052.008c-.333-.042-.687-.067-1.026-.108-.193-.023-.354-.073-.563-.087a4.508 4.508 0 0 1-.902-.134l.031.007a3.511 3.511 0 0 0-.638-.152l-.02-.002a2.026 2.026 0 0 1-.72-.182l.013.005a.645.645 0 0 0-.223-.081l-.004-.001c-.193-.025-.402-.035-.612-.051-.085.062-.173.106-.188.145zm-.369-1.368a.876.876 0 0 0 .594.265h.002c.205 0 .384.03.57.05.257.02.494.061.723.121l-.028-.006c.352.097.759.16 1.179.177h.01c.388.009.76.055 1.12.133l-.039-.007c.159.042.354.06.495.11a.8.8 0 0 0 .672-.121l-.002.002a4.711 4.711 0 0 0-1.571-.313h-.007a1.114 1.114 0 0 1-.184-.019l.007.001c-.448-.083-.901-.163-1.339-.258a6.299 6.299 0 0 1-1.107-.259l.045.013c-.257-.11-.621-.08-.994-.019-.096.011-.189.094-.145.131zm5.304.717.002-.005-.011.005.004.002.005-.002zm1.244.399c.265.028.531.053.784.094a.637.637 0 0 0 .388-.087l-.003.002a.279.279 0 0 0 .065-.058c-.014-.016-.016-.035-.035-.037-.343-.041-.688-.083-1.04-.12a.353.353 0 0 0-.163.077h.001c-.044.05-.11.119.004.131zm-1.242-13.107c-.034-.025-.064-.05-.101-.073a22.04 22.04 0 0 1-.658-.437 2.945 2.945 0 0 1-.469.041H9.12c.294.177.589.354.844.547a.852.852 0 0 0 .398.098h.019-.001c.11-.018.099-.08-.03-.175zm.589-.63a.776.776 0 0 1 .222.076l-.004-.002-.297-.09zM9.485 19.79c0 .051.134.073.269.042a.257.257 0 0 0 .068-.041c-.03-.06-.161-.085-.274-.053-.028.009-.062.037-.062.051zm-1.157-6.136a7.224 7.224 0 0 1-.935-.713l.006.006a2.916 2.916 0 0 0-.257-.227l-.006-.005c-.326-.242-.658-.49-.975-.764-.223 0-.09-.053-.409-.076-.083 0-.165-.018-.244-.03.448.437.978.802 1.415 1.18.081.069.207.126.295.191.27.163.497.318.715.485l-.019-.014a.755.755 0 0 0 .383.148H8.3a.608.608 0 0 0 .197-.035l-.004.001a1.063 1.063 0 0 0-.162-.145l-.003-.002zm.131 7.224c.112.016.242.025.374.025h.024-.001l.196-.087a.416.416 0 0 0-.105-.064l-.003-.001a2.245 2.245 0 0 0-.278-.059l-.012-.001a.28.28 0 0 0-.248.069.081.081 0 0 0 .053.118h.001z"/><path d="M10.527 26.559c.088-.012.177-.014.265-.023a.218.218 0 0 0 .068-.029h-.001c.014-.014.027-.041.016-.042-.165-.05-.248-.177-.531-.115a.78.78 0 0 0-.042.082l-.002.005c-.05.134-.005.156.226.122zm-5.635-5.212a.278.278 0 0 0 .134.069h.002c.199.014.38.078.535.18l-.004-.003a.83.83 0 0 0 .231.051h.003a.977.977 0 0 1 .214.037L6 21.679c.237.095.524.185.819.252l.04.008c.315.096.708.129.955.274a.265.265 0 0 0 .095.023h.001l.637.078a.259.259 0 0 1 .135.048l-.001-.001c.113.113.341.065.561.028.11-.019.136-.069.119-.113s-.046-.042-.076-.06a1.85 1.85 0 0 0-.768-.2h-.004a3.074 3.074 0 0 1-.742-.157l.022.006a3.03 3.03 0 0 0-.412-.082l-.016-.002a3.53 3.53 0 0 1-.803-.185l.025.008c-.379-.195-.904-.26-1.385-.391a1.177 1.177 0 0 0-.128-.024l-.006-.001c-.177.019-.246.101-.175.156zm5.866-1.247a.356.356 0 0 0 .142-.038l-.002.001c.011-.007.018-.018.018-.032s-.007-.025-.018-.032a1.44 1.44 0 0 0-.584-.142h-.002a.855.855 0 0 0-.118.019l.006-.001c-.016.025-.064.064-.046.081.108.111.295.172.603.143zm-1.37.852c.017.019.04.033.066.039h.001c.423.129.84.255 1.27.37.084.021.181.032.281.032h.036-.002a.635.635 0 0 0 .158-.072l-.002.001c-.03-.028-.039-.05-.067-.058l-1.279-.386a1.52 1.52 0 0 0-.315-.041h-.002a.33.33 0 0 0-.139.056l.001-.001a.043.043 0 0 0-.016.034c0 .01.003.019.009.026zm-4.929 1.784c-.074.081-.051.145.06.177.131.04.297.08.467.109l.027.004c.423.062.885.069 1.279.166.106.029.242.057.381.077l.021.003c.163.019.312.057.452.114l-.012-.004c.185.067.402.119.626.147l.015.002c.506.083 1.062.119 1.463.283a.625.625 0 0 0 .225.041h.005c.306.008.596.065.867.164l-.019-.006c.37.103.804.18 1.251.216l.025.002h.002c.093 0 .184-.008.273-.023l-.01.001c.065-.039.149-.071.159-.097s-.03-.062-.074-.071c-.249-.044-.494-.097-.764-.12-.547-.046-1.072-.111-1.433-.324a.478.478 0 0 0-.175-.048h-.001a4.165 4.165 0 0 1-.953-.169l.03.008a5.358 5.358 0 0 0-.918-.206l-.029-.003c-.389-.058-.741-.154-1.155-.193a1.055 1.055 0 0 1-.184-.03l.007.002c-.354-.083-.683-.177-1.037-.257a3.822 3.822 0 0 0-.531-.067h-.01a.399.399 0 0 0-.328.103zm6.555-.043a.446.446 0 0 0 .153-.084l-.001.001s-.037-.037-.073-.044c-.152-.028-.304-.057-.465-.076a2.543 2.543 0 0 0-.321.001h.008c-.032.046-.073.081-.062.096a.3.3 0 0 0 .118.084l.002.001a1.046 1.046 0 0 0 .648.022l-.007.002zm-6.301 1.57c.157.006.304.037.442.088l-.01-.003c.155.075.335.126.525.141h.005c.278.047.517.105.749.177l-.041-.011c.064.014.131.027.202.035.14.018.292.023.425.048.492.088 1.001.157 1.456.272.266.074.586.136.914.174l.03.003c.2.019.38.057.572.083l.513.064c.237.03.478.057.708.094s.474.096.724.131a1.508 1.508 0 0 0 .35-.014l-.008.001c.115-.011.203-.088.163-.177-.042-.012-.12-.042-.209-.064-.545-.129-1.239-.133-1.75-.308a2.155 2.155 0 0 0-.35-.041h-.004a12.399 12.399 0 0 1-.639-.096 3.468 3.468 0 0 0-.751-.129H8.708c-.249 0-.489-.043-.712-.121l.015.005a1.715 1.715 0 0 0-.248-.057l-.01-.001c-.324-.055-.656-.106-.978-.168-.246-.048-.464-.122-.708-.161-.375-.06-.821-.037-1.177-.126a.168.168 0 0 0-.081 0h.001a.531.531 0 0 0-.17.079l.002-.001c-.016.025.027.074.071.081zm4.859-1.782h.177c.027-.039.069-.074.062-.099s-.058-.034-.101-.039a.28.28 0 0 0-.25.054h.001c-.083.074.032.074.111.085zm15.919-5.449a.377.377 0 0 1-.158.095l-.003.001-.038.001a.867.867 0 0 1-.199-.023l.006.001c-.016 0-.021-.021-.03-.032.019-.062.221-.111.354-.085.032.005.076.037.069.042zm-1.495-.563a.73.73 0 0 0 .164-.02l-.005.001c.171-.047.314-.097.453-.155l-.023.009c.331-.15.608-.303.873-.473l-.027.016a1.63 1.63 0 0 1 .413-.219l.012-.004a1.596 1.596 0 0 1-.011-.273v.003a2.023 2.023 0 0 0-.419.266l.003-.003c-.041.035-.165.05-.226.081-.216.111-.43.219-.644.326s-.435.207-.653.304a.446.446 0 0 0-.07.046c-.055.048.03.099.159.094zm.951.858c-.177.021-.235.062-.283.133a.53.53 0 0 1-.345.128h-.018.001c-.133.012-.281-.039-.267-.099 0 0 .016-.028.041-.039l.665-.276a.318.318 0 0 1 .261.027L25 17.2c.065.048.055.115-.053.127zm.291 2.442c.133-.016.285-.027.414-.055.027-.094.053-.188.078-.283l-.626.186a.06.06 0 0 0-.035.082.745.745 0 0 0 .165.07l.005.001zm-3.52 9.66h.088a6.6 6.6 0 0 1 .124-.297 1.332 1.332 0 0 1-.135 0h.003c-.478 0-.867.08-1.29.111a.309.309 0 0 0-.062.009h.002c-.071.011-.134.044-.057.096a.75.75 0 0 0 .205.093l.005.001c.07.025.151.039.236.039l.057-.002h-.003a3.418 3.418 0 0 1 .836-.049h-.01zm3.714-15.115a.4.4 0 0 1-.188.069h-.002c-.051 0-.157-.019-.152-.034a.207.207 0 0 1 .115-.097h.001c.066-.02.144-.036.224-.045l.006-.001c.005.035.027.076-.005.108zm.006-.108v-.005h.009l.002.004-.011.002zm-1.081 4.533c.07-.017.129-.036.186-.06l-.009.003c.05-.016.088-.051.143-.051.318 0 .49-.115.771-.154.187-.023.355-.086.502-.18l-.005.003.034-.018c.012-.071.028-.142.041-.212 0-.016 0-.055.014-.099-.267.117-.572.203-.853.303-.237.085-.58.108-.708.255-.037.046-.219.051-.322.081s-.177.044-.143.106.191.057.349.023zm-1.395 7.801.15-.023c.025.03.067.064.069.087s-.058.019-.108.034zm-1.73 1.693a1.19 1.19 0 0 0 .181-.001h-.004c.257-.061.551-.095.854-.095l.114.002h-.006c.051-.106.106-.211.159-.315l-1.109.143c-.131.016-.255.039-.38.06-.074.012-.074.057-.025.108.051.06.127.097.211.097h.005zm1.567-1.483c-.265.028-.531.053-.784.094a.64.64 0 0 1-.388-.087l.003.002a.279.279 0 0 1-.065-.058c.014-.016.016-.035.035-.037.343-.041.688-.083 1.04-.12a.353.353 0 0 1 .163.077h-.001c.044.05.11.119-.004.131zm1.243-13.107c.034-.025.064-.05.101-.073.219-.14.441-.287.658-.437.141.025.303.039.469.041h.001c-.294.177-.589.354-.844.547a.852.852 0 0 1-.398.098h-.019.001c-.11-.018-.099-.08.03-.175zm-.59-.63a.776.776 0 0 0-.222.076l.004-.002.297-.09zm1.453 6.777c0 .051-.134.073-.269.042a.257.257 0 0 1-.068-.041c.03-.06.161-.085.274-.053.028.009.062.037.062.051zm-1.272.31a.356.356 0 0 1-.142-.038l.002.001c-.011-.007-.018-.018-.018-.032s.007-.025.018-.032a1.44 1.44 0 0 1 .584-.142h.002c.042.004.08.01.118.019l-.006-.001c.016.025.064.064.046.081-.106.111-.295.172-.603.143zm1.369.852a.127.127 0 0 1-.066.039h-.001c-.423.129-.84.255-1.27.37a1.179 1.179 0 0 1-.281.032h-.036.002a.635.635 0 0 1-.158-.072l.002.001c.03-.028.039-.05.067-.058l1.279-.386a1.52 1.52 0 0 1 .315-.041h.002a.33.33 0 0 1 .139.056l-.001-.001c.01.008.016.02.016.034a.04.04 0 0 1-.009.026zm-.985 2.893.018-.035a6.725 6.725 0 0 1-.798.107l-.023.001c-.271.023-.515.076-.764.12-.044 0-.087.042-.074.071s.094.058.159.097c.079.014.171.021.264.021h.002c.424-.038.807-.1 1.181-.188l-.056.011c.028-.069.057-.138.092-.205zm-.641-1.152a.446.446 0 0 1-.153-.084l.001.001s.037-.037.073-.044c.152-.028.304-.057.465-.076a2.564 2.564 0 0 1 .321.001h-.008c.032.046.073.081.062.096a.3.3 0 0 1-.118.084l-.002.001a1.046 1.046 0 0 1-.648.022l.007.002zm.402 2.343c-.494.134-1.111.149-1.608.267-.088.021-.166.051-.209.064-.041.09.048.168.163.177a1.44 1.44 0 0 0 .347.012h-.005c.249-.035.476-.092.724-.131.209-.035.426-.06.644-.087a1.836 1.836 0 0 1-.054-.294l-.001-.008zM14.374 5.865a.45.45 0 0 0-.149.049l.002-.001a.359.359 0 0 0 .476.013h-.001c-.081-.099-.218-.051-.329-.062zm-.559.161a.285.285 0 0 0 .263-.09.344.344 0 0 0-.091-.042l-.002-.001a5.293 5.293 0 0 0-1.07.002l.023-.002c-.032 0-.062.042-.124.087.082.018.182.034.284.043l.01.001c.235.004.472.005.708.002zm-1.194-.062a.445.445 0 0 0-.29-.071h.002c-.23 0-.458 0-.687.014-.287.011-.573.028-.86.046a.753.753 0 0 0-.136.032l.005-.002a.232.232 0 0 0 .212.081h-.001 1.327a.715.715 0 0 0 .431-.103l-.003.002zm2.487.052a2.701 2.701 0 0 1 .719-.02l-.012-.001a.295.295 0 0 0 .285-.103v-.001a.546.546 0 0 0-.286-.041h.003-.825a.724.724 0 0 0-.157.053l.004-.002a.278.278 0 0 0 .269.115h-.002zm3.985-.08c.23 0 .46 0 .688-.011.469-.021.936 0 1.415-.03.345-.027.699-.016.978-.021h.354l.943-.014c.092 0 .188-.025.177-.073s-.097-.062-.161-.083a.523.523 0 0 0-.145 0h.003-.897c-.403 0-.805 0-1.208.012-.253.011-.508 0-.761 0-.354 0-.72 0-1.081.011a2.438 2.438 0 0 0-.404.036l.015-.002c-.051.009-.117.055-.113.08s.08.053.129.074c.02.01.042.018.066.021h.001zm-.303-.081a.177.177 0 0 0-.217-.03h.001c-.009.01-.014.023-.014.038s.005.028.014.038a.158.158 0 0 0 .084.023.16.16 0 0 0 .132-.069v-.001zm-.442.069a.8.8 0 0 0 .13-.072l-.003.002c-.097-.011-.152-.021-.209-.023-.26 0-.52-.019-.782-.019-.38 0-.763.012-1.143.023-.028 0-.055.035-.12.078.065.016.148.031.232.041l.012.001c.177 0 .354.009.531 0 .409 0 .817-.018 1.224-.027a.632.632 0 0 0 .131-.004h-.003zM7.06 6.148a.835.835 0 0 1 .457.012l-.006-.002a.406.406 0 0 0 .101 0H7.61l.116.001c.165 0 .329-.007.491-.02l-.021.001c.239-.03.474-.012.708-.019.09 0 .177 0 .271-.012a1.51 1.51 0 0 1 .349.001l-.007-.001.078.002c.092 0 .181-.008.269-.025l-.009.001c.057-.009.099-.046.05-.11-.078 0-.166-.018-.255-.018h-.78c-.334 0-.669.014-1.001 0a7.466 7.466 0 0 1-.887.015h.015a.776.776 0 0 0-.253.053l.005-.002a.291.291 0 0 0 .316.12h-.002zm2.997-.152c.166.145.265.143.418 0a.425.425 0 0 0-.42.001l.002-.001zm-3.65.02a27.386 27.386 0 0 0-.95-.028.809.809 0 0 0-.156.015l.005-.001c.056.058.109.12.157.186l.004.005c.113-.002.222-.011.329-.026l-.014.002a.856.856 0 0 1 .342-.01l-.005-.001a.568.568 0 0 0 .49-.095l-.001.001a.928.928 0 0 0-.195-.047l-.005-.001zm17.392-.25c.068-.025.148-.045.23-.058l.007-.001c.375-.027.75-.05 1.127-.065h.027c.07 0 .139.005.206.015l-.008-.001v.191h-.057c-.047.002-.103.002-.159.002a5.03 5.03 0 0 1-.409-.016l.018.001a1.25 1.25 0 0 0-.409.001l.007-.001a.784.784 0 0 1-.584-.071l.004.002zM11.423 6.994a.55.55 0 0 0 .08.014h.003c.196.018.391-.034.587 0l.011.001.011-.001a1.15 1.15 0 0 1 .453-.035l-.006-.001a.651.651 0 0 0 .398-.075l-.003.002a.48.48 0 0 0-.115-.059l-.003-.001a9.909 9.909 0 0 0-.421-.027l-.74-.023h-.234c-.078 0-.117.021-.12.088l-.001.011c0 .056.044.102.099.104zm1.951-.058a2.75 2.75 0 0 1 .387 0h-.009l.957-.016a.38.38 0 0 0 .268-.069l-.001.001a.312.312 0 0 0-.274-.079h.002c-.448 0-.885.011-1.341.018-.076 0-.159 0-.219.073a.264.264 0 0 0 .232.074h-.002zm-2.466-.05c.108.124.124.127.272.044-.122-.133-.142-.136-.272-.044zm4.936.014c.191 0 .38.012.571.009.253 0 .508-.014.763-.027.087 0 .177.009.257-.101a1.88 1.88 0 0 0-.294-.044h-.006c-.603 0-1.207.016-1.81.028-.074.012-.14.028-.203.05l.008-.002c.154.097.154.097.267.096.149-.009.299-.009.448-.009zm2.23-.017c.051-.009.11-.014.171-.014l.064.002h-.003a1.95 1.95 0 0 0 .512.008l-.009.001c.125-.025.27-.041.418-.044h.003a8.002 8.002 0 0 0 .934-.001l-.022.001c.119 0 .239.016.354.018.248 0 .504-.027.752-.027h.812c.058 0 .133 0 .152-.078a.177.177 0 0 0-.178-.086h.001-.694c-.38-.011-.768 0-1.148 0a3.798 3.798 0 0 0-.455 0h.011a4.195 4.195 0 0 1-.777.019l.013.001a.992.992 0 0 0-.251-.031l-.043.001h.002a5.094 5.094 0 0 1-.849.069h-.019.001-.008a.196.196 0 0 0-.168.095v.001a.694.694 0 0 0 .43.067l-.004.001zm4.963-.179a.805.805 0 0 0-.342-.026h.004c-.11 0-.242-.023-.338.064a1.216 1.216 0 0 0 .684-.04l-.009.003zm1.047-.046c-.253-.122-.499-.012-.74-.034l-.022-.001a.175.175 0 0 0-.142.072c.124.106.177.115.591.092.115-.005.235.004.313-.129zm-17.201.218c-.177 0-.34.016-.508.034a.654.654 0 0 0-.179.09l.002-.001.06.039c.207-.055.416-.11.625-.161zm18.263-.33h-.029a3.6 3.6 0 0 0-.823.095l.024-.005a.353.353 0 0 0-.089.052l.001-.001.011.035c.269-.009.531.034.794.042.036-.085.073-.158.115-.226l-.004.007zM12.461 4.991a.527.527 0 0 0-.129.042l.003-.001a.304.304 0 0 0 .299.081h-.002a3.466 3.466 0 0 1 .72-.015l-.012-.001a26.483 26.483 0 0 0 .891.011.631.631 0 0 0 .281-.065l-.004.002c-.016-.019-.023-.037-.032-.037-.667-.053-1.341-.016-2.015-.016zm2.617.103c.409 0 .817-.018 1.226-.016s.803-.009 1.205-.012h.587c.094 0 .189-.012.283-.018s.165-.018.248-.019h.64c.439-.009.876-.062 1.316-.039a.254.254 0 0 0 .178-.046h-.001c0-.06-.044-.067-.088-.071a5.956 5.956 0 0 0-1.102.002l.024-.002c-.035 0-.071.012-.106.012-.23 0-.462-.016-.69 0-.303.027-.609-.032-.909.032-.016 0-.034-.011-.051-.011h-.386c-.364 0-.727 0-1.092.016-.472.012-.945.035-1.415.055a.359.359 0 0 0-.235.056l.001-.001a.47.47 0 0 0 .099.043l.004.001c.077.01.169.016.261.018h.002zm-2.916-.011c-.034-.025-.057-.057-.083-.058-.09 0-.193-.034-.265.05a.372.372 0 0 0 .351.008l-.002.001zm-1.098.014a.338.338 0 0 0-.273-.067h.002c-.057 0-.115.011-.131.067a.353.353 0 0 0 .403 0l-.001.001zM8.93 5.12a.64.64 0 0 0-.344-.035l.004-.001c-.11.011-.241-.032-.338.08a.932.932 0 0 0 .684-.047l-.006.002zm1.047-.044c-.253-.104-.501 0-.74-.025a.19.19 0 0 0-.167.06c.126.092.177.099.593.08.111-.005.234.002.313-.115zm.179-.021c-.014 0-.039.027-.035.037.005.023.02.042.04.051a.406.406 0 0 0 .382-.041l-.001.001a.47.47 0 0 0-.389-.047l.003-.001zm1 .032a.544.544 0 0 0 .533-.001l-.003.001c-.09-.062-.09-.065-.177-.064a.503.503 0 0 0-.356.065l.002-.001zm10.677-.165a.338.338 0 0 0-.273-.067h.002c-.058 0-.117.011-.131.067a.353.353 0 0 0 .403 0l-.001.001zm-.907-.042c-.014 0-.039.027-.035.037.005.023.02.041.04.051a.406.406 0 0 0 .382-.041l-.001.001a.472.472 0 0 0-.39-.047l.003-.001zm1.001.032a.544.544 0 0 0 .533-.001l-.003.001c-.092-.062-.092-.065-.177-.064-.106-.004-.235-.037-.354.064zm-14.726.311.033.001.034-.001h-.001a1.163 1.163 0 0 1 .373.001l-.007-.001a2.544 2.544 0 0 0 .373 0h-.008c.035 0 .067-.032.115-.058a.51.51 0 0 0-.233-.055h-.008a4.431 4.431 0 0 1-.53-.017l.017.001a8.35 8.35 0 0 0-1.429.002l.031-.002c-.074 0-.163 0-.2.087a.339.339 0 0 0 .273.069h-.002zm-1.567.012a.068.068 0 0 0 .039-.053c0-.019-.028-.051-.046-.051-.126 0-.249-.041-.375-.037v.166h.28a.257.257 0 0 0 .104-.025l-.001.001zM23.47 4.94l-.032.001-.033-.001h.001a1.076 1.076 0 0 0-.362.015l.007-.001a2.507 2.507 0 0 1-.27.014l-.089-.001h.004c-.032 0-.064-.03-.111-.055a.496.496 0 0 1 .229-.064h.012c.172 0 .342-.012.507-.036l-.019.002a7.794 7.794 0 0 1 1.377-.045l-.02-.001c.071 0 .157 0 .196.078a.321.321 0 0 1-.261.08h.002zm1.525-.041a.085.085 0 0 1-.041-.053v-.001c0-.018.028-.051.046-.051.124-.011.246-.05.372-.051v.166a2.727 2.727 0 0 1-.28.016.202.202 0 0 1-.098-.027l.001.001z"/><path d="M9.834 6.598c.108-.104.199-.225.269-.359l.004-.008c.018-.037.042-.087.076-.099a.87.87 0 0 0 .289-.225l.001-.001c.112-.08.206-.178.279-.291l.003-.004c.177-.073.221-.278.389-.368a.124.124 0 0 0 .029-.177c-.035-.041-.113-.032-.177.027-.134.122-.267.248-.4.37a2.29 2.29 0 0 0-.177.159c-.264.31-.558.581-.882.813l-.015.01a.578.578 0 0 0-.105.098l-.001.001c.161.013.305.033.446.059l-.026-.004zm.782-2.392a.29.29 0 0 0 .115-.081c.018-.027 0-.076-.016-.115l-.039-.016a.147.147 0 0 0-.108.178v-.001c-.002.018.032.039.048.035zM6.288 7.03c.028-.028.057-.058.087-.06a.341.341 0 0 0 .215-.133l.001-.001c.081-.101.171-.19.269-.268l.003-.003c.177-.119.294-.295.462-.425a2.47 2.47 0 0 0 .406-.412l.004-.006c.145-.133.277-.274.398-.424l.006-.007c.058-.096.177-.163.234-.278a.077.077 0 0 1 .051-.035h.001a.177.177 0 0 0 .154-.16v-.001c0-.048.025-.076.085-.076h.006a.134.134 0 0 0 .093-.037c.069-.101.186-.177.244-.269a.799.799 0 0 1 .241-.233l.003-.002c.189-.144.355-.286.514-.437l-.002.002c.064-.066.122-.137.174-.214l.003-.005a.153.153 0 0 0 .023-.08l.001-.01a.078.078 0 0 0-.12-.066.185.185 0 0 0-.057.036c-.239.221-.479.442-.717.667-.034.032-.042.096-.08.117-.189.11-.342.263-.45.445l-.003.006a.091.091 0 0 1-.049.035h-.001a1.136 1.136 0 0 0-.408.339l-.002.003c-.262.26-.52.531-.784.782-.177.168-.364.317-.52.495s-.271.336-.43.488a1.01 1.01 0 0 0-.148.205l-.003.005c.009.014.012.028.021.035zm1.998-.432c.178-.105.328-.236.45-.391l.003-.003c.242-.277.494-.529.761-.764l.009-.008c.188-.157.304-.363.474-.531a.164.164 0 0 0 .035-.097c.011-.103-.058-.154-.15-.104a.694.694 0 0 0-.166.137l-.001.001c-.119.127-.234.258-.354.387-.246.276-.564.485-.784.784a.31.31 0 0 1-.096.088l-.001.001a.83.83 0 0 0-.308.373l-.002.005a.38.38 0 0 1-.102.125l-.001.001c-.011.011-.021.023-.032.032zm1.919-1.945c.061-.068.119-.143.172-.221l.005-.007c-.048-.025-.081-.057-.104-.051a.286.286 0 0 0-.205.175l-.001.002a.083.083 0 0 0-.006.032c0 .024.009.045.023.062.03.018.097.027.115.009zm2.371 2.21a.217.217 0 0 0 .086-.089l.001-.001a.967.967 0 0 1 .369-.381l.005-.002a.482.482 0 0 0 .199-.211l.001-.003a.146.146 0 0 1 .12-.111h.001c.078-.012.108-.067.108-.165 0-.012-.021-.069-.048-.074a.152.152 0 0 0-.108.049c-.039.037-.055.106-.099.129-.31.159-.487.471-.805.623a.14.14 0 0 0-.07.2v-.001a.195.195 0 0 0 .243.036h-.001zm12.168-1.778a.15.15 0 0 0-.053.153v-.001a.202.202 0 0 0-.205.103l-.001.001a.356.356 0 0 1-.175.187l-.002.001a.09.09 0 0 0-.042.129c.018.027.058.064.083.06a.195.195 0 0 0 .102-.067c.028-.037.011-.101.081-.113.156-.03.195-.138.195-.269a.19.19 0 0 0 .204-.051l.37-.377c.021-.019.042-.042.064-.064v-.354c-.034.034-.069.067-.103.103-.177.184-.345.373-.518.559zm-12.89.879a.755.755 0 0 0 .121-.092c.037-.032.069-.071.108-.104.138-.117.285-.223.412-.354a2.86 2.86 0 0 1 .424-.378l.008-.006a.312.312 0 0 0 .081-.072l.001-.001a.126.126 0 0 0 0-.176.164.164 0 0 0-.141-.012h.001a.993.993 0 0 0-.256.167l.001-.001c-.23.223-.449.453-.674.679-.051.051-.111.096-.159.149a.595.595 0 0 0-.064.103l-.001.003c.002.097.074.134.14.096zm-.895 1.012a.342.342 0 0 0 .084-.094l.001-.002c.115-.177.228-.354.338-.531.011-.019 0-.051 0-.078-.025 0-.057 0-.076.011a2.807 2.807 0 0 0-.209.154c-.127.108-.253.216-.377.327a.148.148 0 0 0-.044.079v.001c.094.034.189.081.283.133zm.011-3.046a.212.212 0 0 1 .176-.14h.001a.268.268 0 0 0 .176-.175l.001-.002a.1.1 0 0 0-.095-.135h-.008a.131.131 0 0 0-.052.02h.001c-.126.11-.253.218-.37.333a.08.08 0 0 0 .019.129.102.102 0 0 0 .15-.029zm3.549.895c0-.018-.018-.042-.032-.074a.603.603 0 0 0-.16.065l.003-.002c-.12.106-.237.214-.354.329-.122.171-.26.318-.415.446l-.004.003c-.012.009-.028.019-.03.03s-.019.074 0 .096.071.048.092.037a.26.26 0 0 0 .134-.097l.001-.001a.209.209 0 0 1 .133-.12h.001a.474.474 0 0 0 .141-.13l.001-.001c.12-.157.252-.296.398-.418l.004-.003a.33.33 0 0 0 .088-.159v-.002zm-.906-.439c.055-.065.105-.136.15-.212l.004-.007c-.021-.042-.03-.083-.048-.088a.124.124 0 0 0-.099.015h.001a41.52 41.52 0 0 0-.531.508c-.032.032-.099.069-.05.119.03.018.066.029.104.029.014 0 .028-.002.042-.004h-.001a.246.246 0 0 0 .117-.059c.103-.097.214-.193.311-.299zM24.04 5.814c-.106.078-.2.177-.311.241a3.083 3.083 0 0 0-.58.572l-.005.007c-.046.048-.018.11.048.134a.133.133 0 0 0 .053.012.13.13 0 0 0 .09-.036 2.31 2.31 0 0 1 .278-.234l.007-.005c.229-.176.427-.379.592-.606l.006-.008a.078.078 0 0 0 .023-.051.483.483 0 0 0-.05-.093l.001.001c-.06.022-.11.045-.157.071l.007-.003zM7.099 4.434c-.035.057-.03.127.016.149a.131.131 0 0 0 .159-.033.282.282 0 0 0 .074-.248v.002a.244.244 0 0 0-.249.13l-.001.001zm18.08-1.426-.034.027a5.38 5.38 0 0 0-.598.59l-.006.007a1.294 1.294 0 0 1-.151.154l-.002.001c-.12.115-.241.23-.354.354-.083.081-.159.168-.244.248-.131.124-.271.241-.4.366-.078.074-.14.163-.214.241-.177.189-.364.372-.543.561-.221.235-.441.474-.66.708-.073.08-.142.163-.207.248a.337.337 0 0 0-.035.074l-.001.002v.01a.124.124 0 0 0 .157.12h-.001a.342.342 0 0 0 .1-.047l-.001.001a.884.884 0 0 0 .33-.332l.002-.004c.148-.205.306-.386.48-.55l.002-.002c.177-.191.354-.377.543-.563.058-.064.121-.122.188-.174l.003-.003a2.02 2.02 0 0 0 .482-.533l.005-.009c.111-.162.231-.303.364-.431l.001-.001c.181-.134.34-.275.487-.427l.001-.001c.102-.152.226-.28.369-.383l.004-.003a.261.261 0 0 0 .088-.142v-.002a.123.123 0 0 0-.018-.116c-.041-.042-.094-.018-.14.011zM7.475 4.287a.127.127 0 0 0 .053-.099c0-.027-.046-.076-.062-.073a.155.155 0 0 0-.097.065v.001a.318.318 0 0 0-.016.1v.018-.001a.324.324 0 0 0 .125-.011l-.002.001zm4.043 1.808c.012.028.053.044.081.065.03-.039.06-.083.086-.129l.003-.005c0-.009-.048-.041-.064-.055-.078.011-.124.074-.106.124zm.749-1.886c.074-.138.234-.219.274-.379 0-.028.055-.046.081-.069a.813.813 0 0 0 .095-.09l.001-.001c.062-.078.076-.156.034-.168-.071-.021-.113.03-.152.067s-.085.142-.143.159c-.193.055-.26.225-.384.34-.172.19-.352.363-.544.524l-.008.007c-.093.08-.174.169-.245.266l-.003.005c-.018.019-.018.051-.032.094.037.011.076.034.096.023.078-.038.146-.08.208-.128l-.003.002a4.1 4.1 0 0 1 .478-.402l.012-.009a.67.67 0 0 0 .234-.239l.002-.003zm1.969 2.226a1.18 1.18 0 0 0-.28.202.371.371 0 0 0-.06.205v.012-.001c0 .019.06.065.092.064a.504.504 0 0 0 .391-.406v-.003a.094.094 0 0 0-.144-.072zm7.26-2.615-.069.069c.021.016.041.041.065.044s.039-.025.067-.046zm-1.363 2.962a.185.185 0 0 0 .145-.001h-.001c.199-.141.372-.279.537-.426l-.006.005c.191-.177.366-.366.545-.552.08-.083.145-.177.228-.258.228-.214.462-.421.694-.632a.557.557 0 0 0 .081-.071c.253-.314.513-.595.791-.858l.004-.004c.2-.219.354-.488.609-.662.027-.018.035-.06.057-.088s.016-.081-.018-.111c-.016-.016-.037-.025-.061-.025s-.045.01-.061.025c-.067.057-.133.113-.196.177l-.609.591a.57.57 0 0 0-.095.088l-.001.001a4.356 4.356 0 0 1-.527.563l-.004.004c-.152.154-.29.32-.437.478-.085.09-.177.165-.264.258a2.324 2.324 0 0 1-.388.398l-.004.003a2.236 2.236 0 0 0-.353.297l-.001.001a1.329 1.329 0 0 1-.376.317l-.007.003a.504.504 0 0 0-.147.098c-.08.09-.147.189-.225.29.037.034.057.081.09.092zm-1.421.007a.766.766 0 0 0 .417-.255l.001-.001c.068-.101.136-.189.209-.272l-.003.003c.09-.121.189-.227.3-.32l.003-.002c.195-.161.363-.343.506-.545l.006-.009a2.67 2.67 0 0 1 .446-.503l.003-.003c.092-.071.166-.161.264-.225a.238.238 0 0 0 .086-.339l.001.001a2.632 2.632 0 0 0-.791.713l-.005.007a.473.473 0 0 1-.07.083c-.214.205-.426.414-.646.616a3.87 3.87 0 0 1-.521.472l-.01.007a.7.7 0 0 0-.29.476v.004c-.007.055.048.11.096.092zm3.051-3.02c.117-.122.23-.248.354-.363a.176.176 0 0 0 .04-.199v.001c0-.016-.027-.028-.039-.039s-.041 0-.05.012c-.157.159-.313.318-.465.483-.012.014 0 .073.023.088s.088.069.136.016zm-16.51 1.38c.11-.108.218-.218.331-.32s.258-.196.366-.311c.205-.242.415-.461.637-.666l.005-.005a.19.19 0 0 0 .031-.215v.001c-.053-.051-.126-.041-.216.034l-.067.057-.554.547c-.177.177-.363.354-.541.531zm19.845 1.458.027-.028c.08-.151.17-.282.274-.4l-.002.002v-.327l-.018.019c-.117.119-.246.228-.354.354a3.368 3.368 0 0 0-.227.274l-.006.009c-.048.062-.014.122.032.177a.135.135 0 0 0 .165.022h-.001a.424.424 0 0 0 .109-.102l.001-.001zM5.239 3.464a.134.134 0 0 0-.018-.116v.156a.16.16 0 0 0 .018-.041zm8.618.54a.115.115 0 0 0 .107-.115l-.001-.015v.001c0-.014-.025-.027-.034-.035-.076.009-.133.073-.119.131a.059.059 0 0 0 .046.034zm-6.891.561a.883.883 0 0 0-.133.09l.002-.001c-.18.187-.369.36-.569.522l-.012.009a1.57 1.57 0 0 0-.177.155c-.177.191-.354.386-.522.579l-.161.177a2 2 0 0 1 .146.199l.005.008c.304-.292.566-.619.885-.897.053-.046.087-.113.138-.163.114-.143.236-.27.368-.384l.004-.003a.24.24 0 0 0 .098-.193v-.011c-.002-.025-.041-.051-.071-.087zm7.861.035a.91.91 0 0 0 .114-.185l.002-.006-.044-.106a.373.373 0 0 0-.093.049l.001-.001c-.05.042-.094.088-.135.136l-.001.002a.078.078 0 0 0 .017.128.153.153 0 0 0 .139-.016h-.001zm6.405-.345c.014-.044.041-.087.058-.131a.035.035 0 0 0 0-.036c0-.009-.032-.019-.037-.014-.101.073-.251.097-.283.241l.074.032c.108.042.143.025.188-.092zm-6.693 2.146a.205.205 0 0 0 .088-.062.59.59 0 0 1 .264-.243l.004-.002c.042-.021.069-.073.101-.11s.048-.076.083-.097c.169-.128.319-.26.457-.403l.001-.001c.149-.165.316-.311.498-.434l.01-.006a.152.152 0 0 0 .047-.044c.08-.101.156-.203.239-.303a.183.183 0 0 1 .08-.06h.001c.145-.044.156-.161.177-.271.009-.057-.037-.074-.085-.071a.235.235 0 0 0-.084.031l.001-.001a1.07 1.07 0 0 0-.398.35l-.002.004a1.721 1.721 0 0 1-.327.333l-.004.003c-.068.061-.13.127-.185.198l-.003.003a1.964 1.964 0 0 1-.362.361l-.005.003a3.005 3.005 0 0 0-.66.637l-.005.007a.695.695 0 0 0-.046.061l-.001.002c-.009.099.053.14.115.111zm-.02-2.999c.005-.011.008-.023.008-.036s-.003-.026-.009-.037v.001c-.012-.006-.025-.009-.04-.009s-.028.003-.04.009h.001a.762.762 0 0 0-.311.275l-.002.003c-.009.009 0 .027 0 .057s.06.037.085.03a.429.429 0 0 0 .307-.289l.001-.003zm.612.751a.129.129 0 0 0 .057-.029c.237-.195.474-.389.708-.586a.512.512 0 0 0 .112-.149l.001-.003c.011-.018-.021-.055-.035-.083a.342.342 0 0 0-.08.027l.002-.001c-.244.195-.49.391-.731.589a.607.607 0 0 0-.124.148l-.002.003c0 .016 0 .053.025.073s.046.014.067.011zm.635 2.593a.131.131 0 0 0 .082.028c.037 0 .07-.015.095-.039.081-.071.155-.146.224-.225l.002-.003c.153-.228.309-.427.478-.613l-.004.004c.063-.058.12-.12.174-.184l.003-.003a.961.961 0 0 1 .218-.2l.003-.002c.12-.087.224-.184.314-.293l.002-.003c.2-.259.427-.483.679-.675l.009-.006a.293.293 0 0 0 .105-.105l.001-.001c.107-.158.241-.289.396-.389l.005-.003c.222-.178.418-.373.592-.586l.006-.007a.525.525 0 0 0 .058-.127l.001-.003c-.021-.037-.03-.081-.055-.09l-.018-.001a.115.115 0 0 0-.078.03 3.504 3.504 0 0 0-.35.35l-.004.004a2.18 2.18 0 0 1-.732.653l-.011.006a.27.27 0 0 0-.1.082v.001a2.168 2.168 0 0 1-.408.43l-.004.003c-.17.13-.319.273-.451.431l-.004.004a7.025 7.025 0 0 0-.474.53l-.01.013a.458.458 0 0 1-.07.081c-.166.159-.34.315-.502.479a1.67 1.67 0 0 0-.187.251l-.004.007a.116.116 0 0 0 .019.171zm1.616-3.207c0-.027-.025-.058-.046-.083a.137.137 0 0 0-.067.03c-.071.071-.142.142-.207.218a1.09 1.09 0 0 0-.085.147l-.003.007c.041.019.065.044.085.041a.369.369 0 0 0 .122-.05l-.002.001a.394.394 0 0 0 .203-.308V3.54zm-.078 3.25a.735.735 0 0 1 .191-.198l.002-.002a.972.972 0 0 0 .273-.24l.002-.002a2.93 2.93 0 0 1 .348-.321l.006-.005a.833.833 0 0 0 .087-.092l.001-.002c.055-.065.101-.14.161-.2.223-.23.433-.469.678-.676.165-.134.312-.276.446-.431l.004-.004c.078-.094.177-.177.255-.267s.143-.159.218-.239c.103-.111.203-.223.311-.329s.246-.218.354-.333a.508.508 0 0 0 .094-.163l.001-.004c.025-.057-.028-.11-.134-.103-.028.019-.083.053-.133.092-.308.248-.531.582-.856.807-.053.049-.1.102-.141.16l-.002.003c-.094.101-.177.202-.285.297a1.814 1.814 0 0 0-.351.349l-.003.004a1.105 1.105 0 0 1-.311.327l-.004.002c-.048.036-.09.075-.129.116l-.001.001c-.145.152-.285.308-.432.457-.113.113-.242.212-.354.331-.156.177-.246.395-.421.559a.048.048 0 0 0-.016.036v.003c0 .032.011.076.034.09a.104.104 0 0 0 .108-.025zm-.533-2.569a.762.762 0 0 0 .046-.08l.002-.005c-.034-.016-.06-.041-.087-.041s-.051.027-.069.046-.06.088-.011.127.09-.009.119-.048z"/><path d="M14.627 8.818c-.531 0-.901-.092-1.161-.281-.752-.545-.947-1.916-.455-3.185.547-1.415 1.707-2.224 3.185-2.224h.011c.156 0 .31.009.462.027l-.018-.002c3.59.386 4.05 3.519 4.059 3.551a.58.58 0 0 1-.35.617l-.004.001c-.893.352-3.901 1.495-5.729 1.495zm1.561-4.527c-1.318 0-1.874.927-2.088 1.479-.329.851-.189 1.649.053 1.824a.783.783 0 0 0 .444.075h-.004c.92 0 2.893-.508 4.844-1.239-.244-.676-.95-1.9-2.916-2.123a3.055 3.055 0 0 0-.33-.018h-.004z"/><path d="M14.627 8.618c-.441 0-.807-.071-1.042-.242-.681-.495-.848-1.769-.386-2.955.57-1.472 1.851-2.247 3.432-2.072 3.445.38 3.88 3.362 3.892 3.381a.382.382 0 0 1-.237.406l-.003.001c-.74.294-3.843 1.481-5.658 1.481zm1.561-4.529c-1.483 0-2.081 1.106-2.275 1.608-.354.906-.218 1.812.122 2.059.547.398 3.294-.304 5.662-1.212-.189-.651-.872-2.183-3.142-2.435a3.183 3.183 0 0 0-.366-.021z"/><path d="M25.832 9.439c-1.822 0-4.839-1.145-5.72-1.495a.584.584 0 0 1-.354-.623v.003c0-.032.469-3.158 4.069-3.556a4.5 4.5 0 0 1 .454-.025h.001c1.476 0 2.636.81 3.185 2.224.492 1.272.295 2.643-.455 3.185-.285.195-.665.287-1.18.287zM21.02 7.047c1.946.734 3.921 1.239 4.841 1.239a.8.8 0 0 0 .446-.078l-.005.002c.241-.177.382-.973.053-1.824-.177-.444-.722-1.479-2.09-1.479a3.337 3.337 0 0 0-.349.021l.015-.001c-1.948.219-2.663 1.444-2.911 2.121z"/><path d="M25.832 9.238c-1.814 0-4.917-1.191-5.646-1.479a.387.387 0 0 1-.239-.409v.002c0-.03.441-3.008 3.892-3.383 1.578-.177 2.861.6 3.431 2.072.46 1.191.295 2.461-.386 2.955-.253.172-.617.242-1.053.242zm-5.064-2.072c2.358.906 5.105 1.608 5.649 1.21.34-.237.476-1.154.122-2.059-.209-.541-.885-1.78-2.631-1.592-2.256.255-2.948 1.794-3.141 2.442z"/><path d="M21.363 17.231h-.05a.584.584 0 0 1-.531-.632v.002c.249-2.918.483-5.676-.718-8.387-.218.207-.487.492-.734.778-.87 1.005-1.051 2.314-1.239 3.701-.177 1.219-.341 2.477-.991 3.638a.585.585 0 0 1-.51.299h-.007a.579.579 0 0 1-.286-.076l.003.001a.585.585 0 0 1-.222-.797l-.002.003c.531-.964.699-2.123.853-3.225.205-1.495.419-3.04 1.515-4.305s1.513-1.447 1.794-1.447l.048-.002.05.002h-.002a.647.647 0 0 1 .501.34l.002.003c1.649 3.185 1.385 6.286 1.106 9.567a.587.587 0 0 1-.58.536z"/><path d="M21.363 17.03h-.034a.382.382 0 0 1-.355-.381c0-.012 0-.023.002-.034v.001c.258-3.029.503-5.897-.851-8.735-.341.307-.652.627-.942.966l-.012.014c-.909 1.049-1.093 2.389-1.288 3.806-.166 1.2-.338 2.442-.968 3.565a.383.383 0 1 1-.666-.375l-.001.002c.561-.996.725-2.169.881-3.296.202-1.465.41-2.98 1.469-4.2 1.239-1.428 1.546-1.392 1.714-1.373a.45.45 0 0 1 .353.236l.001.002c1.621 3.135 1.361 6.205 1.083 9.455a.383.383 0 0 1-.381.347h-.005z"/></svg>