<svg xmlns="http://www.w3.org/2000/svg" width="31" height="32"><path d="M8.341 26.715a.223.223 0 0 1 .184-.25h.001c.027.034.069.064.076.098a3.105 3.105 0 0 1-.002 1.046l.003-.018c0 .032-.081.061-.168.121a1.301 1.301 0 0 1-.085-.283l-.001-.008a9.178 9.178 0 0 1-.007-.704zm.125 1.196a.312.312 0 0 1 .147.265v.017-.001l.012.673c0 .281-.015.562 0 .841a.555.555 0 0 1-.042.136l.001-.003c-.168-.044-.168-.121-.178-.192-.032-.219-.045-.437-.066-.656s-.037-.437-.037-.657a.45.45 0 0 1 .163-.422l.001-.001zm1.853.126c0 .034-.042.069-.072.114-.18-.074-.192-.168-.168-.267a1.867 1.867 0 0 0 .026-.655l.001.01c-.008-.128-.013-.256-.015-.385s.008-.257.013-.385v-.018c0-.109.052-.206.132-.267l.001-.001c.037.018.067.027.069.035a5.795 5.795 0 0 1 .028.926l.001-.013c-.008.301-.034.612-.015.906zm-.145-2.379c.037-.37.092-.738.124-1.11s.087-.726.134-1.088c.022-.177.027-.356.052-.533.019-.1.041-.184.068-.266l-.004.015c.022-.06.043-.133.059-.209l.002-.011c.027-.192.045-.385.077-.577.067-.395.229-.77.24-1.177v-.005c0-.067.045-.124.107-.141h.001c.113.025.121.064.123.103a2.794 2.794 0 0 1-.13.991l.005-.02a.623.623 0 0 0-.035.085l-.002.006a3.58 3.58 0 0 1-.091.645l.005-.024c-.082.266 0 .557-.158.81-.008.013.013.034.012.049a5.76 5.76 0 0 1-.039.35c-.042.328-.077.656-.126.98l-.214 1.269v.013a.206.206 0 0 1-.117.186l-.001.001c-.04-.049-.074-.076-.077-.099a.946.946 0 0 1-.018-.191l.002-.056v.003zm-.018 2.651c.049.029.111.049.116.072.013.081.072.168-.081.242-.131-.14-.126-.141-.035-.314zm.05.996a.215.215 0 0 1 .159.208l-.001.025v-.001c0 .052 0 .106-.114.129-.18-.143-.187-.173-.044-.361zm.05 1.609c.094.029.19.054.284.081a.109.109 0 0 0 0-.071v.001c-.081-.207.072-.451-.168-.649a.246.246 0 0 0-.167.311v-.002c.004.119.023.232.055.339l-.002-.009zm.132-.804c0 .013-.044.04-.064.04h-.012a.191.191 0 0 1-.092-.024h.001c-.109-.103-.103-.215.032-.353.195.101.15.22.134.336zm-.169-.891c-.222-.168-.158-.319-.03-.484.124.076.133.076.134.148.002.106.077.215-.104.336zm1.014-9.612a.212.212 0 0 1 .086.269l.001-.001c-.01.05-.037.099-.145.092-.133-.187-.129-.215.059-.36zm-.048.828a.103.103 0 0 1-.062.021l-.012-.001h.001a.184.184 0 0 1-.091-.054c-.074-.131-.039-.235.128-.336.16.158.086.262.037.37zm.08-.909c-.168-.214-.074-.348.091-.477.103.104.111.106.094.168-.017.119.022.239-.185.309zm.54-2.406-.136.017c-.079.336-.15.673-.22.995a.13.13 0 0 0 0 .058v-.001l.001.038a.508.508 0 0 1-.083.278l.001-.002a1.088 1.088 0 0 0-.079.308v.005c0 .03.047.071.084.121a.29.29 0 0 0 .154-.18l.001-.002c.03-.163.078-.308.144-.444l-.004.01c.224-.372.225-.79.314-1.19v-.017l.001-.018v.001z"/><path d="M8.711 30.352a5.74 5.74 0 0 1 .532-.338l.03-.015c.108-.061.185-.134.281-.2.217-.148.441-.289.654-.429.104-.071.116-.141.039-.168a.426.426 0 0 0-.328.054l.002-.001c-.158.168-.536.235-.656.419-.2.084-.372.192-.524.323l.002-.002a3.866 3.866 0 0 0-.316.23l.007-.005c.091.044.183.089.277.131zm3.227-.8a.35.35 0 0 1 .139-.108l.002-.001a.748.748 0 0 1 .224 0h-.004c.015 0 .022.018.032.029-.012.061-.195.129-.326.119-.024-.008-.067-.032-.067-.039zm-.299 1.722c.2-.112.372-.244.522-.398.034-.037.15-.066.205-.103.192-.129.38-.257.57-.38s.387-.245.58-.363a.196.196 0 0 0 .06-.05c.047-.05-.039-.089-.168-.071a.624.624 0 0 0-.153.039l.005-.002a3.256 3.256 0 0 0-.405.197l.016-.009a6.217 6.217 0 0 0-.757.535l.011-.009a1.558 1.558 0 0 1-.384.273l-.009.004a4.284 4.284 0 0 0-.422.274l.012-.008c.111.025.21.049.316.071zm-1.473-.385.02-.013c.22-.141.454-.279.673-.417.091-.051.169-.11.239-.178.079-.091-.027-.138-.219-.106a.602.602 0 0 0-.182.055l.003-.002c-.279.183-.631.336-.898.545zm.975-.912c.116-.067.257-.124.41-.195.052.035.116.057.109.077a.46.46 0 0 1-.305.211h-.003a.364.364 0 0 1-.182-.001l.003.001c-.039-.017-.064-.074-.032-.094zm-2.758-2.66c.042-.042.168-.054.245-.089s.106-.074.094-.104-.118-.044-.143-.052c-.183 0-.286.02-.313.099-.013.044-.057.071-.114.091l-.045.264c.104-.063.194-.132.277-.209l-.001.001zm.115 1.339a.984.984 0 0 1 .164-.122l.005-.003c.062-.039.134-.072.195-.111.215-.14.414-.286.647-.407a6.16 6.16 0 0 0 .738-.411l-.024.015a.543.543 0 0 1 .136-.069l.004-.001a.433.433 0 0 1 .339.012l-.003-.001a.081.081 0 0 1 .027.125c-.091.09-.196.166-.311.227l-.007.003c-.412.207-.841.419-1.264.649-.094.052-.168.113-.267.168a1.503 1.503 0 0 1-.185.069l-.012.003c-.175-.008-.249-.077-.182-.145zm3.929.555c.156-.039.215-.086.252-.158a.505.505 0 0 1 .334-.168h.002c.124-.027.269 0 .262.064a.093.093 0 0 1-.033.04l-.595.336a.296.296 0 0 1-.25 0l.002.001c-.082-.025-.079-.089.027-.114zm-1.774-3a.501.501 0 0 1 .139.042l-.003-.001c-.049.052-.067.101-.128.128-.203.091-.414.183-.636.269-.291.113-.647.183-.864.35a.11.11 0 0 1-.055.027h-.001a.514.514 0 0 1-.185 0h.003c-.044-.017-.089-.072-.071-.092a.34.34 0 0 1 .184-.119h.002a.352.352 0 0 0 .232-.119.785.785 0 0 1 .248-.116l.006-.001c.322-.098.592-.203.853-.327l-.037.016a.96.96 0 0 1 .311-.054zm.801.837c.109-.036.248-.074.391-.103l.026-.004a.625.625 0 0 1 .172.05l-.004-.002a.05.05 0 0 1 .009.03.053.053 0 0 1-.032.049c-.316.134-.637.276-.963.42-.061.027-.134.086-.227.04a.11.11 0 0 1-.047-.128v.001c0-.037.061-.074.113-.099.182-.091.365-.178.563-.254zm-1.06-8.447.906-.224c.158-.037.336-.059.484-.099l.747-.212c.168-.042.336-.076.504-.114l.706-.168c.085-.026.19-.049.297-.066l.014-.002c.451-.05.807-.168 1.204-.251l.056-.017c.066-.018.121-.057.044-.098a.739.739 0 0 0-.206-.062h-.004a.61.61 0 0 0-.282.001l.004-.001a3.345 3.345 0 0 1-.764.141l-.011.001a5.844 5.844 0 0 0-.916.253l.04-.013a5.562 5.562 0 0 1-.847.148l-.024.002a4.023 4.023 0 0 0-1.109.224l.028-.009a2.376 2.376 0 0 1-.34.1l-.016.003-.474.118c-.01.114-.027.239-.04.345zM8.276 28.999a.385.385 0 0 1-.13-.073h.001c.068-.034.15-.069.235-.098l.014-.004c.015 0 .079.044.108.059a.204.204 0 0 1-.229.116h.001zm3.537-.816c.261-.067.409-.198.71-.232.052 0 .084-.044.128-.066a1.38 1.38 0 0 1 .158-.071l.01-.003c.145-.049.291-.057.316-.025s-.05.086-.123.118-.264.066-.294.113c-.096.151-.417.214-.631.319a6.517 6.517 0 0 0-.983.52l.026-.016a3.422 3.422 0 0 1-.481.239l-.024.008a1.19 1.19 0 0 1-.161.039l-.008.001c-.022-.032-.069-.064-.05-.082a1.34 1.34 0 0 1 .219-.194l.004-.003c.23-.16.533-.281.728-.449.127-.101.28-.176.446-.215l.008-.002zm1.431-7.89-.14.037c-.027-.025-.071-.05-.076-.074s.054-.024.099-.042zm-3.067-.453c.118-.03.239-.055.363-.081.187-.037.336-.103.521-.146.316-.077.646-.14.955-.219a7.34 7.34 0 0 1 1.091-.263l.046-.006a1 1 0 0 0 .187-.053l-.007.002 1.19-.301c.123-.03.237-.066.353-.101.069-.02.064-.062.01-.106a.257.257 0 0 0-.169-.063l-.036.002h.001c-.06.001-.118.006-.174.016l.006-.001c-.361.155-.884.178-1.325.271-.578.118-1.09.301-1.725.38a.723.723 0 0 0-.149.049l.005-.002-1.073.336c-.029.086-.049.182-.071.284zm-.326 1.177c-.039.124-.077.249-.118.373a65.5 65.5 0 0 1 .888-.282.996.996 0 0 1 .162-.036l.006-.001a4.598 4.598 0 0 0 1.479-.486l-.025.012a.766.766 0 0 0-.65-.035l.005-.002c-.129.064-.309.103-.454.168a5.177 5.177 0 0 1-.979.239l-.029.004z"/><path d="m12.245 20.595.003.005-.01-.003.002-.002h.005zm1.129-.519c.247-.057.496-.111.73-.178a.627.627 0 0 1 .377.039l-.004-.002c.026.013.049.03.069.049-.012.017-.013.034-.03.039-.319.077-.639.156-.967.23a.322.322 0 0 1-.169-.053l.001.001c-.042-.04-.111-.099-.007-.124zm-1.192 6.808c0-.049.118-.084.249-.071a.192.192 0 0 1 .068.031h-.001c-.022.059-.141.098-.254.081-.027-.003-.061-.022-.062-.04zm-1.085-.903a2.33 2.33 0 0 1 .36-.068l.011-.001.195.059a.38.38 0 0 1-.092.073l-.002.001c-.069.029-.157.06-.247.086l-.018.005a.28.28 0 0 1-.245-.039l.001.001a.077.077 0 0 1 .037-.116h.001z"/><path d="M12.392 20.378h.252a.168.168 0 0 1 .068.019h-.001c.015.01.03.035.022.039-.15.064-.215.188-.488.168a.678.678 0 0 1-.049-.074l-.002-.003c-.064-.128-.025-.153.197-.148zm-.737 4.084c-.21-.012-.432-.03-.526.089a.242.242 0 0 1-.118.06h-.002l-.594.146a.255.255 0 0 0-.087.034l.001-.001c-.22.168-.585.24-.873.368-.3.108-.547.217-.785.34l.037-.017-.054.138a1.772 1.772 0 0 1-.115.214l.004-.007c.268-.086.501-.194.717-.326l-.014.008c.205-.105.443-.195.692-.256l.023-.005c.159-.042.29-.086.418-.138l-.023.008c.19-.092.411-.169.642-.22l.02-.004a1.79 1.79 0 0 0 .711-.28l-.006.004c.025-.02.059-.042.066-.066s-.02-.087-.134-.092zm1.69 1.983h.013c.044 0 .086.007.126.021l-.003-.001c.01.007.016.018.016.03s-.006.023-.016.03a1.364 1.364 0 0 1-.53.197l-.008.001c-.016.002-.034.002-.053.002s-.037-.001-.055-.003h.002c-.018-.022-.067-.054-.054-.072.096-.119.267-.197.562-.207zm-1.389-.648a.117.117 0 0 1 .06-.045h.001c.383-.168.763-.336 1.153-.493a1.17 1.17 0 0 1 .291-.065h.005c.058.01.11.027.158.05l-.004-.002c-.027.029-.032.05-.057.062l-1.164.504a1.312 1.312 0 0 1-.286.083l-.008.001a.306.306 0 0 1-.138-.038l.002.001a.04.04 0 0 1-.021-.035.04.04 0 0 1 .008-.024zm1.957-3.351-.059-.001c-.068 0-.135.004-.201.012l.008-.001a6.736 6.736 0 0 0-1.222.368l.045-.016c-.227.115-.49.2-.767.242l-.015.002a.63.63 0 0 0-.215.067l.003-.002c-.368.202-.881.298-1.345.434a2.788 2.788 0 0 0-.603.221l.016-.007a1.496 1.496 0 0 1-.325.127l-.011.002c-.024.092-.047.185-.072.277.336-.081.631-.195.953-.282.336-.087.623-.19.899-.315l-.034.014c.245-.108.53-.198.828-.253l.025-.004a.44.44 0 0 0 .17-.068l-.001.001c.316-.24.804-.361 1.315-.467.252-.052.477-.131.706-.202.042-.012.077-.05.064-.074s-.092-.045-.16-.074zm-.622 1.522a.447.447 0 0 1 .155.065l-.002-.001c.008 0-.03.039-.064.049-.14.044-.279.087-.429.124-.081.02-.18.025-.296.04-.035-.04-.077-.069-.069-.084a.263.263 0 0 1 .103-.093l.002-.001a.994.994 0 0 1 .606-.098l-.005-.001zm.858-2.833-.041-.001c-.1 0-.197.011-.291.031l.009-.002c-.232.062-.441.141-.673.207s-.434.113-.654.168l-.477.118c-.178.047-.336.103-.53.145-.339.078-.63.172-.91.286l.039-.014c-.336.131-.721.239-1.096.35-.018.108-.035.215-.056.321l.543-.168c.092-.025.171-.053.246-.087l-.011.004c.189-.095.409-.163.641-.191l.01-.001a3.31 3.31 0 0 0 .725-.21l-.022.008c.192-.059.392-.111.59-.168.123-.02.231-.047.336-.082l-.015.004c.464-.222 1.118-.304 1.617-.491.081-.03.15-.066.19-.084.03-.082-.061-.146-.171-.145zm-2.194 3.198c.042-.008.092-.012.168-.02.029.034.074.062.071.086s-.052.039-.092.049a.268.268 0 0 1-.241-.02l.001.001c-.091-.064.022-.077.094-.094zM20.353 3.83a.346.346 0 0 1 .01.18v-.002a.834.834 0 0 1-.119.186l.001-.001c0 .012-.029 0-.042.012-.042-.044 0-.235.084-.336.018-.025.057-.049.066-.039zm-1.126 1.016a.68.68 0 0 0 .051-.138l.001-.005c.029-.122.051-.267.062-.416l.001-.01a6.38 6.38 0 0 0-.017-.939l.002.025a1.46 1.46 0 0 1 .001-.464l-.001.009a1.75 1.75 0 0 1-.241-.112l.009.005-.001.062c0 .143.016.283.045.417l-.002-.013a1.917 1.917 0 0 1-.032.239l.002-.012v.686c0 .227-.015.457-.027.684l-.002.039.002.04v-.002c.015.067.089.019.148-.094zm1.136-.424a.322.322 0 0 0-.011.299l-.001-.002a.506.506 0 0 1-.052.364l.001-.003c-.047.118-.156.22-.2.182a.095.095 0 0 1-.015-.05l.057-.683a.292.292 0 0 1 .135-.206l.001-.001c.066-.04.123-.003.084.099zm2.191.815c.044-.121.101-.254.134-.375l-.205-.19q-.057.309-.116.61l-.001.01c0 .03.023.054.053.055.018 0 .071-.057.134-.111zM18.033 2.69a.397.397 0 0 1-.027.193l.001-.003c-.017.047-.084.124-.094.114a.2.2 0 0 1-.032-.142v.001c.017-.083.038-.155.065-.224l-.003.009c.032.017.076.015.089.052z"/><path d="m17.944 2.641-.005-.002.003-.007h.005l-.003.008zM21.3 5.532c.014-.051.025-.112.032-.175v-.005c0-.05.008-.098.023-.143l-.001.003c.141-.267.116-.464.207-.718.049-.125.078-.27.078-.421l-.002-.077v.003-.035c-.054-.042-.106-.086-.168-.126l-.077-.055c-.018.276-.077.572-.116.852-.03.237-.168.536-.089.701.022.05-.054.208-.072.308s-.042.168.029.168c.044-.007.118-.135.158-.281zm-4.441-1.957c0-.039-.013-.074-.017-.114-.022-.247-.05-.504-.082-.748a2.45 2.45 0 0 0 .232-.366l.007-.014c.029.336.05.656.094.952v.004a.822.822 0 0 1-.101.395l.002-.004c-.067.082-.109.049-.134-.104zm-.788.223a.741.741 0 0 0-.032.216v.001l.054-.291zm6.355 1.729c.042.024 0 .145-.081.245a.207.207 0 0 1-.062.038l-.002.001c-.037-.052 0-.168.076-.256.018-.02.057-.035.069-.029zm-.292 1.209a.391.391 0 0 1-.092.102l-.001.001a.033.033 0 0 1-.017.004.037.037 0 0 1-.037-.033c.007-.204.056-.394.14-.565l-.004.008c.022-.033.043-.062.065-.089l-.001.002c.027 0 .081-.025.087 0 .049.136.017.321-.141.57zm1.318-.786a.146.146 0 0 1 0 .077v-.001c-.076.412-.151.819-.24 1.232a1.212 1.212 0 0 1-.114.285l.003-.006c-.017.032-.084.067-.128.101-.01-.037-.025-.054-.018-.081.076-.415.153-.831.232-1.249.026-.109.061-.204.106-.293l-.003.008a.339.339 0 0 1 .104-.092l.002-.001a.053.053 0 0 1 .018-.004c.017 0 .032.01.039.024zm2.012 2.094-.022-.03c-.09.301-.181.546-.285.785l.017-.045c-.099.239-.16.469-.23.698-.013.042 0 .092.025.094s.091-.054.153-.092a1.42 1.42 0 0 0 .129-.207l.004-.008c.119-.28.234-.622.325-.974l.012-.054q-.064-.077-.128-.166zm-1.252.038a.437.437 0 0 1-.133.091l-.003.001c-.008 0-.015-.049 0-.081.042-.14.084-.281.138-.425.029-.077.081-.168.133-.267.054 0 .101-.025.108-.01a.257.257 0 0 1 .02.141v-.001a.99.99 0 0 1-.263.552zm2.154.683c-.103.474-.36 1.009-.476 1.475-.02.084-.029.168-.037.203.059.074.168.034.222-.059.059-.082.113-.175.156-.273l.004-.01c.077-.227.129-.444.203-.673.062-.192.136-.387.209-.582a1.744 1.744 0 0 1-.293-.087l.013.004zM13.739 31.997a.575.575 0 0 1-.366-.134l.001.001c-2.963-.244-4.767-.926-5.517-2.103-.504-.782-.516-1.732-.044-2.818 1.602-3.684 2.228-10.115 2.233-10.179a.568.568 0 0 1 .566-.516h.056a.572.572 0 0 1 .504.624v-.002c-.025.271-.649 6.677-2.322 10.525-.316.728-.336 1.3-.042 1.75.965 1.513 5.073 1.633 6.423 1.681 1.409-.039 5.728-.153 6.726-1.703.286-.444.274-1.009-.037-1.722-1.681-3.85-2.297-10.905-2.322-11.203a.57.57 0 0 1 .516-.617H20.166a.572.572 0 0 1 .566.517v.002c0 .072.632 7.166 2.233 10.848.466 1.074.451 2.018-.049 2.791-.775 1.207-2.68 1.907-5.823 2.14a.567.567 0 0 1-.356.126z"/><path d="M16.743 31.808h-3.005a.384.384 0 0 1-.282-.126c-2.161-.168-4.553-.637-5.438-2.018-.466-.726-.476-1.614-.03-2.64 1.614-3.712 2.241-10.172 2.248-10.238a.38.38 0 0 1 .755.061v.012-.001c-.025.269-.646 6.645-2.307 10.468-.336.79-.353 1.421-.029 1.929.928 1.449 4.382 1.681 6.578 1.755 2.265-.061 5.924-.282 6.894-1.789.321-.504.314-1.125-.024-1.902-1.661-3.825-2.282-10.847-2.307-11.144l-.001-.033a.38.38 0 0 1 .756-.034v.001c0 .072.636 7.196 2.248 10.907.439 1.009.427 1.892-.035 2.613-.921 1.438-3.475 1.895-5.74 2.058a.375.375 0 0 1-.276.119h-.005z"/><path d="M17.67 30.875h.03l.047-.015a.878.878 0 0 0 .105-.043l-.006.002a1.21 1.21 0 0 0 .199-.11l-.004.003c.133-.09.248-.192.348-.307l.002-.002c.206-.246.362-.542.447-.867l.003-.016c.043-.143.082-.317.107-.495l.002-.02c.02-.168.03-.355.039-.533s0-.361-.015-.543l-.057-.545.146.531c.044.178.072.361.108.543s.042.372.052.56a4.209 4.209 0 0 1-.025.59l.002-.019c-.04.421-.17.804-.37 1.141l.007-.013a2.302 2.302 0 0 1-.394.486l-.001.001c-.076.073-.159.14-.247.199l-.006.004c-.04.029-.087.058-.135.085l-.008.004c-.025.013-.047.027-.077.04a.795.795 0 0 1-.092.039l-.005.002a.364.364 0 0 1-.203-.699l.003-.001zm-3.439.735a4.157 4.157 0 0 1-.18-.5l-.008-.033a5.467 5.467 0 0 1-.128-.53 5.375 5.375 0 0 1-.099-1.042v-.036.002c.013-.379.056-.74.128-1.091l-.007.041.168-1.022v1.036a6.17 6.17 0 0 0 .064 1.042l-.004-.033c.062.361.152.681.272.987l-.012-.034c.061.153.124.304.198.449.078.161.155.296.239.424l-.009-.014a.364.364 0 1 1-.603.411l-.001-.001a.593.593 0 0 1-.019-.052l-.001-.005zm4.949-.925c.236-.089.435-.184.625-.293l-.02.011c.205-.114.382-.244.541-.393l-.001.001c.042-.037.071-.079.109-.119s.061-.086.091-.129a.821.821 0 0 0 .097-.3v-.004l.101-.72.081.723a1 1 0 0 1 0 .201v-.004a1.401 1.401 0 0 1-.034.215l.002-.01c-.022.062-.044.129-.071.192s-.059.123-.094.177a3.16 3.16 0 0 1-.503.604l-.002.002c-.182.177-.381.34-.591.486l-.015.01a.367.367 0 0 1-.415-.605l.001-.001a.354.354 0 0 1 .095-.041l.003-.001zm-.621-13.989a16.133 16.133 0 0 0 .01 1.725l-.002-.044c.029.567.082 1.133.153 1.698s.168 1.128.264 1.697l.281 1.7-.457-1.661c-.151-.553-.313-1.105-.444-1.67s-.249-1.132-.336-1.707a15.258 15.258 0 0 1-.19-1.709l-.002-.043a.365.365 0 1 1 .728-.035v.05zm-1.843.582a.313.313 0 0 0 .18-.087.33.33 0 0 0 .038-.052l.001-.001.01-.022.001-.011-.001-.011a.241.241 0 0 0-.028.078v.001a1.603 1.603 0 0 0-.036.231l-.001.007a6.89 6.89 0 0 0-.029.528c0 .358 0 .721.008 1.084a16.861 16.861 0 0 1-.37-1.032 7.512 7.512 0 0 1-.155-.538c-.02-.079-.04-.18-.054-.283l-.002-.015a.905.905 0 0 1 0-.192v.004a.31.31 0 0 1 .011-.07l-.001.003v-.035c0-.017.013-.035.02-.052a.474.474 0 0 1 .025-.055l-.001.003a.418.418 0 0 1 .295-.2h.002c.013-.002.027-.002.042-.002a.364.364 0 0 1 .044.725h-.002z"/><path d="M13.999 17.555h-.145c-2.123 0-4.173-.307-6.11-.88l.152.039a175.385 175.385 0 0 1-6.907-2.218.565.565 0 0 1-.383-.503v-.001a1.324 1.324 0 0 1 .452-1.07l.002-.001c1.138-1.079 4.54-1.306 7.195-1.306 2.657.017 5.254.187 7.808.5l-.324-.032c.821.098 1.772.155 2.736.155h.019-.001c4.07-.031 7.93-.894 11.43-2.427l-.187.073a.57.57 0 0 1 .665.9l-.025.027a.55.55 0 0 1-.13.093l-.003.001h-.015c-.291.148-.72.767-1.034 1.219a7.523 7.523 0 0 1-.772 1.001l.005-.006a9.378 9.378 0 0 1-2.233 1.691l-.049.024c-1.885.989-4.101 1.569-5.819 1.962-1.895.467-4.075.744-6.316.76h-.011zm-12.01-3.919c2.287.773 4.328 1.426 6.229 1.989 1.687.503 3.626.792 5.633.792l.156-.001h-.008a27.4 27.4 0 0 0 6.259-.754l-.186.038c1.651-.38 3.775-.933 5.549-1.861a8.335 8.335 0 0 0 2.002-1.511l.002-.002c.153-.167.297-.348.427-.54l.011-.017c-2.84.994-6.114 1.582-9.522 1.611h-.014a26.089 26.089 0 0 1-3.042-.18l.121.012c-2.195-.276-4.753-.442-7.346-.459h-.022c-3.137 0-5.431.328-6.25.883z"/><path d="m13.999 17.365-.153.001a21.39 21.39 0 0 1-6.051-.869l.151.038a178.012 178.012 0 0 1-6.894-2.216.381.381 0 0 1-.256-.335v-.001l-.001-.056c0-.345.153-.654.395-.864l.001-.001c1.602-1.513 8.449-1.491 14.525-.792 7.566.873 14.036-2.176 14.102-2.206a.378.378 0 0 1 .426.611.363.363 0 0 1-.09.065l-.002.001c-.336.168-.762.782-1.108 1.281a7.41 7.41 0 0 1-.75.974l.005-.006a9.244 9.244 0 0 1-2.186 1.657l-.048.024c-1.866.979-4.067 1.554-5.774 1.945-1.886.463-4.055.735-6.284.748h-.009zM1.623 13.713a168.41 168.41 0 0 0 6.542 2.092c3.511 1.039 7.644 1.068 11.95.079 1.663-.382 3.802-.94 5.592-1.876a8.518 8.518 0 0 0 2.048-1.547l.002-.002a6.97 6.97 0 0 0 .643-.832l.016-.026.141-.203c-2.426.876-7.354 2.27-12.92 1.626-6.877-.792-12.73-.545-13.925.595a.858.858 0 0 0-.088.093l-.001.002z"/><path d="M1.177 14.53h-.001a.566.566 0 0 1-.446-.216l-.001-.001c-2.468-3.127 2.008-7.385 3.699-8.989C8.132 1.791 11.816-.001 15.367-.001h.393c5.392.203 14.292 8.679 14.764 10.065a.67.67 0 0 1-.176.769l-.001.001a.567.567 0 0 1-.801-.066l-.001-.001a.553.553 0 0 1-.135-.363l.002-.052v.002c-.699-1.345-8.9-9.034-13.697-9.214h-.348c-3.25 0-6.67 1.681-10.166 5.011-2.322 2.209-5.212 5.38-3.583 7.457a.568.568 0 0 1-.443.923z"/><path d="M1.177 14.339a.383.383 0 0 1-.297-.142l-.001-.001c-2.354-2.991 2.018-7.163 3.674-8.731C8.365 1.835 12.133.063 15.754.199c5.33.198 14.124 8.575 14.591 9.935a.484.484 0 0 1-.119.561.378.378 0 0 1-.614-.369v.002C29.06 9.067 20.638 1.139 15.727.954 12.321.828 8.744 2.521 5.074 6.012c-2.382 2.26-5.333 5.518-3.602 7.712a.377.377 0 0 1-.061.532l-.001.001a.388.388 0 0 1-.232.081zm13.162.945a.726.726 0 0 0-.245.056l.005-.002a.623.623 0 0 0 .779.036l-.002.001c-.131-.143-.353-.074-.536-.091zm-.923.185a.503.503 0 0 0 .44-.107l-.001.001a.692.692 0 0 0-.145-.068l-.005-.001a6.514 6.514 0 0 0-.826-.089l-.014-.001c-.282-.027-.565-.042-.841-.061-.054 0-.108.049-.217.101.121.039.278.079.438.111l.03.005.575.072c.18.007.373.017.567.035zm-1.93-.286a.91.91 0 0 0-.445-.168h-.004c-.367-.054-.733-.109-1.1-.156-.456-.076-.915-.141-1.372-.212a1.457 1.457 0 0 0-.168-.009l-.049.001h.002a.376.376 0 0 0 .305.188h.001l1.054.217c.351.074.71.118 1.066.168a1.245 1.245 0 0 0 .719-.031l-.009.003zm4.055.308c.387-.018.765-.109 1.164-.074a.52.52 0 0 0 .466-.168v-.001a1.055 1.055 0 0 0-.472-.029l.006-.001c-.293.02-.585.039-.878.04h-.481a1.346 1.346 0 0 0-.256.075l.008-.003a.505.505 0 0 0 .445.16h-.003zm6.44-.935c.358-.096.721-.185 1.076-.293.723-.237 1.464-.414 2.167-.713.52-.209 1.056-.405 1.48-.567.254-.091.398-.146.541-.205.471-.19.935-.402 1.397-.614.136-.062.262-.158.214-.212s-.177-.013-.284 0c-.08.026-.148.057-.212.094l.006-.003-.661.291-.673.267-1.811.691c-.38.143-.767.277-1.158.392l-.831.254-.841.229a6.012 6.012 0 0 0-.639.216l.041-.015c-.077.029-.168.114-.153.15s.143.044.23.059a.325.325 0 0 0 .113-.023l-.002.001zm-.505-.005a.3.3 0 0 0-.354.032.08.08 0 0 0 .026.105.288.288 0 0 0 .325-.136l.001-.001zm-.684.245a1.28 1.28 0 0 0 .184-.142l-.001.001c-.156.018-.247.024-.336.039-.415.074-.841.116-1.254.19-.153.024-.304.056-.457.076l-.461.061-.921.128c-.045 0-.084.057-.185.124.096.015.207.023.32.023l.084-.002h-.004c.291-.025.583-.054.874-.092.336-.037.659-.099.987-.168s.654-.119.979-.19a.91.91 0 0 0 .198-.049l-.007.002z"/><path d="M2.742 13.137c.255.041.483.138.677.277l-.005-.003a.549.549 0 0 0 .142.061l.004.001c.24.099.541.2.849.282l.054.012c.377.091.733.225 1.103.336.14.04.281.084.422.116.205.041.383.094.554.161l-.022-.008c.154.054.335.096.521.118l.012.001c.092.013.168-.02.119-.129-.119-.042-.251-.096-.388-.134-.404-.114-.809-.22-1.207-.348-.257-.081-.516-.151-.77-.237s-.504-.168-.758-.267c-.435-.168-.905-.245-1.322-.476a1.32 1.32 0 0 0-.394-.079H2.33a.507.507 0 0 0 .41.316h.002zm4.664 1.293c.208.262.368.298.654.168a.77.77 0 0 0-.659-.167l.005-.001zm21.969-2.859a2.578 2.578 0 0 0-.312.237l.002-.002a1.091 1.091 0 0 0 .367-.038l-.008.002.256-.373zm-20.09 4.738c.044.015.087.034.133.047.319.096.661.064.982.155l.018.001.018-.001h-.001a2.262 2.262 0 0 1 .761.09l-.016-.004a1.273 1.273 0 0 0 .702-.042l-.009.003a.77.77 0 0 0-.185-.102l-.005-.002c-.234-.045-.469-.081-.701-.128l-1.229-.219a4.58 4.58 0 0 0-.383-.067c-.099-.015-.198-.008-.222.084s.035.146.138.185zm3.287.389c.219 0 .43.032.646.045.548.02 1.091.066 1.643.045a.79.79 0 0 0 .466-.099l-.004.002a.594.594 0 0 0-.47-.114l.004-.001h-.573l-.572-.027c-.378-.022-.762-.025-1.138-.062a.454.454 0 0 0-.381.062l.002-.001c.091.093.219.15.359.15h.02-.001zm-4.103-.711c.136.208.168.22.434.153-.16-.227-.193-.237-.434-.153zm8.345.733c.336-.022.659-.017.982-.055a39.83 39.83 0 0 0 1.293-.187h.02a.478.478 0 0 0 .394-.207l.001-.002c-.188 0-.353 0-.515.01-.504.061-1.009.138-1.528.185s-1.029.082-1.543.111c-.128.016-.242.04-.352.071l.016-.004c.267.136.269.14.464.133.264-.018.514-.042.768-.055zm6.428-1.142c.124-.03.249-.062.372-.096s.244-.079.363-.123c.082-.029.187-.058.293-.081l.018-.003c.328-.216.713-.436 1.112-.633l.065-.029-.55.183a19.27 19.27 0 0 1-.918.276c-.237.066-.476.133-.711.207a7.122 7.122 0 0 1-1.185.329l-.047.007a2.1 2.1 0 0 0-.5.065l.015-.003c-.229.084-.461.168-.694.225s-.477.108-.718.153a.359.359 0 0 0-.282.183l-.001.002a1.416 1.416 0 0 0 .736-.025l-.01.003a2.8 2.8 0 0 1 .364-.091l.02-.003c.31-.027.596-.087.868-.176l-.027.008c.225-.077.451-.168.673-.222zm-17.981-.227c.062.005.119.02.171.043l-.003-.001c.227.141.495.238.782.275l.01.001c.195.042.39.089.585.134.103.027.205.054.308.077.296.066.592.133.889.19a.17.17 0 0 0 .203-.106v-.001c-.249-.244-.592-.289-.911-.336a6.054 6.054 0 0 1-1.011-.225l.043.012-.947-.271c-.323-.094-.642-.22-.965-.326-.459-.15-.925-.281-1.377-.449-.321-.114-.632-.256-.95-.382a20.39 20.39 0 0 0-.8-.281 1.153 1.153 0 0 0-.329 0l.006-.001c.077.094.096.138.131.156.168.089.336.168.504.252s.309.119.462.18c.296.123.59.247.893.346l.452.146.454.136c.303.092.599.202.894.319.143.046.314.084.489.108l.015.002zm6.172-1.574h-.005a.732.732 0 0 0-.2.028l.005-.001a.484.484 0 0 0 .443.18h-.002c.393.003.776.039 1.148.107l-.04-.006c.435.056.878.069 1.317.101a.923.923 0 0 0 .51-.073l-.006.002c-.025-.027-.035-.052-.049-.052a21.636 21.636 0 0 0-1.564-.129c-.523-.052-1.053-.087-1.557-.156zm4.047.412c.168 0 .321 0 .479-.01l.479-.035q.479-.035.958-.064c.311-.034.624-.072.935-.113l.467-.061.464-.079.906-.146a4.19 4.19 0 0 0 .461-.121l-.03.008c.126-.035.249-.079.375-.108.325-.074.654-.131.975-.227s.657-.197.982-.303.649-.224.984-.306a.391.391 0 0 0 .247-.142l.001-.001c-.034-.081-.094-.069-.168-.056q-.41.089-.815.203c-.134.037-.267.081-.4.123s-.267.082-.4.128c-.05.018-.101.045-.153.059-.346.089-.699.168-1.041.257-.18.052-.414.104-.652.144l-.041.006c-.114.022-.23.049-.345.076a2.515 2.515 0 0 0-.353.101l.017-.005h-.081l-.594.099c-.277.054-.558.087-.841.119l-.841.111c-.363.042-.73.067-1.095.104-.182.017-.365.04-.548.049l-.55.02a.604.604 0 0 0-.366.08l.003-.002a.793.793 0 0 0 .151.061l.006.001c.146.013.286.027.424.027zm-4.531-.355c-.045-.044-.074-.096-.116-.104-.136-.03-.286-.096-.419 0 .23.131.232.131.535.104zm-1.69-.291a.55.55 0 0 0-.393-.168c-.086-.018-.178-.029-.219.045.237.177.289.18.612.123zm-3.226-.803a1.116 1.116 0 0 0-.477-.207l-.007-.001c-.168-.034-.336-.156-.535-.056a1.514 1.514 0 0 0 1.026.263l-.006.001zm1.587.392c-.336-.247-.747-.22-1.1-.336-.04-.018-.086-.028-.135-.028s-.096.01-.137.029l.002-.001c.146.187.215.212.856.363.17.039.351.103.514-.027zm.282.037c-.024 0-.067.022-.067.037a.115.115 0 0 0 .042.086.686.686 0 0 0 .599.082l-.005.001a.798.798 0 0 0-.539-.207l-.031.001h.001zm1.504.39a.92.92 0 0 0 .827.153l-.007.002c-.124-.109-.123-.119-.245-.14-.18-.032-.365-.123-.575-.015zm16.319-1.662a.574.574 0 0 0-.432.059l.003-.001c-.082.035-.168.076-.16.168.301.017.348-.005.588-.225zm-1.345.412c-.022.01-.045.054-.037.067a.115.115 0 0 0 .082.05h.015a.695.695 0 0 0 .531-.245l.001-.001a.798.798 0 0 0-.595.13l.003-.002zm1.48-.475a.894.894 0 0 0 .774-.308l.001-.001c-.168-.03-.168-.035-.279.015-.166.074-.373.092-.496.294zm-21.646.272-.279.054.136.066c.149.069.328.135.513.187l.026.006.038.001c.056 0 .11-.008.161-.022l-.004.001a.873.873 0 0 0-.32-.197l-.006-.002zm23.796-1.115a.482.482 0 0 0 .095-.037l-.003.001.8-.383c.262-.136.528-.267.789-.409a.717.717 0 0 0 .273-.215l.001-.002-.064-.012a8.372 8.372 0 0 1-1.681.722l-.061.016a5.223 5.223 0 0 0-.355.214c-.192.116-.42.233-.657.335l-.038.015a.83.83 0 0 0-.297.219l-.001.001a.573.573 0 0 0 .195 0l-.003.001a3.21 3.21 0 0 0 .52-.239l-.016.008c.144-.097.31-.177.488-.232l.014-.004z"/><path d="M6.087 15.385c.525-.094.977-.262 1.313-.612.042-.044.098-.103.156-.106.201-.033.381-.106.538-.21l-.005.003c.207-.069.385-.172.538-.304l-.002.002c.304-.04.429-.316.713-.388a.17.17 0 0 0 .092-.231v.001c-.04-.066-.168-.079-.281-.017l-.367.198-.365.183a2.822 2.822 0 0 0-.351.16l.015-.007a6.576 6.576 0 0 1-.771.427l-.041.017a6.457 6.457 0 0 1-.832.307l-.05.013a.865.865 0 0 0-.503.348l-.002.003c-.042.15.049.239.202.214zm2.769-3.229a.42.42 0 0 0 .196-.073l-.001.001c.032-.032.013-.109.012-.168 0-.012-.032-.024-.05-.034h-.01a.205.205 0 0 0-.205.205v.004c.005.025.045.067.059.066zm-3.193-.248-.024.017a.15.15 0 0 1-.087.027h-.001c-.298 0-.513.148-.757.254a28.83 28.83 0 0 1-1.547.622c-.345.128-.711.202-1.046.336-.25.125-.556.251-.871.356l-.053.015c-.128.05-.239.112-.34.186l.004-.003c0 .027 0 .05.012.066a.094.094 0 0 0 .058.032c.079-.01.168-.056.23-.034a.578.578 0 0 0 .412-.035l-.003.002c.16-.072.349-.135.545-.181l.021-.004c.336-.042.604-.207.925-.284.316-.084.593-.198.85-.342l-.018.009c.257-.133.562-.193.795-.372.131-.101.345-.126.472-.256a.117.117 0 0 1 .095-.022h-.001a.27.27 0 0 0 .297-.144l.001-.002a.114.114 0 0 1 .107-.074c.019 0 .036.004.052.012H5.79a.208.208 0 0 0 .161-.001l-.001.001c.138-.098.319-.141.446-.234-.245.012-.491.03-.735.052zm-2.186 2.816a.218.218 0 0 0 .17.015h-.002c.187-.123.504-.069.615-.293 0-.012.04-.013.064-.013a2.17 2.17 0 0 0 .963-.315l-.01.005c.491-.244.982-.488 1.498-.696.348-.138.6-.367.915-.528a.212.212 0 0 0 .087-.12v-.002c.054-.138-.032-.23-.185-.203a1.032 1.032 0 0 0-.302.124l.005-.003-.673.385c-.483.276-1.051.399-1.513.699a.471.471 0 0 1-.187.072h-.003c-.257.05-.479.173-.651.346a.569.569 0 0 1-.215.113l-.004.001a5.036 5.036 0 0 0-.61.267l.028-.013c-.017 0-.022.032-.04.064.007.022.017.079.049.092zm4.637-2.093c.127-.082.236-.165.34-.255l-.004.003c-.062-.052-.101-.108-.138-.109h-.019a.438.438 0 0 0-.345.168l-.001.001c-.025.032-.032.114 0 .136s.133.076.166.057zm3.121 3.815a.347.347 0 0 0 .168-.11v-.001c.153-.234.435-.35.689-.474a.72.72 0 0 0 .348-.263l.002-.002a.228.228 0 0 1 .208-.136h.004c.131 0 .185-.077.2-.214-.012-.022-.027-.103-.069-.116l-.026-.001a.255.255 0 0 0-.156.052h.001c-.067.047-.101.141-.168.168a3.044 3.044 0 0 0-.714.378l.009-.006a2.25 2.25 0 0 1-.712.348l-.016.004c-.168.037-.214.168-.168.261a.373.373 0 0 0 .403.113l-.003.001zm18.841-5.926a.315.315 0 0 0 .252-.211l.001-.002c.032-.086.062-.168.092-.254l-.057-.018a6.285 6.285 0 0 0-.279-.064c-.032.101-.061.2-.094.299s-.044.168.027.232a.348.348 0 0 0-.227.281v.016a.5.5 0 0 1-.147.355.124.124 0 0 0 .018.194.238.238 0 0 0 .04.016h.002q.22-.321.43-.644a.463.463 0 0 0-.06-.204l.001.002zm-19.82 4.475c.083-.029.154-.062.221-.102l-.005.003c.067-.035.128-.082.197-.119.245-.128.504-.242.726-.388a5.26 5.26 0 0 1 .713-.448l.03-.014a.53.53 0 0 0 .138-.09l-.001.001a.169.169 0 0 0 .017-.249.253.253 0 0 0-.214-.041h.002c-.16.049-.299.114-.427.196l.007-.004c-.395.267-.785.531-1.195.795-.092.059-.198.106-.289.168a.732.732 0 0 0-.13.131l-.001.002-.001.021a.153.153 0 0 0 .214.14h-.001zm-1.942 1.146a.41.41 0 0 0 .38-.117c.242-.21.477-.422.704-.639.024-.024.013-.072.02-.109a.4.4 0 0 0-.095-.011l-.031.001h.001a4.43 4.43 0 0 0-.382.148l-.713.326a.17.17 0 0 0-.109.157c0 .028.007.054.019.077v-.001a.746.746 0 0 0 .201.166l.004.002zm6.304-2.339c.01-.024-.027-.061-.047-.104a1.277 1.277 0 0 0-.251.089l.007-.003c-.19.138-.38.281-.56.434-.235.198-.402.457-.71.602-.02 0-.049.024-.052.039-.013.045-.039.103-.017.134a.187.187 0 0 0 .141.064h.004a.422.422 0 0 0 .223-.127.34.34 0 0 1 .228-.158h.002a.705.705 0 0 0 .235-.168c.197-.207.411-.393.642-.557l.014-.009c.074-.049.104-.153.14-.234zm-1.335-.687c.09-.09.172-.187.246-.291l.005-.007c-.029-.062-.035-.121-.062-.129a.18.18 0 0 0-.062-.011.196.196 0 0 0-.087.021l.001-.001c-.293.22-.582.417-.881.637-.054.039-.168.082-.094.168a.336.336 0 0 0 .194.061l.024-.001h-.001a.369.369 0 0 0 .188-.065l-.001.001c.201-.125.374-.252.538-.39l-.006.005zm13.202 1.049.466-.234.084-.072c.052-.099.096-.214.127-.335l.003-.012a6.22 6.22 0 0 1 .449-1.057l-.016.033c.168-.361.321-.721.483-1.079a2.19 2.19 0 0 1 .174-.36l-.006.01a1.98 1.98 0 0 0 .225-.475l.004-.014c-.197.067-.397.129-.599.185v.008c-.066.146-.104.301-.168.449-.074.18-.155.36-.235.54l-.247.531c-.203.446-.409.896-.627 1.345a6.685 6.685 0 0 0-.197.451.363.363 0 0 0-.018.117v.004c.004.01.008.019.014.027v-.001a.537.537 0 0 1 .087-.062zm-16.799.92c.013.042.072.077.111.116.066-.051.125-.106.177-.167l.001-.002c.008-.01-.066-.069-.089-.094-.124-.003-.222.069-.2.146zm1.736-2.998c-.138.086-.244.212-.38.298-.311.195-.59.451-.948.595-.17.09-.317.191-.45.307l.003-.002c-.032.022-.042.066-.076.121.054.025.106.069.138.062.134-.031.25-.07.361-.119l-.012.005c.284-.124.516-.336.824-.441a.9.9 0 0 0 .414-.281l.001-.001c.138-.187.39-.254.474-.474a.087.087 0 0 1 .027-.027zm2.654 3.995a2.202 2.202 0 0 0-.493.264l.007-.005a.504.504 0 0 0-.119.305v.001c0 .029.096.101.15.101.294 0 .703-.325.693-.543a.169.169 0 0 0-.239-.123h.001zm12.069-4.984-.029.061c-.14.288-.256.583-.395.874-.079.168-.193.323-.262.491a3.352 3.352 0 0 1-.413.758l.007-.009a3.6 3.6 0 0 0-.391.564l-.009.018a1.96 1.96 0 0 1-.461.615l-.002.002a.913.913 0 0 0-.188.2l-.002.003a7.743 7.743 0 0 0-.244.504c.076.045.124.104.183.103h.003a.37.37 0 0 0 .228-.078l-.001.001a8.76 8.76 0 0 0 .655-.814l.018-.027c.222-.336.405-.686.592-1.029.084-.155.138-.314.225-.469.237-.415.481-.819.71-1.229a.738.738 0 0 0 .081-.137l.002-.005c.056-.191.113-.348.179-.5l-.011.027q-.237.047-.474.076zm-2.165.673a3.67 3.67 0 0 0-.664 1.082l-.009.025a.653.653 0 0 1-.074.147l.002-.002c-.24.385-.493.747-.763 1.115-.22.291-.388.624-.688.874a.997.997 0 0 0-.325.737l.001.034v-.002a.122.122 0 0 0 .169.096h-.001c.247-.136.518-.281.605-.504.081-.182.162-.333.252-.478l-.01.017c.112-.217.236-.405.379-.577l-.004.005c.124-.139.235-.293.329-.459l.007-.013c.094-.168.168-.336.247-.504.13-.342.288-.637.478-.908l-.009.013c.106-.136.178-.296.291-.43a.308.308 0 0 0 .074-.365l.001.002c-.094.032-.192.067-.288.096zm-10.305.817a.168.168 0 0 0 .168-.168c0-.02-.032-.04-.045-.054-.113 0-.198.091-.185.168a.09.09 0 0 0 .062.054h.001zm1.419.898c.067-.079.126-.169.175-.265l.004-.008-.066-.15a.546.546 0 0 0-.142.067l.002-.001c-.076.06-.144.124-.205.193l-.001.002c-.056.064-.054.151.022.183a.245.245 0 0 0 .213-.023l-.001.001zm-.506 2.565a.346.346 0 0 0 .15-.089c.113-.155.265-.274.442-.344l.007-.002c.071-.029.114-.103.168-.156s.077-.108.134-.138c.275-.173.514-.366.728-.583v-.001c.266-.222.454-.504.768-.673a.246.246 0 0 0 .07-.066l.001-.001.336-.456a.276.276 0 0 1 .116-.098l.002-.001c.214-.087.212-.254.222-.415 0-.081-.064-.099-.136-.086a.456.456 0 0 0-.121.06l.001-.001a1.825 1.825 0 0 0-.561.545l-.004.007a2.321 2.321 0 0 1-.477.501l-.005.004a2.793 2.793 0 0 0-.283.304l-.004.006a2.29 2.29 0 0 1-.56.526l-.008.005c-.456.234-.742.595-1.101.916a.74.74 0 0 0-.079.089l-.001.002a.133.133 0 0 0 .197.146h-.001zm.992-3.522a.884.884 0 0 0-.166.2l-.002.004c-.013.022.013.076.037.103a.13.13 0 0 0 .093.015h-.001a.202.202 0 0 0 .084-.042c.101-.079.202-.168.301-.251zm4.181.06a.444.444 0 0 0-.12.132l-.001.002a2.943 2.943 0 0 1-.528.711c-.113.11-.219.225-.319.346l-.006.007a5.803 5.803 0 0 0-.293.363c-.217.288-.486.55-.684.859a.956.956 0 0 1-.105.128l-.19.192-.198.178a22.6 22.6 0 0 0-.39.368 2.547 2.547 0 0 0-.3.377l-.006.01a.15.15 0 0 0 .048.243h.001a.269.269 0 0 0 .311-.029 3.27 3.27 0 0 0 .359-.345l.003-.003c.252-.296.42-.652.708-.94.091-.091.176-.189.254-.292l.005-.007c.091-.126.196-.233.316-.323l.004-.003a2.17 2.17 0 0 0 .436-.478l.005-.008c.288-.39.504-.809.886-1.13a.463.463 0 0 0 .13-.165l.001-.003c.033-.082.068-.152.109-.218l-.003.006c-.14-.002-.286.01-.432.02zm2.058-.255c-.05.084-.103.168-.158.249-.136.209-.336.383-.41.612-.09.22-.22.407-.383.559l-.001.001c-.059.062-.114.13-.164.201l-.004.006-.272.392a8.015 8.015 0 0 1-.288.378c-.151.19-.336.363-.483.558-.215.288-.318.631-.582.9a.063.063 0 0 0-.018.044c0 .005 0 .009.002.014.017.044.03.108.072.123l.018.001a.195.195 0 0 0 .136-.056c.073-.132.167-.243.277-.335l.002-.002c.159-.112.291-.251.393-.409l.004-.006c.156-.203.315-.384.487-.553l.001-.001c.043-.047.082-.099.117-.154l.003-.005c.071-.111.123-.23.2-.336.288-.395.543-.799.841-1.165.189-.228.364-.483.515-.753l.013-.026c.061-.118.134-.232.205-.346-.165.039-.343.076-.523.109zM4.861 8.388c-.04.261-.076.525-.101.807l.272-.013a4.003 4.003 0 0 0-.11-.844l.006.027zm-1.162.046-.074.103c0 .217.015.432.024.642v.094l.303-.025c-.012-.261-.012-.504-.015-.765a2.278 2.278 0 0 1-.252-.052l.015.003zm8.827.755c-.062.207-.123.441-.185.652-.02.072-.035.192-.066.351.02.042.035.134.052.099.065-.121.132-.268.19-.419l.009-.026c.082-.214.168-.462.244-.704zm-1.175.159a3.26 3.26 0 0 0-.056.183c-.067.232-.133.467-.198.706.069.039.138.079.205.121.052-.19.103-.377.156-.55a2.44 2.44 0 0 0 .064-.35l.001-.013c0-.04 0-.077.013-.114zm-1.046.012c-.042.145-.082.301-.123.454l.183.072a.02.02 0 0 1 .008-.012c.064-.047.113-.24.151-.504z"/></svg>