<svg xmlns="http://www.w3.org/2000/svg" width="19" height="32"><path fill="#677821" d="M3.987.55c-.302-.033-.58.104-.832.253a3.35 3.35 0 0 0-1.022.986c-.156.273-.296.558-.338.873-.023.169-.014.301-.011.472.097.633.354 1.225.611 1.807.055.28.287.596.202.897-.03.105-.259.413-.354.492-.063.052-.142.079-.214.119l-.098.131-.035-.026.094-.125c-.027-.102-.056-.255-.12-.345-.039-.055-.109-.084-.143-.143-.111-.195-.026-.546-.151-.738-.066-.329-.065-.342-.148-.672-.119-.471-.279-.932-.251-1.426.011-.106.012-.214.032-.32.086-.456.355-.866.645-1.216.347-.385.736-.732 1.209-.956.305-.119.604-.197.934-.152l-.01.09zM2.019 6.629c-.315.024-.608.131-.899.245a1.203 1.203 0 0 0-.547.422c-.17.389-.118.737-.014 1.137.157.327.329.645.564.923.279.329.618.605.945.885.098.101.205.192.293.302.308.383.131.311.479.628.083.075.183.129.272.197.084.064.164.133.247.2l-.027.034c-.102-.083-.404-.334-.516-.395-.377-.203-.832-.177-1.165-.475C1.065 10.238.454 9.659.169 8.926.12 8.8.098 8.665.063 8.534c-.019-.119-.048-.238-.057-.358-.024-.315.039-.701.209-.975.029-.047.072-.084.108-.127.228-.219.447-.277.749-.351.309-.08.628-.116.946-.138l.002.045z"/><path fill="#677821" d="M2.498 11.034c.073.366.351.63.587.9.325.293.694.543 1.071.765.24.135.484.346.567.622.02.066.019.136.028.204-.008.16-.007.316-.05.473-.024.088-.068.168-.1.254a9.054 9.054 0 0 1-.355.852c-.138.173-.247.366-.378.544-.167.227-.246.265-.351.527-.072.181-.089.381-.115.571l-.043-.006c.009-.062.075-.524.079-.585.036-.52-.024-.112-.015-.662.003-.163.054-.537.074-.697.035-.105.066-.212.106-.315.066-.168.163-.323.228-.492.024-.061.031-.127.051-.189.089-.272.025-.004.073-.223.045-.299-.028.142.038-.129.032-.132-.098-.261-.157-.36-.305-.34-.657-.637-.925-1.011-.236-.3-.464-.649-.505-1.037l.09-.005z"/><path fill="#677821" d="M4.032 15.292c-.091.45-.13.905-.139 1.364-.025.643.16 1.1.542 1.603.346.426.737.585 1.248.738.457.169.95.204 1.4.401.127.055.259.107.365.196.112.094.183.228.274.343.36.809.017-.028.259.761.032.105.081.203.122.305l-.04.016c-.04-.1-.056-.212-.119-.3-.134-.188-.345-.271-.538-.373-.532-.175-.06-.005-.585-.238-.446-.197-.919-.328-1.381-.481-.614-.288-1.023-.544-1.348-1.163-.066-.141-.198-.41-.243-.558-.126-.412-.111-.837-.081-1.261.073-.453.147-.906.223-1.359l.043.006z"/><path fill="#677821" d="M7.947 20.512c-.015.398-.049.795-.069 1.192-.075.16-.07.346-.138.507-.045.107-.134.212-.201.306-.031.033-.147.136-.069.183.024.015.055.018.08.032.219.292.566.453.844.679.082.066.156.141.235.211.17.15.337.268.44.48.026.053.167.604.179.67.02.112.014.227.036.339.02.105.059.205.089.308l.103.309-.041.014-.102-.308c-.04-.097-.063-.203-.12-.291a3.57 3.57 0 0 0-.426-.426c-.076-.055-.168-.083-.245-.137-.095-.066-.318-.286-.398-.362-.465-.34-.934-.705-1.253-1.192-.026-.082-.065-.16-.077-.245-.024-.176.053-.37.154-.512.036-.051.1-.078.129-.135.027-.023.081-.065.101-.093.018-.025.026-.057.045-.082.091-.123.181-.195.215-.362.03-.059.065-.116.091-.177.126-.299.153-.629.26-.934l.137.026z"/><path fill="#677821" d="M9.531 25.148c.107.242.338.407.526.585.336.317.176.176.556.479.454.344.891.713 1.381 1.006.242.145.494.272.74.411.321.2.68.323 1.03.46.105.041.42.169.55.177.069.005.137-.024.205-.036.368-.109.67-.362.926-.641.123-.134.258-.262.351-.418.095-.16.139-.346.208-.519l.167-.5.041.014-.168.503c-.069.174-.152.344-.206.523-.055.185-.068.38-.12.565-.075.267-.257.759-.447.977-.276.317-.445.304-.819.402-.295-.062-.434-.078-.712-.189-.481-.193-.894-.513-1.347-.758a14.034 14.034 0 0 1-2.065-1.66c-.396-.404-.893-.78-1.034-1.356l.236-.022zM2.777.956c.356-.187.711-.373 1.078-.537.088-.04.174-.088.265-.122.101-.037.207-.056.309-.087.344-.104.663-.211 1.028-.21.129 0 .257.02.386.031.595.107 1.092.408 1.528.818.112.105.227.208.32.329s.157.261.235.391c.184.229.2.541.349.786.067.11.17.193.254.289l-.032.028c-.085-.097-.16-.204-.256-.291-.209-.19-.48-.304-.666-.524-.105-.092-.215-.179-.314-.277-.096-.095-.176-.206-.271-.302-.345-.35-.745-.656-1.211-.822-.107-.025-.212-.059-.32-.076a3.006 3.006 0 0 0-.979.017c-.196.036-.381.12-.581.139-.379.123-.755.259-1.102.458L2.776.956zM7.748.87c.394.059.791.098 1.189.099.225-.011.45-.015.674-.04.077-.009.153-.026.23-.031.104-.007.408.003.507.005.563.059 1.015.379 1.347.828.075.101.134.212.202.319.223.426.445.891.444 1.384-.001.311-.049.37-.15.659-.099.29-.122.591-.14.893l-.043-.003c.018-.302.029-.585-.106-.868-.143-.238-.183-.281-.282-.537-.145-.374-.194-.78-.368-1.144-.231-.421-.497-.84-.97-1.013-.448-.115-.914-.111-1.369-.185-.4-.072-.8-.143-1.186-.273l.021-.095z"/><path fill="#677821" d="M11.838 3.337c-.195.358-.185.656-.09 1.043.225.513.556.681 1.064.843.31.095.632.058.95.054.239-.003.256.005.496.027.092.031.193.044.277.093.325.186.518.559.542.927.021.311-.076.556-.159.849-.185.362-.217.758-.269 1.152l-.043-.005c.051-.39.124-.768-.008-1.153-.376-1.363.136.47-.202-.674-.03-.102-.067-.344-.149-.436-.026-.03-.065-.047-.097-.071-.239-.061-.423-.056-.666-.082a3.992 3.992 0 0 1-.573-.099c-.099-.025-.196-.057-.294-.085-.093-.042-.191-.076-.28-.127a1.67 1.67 0 0 1-.822-1.177c-.006-.087-.022-.174-.019-.261.011-.3.133-.601.292-.851l.05.034z"/><path fill="#677821" d="M14.55 7.399c.076.282.193.558.411.76.053.049.114.09.171.135.06.042.118.089.182.127.139.083.27.128.417.193.221.098.441.198.658.304.077.041.16.073.232.123.308.217.606.613.732.967.038.108.054.223.082.334.021.16.076.515.061.679-.031.33-.223.66-.447.898-.075.08-.167.142-.251.213-.169.318-.078.165-.27.461l-.036-.023c.189-.292.1-.141.267-.454-.023-.192-.036-.385-.066-.575-.041-.267-.072-.255-.073-.521 0-.084.018-.167.019-.25 0-.079-.011-.158-.016-.237-.058-.266-.116-.568-.28-.795-.081-.113-.21-.186-.28-.309-.374-.322-.826-.544-1.162-.915-.238-.331-.433-.689-.418-1.109l.069-.003z"/><path fill="#677821" d="M16.837 11.658c.36.152.73.287 1.106.395.29.105.666.19.901.403.099.09.287.378.36.484.064.214.147.453.168.678.012.125.002.251-.003.376-.015.455-.09.759-.213 1.194-.192.55-.405 1.112-.8 1.553-.277.31-.379.343-.725.567-.239.168-.513.28-.754.445-.22.151-.416.332-.625.498l-.027-.034c.021-.017.609-.482.623-.496.206-.211.317-.437.462-.688.122-.298.183-.459.321-.749.218-.456.479-.892.66-1.366.185-.533.395-1.099.258-1.668-.012-.063-.014-.129-.036-.189-.019-.052-.055-.096-.084-.142-.161-.255-.366-.38-.631-.516-.35-.193-.714-.355-1.046-.579l.084-.165z"/><path fill="#677821" d="M17.048 17.914a4.74 4.74 0 0 0-.871.827c-.244.312-.531.607-.709.965-.078.156-.136.322-.211.48-.11.377-.18.801-.044 1.183.029.082.075.156.113.234.178.512.62.927.676 1.483.014.137-.016.275-.024.413-.023.393-.207.737-.335 1.1-.424 1.202.233-.556-.208.61l-.04-.015c.057-.151.178-.44.193-.604.03-.337-.12-.645-.276-.93-.061-.084-.13-.163-.184-.252-.162-.267-.265-.574-.399-.855-.051-.108-.113-.21-.164-.318-.052-.111-.096-.227-.144-.34-.046-.21-.122-.522-.138-.737-.035-.457.106-.902.322-1.3.049-.092.089-.189.147-.276.059-.089.133-.167.202-.248.276-.328.563-.645.89-.923.341-.284.677-.632 1.122-.741l.08.245zm-.904 6.276c.053.46.055.926.051 1.389-.022.233-.021.412-.113.633-.02.049-.285.482-.319.54-.085.146-.165.294-.249.441l-.037-.021c.1-.176.156-.245.201-.449.065-.294.014-.267-.001-.567-.008-.169.008-.426.016-.594l.052-.859c.005-.078.003-.156.013-.233.007-.051.059-.26.074-.325l.31.046zM5.335 5.359a98.965 98.965 0 0 1 2.254 2.546 24.43 24.43 0 0 1 2.35 3.6c.49.917.692 1.41 1.122 2.366a35.78 35.78 0 0 1 1.479 3.748l.082.284c.154.47.311.939.439 1.416.259.968.407 1.89.586 2.874.463 4.224-.126-1.329.246 2.762.189 1.631.111.834.237 2.391l-.043.003c-.051-.634-.13-1.777-.237-2.388-.086-.49-.529-2.207-.647-2.673-.535-2.144-.144-.648-.75-2.791-.132-.469-.25-.941-.391-1.407-.412-1.366-.909-2.706-1.411-4.04-.89-2.103-1.8-4.215-3.171-6.058-.172-.236-.337-.476-.515-.707-.515-.666-1.106-1.266-1.662-1.896l.032-.029z"/><path fill="#677821" d="M5.114 9.824c.785.499 1.612.925 2.438 1.352.551.275.818.394 1.346.716.214.13.408.293.628.413.09.049 1.122.482 1.244.533l-.017.04c-.199-.084-.398-.167-.596-.252-.217-.093-.426-.204-.649-.282-.238-.084-.491-.12-.731-.201-.595-.202-.84-.353-1.395-.639a28.461 28.461 0 0 1-1.695-.935c-.125-.076-.255-.147-.375-.232-.162-.115-.24-.205-.369-.339l.171-.174zm1.219 5.784c.203.037.415.072.613.129.282.08.899.302 1.148.394.243.09.488.176.727.277.261.11.514.238.772.357.753.438 1.537.89 2.105 1.57.489.585.769 1.308 1.04 2.008l.223.557-.04.016-.221-.553c-.12-.187-.227-.383-.358-.562-.364-.494-.562-.652-1.013-1.074-.606-.566-1.224-1.12-1.961-1.516-.549-.305-.832-.481-1.402-.729-.55-.24-1.131-.4-1.691-.615l.06-.258z"/><path fill="#677821" d="M16.208 14.537c-.61.383-1.034 1.003-1.442 1.582-.576.833-.972 1.764-1.379 2.685-.617 1.393-.055.072-.635 1.455-.27.626-.347 1.295-.432 1.963l-.043-.005c.025-.2.044-.4.076-.599.075-.469.197-.93.249-1.404.114-.588.176-1.013.372-1.584.09-.262.205-.515.319-.767a11.66 11.66 0 0 1 1.143-1.987c.465-.594.971-1.292 1.735-1.507l.035.17zm-4.919-7.946c-.176 1.006-.228 2.027-.334 3.042-.079.709-.072.867-.247 1.561-.116.461-.307.972-.447 1.427-.473 1.546.101-.211-.386 1.255l-.041-.014c.11-.329.314-.916.385-1.251.101-.481.12-.98.166-1.467.024-.258.05-.516.08-.774.03-.259.065-.518.097-.777.061-.628.079-.839.147-1.456.003-.024.117-1.018.135-1.108.049-.255.098-.347.19-.564l.254.127zm1.667 3.351c-.173.658-.44 1.287-.618 1.943-.065.241-.116.485-.174.727-.168.835-.42 1.646-.474 2.501a9.608 9.608 0 0 0 .066 1.652c.031.252.083.501.124.752l-.042.007c-.042-.252-.093-.502-.125-.756-.104-.843-.074-1.688-.038-2.534.013-.291.015-.583.047-.873.031-.276.094-.547.141-.821.22-.919.397-1.882.891-2.702l.201.103zm.264 14.213c.013.042.032.082.04.125.029.152.034.308.058.46.132.821-.023-.195.143.74.028.156.047.313.071.47.242.718.257 1.495.507 2.209.093.266.308.654.442.907l-.038.02c-.561-1.066.126.259-.444-.912-.339-.698-.753-1.368-.831-2.161-.032-.162-.076-.322-.097-.486a6.08 6.08 0 0 1-.011-.777c.006-.155.007-.311.027-.465.006-.043.02-.084.031-.126l.103-.006z"/><path fill="#677821" d="M14.06 24.715c-.283-.018-.275.206-.297.421.027.317.139.602.252.896.056.145.102.294.164.436.11.254.362.724.488.963.39.855.833 1.693 1.087 2.603.047.167.077.338.115.506-.006.288-.036.737.039 1.025.039.148.126.279.189.418l-.039.018c-.063-.14-.111-.288-.19-.42-.105-.177-.523-.675-.647-.826-.069-.157-.145-.311-.208-.471-.063-.162-.113-.33-.169-.495-.242-.707-.458-1.424-.765-2.106-.118-.349-.232-.7-.352-1.049-.054-.157-.121-.309-.167-.468-.101-.352-.169-.73-.11-1.094.021-.079.028-.164.065-.237.11-.222.339-.278.557-.219l-.012.1z"/></svg>