<svg xmlns="http://www.w3.org/2000/svg" width="15" height="32"><path d="m7.604 5.038.344-.083-.006.124 2.112.294-.017 7.221.264.771c.169.342.427.686.762.99.212.193.444.361.691.503l-.023-.014c.703.403 1.195.88 1.482 1.436.211.459.311 1.02.3 1.686l.008 10.863c.066.207.036.459-.097.748-.231.557-.804 1.022-1.719 1.395-1.278.514-2.661.767-4.148.767-1.527.139-2.91.015-4.146-.374-.919-.281-1.499-.688-1.738-1.229l-.072-.73.018-10.883c-.005-.68.113-1.25.354-1.706.264-.584.761-1.118 1.489-1.601.119-.076.25-.17.376-.272a3.7 3.7 0 0 0 1.05-1.331l-.01.02c.165-.319.257-.589.272-.813l.017-7.22 2.094-.476.008-.126.336.042z"/><path fill="#c9200a" d="M10.051 13.707c.008.306-.755.529-2.293.672-1.519.099-2.289-.003-2.298-.31.009-.139.234-.264.676-.375a9.952 9.952 0 0 1 1.663-.278l-.027.003a8.678 8.678 0 0 1 1.606.013l.012.001c.466.058.684.147.661.273z"/><path fill="#940000" d="M4.857 13.606c.165-.325.256-.598.271-.823l.016-7.235.493-.139c.111 5.168.116 7.914.015 8.236-.139.407-.237.648-.29.718-.14.2-.596.609-1.359 1.229-.545.433-.947.903-1.204 1.41-.183.339-.276.641-.28.906l.004 12.115.199.621c.308.45.922.786 1.842 1.008l-1.17-.235c-.917-.254-1.496-.645-1.734-1.179l-.072-.73.016-10.906c-.004-.681.113-1.255.353-1.72.264-.593.76-1.142 1.487-1.648.64-.436 1.11-.98 1.412-1.627z"/><path d="M3.199 18.347c0-.501.217-1 .653-1.5.438-.554.951-.869 1.534-.94.374-.054.52.089.432.425-.225.742-.335 1.297-.326 1.655l-.023 12.846a4.111 4.111 0 0 1-1.299-.086 1.924 1.924 0 0 1-.729-.333l-.25-.221.008-11.846zM6.192 6.978c.471.154 1.019.181 1.637.079v5.484c-.683.103-1.231-.001-1.645-.306l.008-5.257zM9.791 15.425c-.011-.334.303-.441.938-.319l.258.095c.235.117.457.3.665.545.532.526.768 1.193.715 2.001l-.022 11.7-.299.175c-.118.073-.292.127-.52.162l-.291.05c.132-7.901.137-12.156.016-12.763-.105-.594-.59-1.143-1.461-1.646z"/><path fill="#fff" opacity=".851" d="M10.026 25.157c1.268-.177 1.931-2.14 1.085-2.988.548.993.21 2.444-.789 2.69-.026-.07-.094-.093-.173-.102.198-.267.6-.332.759-.638.575-1.164-.286-2.53-1.532-2.033.494.007 1.011-.008 1.337.349.446.487.328 1.558-.382 1.704.15-.27.459-.708.233-1.124-.225.391-.527.705-.954.897-.18.389-.384.755-.959.753.517-.42.207-1.545-.205-1.972.493.116 1.266.343 1.194 1.11.317-.622-.513-.81-.754-1.161.14-.081.33-.113.469-.196-.264-.139-.489.227-.674.167.107-.287.424-.367.661-.527-.336-.019-.603.329-.831.533-.105-.072-.152-.018-.275-.098.233-.57.96-.966 1.803-.891.478.043.814.342 1.071.502-.225-.519-1.451-.824-2.12-.394.067-.152.361-.303.532-.342 1.602-.372 2.96 1.171 2.066 2.735-.299.524-.887.923-1.561 1.026zm.36-2.315c-.19-.291-.677-.55-.998-.361.435.004.734.163.998.361zm-2.282 3.714c.029.079.16-.124.237-.008-.045.106-.194.109-.23.224.079.084.275.037.312.169-.465.03-.869-.108-1.259-.064.104-.106.299-.226.47-.16-.032-.176-.409.042-.413-.166.734.019.887-.535 1.085-1.045-.267-.445-.851-.725-1.025-1.152.465.309 1.602.331 1.465 1.1-.032.179-.282.311-.39.517-.112.215-.099.421-.251.584z"/><path fill="#fff" opacity=".851" d="M6.66 19.266c.182.248.546.596.616 1.094-.048.398-.432.588-.408.95.032.501.721.696 1.087.97.454.438.966 1.143.883 1.948a1.202 1.202 0 0 1-.324.443c-.187.025-.321-.009-.476-.019-.883-.537-1.684-.968-2.535-1.567-.16-.847.405-1.439 1.153-1.048-.141-.322-1.376-.246-1.169.581-.82-.55-.117-1.569.405-2.029.343-.303.917-.569.569-1.207.086.264.038.825-.274.909.048-.193.193-.404.015-.54-.141.243-.238.528-.522.63-.156-.151-.007-.411-.087-.537-.21-.077-.332.017-.542.055-.045-.159.155-.349.325-.407-.303-.624.636-.774 1.066-.613-.125.146-.248.428-.463.376.09.116-.096.326.113.32-.183-.13.143-.258.122-.4.212-.065.322.18.445.092zm-.973.322c-.007-.18.105-.139.234-.116-.032-.289-.466-.039-.234.116zM7.35 22.48c-.081-.232-.266-.544-.493-.487.227.091.329.323.493.487zm.582.124c-.029-.105-.168-.28-.245-.207.102.046.143.161.245.207zm-.858.713c.192.258.651.403.9.472-.181-.228-.72-.529-.9-.472zm.119.5c.272.109.641.482.863.402-.186-.312-.569-.4-.902-.544 0 .063.012.111.039.143z"/><path fill="#940000" d="m6.583 5.423 3.492-.184-.018 1.356c-.61.225-1.489.363-2.636.41-.726.035-1.301-.019-1.728-.16l-.397-.216-.022-.729 1.31-.478z"/><path d="M10.907 5.09c-.003.265-.31.524-.921.778-.629.238-1.39.395-2.278.463-.892.067-1.643.019-2.262-.144-.616-.135-.934-.341-.948-.618.016-.279.342-.539.969-.779.597-.242 1.338-.393 2.227-.461.892-.067 1.653-.028 2.29.121.632.149.941.362.925.641z"/><path fill="#940000" d="M5.272 5.901c.278.186.543.316.795.393-1.054-.107-1.581-.349-1.571-.725.015-.225.254-.453.72-.688-.361.358-.343.697.056 1.02z"/><path d="M5.66 5.493c.971-.056 1.512.037 1.623.287.114.247-.167.353-.839.316-.514-.04-.837-.149-.97-.326-.119-.161-.058-.255.186-.277z"/><path fill="#608d5e" d="M5.649 4.952 5.15 2.61l5.222-.424-.51 2.601c-.39.303-1.103.485-2.135.543-.856.037-1.458-.006-1.803-.135l-.274-.242z"/><path fill="#8ec18b" d="M9.618 1.874c.495.084.753.209.773.376-.009.166-.273.334-.781.502-.526.151-1.154.261-1.882.325-.744.05-1.363.033-1.856-.052-.526-.08-.784-.206-.773-.373-.022-.167.231-.326.756-.48.509-.168 1.136-.278 1.883-.326.728-.063 1.356-.053 1.881.027z"/><path fill="#608d5e" d="M6.862 2.414 6.583.748 9.105.53l-.206 1.833c-.184.208-.527.326-1.025.351-.414.013-.706-.027-.875-.124l-.136-.176z"/><path fill="#8ec18b" d="M8.736.296c.241.067.368.16.38.279-.002.117-.127.232-.37.343a3.382 3.382 0 0 1-.906.201c-.36.024-.66.002-.9-.066-.256-.065-.383-.158-.38-.276-.013-.118.107-.227.358-.328a2.57 2.57 0 0 1 .907-.201c.352-.033.656-.016.911.049z"/><path fill="#fff" opacity=".832" d="M3.772 25.943c.004.365.617.631.861.707-.145-.277-.652-.402-.738-.725l-.053.003-.071.015zm.299.231c.155.163.873.506.445.146-.129-.024-.354-.38-.445-.145zm-.161.232c.155.165.855.486.403.146-.111-.02-.326-.35-.403-.146zm-.076.105c.156.166.855.487.403.147-.111-.02-.326-.35-.403-.147zm-.141.174c-.007.28.873.566.541.116-.172-.047-.432-.434-.541-.116zm.194.026c.324.137.355.408 0 0zm-.379-.388c.326.202-.546.3-.108.428.162.072.635.7.814.397-.37-.167-.781-.443-.393-.789-.06-.115-.277-.235-.313-.035zm1.389 1.183c.143.25.591.119.184-.047-.299-.284.538.331.318-.051-.294-.082-.711-.621-.91-.426.401.237-.49.222-.107.434.169-.006.801.742.781.324-.067-.06-.364-.103-.266-.235zm-.262-.399c.424.008-.005.552.072.125.088-.043-.07-.083-.072-.125zm.635.187c.36.089.363-.49-.041-.506-.215-.342-.617-.082-.458.21.179.075.332.197.499.295zm-.282-.519c.197.088.587.417.166.146-.025-.048-.229-.07-.166-.145zm-.079.113c.186.079.591.422.179.155-.036-.049-.236-.075-.179-.155z"/><path fill="#fff" opacity=".832" d="M5.883 27.499c-.071.057-.509-.147-.262.127.391.225-.431-.161-.215.18.463.073-.453.114.045.282.421-.017.696-.5.676-.812-.114.147-.606-.19-.425.143.044.061.129.035.181.081zm.119.674c.228.305.532-.024.139-.101-.201-.25.553.132.242-.17-.49-.311.575.079.088-.25-.073-.244-.235-.377-.353-.022-.096.168-.602.852-.175.653l.026-.05.033-.06z"/><path fill="#fff" opacity=".832" d="M7.034 27.897c-.098-.394-.763-.017-.366.207-.2.167.418.323-.024.191-.418-.167-.233.668-.044.163.328-.059-.074.499.3.288-.087-.314.463-.016.075-.039.159.494.625-.292.047-.288.274.154.278-.108.489-.066.142-.196-.057-.549-.277-.388.049-.161-.188-.284-.201-.069zm.348.334c-.266-.07-.987-.414-.318-.162.085.06.29.061.318.162zm-.203.053c-.222.078-.528-.259-.096-.037l.096.037z"/><path fill="#fff" opacity=".832" d="M7.912 28.131c-.357-.122-.513.077-.186.237-.219-.04-.44.247-.038.212.42.055-.034.123-.215.115-.041.276.522.016.405.391.239.047.134-.393.459-.178.51-.178-.698-.219-.091-.284.486.093.174-.181.027-.225.265-.049.329-.28-.032-.238-.136.039-.328-.381-.331-.032zm-.008.308c-.149-.376.518.055 0 0z"/><path fill="#fff" opacity=".832" d="M9.01 28.145c-.335.137.037.491.067.47-.24.263.016.389.151.114.148.409.205-.119.189-.058.3.191.268-.19-.012-.174.201-.141-.043-.494-.219-.406.369-.07.096-.259-.118-.177-.041-.182-.566.501-.059.229zm.068.18c.123.169-.149.046 0 0zm.153-.048c.171-.072.021.215 0 0zm-.778-.115c-.288.036.072.3-.024.43.418-.057-.158.209.2.262-.002-.111.023.419.186.126-.033-.174.316-.456-.03-.436.217-.172-.129-.655-.375-.455l.042.073zm.164.252c-.203-.208.143-.167 0 0z"/><path fill="#fff" opacity=".832" d="M10.232 27.94c-.194-.284-.522.131-.348-.239.295-.244.529.482.342.544.649.107-.042-1.118-.417-.756-.378-.19.063.471-.336.267-.354-.26-.183.512.068.602.125.219.333.427.377.08.387.01-.03-.305-.117-.457-.029-.19.434.305.43-.041zm-.771.048c.22-.186.184.317 0 0zm.19.24c.247-.187.168.346 0 0z"/><path fill="#fff" opacity=".832" d="M11.069 27.134c-.262-.142-.148-.221-.126-.348-.418-.105-.836.177-.793.618-.035.254.255-.076.364.198.274.093.029.469.354.314.08-.295.284-.449.537-.57.079-.345-.377.153-.192-.236l-.044-.011-.102.035zm-.038.114c-.002.195-.206.119 0 0zm-.266.255c.356.002-.134.24 0 0zm-.193-.45c-.173-.099.218-.092 0 0zm-.174.043c-.037-.166.185-.088 0 0zm.055.071c-.102.213-.087-.151 0 0zm.016.162c.113-.138.465-.408.137-.082-.037-.002-.09.165-.137.082zm.118.11c.113-.138.466-.408.137-.082-.039-.002-.088.167-.137.082zm.896-1.356c.167.152.237 1.117.391.547.498.087.06-.575-.229-.663-.222-.315-.327.286-.524.063-.226.111.265.457-.136.313-.406-.175.13.308-.171.181-.035.275.473.381.3.133.24.126.022.486.352.263.19.346.439-.098.061-.148-.125-.169.256-.065.065-.326-.037-.12-.113-.235-.11-.364zm.236.15c.324.143.133.532.039.075l-.039-.075zm-.341.301c-.079.214-.276-.229.005-.037-.184-.686.215.22-.005.038zM3.304 19.093c-.176.276-.431-.349-.56.073.222.069.233.419-.014.242-.113-.132-.646-.55-.233-.484.129.257.484-.095.167-.186.018-.277.272-.016.368.093l.272.261zm.37-.627c.413.428-.659.647-.541.107.049-.201.387-.31.541-.107zm-.073.222c-.023-.348-.55-.06-.157.09.071.029.161-.021.157-.09zm.64-.286c-.227.29-.653-.109-.707-.306.032-.241.237.054.334-.081.156.074-.153.264.147.349.174.091.083-.187.225.038zm.734-.695c.226.286-.474.586-.468.32.187.034.498-.288.144-.176-.479.177-.495-.551-.023-.494.39.166-.359.18-.173.323.154-.003.418-.146.519.026zm.395-.348c-.405-.017.231.651-.235.389-.088-.192-.33-.436.056-.444.118-.147.095-.058.179.055zm.454.218c-.237.225-.581-.624-.21-.397.057.137.139.264.21.397zm-.289-.538c-.165.183-.327-.143-.053-.098l.021.039.032.059zm.672.025c-.403-.066.131.667-.294.353-.057-.199-.264-.468.124-.429.139-.13.104-.046.17.076zm.54.115c-.078-.289-.311.229-.008.007l.008-.007zm.024.077c-.316.352-.571-.316-.12-.313-.168.064-.516.019-.206-.123.31-.201.725.487.35.468l-.024-.032zm.649-.002c-.594.098-.33-.841.113-.475.085.164-.501-.003-.271.3.129.063.535-.019.232.165l-.074.01zm.883.026c-.339.097-.053-.644-.39-.31.144.19-.177.42-.177.136l.019-.579c.306-.087.052.364.328.215.321.062.226.342.221.538zm.533-.02c.073-.28-.404.072-.011.003l.011-.003zm-.018.077c-.469.175-.368-.504.048-.318-.186-.013-.486-.193-.127-.19.388-.046.423.715.085.546l-.005-.038zm1.321.318c-.134.31-.835-.076-.58-.199.079.157.569.239.252.025-.453-.277.223-.639.45-.255.077.376-.385-.185-.407.025.095.114.386.246.285.406zm.389.301c.166-.242-.416-.042-.012 0l.012-.001zm-.041.067c-.517.038-.191-.569.152-.284-.178-.063-.409-.311-.061-.212.392.061.173.781-.099.532l.007-.037zm.747.522c-.33-.156-.555-.424-.203-.665.239-.114.124.231.002.308.083.379.461-.421.46.016l-.259.341zm.371.283c-.532-.305.399-.772.456-.249-.062.163-.384-.315-.441.032.051.122.425.321.051.256l-.065-.04z"/><path fill="#fff" opacity=".832" d="m12.458 19.179-.324-.254c-.125.174.518.431.027.341-.567-.266.186-.892.403-.332.023.096-.031.187-.105.245zm-.074-.181c.074-.275-.337-.13 0 0z"/></svg>