<svg xmlns="http://www.w3.org/2000/svg" width="32" height="32"><path d="M19.026 19.368a9.018 9.018 0 0 0-.488-.033h-.17l.033-.639a11.212 11.212 0 0 0-1.453-6.189l.029.056a.414.414 0 0 1 .158-.567l.002-.001a.402.402 0 0 1 .203-.054h.002c.155 0 .291.085.363.211l.001.002a11.973 11.973 0 0 1 1.549 5.926c0 .232-.007.463-.019.692l.001-.032-.034.652z"/><path d="m18.571 18.698-.025.468c.167 0 .334.018.497.034l.025-.476a11.892 11.892 0 0 0-1.539-6.55l.031.059a.249.249 0 1 0-.433.246l-.001-.001a11.318 11.318 0 0 1 1.462 5.6c0 .218-.006.434-.018.649l.001-.03zm-15.289.398a11.041 11.041 0 0 1-.342-2.582v-.009a.249.249 0 0 0-.498.004v.005a11.9 11.9 0 0 0 .35 2.69l-.017-.082c.169-.003.337-.012.507-.025z"/><path d="M1.705 17.194c-.497 0-.895-.176-1.131-.495-.16-.221-.309-.597-.109-1.174.389-1.119 1.523-2.59 2.089-3.282-.597-.636-1.389-1.492-1.343-2.405.026-.434.232-.815.543-1.072l.003-.002c.661-.583 1.641-.923 2.509-1.222h.016c.198-.069.389-.134.568-.201 1.814-.674 3.713-.813 5.551-.947a47.885 47.885 0 0 0 2.18-.192c.175-.021.364-.058.564-.097a5.32 5.32 0 0 1 1.048-.136h.008l.08-.002c.421 0 .805.159 1.096.42l-.002-.001c.545.501.65 1.31.322 2.468.667.219 1.939.667 2.415 1.025a1.206 1.206 0 0 1 .446 1.333l.002-.009c-.236.913-1.279 1.768-1.986 1.866a5.905 5.905 0 0 1-.744.046l-.129-.001h.006-.024c-.619 0-.994 0-1.383.597-.421.642-1.246 1.423-2.303 1.696a2.846 2.846 0 0 1-.725.094h-.015c-.088 0-.176-.004-.262-.013l.011.001a3.73 3.73 0 0 1-1.177-.378l.021.01a3.405 3.405 0 0 0-.77-.282l-.024-.005a.861.861 0 0 0-.149-.013c-.521 0-1.034.457-1.516.925-.351.342-.8.691-1.47.691a2.182 2.182 0 0 1-.522-.066l.015.003a3.153 3.153 0 0 1-.606-.228l.019.008a1.523 1.523 0 0 0-.57-.189l-.007-.001h-.003a.376.376 0 0 0-.164.037L4.085 16a3.42 3.42 0 0 0-.671.463l.004-.003c-.424.342-.895.727-1.672.746zM14.201 6.796a5.012 5.012 0 0 0-.929.132l.034-.007a8.221 8.221 0 0 1-.63.109 40.64 40.64 0 0 1-2.214.195c-1.781.13-3.621.264-5.325.895-.191.072-.394.149-.597.213-.804.276-1.707.586-2.238 1.065a.68.68 0 0 0-.265.484v.002c-.027.568.707 1.343 1.144 1.819.09.095.166.176.234.252a.42.42 0 0 1 .007.552v-.001c-.018.019-1.726 2.025-2.169 3.297-.036.103-.085.298 0 .406a.56.56 0 0 0 .45.149H1.7h.027c.485-.009.783-.251 1.162-.556.244-.214.519-.402.815-.556l.023-.011c.153-.075.332-.119.522-.119.34.022.654.117.932.268l-.012-.006c.122.063.265.12.413.164l.018.005c.096.024.206.039.32.04h.001c.298 0 .552-.131.883-.448.376-.371.95-.929 1.649-1.11.134-.037.288-.058.447-.06h.001c.106.001.209.011.309.03l-.011-.002c.373.082.703.2 1.01.356l-.024-.011c.259.137.56.241.877.296l.018.003c.061 0 .124.009.187.009.961 0 1.878-.733 2.324-1.413.637-.973 1.402-.973 2.077-.973h.06l.103.001c.218 0 .432-.013.643-.039l-.025.003c.416-.058 1.155-.713 1.292-1.247a.373.373 0 0 0-.147-.447l-.002-.001c-.386-.289-1.775-.782-2.56-1.023a.417.417 0 0 1-.27-.537l-.001.003c.346-1.019.357-1.689.03-1.989a.842.842 0 0 0-.542-.195c-.017 0-.034 0-.051.002h.002z"/><path d="M11.959 15.231a3.99 3.99 0 0 0 2.194-1.61l.009-.014c.44-.671.88-.671 1.546-.671l.123.001c.255 0 .506-.016.753-.046l-.03.003c.652-.091 1.632-.913 1.846-1.743a1.032 1.032 0 0 0-.384-1.145l-.003-.002c-.5-.374-1.939-.862-2.524-1.044.252-.812.433-1.845-.227-2.453-.58-.539-1.387-.38-2.092-.24-.203.04-.395.079-.576.1-.725.087-1.47.14-2.189.192-1.826.134-3.713.272-5.505.937-.185.07-.383.137-.588.209-.852.298-1.817.628-2.451 1.194a1.344 1.344 0 0 0-.491.945v.004c-.039.849.746 1.692 1.325 2.305l.079.085c-.437.531-1.731 2.162-2.15 3.343-.175.503-.049.832.087 1.019.206.283.573.436 1.034.425.713-.013 1.147-.366 1.568-.704.205-.181.435-.34.683-.471l.019-.009c.269-.128.551 0 .879.149.158.081.343.153.536.205l.021.005c.864.201 1.385-.161 1.82-.585.564-.549 1.17-1.074 1.82-.958.316.074.594.177.854.308l-.022-.01c.32.168.691.293 1.084.353l.02.002a2.657 2.657 0 0 0 .95-.084l-.019.004zm-3.455-1.035c-.658.17-1.208.706-1.574 1.061-.473.461-.83.58-1.359.457a2.639 2.639 0 0 1-.479-.184l.015.007c-.385-.176-.822-.374-1.299-.149a4.056 4.056 0 0 0-.806.546l.005-.004c-.388.313-.722.583-1.265.597-.288 0-.515-.075-.621-.221s-.078-.397-.019-.562c.451-1.307 2.181-3.327 2.195-3.348a.25.25 0 0 0 0-.328c-.07-.078-.149-.161-.231-.251-.486-.518-1.22-1.302-1.194-1.939a.842.842 0 0 1 .32-.604l.002-.001c.559-.497 1.476-.813 2.284-1.092.209-.072.41-.142.597-.212 1.726-.64 3.581-.776 5.371-.907a46.715 46.715 0 0 0 2.211-.195c.2-.024.41-.066.615-.106.65-.13 1.264-.251 1.658.112.573.527.149 1.762.015 2.168a.248.248 0 0 0 .161.318h.002c.571.176 2.156.709 2.611 1.044a.537.537 0 0 1 .203.629l.001-.004c-.158.615-.955 1.305-1.432 1.373-.197.026-.425.04-.656.04l-.127-.001h.006c-.707 0-1.374 0-1.962.895-.521.792-1.577 1.589-2.672 1.483a3.145 3.145 0 0 1-.968-.322l.017.008a4.023 4.023 0 0 0-.92-.322l-.027-.005a1.516 1.516 0 0 0-.687.025l.011-.002z"/><path d="M2.657 12.259c.266-.095.534-.172.803-.242s.537-.134.807-.192.54-.113.812-.161.542-.095.816-.124.55-.051.828-.07.551-.054.824-.098.54-.11.809-.182.528-.163.789-.252a50.745 50.745 0 0 1 1.556-.552l.774-.277c.257-.098.516-.184.774-.274s.519-.175.78-.261l.391-.13c.13-.043.263-.081.392-.127.261-.088.525-.17.789-.251s.531-.164.803-.233l.006-.001c.014 0 .025.009.03.021l.001.006c0 .01-.005.019-.012.025-.189.132-.42.28-.657.419l-.052.028c-.119.072-.243.137-.366.203s-.245.134-.37.197c-.397.208-.901.436-1.417.639l-.112.039c-.522.195-1.059.349-1.598.492q-.403.104-.813.195c-.273.055-.549.095-.824.149s-.55.082-.822.137-.543.107-.813.175c-.537.13-1.064.325-1.604.46-.463.111-1.023.201-1.594.252l-.047.003a11.434 11.434 0 0 1-1.695.046l.025.001a.03.03 0 0 1-.027-.03v-.002l-.001-.005c0-.011.006-.02.015-.024zm.111 6.354A2.52 2.52 0 0 1 .7 17.455l-.006-.01c-.819-1.267-.176-2.026-.149-2.059a.421.421 0 0 1 .313-.142h.001a.42.42 0 0 1 .318.691l.001-.001s-.246.342.218 1.058c.294.459.793.764 1.365.785H2.788c.225 0 .408.178.416.401v.015a.422.422 0 0 1-.311.407l-.003.001a.346.346 0 0 1-.088.012z"/><path d="M2.85 18.436a.177.177 0 0 1-.052.007 2.348 2.348 0 0 1-1.956-1.08l-.006-.009C.09 16.192.65 15.526.673 15.498a.249.249 0 0 1 .371.326l.001-.001c-.019.025-.327.439.203 1.261.328.509.885.845 1.522.862h.008a.249.249 0 0 1 .068.489h-.002zm15.432-3.985a.249.249 0 0 1-.207-.447l.001-.001s.43-.343.503-1.396a2.418 2.418 0 0 0-.53-1.739l.003.004a.249.249 0 0 1 .361-.341 2.895 2.895 0 0 1 .663 2.125l.001-.011c-.09 1.289-.648 1.723-.712 1.768a.237.237 0 0 1-.082.038h-.002zM5.108 11.999 2.76 15.43l1.922-3.685a.253.253 0 1 1 .448.231l.001-.001a.12.12 0 0 1-.021.024zm.927-.296.024 3.39-.521-3.351a.25.25 0 0 1 .494-.078v.001a.213.213 0 0 1 .003.037z"/><path d="M4.061 12.149a7.19 7.19 0 0 1-.496-.692l-.017-.03a4.283 4.283 0 0 1-.39-.761l-.01-.029a3.724 3.724 0 0 1-.067-.215 1.547 1.547 0 0 1-.04-.218l-.001-.007-.01-.115c0-.039 0-.078.009-.116a1.39 1.39 0 0 1 .041-.227l-.002.01a2.18 2.18 0 0 1 .14-.429l-.006.014a.746.746 0 0 1 .255-.34l.002-.001a.725.725 0 0 0-.198.358l-.001.005c-.033.12-.058.261-.07.405l-.001.008a1.109 1.109 0 0 0 .001.211v-.005c0 .033 0 .064.007.095l.022.097c.015.074.033.137.055.198l-.003-.01c.028.061.058.122.088.182.146.255.303.475.479.678l-.005-.005c.182.215.369.41.567.593l.004.004a.248.248 0 0 1-.168.433.25.25 0 0 1-.169-.066l-.017-.022v-.001zm.078 3.327.391-1.117-.054 1.183a.175.175 0 0 1-.35-.008v-.009a.193.193 0 0 1 .012-.05v.001zm4.202-1.188.034-1.183.309 1.143a.152.152 0 0 1 .005.044.174.174 0 0 1-.128.169H8.56a.176.176 0 0 1-.206-.121v-.001a.193.193 0 0 1-.013-.05v-.001zm6.474-1.379-.448-1.095.746.919a.174.174 0 0 1-.126.296.174.174 0 0 1-.144-.076v-.001a.307.307 0 0 1-.028-.042l-.001-.001zM3.933 16.56a.325.325 0 0 1 .013.312l.001-.002a.121.121 0 0 0 0 .068v-.001c.01.145.035.28.075.409l-.003-.013c.039.131.074.292.098.456l.002.019c.014.071.031.131.051.19l-.003-.011c.026.068.04.146.04.228v.002a.494.494 0 0 0 .076.22l-.001-.002c.019.034.072.051.149 0a1.504 1.504 0 0 0-.016-.181l.001.008c-.039-.17-.069-.343-.103-.513a5.058 5.058 0 0 1-.101-.643l-.002-.023a1.637 1.637 0 0 0-.061-.301l.003.011a.722.722 0 0 1-.019-.302v.004c.009-.052-.051-.107-.079-.163-.124.052-.16.139-.119.227zm.092-.324zm.412 2.294c-.16.149-.139.224.064.274a.179.179 0 0 0-.064-.274h-.001zm-.385-2.201-.004-.003.003.003h.002zm-.107-.813-.098.015a.707.707 0 0 0 .024.134l-.001-.005a.374.374 0 0 1 .016.243l.001-.003a.254.254 0 0 0 .135.33l.002.001a.497.497 0 0 0 .059-.146l.001-.003.027-.582a.387.387 0 0 0-.166.018l.003-.001zm-1.188 1.492c.028.14.061.277.088.416.029.126.046.27.046.419a.591.591 0 0 0 .082.223l-.001-.003c.009.024.034.049.024.073a.48.48 0 0 0 .028.373l-.001-.003c.03.084.055.167.081.252.013.045.021.091.033.136.018.07.037.139.06.207l.277-.019a.701.701 0 0 0-.079-.208l.002.003c-.131-.263-.149-.556-.212-.837-.036-.149-.03-.298-.057-.448-.042-.207-.085-.416-.115-.628-.019-.149-.013-.298-.03-.448a2.728 2.728 0 0 0-.07-.397l.004.019a.062.062 0 0 0-.012-.026l-.009.01c-.059.058-.123.11-.191.158l-.005.003v.07c0 .075.013.149.019.224.012.143.01.288.037.427zm2.963 1.839a.15.15 0 0 0 .042-.189v.001c-.01-.033-.031-.064-.104-.054-.079.136-.075.157.063.242zm-.316-1.283a.231.231 0 0 0 .013-.218l.001.001c-.024-.064.018-.149-.134-.188a.313.313 0 0 0 .119.404l.001.001zm.18.624c.101-.186-.057-.298-.058-.448 0-.04-.03-.073-.094-.085-.101.1-.112.134-.031.383.021.06.027.137.184.149zm.051.1a.06.06 0 0 0-.051-.009.13.13 0 0 0-.059.04c-.045.094-.012.163.109.216.098-.112.036-.178.002-.248zm-.457-2.533-.104-.03a.346.346 0 0 0 0 .069v-.001c.012.243.034.486.067.727a.136.136 0 0 0 .009.041v-.001a.367.367 0 0 1 .02.23v-.003.023c0 .073.009.144.027.212l-.001-.006c0 .019.048.033.085.058a.22.22 0 0 0 .054-.146v-.013.001a1.08 1.08 0 0 1-.013-.322v.005c.057-.282-.019-.545-.042-.816a.932.932 0 0 1-.101-.025z"/><path d="M3.218 18.373c.258.167.574.266.912.266h.018-.001c.049 0 .116 0 .134.019a.815.815 0 0 0 .329.113h.004c.124.046.266.073.415.076h.001c.122.088.379.037.522.103a.297.297 0 0 0 .219-.05l-.001.001c.043-.036.018-.078-.066-.095-.172-.036-.349-.072-.524-.11-.078-.018-.149-.046-.228-.058a4.144 4.144 0 0 1-1.195-.345l.026.011a.935.935 0 0 0-.452-.065h.004c-.142.028-.188.09-.118.136zm3.546-.117a.233.233 0 0 0 .118.034.578.578 0 0 0 .145-.052l-.003.002c.009 0 .009-.016.013-.025-.022-.036-.157-.034-.237 0-.019.013-.042.039-.036.042zm.884-.698c-.149-.027-.298-.057-.46-.087s-.298-.066-.458-.1a1.515 1.515 0 0 1-.157-.016l.008.001a1.81 1.81 0 0 0-.612-.149h-.005a.085.085 0 0 1-.051-.02c-.095-.094-.298-.121-.471-.172a14.107 14.107 0 0 1-1.061-.361c-.225-.09-.431-.2-.668-.298a5.466 5.466 0 0 1-.682-.282l.033.015a.634.634 0 0 0-.094-.038l-.005-.001c-.021.022-.04.045-.061.066l-.048.043c.025.063.098.091.175.127.141.054.261.112.374.178l-.012-.006c.161.118.398.172.574.267.163.084.352.155.551.202l.018.004c.161.063.356.121.557.164l.026.005c.101.031.228.06.358.082l.019.003h.001c.02 0 .038.009.05.022.03.055.113.066.219.057.061 0 .098 0 .103.031.007.027.03.047.058.049.136.016.236.066.366.073.119.008.229.035.331.077l-.007-.003c.167.056.371.108.58.145l.027.004c.089.013.192.021.297.022h.001a.41.41 0 0 0 .106-.014l-.003.001c.084-.018.128-.064.085-.085a.148.148 0 0 0-.049-.008l-.015.001h.001zm-4.77-.325v.001c0 .029.018.054.044.064.166.036.236.167.46.149.01 0 .025.01.034.019.165.121.362.207.576.246l.009.001c.373.098.746.191 1.073.298.225.072.5.081.731.13l.032.001a.393.393 0 0 0 .098-.012l-.003.001c.13-.027.186-.084.112-.121a.715.715 0 0 0-.192-.055h-.004c-.173-.033-.357-.063-.533-.097-.374-.076-.683-.224-1.086-.298a.316.316 0 0 1-.122-.046l.001.001a1.197 1.197 0 0 0-.516-.131H3.59a.552.552 0 0 1-.176-.049l.003.001c-.122-.055-.272-.095-.41-.149l-.034-.002-.036.002h.001c-.016.009-.06.028-.061.045zm3.27.952c.091.012.198.02.307.022h.003c.024-.036.06-.066.049-.076a.31.31 0 0 0-.251-.058h.002a.242.242 0 0 0-.117.042h.001c-.018.024-.025.067.006.07zm1.013.166a.219.219 0 0 1 .2.038H7.36a.335.335 0 0 0 .251.022l-.002.001c.087-.015.17-.072.149-.106 0 0-.013-.016-.033-.018l-.463-.066-.016-.001a.203.203 0 0 0-.144.059c-.037.045-.021.085.057.072zm-1.008-2.004a.262.262 0 0 0-.192.029l.001-.001c-.034.039-.01.069.048.088a.677.677 0 0 0 .327-.001l-.005.001c.013-.063-.066-.097-.179-.116zm.206.189a.269.269 0 0 0 .132.013h-.002c.033 0 .095-.039.091-.046a.14.14 0 0 0-.089-.043h-.02a.88.88 0 0 0-.136.01l.005-.001c0 .024-.007.052.016.067zm-.021-.067v-.003l-.006.002v.003l.006-.002zm-.232 2.563c.186.043.409.046.576.104l.037.009c.394-.028.786-.021 1.18-.022.036-.012.061-.025.066-.039.013-.046-.055-.042-.107-.045s-.186.024-.216 0c-.1-.073-.319-.031-.482-.046a4.499 4.499 0 0 1-.764-.087l.029.005a2.371 2.371 0 0 0-.374-.034h-.002a.834.834 0 0 0-.128.021l.006-.001c0 .025-.027.057-.012.064a.797.797 0 0 0 .187.07l.006.001zm1.019-3.143c-.025-.01-.048-.021-.075-.03a12.211 12.211 0 0 1-.486-.169 1.631 1.631 0 0 1-.277.1l-.012.003c.215.069.43.131.621.207a.55.55 0 0 0 .282 0l-.004.001c.066-.037.049-.073-.048-.112zm.269-.492.038-.001c.039 0 .078.004.114.012l-.003-.001h-.201zm-1.538.826a4.568 4.568 0 0 1-.724-.31l.024.012a1.885 1.885 0 0 0-.191-.096l-.013-.005c-.245-.1-.494-.203-.739-.324-.14.036-.066-.018-.269.018-.054.01-.106.016-.158.022.352.201.746.345 1.083.512.061.03.149.045.216.072.212.063.383.126.549.197l-.035-.013a.483.483 0 0 0 .27.031h-.003a.436.436 0 0 0 .111-.052l-.002.001a.706.706 0 0 0-.116-.062l-.005-.002zm11.352-.662a.259.259 0 0 1-.085.086l-.001.001a.566.566 0 0 1-.148.024h-.001c-.009 0-.016-.01-.024-.015 0-.043.121-.107.21-.112.019-.002.052.01.049.016zm-1.033-.112a.495.495 0 0 0 .1-.039l-.003.001c.095-.055.176-.109.253-.167l-.006.005c.167-.135.317-.274.456-.423l.002-.002c.067-.08.143-.149.227-.206l.004-.002a1.556 1.556 0 0 1-.049-.157l-.002-.01a1.328 1.328 0 0 0-.215.229l-.003.004c-.019.028-.095.058-.13.088a19.621 19.621 0 0 1-.714.608.2.2 0 0 0-.037.04v.001c-.027.037.034.055.116.031zm.734.388c-.103.039-.139.076-.149.128s-.104.103-.207.14-.183.019-.183-.019a.045.045 0 0 1 .018-.031l.374-.282a.199.199 0 0 1 .168-.025h-.001c.046.018.051.067-.019.089zm.584 1.487c.082-.031.175-.063.252-.101v-.191l-.364.219a.037.037 0 0 0-.018.032c0 .009.004.018.009.025.036.01.078.016.12.016zm-.764-3.464a.27.27 0 0 1-.107.072l-.002.001c-.03.013-.101.013-.1 0a.13.13 0 0 1 .056-.08c.039-.023.085-.046.132-.065l.007-.002c.007.027.028.049.013.075z"/><path d="m16.715 13.79-.002-.003.006-.002.002.003-.006.002zm.056 3.03a.796.796 0 0 0 .108-.067l-.002.002c.028-.018.046-.048.082-.055.201-.051.289-.149.461-.222a.788.788 0 0 0 .285-.186l.018-.018c0-.046 0-.093-.009-.139v-.066c-.149.116-.327.221-.486.33-.136.091-.348.163-.4.274-.016.034-.13.067-.189.103s-.107.058-.073.091.112 0 .206-.046zm-1.025-3.157a.649.649 0 0 1 .051-.062c.116-.124.23-.254.343-.383.111-.009.212-.027.311-.054l-.012.003c-.149.164-.312.324-.448.482a.55.55 0 0 1-.242.128l-.004.001c-.063.004-.066-.034.002-.115zm-.475-.301a.562.562 0 0 0-.126.083l.001-.001.173-.104zm2.016 4.029c0 .033-.073.067-.163.07a.16.16 0 0 1-.05-.014h.001c.01-.043.088-.079.166-.078a.06.06 0 0 1 .046.021zm-.751.403a.226.226 0 0 1-.096 0h.002a.026.026 0 0 1-.011-.041.966.966 0 0 1 .339-.182l.007-.002a.335.335 0 0 1 .073-.007c.013.013.049.03.042.043a.46.46 0 0 1-.356.188h-.001zm1.001.313a.08.08 0 0 1-.037.036c-.245.149-.486.298-.746.439a.787.787 0 0 1-.189.071l-.005.001a.376.376 0 0 1-.112-.02l.003.001c.015-.022.016-.037.033-.046l.746-.448c.055-.029.119-.056.186-.076l.008-.002.02-.001c.027 0 .052.005.075.015h-.001c.012.003.02.014.02.026l-.001.006zm-9.142-7.768c-.028 0-.054.033-.085.054a.232.232 0 0 0 .297-.068v-.001c-.064-.049-.142.003-.213.015zm-.325.192c.06-.016.125-.031.149-.1a.199.199 0 0 0-.066-.012c-.25.042-.471.102-.683.181l.025-.008c-.021 0-.033.036-.064.075.071-.003.136-.01.201-.021l-.01.001q.227-.055.448-.116zm-.76.154a.297.297 0 0 0-.194.001l.002-.001c-.149.039-.288.078-.431.121-.178.054-.355.112-.533.169a.5.5 0 0 0-.08.042l.002-.001a.148.148 0 0 0 .15.016h-.001c.277-.072.556-.142.834-.216a.475.475 0 0 0 .251-.13zm1.571-.376c.129-.058.28-.103.437-.128l.011-.001a.188.188 0 0 0 .167-.106v-.001a.377.377 0 0 0-.188.021l.002-.001c-.112.031-.227.057-.339.087a1.727 1.727 0 0 0-.198.055l.013-.004a.503.503 0 0 0-.087.057l.001-.001a.18.18 0 0 0 .182.022h-.001zm2.496-.694c.149-.039.288-.075.431-.118.291-.089.597-.149.882-.248.212-.073.437-.124.613-.173.104-.024.166-.036.227-.052l.597-.163c.058-.015.115-.045.098-.073s-.07-.024-.115-.027a.418.418 0 0 0-.091.023l.003-.001-.565.149a13.04 13.04 0 0 0-.759.203c-.149.048-.318.088-.477.13-.225.061-.448.119-.677.182a1.744 1.744 0 0 0-.251.089l.011-.004c-.031.013-.064.052-.058.069s.058.019.094.025a.119.119 0 0 0 .039-.012h-.001zm-.203-.001a.108.108 0 0 0-.149.017.033.033 0 0 0-.003.015c0 .013.006.025.016.033a.107.107 0 0 0 .135-.063v-.001zm-.268.115a.519.519 0 0 0 .068-.064v-.001c-.063.009-.098.012-.134.019-.166.037-.331.072-.495.115-.24.063-.479.131-.716.2-.018 0-.03.031-.063.069.058-.002.113-.006.167-.014l-.007.001a5.78 5.78 0 0 0 .339-.084c.257-.07.512-.149.767-.216a.296.296 0 0 0 .076-.026l-.002.001zm-7.069 1.977a.537.537 0 0 1 .287-.068h-.001a.193.193 0 0 0 .064-.014h-.001c.122-.034.249-.061.366-.106.116-.042.266-.087.418-.123l.029-.006c.057-.016.113-.031.169-.052.062-.023.134-.042.209-.053l.006-.001a.868.868 0 0 0 .214-.071l-.005.002c.036-.013.055-.045.015-.076-.051.009-.107.015-.164.03-.164.042-.327.087-.491.13-.209.055-.418.116-.63.166-.142.05-.325.101-.512.143l-.034.006a.439.439 0 0 0-.15.074l.001-.001a.185.185 0 0 0 .211.019l-.001.001zm1.862-.584c.128.064.189.048.263-.067a.28.28 0 0 0-.262.067zm-2.294.604a16.87 16.87 0 0 0-.597.137.516.516 0 0 0-.096.034l.003-.001c.051.033.094.065.135.099l-.002-.002c.077-.021.142-.044.204-.071l-.01.004a.58.58 0 0 1 .208-.061h.012a.367.367 0 0 0 .288-.138l.001-.001a.554.554 0 0 0-.149 0h.003zm10.907-2.982a.84.84 0 0 1 .133-.072l.006-.002c.233-.078.465-.149.7-.224a.65.65 0 0 1 .147-.028h.002l.033.119-.034.012c-.116.03-.233.064-.349.082a.86.86 0 0 0-.258.068l.006-.002a.493.493 0 0 1-.388.047l.004.001zM6.721 11.53h.055c.125-.021.24-.087.367-.101h.013a.71.71 0 0 1 .271-.089h.003a.43.43 0 0 0 .239-.115.272.272 0 0 0-.083-.018h-.001a4.02 4.02 0 0 0-.27.052l-.47.109c-.049.012-.097.027-.149.043s-.07.031-.061.075a.067.067 0 0 0 .064.048.076.076 0 0 0 .021-.003zm1.219-.356c.064-.022.144-.044.226-.061l.012-.002.597-.164a.262.262 0 0 0 .149-.088.201.201 0 0 0-.186.001l.001-.001-.832.224c-.046.013-.1.021-.127.081a.171.171 0 0 0 .161.01H7.94zm-1.561.37c.088.061.098.061.179-.016-.098-.064-.112-.063-.179.016zm3.111-.792c.119-.03.24-.054.36-.087.16-.045.318-.092.476-.14.055-.018.119-.027.149-.106-.072.002-.14.01-.207.022l.008-.001q-.567.149-1.132.312a.701.701 0 0 0-.119.063l.003-.002c.113.036.113.036.184.016.091-.025.188-.054.279-.078zm1.401-.374a.747.747 0 0 1 .145-.046l.005-.001c.117-.012.224-.038.325-.077l-.008.003a1.46 1.46 0 0 1 .247-.094l.011-.003c.232-.047.424-.098.612-.16l-.038.011c.06-.017.138-.033.216-.046l.013-.002c.149-.036.312-.098.468-.139s.34-.088.51-.134c.037-.01.085-.016.084-.073a.113.113 0 0 0-.082-.035.122.122 0 0 0-.043.008h.001c-.149.037-.291.075-.437.109-.242.055-.482.131-.724.187a2.384 2.384 0 0 0-.296.078l.017-.005a2.817 2.817 0 0 1-.46.133l-.019.003a.77.77 0 0 0-.194.03l.006-.001a3.114 3.114 0 0 1-.511.18l-.023.005a.127.127 0 0 0-.098.089v.001a.446.446 0 0 0 .276-.02l-.003.001zm3.093-.919h-.019a.542.542 0 0 0-.202.039l.004-.001c-.067.024-.149.025-.201.095a.783.783 0 0 0 .422-.135l-.003.002zm.652-.2c-.179-.034-.316.075-.47.1a.124.124 0 0 0-.094.069v.001c.097.048.128.045.388-.037.07-.022.149-.036.176-.133zM3.845 12.192c-.106.03-.21.066-.313.104-.031.01-.052.043-.097.084l.043.015zm11.44-3.178a2.228 2.228 0 0 0-.518.197l.012-.006c-.021.01-.031.03-.048.046l.018.025c.167-.048.337-.064.506-.101.007-.061.017-.116.032-.169l-.002.008zM7.049 10.1a.31.31 0 0 0-.074.047.2.2 0 0 0 .203-.001l-.001.001c.126-.05.277-.093.432-.123l.016-.002c.179-.04.357-.087.534-.131a.432.432 0 0 0 .195-.093l-.001.001c-.013-.009-.021-.019-.027-.018-.436.067-.853.216-1.277.321zm1.664-.361c.257-.07.512-.149.77-.21s.504-.136.756-.203c.122-.033.246-.06.37-.092.06-.016.116-.037.176-.058s.101-.037.149-.051c.134-.037.27-.069.403-.106.274-.076.542-.182.822-.239a.165.165 0 0 0 .106-.056c-.013-.037-.039-.036-.067-.031a4.002 4.002 0 0 0-.708.18l.028-.009c-.022.007-.042.019-.064.025-.149.037-.298.064-.434.113a4.92 4.92 0 0 0-.601.178l.034-.011h-.034l-.245.063c-.228.061-.457.121-.683.187-.298.085-.597.176-.883.266a.23.23 0 0 0-.137.073.302.302 0 0 0 .069.01h.001c.067-.007.126-.017.184-.03l-.011.002zm-1.837.467c-.025-.01-.045-.027-.063-.024-.057.012-.125.01-.158.075a.237.237 0 0 0 .221-.051zm-.689.187a.224.224 0 0 0-.183.001l.001-.001c-.036.01-.072.027-.072.064a.228.228 0 0 0 .254-.064zm-1.34.362a.428.428 0 0 0-.225.033l.003-.001c-.067.025-.157.021-.2.106l.034.001a.61.61 0 0 0 .389-.139l-.001.001zm.652-.198c-.176-.024-.316.076-.47.104a.128.128 0 0 0-.094.064v.001c.094.037.124.034.385-.046.07-.021.148-.036.179-.122zm.109-.042c-.009 0-.019.022-.016.028a.049.049 0 0 0 .034.025.262.262 0 0 0 .233-.088.315.315 0 0 0-.252.035l.001-.001zm.636-.143a.358.358 0 0 0 .336-.092c-.067-.025-.067-.027-.118-.013-.073.027-.16.027-.218.104zm6.694-1.84a.225.225 0 0 0-.183 0l.001-.001c-.036.01-.072.025-.072.064a.228.228 0 0 0 .253-.064zm-.579.121c-.009 0-.019.024-.016.03a.049.049 0 0 0 .034.025l.033.002a.268.268 0 0 0 .2-.09.32.32 0 0 0-.252.034l.001-.001zm.636-.149a.36.36 0 0 0 .336-.09c-.067-.025-.069-.028-.118-.013-.073.028-.16.027-.218.103zM3.776 11.1a.165.165 0 0 0 .041-.014h-.001a.736.736 0 0 1 .227-.059h.003a1.55 1.55 0 0 0 .242-.063l-.011.003c.021 0 .036-.03.061-.054a.33.33 0 0 0-.162 0l.002-.001a2.55 2.55 0 0 1-.31.072l-.017.002a5.547 5.547 0 0 0-.917.239l.039-.012c-.046.013-.101.028-.112.087a.225.225 0 0 0 .183 0l-.001.001zm-.985.264a.05.05 0 0 0 .015-.035l-.001-.007c0-.01-.025-.027-.037-.024-.079.018-.163.015-.242.037l.03.104a1.82 1.82 0 0 0 .189-.045l-.013.003a.159.159 0 0 0 .058-.034zM13.97 8.279h-.04a.78.78 0 0 0-.227.068l.005-.002a1.45 1.45 0 0 1-.21.064l-.01.002c-.021 0-.046-.007-.079-.015a.304.304 0 0 1 .132-.077l.002-.001c.124-.033.227-.068.327-.109l-.018.007a4.86 4.86 0 0 1 .812-.243l.034-.006c.045-.013.098-.028.136.016a.205.205 0 0 1-.148.092h-.001zm.949-.275a.047.047 0 0 1-.034-.027v-.001c0-.016.008-.031.021-.039.076-.025.149-.072.225-.093l.03.104a1.748 1.748 0 0 1-.16.054l-.013.003a.148.148 0 0 1-.07-.002h.001z"/><path d="M5.656 11.537a.835.835 0 0 0 .111-.269l.001-.006c0-.025.013-.061.033-.073a.577.577 0 0 0 .148-.188l.002-.003a.673.673 0 0 0 .128-.226l.001-.005c.103-.076.094-.212.185-.298a.081.081 0 0 0 .018-.051.078.078 0 0 0-.029-.061c-.027-.019-.076 0-.107.046-.066.098-.128.2-.192.298-.03.038-.058.08-.084.125l-.003.005c-.125.252-.269.47-.436.667l.004-.005a.327.327 0 0 0-.048.078l-.001.002c.087-.015.179-.028.27-.037zm.098-1.631c.022-.021.052-.043.06-.07s-.016-.048-.03-.07-.016 0-.025 0a.095.095 0 0 0-.04.131v-.001c.007.006.031.015.036.01zm-2.26 2.477c.013-.022.027-.046.046-.052.063-.022.085-.07.113-.119.037-.082.08-.153.13-.217l-.002.002c.095-.104.137-.234.221-.342.072-.096.136-.205.187-.321l.004-.011c.062-.095.121-.204.172-.319l.006-.015c.021-.072.088-.133.101-.213a.049.049 0 0 1 .027-.031.118.118 0 0 0 .073-.109l-.001-.018v.001c0-.031 0-.051.04-.06a.1.1 0 0 0 .056-.04c.027-.076.09-.139.11-.209a.52.52 0 0 1 .115-.188c.083-.104.166-.221.241-.342l.009-.016a.893.893 0 0 0 .073-.159l.002-.006a.1.1 0 0 0 .003-.05v.001a.054.054 0 0 0-.053-.043.052.052 0 0 0-.035.013.215.215 0 0 0-.029.032v.001c-.113.178-.23.357-.342.536-.016.027-.012.067-.033.087a.82.82 0 0 0-.209.352l-.001.006a.076.076 0 0 1-.025.031.717.717 0 0 0-.201.276l-.002.005c-.122.206-.242.415-.366.621-.081.133-.179.258-.248.395s-.118.255-.192.374a.68.68 0 0 0-.053.144l-.001.005a.095.095 0 0 0 .019.021zm1.188-.597a1.02 1.02 0 0 0 .218-.316l.003-.007a5.33 5.33 0 0 1 .372-.629l-.012.018c.093-.13.133-.277.213-.41a.121.121 0 0 0 0-.068v.001c-.01-.066-.063-.087-.112-.04a.446.446 0 0 0-.081.111l-.001.002c-.055.1-.104.2-.149.298-.11.212-.276.397-.366.619a.198.198 0 0 1-.048.072.537.537 0 0 0-.132.287v.003a.265.265 0 0 1-.045.096v-.001l-.013.025zm.893-1.534c.024-.046.048-.103.069-.161l.003-.01c-.034 0-.061-.022-.075-.015a.187.187 0 0 0-.101.148v.001c0 .019.013.052.028.057s.067-.004.076-.019zm1.85 1.007a.129.129 0 0 0 .034-.069v-.001a.625.625 0 0 1 .173-.298.321.321 0 0 0 .091-.165v-.005c0-.038.023-.072.056-.086h.001c.048-.022.058-.061.043-.122 0 0-.025-.039-.043-.039a.107.107 0 0 0-.061.047v.001c-.018.031-.016.076-.04.098-.17.149-.23.376-.406.524a.09.09 0 0 0-.012.136.126.126 0 0 0 .164-.019zm7.37-3.097a.094.094 0 0 0 0 .105.134.134 0 0 0-.113.098v.001a.223.223 0 0 1-.086.149h-.001c-.012.01-.02.026-.02.043s.008.033.02.043c.016.015.048.031.063.025a.121.121 0 0 0 .053-.059v-.001c.012-.027-.01-.064.033-.084a.15.15 0 0 0 .079-.202v.001l.011.001a.124.124 0 0 0 .108-.064v-.001c.06-.101.121-.2.182-.298l.03-.051-.061-.221c-.015.028-.033.055-.048.082-.095.142-.172.288-.251.433zm-7.97 2.648a.47.47 0 0 0 .058-.075l.001-.002c.019-.027.033-.057.052-.084.067-.095.149-.187.203-.286.064-.118.134-.221.212-.315l-.003.003a.254.254 0 0 0 .04-.057l.001-.001a.081.081 0 0 0-.034-.109.094.094 0 0 0-.089.015.677.677 0 0 0-.131.147l-.002.002c-.109.178-.209.358-.313.537-.024.04-.055.078-.078.119a.388.388 0 0 0-.024.075v.002a.063.063 0 0 0 .061.049.063.063 0 0 0 .046-.02zm-.398.782a.223.223 0 0 0 .037-.072v-.002q.066-.197.125-.394c0-.013-.009-.031-.013-.048-.016 0-.037 0-.046.018a2.532 2.532 0 0 0-.106.131 9.118 9.118 0 0 0-.185.267.09.09 0 0 0-.015.052v.007c.067.01.134.024.203.04zm-.488-1.92a.149.149 0 0 1 .086-.116h.001a.172.172 0 0 0 .091-.141V9.41a.066.066 0 0 0-.089-.062.12.12 0 0 0-.028.021c-.061.088-.124.178-.179.269a.052.052 0 0 0 .034.079.067.067 0 0 0 .084-.043zm2.378-.012c0-.012-.018-.024-.033-.04a.415.415 0 0 0-.088.064 3.302 3.302 0 0 0-.164.264 1.55 1.55 0 0 1-.194.35l.003-.004a.043.043 0 0 0-.015.024c0 .021 0 .049.013.061a.074.074 0 0 0 .065.009.18.18 0 0 0 .068-.082v-.001a.136.136 0 0 1 .065-.098h.001a.299.299 0 0 0 .066-.102l.001-.002c.054-.127.116-.236.189-.337l-.004.005a.213.213 0 0 0 .027-.105V9.66zm-.641-.128a.976.976 0 0 0 .059-.156l.002-.008c-.021-.022-.031-.046-.045-.048a.084.084 0 0 0-.059.025c-.088.134-.172.27-.255.406-.015.025-.051.061-.012.084a.146.146 0 0 0 .097 0h-.001a.173.173 0 0 0 .064-.056v-.001c.052-.081.106-.164.151-.246zm6.796-.797c-.054.067-.098.149-.158.203a2.011 2.011 0 0 0-.269.448l-.005.013c-.021.039.007.072.052.078l.015.001c.03 0 .056-.016.071-.04.046-.076.093-.141.146-.202l-.001.002c.11-.139.204-.299.273-.471l.005-.013c.003-.006.004-.013.004-.02s-.002-.014-.005-.02a.27.27 0 0 0-.046-.049.628.628 0 0 0-.082.07zM3.581 10.619c-.013.042 0 .085.033.091a.084.084 0 0 0 .095-.046v-.001c.013-.024.02-.053.02-.084s-.007-.059-.021-.085v.001a.158.158 0 0 0-.128.121v.001zm11.152-3.834a.188.188 0 0 0-.016.023v.001a3.2 3.2 0 0 0-.275.454l-.009.019a.737.737 0 0 1-.073.124l.001-.002c-.055.093-.113.185-.169.277-.039.064-.073.131-.113.195-.063.1-.13.195-.191.298-.037.06-.063.127-.095.188-.084.149-.17.298-.251.448-.103.185-.201.37-.298.556a2.188 2.188 0 0 0-.091.189.153.153 0 0 0-.009.054.08.08 0 0 0 .118.056.56.56 0 0 0 .203-.308l.001-.004c.065-.165.136-.305.22-.437l-.006.011c.081-.149.166-.298.251-.448a.976.976 0 0 1 .093-.152l-.002.002c.093-.119.167-.259.215-.41l.003-.009c.047-.128.102-.238.167-.341l-.004.007c.084-.102.163-.216.231-.337l.006-.012a.977.977 0 0 1 .174-.3l-.001.001a.173.173 0 0 0 .033-.103v-.007a.087.087 0 0 0-.03-.065c-.028-.022-.058.002-.082.028zM3.797 10.466a.084.084 0 0 0 .018-.052l-.002-.018v.001c0-.016-.042-.04-.049-.036a.099.099 0 0 0-.052.056v.001l-.001.016c0 .022.003.043.01.063v-.001c.027-.009.058-.01.076-.028zm2.839.482c.012.015.039.019.06.028a.442.442 0 0 0 .034-.097l.001-.003-.049-.024c-.046.019-.067.069-.045.095zm.163-1.309c.025-.1.112-.176.112-.283 0-.018.027-.037.04-.057a.478.478 0 0 0 .044-.069l.001-.002c.027-.06.024-.11 0-.112s-.066.037-.085.067-.03.103-.064.122c-.112.067-.127.185-.186.277a3.453 3.453 0 0 1-.273.422l.006-.009a.982.982 0 0 0-.111.205l-.002.007a.166.166 0 0 0 0 .065v-.001c.025 0 .052.007.064 0a.95.95 0 0 0 .108-.112l.001-.002c.077-.125.155-.232.24-.334l-.003.004a.414.414 0 0 0 .108-.187l.001-.003zm1.602 1.08a.792.792 0 0 0-.147.17l-.002.003c-.008.022-.012.048-.012.075s.004.052.013.076l-.001-.002c0 .013.049.031.069.025a.332.332 0 0 0 .185-.297l-.001-.029v.001a.061.061 0 0 0-.103-.022zm4.144-2.825-.033.054a.116.116 0 0 0 .049.018h.001c.01 0 .019-.021.034-.04zm-.377 2.085.013.001c.03 0 .057-.01.078-.028.092-.115.187-.23.267-.352s.17-.289.252-.436c.037-.064.063-.136.103-.198.107-.172.221-.342.333-.512a.31.31 0 0 0 .04-.055l.001-.001a5.47 5.47 0 0 1 .373-.694l-.014.023c.076-.197.169-.367.281-.523l-.005.007c.013-.015.012-.043.021-.066s0-.054-.03-.067a.055.055 0 0 0-.029-.008c-.02 0-.038.01-.048.026a2.465 2.465 0 0 0-.095.14l-.28.47a.482.482 0 0 0-.045.069l-.001.003a2.684 2.684 0 0 1-.254.457l.006-.009c-.07.121-.13.249-.197.371-.039.07-.091.134-.124.206a1.506 1.506 0 0 1-.185.32l.003-.004a1.426 1.426 0 0 0-.166.236l-.004.007a.864.864 0 0 1-.189.264.35.35 0 0 0-.074.084l-.001.001c-.036.07-.063.149-.095.219.025.019.045.048.067.049zm-.892.236a.505.505 0 0 0 .221-.227l.001-.003c.027-.079.056-.147.09-.211l-.004.008c.041-.097.088-.18.144-.257l-.002.004c.092-.123.17-.265.227-.416l.004-.012c.054-.15.122-.279.205-.398l-.004.005c.045-.058.079-.128.128-.184a.15.15 0 0 0 0-.226 1.687 1.687 0 0 0-.379.572l-.004.011a.294.294 0 0 1-.032.064l.001-.001-.298.492c-.08.148-.166.275-.263.394l.004-.004a.448.448 0 0 0-.103.351v-.002a.05.05 0 0 0 .064.04zm1.429-2.397c.054-.095.104-.192.164-.286a.108.108 0 0 0-.008-.13c0-.009-.021-.013-.03-.019s-.025.009-.03.016c-.073.125-.149.252-.215.38 0 .022.012.04.03.051.028.013.064.03.088-.012zM2.536 11.37c.051-.085.101-.172.149-.255s.13-.166.179-.257a4.86 4.86 0 0 1 .31-.544l-.011.018a.123.123 0 0 0-.015-.14c-.042-.024-.085 0-.13.057a.384.384 0 0 0-.032.044l-.001.002c-.087.149-.173.289-.261.434s-.17.279-.254.421zm12.731-2.307a.592.592 0 0 1 .012-.025v.001c.026-.113.062-.213.109-.306l-.003.007-.057-.206v.015c-.055.094-.118.184-.17.277a1.616 1.616 0 0 0-.097.204l-.004.012c-.021.048.01.081.048.104a.088.088 0 0 0 .107-.014.262.262 0 0 0 .054-.07l.001-.001zM2.256 10.312v-.003a.087.087 0 0 0-.031-.067l.028.097c0-.01.001-.019.003-.028v.001zM7.767 9.25a.074.074 0 0 0 .051-.071.087.087 0 0 0-.005-.028v.001c0-.009-.019-.013-.027-.018a.08.08 0 0 0-.053.102v-.001a.042.042 0 0 0 .032.015h.002zm-4.246 1.474a.687.687 0 0 0-.067.076l-.001.002a3.826 3.826 0 0 1-.286.436l.007-.009a.98.98 0 0 0-.085.122l-.003.005c-.081.149-.157.298-.234.448l-.073.137c.048.035.091.07.131.107l-.001-.001c.149-.233.255-.48.41-.707.027-.039.037-.087.061-.127.054-.115.11-.213.174-.305l-.004.007a.15.15 0 0 0 .028-.151v.001c.003-.012-.033-.022-.057-.04zm4.953-1.255a.657.657 0 0 0 .043-.136l.001-.004-.045-.058a.232.232 0 0 0-.05.043.748.748 0 0 0-.061.104l-.002.004a.054.054 0 0 0-.008.028c0 .024.017.045.039.051h.008c.03 0 .056-.013.075-.033zm3.973-1.263c0-.031.012-.061.016-.092v-.001a.026.026 0 0 0-.01-.02c-.004-.002-.008-.003-.013-.003s-.009.001-.013.003c-.052.063-.149.101-.139.197.016 0 .034.007.052.009.081.01.1-.007.106-.092zm-3.861 2.443a.12.12 0 0 0 .044-.053v-.001a.399.399 0 0 1 .128-.196l.001-.001a.252.252 0 0 0 .047-.083l.001-.002a.237.237 0 0 1 .036-.075v.001c.077-.095.151-.201.217-.313l.007-.012c.072-.139.154-.259.249-.367l-.002.002a.099.099 0 0 0 .022-.035v-.001l.101-.23a.112.112 0 0 1 .041-.05c.084-.051.072-.127.064-.198 0-.037-.034-.042-.064-.031a.204.204 0 0 0-.048.033.69.69 0 0 0-.192.285l-.002.005c-.04.101-.09.189-.151.268l.002-.002a1.134 1.134 0 0 0-.082.151l-.003.007c-.047.11-.104.205-.172.291l.002-.003a1.98 1.98 0 0 0-.31.502l-.005.013c-.007.013-.013.029-.019.045l-.001.002c.004.063.052.079.087.051zm-.5-1.884c0-.016 0-.039-.018-.045a.06.06 0 0 0-.015-.002.062.062 0 0 0-.036.012.495.495 0 0 0-.148.222l-.001.004v.037c0 .019.045.012.06 0a.28.28 0 0 0 .158-.227v-.001zm.507.373a.093.093 0 0 0 .031-.028c.116-.16.236-.321.349-.483a.298.298 0 0 0 .047-.111v-.002c0-.013-.022-.031-.036-.046-.021.013-.037.018-.045.028-.122.163-.245.325-.364.491a.41.41 0 0 0-.052.112l-.001.003c0 .01.015.031.028.042s.028.002.04-.004zm.822 1.529a.086.086 0 0 0 .113-.037c.036-.053.071-.114.102-.178l.004-.009c.064-.176.131-.323.209-.465l-.009.017c.026-.041.053-.09.077-.141l.004-.009a.642.642 0 0 1 .108-.163c.057-.069.107-.147.146-.23l.003-.007c.087-.206.194-.383.323-.543l-.003.004a.257.257 0 0 0 .049-.083l.001-.002a.901.901 0 0 1 .19-.32l-.001.001c.104-.136.197-.291.274-.454l.007-.016a.29.29 0 0 0 .015-.091c-.018-.021-.031-.046-.048-.048a.078.078 0 0 0-.057.033 2.343 2.343 0 0 0-.157.263l-.007.014c-.08.211-.203.391-.359.535l-.001.001a.174.174 0 0 0-.05.067v.001a1.36 1.36 0 0 1-.195.342l.002-.003a1.885 1.885 0 0 0-.21.338l-.005.011c-.07.14-.16.273-.216.421a.424.424 0 0 1-.032.064l.001-.002c-.079.127-.163.254-.239.383-.03.055-.056.119-.077.186l-.002.008a.076.076 0 0 0 .041.109h.001zm.496-2.281c0-.016-.025-.033-.043-.045a.095.095 0 0 0-.036.03 2.07 2.07 0 0 0-.095.172.7.7 0 0 0-.031.106l-.001.005c.028 0 .048.018.06.012a.234.234 0 0 0 .069-.051.255.255 0 0 0 .077-.23v.002zm.479 2.057a.475.475 0 0 1 .088-.15v.001c.056-.055.1-.12.131-.193l.001-.004a2.13 2.13 0 0 1 .171-.268l-.004.006a.583.583 0 0 0 .04-.07l.002-.003c.024-.051.04-.104.069-.149.112-.212.217-.387.33-.556l-.014.021c.074-.1.144-.214.205-.334l.006-.014c.034-.072.079-.14.116-.209l.098-.187c.046-.087.092-.175.149-.258s.119-.178.173-.269a.328.328 0 0 0 .034-.12v-.001c0-.039-.036-.064-.101-.042a1.24 1.24 0 0 0-.069.079c-.149.206-.236.448-.407.647a.628.628 0 0 0-.063.121l-.001.004a4.838 4.838 0 0 1-.131.234 1.182 1.182 0 0 0-.171.26l-.003.007a.717.717 0 0 1-.15.259l.001-.001a.578.578 0 0 0-.059.092l-.002.004c-.067.119-.13.239-.198.357-.052.089-.118.173-.166.266a4.465 4.465 0 0 1-.186.446l.012-.026c-.002.004-.003.009-.003.013l.003.014c.009.019.019.048.036.052h.007a.066.066 0 0 0 .055-.03zm-.754-1.529a.403.403 0 0 0 .016-.058l.001-.003a.138.138 0 0 0-.059-.012h-.003c-.015 0-.027.024-.036.039s-.022.066.015.082.054-.019.066-.048z"/><path d="M8.577 12.262H8.56a.882.882 0 0 1-.322-.06l.006.002c-.588-.231-.934-1.061-.83-1.974.128-1.1.864-1.851 1.966-2.01.162-.025.35-.04.541-.04h.038c1.139 0 2.123.663 2.587 1.624l.007.017a.417.417 0 0 1-.139.493l-.001.001c-.5.366-2.217 1.578-3.372 1.877-.139.04-.299.066-.464.07h-.002zM9.92 9.017c-.149 0-.296.012-.439.033l.016-.002a1.689 1.689 0 0 0-.223.045l.013-.003a1.37 1.37 0 0 0-1.044 1.232v.004c-.072.606.164 1.044.298 1.1.009.002.019.002.03.002s.021-.001.031-.003h-.001c.436 0 1.74-.685 3.009-1.575a2.01 2.01 0 0 0-1.63-.835l-.06.001h.003z"/><path d="M9.002 12.031a1.152 1.152 0 0 1-.375.061c-.115 0-.226-.016-.33-.047l.008.002c-.509-.201-.819-.974-.722-1.79.119-1.019.8-1.714 1.822-1.862 2.229-.319 2.984 1.48 2.994 1.492a.25.25 0 0 1-.083.298l-.001.001c-.412.295-2.171 1.55-3.314 1.845zm.248-3.105a1.552 1.552 0 0 0-1.171 1.376v.005c-.075.628.157 1.18.41 1.277.409.161 2.025-.728 3.361-1.681-.225-.379-.904-1.234-2.375-1.022a2.016 2.016 0 0 0-.239.048l.014-.003z"/><path d="M14.654 10.912a20.39 20.39 0 0 1-2.42-.169l.101.011a.418.418 0 0 1-.362-.362v-.002c0-.021-.222-2.089 2.002-2.939.262-.104.565-.166.882-.169h.001a2.2 2.2 0 0 1 1.806.967l.005.008c.534.746.631 1.641.23 2.129a1.29 1.29 0 0 1-.698.378l-.008.001a6.252 6.252 0 0 1-1.548.148h.008zm-1.841-.945c.556.064 1.203.102 1.858.104h.004c1.104 0 1.513-.137 1.58-.218.095-.116.09-.615-.266-1.11a1.41 1.41 0 0 0-1.13-.628h-.002a1.68 1.68 0 0 0-.596.12l.011-.004c-1.143.433-1.404 1.27-1.459 1.735z"/><path d="M16.151 10.6c-1.143.298-3.29.051-3.794-.013a.25.25 0 0 1-.216-.217v-.001c0-.019-.212-1.96 1.895-2.76a2.039 2.039 0 0 1 2.492.739l.005.007c.483.673.585 1.499.237 1.922a1.173 1.173 0 0 1-.61.323l-.007.001zm-3.519-.482c1.631.187 3.473.182 3.752-.149.175-.21.11-.803-.258-1.316a1.554 1.554 0 0 0-1.924-.568l.01-.004c-1.382.516-1.565 1.598-1.58 2.036z"/><path d="M11.441 16.803a.417.417 0 0 1-.4-.528l-.001.003c.182-.686.095-1.432.012-2.153-.113-.982-.231-1.995.258-2.984.54-1.091.774-1.205.985-1.235l.033-.001.034.001h-.002.003c.133 0 .253.057.337.149 1.565 1.747 1.902 3.746 2.26 5.862a.419.419 0 0 1-.304.474l-.003.001h-.034l-.035.001-.037-.001h.002a.417.417 0 0 1-.411-.347v-.002c-.313-1.853-.612-3.607-1.774-5.101-.095.158-.206.36-.298.559-.388.779-.289 1.628-.185 2.523.092.801.188 1.626-.034 2.468a.42.42 0 0 1-.404.312z"/><path d="M14.609 16.23h-.021a.248.248 0 0 1-.286-.203v-.002c-.331-1.944-.643-3.792-1.956-5.356a6.45 6.45 0 0 0-.43.734l-.018.039c-.401.807-.298 1.68-.192 2.603.091.783.185 1.593-.028 2.403a.25.25 0 0 1-.49-.064.24.24 0 0 1 .009-.066v.002c.189-.718.101-1.48.016-2.217-.112-.955-.227-1.939.24-2.884.546-1.1.746-1.126.856-1.141a.294.294 0 0 1 .258.093c1.531 1.71 1.865 3.685 2.22 5.777a.25.25 0 0 1-.176.281h-.002z"/><path fill="none" stroke="#000" stroke-linejoin="round" stroke-linecap="round" stroke-width=".895" d="M.448 19.247h25.553v5.084H.448zm0 7.221h25.553v5.084H.448zm25.553-2.135 5.99-3.83v-4.899l-5.99 3.643"/><path fill="none" stroke="#000" stroke-linejoin="round" stroke-linecap="round" stroke-width=".895" d="m26.001 31.538 5.99-3.828v-4.901l-5.99 3.645"/><path d="M27.824 26.45c.009-.039-.045-.082-.075-.13-.216.13-.222.269-.036.416.169-.07.091-.189.11-.286zm-.255-.491a.198.198 0 0 0 .148.231h.001c.025-.028.064-.052.073-.081a2.466 2.466 0 0 0 .034-.928l.002.014c0-.028-.069-.055-.142-.11a1.301 1.301 0 0 0-.083.247l-.002.009a7.046 7.046 0 0 0-.031.613v.005zm.142-1.044a.274.274 0 0 0 .127-.232l-.001-.02v.001-.597c-.01-.251-.033-.501-.052-.746a.529.529 0 0 0-.048-.119l.001.003c-.14.052-.14.119-.149.183-.015.386-.031.771-.037 1.158a.402.402 0 0 0 .157.367l.001.001zm-.146 2.174c.027.206.091.409.016.619-.033.091 0 .197.149.254a.287.287 0 0 0 .075-.248v.002c0-.157.015-.313.021-.47a1.697 1.697 0 0 0-.001-.262v.006c0-.039-.043-.075-.081-.133-.154.067-.192.136-.181.233zm.047 2.828a.691.691 0 0 0 .112.111l.001.001a1.28 1.28 0 0 0 .042-.17l.001-.009c.021-.228.051-.448.057-.683v-.998c0-.024-.057-.049-.128-.106-.03.06-.056.131-.074.204l-.002.008a4.772 4.772 0 0 0-.025.468c0 .357 0 .713.009 1.07-.002.01-.002.022-.002.035 0 .025.004.049.01.072v-.002zm-.049-9.855a.398.398 0 0 1-.034.395l.001-.001a.147.147 0 0 0-.011.086v-.001a2.661 2.661 0 0 0 .014.525l-.001-.013a3.37 3.37 0 0 1 .012.633l.001-.011v.014c0 .078.004.155.013.231l-.001-.009a.813.813 0 0 1-.014.304l.001-.005a.598.598 0 0 0 .027.303l-.001-.004c.012.051.073.088.183.046a1.52 1.52 0 0 0 .037-.215l.001-.007c.009-.227.009-.455.013-.682 0-.298 0-.583.022-.873.022-.255-.078-.507 0-.764.019-.064-.051-.149-.082-.215-.163.052-.221.155-.181.264zm.169 2.615c-.249.142-.248.228-.015.364a.228.228 0 0 0 .015-.364zm-.173-4.177-.027.013-.001.014.001.015v-.001l-.001.049c0 .126.013.249.039.367l-.002-.011a.406.406 0 0 1 .006.301l.001-.003a.325.325 0 0 0 .147.427l.002.001a.55.55 0 0 0 .091-.171l.001-.004q.049-.413.075-.829v-.012a.4.4 0 0 0-.031-.155l.001.003zm-1.549 5.357a.429.429 0 0 0-.025.067l-.001.005c-.034.172.048.342 0 .513v.018a.516.516 0 0 1 .021.39l.001-.004a.358.358 0 0 0 .124.351l.001.001c.052-.051.097-.076.103-.103.022-.1.042-.225.055-.352l.001-.015a17.483 17.483 0 0 0 .052-.749c0-.035-.001-.071-.004-.106v.005c0-.054-.033-.103-.149-.106s-.16.03-.181.087zm.042 1.704a1.167 1.167 0 0 1-.008.338l.001-.007v.835a.23.23 0 0 0 .108.234l.001.001a.207.207 0 0 0 .141-.239v.001q.012-.583.009-1.171c0-.066.018-.139-.113-.192-.112.054-.157.128-.139.2zm.156-2.151c-.213.091-.221.106-.084.237.228-.106.233-.124.084-.237zm-.173 4.308c0 .166-.03.331-.031.497 0 .222.009.448.022.667 0 .076-.018.163.163.225.037-.076.066-.164.083-.256l.001-.006a51.88 51.88 0 0 0 0-1.578c0-.046-.039-.093-.073-.172-.169.133-.169.133-.169.231.004.125.01.261.004.392zm-.047 2.586c.039.11.061.237.061.368-.012.118-.025.237-.034.355.037 0 .073.012.112.021l.198.049a1.95 1.95 0 0 1 .002-.643l-.002.011c.019-.085.085-.169.06-.254a2.368 2.368 0 0 1-.092-.762v.004c0-.054-.018-.11-.149-.16a.383.383 0 0 0-.129.371v-.002a.445.445 0 0 1 .015.205v-.003a.887.887 0 0 0-.039.442l-.001-.005zm.032-8.6c0 .03.031.066.012.091a.53.53 0 0 0-.073.437l-.001-.004c.012.104.018.209.022.313v.166c0 .157 0 .315.012.471 0 .052.069.088.179.093.215-.149.179-.336.14-.503-.082-.346-.009-.692-.018-1.044 0-.176.04-.357.037-.536 0-.254-.019-.507-.019-.761 0-.179.03-.358.03-.537 0-.158-.016-.313-.044-.463l.002.015c0-.043-.075-.084-.149-.149-.067.057-.106.075-.112.095a2.016 2.016 0 0 0-.05.28l-.001.009c-.007.085 0 .172 0 .258 0 .166-.027.333-.016.498a3.48 3.48 0 0 1-.003 1.013l.002-.019v.012c0 .094.018.185.05.268l-.002-.005zm3.333 3.089c0-.033-.039-.066-.066-.109-.158.072-.17.167-.149.258a1.67 1.67 0 0 1-.002.631l.002-.011c-.024.246-.033.492-.042.737a.335.335 0 0 0 .097.285c.033-.015.061-.019.063-.028.134-.585.076-1.176.097-1.763zm-.003 4.281c0-.291.013-.583.007-.876-.01-.413-.033-.825-.052-1.238a.204.204 0 0 0-.086-.204h-.001c-.039.045-.07.066-.076.088-.02.068-.033.147-.039.228v.003c0 .358 0 .715-.01 1.071s0 .701-.013 1.052v.012zm-.143-4.542c.042-.028.097-.049.101-.073.012-.078.063-.166-.076-.231-.109.139-.109.139-.025.304zm.009-.96a.211.211 0 0 0 .122-.238v.001c0-.049-.015-.1-.11-.115-.148.152-.151.181-.012.352zm.025-1.863a.328.328 0 0 0 .071-.301v.002c-.015-.095.058-.21-.127-.298-.146.222-.084.41.055.597zm.041.914c.183-.219.03-.436.066-.645.01-.055-.018-.11-.095-.149-.16.107-.173.149-.149.516.003.1-.01.207.179.277zm.031.157a.072.072 0 0 0-.06-.031.144.144 0 0 0-.088.035c-.087.109-.073.215.057.334.169-.115.116-.227.091-.337zm-.082.873c-.188.169-.125.313 0 .468.107-.079.115-.079.112-.149-.007-.101.055-.213-.112-.319zm.136-4.621-.11-.085h-.015a.214.214 0 0 0-.126.235v-.001 1.031c0 .017.003.033.008.049v-.001a.558.558 0 0 1-.013.323l.001-.004a1.095 1.095 0 0 0-.01.325v-.005c0 .03.052.058.094.1a.298.298 0 0 0 .101-.207v-.001l-.001-.057c0-.138.015-.273.043-.403l-.002.012c.125-.406.045-.813.04-1.22l.002-.025a.214.214 0 0 0-.011-.067v.001z"/><path d="M26.249 22.125c.294.281.66.488 1.068.593l.017.004c.061.016.149.039.164.069.067.113.24.173.373.255.14.103.303.189.477.248l.013.004c.118.158.462.197.609.345a.366.366 0 0 0 .29.026l-.003.001c.067-.03.057-.098-.042-.149-.2-.121-.409-.237-.612-.357a2.93 2.93 0 0 0-.247-.151l-.015-.007a7.143 7.143 0 0 1-1.376-.81l.018.013a1.198 1.198 0 0 0-.543-.202l-.006-.001c-.186-.013-.261.046-.185.119zm4.484 1.062a.326.326 0 0 0 .131.101l.002.001a.58.58 0 0 0 .199-.013l-.004.001c.012 0 .018-.022.025-.033-.015-.064-.182-.122-.298-.098-.025.006-.064.034-.055.042zm-3.44-3.389c-.27-.127-.558-.242-.809-.382a2.065 2.065 0 0 0-.334-.119l-.016-.004a.292.292 0 0 0-.069.02l.002-.001c-.012.007-.018.027 0 .034.046.036.136.067.14.104.013.09.115.134.221.189.172.075.319.156.457.249l-.01-.006c.192.161.488.261.7.409.198.132.426.254.665.355l.027.01c.251.109.427.258.715.351.161.051.269.161.461.207a.08.08 0 0 1 .059.046c.027.084.13.121.267.136.079.009.127.022.124.076a.096.096 0 0 0 .061.085h.001c.169.064.282.166.448.219.15.05.279.124.391.216l-.002-.002c.202.143.437.292.681.427l.04.02c.098.05.218.101.341.143l.02.006a.47.47 0 0 0 .134.022h.001c.11 0 .181-.051.134-.104a.335.335 0 0 0-.057-.049l-.001-.001c-.367-.212-.734-.425-1.104-.634-.054-.031-.16-.04-.194-.073a1.96 1.96 0 0 0-.732-.398l-.014-.003a.117.117 0 0 1-.059-.043c-.1-.163-.354-.252-.561-.364-.431-.233-.868-.461-1.295-.695-.289-.14-.536-.312-.832-.451zm-1.199.917a.072.072 0 0 0 .043.085c.207.072.267.24.556.26.015 0 .031.018.04.03.149.185.419.298.689.437.509.238.927.465 1.33.714l-.056-.032c.263.167.597.272.877.424.049.019.105.03.163.031h.001c.172.01.26-.049.179-.13a.956.956 0 0 0-.221-.147l-.006-.002c-.21-.106-.428-.207-.643-.31-.448-.218-.8-.498-1.296-.695a.438.438 0 0 1-.15-.087c-.142-.14-.391-.206-.63-.276a.72.72 0 0 1-.213-.093l.003.002a4.43 4.43 0 0 0-.468-.235l-.031-.012a.391.391 0 0 0-.086-.009c-.021.013-.079.028-.082.046zm3.893 2.111c.107.055.236.098.377.149.043-.042.098-.07.09-.091a.387.387 0 0 0-.297-.182h-.001a.29.29 0 0 0-.162.015l.002-.001c-.021.037-.036.097-.009.109zm-3.789 2.038c.04.038.091.065.147.077h.002c.246.064.459.179.638.333l-.002-.002a.797.797 0 0 0 .348.178l.005.001c.094.018.167.045.185.106s.109.095.273.098c.022-.007.116-.018.127-.042s-.034-.072-.079-.095-.178-.048-.215-.087c-.26-.274-.779-.433-1.026-.713a.352.352 0 0 0-.335-.065l.002-.001c-.106.034-.146.137-.07.21zm1.534-.614c.044.037.093.072.144.103l.005.003c.054.033.119.061.173.095.191.122.367.252.576.366.242.119.449.247.643.391l-.011-.008a.497.497 0 0 0 .118.07l.003.001a.361.361 0 0 0 .3-.001l-.002.001a.085.085 0 0 0 .042-.073.088.088 0 0 0-.015-.048 1.122 1.122 0 0 0-.269-.222l-.005-.003c-.367-.204-.746-.398-1.125-.597-.085-.045-.149-.098-.245-.142a1.19 1.19 0 0 0-.166-.057l-.01-.002c-.157.002-.218.064-.157.122zm-1.738-.903c0 .097.106.142.219.182.298.101.597.203.895.298a.454.454 0 0 0 .134 0h-.003c0-.022 0-.049-.015-.066a2.72 2.72 0 0 0-.243-.178l-.011-.006a16.625 16.625 0 0 0-.542-.334.346.346 0 0 0-.3-.02l.002-.001c-.061.028-.091.084-.137.125zm5.634.453a.628.628 0 0 1 .255-.125l.004-.001c-.173-.106-.343-.215-.527-.315a.218.218 0 0 0-.221.017h.001c-.063.045-.055.113.042.133.149.03.195.078.23.149a.328.328 0 0 0 .213.141h.002zm-2.052 2.792a.443.443 0 0 0 .127-.028l-.003.001c-.04-.057-.052-.106-.103-.137a8.753 8.753 0 0 0-.543-.309c-.246-.125-.559-.21-.746-.373a.142.142 0 0 0-.048-.027h-.001a.499.499 0 0 0-.164 0h.003c-.039.013-.081.06-.066.079a.297.297 0 0 0 .159.117l.002.001a.299.299 0 0 1 .198.12l.001.001a.7.7 0 0 0 .212.124l.005.002c.268.108.498.228.713.367l-.017-.01a.792.792 0 0 0 .268.073h.003zm.762-.782c.094.043.215.09.339.13l.026.007c.073-.018.14-.025.149-.042a.066.066 0 0 0 .009-.032.064.064 0 0 0-.028-.053q-.413-.242-.84-.476c-.052-.028-.115-.088-.198-.045a.112.112 0 0 0-.046.128v-.001c0 .036.051.073.095.101.161.095.321.192.494.282zm.112-5.689a.294.294 0 0 0-.251.012l.002-.001c-.051.052-.025.1.049.14a.79.79 0 0 0 .417.069h-.003c.027-.101-.066-.169-.213-.219zm.236.332c.045.029.1.046.16.046h.006c.043 0 .13-.039.125-.051a.178.178 0 0 0-.106-.086h-.001a.866.866 0 0 0-.175-.017h-.025.001c.002.037-.013.079.015.107zm-.015-.108h-.007zm-3.151 3.609a.359.359 0 0 0-.111.069c.058.026.132.053.208.076l.016.004c.015 0 .07-.042.094-.055a.18.18 0 0 0-.209-.094h.001zm3.835.728c-.125-.084-.298-.137-.437-.215a8.27 8.27 0 0 1-.896-.509l.032.02a2.684 2.684 0 0 0-.429-.215l-.018-.006a.846.846 0 0 0-.154-.028h-.003c-.018.031-.058.064-.042.082.062.067.13.127.203.179l.004.003c.209.149.488.258.661.427a.996.996 0 0 0 .393.213l.007.002c.233.069.364.207.631.246l.007-.001.008.001v-.011c0-.067.012-.131.034-.191l-.001.004zm-4.484 1.638a1.44 1.44 0 0 0-.325-.244l-.007-.004a1.085 1.085 0 0 0-.345-.055h-.015.001c-.034 0-.113.052-.112.079.007.149.418.355.676.349.112-.003.191-.069.128-.125zm-.315 4.272c.129.043.235.086.338.136l-.017-.007q.14-.134.291-.26a1.305 1.305 0 0 1-.073-.057c-.181-.149-.485-.221-.801-.26-.09-.01-.183.036-.157.078a.769.769 0 0 0 .414.368l.005.002zm4.419-4.566c-.007.052.098.098.215.094a.152.152 0 0 0 .063-.029c-.015-.067-.118-.115-.218-.104-.024.003-.057.024-.06.039zm-1.762-6.654a1.905 1.905 0 0 0-.244-.153l-.011-.005c-.316-.158-.64-.31-.961-.465-.16-.078-.322-.149-.476-.231a12.57 12.57 0 0 1-.31.149.275.275 0 0 1 .067.031l-.002-.001c.5.285 1.076.527 1.556.824.076.048.189.078.272.124.206.115.473.194.642.33a.587.587 0 0 0 .313.089l.029-.001h-.001a.445.445 0 0 0 .151-.059l-.002.001a.855.855 0 0 0-.146-.114l-.004-.002a9.025 9.025 0 0 1-.905-.535l.032.02zm.73 7.491c.088.039.195.075.304.103l.015.003.179-.037a.409.409 0 0 0-.075-.08l-.001-.001a1.698 1.698 0 0 0-.217-.116l-.012-.005a.216.216 0 0 0-.219.012h.001a.084.084 0 0 0 .024.12zm-3.024-.277a.24.24 0 0 0 .101.077l.002.001a.872.872 0 0 1 .401.235.627.627 0 0 0 .179.09l.004.001a.939.939 0 0 1 .166.076l-.005-.002c.189.139.403.273.627.392l.028.014c.24.149.555.267.728.448a.214.214 0 0 0 .072.041h.002c.167.072.337.14.503.213.041.015.074.04.1.073.069.127.264.137.448.149.094.007.125-.031.119-.075s-.028-.048-.048-.072a1.548 1.548 0 0 0-.586-.352l-.011-.003a2.8 2.8 0 0 1-.567-.304l.009.006a2.8 2.8 0 0 0-.315-.16l-.019-.007c-.206-.106-.464-.195-.597-.324-.27-.251-.692-.404-1.068-.597a.867.867 0 0 0-.1-.04l-.006-.002c-.143.012-.215.066-.167.121zm5.051.028a.259.259 0 0 0 .124-.001h-.002a.055.055 0 0 0 .012-.071c-.087-.125-.279-.198-.459-.277l-.048-.002-.05.002h.002c-.016.024-.063.054-.052.076a.597.597 0 0 0 .472.271h.001zm-1.283.522a.113.113 0 0 0 .049.05h.001c.319.209.639.419.965.625a.935.935 0 0 0 .244.101l.007.002a.514.514 0 0 0 .153-.031l-.003.001c-.019-.033-.021-.055-.042-.069a58.677 58.677 0 0 0-.973-.648 1.127 1.127 0 0 0-.242-.105l-.008-.002-.021-.001a.258.258 0 0 0-.104.022l.002-.001a.045.045 0 0 0-.027.041l.002.013zm-4.374.676c.104.065.228.132.357.192l.022.009c.413.148.746.291 1.07.45l-.06-.027c.083.049.185.102.289.15l.021.009c.128.054.238.121.337.201l-.003-.002c.141.104.301.198.472.274l.016.006.267.125.307-.149a5.319 5.319 0 0 0-.526-.284l-.034-.015c-.298-.14-.571-.306-.903-.43a1.143 1.143 0 0 1-.14-.067l.006.003c-.264-.149-.521-.298-.792-.448a3.045 3.045 0 0 0-.407-.167l-.023-.006a.333.333 0 0 0-.293.017l.002-.001c-.076.051-.07.11.015.158zm-.128 1.182c.126.042.236.1.334.172l-.003-.002c.113.101.246.183.391.24l.009.003c.209.101.385.204.553.318l-.015-.009c.049.028.1.055.149.081.091.04.189.078.28.119.087-.06.175-.118.263-.175-.103-.052-.207-.104-.309-.158-.188-.1-.351-.216-.548-.309-.298-.139-.659-.222-.929-.377a.124.124 0 0 0-.058-.014h-.006a.423.423 0 0 0-.152.028l.003-.001c-.019.016.003.067.037.084z"/><path fill="none" stroke="#000" stroke-linejoin="round" stroke-linecap="round" stroke-width=".58" d="M.727 24.373v2.095m5.412-2.095v2.095"/><path fill="none" stroke="#000" stroke-linejoin="round" stroke-linecap="round" stroke-width=".895" d="M20.397 24.373v2.095m5.413-2.095v2.095"/><path fill="none" stroke="#000" stroke-linejoin="round" stroke-linecap="round" stroke-width=".616" d="M28.133 23.031v2.068"/><path fill="none" stroke="#000" stroke-linejoin="round" stroke-linecap="round" stroke-width=".58" d="M31.393 20.885v2.287"/><path fill="none" stroke="#000" stroke-linejoin="round" stroke-linecap="round" stroke-width=".616" d="M29.14 22.326v2.047M.448 19.247l1.458-.989m30.085-2.654h-2.693"/><path d="M17.605 30.251a.693.693 0 0 1-.154.043l-.004.001q-.697.028-1.395.054h-.437c-.368 0-.746.027-1.107.025-.746 0-1.492.015-2.227.04-.207 0-.419 0-.63-.007a16.404 16.404 0 0 0-1.727.011l.044-.002a1.731 1.731 0 0 1-.305-.001h.007c-.61-.054-1.223-.009-1.835-.013-.531 0-1.064-.016-1.593-.036-.26-.01-.507-.019-.771-.007s-.568 0-.859.016c-.461.024-.922.067-1.396.049-.289-.012-.582 0-.873-.009a11.239 11.239 0 0 0-1.076.006 1.91 1.91 0 0 1-.548-.079l.014.003c-.109-.034-.201-.072-.149-.131a.443.443 0 0 1 .331-.1H.913c.064 0 .128 0 .192.007.448.013.895.036 1.355.039.63 0 1.264-.028 1.886 0 .421.016.831-.01 1.25 0 .448.019.904 0 1.356 0 .258 0 .516.009.774 0 .577 0 1.155-.01 1.734-.01s1.131.009 1.696.012h.576l2.269-.028c.582-.007 1.164-.016 1.746-.021h1.311c.218.012.468.012.549.137zM4.652 23.977c.075-.149.079-.16.318-.14a2.108 2.108 0 0 0 .528-.019l-.012.002a2.011 2.011 0 0 1 .628.014l-.012-.002a.817.817 0 0 0 .374-.001l-.006.001a.56.56 0 0 1 .188-.015h-.002a1.728 1.728 0 0 0 .701-.017l-.012.002a.388.388 0 0 1 .144 0h-.002a2.823 2.823 0 0 0 .714.017l-.012.001a33.15 33.15 0 0 1 1.446-.015c.419 0 .837.019 1.256.03.149 0 .298.009.437 0 .807-.04 1.617 0 2.426-.016.952-.027 1.905.03 2.858.018.273 0 .549 0 .822.012.207 0 .379.033.395.139a1.737 1.737 0 0 1-.823.068l.01.001a6.173 6.173 0 0 0-.886.001l.02-.001a3.195 3.195 0 0 1-.831-.02l.018.002a.55.55 0 0 0-.191.001h.003a4.664 4.664 0 0 1-1.17.016l.021.002c-.71-.042-1.422-.025-2.133-.021-.501 0-1.001.031-1.501.034-.643 0-1.288-.009-1.931-.015a1.52 1.52 0 0 1-.241-.035l.01.002a1.02 1.02 0 0 0-.542-.01l.007-.002a.566.566 0 0 1-.153 0h.003l-1.089-.058a.459.459 0 0 0-.134 0h.003a3.223 3.223 0 0 1-.911.018l.015.002h-.277zm-.188-.072a1.188 1.188 0 0 1-.515.115H3.93h.001c-.352.007-.704.022-1.056.03-.659.013-1.32.028-1.98.036a1.859 1.859 0 0 1-.376-.041l.012.002c-.13-.025-.131-.095-.013-.128a.98.98 0 0 1 .214-.04h.004c.298-.019.597-.037.904-.046.403-.012.807-.018 1.21-.018s.804 0 1.204.021c.155.016.295.04.431.074l-.02-.004zm1.675 1.089a1.523 1.523 0 0 1-.229.045l-.008.001c-.245.013-.489.03-.734.024-.425-.01-.847.018-1.273.018-.298 0-.597-.015-.895 0-.448.024-.895-.013-1.343.058a4.204 4.204 0 0 1-.98.01l.018.002a.392.392 0 0 1-.094-.022l.003.001c-.078-.024-.149-.058-.139-.139s.085-.106.169-.112a2.661 2.661 0 0 1 .779.002l-.015-.002a2.545 2.545 0 0 0 .545.028h-.006c.246 0 .491-.01.736-.019.095-.005.183-.016.269-.032l-.013.002a3.084 3.084 0 0 1 .694-.036h-.009c.425.015.852.037 1.277.031a8.048 8.048 0 0 1 .979.029l-.031-.002a.513.513 0 0 1 .302.113l-.001-.001zM.925 31.421h.019a1.894 1.894 0 0 1 .501.028l-.012-.002c.118 0 .237.009.355.009.497 0 .994-.024 1.492-.031.125 0 .255.01.382.021a9.407 9.407 0 0 0 1.48-.016l-.036.003c.112-.01.228-.025.224-.085s-.124-.07-.24-.073c-.483-.012-.967-.028-1.45-.028s-1 .016-1.492.024l-.05.001c-.084 0-.167-.005-.248-.015l.01.001a3.959 3.959 0 0 0-1.098.042l.024-.004c-.064.067-.021.115.139.125zm10.336-.03a4.3 4.3 0 0 1-.675.069h-.005c-.597 0-1.194.01-1.79 0-.531-.007-1.062-.031-1.592-.051a1.47 1.47 0 0 1-.222-.036l.01.002c-.01-.088.149-.084.266-.09a20.646 20.646 0 0 1 2.31-.024l-.044-.002c.412.024.832.018 1.246.036.158.012.367-.007.498.095zm6.396 0a5.165 5.165 0 0 1-1.124.062h.013c-.413-.024-.832-.027-1.25-.037l-.062.002c-.152 0-.297-.027-.432-.076l.009.003a.388.388 0 0 1 .318-.103h-.002c.724 0 1.441-.067 2.169-.034.255.012.285.024.361.183zm-3.006-.016a1.237 1.237 0 0 1-.199.032h-.005c-.58 0-1.15.064-1.735.036-.254-.012-.512-.009-.767-.021a1.447 1.447 0 0 1-.249-.047l.01.002c.025-.081.16-.091.286-.095.225-.009.448-.016.679-.016h1.59c.158.002.325.007.389.109zm-9.076-.113c.298.016.562.028.827.048.043 0 .106.034.103.052s-.058.048-.106.054a2.078 2.078 0 0 1-.8-.013l.014.002c-.079-.018-.082-.024-.037-.143zm2.269-3.11c-.201.09-.468.069-.718.07a2.012 2.012 0 0 0-.287.001h.006a5.973 5.973 0 0 1-1.34.093h.011c-.746.015-1.492 0-2.238-.016-.676-.015-1.343-.054-2.029-.016a4.328 4.328 0 0 1-.592-.001l.014.001c-.085-.007-.201-.058-.206-.091s.1-.093.178-.098a8.25 8.25 0 0 1 .818-.033c.498.009.998 0 1.492.039.357.027.746 0 1.113 0 .418 0 .834-.04 1.256 0a3.59 3.59 0 0 0 .492-.001l-.011.001a4.891 4.891 0 0 1 .839.011l-.02-.002a2.22 2.22 0 0 0 .43-.011l-.011.001a1.55 1.55 0 0 1 .813.057l-.011-.003zm6.784-.009c.085-.093.258-.131.491-.13q1.164 0 2.326.018c.258 0 .43.046.448.163a1.992 1.992 0 0 1-.73.089h.006-2.08c-.246.002-.389-.049-.46-.14zm-.877-.013a.607.607 0 0 1-.155.07l-.004.001a2.89 2.89 0 0 1-.424.036h-.001c-.465 0-.931.046-1.399 0a2.939 2.939 0 0 0-.346.001h.008c-.113 0-.23 0-.339-.009-.209-.019-.227-.045-.136-.167a13.477 13.477 0 0 1 1.407-.031h-.02c.184.012.38 0 .571-.009l.078-.001c.271 0 .532.04.778.115l-.019-.005zm-4.401.027a2.197 2.197 0 0 1-.842.042l.012.001c-.058-.01-.122-.049-.119-.073s.087-.057.149-.061a1.619 1.619 0 0 1 .81.095l-.011-.004zm1.067-.017a1.16 1.16 0 0 1-.809.015l.008.003c.013-.06.101-.09.245-.098a.998.998 0 0 1 .563.083l-.006-.003zm-2.681 1.025c-.416.139-.448.14-1.022.063-.243.08-.524.126-.814.126l-.107-.002h.005c-.612 0-1.22.042-1.832.054-.286 0-.577-.015-.865-.028s-.574-.037-.864-.043c-.389-.007-.779 0-1.17 0H.824c-.252-.013-.374-.055-.364-.124s.216-.149.437-.149c.354.01.707.031 1.061.037.567.009 1.134.01 1.699.016.26 0 .518 0 .777.009h.242c.448 0 .904-.016 1.356-.016.188 0 .379.042.564.036s.363-.052.549-.07c.025-.002.054-.002.083-.002.183 0 .357.035.517.098l-.01-.003zm9.831.036a.615.615 0 0 1-.386.089h.003c-.613 0-1.225.016-1.841-.028a8.839 8.839 0 0 0-1.238.001l.028-.002a9.33 9.33 0 0 1-1.287-.025l.035.003a2.041 2.041 0 0 0-.482-.006l.009-.001a.663.663 0 0 1-.388-.059l.004.002a.044.044 0 0 1-.019-.071.277.277 0 0 1 .138-.042 9.11 9.11 0 0 0 1.228-.027l-.035.002a19.14 19.14 0 0 1 1.728.027c.149.01.324 0 .486 0 .448-.007.895-.019 1.343-.022.36 0 .47.03.674.158zm-8.805-.019a.535.535 0 0 1 .41-.122h-.003c.324 0 .649 0 .971-.012.021-.002.046-.002.071-.002.161 0 .313.037.448.102l-.006-.003c-.049.09-.243.104-.407.107H9.132a2.7 2.7 0 0 1-.388-.074l.018.004zm2.864-.014a1.462 1.462 0 0 1-.644.045l.008.001c-.063-.01-.149-.048-.149-.066a.244.244 0 0 1 .148-.082h.001a.801.801 0 0 1 .639.104l-.003-.002zm-1.069-7.317a.687.687 0 0 1-.462.104h.003c-.612-.012-1.235 0-1.835-.039a8.927 8.927 0 0 0-1.217.024l.033-.002c-.318.018-.644.012-.968.012-.366 0-.724-.052-1.103 0a4.236 4.236 0 0 1-.635 0l.014.001h-1.44c-.119 0-.236-.009-.349-.027l.013.002a1.153 1.153 0 0 0-.373.001l.007-.001c-.313.027-.633.045-.952.052l-.045.001a1.13 1.13 0 0 1-.496-.114l.007.003c.045-.082.179-.119.352-.118.416 0 .822-.06 1.253-.007a6.872 6.872 0 0 0 .782-.01l-.021.001 1.211-.012a7.165 7.165 0 0 1 .94.028l-.028-.002.059.001c.08 0 .158-.006.234-.019l-.008.001a9.498 9.498 0 0 1 2.154.004l-.044-.004a2.133 2.133 0 0 0 .293 0h-.007c.519 0 1.044-.021 1.553.024a2.939 2.939 0 0 0 .346-.001H9.82a2.029 2.029 0 0 1 .75.101l-.014-.004zm7.334.05a.764.764 0 0 1-.385.065h.003c-.562 0-1.131.024-1.69 0-.777-.028-1.55 0-2.324 0H12.29a2.892 2.892 0 0 1-.44-.036l.016.002c-.069-.012-.149-.06-.136-.09s.112-.064.188-.07c.139-.012.288 0 .434 0 .677-.007 1.343-.054 2.035-.034.561.015 1.129-.013 1.693-.01.483 0 .965.024 1.447.042.172 0 .17.012.364.131zm-7.178-.052c.316-.11.371-.107.673.024a1.118 1.118 0 0 1-.681-.026l.008.002zm1.016-1.171c.279-.013.549-.033.821-.04s.583 0 .876 0a.853.853 0 0 1 .153 0h-.003c.371.064.746.016 1.123.013s.771.022 1.159.031h.724c.277 0 .546.01.746.127-.09.024-.198.044-.309.056l-.009.001a9.888 9.888 0 0 1-1.179.017l.021.001c-.366-.025-.746-.022-1.113-.033-.588-.015-1.176 0-1.763.012-.336 0-.674-.019-1.01-.037-.16-.007-.291-.039-.236-.148zm-10.914.194c.015-.039 0-.1.055-.119.14-.045.307-.083.479-.107l.016-.002a1.364 1.364 0 0 1 .294.01l-.008-.001a7.454 7.454 0 0 0 .782-.001l-.018.001c.479-.021.965-.013 1.449-.016l.044-.001a.64.64 0 0 1 .146.016l-.004-.001c.073.03.149.069.163.107s-.107.061-.185.073a3.285 3.285 0 0 1-.33.019h-.001l-.958.051a.952.952 0 0 1-.195-.001h.004c-.401-.069-.798-.013-1.194 0a1.673 1.673 0 0 1-.55-.03l.011.002zm7.943-.148c.676-.075 1.279-.16 1.939.019a1.57 1.57 0 0 1-.299.081l-.009.001c-.531.018-1.085.091-1.631-.101zm-4.226.078-.113-.094a.287.287 0 0 1 .085-.031h.002c.395 0 .783-.052 1.183-.024.208.006.406.037.595.089l-.018-.004c.015.06-.061.088-.188.094-.354.013-.703.063-1.058-.021a2.66 2.66 0 0 0-.497-.009l.009-.001zm3.375-.097a1.245 1.245 0 0 1 .494-.017l-.007-.001c.046 0 .103.036.104.055s-.042.049-.088.061a.525.525 0 0 1-.504-.099l.001.001zm2.921-.011a.846.846 0 0 1 .547.061l-.005-.002c-.33.067-.33.067-.542-.058zm-6.203 2.225c-.061-.093.057-.125.246-.134.298-.013.615-.021.919-.04.354-.021.704 0 1.056 0 .597 0 1.194-.012 1.79 0 .728.009 1.455.03 2.181.052.149 0 .298.034.527.061a1.02 1.02 0 0 1-.241.082l-.007.001a7.585 7.585 0 0 1-1.221-.002l.027.002a2.425 2.425 0 0 0-.48 0l.01-.001c-.364.027-.737.045-1.107.046-.807 0-1.617.01-2.424 0a7.238 7.238 0 0 1-1.317-.074l.04.005zm-.179.021a4.389 4.389 0 0 1-.871.086l-.141-.002h.007c-.692 0-1.381 0-2.069.037a5.157 5.157 0 0 1-.544-.011l.016.001c-.212-.013-.352-.063-.376-.163a.827.827 0 0 1 .47-.101H.935l1.058-.012c.564-.007 1.126-.013 1.689-.024a1.79 1.79 0 0 1 .64.087l-.013-.004c.063.022.085.063.139.106zm8.183-.062c.06-.03.1-.07.149-.073a6.614 6.614 0 0 1 .82-.038h-.005c.422.018.834 0 1.252-.01l.061.001c.097 0 .192-.006.286-.018l-.011.001a4.156 4.156 0 0 1 1.064-.011l-.019-.002c.158.012.322 0 .483.012.224.007.448.021.536.131a3.323 3.323 0 0 1-.941.083h.008-2.653c-.298 0-.568-.03-.853-.036a.753.753 0 0 1-.183-.041l.006.002zm5.722-.009a1.44 1.44 0 0 1-.605.026l.009.001c-.03-.055-.049-.107.106-.131a.664.664 0 0 1 .493.106l-.002-.001zm-5.853-.001c-.24.073-.392.085-.55 0a1.04 1.04 0 0 1 .558.002l-.007-.002zm-5.587 4.213a2.302 2.302 0 0 1 .801-.119h-.003l2.286.033a.931.931 0 0 1 .493.09l-.005-.002a.93.93 0 0 1-.211.056l-.005.001c-.258.009-.518 0-.776.01-.388.009-.776.018-1.162.033a5.355 5.355 0 0 1-1.426-.074l.033.005a2.555 2.555 0 0 1-1.01.081l.012.001a1.753 1.753 0 0 0-.345.008l.008-.001a3.37 3.37 0 0 1-.926-.014l.019.002a1.084 1.084 0 0 0-.193-.01h.002c-.482 0-.965-.007-1.446 0-.63.016-1.255.051-1.883.069l-.083.001c-.187 0-.372-.012-.553-.034l.022.002a.226.226 0 0 1-.167-.104l-.001-.001c-.019-.055.127-.113.269-.116.21 0 .422 0 .633-.007.597-.01 1.194-.022 1.79-.031.16 0 .322.012.483.015h.285c.061-.009.132-.014.204-.014h.034-.002c.431.087.895 0 1.343.054a2.248 2.248 0 0 0 .39-.001l-.008.001a3.327 3.327 0 0 1 1.122.071l-.022-.005zm8.08.012a.8.8 0 0 1 .45-.092h-.003l2.526-.015c.048 0 .097 0 .149.007.098.009.213.024.188.072a.281.281 0 0 1-.18.076h-.001a9.352 9.352 0 0 1-1.173.037h.014a3.044 3.044 0 0 0-.537.001l.012-.001a8.334 8.334 0 0 1-1.383-.052l.04.004a.385.385 0 0 1-.105-.038l.002.001zm-1.983.006a2.47 2.47 0 0 1-1.091-.003l.016.003a.522.522 0 0 1 .168-.085l.004-.001a1.61 1.61 0 0 1 .913.091l-.011-.004zm1.249-.007a.53.53 0 0 1-.451-.001l.003.001a.509.509 0 0 1 .451.001l-.003-.001zm14.298-11.129c-.013.037.033.089.054.149.242-.093.27-.236.107-.413-.183.036-.125.167-.161.264zm.173.541a.203.203 0 0 0-.107-.262l-.001-.001c-.03.024-.073.042-.087.069a2.69 2.69 0 0 0-.226.894l-.001.01c0 .028.058.072.116.149.054-.069.101-.147.139-.23l.003-.007c.063-.209.116-.416.163-.622zm-.394 1.36c.033-.031.069-.06.104-.09l.001-.024a.356.356 0 0 0-.086-.233.283.283 0 0 0-.191.213v.002l-.113.41c.09-.099.183-.191.281-.276l.004-.003zm.582-2.497c0-.201-.039-.406.064-.597.045-.085.021-.191-.125-.266a.274.274 0 0 0-.106.217v.012-.001c-.019.149-.055.298-.081.448a1.452 1.452 0 0 0-.034.243v.004c0 .037.036.078.064.139.17-.051.218-.104.218-.2zm.109-4.108-.043.471a1.164 1.164 0 0 0 .02.339l-.001-.007a.175.175 0 0 0 .085.094h.001c0-.149.009-.288.015-.433a8.164 8.164 0 0 1-.078-.464zm-.118 3.154a1.01 1.01 0 0 0 .1-.187l.003-.007c.03-.122.058-.274.076-.429l.002-.018c.012-.104.021-.207.031-.31-.027-.315-.027-.631-.027-.929l-.009-.009c-.02.045-.041.102-.058.159l-.003.011c-.042.216-.093.433-.122.65-.042.318-.07.639-.101.958-.004.021.043.048.109.112zm-2.212 2.808c-.009.03.021.07.037.116.175-.024.209-.109.206-.198.01-.209.054-.405.128-.586l-.004.012c.036-.11.069-.222.1-.336s.049-.227.075-.342a.302.302 0 0 0-.054-.281v.001c-.036 0-.066.009-.069.016a5.036 5.036 0 0 0-.223.759l-.006.036c-.061.269-.106.54-.189.803zm.659-2.059c.051-.333.085-.67.14-1.003s.085-.658.125-.988c.021-.16.055-.318.073-.479a1.434 1.434 0 0 0 0-.241v.005a1.649 1.649 0 0 1 .001-.211v.005c.019-.176.046-.349.061-.525.03-.361-.027-.728.052-1.086a.131.131 0 0 0-.062-.149h-.001c-.104 0-.119.027-.13.063a2.44 2.44 0 0 0-.108.889v-.007a.562.562 0 0 1 .01.087v.001a3.222 3.222 0 0 0-.066.556v.005c.012.252-.119.491-.043.746 0 .013-.019.025-.021.039-.016.106-.033.21-.045.316-.036.298-.078.597-.107.895l-.097 1.162a.19.19 0 0 0 .058.203c.046-.034.082-.049.091-.07a.966.966 0 0 0 .066-.207l.001-.006zm-.577 2.335c-.049.015-.109.018-.118.037-.031.069-.101.134.016.231.146-.093.142-.095.101-.269zm-.267.864a.194.194 0 0 0-.191.168v.001c-.015.045-.016.094.072.14.189-.087.201-.112.119-.309zm.007-.079c.231-.091.21-.245.134-.419-.127.04-.134.037-.149.1-.027.09-.118.173.015.319zm1.262-8.676a.191.191 0 0 0-.135.216v-.001c0 .046.01.095.107.115.158-.134.161-.161.028-.33zm-.143.739a.082.082 0 0 0 .059.034h.004c.033 0 .063-.01.089-.027h-.001c.094-.097.087-.198-.039-.318-.173.097-.131.206-.113.31zm.133-.816c.201-.149.149-.289.027-.448-.113.069-.121.069-.122.134 0 .103-.073.204.095.313zm.152-1.267v.002a.126.126 0 0 1-.011.051v-.001a.443.443 0 0 0 .001.301l-.001-.003a.873.873 0 0 1-.001.304l.001-.005c0 .027-.057.051-.101.087a.261.261 0 0 1-.094-.194 1.582 1.582 0 0 0-.027-.423l.002.01c-.113-.376-.021-.746-.009-1.116 0-.058 0-.13.149-.158a.19.19 0 0 1 .124.219v-.001c-.007.303-.021.615-.033.928zm.008-1.26a.145.145 0 0 1-.091.031h-.001c-.033 0-.088-.024-.09-.039a2.256 2.256 0 0 1-.069-.29l-.002-.016h.286c.012.062.018.134.018.207v.024-.001a.124.124 0 0 1-.05.083z"/><path d="M26.901 18.864c.057-.067.115-.127.176-.184l.001-.001a1.407 1.407 0 0 1-.306-.295l-.003-.003a.386.386 0 0 0-.273-.116c-.073 0-.079.07 0 .149.13.151.269.3.404.451zm-1.973-.675a.359.359 0 0 0-.099-.128l-.001-.001a.764.764 0 0 0-.188-.055l-.005-.001c-.013 0-.024.012-.034.018 0 .055.142.158.258.179.027-.002.072-.002.069-.013zm-1.493.07c.149.149.286.298.43.448.1.107.198.219.298.331.066.046.123.095.176.149l.061.073a.128.128 0 0 1 .037.04v.001c.006.008.012.016.017.026l.001.001.009.01.236.016a1.594 1.594 0 0 1-.186-.231l-.004-.006a5.582 5.582 0 0 0-.539-.63 2.548 2.548 0 0 0-.291-.247l-.007-.005a.573.573 0 0 0-.117-.064l-.004-.001c-.103-.045-.188-.03-.157.025.01.025.023.046.039.064zm2.241.969.033.034c.079-.04.158-.081.239-.118l-.079-.082a.463.463 0 0 0-.146-.085l-.003-.001c-.161-.073-.266-.055-.215.043.049.08.106.148.171.208l.001.001zm-.139-.485c-.087-.085-.198-.167-.318-.264-.054.021-.115.024-.112.045.01.085.091.173.222.255.046.026.1.042.157.045h.001c.037-.012.073-.057.049-.081zm3.02-1.72c.103.148.217.278.344.392l.002.002.213-.149a.72.72 0 0 0-.26-.201l-.004-.002c-.091-.04-.149-.084-.161-.149s-.09-.119-.252-.149c-.025 0-.122 0-.137.013s.019.078.058.112.169.084.197.131zm.386-9.69a.723.723 0 0 0-.347-.088l-.04.001h.002c.048-.064.019-.121-.078-.172l-.634-.331-.107-.055h-.597l.172.084.937.448a.431.431 0 0 0 .263.051h-.002c-.009.075.037.149.167.178.089.02.167.053.237.097l-.003-.002c0-.07.013-.14.03-.21zm-2.297 9.752c.316.274.648.558.965.853.072.067.125.139.2.206.04.034.085.065.133.093l.005.003.1-.095.049-.051-.06-.067c-.045-.049-.101-.094-.149-.149a6.88 6.88 0 0 0-.475-.5l-.003-.003a5.637 5.637 0 0 1-.537-.505l-.003-.003a.485.485 0 0 0-.104-.093l-.002-.001a.405.405 0 0 0-.301-.064h.002a.074.074 0 0 0-.051.104c.064.106.14.196.228.273l.001.001zm-2.068.696c-.128-.069-.17-.124-.186-.195s-.122-.149-.251-.215c-.104-.052-.239-.057-.246 0a.08.08 0 0 0 .021.043l.448.428a.268.268 0 0 0 .218.059h-.002c.075-.018.087-.075-.002-.121zm2.232-2.24a.44.44 0 0 0-.132 0h.002c.033.057.037.104.084.149.158.125.324.254.5.379.23.164.528.298.68.501a.113.113 0 0 0 .043.035h.001c.047.02.101.033.158.037h.002c.043 0 .095-.043.084-.066a.298.298 0 0 0-.136-.148l-.002-.001a.319.319 0 0 1-.177-.155l-.001-.002a.72.72 0 0 0-.193-.159l-.004-.002a5.563 5.563 0 0 1-.657-.464l.009.008a.864.864 0 0 0-.255-.112l-.006-.001zm-.893.557a3.215 3.215 0 0 0-.319-.178l-.022-.01a.669.669 0 0 0-.163.001h.003c-.011.009-.017.023-.017.038s.007.029.017.038c.328.25.571.443.811.638l-.065-.051c.048.036.098.104.191.085a.1.1 0 0 0 .07-.095v-.006c0-.034-.037-.078-.078-.113a4.798 4.798 0 0 0-.43-.345zm2.889-7.49-.404-.218a1.964 1.964 0 0 1-.305-.174l.007.004a3.565 3.565 0 0 0-.87-.43l-.025-.007a5.19 5.19 0 0 1-.762-.338l.028.014a4.861 4.861 0 0 0-.686-.394l-.03-.013a3.209 3.209 0 0 1-.663-.306l.014.008a.566.566 0 0 0-.242-.061h-.001a.626.626 0 0 0-.204.01l.004-.001c-.078.016-.037.064.016.095a.348.348 0 0 0 .043.025l.002.001c.337.155.618.339 1.003.488.102.043.186.086.268.135l-.009-.005.582.307c.137.072.282.139.413.213l.618.355c.124.069.273.127.403.194l.824.448a3.231 3.231 0 0 1-.021-.349zm-3.457 8.407c-.215-.118-.316-.266-.573-.364-.045-.016-.064-.057-.098-.085a1.025 1.025 0 0 0-.126-.1l-.004-.002c-.116-.075-.243-.116-.273-.094s.025.088.081.131.218.118.234.166c.051.149.319.28.483.422.268.207.505.422.725.654l.003.003c.115.116.239.224.37.322l.009.006c.041.024.09.049.14.071l.009.003c.027-.024.075-.04.063-.061a1.187 1.187 0 0 0-.151-.226l.001.002c-.167-.191-.406-.366-.54-.558a1.071 1.071 0 0 0-.348-.287l-.006-.003zm.509-7.256.113.064c.03-.016.075-.03.084-.048s-.042-.034-.076-.06zm3.043.161-.067-.037-1.044-.64a.54.54 0 0 0-.112-.073l-.003-.001c-.542-.212-.95-.488-1.431-.722-.369-.179-.822-.316-1.105-.534a.887.887 0 0 0-.143-.05l-.006-.001a.232.232 0 0 0-.195.008l.001-.001c-.057.025-.07.06-.013.094.093.057.186.113.286.167l.98.533c.043.03.092.058.143.082l.006.003c.366.158.674.322.968.507l-.029-.017c.255.139.531.269.791.407.149.078.269.172.425.245.221.101.407.205.584.321l-.017-.01a6.528 6.528 0 0 0-.018-.279zm.138 1.427a5.727 5.727 0 0 0-.597-.298 5.11 5.11 0 0 1-.85-.45l.019.012c-.115-.084-.263-.149-.364-.243a.685.685 0 0 0-.579-.111l.005-.001c.333.302.721.553 1.144.736l.027.01a.989.989 0 0 1 .138.072l-.004-.002c.336.204.674.41.997.625l.125.079v-.043c-.021-.133-.043-.258-.061-.385zm-2.371-1.099-.004.004.01-.002-.002-.002-.004-.002zm-.876-.709c-.204-.106-.41-.209-.597-.319a.547.547 0 0 0-.339-.052h.003a.316.316 0 0 0-.073.028l.002-.001c0 .018 0 .033.016.04.264.14.528.282.8.421a.294.294 0 0 0 .151-.009l-.002.001c.057-.027.125-.063.039-.107zm-.477 6.251c.015-.042-.085-.1-.201-.118h-.006a.18.18 0 0 0-.062.011h.001c0 .058.103.118.204.128.025.003.061-.009.064-.021zm1.163-.549a2.102 2.102 0 0 0-.297-.144l-.015-.005h-.185a.381.381 0 0 0 .067.086 2.3 2.3 0 0 0 .203.133l.011.006a.246.246 0 0 0 .224.021l-.002.001a.067.067 0 0 0 .017-.046.068.068 0 0 0-.023-.051zm.109-5.217c-.076-.018-.149-.043-.219-.063a.124.124 0 0 0-.065 0h.001c-.015 0-.033.024-.027.028.118.089.149.213.391.257a.855.855 0 0 0 .063-.055c.082-.089.054-.121-.143-.167zm2.907 5.939a.227.227 0 0 0-.088-.098l-.001-.001a.954.954 0 0 1-.367-.296l-.002-.003a.723.723 0 0 0-.169-.113l-.004-.002a.86.86 0 0 1-.151-.094l.002.001a5.253 5.253 0 0 0-.594-.465l-.019-.012c-.225-.176-.528-.324-.683-.519a.255.255 0 0 0-.069-.047l-.002-.001-.492-.258a.238.238 0 0 1-.092-.08l-.001-.001c-.055-.125-.254-.158-.448-.197-.095-.018-.131.013-.131.054s.025.048.042.072c.153.169.339.305.549.397l.01.004c.202.101.377.215.535.348l-.004-.003c.091.068.195.134.303.194l.014.007c.217.115.403.244.574.393l-.004-.003c.243.273.645.489.991.746.037.028.085.052.1.063.158.03.246-.015.2-.087zm-5.103-.819a.329.329 0 0 0-.097-.015l-.03.001h.001a.033.033 0 0 0-.019.051c.118.125.26.226.419.295l.008.003a.564.564 0 0 0 .092.022h.003c.019-.015.07-.033.063-.052-.052-.125-.183-.233-.44-.306zm1.365-.259a.107.107 0 0 0-.041-.052 35.397 35.397 0 0 0-.906-.692 1.156 1.156 0 0 0-.235-.121l-.008-.003-.039-.001a.612.612 0 0 0-.114.011l.004-.001c.016.031.016.052.036.067l.91.709c.07.05.15.094.235.129l.008.003a.282.282 0 0 0 .128-.001h-.002a.04.04 0 0 0 .026-.036l-.002-.012zm-1.09-3.275c.186.113.367.233.577.336.425.207.827.424 1.044.706.037.039.08.071.129.094l.003.001c.264.122.491.261.7.424l-.008-.006c.203.162.43.313.669.445l.025.013c.298.167.546.355.868.513.05.026.093.051.133.08l-.003-.002.448.31c-.018-.104-.033-.209-.048-.313a2.595 2.595 0 0 1-.268-.165l.009.006a3.783 3.783 0 0 0-.298-.188 1.583 1.583 0 0 1-.322-.226l.001.001a2.463 2.463 0 0 0-.455-.313l-.013-.007c-.38-.224-.809-.424-1.088-.683a.56.56 0 0 0-.168-.105l-.004-.001a2.329 2.329 0 0 1-.64-.392l.003.003a5.957 5.957 0 0 0-.92-.555l-.036-.016a1.29 1.29 0 0 0-.212-.066l-.009-.002a.588.588 0 0 0-.164.03l.004-.001c-.006.019.01.06.043.081zm.326 1.37-.022-.001a.394.394 0 0 0-.13.022l.003-.001c-.007 0 .019.04.046.057.112.07.225.14.349.206.065.032.148.066.233.096l.018.005c.04-.027.084-.043.079-.058a.24.24 0 0 0-.07-.106.886.886 0 0 0-.502-.22h-.004zm1.154-1.68c.075.048.162.094.253.134l.013.005c.163.091.327.182.482.276.166.127.353.241.553.334l.019.008c.203.078.378.184.53.315l-.002-.002c.055.042.117.084.181.121l.008.004c.245.149.495.298.734.448.063.039.121.081.179.121 0-.115 0-.231-.007-.346a2.829 2.829 0 0 1-.24-.125c-.369-.225-.756-.44-1.086-.673a5.316 5.316 0 0 0-.674-.421l-.03-.014c-.149-.078-.288-.164-.434-.246l-.392-.209c-.181-.098-.366-.195-.539-.298s-.351-.225-.54-.331a1.21 1.21 0 0 0-.27-.095l-.009-.002c-.095-.027-.191.009-.186.092.031.024.085.072.149.116.397.27.952.489 1.31.789zm-.06 2.299c-.036-.016-.079-.03-.14-.054-.033.022-.079.039-.081.06s.037.045.069.063a.251.251 0 0 0 .22.035h-.002c.088-.037-.004-.073-.066-.104z"/><path fill="none" stroke="#000" stroke-linejoin="round" stroke-linecap="round" stroke-width=".895" d="m18.061 10.236 1.383-4.57 8.725 1.413-1.447 11.456"/><path fill="none" stroke="#000" stroke-linejoin="round" stroke-linecap="round" stroke-width=".895" d="m29.21 17.026-.366-11.655a.554.554 0 0 0-.608-.529h.002a.611.611 0 0 0-.553.596v.001l-.03 1.02v.02a.61.61 0 0 0 .51.602h.004"/><path fill="none" stroke="#000" stroke-linejoin="round" stroke-linecap="round" stroke-width=".895" d="M19.444 5.669v0a1.029 1.029 0 0 1-.861-.935v-.003l-.016-.216a1.028 1.028 0 0 1 1.199-1.087l-.006-.001 8.477 1.423"/><path fill="none" stroke="#000" stroke-linejoin="round" stroke-linecap="round" stroke-width=".616" d="m24.232 16.839-4.704-.704 1.598-6.793 4.224.603-1.117 6.894zm-.145-10.506s-1.523-1.535-.339-2.254 1.417.251 1.417.251"/><path fill="none" stroke="#000" stroke-linejoin="round" stroke-linecap="round" stroke-width=".895" d="M25.149 3.879S23.955-.022 22.793.497c-2.274 1.019 2.356 3.382 2.356 3.382z"/><path fill="none" stroke="#000" stroke-linejoin="round" stroke-linecap="round" stroke-width=".895" d="M24.329 3.942s3.776-1.555 3.155-2.653c-1.226-2.171-3.155 2.653-3.155 2.653zm.341-.326 3.182.143"/></svg>