<svg xmlns="http://www.w3.org/2000/svg" width="41" height="32"><path d="M16.762 11.654c.021-.036-.018-.102-.031-.164-.272.054-.328.2-.19.419.202-.02.166-.169.222-.254zm-.423 1.233c.048-.146.107-.287.164-.432a1.6 1.6 0 0 0 .08-.245l.002-.011c0-.039-.023-.089-.043-.164a.518.518 0 0 0-.168.034l.003-.001a4.154 4.154 0 0 1-.102.822l.005-.028zm2.63-2.232c.015-.03-.012-.077-.02-.13-.189 0-.24.077-.254.164a1.854 1.854 0 0 1-.243.595l.005-.008c-.059.11-.113.223-.164.337s-.095.231-.141.348a.329.329 0 0 0 0 .31l-.001-.002h.074c.135-.225.266-.488.377-.763l.014-.038c.117-.271.215-.552.353-.814zm-1.286 2.715h.266l.184-.703a.206.206 0 0 0-.024-.227c-.056.028-.095.038-.108.057a.932.932 0 0 0-.109.205l-.002.007c-.074.218-.141.437-.21.657zm3.337-3.415c.014.06.043.112.082.155.056.038.12.07.188.092l.005.002c.013 0 .026 0 .039-.011.013-.059-.121-.195-.241-.238-.028-.01-.084-.007-.074.002zm1.596.202c-.066-.09-.189-.271-.31-.453l-.063-.101c0-.015-.018-.03-.028-.044-.078.015-.17.026-.265.031h-.005l.144.222c.087.122.176.229.271.33l-.001-.001a.626.626 0 0 0 .115.09l.003.002c.1.066.192.066.164 0a.247.247 0 0 0-.027-.075l.001.001z"/><path d="M18.995 10.807c-.092-.113-.185-.227-.277-.343-.095.046-.189.09-.284.133.095.117.187.248.27.385l.009.016a.565.565 0 0 0 .095.12c.078.074.184.12.3.121a.078.078 0 0 0 .071-.099v.001a1.227 1.227 0 0 0-.186-.336l.002.003zm2.321-.353c.123.097.156.164.164.241s.102.182.227.274.243.103.259.049v-.007a.077.077 0 0 0-.014-.044l-.397-.537a.284.284 0 0 0-.218-.103c-.082.002-.107.061-.021.126zm-3.165 1.32c-.213-.217-.502-.422-.629-.657a.107.107 0 0 0-.039-.047l-.102-.051-.164.051c.02.067.059.124.112.164l.001.001a.338.338 0 0 1 .163.195l.001.002c.02.064.112.14.179.208.217.188.414.385.596.595l.006.007a.95.95 0 0 0 .25.162l.006.002a.59.59 0 0 0 .137.018c-.023-.067-.02-.118-.062-.164-.141-.154-.294-.32-.456-.486zm1.433.209c.099.089.206.175.317.255l.011.008a.687.687 0 0 0 .163.025h.001a.053.053 0 0 0 .024-.045.056.056 0 0 0-.015-.037q-.341-.369-.689-.76c-.043-.048-.085-.128-.185-.125a.105.105 0 0 0-.094.095.202.202 0 0 0 .061.133c.134.164.266.311.406.452zm1.73-.132c-.067-.072-.21-.164-.217-.218-.026-.174-.287-.356-.435-.537a6.74 6.74 0 0 1-.641-.807l-.015-.024a1.837 1.837 0 0 0-.242-.304l-.184.049-.03.016c.006.012.011.023.017.032l-.001-.001c.141.235.361.463.469.691.08.149.186.273.314.371l.003.002c.205.164.284.34.54.492.043.026.057.072.087.11.039.049.078.092.12.133.108.1.236.164.272.149.064-.025-.008-.098-.059-.156zm-1.149.576c-.023.041.072.121.192.164a.213.213 0 0 0 .075 0h-.001c0-.062-.089-.144-.194-.174-.026-.008-.066-.002-.072.01zm-1.334.376c.089.071.188.14.292.202l.012.007.197.026a.436.436 0 0 0-.055-.105l.001.001a2.146 2.146 0 0 0-.198-.184l-.004-.003a.26.26 0 0 0-.231-.063h.002a.075.075 0 0 0-.015.119zm-2.456-.656a.548.548 0 0 1 .113.101l.001.001c.178.227.362.429.559.617l.002.002c.154.164.359.328.506.506h.369a1.942 1.942 0 0 1-.094-.107l-.003-.003a3.091 3.091 0 0 0-.294-.268l-.006-.005a3.27 3.27 0 0 1-.527-.51l-.004-.006a3.963 3.963 0 0 0-.618-.682l-.005-.004c.005.112.007.235.002.358zm4.65 1.136a.34.34 0 0 0 .129.038h.001a.036.036 0 0 0 .034-.036.04.04 0 0 0-.003-.015 1.377 1.377 0 0 0-.394-.389l-.005-.003a.517.517 0 0 0-.093-.038l-.004-.001c-.023.011-.08.02-.076.043.031.14.153.277.41.402zm-1.328.238c.112.018.222.039.328.062l-.105-.117a1.352 1.352 0 0 0-.218-.181l-.005-.003a.3.3 0 0 0-.135-.022h.001a.041.041 0 0 0-.035.041v.004a.125.125 0 0 0 .034.064zm-6.552 11.488a.368.368 0 0 1 .137-.104l.002-.001a.887.887 0 0 1 .219 0h-.004c.015 0 .021.018.031.028-.013.059-.192.125-.328.113-.021-.007-.071-.03-.057-.036zm1.433.374a.677.677 0 0 0-.149.036l.005-.002a3.086 3.086 0 0 0-.398.184l.016-.008a6.294 6.294 0 0 0-.749.515l.012-.01a1.628 1.628 0 0 1-.361.242l-.01.004c.017.07.031.154.037.24v.006a1.85 1.85 0 0 0 .356-.282c.034-.036.148-.061.202-.097a20.702 20.702 0 0 1 1.136-.708.25.25 0 0 0 .059-.047c.048-.053-.036-.09-.156-.074zm-.954-.701c.154-.034.212-.08.249-.149a.492.492 0 0 1 .327-.153h.001c.121-.025.264.01.256.066a.081.081 0 0 1-.034.039l-.586.318a.295.295 0 0 1-.244-.001l.002.001c-.079-.034-.075-.099.03-.121zm-.51-2.224c-.121.028-.261.053-.378.09l-.044.268.56-.231a.056.056 0 0 0 .027-.079.732.732 0 0 0-.16-.047l-.004-.001zm.346 5.053a.389.389 0 0 1 .162-.082l.003-.001c.046-.01.146 0 .143.016a.19.19 0 0 1-.096.101h-.001a1.09 1.09 0 0 1-.202.062l-.008.002c0-.034-.026-.067 0-.1zm.566-4.188c-.065.023-.12.047-.172.074l.008-.004c-.043.02-.075.056-.126.061-.294.03-.44.154-.696.217-.17.037-.319.108-.448.204l.003-.002a.14.14 0 0 1-.027.021h-.001c0 .066-.011.133-.016.199v.094c.235-.133.507-.243.757-.363.21-.1.525-.154.622-.302.03-.044.197-.067.289-.105s.164-.059.121-.113-.171-.025-.314.02zm.532-7.332-.135.033c-.026-.023-.071-.051-.074-.072s.053-.023.097-.041zm.131-.21c.241-.051.492-.1.714-.164a.59.59 0 0 1 .368.044l-.004-.002a.266.266 0 0 1 .066.048c-.011.016-.013.033-.03.036-.314.071-.627.144-.947.212a.361.361 0 0 1-.166-.053l.001.001c-.041-.041-.107-.098-.003-.121zm-1.27 6.626c0-.048.117-.08.243-.066a.213.213 0 0 1 .068.032h-.001c-.023.057-.141.094-.249.076-.02-.005-.059-.028-.061-.041zm1.142-.412h.018c.041 0 .081.007.118.021l-.002-.001c.009.007.015.018.015.03s-.006.023-.015.03a1.357 1.357 0 0 1-.52.185l-.007.001a.433.433 0 0 1-.108 0h.002c-.016-.021-.064-.053-.049-.071.094-.115.268-.195.548-.195zm-1.346-.656a.128.128 0 0 1 .058-.042h.001c.378-.164.752-.315 1.136-.465a1.21 1.21 0 0 1 .284-.059h.005a.613.613 0 0 1 .153.052l-.003-.002c-.025.028-.031.049-.056.059l-1.149.479a1.294 1.294 0 0 1-.282.068l-.007.001a.294.294 0 0 1-.133-.038l.001.001a.04.04 0 0 1-.008-.054zm.631-2.759-.013.034c.199-.064.451-.126.708-.173l.04-.006c.246-.048.468-.12.693-.185.041-.012.075-.048.062-.072s-.092-.044-.164-.074a1.557 1.557 0 0 0-.252.001h.005a7.578 7.578 0 0 0-1.069.298l.054-.017c-.02.064-.039.13-.066.195zm.702.999a.428.428 0 0 1 .149.065l-.001-.001s-.031.038-.062.046a7.112 7.112 0 0 1-.422.117c-.079.018-.176.021-.289.034-.033-.041-.074-.069-.066-.084a.276.276 0 0 1 .102-.09l.002-.001a.966.966 0 0 1 .593-.086l-.006-.001zm-.596-2.122c.442-.164 1.011-.243 1.458-.402.079-.028.148-.062.187-.079.028-.085-.061-.149-.164-.149l-.06-.001c-.091 0-.18.009-.265.026l.009-.001c-.227.057-.432.131-.657.192-.189.051-.389.095-.586.141.029.076.056.167.077.262l.002.012zm19.511 4.02c0-.048.094-.074.151-.115.23.253.174.422-.131.506-.187-.166-.034-.266-.02-.391zm.249-.253c.215 0 .251-.099.281-.192l-.01-.051a24.76 24.76 0 0 1-.121-.747 2.315 2.315 0 0 0-.212.856v.006c0 .038.039.079.062.128zm-.199 1.131c-.128.228-.309.432-.317.719 0 .125-.103.228-.328.21a.356.356 0 0 1 .03-.33l-.001.001c.075-.181.138-.369.2-.555.036-.117.076-.216.124-.311l-.005.012c.023-.043.092-.066.164-.115.177.159.195.259.133.368zm-1.72 3.816c-.095.213-.179.432-.291.637-.23.422-.353.89-.614 1.298a6.755 6.755 0 0 0-.412.856l-.017.047c-.056.164-.082.256-.121.346l-.397.877c-.039.085-.126.153-.223.094a.388.388 0 0 1-.113-.23v-.002c-.01-.041.038-.087.056-.131.117-.282.241-.561.348-.847.16-.447.326-.82.516-1.178l-.024.049c.123-.227.213-.469.318-.706.148-.328.289-.676.443-1.009.061-.126.135-.234.224-.329l-.001.001a.234.234 0 0 1 .217-.029l-.002-.001c.056.03.077.125.107.194.013.013-.005.041-.015.064zm-.051-.361c-.102-.13-.108-.21.021-.235.064.009.12.036.164.077.059.118-.015.158-.185.158zm.317-.354a.846.846 0 0 1-.194.054l-.005.001a1.46 1.46 0 0 1 .037-.229l-.002.01c.084-.253.164-.511.264-.755.153-.363.328-.699.492-1.064.013-.028.095-.025.213-.049a1.348 1.348 0 0 1-.014.295l.001-.008a5.057 5.057 0 0 1-.21.544l.013-.032c-.174.378-.356.752-.537 1.128a.232.232 0 0 1-.059.105zm-2.598 5.686a.394.394 0 0 1 .065-.075c.187-.164.212-.369.067-.622-.074.054-.164.095-.217.164-.112.182-.22.366-.328.55a11 11 0 0 0 .412-.016zm4.778-5.798c.047-.133.097-.308.138-.486l.007-.036-.121.271a.627.627 0 0 0-.023.254v-.003zm-.294.389c-.124.29-.29.539-.493.751l.001-.001c-.074.076-.033.2-.051.302a1 1 0 0 1-.055.194l.002-.007c.075-.043.153-.08.231-.117.169-.315.352-.714.516-1.122l.031-.088c-.121-.003-.161.038-.182.087zm-1.87-6.796c.01-.038.072-.059.121-.097.189.141.164.251.108.343a1.749 1.749 0 0 0-.224.683l-.001.008c-.059.282-.138.56-.223.834a.357.357 0 0 1-.235.267l-.003.001c-.038-.031-.072-.051-.071-.061.076-.694.361-1.315.527-1.978zm-.531 2.625c-.144.392-.328.77-.476 1.16s-.328.748-.492 1.124c-.079.182-.141.373-.22.555-.05.098-.1.18-.154.259l.005-.008a1.955 1.955 0 0 0-.129.206l-.005.01c-.089.199-.164.404-.254.601-.189.405-.476.763-.599 1.2a.164.164 0 0 1-.16.126h-.005c-.126-.062-.126-.107-.118-.151a2.79 2.79 0 0 1 .415-1.033l-.006.01c.02-.03.054-.054.067-.087a3.76 3.76 0 0 1 .285-.666l-.01.019c.174-.261.164-.604.422-.821.013-.012 0-.041 0-.057.049-.121.099-.245.153-.364.149-.338.294-.681.455-1.013.21-.428.424-.855.622-1.292.03-.062.03-.141.195-.179.033.067.064.105.062.133a1.042 1.042 0 0 1-.055.273l.002-.008zm.809-2.861c-.046-.048-.115-.092-.112-.12.008-.092-.033-.208.172-.231.103.199.102.199-.061.351zm.276-1.085a.233.233 0 0 1-.098-.307l-.001.001c.015-.056.048-.11.181-.095.156.22.151.254-.082.401zm.477-1.354.026-.097a4.17 4.17 0 0 0-.235-.516l.011.023a.114.114 0 0 0-.049.094c0 .248-.259.448-.067.752.277-.018.282-.146.314-.256zm-.395.428a.119.119 0 0 1 .068-.02l.024.002h-.001c.043.013.08.036.11.066.087.151.041.268-.164.361-.19-.181-.099-.292-.036-.409zm-.127 1.013c.205.254.079.399-.13.53-.12-.128-.13-.13-.105-.207.033-.115-.013-.261.235-.323zM28.576 27.78a.236.236 0 0 1-.035-.329c.026-.053.069-.099.195-.057.112.254.1.286-.159.386zm.267-.895c.014-.006.029-.009.046-.009s.032.003.047.01h-.001c.038.021.069.05.091.086l.001.001c.054.164-.013.269-.235.32-.149-.208-.034-.305.051-.407zm-.325.972c.154.287 0 .405-.223.492-.095-.144-.105-.149-.067-.222.053-.1.03-.254.291-.271zm-.543 1.481a.128.128 0 0 0 .018-.062.525.525 0 0 1 .164-.32 1.16 1.16 0 0 0 .162-.32l.002-.008c.012-.031-.038-.09-.071-.164a.317.317 0 0 0-.224.154l-.001.002a1.86 1.86 0 0 1-.268.441l.003-.003c-.348.345-.443.811-.63 1.231-.03.066-.067.146.089.261a.233.233 0 0 0 .269-.163v-.002c.171-.346.328-.694.488-1.047zm-.681 1.4a.231.231 0 0 0-.096-.09l-.001-.001c-.039-.016-.118-.023-.128-.008-.069.108-.202.185-.253.302l.353.164c.052-.072.099-.153.139-.239l.004-.009a.157.157 0 0 0-.019-.12v.001z"/><path d="M32.548 17.71a.558.558 0 0 0 .396.066l-.004.001c.173-.059.373-.096.581-.1h.002a7.357 7.357 0 0 0-.056-.315l-.821.185c-.146.034-.181.107-.099.163zm-1.853-1.013a.448.448 0 0 1-.204.067h-.002a1.03 1.03 0 0 1-.264-.08l.007.003c-.016 0-.018-.028-.026-.043.036-.064.276-.071.424-.01.039.015.084.057.066.062zm.222-1.305c.169-.07.365-.116.571-.129h.006c.231-.015.407-.098.648-.126a.115.115 0 0 0 .102-.08v-.001c0-.059.075-.062.184-.053h.043a4.817 4.817 0 0 0-.19-.22.596.596 0 0 0-.116.076l.001-.001a.15.15 0 0 1-.09.033c-.4.017-.774.107-1.116.257l.02-.008a2.056 2.056 0 0 1-.276.026h-.003c-.547.128-1.088.251-1.63.364a.307.307 0 0 0-.092.034l.002-.001c-.076.041 0 .12.164.146a.804.804 0 0 0 .175.018h.011-.001c.193-.009.374-.029.55-.06l-.027.004a9.53 9.53 0 0 0 1.133-.3l-.067.02zm1.48 1.052c.249-.054.525-.085.793-.126a7.21 7.21 0 0 0-.125-.328l-.763.136c-.128.02-.244.054-.352.102l.009-.003c-.128.066-.023.164.21.199a.751.751 0 0 0 .183.023c.016 0 .032 0 .048-.002h-.002zm-.609.095c-.164.03-.343.036-.548.054-.046-.059-.113-.108-.097-.128a.562.562 0 0 1 .442-.11h-.003a.46.46 0 0 1 .212.067l-.002-.001c.034.039.041.11-.003.118zm-4.003 14.14h.009c.124 0 .239.036.336.098l-.003-.002c.031-.085.123-.135.299-.095a.788.788 0 0 0 .475-.001l-.006.002a.347.347 0 0 1 .289.084c.053.043.113.117.097.136a.256.256 0 0 1-.185.031h.002c-.087 0-.215-.085-.271-.031-.125.118-.366.053-.645-.074.023.099-.041.143-.185.143h-1.108l-.739-.345h.256c.453.015.919.039 1.379.054zm4.087-11.226a.692.692 0 0 0 .189-.031l-.005.001c.271-.075.599-.139.934-.178l.031-.003c.276-.047.508-.101.735-.166l-.047.012-.038-.305-.057.013c-.563.094-1.131.164-1.686.251a1.5 1.5 0 0 0-.444.142l.009-.004a.088.088 0 0 0 0 .142.584.584 0 0 0 .362.125h.018-.001zm-1.863-2.561c-.197-.016-.282.016-.35.084a.615.615 0 0 1-.443.06l.004.001c-.154-.015-.314-.105-.284-.164a.098.098 0 0 1 .053-.034h.001c.269-.051.535-.11.821-.164a.368.368 0 0 1 .29.089c.069.071.043.144-.092.13zm1.128 3.915a.739.739 0 0 1-.151-.088l.002.001c.074-.041.11-.089.187-.099.266-.034.54-.064.821-.087.371-.028.811.015 1.118-.09a.143.143 0 0 1 .076-.01h-.001c.079.012.15.034.216.066l-.004-.002c.046.033.082.107.056.121a.405.405 0 0 1-.224.067l-.035-.001h.002a.42.42 0 0 0-.307.052l.002-.001a.923.923 0 0 1-.29.045l-.04-.001h.002-.045c-.354 0-.703.024-1.044.07l.04-.004-.059.001c-.114 0-.224-.015-.329-.043l.009.002zm-.703-1.179-.085.001c-.154 0-.307-.007-.458-.02l.02.001a.87.87 0 0 1-.186-.11l.002.002a.052.052 0 0 1-.003-.018c0-.033.026-.06.058-.062l1.262-.141a.316.316 0 0 1 .278.035l-.001-.001a.12.12 0 0 1 .018.165.245.245 0 0 1-.164.069c-.238.03-.481.064-.742.08zm.343 10.987a2.473 2.473 0 0 0-.56.042l.016-.002c-.187.039-.424.038-.63.062a1.19 1.19 0 0 0-.223.072l.008-.003c.052.045.109.089.168.129l.006.004a.317.317 0 0 0 .132.038h.001c.194 0 .394.026.593.041a2.4 2.4 0 0 1 .48-.376l.011-.006zm-7.549-1.522.035-.001.037.001h-.002a11.931 11.931 0 0 1 1.535.011l-.038-.002a3.75 3.75 0 0 0 .395 0h-.009.878c.204 0 .417.012.619.008.314 0 .616-.023.932-.025.189 0 .401.026.594.031l1.398.026 1.766.062.245.015a3.656 3.656 0 0 0-.236.359l-.01.019a10.388 10.388 0 0 0-1.27-.076h-.075.004c-.473-.016-.936-.021-1.4-.028a3.043 3.043 0 0 0-.459.011l.013-.001a5.21 5.21 0 0 1-1.365-.065l.032.005a7.03 7.03 0 0 0-1.01-.071h-.06.003c-.369.012-.68.085-1.096.046a3.594 3.594 0 0 0-.977-.016l.017-.002h-.026a.915.915 0 0 1-.319-.057l.006.002a.648.648 0 0 1-.242-.129l.001.001c-.074-.085 0-.113.084-.125zm7.139-10.835c-.328-.016-.543.077-.909.012h-.006c-.06 0-.118.01-.172.029l.004-.001a1.635 1.635 0 0 1-.217.026h-.005c-.185 0-.361-.034-.381-.08-.033-.076.09-.08.185-.09.123-.013.328.016.384-.025.164-.138.56-.094.845-.138a9.717 9.717 0 0 0 1.358-.224l-.067.013c.19-.042.415-.073.645-.086l.012-.001c.078.001.153.009.227.023l-.008-.001c.015.043.059.092.031.107a1.616 1.616 0 0 1-.317.129l-.011.003c-.328.087-.726.11-1.006.227a1.478 1.478 0 0 1-.597.078h.005zm-3.991 8.146h.172c.026.036.072.08.071.107s-.069.01-.126.018zm-2.344 1.374c.144 0 .291-.016.443-.018h1.487a1.3 1.3 0 0 1 .229 0h-.005a10.055 10.055 0 0 0 1.431.033l-.022.001c.386 0 .791.038 1.183.049.222 0 .42-.018.648 0a5.54 5.54 0 0 0 1.023.014l-.019.001c.191-.028.411-.044.634-.044l.135.002h-.007a2.577 2.577 0 0 0 .838-.056l-.017.003a.752.752 0 0 1 .252-.043h.013-.001c.075 0 .154.012.233.018a3.44 3.44 0 0 0-.275.433l-.009.018c-.075 0-.149 0-.227.01-.443.013-.916 0-1.38-.015-.207 0-.435-.036-.635-.033-.542.008-1.072.03-1.607.046a.877.877 0 0 1-.141.011l-.042-.001h.002c-.77-.103-1.42-.051-2.134-.08-.545-.023-1.17-.143-1.641-.064a1.292 1.292 0 0 1-.221-.033l.009.002a.328.328 0 0 1-.228-.124l-.001-.001c-.044-.076-.039-.123.048-.13zm7.556-1.081a4.902 4.902 0 0 1 .826.02l-.022-.002c.212.016.419.026.657.064a.957.957 0 0 0 .64-.114l-.005.002.057-.117a.35.35 0 0 0-.144-.094l-.002-.001c-.415-.141-.821-.25-1.131-.189-.358.074-.813.036-1.223.046-.512.013-1.036.013-1.556.018h-.02c-.064 0-.126-.005-.187-.014l.007.001a5.512 5.512 0 0 0-1.873.065l.036-.006c.254.181.492.287.748.243.172-.03.392-.015.578-.033a6.904 6.904 0 0 1 1.285.067l-.037-.004a6.74 6.74 0 0 0 1.386.047l-.021.001zm-3.954-.322-.002-.007.012.008h-.005l-.005-.002zm-1.468.233c-.307-.01-.616-.023-.909-.016a.785.785 0 0 1-.434-.153l.002.002a.543.543 0 0 1-.07-.074l-.001-.001c.02-.016.025-.036.046-.034.399 0 .799.012 1.206.026a.437.437 0 0 1 .177.107c.046.062.113.149-.018.144zm3.362-7.037c0 .056-.164.056-.312 0a.268.268 0 0 1-.072-.056c.043-.059.194-.064.32 0 .03.003.066.041.064.056zm1.026 1.346a3.244 3.244 0 0 1-.473-.052l.02.003-.215-.126a.455.455 0 0 1 .127-.045l.003-.001c.088-.009.191-.013.295-.013h.049-.002.008c.106 0 .201.046.266.12a.082.082 0 0 1-.075.115h-.002z"/><path d="M27.412 26.57c-.1-.028-.199-.044-.3-.069a.214.214 0 0 1-.074-.041c-.015-.016-.026-.048-.015-.049.194-.026.302-.143.619-.036.013.027.027.06.039.095l.002.007c.034.153-.018.167-.271.094zm2.692-4.161a.3.3 0 0 1 .165-.017h-.002l.732.061a.34.34 0 0 0 .116-.001h-.002c.307-.1.755-.057 1.133-.1a6.105 6.105 0 0 0 1.066-.132l-.04.007a1.126 1.126 0 0 1 .247.001h-.005a1.045 1.045 0 0 0 .283-.018l-.006.001c.129-.058.28-.092.439-.092h.025-.001l-.062-.243c-.553.039-1.138.021-1.584.164-.236.076-.604.044-.916.051a4.813 4.813 0 0 0-.514 0l.012-.001a3.716 3.716 0 0 1-.856-.001l.017.002a2.448 2.448 0 0 0-.916.027l.016-.003c-.036.013-.082.025-.097.048s0 .102.115.148c.241.09.488.192.635.099zm-2.075-2.726a.472.472 0 0 1-.156-.065l.002.001a.045.045 0 0 1-.015-.033c0-.017.009-.031.023-.038.156-.076.428-.057.691-.051a.854.854 0 0 1 .132.042l-.006-.002c.013.03.064.08.041.097-.136.103-.361.135-.712.049zm1.46 1.139a.143.143 0 0 1-.082.026c-.492.046-.985.074-1.477.085a1.66 1.66 0 0 1-.371-.05l.012.002a.838.838 0 0 1-.166-.105l.002.001c.036-.018.049-.038.08-.038.492-.02.985-.049 1.487-.09l.061-.001c.107 0 .212.009.314.025l-.011-.002a.448.448 0 0 1 .152.083l-.001-.001c.008.008.013.019.013.031s-.005.023-.013.031zm1.452 3.032a3.745 3.745 0 0 0 .766-.017l-.018.002a1.938 1.938 0 0 1 .524-.014l-.009-.001a4.549 4.549 0 0 0 .472.011h-.006c.453 0 .985.084 1.487.094l.058.001c.1 0 .198-.005.295-.015l-.012.001v-.392a4.718 4.718 0 0 0-.495-.025l-.144.002h.007c-.422.023-.821.059-1.234.079h-.019c-.063 0-.126-.004-.187-.012l.007.001c-.476-.057-.891-.038-1.341-.064a6.468 6.468 0 0 0-1.126.013l.027-.002a5.254 5.254 0 0 1-1.103-.024l.026.003a.564.564 0 0 0-.219.016l.004-.001c-.442.156-1.051.121-1.684.069-.312-.026-.598-.013-.89-.01-.053 0-.105.031-.097.064s.099.082.164.138c.083.027.184.051.287.069l.013.002a9.071 9.071 0 0 0 1.521-.002l-.033.002a3.323 3.323 0 0 1 1.003.003l-.018-.002a.795.795 0 0 0 .273 0l-.005.001c.488-.089 1.119-.01 1.705.013zm-3.549-1.588a.55.55 0 0 1-.164-.124v-.001s.049-.031.09-.031c.177 0 .356 0 .542.013.14.017.262.039.381.067l-.023-.005c.028.057.069.103.053.118a.327.327 0 0 1-.149.067h-.002a1.286 1.286 0 0 1-.735-.108l.008.003zm4.242 3.022c.154 0 .328.03.492.041a2.08 2.08 0 0 0 .237 0h-.006a6.603 6.603 0 0 1 .834-.016h-.014a1.972 1.972 0 0 0 .632-.028l-.013.002a1.451 1.451 0 0 1 .462.001l-.008-.001a3.29 3.29 0 0 0 .041-.131l-.089-.049a.187.187 0 0 0-.089-.023c-.414.008-.916-.117-1.348-.138-.292-.015-.552.015-.837.012-.373 0-.755-.02-1.133-.03a2.297 2.297 0 0 0-.307 0h.007a2.654 2.654 0 0 1-.837-.019l.016.002a4.059 4.059 0 0 0-.898-.008l.017-.001c-.241 0-.492 0-.74-.016a2.587 2.587 0 0 0-.342-.022l-.062.001h.003c-.607.097-1.398-.02-2.042.033-.103.008-.197.028-.248.034-.056.092.034.194.164.225.114.035.247.059.383.069h.006c.291 0 .558-.02.845-.021s.545.013.821.023l.593.025c.222 0 .433 0 .657.016a7.73 7.73 0 0 0 1.124-.001l-.026.001c.543-.018 1.134.012 1.704.021zm-2.564-2.946c-.053 0-.11-.02-.199-.038-.023-.046-.064-.095-.053-.12s.074-.023.123-.02h.014c.102 0 .195.043.26.112.077.102-.054.076-.146.066z"/><path fill="none" stroke="#000" stroke-linejoin="round" stroke-linecap="round" stroke-width=".985" d="M15.242 12.383v0c2.142.687 4.607 1.083 7.164 1.083s5.022-.396 7.336-1.13l-.172.047M23.924 8.076a1.518 1.518 0 1 1-3.036 0 1.518 1.518 0 0 1 3.036 0zM30.83 13.46s4.88-4.337 8.647 0c4.596 5.29-5.637 12.114-5.637 12.114"/><path fill="none" stroke="#000" stroke-linejoin="round" stroke-linecap="round" stroke-width=".985" d="M32.637 15.513s2.597-2.462 4.729 0c2.6 2.994-2.756 6.659-2.756 6.659"/><path fill="none" stroke="#000" stroke-linejoin="round" stroke-linecap="round" stroke-width=".985" d="M17.417 31.516h9.978c1.831 0 3.46-.864 4.502-2.206l.01-.013a11.902 11.902 0 0 0 2.483-7.303c0-6.618-5.365-11.983-11.983-11.983s-11.983 5.365-11.983 11.983c0 2.808.966 5.391 2.584 7.433l-.019-.025a5.624 5.624 0 0 0 4.396 2.114h.035-.002z"/><path fill="none" stroke="#000" stroke-linejoin="round" stroke-linecap="round" stroke-width=".985" d="M11.191 26.212c-2.941 0-4.736-4.268-4.736-7.206v-1.538a2.662 2.662 0 0 0-2.662-2.662v0l.502-3.283h1.477c1.627.003 2.7 1.116 3.229 2.429.492 1.213 1.252 3.079 2.38 3.34v0"/><path d="M3.88 9.946a1.331 1.331 0 0 0-.12-.91l.003.007a1.37 1.37 0 0 0 .015 1.04l-.003-.009c.034-.044.071-.085.105-.128zM2.063 6.014c.01-.071-.059-.151-.097-.236-.269.243-.272.492-.036.77.212-.133.112-.353.133-.533zm-.331-.903c0 .151 0 .328.189.425a.503.503 0 0 0 .089-.148l.001-.003c.108-.563.057-1.129.025-1.694 0-.053-.089-.1-.182-.202-.04.133-.075.294-.098.459l-.002.017c-.018.381-.023.763-.021 1.146zm.152-1.933a.615.615 0 0 0 .152-.469v.002c0-.369 0-.74-.018-1.11-.02-.465-.053-.926-.085-1.389a1.167 1.167 0 0 0-.063-.221l.003.007a.33.33 0 0 0-.174.344V.34c-.01.714-.021 1.43-.02 2.144a.933.933 0 0 0 .207.695l-.001-.002zm-.131 4.025c.038.379.123.757.034 1.149a.408.408 0 0 0 .198.468l.002.001a.715.715 0 0 0 .088-.462v.004c0-.291.01-.581.013-.872a4.36 4.36 0 0 0-.001-.488l.001.012a.93.93 0 0 0-.106-.249l.002.004a.413.413 0 0 0-.233.434v-.002zm.264 5.955c.131-.12.164-.233.067-.353a.166.166 0 0 0-.165 0h.001c-.092.131-.046.241.097.353zm-.136-.717c.043.079.092.146.147.208l-.001-.001c.025-.164.046-.246.051-.328.021-.422.053-.844.054-1.266 0-.617-.015-1.233-.031-1.85 0-.044-.072-.089-.164-.192a2.517 2.517 0 0 0-.09.377l-.002.015c-.015.289-.025.579-.021.868.008.657.025 1.313.039 1.98l-.001.033c0 .055.007.109.02.161l-.001-.005zM0 4.394a3.236 3.236 0 0 1-.001.628L0 5.008q0 .773.018 1.548a.54.54 0 0 0 .133.432v-.001c.174-.117.164-.284.164-.44q0-1.087-.018-2.17c0-.121.016-.256-.138-.356A.392.392 0 0 0 0 4.396v-.002zm.038 3.995c0 .309-.028.616-.025.924 0 .41.021.821.043 1.233 0 .141-.018.302.195.417.043-.142.076-.309.093-.481l.001-.011C.342 9.499.329 8.524.311 7.551a1.482 1.482 0 0 0-.094-.327l.004.01c-.194.248-.194.248-.19.432.003.241.011.483.008.724zm3.737-5.466c0-.061-.053-.121-.09-.202a.414.414 0 0 0-.19.482L3.494 3.2a4.271 4.271 0 0 1 .024 1.169l.002-.02c-.026.455-.031.911-.039 1.366a.79.79 0 0 0 .132.525l-.002-.003c.044-.028.084-.038.085-.054.158-1.08.066-2.17.079-3.26zm.012 4.518a80.953 80.953 0 0 1-.023-.492.462.462 0 0 0-.123-.378c-.051.08-.094.12-.1.164a2.61 2.61 0 0 0-.046.426v.634zM3.57 2.442c.057-.054.131-.094.136-.136.015-.144.082-.31-.108-.428-.151.256-.151.256-.028.565zM3.56.657a.437.437 0 0 0 .163-.441l.001.003c0-.092-.023-.187-.153-.212-.202.291-.204.343-.011.65zm.023.164c-.253.314-.164.581 0 .867.144-.148.154-.148.149-.277-.003-.195.079-.402-.149-.589z"/></svg>