<!-- Generated by IcoMoon.io -->
<svg version="1.1" xmlns="http://www.w3.org/2000/svg" width="29" height="32" viewBox="0 0 29 32">
<title>bag</title>
<path d="M5.447 19.987c0.010-0.046-0.056-0.1-0.092-0.158-0.265 0.156-0.272 0.329-0.046 0.509 0.207-0.090 0.114-0.233 0.138-0.351zM5.139 19.383c-0.004 0.016-0.006 0.035-0.006 0.055 0 0.11 0.074 0.203 0.174 0.232l0.002 0c0.031-0.032 0.078-0.061 0.090-0.097 0.066-0.247 0.104-0.531 0.104-0.824 0-0.099-0.004-0.197-0.013-0.294l0.001 0.013c0-0.036-0.082-0.073-0.17-0.148-0.048 0.088-0.089 0.189-0.118 0.296l-0.002 0.010c-0.022 0.251-0.046 0.504-0.061 0.757zM5.386 18.12c0.107-0.056 0.18-0.165 0.183-0.292v-0l0.076-0.722c0.031-0.302 0.039-0.608 0.071-0.91-0.003-0.054-0.014-0.104-0.032-0.151l0.001 0.003c-0.178 0.032-0.194 0.114-0.211 0.19-0.054 0.231-0.088 0.465-0.131 0.7s-0.082 0.467-0.104 0.703c-0.009 0.035-0.014 0.075-0.014 0.117 0 0.143 0.061 0.272 0.158 0.362l0 0zM5.136 20.757c0.039 0.236 0.124 0.47 0.039 0.716-0.037 0.107 0.014 0.226 0.2 0.285 0.054-0.058 0.086-0.136 0.086-0.222 0-0.023-0.002-0.046-0.007-0.067l0 0.002v-0.543c0.004-0.044 0.006-0.096 0.006-0.148s-0.002-0.103-0.007-0.154l0 0.007c0-0.044-0.054-0.085-0.102-0.151-0.19 0.083-0.236 0.163-0.217 0.275zM5.35 24.767c0.015 0.231 0.019 0.462 0.051 0.689 0.070 0.467 0.037 0.942 0.144 1.408 0.051 0.279 0.091 0.615 0.109 0.957l0.001 0.021c0 0.17 0 0.265 0.012 0.36 0.031 0.314 0.070 0.628 0.107 0.942 0.012 0.092 0.068 0.182 0.17 0.156 0.066-0.017 0.119-0.11 0.156-0.18 0.019-0.036 0-0.093-0.014-0.141-0.027-0.299-0.059-0.596-0.073-0.895-0.016-0.441-0.055-0.857-0.118-1.265l0.008 0.059c-0.037-0.25-0.048-0.509-0.066-0.757l-0.076-1.078c-0.010-0.141-0.041-0.272-0.088-0.395l0.003 0.009c-0.036-0.059-0.098-0.098-0.169-0.102l-0.001-0c-0.054 0-0.102 0.087-0.146 0.139-0.019 0.017-0.012 0.048-0.010 0.071zM5.501 24.45c0.124-0.083 0.153-0.154 0.054-0.222-0.018-0.005-0.038-0.007-0.059-0.007-0.035 0-0.069 0.008-0.099 0.022l0.001-0.001c-0.088 0.088-0.041 0.153 0.102 0.209zM5.348 24.017c0.043 0.045 0.092 0.085 0.145 0.119l0.003 0.002c0.015-0.059 0.029-0.131 0.037-0.205l0.001-0.007c0-0.261 0.027-0.525 0.020-0.788-0.012-0.382-0.041-0.764-0.065-1.146 0-0.029-0.071-0.053-0.16-0.115-0.034 0.071-0.062 0.154-0.082 0.24l-0.001 0.008c-0.005 0.081-0.008 0.176-0.008 0.272s0.003 0.19 0.008 0.285l-0.001-0.013c0.024 0.409 0.051 0.82 0.085 1.229-0.001 0.008-0.002 0.018-0.002 0.027 0 0.034 0.007 0.066 0.019 0.095l-0.001-0.002zM6.474 12.274c0.001 0.013 0.002 0.029 0.002 0.044 0 0.163-0.075 0.308-0.193 0.403l-0.001 0.001c-0.024 0.026-0.040 0.059-0.046 0.096l-0 0.001c-0.074 0.176-0.133 0.381-0.168 0.595l-0.002 0.016c-0.055 0.291-0.122 0.54-0.204 0.782l0.012-0.040c-0.022 0.078-0.043 0.175-0.058 0.274l-0.002 0.013c-0.015 0.13-0.051 0.249-0.106 0.357l0.003-0.006c-0.033 0.083-0.052 0.18-0.052 0.28 0 0.029 0.002 0.057 0.005 0.085l-0-0.003c0 0.063 0.066 0.124 0.207 0.102 0.034-0.069 0.069-0.153 0.098-0.24l0.004-0.014c0.065-0.268 0.143-0.535 0.214-0.801 0.105-0.412 0.215-0.751 0.344-1.082l-0.022 0.063c0.046-0.125 0.085-0.274 0.11-0.428l0.002-0.015c0.029-0.164 0.089-0.309 0.173-0.437l-0.003 0.004c0.049-0.066 0-0.187 0-0.285-0.205-0.005-0.317 0.092-0.317 0.236zM6.829 11.889l-0.005-0.007v0.002l0.005 0.005zM5.8 15.424c-0.34 0.109-0.353 0.219-0.102 0.433 0.097-0.046 0.163-0.144 0.163-0.257 0-0.067-0.023-0.128-0.062-0.177l0 0.001zM6.802 12.038l-0.005-0.005 0.002 0.005h0.003z"></path>
<path d="M7.218 10.817c-0.053-0.014-0.1-0.031-0.149-0.048-0.025 0.057-0.045 0.124-0.057 0.193l-0.001 0.005c-0.009 0.135-0.063 0.256-0.147 0.35l0.001-0.001c-0.086 0.074-0.139 0.183-0.139 0.304 0 0.101 0.037 0.193 0.099 0.264l-0-0c0.063-0.053 0.148-0.093 0.183-0.158l0.447-0.805c-0.067-0.049-0.146-0.085-0.232-0.104l-0.004-0.001zM5.977 30.348l0.418 0.368c-0.073-0.353-0.151-0.7-0.236-1.046-0.037-0.085-0.085-0.159-0.142-0.223l0.001 0.001c-0.103 0.086-0.169 0.215-0.169 0.359 0 0.091 0.026 0.176 0.071 0.248l-0.001-0.002c0.038 0.070 0.061 0.153 0.061 0.241 0 0.019-0.001 0.038-0.003 0.057l0-0.002zM3.477 16.542c-0.015 0.025-0.030 0.055-0.042 0.087l-0.002 0.005c-0.071 0.221-0.010 0.457-0.088 0.679-0.001 0.004-0.002 0.008-0.002 0.012s0.001 0.008 0.002 0.012l-0-0c0.021 0.067 0.033 0.145 0.033 0.225 0 0.102-0.020 0.2-0.055 0.289l0.002-0.005c-0.014 0.043-0.022 0.093-0.022 0.144 0 0.129 0.051 0.246 0.135 0.331l-0-0c0.068-0.063 0.122-0.092 0.132-0.126 0.046-0.158 0.085-0.317 0.115-0.475 0.051-0.28 0.093-0.559 0.153-0.835 0.014-0.077 0.025-0.168 0.029-0.261l0-0.004c0-0.070-0.020-0.139-0.155-0.17s-0.197 0.019-0.234 0.092zM3.316 18.802c0.001 0.026 0.002 0.057 0.002 0.088 0 0.124-0.013 0.246-0.036 0.363l0.002-0.012c-0.014 0.37-0.010 0.74-0.012 1.11-0.001 0.010-0.001 0.021-0.001 0.032 0 0.045 0.005 0.089 0.015 0.131l-0.001-0.004c0.024 0.058 0.067 0.105 0.121 0.133l0.001 0.001c0.068-0.022 0.121-0.070 0.15-0.133l0.001-0.002c0.013-0.040 0.020-0.087 0.020-0.135 0-0.012-0.001-0.025-0.001-0.037l0 0.002c0.010-0.509 0.009-1.019 0.041-1.538 0.006-0.018 0.009-0.040 0.009-0.062 0-0.090-0.055-0.167-0.133-0.199l-0.001-0.001c-0.136 0.068-0.195 0.165-0.177 0.26zM3.805 15.994c-0.277 0.076-0.292 0.097-0.149 0.294 0.292-0.095 0.302-0.115 0.149-0.294zM3.294 21.55c0 0.197-0.022 0.396-0.014 0.593 0.009 0.263 0.032 0.526 0.063 0.786 0.010 0.090-0.010 0.194 0.214 0.256 0.040-0.092 0.070-0.198 0.084-0.31l0.001-0.006-0.070-1.868c0-0.054-0.049-0.109-0.095-0.202-0.2 0.17-0.2 0.17-0.197 0.282 0.005 0.158 0.015 0.312 0.014 0.469zM3.369 23.852c0.024 0.057 0.038 0.123 0.038 0.192 0 0.016-0.001 0.032-0.002 0.047l0-0.002c-0.021 0.078-0.033 0.167-0.033 0.259s0.012 0.181 0.035 0.266l-0.002-0.007c0.056 0.125 0.095 0.269 0.108 0.421l0 0.005c-0.008 0.096-0.012 0.208-0.012 0.32 0 0.217 0.016 0.43 0.047 0.639l-0.003-0.024c0.001 0.027 0.002 0.058 0.002 0.090 0 0.099-0.007 0.196-0.020 0.291l0.001-0.011c0 0.256 0.090 0.509 0.104 0.766 0.014 0.278 0.039 0.553 0.066 0.83 0 0.059 0 0.138 0.17 0.139 0.129-0.051 0.17-0.117 0.17-0.197-0.017-0.234-0.037-0.47-0.039-0.706 0-0.39-0.073-0.783-0.070-1.173 0.002-0.029 0.002-0.064 0.002-0.098 0-0.126-0.011-0.248-0.033-0.368l0.002 0.012c-0.051-0.178-0.081-0.382-0.081-0.594 0-0.065 0.003-0.129 0.008-0.192l-0.001 0.008c0.015-0.102 0.087-0.205 0.049-0.302-0.099-0.26-0.161-0.561-0.17-0.875l-0-0.004c0-0.063-0.029-0.127-0.2-0.17-0.092 0.081-0.15 0.199-0.15 0.331 0 0.037 0.005 0.074 0.013 0.108l-0.001-0.003zM4.048 28.864c0.021-0.052 0.033-0.113 0.033-0.176 0-0.050-0.008-0.099-0.022-0.145l0.001 0.003c-0.027-0.109 0.025-0.25-0.158-0.329-0.029 0.069-0.045 0.149-0.045 0.233 0 0.14 0.046 0.269 0.124 0.373l-0.001-0.002zM5.308 10.939c-0.108 0.039-0.238 0.073-0.371 0.095l-0.013 0.002c-0.019 0.032-0.037 0.065-0.053 0.097-0.053 0.107-0.087 0.222-0.129 0.331-0.082 0.212-0.187 0.418-0.246 0.635s-0.107 0.435-0.17 0.649c-0.059 0.239-0.137 0.447-0.237 0.643l0.008-0.017c-0.028 0.087-0.044 0.186-0.044 0.29 0 0.028 0.001 0.055 0.003 0.082l-0-0.004c0 0.041 0.014 0.095-0.017 0.121-0.137 0.136-0.222 0.324-0.222 0.533 0 0.003 0 0.006 0 0.009v-0c-0.017 0.139-0.039 0.277-0.063 0.414-0.012 0.071-0.034 0.143-0.049 0.214-0.037 0.165-0.073 0.377-0.097 0.591l-0.003 0.030c0 0.068 0.061 0.129 0.192 0.158 0.295-0.155 0.29-0.394 0.287-0.618 0-0.465 0.18-0.891 0.289-1.333 0.049-0.228 0.17-0.441 0.231-0.669 0.087-0.323 0.17-0.649 0.278-0.968 0.078-0.226 0.194-0.44 0.275-0.664 0.062-0.159 0.12-0.352 0.165-0.551l0.005-0.028c0.002-0.007 0.003-0.014 0.003-0.022s-0.001-0.015-0.003-0.023l0 0.001zM7.394 18.149c0-0.036-0.041-0.076-0.068-0.129-0.2 0.061-0.224 0.17-0.204 0.272 0.009 0.074 0.015 0.16 0.015 0.247 0 0.161-0.018 0.317-0.053 0.467l0.003-0.014c-0.020 0.138-0.037 0.277-0.053 0.414s-0.015 0.277-0.022 0.416c-0.002 0.015-0.003 0.032-0.003 0.050 0 0.107 0.046 0.203 0.12 0.269l0 0c0.039-0.015 0.075-0.022 0.076-0.031 0.060-0.287 0.102-0.624 0.117-0.968l0-0.013c0.020-0.326 0.022-0.655 0.071-0.98zM7.012 20.695c0 0.402 0.029 0.805 0.029 1.207s0.025 0.79 0.041 1.189v0.577c0.011 0.103 0.029 0.195 0.052 0.285l-0.003-0.014c0.019 0.068 0.034 0.15 0.043 0.234l0.001 0.008c0.012 0.211 0.014 0.421 0.029 0.63 0.036 0.43 0.17 0.849 0.148 1.287-0.001 0.007-0.002 0.015-0.002 0.023 0 0.067 0.043 0.125 0.102 0.147l0.001 0c0.124-0.017 0.138-0.056 0.141-0.1 0.018-0.124 0.028-0.268 0.028-0.414 0-0.228-0.025-0.45-0.073-0.664l0.004 0.020c-0.012-0.028-0.023-0.062-0.030-0.096l-0.001-0.004c0.001-0.041 0.002-0.089 0.002-0.137 0-0.191-0.013-0.379-0.039-0.564l0.002 0.021c-0.065-0.295 0.046-0.601-0.093-0.888 0-0.015 0.019-0.034 0.017-0.051 0-0.127 0-0.255-0.008-0.38-0.015-0.357-0.020-0.713-0.042-1.068l-0.11-1.385c0.002-0.010 0.002-0.021 0.002-0.033 0-0.082-0.043-0.154-0.108-0.194l-0.001-0.001c-0.049 0.049-0.087 0.075-0.093 0.1-0.022 0.079-0.036 0.169-0.039 0.263l-0 0.002zM7.243 17.841c0.054-0.027 0.126-0.042 0.132-0.068 0.022-0.085 0.093-0.17-0.065-0.268-0.153 0.138-0.149 0.139-0.068 0.336zM7.393 16.773c0.11-0.021 0.192-0.116 0.192-0.23 0-0.002-0-0.004-0-0.006v0c0-0.054 0-0.114-0.11-0.149-0.207 0.138-0.217 0.17-0.082 0.385zM7.848 14.736c0.1-0.062 0.167-0.171 0.17-0.295v-0c0.014-0.109 0.134-0.205-0.056-0.362-0.236 0.183-0.226 0.413-0.114 0.657zM7.664 15.744c0.273-0.192 0.132-0.469 0.238-0.679 0.025-0.056 0-0.122-0.075-0.185-0.214 0.070-0.253 0.109-0.314 0.52-0.011 0.029-0.018 0.062-0.018 0.097 0 0.112 0.069 0.208 0.167 0.248l0.002 0.001zM7.664 15.923c0-0.014-0.042-0.048-0.065-0.049-0.008-0.001-0.017-0.002-0.027-0.002-0.032 0-0.061 0.007-0.088 0.019l0.001-0.001c-0.127 0.1-0.129 0.222 0 0.382 0.221-0.090 0.183-0.222 0.178-0.35zM7.398 16.867c-0.253 0.153-0.2 0.329-0.078 0.52 0.143-0.071 0.151-0.070 0.16-0.148 0.012-0.112 0.104-0.224-0.082-0.372zM7.578 27.312c0.078-0.038 0.131-0.116 0.131-0.207 0-0.026-0.004-0.051-0.012-0.075l0 0.002c0-0.056-0.031-0.11-0.148-0.114-0.161 0.188-0.16 0.221 0.029 0.394zM7.605 26.414c-0.019-0.018-0.045-0.029-0.074-0.029-0.002 0-0.003 0-0.004 0h0c-0.040 0.007-0.074 0.024-0.102 0.049l0-0c-0.093 0.134-0.065 0.251 0.107 0.367 0.185-0.144 0.109-0.267 0.073-0.387zM7.607 27.4c-0.211 0.212-0.115 0.368 0.051 0.525 0.121-0.104 0.129-0.104 0.119-0.182-0.019-0.114 0.044-0.238-0.17-0.343zM8.797 12.018l-0.126-0.117c-0.018 0.027-0.035 0.058-0.049 0.091l-0.002 0.004q-0.229 0.53-0.418 1.078c-0.008 0.018-0.012 0.039-0.012 0.060 0 0.001 0 0.002 0 0.002v-0c-0.009 0.13-0.057 0.246-0.132 0.341l0.001-0.001c-0.054 0.098-0.096 0.211-0.122 0.331l-0.002 0.008c-0.008 0.032 0.042 0.082 0.078 0.143 0.085-0.035 0.152-0.102 0.186-0.185l0.001-0.002c0.051-0.174 0.121-0.327 0.208-0.466l-0.005 0.008c0.278-0.358 0.355-0.784 0.509-1.189-0.036-0.037-0.076-0.070-0.117-0.107zM7.669 28.918c-0.002-0.009-0.003-0.020-0.003-0.031s0.001-0.022 0.003-0.032l-0 0.001c0.004-0.025 0.006-0.054 0.006-0.083 0-0.094-0.024-0.182-0.066-0.259l0.001 0.003c-0.034-0.101-0.054-0.218-0.054-0.339v-0c0-0.032 0.056-0.070 0.102-0.122 0.076 0.046 0.13 0.12 0.147 0.209l0 0.002c0.017 0.177 0.056 0.34 0.115 0.493l-0.004-0.013c0.205 0.421 0.17 0.871 0.224 1.311 0 0.070 0.022 0.153-0.139 0.214-0.11-0.018-0.193-0.111-0.193-0.225 0-0.006 0-0.013 0.001-0.019l-0 0.001c-0.051-0.368-0.095-0.739-0.141-1.109zM7.902 30.402c0.027-0.028 0.062-0.048 0.103-0.054l0.001-0c0.039 0 0.107 0.012 0.112 0.027 0.046 0.089 0.094 0.201 0.137 0.317l0.007 0.023-0.34 0.054c-0.028-0.077-0.051-0.168-0.064-0.261l-0.001-0.007c0.002-0.039 0.019-0.073 0.044-0.098v0z"></path>
<path d="M4.185 14.345c0.271 0.445 0.655 0.797 1.113 1.022l0.016 0.007c0.068 0.034 0.17 0.082 0.17 0.122 0.054 0.153 0.25 0.267 0.391 0.394 0.153 0.157 0.329 0.29 0.523 0.393l0.011 0.006c0.112 0.211 0.509 0.319 0.667 0.509 0.074 0.055 0.167 0.089 0.268 0.089 0.025 0 0.050-0.002 0.074-0.006l-0.003 0c0.087-0.019 0.082-0.097-0.024-0.182-0.217-0.17-0.445-0.34-0.664-0.525-0.097-0.078-0.17-0.17-0.284-0.241-0.543-0.369-1.010-0.796-1.409-1.282l-0.009-0.012c-0.158-0.179-0.356-0.318-0.581-0.406l-0.010-0.004c-0.211-0.056-0.319-0.002-0.251 0.114zM9.286 16.673c0.036 0.055 0.083 0.099 0.139 0.13l0.002 0.001c0.065 0.017 0.141 0.027 0.218 0.027 0.007 0 0.014-0 0.021-0l-0.001 0c0.015 0 0.024-0.017 0.037-0.027 0-0.066-0.199-0.16-0.34-0.16-0.024-0.005-0.083 0.020-0.076 0.029zM11.026 16.3q-0.295-0.216-0.591-0.445t-0.577-0.464c-0.056-0.046-0.178-0.087-0.212-0.131-0.216-0.255-0.47-0.469-0.755-0.634l-0.014-0.007c-0.026-0.014-0.046-0.036-0.057-0.062l-0-0.001c-0.070-0.2-0.34-0.382-0.547-0.576-0.423-0.399-0.849-0.817-1.248-1.255-0.255-0.285-0.47-0.587-0.74-0.881-0.255-0.255-0.494-0.527-0.715-0.812l-0.015-0.020c-0.035-0.046-0.073-0.086-0.113-0.123l-0.001-0.001-0.132 0.048-0.098 0.029c-0.008 0.105 0.076 0.197 0.16 0.302 0.139 0.149 0.267 0.311 0.382 0.484l0.009 0.014c0.146 0.28 0.445 0.521 0.625 0.781 0.197 0.261 0.414 0.49 0.654 0.693l0.006 0.005c0.25 0.217 0.399 0.447 0.706 0.649 0.17 0.115 0.265 0.27 0.475 0.384 0.027 0.015 0.047 0.039 0.056 0.069l0 0.001c0 0.098 0.114 0.17 0.27 0.233 0.090 0.036 0.143 0.065 0.122 0.119-0.001 0.006-0.002 0.012-0.002 0.019 0 0.038 0.020 0.071 0.050 0.090l0 0c0.182 0.119 0.289 0.26 0.467 0.362 0.156 0.094 0.29 0.207 0.404 0.338l0.002 0.002c0.23 0.218 0.478 0.423 0.74 0.609l0.021 0.014c0.113 0.079 0.244 0.159 0.38 0.23l0.020 0.010c0.045 0.022 0.097 0.040 0.152 0.052l0.004 0.001c0.129 0.032 0.224 0 0.178-0.061-0.019-0.023-0.041-0.043-0.065-0.060l-0.001-0.001zM4.506 12.493c-0.008 0.015-0.013 0.033-0.013 0.052 0 0.028 0.011 0.054 0.029 0.072l-0-0c0.211 0.17 0.216 0.402 0.548 0.526 0.019 0 0.029 0.034 0.036 0.051 0.107 0.282 0.382 0.52 0.655 0.762 0.458 0.402 0.912 0.79 1.307 1.173 0.27 0.26 0.65 0.465 0.944 0.696 0.054 0.034 0.116 0.060 0.183 0.074l0.004 0.001c0.202 0.054 0.321 0.014 0.245-0.092-0.069-0.082-0.147-0.153-0.234-0.213l-0.004-0.003c-0.224-0.17-0.462-0.34-0.679-0.509-0.477-0.368-0.808-0.796-1.323-1.189-0.056-0.041-0.103-0.092-0.14-0.149l-0.001-0.002c-0.121-0.216-0.392-0.382-0.647-0.552-0.082-0.053-0.152-0.114-0.211-0.185l-0.001-0.001c-0.136-0.17-0.316-0.328-0.481-0.492-0.028-0.018-0.061-0.033-0.095-0.043l-0.003-0.001c-0.032 0.005-0.107 0.002-0.119 0.024zM8.462 16.138c0.117 0.083 0.265 0.158 0.424 0.248 0.059-0.032 0.129-0.049 0.124-0.073-0.029-0.098-0.141-0.187-0.312-0.256-0.042-0.017-0.092-0.027-0.143-0.027-0.018 0-0.035 0.001-0.052 0.003l0.002-0c-0.042 0.022-0.075 0.081-0.042 0.105zM3.554 17.896c0.044 0.052 0.102 0.092 0.167 0.115l0.003 0.001c0.29 0.112 0.537 0.276 0.74 0.484l0 0c0.112 0.115 0.254 0.202 0.413 0.248l0.007 0.002c0.114 0.029 0.199 0.068 0.217 0.143s0.127 0.124 0.328 0.136c0.027 0 0.143-0.015 0.156-0.042s-0.037-0.088-0.090-0.121-0.214-0.070-0.256-0.121c-0.302-0.353-0.915-0.599-1.18-0.988-0.075-0.083-0.182-0.135-0.302-0.135-0.033 0-0.065 0.004-0.096 0.012l0.003-0.001c-0.081 0.014-0.142 0.084-0.142 0.167 0 0.038 0.012 0.073 0.033 0.101l-0-0zM7.498 30.207c-0.047-0.016-0.102-0.025-0.159-0.025s-0.111 0.009-0.162 0.026l0.004-0.001c0-0.090-0.071-0.17-0.231-0.178-0.001 0-0.003 0-0.004 0-0.15 0-0.288-0.050-0.398-0.135l0.002 0.001c-0.042-0.024-0.092-0.038-0.145-0.038-0.044 0-0.086 0.010-0.123 0.027l0.002-0.001c-0.054 0.025-0.126 0.076-0.115 0.098s0.083 0.070 0.148 0.085 0.204-0.015 0.239 0.051c0.078 0.148 0.299 0.158 0.567 0.122-0.042 0.085 0 0.146 0.124 0.187l0.81 0.268 0.138 0.044 0.711-0.117c-0.073-0.019-0.146-0.041-0.219-0.065zM5.493 17.318c0.051 0.055 0.106 0.105 0.167 0.147l0.003 0.002c0.063 0.049 0.138 0.092 0.199 0.139 0.219 0.17 0.418 0.34 0.659 0.499 0.28 0.164 0.519 0.327 0.746 0.505l-0.015-0.011c0.041 0.035 0.088 0.065 0.139 0.088l0.004 0.002c0.059 0.028 0.129 0.045 0.202 0.045 0.056 0 0.109-0.010 0.159-0.027l-0.003 0.001c0.032-0.012 0.055-0.043 0.055-0.079 0-0.019-0.006-0.036-0.016-0.050l0 0c-0.092-0.109-0.197-0.203-0.315-0.279l-0.005-0.003c-0.424-0.261-0.869-0.53-1.299-0.817-0.097-0.066-0.17-0.139-0.275-0.204-0.056-0.033-0.123-0.065-0.193-0.093l-0.011-0.004c-0.182-0.015-0.26 0.051-0.2 0.138zM3.566 15.87c-0.020 0.127 0.093 0.207 0.221 0.28 0.34 0.19 0.679 0.374 1.019 0.548 0.047 0.014 0.102 0.022 0.158 0.022h0c0-0.027 0.015-0.061 0-0.085-0.085-0.092-0.17-0.185-0.273-0.277l-0.577-0.53c-0.071-0.061-0.164-0.099-0.265-0.099-0.029 0-0.058 0.003-0.086 0.009l0.003-0c-0.077 0.031-0.144 0.075-0.199 0.131v0zM9.775 17.086c0.17 0.056 0.224 0.112 0.256 0.194s0.17 0.154 0.34 0.205c0.132 0.041 0.292 0.019 0.29-0.044-0.006-0.019-0.018-0.035-0.032-0.047l-0-0-0.611-0.414c-0.047-0.028-0.103-0.045-0.164-0.045-0.036 0-0.071 0.006-0.103 0.017l0.002-0.001c-0.087 0.029-0.090 0.098 0.022 0.136zM7.579 20.147c0.055-0.003 0.107-0.014 0.155-0.032l-0.004 0.001c-0.048-0.061-0.063-0.115-0.124-0.151-0.13-0.077-0.346-0.194-0.565-0.305l-0.096-0.044c-0.301-0.149-0.679-0.258-0.896-0.458-0.015-0.016-0.035-0.028-0.057-0.034l-0.001-0c-0.042-0.010-0.090-0.016-0.14-0.016-0.019 0-0.039 0.001-0.058 0.003l0.002-0c-0.049 0.015-0.102 0.070-0.085 0.093 0.044 0.068 0.109 0.119 0.186 0.145l0.003 0.001c0.099 0.017 0.183 0.072 0.239 0.148l0.001 0.001c0.074 0.063 0.161 0.115 0.255 0.151l0.006 0.002c0.333 0.133 0.612 0.271 0.879 0.429l-0.030-0.016c0.096 0.043 0.208 0.072 0.325 0.083l0.004 0zM8.522 19.32c0.113 0.050 0.259 0.103 0.408 0.148l0.030 0.008c0.068-0.005 0.131-0.017 0.191-0.037l-0.005 0.002c0.008-0.010 0.013-0.022 0.013-0.036 0-0.023-0.013-0.043-0.033-0.052l-0-0q-0.489-0.263-0.997-0.545c-0.061-0.034-0.136-0.104-0.239-0.063-0.040 0.018-0.067 0.058-0.067 0.104 0 0.010 0.001 0.020 0.004 0.030l-0-0.001c0 0.039 0.058 0.085 0.112 0.117 0.188 0.114 0.382 0.226 0.584 0.326zM5.275 29.752c0.17 0.049 0.357 0.095 0.528 0.146 0.018 0.005 0.039 0.008 0.061 0.008s0.043-0.003 0.063-0.008l-0.002 0c0.071-0.022 0.131-0.047 0.188-0.076l-0.006 0.003c-0.050-0.046-0.106-0.089-0.165-0.126l-0.005-0.003c-0.212-0.090-0.383-0.175-0.548-0.268l0.029 0.015c-0.295-0.188-0.716-0.287-1.105-0.411 0.366 0.246 0.68 0.482 0.98 0.734l-0.018-0.014zM9.761 13.541c-0.069-0.059-0.16-0.095-0.259-0.095-0.011 0-0.022 0-0.033 0.001l0.001-0c-0.076 0.031-0.065 0.088 0 0.156 0.125 0.108 0.277 0.189 0.444 0.231l0.008 0.002c0.073-0.083-0.012-0.187-0.161-0.295zM11.76 30.022c-0.015-0.006-0.034-0.013-0.054-0.019l-0.004-0.001c-0.419-0.122-0.793-0.289-1.273-0.385-0.128-0.031-0.238-0.066-0.343-0.109l0.015 0.006-0.745-0.25c-0.17-0.058-0.357-0.11-0.526-0.17l-0.783-0.299c-0.16-0.058-0.34-0.097-0.509-0.151l-1.189-0.409-1.508-0.509c-0.17-0.056-0.34-0.109-0.521-0.16-0.046-0.010-0.1-0.018-0.156-0.020l-0.002-0c-0.195 0.022-0.301 0.107-0.255 0.185 0.029 0.036 0.063 0.066 0.102 0.091l0.002 0.001c0.203 0.136 0.444 0.231 0.704 0.267l0.009 0.001c0.464 0.112 0.853 0.236 1.231 0.384l1.124 0.387c0.148 0.045 0.272 0.094 0.392 0.151l-0.016-0.007c0.332 0.156 0.718 0.274 1.122 0.337l0.024 0.003c0.358 0.067 0.668 0.151 0.968 0.256l-0.044-0.014c0.256 0.123 0.562 0.239 0.878 0.329l0.043 0.010c0.308 0.049 0.584 0.128 0.844 0.236l-0.024-0.009c0.063 0.018 0.134 0.029 0.209 0.029 0.032 0 0.063-0.002 0.094-0.006l-0.004 0c0.085-0.005 0.164-0.022 0.239-0.049l-0.006 0.002c0.090-0.034 0.032-0.078-0.036-0.109zM9.919 13.953c0.046 0.049 0.103 0.086 0.167 0.109l0.003 0.001c0.051 0.017 0.161 0.014 0.16 0-0.016-0.053-0.050-0.096-0.094-0.123l-0.001-0.001c-0.062-0.033-0.136-0.065-0.212-0.090l-0.010-0.003c-0.005 0.034-0.036 0.076-0.012 0.107zM9.938 13.845l0.002-0.005-0.010-0.003-0.002 0.005 0.010 0.003zM5.285 16.919c-0.056 0.014-0.104 0.037-0.147 0.067l0.001-0.001c0.072 0.045 0.156 0.089 0.244 0.129l0.014 0.006c0.017 0 0.090-0.039 0.121-0.053-0.008-0.088-0.127-0.156-0.233-0.148zM9.016 18.133c0.275 0.097 0.421 0.251 0.742 0.317 0.056 0.010 0.087 0.054 0.132 0.081 0.048 0.033 0.104 0.065 0.162 0.093l0.008 0.004c0.151 0.066 0.307 0.090 0.34 0.058s-0.046-0.098-0.121-0.139-0.278-0.097-0.306-0.149c-0.090-0.17-0.43-0.268-0.65-0.404-0.375-0.202-0.696-0.411-0.998-0.644l0.017 0.012c-0.147-0.108-0.314-0.212-0.488-0.302l-0.021-0.010c-0.051-0.022-0.113-0.043-0.176-0.059l-0.009-0.002c-0.027 0.032-0.080 0.063-0.063 0.085 0.067 0.087 0.142 0.163 0.223 0.231l0.002 0.002c0.233 0.194 0.547 0.353 0.742 0.552 0.128 0.12 0.283 0.214 0.455 0.272l0.009 0.003zM4.284 19.819c-0.117-0.124-0.249-0.231-0.394-0.32l-0.008-0.005c-0.131-0.051-0.281-0.080-0.439-0.081h-0.001c-0.041 0-0.138 0.065-0.138 0.1 0.010 0.2 0.509 0.475 0.823 0.465 0.139-0.003 0.234-0.085 0.156-0.16zM9.807 26.764l-0.144-0.054c-0.032 0.025-0.083 0.049-0.088 0.073s0.054 0.031 0.1 0.056zM3.666 25.95c-0.012 0.017-0.020 0.039-0.020 0.062 0 0.035 0.016 0.065 0.041 0.085l0 0c0.244 0.15 0.538 0.306 0.842 0.446l0.055 0.023c0.368 0.17 0.771 0.302 1.163 0.445 0.17 0.065 0.377 0.11 0.543 0.17l1.341 0.553c0.043 0.024 0.092 0.046 0.144 0.063l0.006 0.002c0.679 0.146 1.211 0.39 1.822 0.574 0.467 0.141 1.019 0.214 1.401 0.416 0.055 0.015 0.119 0.027 0.185 0.032l0.004 0c0.019 0.005 0.041 0.007 0.063 0.007 0.061 0 0.118-0.020 0.164-0.054l-0.001 0.001c0.061-0.042 0.070-0.085 0-0.114-0.121-0.049-0.241-0.097-0.37-0.141l-1.255-0.44c-0.051-0.024-0.114-0.049-0.178-0.069l-0.010-0.003c-0.467-0.116-0.866-0.252-1.25-0.416l0.053 0.020c-0.326-0.114-0.679-0.214-1.009-0.326-0.188-0.065-0.34-0.149-0.545-0.207-0.326-0.086-0.609-0.193-0.876-0.325l0.027 0.012c-0.179-0.107-0.386-0.206-0.603-0.285l-0.026-0.008c-0.259-0.073-0.486-0.186-0.685-0.333l0.006 0.004c-0.059-0.054-0.128-0.098-0.204-0.129l-0.005-0.002c-0.188-0.065-0.396-0.119-0.604-0.18-0.098 0.053-0.197 0.080-0.219 0.115zM3.584 24.497c0.124 0.193 0.314 0.334 0.537 0.392l0.006 0.001c0.205 0.048 0.379 0.11 0.562 0.17 0.264 0.078 0.489 0.167 0.704 0.274l-0.025-0.011c0.332 0.17 0.717 0.315 1.121 0.415l0.037 0.008c0.408 0.096 0.761 0.219 1.098 0.372l-0.037-0.015c0.151 0.076 0.34 0.134 0.474 0.216 0.109 0.056 0.237 0.088 0.373 0.088 0.117 0 0.229-0.024 0.33-0.068l-0.005 0.002c-0.439-0.284-0.949-0.508-1.494-0.643l-0.035-0.007c-0.065-0.015-0.122-0.033-0.176-0.057l0.006 0.002c-0.433-0.17-0.871-0.355-1.292-0.543-0.389-0.146-0.72-0.305-1.034-0.49l0.030 0.016c-0.234-0.17-0.608-0.212-0.997-0.231-0.11-0.002-0.221 0.061-0.185 0.109z"></path>
<path d="M8.761 26.343l0.005-0.005-0.012 0.003 0.003 0.002h0.003zM9.928 27.008c0.261 0.085 0.523 0.17 0.767 0.261 0.061 0.021 0.13 0.032 0.203 0.032s0.142-0.012 0.207-0.034l-0.005 0.001c0.030-0.011 0.056-0.026 0.079-0.044l-0 0c-0.010-0.019-0.010-0.037-0.027-0.044-0.34-0.114-0.679-0.229-1.019-0.34-0.004-0-0.009-0-0.014-0-0.060 0-0.117 0.015-0.166 0.042l0.002-0.001c-0.058 0.034-0.138 0.090-0.027 0.126zM11.459 13.583c-0.029-0.032-0.054-0.063-0.085-0.093-0.192-0.187-0.382-0.382-0.57-0.581-0.174-0.006-0.339-0.027-0.499-0.061l0.019 0.003c0.256 0.248 0.509 0.489 0.733 0.728 0.111 0.087 0.245 0.148 0.392 0.172l0.005 0.001c0.114 0 0.115-0.054 0.005-0.17zM12.186 13.074c0.078 0.033 0.145 0.074 0.206 0.122l-0.002-0.001-0.28-0.155zM9.289 19.568c-0.010 0.051 0.119 0.102 0.26 0.098 0.029-0.004 0.054-0.013 0.077-0.026l-0.001 0.001c-0.017-0.066-0.143-0.119-0.265-0.11-0.022-0.005-0.068 0.022-0.071 0.037zM9.428 13.157c-0.28-0.277-0.537-0.574-0.77-0.891l-0.015-0.021c-0.073-0.109-0.143-0.203-0.219-0.293l0.004 0.005c-0.277-0.312-0.557-0.633-0.817-0.975-0.224-0.049-0.080-0.073-0.394-0.17-0.083-0.024-0.17-0.051-0.239-0.080 0.358 0.533 0.813 1.019 1.172 1.486 0.068 0.087 0.183 0.17 0.258 0.255 0.187 0.214 0.457 0.409 0.599 0.62 0.093 0.107 0.214 0.187 0.351 0.229l0.005 0.001c0.028 0.005 0.061 0.007 0.094 0.007s0.066-0.003 0.098-0.008l-0.003 0c-0.039-0.063-0.080-0.117-0.125-0.167l0.001 0.001zM8.028 20.436c0.109 0.041 0.24 0.079 0.375 0.106l0.017 0.003 0.217-0.044c-0.027-0.034-0.059-0.063-0.094-0.087l-0.001-0.001c-0.075-0.040-0.167-0.081-0.261-0.117l-0.017-0.006c-0.034-0.015-0.074-0.024-0.116-0.024-0.055 0-0.107 0.015-0.151 0.041l0.001-0.001c-0.013 0.014-0.021 0.033-0.021 0.054 0 0.033 0.020 0.062 0.049 0.075l0.001 0zM8.899 26.591c0.093 0 0.18 0.024 0.272 0.032 0.002 0 0.003 0 0.005 0 0.025 0 0.049-0.005 0.071-0.014l-0.001 0c0.017-0.010 0.034-0.034 0.025-0.039-0.155-0.083-0.212-0.222-0.509-0.228-0.020 0.027-0.044 0.053-0.061 0.078-0.080 0.124-0.041 0.154 0.199 0.17zM4.341 20.159c0.031 0.043 0.073 0.076 0.122 0.096l0.002 0.001c0.194 0.055 0.36 0.155 0.492 0.289l0 0c0.065 0.042 0.14 0.076 0.22 0.099l0.006 0.001c0.076 0.023 0.142 0.050 0.205 0.083l-0.006-0.003c0.23 0.152 0.496 0.301 0.774 0.429l0.038 0.016c0.297 0.17 0.679 0.28 0.903 0.477 0.026 0.019 0.057 0.035 0.090 0.044l0.002 0 0.621 0.212c0.049 0.014 0.091 0.041 0.124 0.076l0 0c0.090 0.138 0.329 0.138 0.559 0.146 0.114 0 0.151-0.039 0.143-0.087s-0.037-0.053-0.063-0.078c-0.206-0.165-0.452-0.29-0.72-0.36l-0.014-0.003c-0.264-0.081-0.493-0.184-0.705-0.312l0.014 0.008c-0.111-0.056-0.247-0.113-0.387-0.162l-0.025-0.008c-0.255-0.112-0.572-0.205-0.745-0.35-0.34-0.273-0.849-0.452-1.307-0.679-0.034-0.017-0.077-0.034-0.122-0.050l-0.009-0.003c-0.182-0.022-0.268 0.046-0.211 0.117zM10.5 20.149c0.022 0.005 0.048 0.007 0.075 0.007s0.052-0.003 0.077-0.008l-0.002 0c0.014-0.007 0.024-0.021 0.024-0.037 0-0.011-0.004-0.020-0.011-0.027l0 0c-0.158-0.122-0.345-0.214-0.548-0.264l-0.010-0.002c-0.017-0.002-0.037-0.002-0.058-0.002s-0.040 0.001-0.060 0.003l0.003-0c-0.020 0.022-0.078 0.051-0.065 0.073 0.083 0.121 0.263 0.221 0.576 0.258zM8.943 20.714c0.015 0.023 0.036 0.041 0.060 0.052l0.001 0c0.397 0.219 0.791 0.435 1.189 0.642 0.090 0.042 0.194 0.077 0.303 0.097l0.008 0.001c0.063-0.006 0.12-0.020 0.175-0.041l-0.005 0.002c-0.025-0.034-0.029-0.058-0.056-0.071l-1.204-0.659c-0.089-0.045-0.193-0.082-0.301-0.107l-0.009-0.002c-0.006-0-0.014-0.001-0.021-0.001-0.046 0-0.091 0.010-0.131 0.027l0.002-0.001c-0.010 0.009-0.016 0.022-0.016 0.036 0 0.009 0.002 0.017 0.006 0.024l-0-0zM3.613 21.461c-0.093 0.066-0.083 0.136 0.022 0.188 0.128 0.072 0.284 0.145 0.444 0.209l0.028 0.010c0.413 0.153 0.883 0.258 1.251 0.44 0.101 0.053 0.228 0.11 0.358 0.161l0.027 0.009c0.16 0.055 0.299 0.124 0.427 0.208l-0.007-0.004c0.176 0.109 0.378 0.206 0.591 0.28l0.022 0.007c0.491 0.19 1.032 0.34 1.411 0.594 0.063 0.041 0.137 0.072 0.216 0.089l0.005 0.001c0.311 0.075 0.584 0.192 0.832 0.346l-0.012-0.007c0.348 0.18 0.757 0.347 1.182 0.475l0.052 0.014c0.078 0.017 0.17 0.030 0.265 0.035l0.005 0c0.076-0.025 0.17-0.041 0.183-0.065s-0.019-0.070-0.061-0.087c-0.241-0.097-0.475-0.204-0.742-0.284-0.54-0.17-1.054-0.34-1.372-0.628-0.048-0.039-0.105-0.069-0.166-0.087l-0.003-0.001c-0.341-0.094-0.637-0.217-0.915-0.369l0.022 0.011c-0.255-0.145-0.553-0.281-0.863-0.392l-0.040-0.012c-0.379-0.141-0.711-0.312-1.121-0.438-0.066-0.020-0.123-0.043-0.176-0.069l0.007 0.003c-0.329-0.156-0.649-0.321-0.988-0.477-0.144-0.064-0.321-0.127-0.502-0.177l-0.028-0.007c-0.045-0.019-0.098-0.030-0.153-0.030-0.073 0-0.142 0.019-0.202 0.053l0.002-0.001zM10.208 22.811c0.063-0.008 0.121-0.026 0.172-0.054l-0.003 0.001s-0.031-0.046-0.065-0.059c-0.146-0.061-0.294-0.122-0.45-0.17-0.083-0.025-0.19-0.050-0.298-0.069l-0.017-0.003c-0.041 0.041-0.090 0.066-0.082 0.083 0.025 0.046 0.060 0.084 0.102 0.111l0.001 0.001c0.161 0.101 0.357 0.16 0.567 0.16 0.025 0 0.050-0.001 0.074-0.003l-0.003 0zM3.543 23.049c0.158 0.042 0.296 0.103 0.423 0.182l-0.007-0.004c0.142 0.11 0.309 0.197 0.49 0.252l0.011 0.003c0.27 0.106 0.494 0.213 0.709 0.333l-0.030-0.015c0.051 0.025 0.116 0.051 0.182 0.074l0.013 0.004c0.138 0.048 0.289 0.085 0.416 0.138 0.475 0.194 0.973 0.372 1.406 0.582 0.253 0.132 0.554 0.259 0.866 0.364l0.045 0.013c0.197 0.061 0.37 0.139 0.559 0.205l0.501 0.17c0.231 0.081 0.469 0.158 0.689 0.244s0.455 0.197 0.7 0.285c0.1 0.032 0.216 0.054 0.335 0.061l0.004 0c0.117 0.012 0.222-0.048 0.2-0.144-0.041-0.022-0.112-0.070-0.195-0.109-0.521-0.248-1.216-0.397-1.698-0.679-0.094-0.041-0.207-0.079-0.324-0.109l-0.016-0.003c-0.209-0.075-0.421-0.151-0.621-0.233-0.21-0.113-0.454-0.212-0.709-0.286l-0.026-0.006c-0.255-0.053-0.481-0.144-0.685-0.267l0.010 0.005c-0.067-0.037-0.148-0.075-0.232-0.107l-0.014-0.005c-0.316-0.124-0.638-0.246-0.947-0.377-0.238-0.098-0.441-0.221-0.688-0.314-0.363-0.139-0.817-0.211-1.155-0.375-0.018-0.008-0.040-0.013-0.062-0.013-0.006 0-0.012 0-0.018 0.001l0.001-0c-0.068 0.002-0.132 0.018-0.19 0.044l0.003-0.001c-0.019 0.014 0.012 0.071 0.054 0.087zM8.804 22.291c0.044 0.014 0.098 0.020 0.17 0.037 0.034-0.032 0.085-0.061 0.083-0.087s-0.053-0.046-0.093-0.061c-0.038-0.019-0.083-0.029-0.131-0.029s-0.092 0.011-0.133 0.030l0.002-0.001c-0.092 0.061 0.024 0.085 0.102 0.11zM14.317 7.063c0.32 0.068 0.719 0.128 1.125 0.166l0.045 0.003h0.044c0.211 0 0.421 0.015 0.63 0.014 0.433 0 0.861-0.114 1.294-0.061 0.008 0.001 0.017 0.002 0.026 0.002 0.063 0 0.118-0.037 0.143-0.091l0-0.001c0-0.124-0.048-0.139-0.090-0.148-0.183-0.040-0.394-0.063-0.609-0.063-0.158 0-0.314 0.012-0.465 0.036l0.017-0.002c-0.029 0.009-0.064 0.018-0.1 0.023l-0.004 0c-0.122-0.014-0.264-0.021-0.408-0.021-0.096 0-0.19 0.003-0.284 0.010l0.013-0.001c-0.297 0.044-0.596-0.087-0.891 0.034-0.015 0-0.034-0.020-0.051-0.022-0.126 0-0.253-0.014-0.379-0.017-0.231 0-0.462-0.014-0.691-0.020 0.205 0.056 0.411 0.11 0.635 0.158zM17.785 6.961c-0.020 0.019-0.032 0.046-0.032 0.076v0c0.004 0.040 0.018 0.076 0.041 0.106l-0-0c0.127 0.102 0.246 0.082 0.374-0.082-0.134-0.204-0.26-0.143-0.382-0.1zM8.179 4.623c0.057-0.033 0.104-0.077 0.138-0.131l0.001-0.002c0.025-0.070 0.041-0.151 0.044-0.234l0-0.002c0-0.015-0.015-0.025-0.024-0.039-0.066 0-0.17 0.187-0.183 0.328-0.005 0.041 0.015 0.085 0.024 0.080zM7.927 2.861q-0.236 0.28-0.484 0.559c-0.117 0.131-0.239 0.261-0.36 0.392-0.051 0.085-0.104 0.159-0.163 0.228l0.002-0.002-0.082 0.080c-0.011 0.020-0.026 0.037-0.042 0.051l-0.031 0.024-0.012 0.010c0 0.095 0 0.188 0.008 0.282 0.079-0.092 0.164-0.175 0.256-0.248l0.004-0.003c0.243-0.22 0.466-0.452 0.67-0.699l0.009-0.011c0.095-0.113 0.186-0.237 0.268-0.368l0.008-0.014c0.026-0.044 0.048-0.095 0.063-0.148l0.001-0.005c0.041-0.127 0.015-0.224-0.049-0.183-0.026 0.015-0.049 0.034-0.068 0.056l-0 0zM8.625 4.162c0.066-0.16 0.126-0.216 0.209-0.243s0.17-0.161 0.228-0.323c0.049-0.127 0.039-0.289-0.024-0.29-0.020 0.004-0.037 0.014-0.049 0.029l-0 0-0.458 0.581c-0.033 0.049-0.053 0.11-0.053 0.175 0 0.031 0.005 0.061 0.013 0.090l-0.001-0.002c0.020 0.085 0.090 0.093 0.136-0.017zM10.428 6.089c0.108-0.148 0.22-0.319 0.324-0.497l0.016-0.029c0.059-0.113 0.122-0.254 0.176-0.398l0.009-0.028c0-0 0-0.001 0-0.001 0-0.066-0.009-0.13-0.025-0.191l0.001 0.005c-0.010-0.009-0.024-0.015-0.039-0.015-0.021 0-0.040 0.011-0.051 0.028l-0 0c-0.197 0.314-0.399 0.633-0.61 0.958l-0.027 0.039c0.076 0.041 0.155 0.085 0.226 0.129zM20.667 6.539c0.037-0.126 0.075-0.255 0.109-0.384 0.092-0.356 0.196-0.657 0.32-0.948l-0.016 0.043c0.142-0.25 0.278-0.546 0.39-0.852l0.014-0.043c0.069-0.305 0.165-0.573 0.29-0.824l-0.009 0.021c0.030-0.075 0.047-0.162 0.047-0.254 0-0.015-0-0.031-0.001-0.046l0 0.002c0-0.002 0-0.004 0-0.006 0-0.081-0.012-0.16-0.034-0.234l0.001 0.006c-0.031-0.092-0.081-0.037-0.112 0.029-0.009 0.016-0.017 0.035-0.024 0.055l-0.001 0.003c-0.149 0.409-0.34 0.771-0.469 1.243-0.041 0.129-0.084 0.235-0.133 0.338l0.007-0.017-0.299 0.727c-0.070 0.17-0.134 0.348-0.207 0.509l-0.34 0.735zM9.231 5.513c0.027-0.027 0.054-0.054 0.082-0.078 0.13-0.122 0.233-0.27 0.303-0.436l0.003-0.008c0.115-0.268 0.28-0.404 0.367-0.72 0.014-0.054 0.059-0.083 0.090-0.126 0.036-0.049 0.071-0.104 0.103-0.162l0.004-0.008c0.076-0.146 0.11-0.301 0.080-0.34s-0.1 0.039-0.144 0.11-0.115 0.273-0.17 0.297c-0.18 0.076-0.297 0.411-0.447 0.62-0.17 0.246-0.34 0.52-0.53 0.749zM18.281 4.78l-0.061 0.141c0.020 0.032 0.042 0.085 0.065 0.092s0.036-0.051 0.063-0.097zM19.169 6.919c0.008-0.013 0.014-0.027 0.018-0.043l0-0.001c0.19-0.666 0.47-1.189 0.694-1.778 0.17-0.457 0.284-1.010 0.509-1.37 0.019-0.053 0.035-0.115 0.044-0.18l0.001-0.005c0.008-0.025 0.013-0.053 0.013-0.083 0-0.054-0.015-0.105-0.042-0.147l0.001 0.001c-0.039-0.065-0.081-0.076-0.115 0-0.056 0.115-0.112 0.234-0.17 0.358l-0.521 1.222c-0.029 0.051-0.057 0.111-0.082 0.174l-0.003 0.010c-0.149 0.459-0.31 0.846-0.497 1.216l0.022-0.048c-0.112 0.263-0.217 0.542-0.326 0.815z"></path>
<path d="M17.176 7.318h0.122c0.056-0.143 0.113-0.262 0.178-0.377l-0.008 0.015c0.085-0.146 0.156-0.329 0.246-0.458 0.072-0.121 0.115-0.267 0.115-0.423 0-0.097-0.017-0.191-0.047-0.278l0.002 0.006c-0.316 0.421-0.572 0.91-0.741 1.437l-0.010 0.035c0 0.015-0.012 0.027-0.017 0.041zM17.792 5.795l-0.005-0.007 0.003 0.014 0.002-0.003v-0.003zM18.536 4.674c0.102-0.253 0.2-0.509 0.311-0.747 0.028-0.071 0.045-0.154 0.045-0.24 0-0.059-0.008-0.116-0.022-0.17l0.001 0.005c-0.011-0.031-0.025-0.058-0.042-0.083l0.001 0.001c-0.020 0.010-0.039 0-0.046 0.025-0.136 0.329-0.273 0.657-0.409 0.995-0.001 0.009-0.001 0.020-0.001 0.032 0 0.054 0.011 0.106 0.031 0.153l-0.001-0.003c0.037 0.058 0.088 0.141 0.132 0.032zM11.067 4.814c0.053 0.012 0.11-0.112 0.117-0.253-0.002-0.029-0.010-0.055-0.021-0.080l0.001 0.001c-0.068 0.012-0.127 0.134-0.129 0.256 0.002 0.029 0.019 0.071 0.032 0.075zM11.85 6.131c0.048-0.106 0.094-0.234 0.13-0.366l0.004-0.019-0.031-0.219c-0.036 0.025-0.067 0.054-0.093 0.087l-0.001 0.001c-0.047 0.075-0.095 0.163-0.138 0.255l-0.006 0.015c-0.020 0.039-0.032 0.084-0.032 0.132s0.012 0.094 0.032 0.134l-0.001-0.002c0.015 0.017 0.037 0.027 0.061 0.027 0.032 0 0.060-0.019 0.073-0.045l0-0zM18.049 5.674c0.012-0.093 0.036-0.178 0.051-0.27 0.002-0.011 0.004-0.024 0.004-0.037s-0.001-0.026-0.004-0.039l0 0.001c0-0.017-0.032-0.037-0.037-0.027-0.093 0.148-0.236 0.197-0.261 0.492 0.025 0.022 0.049 0.048 0.073 0.066 0.11 0.082 0.143 0.051 0.175-0.187zM13.176 6.734l0.121-0.282c0.018-0.048 0.047-0.088 0.084-0.118l0.001-0c0.143-0.080 0.16-0.319 0.183-0.547 0.012-0.114-0.031-0.154-0.078-0.149s-0.054 0.036-0.080 0.058c-0.181 0.197-0.322 0.433-0.409 0.694l-0.004 0.014c-0.034 0.082-0.068 0.17-0.104 0.236zM11.729 3.644c0.004-0.022 0.007-0.048 0.007-0.075s-0.002-0.052-0.007-0.077l0 0.003c-0.006-0.016-0.022-0.027-0.039-0.027-0.009 0-0.018 0.003-0.025 0.008l0-0c-0.131 0.152-0.235 0.332-0.299 0.529l-0.003 0.011c-0.007 0.033-0.013 0.073-0.015 0.113l-0 0.002c0.020 0.022 0.046 0.080 0.068 0.068 0.144-0.073 0.256-0.243 0.314-0.555zM12.189 5.235c0.020 0 0.041-0.031 0.058-0.056 0.246-0.382 0.487-0.764 0.72-1.151 0.049-0.087 0.090-0.189 0.117-0.295l0.002-0.009c-0.001-0.061-0.011-0.119-0.028-0.174l0.001 0.004c-0.034 0.022-0.059 0.025-0.075 0.051l-0.739 1.149c-0.049 0.086-0.093 0.186-0.126 0.291l-0.003 0.011c-0.001 0.012-0.002 0.025-0.002 0.039 0 0.040 0.006 0.079 0.018 0.115l-0.001-0.003c0.006 0.018 0.023 0.030 0.042 0.030 0.006 0 0.011-0.001 0.016-0.003l-0 0zM14.317 7.063c0.056 0.012 0.114 0.020 0.17 0.031 0.138-0.349 0.302-0.65 0.497-0.928l-0.009 0.014c0.046-0.061 0.082-0.133 0.104-0.211l0.001-0.005c0.094-0.302 0.227-0.566 0.396-0.801l-0.006 0.008c0.206-0.341 0.398-0.737 0.554-1.15l0.017-0.050c0.024-0.076 0.043-0.167 0.054-0.26l0.001-0.007c-0.008-0.069-0.026-0.132-0.053-0.191l0.002 0.004c-0.025-0.019-0.071 0.014-0.092 0.054-0.112 0.234-0.234 0.462-0.34 0.722-0.199 0.528-0.409 1.029-0.718 1.326-0.043 0.048-0.077 0.104-0.099 0.166l-0.001 0.003c-0.117 0.332-0.257 0.619-0.426 0.885l0.010-0.018c-0.071 0.103-0.144 0.225-0.212 0.35l-0.011 0.022zM14.364 4.114c-0.003-0.062-0.018-0.12-0.042-0.173l0.001 0.003c0-0.010-0.046 0.025-0.063 0.059-0.070 0.141-0.141 0.284-0.205 0.438-0.034 0.082-0.056 0.187-0.092 0.309 0.037 0.042 0.061 0.093 0.078 0.087 0.048-0.021 0.089-0.054 0.118-0.094l0.001-0.001c0.127-0.174 0.203-0.392 0.204-0.628v-0zM15.947 7.27c0.15-0.247 0.296-0.536 0.418-0.836l0.015-0.042c0.075-0.19 0.17-0.358 0.243-0.542l0.205-0.489c0.097-0.226 0.188-0.457 0.289-0.671s0.229-0.441 0.34-0.679c0.037-0.098 0.067-0.212 0.084-0.331l0.001-0.009c0.020-0.117-0.032-0.224-0.132-0.211-0.024 0.039-0.075 0.107-0.121 0.188-0.282 0.509-0.479 1.189-0.795 1.644-0.047 0.092-0.092 0.201-0.129 0.314l-0.005 0.017c-0.090 0.204-0.17 0.409-0.273 0.603-0.128 0.205-0.243 0.442-0.332 0.691l-0.008 0.026c-0.040 0.119-0.082 0.219-0.131 0.314l0.006-0.012zM13.753 5.479c0.017-0.042 0.027-0.095 0.049-0.17-0.031-0.036-0.054-0.088-0.080-0.088s-0.049 0.049-0.068 0.090c-0.025 0.042-0.040 0.093-0.040 0.148 0 0.041 0.008 0.080 0.023 0.115l-0.001-0.002c0.054 0.097 0.085-0.017 0.115-0.093zM23.567 15.79c-0.029 0.055-0.069 0.101-0.118 0.135l-0.001 0.001c-0.063 0.024-0.137 0.041-0.214 0.049l-0.004 0c-0.014 0-0.025-0.014-0.037-0.020 0-0.063 0.17-0.17 0.299-0.183 0.031 0 0.080 0.019 0.075 0.019zM22.035 15.729c0.053-0.019 0.099-0.040 0.143-0.066l-0.003 0.002c0.128-0.087 0.238-0.174 0.343-0.266l-0.004 0.003c0.227-0.208 0.434-0.426 0.626-0.658l0.009-0.011c0.092-0.13 0.198-0.242 0.318-0.337l0.003-0.003c-0.030-0.064-0.061-0.144-0.088-0.226l-0.004-0.015c-0.107 0.109-0.202 0.231-0.282 0.363l-0.005 0.009c-0.025 0.044-0.136 0.095-0.183 0.143-0.17 0.17-0.324 0.329-0.489 0.489s-0.34 0.319-0.509 0.474c-0.019 0.018-0.035 0.039-0.049 0.062l-0.001 0.001c-0.036 0.059 0.058 0.082 0.175 0.037zM23.152 16.23c-0.146 0.068-0.195 0.126-0.217 0.205s-0.144 0.16-0.292 0.224c-0.119 0.051-0.268 0.048-0.273-0.010 0.004-0.019 0.013-0.035 0.025-0.048v0l0.526-0.452c0.049-0.037 0.111-0.060 0.178-0.060 0.023 0 0.045 0.003 0.067 0.008l-0.002-0c0.080 0.020 0.097 0.085-0.012 0.132zM24.154 18.366c0.119-0.054 0.253-0.11 0.363-0.17 0-0.095-0.009-0.188-0.015-0.282l-0.509 0.357c-0.015 0.010-0.025 0.027-0.025 0.046 0 0.015 0.006 0.029 0.017 0.039h0c0.038 0.007 0.081 0.012 0.125 0.012 0.016 0 0.031-0.001 0.047-0.002l-0.002 0zM23.842 28.227l0.078-0.032c0-0.102 0.015-0.205 0.024-0.309-0.033 0.017-0.072 0.034-0.113 0.048l-0.006 0.002c-0.436 0.139-0.766 0.331-1.143 0.486-0.020 0.009-0.036 0.019-0.053 0.027-0.059 0.032-0.109 0.081-0.022 0.105 0.052 0.014 0.112 0.022 0.173 0.022 0.017 0 0.033-0.001 0.050-0.002l-0.002 0c0.004 0 0.008 0 0.013 0 0.095 0 0.185-0.019 0.267-0.054l-0.004 0.002c0.212-0.117 0.457-0.217 0.714-0.288l0.024-0.006zM22.699 13.335c-0.041 0.050-0.092 0.091-0.15 0.118l-0.003 0.001c-0.044 0.020-0.149 0.029-0.148 0.015 0.009-0.051 0.037-0.095 0.076-0.124l0.001-0c0.057-0.039 0.121-0.076 0.189-0.107l0.008-0.003c0.015 0.031 0.046 0.061 0.027 0.1zM22.672 13.233l-0.002-0.003 0.007-0.003 0.003 0.003-0.009 0.003zM23.044 17.692c0.057-0.036 0.106-0.071 0.152-0.109l-0.003 0.002c0.041-0.031 0.065-0.075 0.115-0.090 0.29-0.093 0.411-0.251 0.657-0.37 0.159-0.074 0.294-0.176 0.403-0.301l0.001-0.001c0.007-0.010 0.015-0.019 0.024-0.027l0-0c-0.010-0.070-0.017-0.138-0.027-0.205 0-0.015 0-0.053-0.017-0.095-0.209 0.187-0.458 0.357-0.679 0.531-0.19 0.148-0.497 0.272-0.562 0.441-0.020 0.053-0.185 0.112-0.27 0.17s-0.153 0.095-0.098 0.139 0.17-0.009 0.304-0.085zM24.11 25.22l0.131-0.063c0.031 0.019 0.080 0.036 0.088 0.058s-0.048 0.034-0.088 0.061zM23.040 27.282c0.065-0.013 0.122-0.030 0.177-0.052l-0.007 0.002c0.244-0.147 0.525-0.274 0.821-0.366l0.028-0.007c0.017-0.112 0.034-0.222 0.053-0.34l-0.97 0.462c-0.114 0.054-0.222 0.112-0.329 0.17-0.063 0.034-0.051 0.073 0.012 0.107 0.038 0.023 0.084 0.037 0.134 0.037 0.029 0 0.058-0.005 0.084-0.014l-0.002 0.001zM24.023 25.468c-0.233 0.105-0.469 0.209-0.679 0.321-0.073 0.032-0.158 0.051-0.247 0.051-0.046 0-0.091-0.005-0.134-0.014l0.004 0.001c-0.030-0.009-0.056-0.020-0.080-0.035l0.002 0.001c0-0.019 0-0.036 0.022-0.044 0.301-0.139 0.603-0.282 0.912-0.421 0.014-0.002 0.030-0.003 0.046-0.003 0.045 0 0.087 0.009 0.126 0.024l-0.002-0.001c0.051 0.024 0.131 0.070 0.031 0.121zM21.224 13.138c0.024-0.031 0.044-0.063 0.070-0.093 0.16-0.195 0.316-0.396 0.47-0.598 0.168-0.026 0.316-0.062 0.46-0.109l-0.020 0.006c-0.212 0.256-0.428 0.509-0.606 0.75-0.094 0.097-0.212 0.171-0.344 0.212l-0.006 0.002c-0.1 0.012-0.107-0.042-0.024-0.17zM20.504 12.734c-0.065 0.038-0.121 0.083-0.169 0.134l-0 0 0.244-0.17zM23.857 18.485c0.015 0.048-0.1 0.107-0.231 0.119-0.027-0.001-0.053-0.007-0.076-0.017l0.001 0c0.010-0.063 0.122-0.124 0.236-0.129 0.027-0.002 0.066 0.014 0.070 0.027zM22.792 19.149c-0.021 0.004-0.045 0.007-0.070 0.007s-0.049-0.002-0.072-0.007l0.002 0c-0.016-0.005-0.027-0.020-0.027-0.037 0-0.008 0.003-0.016 0.007-0.022l-0 0c0.137-0.13 0.301-0.234 0.483-0.301l0.010-0.003c0.031-0.008 0.068-0.014 0.105-0.017l0.002-0c0.022 0.017 0.076 0.039 0.066 0.059-0.063 0.143-0.217 0.253-0.506 0.321zM24.295 19.515c-0.010 0.024-0.027 0.043-0.049 0.056l-0.001 0c-0.348 0.244-0.691 0.484-1.048 0.716-0.080 0.050-0.172 0.092-0.27 0.122l-0.008 0.002c-0.005 0-0.011 0-0.017 0-0.054 0-0.107-0.007-0.157-0.020l0.004 0.001c0.020-0.034 0.022-0.056 0.044-0.071l1.051-0.735c0.079-0.050 0.171-0.095 0.267-0.129l0.010-0.003c0.021-0.006 0.046-0.009 0.071-0.009s0.050 0.003 0.073 0.009l-0.002-0c0.020 0.002 0.036 0.020 0.036 0.041 0 0.008-0.002 0.015-0.006 0.021l0-0zM24.264 22.448v-0.037c-0.193 0.109-0.428 0.223-0.671 0.323l-0.046 0.017c-0.239 0.102-0.447 0.224-0.66 0.34-0.039 0.020-0.066 0.065-0.048 0.085s0.104 0.027 0.17 0.042c0.096-0.016 0.18-0.037 0.261-0.064l-0.011 0.003c0.381-0.165 0.7-0.332 1.005-0.52l-0.034 0.019c0.015-0.065 0.022-0.134 0.034-0.207zM23.334 21.59c-0.002 0-0.005 0-0.008 0-0.058 0-0.114-0.011-0.165-0.032l0.003 0.001c-0.009 0 0.024-0.046 0.053-0.061 0.131-0.071 0.26-0.144 0.401-0.211 0.076-0.036 0.17-0.059 0.285-0.097 0.042 0.032 0.090 0.053 0.085 0.070-0.018 0.046-0.047 0.084-0.083 0.113l-0 0c-0.156 0.124-0.353 0.203-0.568 0.215l-0.003 0zM24.402 23.601c-0.409 0.27-0.968 0.469-1.385 0.725-0.075 0.046-0.136 0.097-0.17 0.121-0.010 0.093 0.093 0.139 0.202 0.115 0.119-0.022 0.225-0.054 0.325-0.096l-0.011 0.004c0.217-0.109 0.407-0.228 0.621-0.34 0.18-0.093 0.372-0.182 0.56-0.272-0.050-0.074-0.098-0.159-0.138-0.247l-0.004-0.011z"></path>
<path fill="none" stroke="#000" stroke-linejoin="round" stroke-linecap="round" stroke-miterlimit="4" stroke-width="1.0187" d="M13.454 11.226s-0.059-2.615-3.056-3.285-4.075 2.97-3.105 3.844 6.162-0.559 6.162-0.559zM13.739 11.807s0.34-2.593 3.396-2.931 3.715 3.396 2.664 4.163-6.060-1.233-6.060-1.233zM14.738 20.679c0.265-3.112 0.492-5.988-0.998-8.871-0.139-0.263-1.282 1.048-1.377 1.158-1.713 1.976-0.937 4.87-2.207 7.131"></path>
<path fill="none" stroke="#000" stroke-linejoin="round" stroke-linecap="round" stroke-miterlimit="4" stroke-width="1.0187" d="M0.509 5.79s0.114 1.358 2.263 2.605 2.605 1.698 2.605 1.698-2.377 4.64-2.435 11.092l-0.056 6.452s-2.603 2.151-1.812 2.547 3.51-0.735 3.51-0.735 3.961 1.924 11.771 2.037 9.282-1.302 9.282-1.302 1.472 0.735 2.83 0.849-1.472-2.151-1.472-2.151 0.34-8.601-0.905-13.356-1.472-5.773-1.472-5.773c0.757-1.139 1.376-2.456 1.786-3.861l0.026-0.102 0.565-2.15s-2.83 1.81-8.15 3.168-4.415-0.452-8.376-1.358-5.094-1.131-6.566-0.112-3.396 0.452-3.396 0.452z"></path>
<path fill="none" stroke="#000" stroke-linejoin="round" stroke-linecap="round" stroke-miterlimit="4" stroke-width="1.0187" d="M4.613 9.525s0.537 1.472 8.235 1.698 11.715-0.925 12.495-2.703M0.509 5.79c0.832-1.394 1.941-2.539 3.259-3.389l0.040-0.024c6.114-3.759 15.979-0.679 15.979-0.679"></path>
<path fill="none" stroke="#000" stroke-linejoin="round" stroke-linecap="round" stroke-miterlimit="4" stroke-width="0.9916" d="M19.787 1.698c0.144 0.17 6.089-1.019 7.055 0.355s-0.328 1.876-0.328 1.876"></path>
</svg>
