<!-- Generated by IcoMoon.io -->
<svg version="1.1" xmlns="http://www.w3.org/2000/svg" width="17" height="32" viewBox="0 0 17 32">
<title>grass</title>
<path d="M8.382 22.793c-0.012-0.028-0.020-0.061-0.021-0.096l-0-0.001c0.001-0.014 0.012-0.024 0.026-0.024 0.005 0 0.009 0.001 0.012 0.003l-0-0c0.11 0.082 0.201 0.184 0.27 0.301l0.003 0.005c0.009 0.020 0.018 0.044 0.025 0.070l0.001 0.004c-0.011 0.017-0.018 0.058-0.035 0.053-0.102-0.027-0.197-0.119-0.28-0.315zM8.101 23.668l0.109-0.073-0.64-0.651c-0.014-0.015-0.031-0.012-0.057-0.023-0.002 0.017-0.004 0.038-0.004 0.058s0.001 0.041 0.004 0.060l-0-0.002c0.035 0.069 0.075 0.129 0.122 0.183l-0.001-0.001c0.153 0.153 0.297 0.313 0.448 0.466zM6.725 23.465c-0.003-0.018-0.005-0.039-0.005-0.060s0.002-0.042 0.005-0.062l-0 0.002s0.034 0.011 0.049 0.031c0.066 0.083 0.131 0.165 0.196 0.257 0.034 0.049 0.063 0.115 0.102 0.188-0.018 0.034-0.026 0.070-0.040 0.067-0.034-0.007-0.064-0.023-0.089-0.044l0 0c-0.107-0.099-0.184-0.228-0.218-0.374l-0.001-0.005zM8.712 21.13c0.183-0.113 0.365-0.228 0.547-0.342l-0.066-0.024-0.199 0.11c-0.112 0.058-0.226 0.11-0.342 0.153l-0.047 0.029c-0.238 0.139-0.474 0.281-0.705 0.436-0.142 0.096-0.293 0.185-0.44 0.277-0.209 0.13-0.42 0.258-0.628 0.39-0.082 0.050-0.152 0.1-0.219 0.155l0.003-0.003c-0.027 0.024-0.049 0.073-0.038 0.087s0.066 0 0.102 0c0.016-0.006 0.031-0.014 0.043-0.023l-0 0c0.133-0.084 0.269-0.164 0.399-0.251 0.266-0.179 0.55-0.33 0.812-0.518 0.193-0.138 0.403-0.258 0.566-0.361 0.101-0.049 0.157-0.079 0.212-0.115zM6.52 22.441c-0.010-0.003-0.022-0.005-0.034-0.005-0.045 0-0.085 0.026-0.104 0.064l-0 0.001c-0 0.001-0 0.003-0 0.005 0 0.019 0.012 0.034 0.029 0.039l0 0c0.061-0.002 0.092-0.040 0.109-0.104zM6.080 22.684c-0.032 0.050-0.064 0.099-0.095 0.153l0.232-0.153c0.026-0.015 0.048-0.031 0.067-0.049l-0 0c0.018-0.025 0.035-0.053 0.049-0.083l0.001-0.003c-0.053 0.022-0.096 0.042-0.137 0.065l0.007-0.004zM5.533 23.757c-0.038 0.077-0.076 0.142-0.117 0.204l0.004-0.006 0.087-0.050c0.153-0.093 0.292-0.19 0.436-0.287 0.050-0.034 0.112-0.061 0.115-0.153-0.075 0.025-0.139 0.052-0.2 0.084l0.007-0.003zM6.467 23.297c0.038-0.033 0.081-0.063 0.126-0.088l0.004-0.002c0.113-0.048 0.211-0.106 0.299-0.175l-0.003 0.002c0.069-0.062 0.144-0.12 0.224-0.172l0.007-0.004c0.211-0.111 0.386-0.217 0.554-0.332l-0.019 0.012c0.059-0.037 0.13-0.075 0.203-0.11l0.014-0.006c0.153-0.086 0.284-0.196 0.431-0.284s0.315-0.191 0.472-0.29c0.034-0.021 0.081-0.043 0.061-0.099-0.017-0.009-0.037-0.015-0.058-0.015-0.028 0-0.054 0.009-0.075 0.025l0-0c-0.134 0.083-0.271 0.165-0.407 0.243-0.228 0.13-0.446 0.28-0.673 0.408-0.089 0.050-0.177 0.101-0.26 0.153-0.128 0.1-0.272 0.194-0.424 0.275l-0.016 0.008c-0.069 0.022-0.128 0.051-0.183 0.087l0.003-0.002c-0.143 0.125-0.3 0.242-0.466 0.347l-0.015 0.009c-0.044 0.022-0.073 0.067-0.073 0.119 0 0 0 0 0 0v-0c0.105-0.008 0.199-0.048 0.274-0.111l-0.001 0.001zM9.304 21.429c-0.080 0.021-0.149 0.057-0.209 0.105l0.001-0.001c-0.061 0.044-0.153 0.073-0.174 0.153 0.154-0.050 0.283-0.139 0.381-0.256l0.001-0.001zM9.457 21.273c-0.040 0.018-0.068 0.055-0.073 0.099l-0 0.001c0.112 0.018 0.142 0 0.379-0.153h0.011c0.009-0.060 0.020-0.112 0.034-0.163l-0.002 0.010c-0.137 0.071-0.251 0.139-0.36 0.214l0.012-0.008z"></path>
<path d="M9.642 20.909c-0.063-0.015-0.125-0.034-0.188-0.053-0.048 0.141-0.088 0.308-0.111 0.479l-0.002 0.014c-0.009 0.044 0.029 0.070 0.076 0.061 0.036-0.005 0.066-0.031 0.075-0.065l0-0.001c0.024-0.094 0.052-0.174 0.085-0.251l-0.004 0.011c0.029-0.056 0.053-0.122 0.068-0.19l0.001-0.006zM8.844 20.94c-0.070 0.034-0.142 0.066-0.214 0.095q-0.055 0.257-0.105 0.514c-0.014 0.072-0.024 0.153-0.032 0.219-0.001 0.009-0.002 0.018-0.002 0.028s0.001 0.020 0.002 0.029l-0-0.001c0.014 0.028 0.043 0.047 0.075 0.047 0.024 0 0.045-0.010 0.060-0.026l0-0c0.016-0.018 0.030-0.039 0.042-0.061l0.001-0.002c0.047-0.085 0.075-0.186 0.075-0.294 0-0.008-0-0.016-0-0.024l0 0.001c0.014-0.182 0.044-0.351 0.089-0.513l-0.004 0.019c0.009-0.006 0.011-0.017 0.014-0.032zM8.041 21.269c0-0.012 0-0.024 0.011-0.035l-0.096 0.026-0.064 0.017c-0.015 0.084-0.036 0.159-0.064 0.23l0.003-0.008c-0.039 0.084-0.073 0.183-0.096 0.286l-0.002 0.010c-0.016 0.121-0.055 0.23-0.112 0.327l0.002-0.004c-0.021 0.032-0.038 0.068-0.050 0.107l-0.001 0.003c-0.014 0.081-0.018 0.164-0.027 0.249 0.037 0.014 0.066 0.035 0.089 0.031 0.035-0.007 0.064-0.027 0.082-0.055l0-0c0.052-0.116 0.107-0.262 0.154-0.412l0.008-0.029c0.050-0.17 0.084-0.342 0.122-0.515 0.017-0.072 0.021-0.151 0.041-0.226zM7.168 21.538c-0.068 0.037-0.125 0.073-0.179 0.112l0.005-0.004c-0.043 0.165-0.086 0.33-0.133 0.494-0.037 0.18-0.087 0.338-0.15 0.488l0.006-0.017c-0.025 0.056-0.040 0.122-0.040 0.192s0.015 0.135 0.041 0.195l-0.001-0.003c0.008 0.021 0.027 0.035 0.050 0.035 0.014 0 0.026-0.005 0.035-0.014l-0 0c0.081-0.079 0.137-0.185 0.153-0.303l0-0.003c0.004-0.085 0.013-0.165 0.028-0.243l-0.002 0.010c0.010-0.113 0.033-0.216 0.068-0.314l-0.003 0.009c0.054-0.148 0.090-0.32 0.102-0.499l0-0.006c0.008-0.034 0.014-0.083 0.018-0.13zM5.961 22.874c-0.014 0.047-0.027 0.095-0.037 0.144-0.029 0.153 0 0.318-0.047 0.475-0.002 0.004-0.003 0.009-0.003 0.015s0.001 0.010 0.004 0.015l-0-0c0.015 0.017 0.034 0.041 0.052 0.041s0.043-0.029 0.046-0.047c0.001-0.067 0.016-0.131 0.042-0.188l-0.001 0.003c0.038-0.069 0.065-0.15 0.075-0.236l0-0.003c0.023-0.121 0.053-0.227 0.092-0.328l-0.004 0.013c0.008-0.024 0.015-0.054 0.019-0.084l0-0.003c0.005-0.067 0.013-0.126 0.025-0.185l-0.002 0.011c0-0.024 0.011-0.050 0.017-0.076-0.093 0.141-0.186 0.286-0.277 0.434zM12.851 21.551l0.055-0.012h0.058c0.001-0.006 0.001-0.013 0.001-0.021s-0-0.014-0.001-0.021l0 0.001c-0.026-0.145-0.080-0.274-0.155-0.387l0.002 0.004c-0.005-0.007-0.013-0.011-0.021-0.011s-0.017 0.004-0.021 0.011l-0 0c-0.008 0.025-0.013 0.053-0.013 0.082 0 0.006 0 0.012 0.001 0.018l-0-0.001c-0 0.003-0 0.007-0 0.011 0 0.121 0.035 0.234 0.096 0.33l-0.001-0.002zM12.254 21.77q-0.153-0.352-0.319-0.698c-0.009-0.017-0.024-0.021-0.046-0.040-0.015 0.032-0.027 0.070-0.033 0.109l-0 0.002c0.010 0.079 0.028 0.151 0.054 0.219l-0.002-0.006c0.069 0.165 0.142 0.327 0.216 0.489zM10.976 21.285c0.008-0.042 0.023-0.080 0.044-0.113l-0.001 0.001s0.027 0.021 0.037 0.046c0.032 0.099 0.066 0.2 0.095 0.306 0.015 0.058 0.020 0.128 0.032 0.212-0.027 0.026-0.047 0.057-0.060 0.050-0.029-0.018-0.052-0.043-0.068-0.072l-0.001-0.001c-0.053-0.098-0.084-0.214-0.084-0.337 0-0.033 0.002-0.065 0.006-0.096l-0 0.004zM13.198 19.814c-0.084-0.010-0.156-0.023-0.228-0.039l0.014 0.003-0.237 0.055c-0.168 0.041-0.338 0.073-0.507 0.109-0.242 0.052-0.483 0.101-0.725 0.153-0.1 0.021-0.186 0.047-0.269 0.079l0.012-0.004c-0.034 0.012-0.070 0.052-0.064 0.069s0.060 0.024 0.096 0.032c0.007 0.001 0.015 0.002 0.024 0.002s0.017-0.001 0.025-0.002l-0.001 0c0.153-0.034 0.306-0.063 0.459-0.101 0.306-0.078 0.63-0.122 0.942-0.211 0.194-0.055 0.396-0.093 0.569-0.128zM11.126 20.251c-0.019-0.015-0.044-0.024-0.070-0.024-0.032 0-0.062 0.013-0.082 0.035l-0 0c-0.011 0.009 0 0.046 0.012 0.050 0.011 0.004 0.024 0.006 0.037 0.006 0.046 0 0.085-0.027 0.103-0.067l0-0.001zM10.629 20.329c-0.047 0.035-0.093 0.072-0.139 0.11l0.267-0.061c0.030-0.005 0.056-0.013 0.082-0.024l-0.002 0.001c0.029-0.019 0.054-0.040 0.076-0.064l0-0c-0.066 0-0.104 0.008-0.142 0.014zM9.75 21.152c-0.053 0.053-0.11 0.103-0.169 0.15l-0.004 0.003 0.098-0.020c0.17-0.037 0.339-0.078 0.507-0.121 0.058-0.014 0.127-0.020 0.153-0.102-0.012-0-0.025-0.001-0.039-0.001-0.060 0-0.119 0.004-0.177 0.012l0.007-0.001zM10.783 21.038c0.044-0.018 0.096-0.032 0.149-0.039l0.004-0c0.123-0.006 0.238-0.029 0.347-0.065l-0.009 0.003c0.078-0.033 0.17-0.062 0.266-0.084l0.011-0.002c0.205-0.035 0.411-0.064 0.611-0.119 0.079-0.021 0.164-0.023 0.243-0.037 0.168-0.029 0.335-0.087 0.501-0.121s0.364-0.073 0.544-0.112c0.040-0.009 0.090-0.012 0.092-0.073-0.023-0.025-0.056-0.040-0.093-0.040-0.013 0-0.025 0.002-0.037 0.005l0.001-0c-0.153 0.032-0.306 0.064-0.459 0.090-0.257 0.044-0.514 0.112-0.764 0.153-0.117 0.018-0.218 0.039-0.316 0.066l0.019-0.004c-0.145 0.048-0.317 0.089-0.494 0.114l-0.016 0.002c-0.007-0-0.015-0-0.023-0-0.062 0-0.123 0.007-0.181 0.021l0.005-0.001c-0.159 0.062-0.35 0.118-0.547 0.159l-0.024 0.004c-0.051 0.007-0.092 0.042-0.108 0.088l-0 0.001c0.038 0.011 0.082 0.017 0.127 0.017 0.054 0 0.106-0.009 0.155-0.026l-0.003 0.001zM14.088 20.245c-0.014-0.001-0.031-0.002-0.047-0.002-0.066 0-0.129 0.011-0.188 0.031l0.004-0.001c-0.072 0.021-0.165 0.018-0.219 0.089 0.008 0 0.018 0 0.028 0 0.156 0 0.301-0.043 0.425-0.119l-0.004 0.002zM14.284 20.15c-0.044 0.004-0.081 0.031-0.101 0.068l-0 0.001c0.098 0.055 0.13 0.055 0.41-0.017h0.011c0.028-0.054 0.056-0.099 0.087-0.142l-0.003 0.004c-0.162 0.026-0.299 0.056-0.432 0.092l0.029-0.007z"></path>
<path d="M14.34 19.87c-0.070 0.102-0.124 0.215-0.191 0.321-0.024 0.038 0 0.075 0.050 0.084 0.006 0.001 0.012 0.002 0.018 0.002 0.031 0 0.058-0.015 0.075-0.038l0-0c0.049-0.075 0.1-0.139 0.154-0.2l-0.001 0.002c0.050-0.047 0.094-0.1 0.131-0.157l0.002-0.003-0.020-0.014c-0.070-0.006-0.144 0.005-0.219 0.005zM13.681 19.852l-0.211-0.012-0.153 0.257c-0.038 0.064-0.072 0.128-0.105 0.194-0.007 0.016-0.011 0.036-0.014 0.056l-0 0.001c0.006 0.042 0.042 0.074 0.085 0.074 0.014 0 0.027-0.003 0.038-0.009l-0.001 0c0.023-0.013 0.043-0.028 0.061-0.045l-0 0c0.081-0.072 0.142-0.164 0.176-0.268l0.001-0.004c0.037-0.094 0.078-0.175 0.126-0.25l-0.003 0.006zM12.743 19.726c-0.020 0.027-0.041 0.057-0.064 0.083-0.070 0.073-0.134 0.154-0.189 0.24l-0.004 0.006c-0.056 0.104-0.127 0.192-0.213 0.265l-0.001 0.001c-0.032 0.024-0.060 0.053-0.083 0.084l-0.001 0.001c-0.041 0.072-0.073 0.153-0.112 0.225 0.031 0.026 0.050 0.057 0.075 0.060 0.006 0.001 0.013 0.002 0.021 0.002 0.029 0 0.055-0.010 0.076-0.026l-0 0c0.104-0.115 0.208-0.229 0.306-0.353s0.19-0.29 0.286-0.443c0.021-0.037 0.041-0.073 0.061-0.11zM11.676 19.904l-0.127 0.18c-0.091 0.15-0.189 0.28-0.297 0.4l0.002-0.002c-0.080 0.086-0.13 0.202-0.13 0.329 0 0.012 0 0.023 0.001 0.035l-0-0.002c0 0.037 0.044 0.067 0.073 0.049 0.106-0.048 0.191-0.127 0.245-0.225l0.001-0.003c0.034-0.082 0.068-0.151 0.107-0.217l-0.004 0.008c0.048-0.098 0.102-0.183 0.165-0.261l-0.002 0.002c0.065-0.075 0.123-0.16 0.171-0.251l0.004-0.007c-0.077-0.005-0.148-0.018-0.217-0.037l0.007 0.002zM10.456 20.468c-0.028 0.035-0.056 0.075-0.081 0.117l-0.003 0.005c-0.073 0.177-0.143 0.319-0.219 0.457l0.012-0.024c-0.002 0.004-0.004 0.009-0.004 0.014s0.001 0.010 0.004 0.014l-0-0c0 0.021 0.017 0.050 0.034 0.057 0.001 0 0.003 0 0.004 0 0.023 0 0.042-0.011 0.055-0.027l0-0c0.025-0.059 0.060-0.11 0.102-0.153l-0 0c0.062-0.056 0.114-0.122 0.151-0.196l0.002-0.004c0.059-0.103 0.12-0.192 0.188-0.276l-0.003 0.004c0.015-0.021 0.031-0.046 0.045-0.071l0.002-0.004c0.027-0.052 0.049-0.107 0.081-0.153l0.041-0.066c-0.144 0.093-0.281 0.197-0.413 0.307z"></path>
<path fill="none" stroke="#000" stroke-linejoin="round" stroke-linecap="round" stroke-miterlimit="4" stroke-width="0.9171" d="M16.992 20.112s-6.384 1.665-8.88 3.407c-0.891 0.622-2.904 0.839-2.904 0.839s0.588-1.996 1.637-2.785c3.259-2.455 10.148-1.461 10.148-1.461z"></path>
<path d="M6.010 28.238c0.010 0.034 0.026 0.064 0.046 0.089l-0-0.001c0.005 0.005 0.011 0.008 0.018 0.008 0.011 0 0.021-0.007 0.024-0.017l0-0c0.014-0.062 0.022-0.133 0.022-0.206s-0.008-0.144-0.023-0.213l0.001 0.007c-0.008-0.028-0.017-0.052-0.029-0.074l0.001 0.002c-0.020 0-0.052-0.034-0.061-0.018-0.031 0.062-0.049 0.135-0.049 0.212s0.018 0.15 0.050 0.215l-0.001-0.003zM5.223 27.76l0.131-0.015c-0.023 0.306-0.044 0.611-0.066 0.917 0 0.020-0.014 0.029-0.027 0.053-0.024-0.032-0.066-0.069-0.072-0.093-0.016-0.065-0.026-0.139-0.026-0.215v-0c0.009-0.217 0.023-0.431 0.038-0.647zM4.316 28.799c0.021 0.035 0.048 0.064 0.079 0.088l0.001 0.001s0.018-0.031 0.018-0.055c0-0.105-0.008-0.211-0.018-0.321 0-0.060-0.027-0.128-0.044-0.211-0.037-0.014-0.066-0.035-0.073-0.026-0.021 0.026-0.035 0.057-0.040 0.092l-0 0.001c-0.004 0.028-0.006 0.060-0.006 0.093 0 0.124 0.031 0.24 0.086 0.342l-0.002-0.004zM7.337 29.29l0.639-0.095-0.034 0.063-0.223 0.046c-0.122 0.027-0.243 0.063-0.362 0.101l-0.057 0.009c-0.272 0.047-0.543 0.092-0.818 0.124-0.171 0.020-0.344 0.050-0.515 0.076-0.243 0.037-0.486 0.075-0.731 0.11-0.080 0.012-0.173 0.019-0.267 0.020h-0.001c-0.035 0-0.084-0.024-0.084-0.041s0.047-0.044 0.079-0.064c0.014-0.006 0.030-0.010 0.047-0.011h0c0.153-0.023 0.306-0.050 0.459-0.069 0.319-0.035 0.633-0.105 0.955-0.133 0.235-0.018 0.474-0.064 0.663-0.092 0.122-0.021 0.186-0.035 0.248-0.044zM4.821 29.715c-0.021 0.032-0.056 0.053-0.097 0.053-0.017 0-0.033-0.004-0.048-0.010l0.001 0c-0.012 0-0.017-0.043 0-0.050 0.018-0.014 0.042-0.023 0.067-0.023 0.030 0 0.056 0.012 0.076 0.031l-0-0zM4.329 29.816l-0.17-0.053 0.272-0.038c0.023-0.005 0.050-0.008 0.077-0.008 0.002 0 0.004 0 0.006 0h-0c0.036 0.009 0.068 0.021 0.098 0.035l-0.003-0.001c-0.066 0.018-0.101 0.031-0.139 0.038zM3.21 29.354c-0.057-0.026-0.128-0.052-0.201-0.074l-0.013-0.004 0.099-0.017c0.171-0.024 0.344-0.046 0.518-0.066 0.060 0 0.125-0.024 0.185 0.041-0.055 0.023-0.122 0.045-0.191 0.061l-0.009 0.002zM4.225 29.097c0.003 0 0.006 0 0.009 0 0.051 0 0.1-0.006 0.148-0.016l-0.005 0.001c0.1-0.033 0.215-0.055 0.335-0.061l0.003-0c0.015 0 0.032 0.001 0.049 0.001 0.085 0 0.169-0.006 0.25-0.019l-0.009 0.001c0.203-0.040 0.407-0.084 0.611-0.104 0.095-0.015 0.176-0.032 0.256-0.054l-0.016 0.004c0.167-0.032 0.344-0.037 0.512-0.064s0.365-0.058 0.547-0.086c0.041 0 0.090-0.020 0.112 0.035-0.017 0.045-0.059 0.077-0.108 0.079h-0c-0.153 0.024-0.306 0.049-0.468 0.078-0.255 0.049-0.52 0.078-0.776 0.127-0.084 0.018-0.188 0.035-0.294 0.045l-0.012 0.001c-0.19 0.011-0.367 0.036-0.539 0.076l0.021-0.004c-0.056 0.024-0.121 0.042-0.188 0.051l-0.004 0c-0.005-0-0.010-0-0.016-0-0.204 0-0.404 0.017-0.598 0.049l0.021-0.003c-0.010 0.003-0.021 0.004-0.032 0.004-0.041 0-0.077-0.019-0.101-0.048l-0-0c0.081-0.058 0.181-0.093 0.29-0.093 0.001 0 0.001 0 0.002 0h-0zM7.596 28.68c-0.066 0.032-0.143 0.052-0.225 0.055l-0.001 0c-0.075 0-0.153 0.041-0.235-0.008 0.093-0.038 0.2-0.061 0.313-0.061 0.052 0 0.104 0.005 0.154 0.014l-0.005-0.001zM7.812 28.698c-0.010 0.003-0.022 0.005-0.034 0.005-0.033 0-0.063-0.013-0.085-0.034l0 0c0.073-0.086 0.104-0.096 0.39-0.127h0.018c0.038 0.034 0.079 0.066 0.123 0.096l0.004 0.003c-0.118 0.025-0.26 0.045-0.405 0.056l-0.010 0.001z"></path>
<path d="M8.19 28.854c-0.037 0.053-0.073 0.107-0.109 0.164-0.153-0.095-0.285-0.196-0.407-0.308l0.002 0.002c-0.037-0.027-0.024-0.072 0.017-0.096 0.014-0.010 0.031-0.016 0.050-0.016s0.036 0.006 0.050 0.016l-0-0c0.063 0.045 0.134 0.088 0.209 0.126l0.009 0.004c0.068 0.032 0.127 0.068 0.181 0.11l-0.002-0.001zM7.56 29.347c-0.076 0.020-0.153 0.041-0.225 0.066l-0.413-0.323c-0.058-0.044-0.113-0.095-0.167-0.144-0.013-0.014-0.023-0.029-0.032-0.046l-0-0.001c-0.002-0.006-0.002-0.013-0.002-0.020 0-0.047 0.038-0.086 0.086-0.086 0.002 0 0.005 0 0.007 0l-0-0c0.028 0.005 0.053 0.013 0.076 0.022l-0.003-0.001c0.106 0.040 0.194 0.105 0.26 0.19l0.001 0.001c0.115 0.116 0.241 0.222 0.376 0.315l0.009 0.006zM6.739 29.62l0.032 0.020-0.092 0.043-0.058 0.029c-0.056-0.046-0.119-0.089-0.186-0.125l-0.006-0.003c-0.102-0.050-0.189-0.104-0.27-0.166l0.004 0.003c-0.083-0.074-0.18-0.133-0.287-0.172l-0.006-0.002c-0.041-0.011-0.078-0.028-0.109-0.051l0.001 0.001c-0.064-0.052-0.121-0.112-0.183-0.171 0.020-0.035 0.027-0.070 0.049-0.081 0.018-0.011 0.040-0.017 0.063-0.017 0.012 0 0.024 0.002 0.035 0.005l-0.001-0c0.162 0.080 0.295 0.155 0.423 0.237l-0.018-0.010c0.153 0.098 0.287 0.206 0.428 0.313 0.063 0.047 0.118 0.105 0.182 0.15zM5.901 29.982c-0.057 0.012-0.127 0.022-0.198 0.029l-0.007 0c-0.139-0.096-0.28-0.194-0.422-0.289-0.12-0.096-0.255-0.184-0.399-0.258l-0.014-0.006c-0.119-0.060-0.208-0.164-0.247-0.29l-0.001-0.003c-0.014-0.035 0.017-0.079 0.050-0.072 0.118 0.009 0.224 0.055 0.306 0.127l-0.001-0.001c0.052 0.055 0.106 0.105 0.165 0.15l0.003 0.002c0.072 0.069 0.152 0.13 0.239 0.182l0.006 0.003c0.154 0.091 0.288 0.196 0.405 0.317l0 0.001zM4.118 29.747c-0.046-0.030-0.086-0.058-0.124-0.088l0.003 0.002c-0.125-0.101-0.209-0.24-0.347-0.332-0.008-0.006-0.013-0.014-0.014-0.024v-0c0-0.023 0-0.053 0.012-0.066 0.010-0.005 0.021-0.008 0.033-0.008s0.023 0.003 0.033 0.008l-0-0c0.042 0.047 0.093 0.085 0.15 0.113l0.003 0.001c0.082 0.032 0.152 0.077 0.211 0.133l-0-0c0.079 0.064 0.168 0.125 0.261 0.177l0.009 0.005c0.027 0.018 0.050 0.036 0.072 0.055l-0.001-0.001c0.044 0.040 0.084 0.084 0.131 0.119l0.061 0.046c-0.167-0.035-0.332-0.083-0.494-0.141zM10.218 26.29l0.049-0.026c0.017-0.012 0.032-0.023 0.047-0.036l-0.001 0.001c0.010 0.009 0.019 0.020 0.026 0.032l0 0.001c0.068 0.112 0.116 0.244 0.135 0.384l0.001 0.005c-0.001 0.014-0.013 0.025-0.027 0.025-0.004 0-0.008-0.001-0.011-0.002l0 0c-0.029-0.018-0.053-0.040-0.073-0.067l-0.001-0.001c-0.075-0.086-0.127-0.194-0.145-0.313l-0-0.003zM9.62 26.505q0.105 0.371 0.208 0.74v0.060c-0.037-0.018-0.070-0.039-0.098-0.065l0 0c-0.038-0.054-0.072-0.115-0.099-0.18l-0.002-0.006c-0.053-0.171-0.102-0.342-0.153-0.514zM8.961 27.705c0.030 0.024 0.065 0.043 0.103 0.054l0.002 0.001s0-0.034 0-0.057c-0.038-0.098-0.078-0.197-0.127-0.297-0.038-0.070-0.075-0.13-0.116-0.187l0.003 0.005c-0.038 0-0.073-0.012-0.078 0-0.004 0.015-0.006 0.032-0.006 0.050s0.002 0.035 0.006 0.051l-0-0.001c0.032 0.151 0.107 0.281 0.212 0.38l0 0zM11.607 27.383c-0.049 0.052-0.095 0.109-0.139 0.165-0.072 0.038-0.142 0.076-0.216 0.113-0.153 0.078-0.306 0.164-0.459 0.246-0.217 0.118-0.433 0.237-0.651 0.353-0.066 0.036-0.146 0.073-0.228 0.105l-0.015 0.005c-0.034 0.011-0.089 0-0.095-0.011s0.031-0.058 0.052-0.089c0.012-0.009 0.025-0.017 0.039-0.025l0.002-0.001c0.138-0.073 0.275-0.153 0.416-0.222 0.287-0.142 0.558-0.315 0.851-0.449 0.185-0.084 0.364-0.186 0.518-0.271zM9.745 28.393c-0.023 0.061-0.060 0.095-0.119 0.090-0.014 0-0.031-0.034-0.023-0.046 0.020-0.033 0.055-0.054 0.096-0.054 0.017 0 0.033 0.004 0.047 0.010l-0.001-0zM9.324 28.656l-0.177 0.008 0.243-0.128c0.021-0.013 0.046-0.025 0.072-0.034l0.003-0.001c0.015-0.002 0.032-0.002 0.050-0.002s0.035 0.001 0.052 0.003l-0.002-0c-0.053 0.038-0.084 0.063-0.116 0.083zM8.115 28.599c-0.034-0.002-0.074-0.003-0.114-0.003s-0.080 0.001-0.119 0.004l0.005-0 0.087-0.049c0.153-0.083 0.306-0.153 0.459-0.237 0.055-0.027 0.11-0.067 0.188-0.026-0.049 0.045-0.103 0.087-0.16 0.124l-0.005 0.003zM8.975 28.017c0.055-0.019 0.102-0.043 0.146-0.072l-0.002 0.002c0.088-0.067 0.189-0.125 0.297-0.168l0.009-0.003c0.104-0.035 0.192-0.073 0.276-0.118l-0.010 0.005c0.148-0.096 0.326-0.198 0.509-0.29l0.034-0.016c0.073-0.034 0.138-0.089 0.209-0.13 0.153-0.086 0.306-0.153 0.459-0.234s0.324-0.179 0.488-0.266c0.035-0.020 0.076-0.049 0.116 0-0.002 0.049-0.032 0.091-0.074 0.11l-0.001 0c-0.139 0.076-0.277 0.153-0.413 0.234-0.225 0.133-0.459 0.249-0.688 0.382-0.074 0.049-0.161 0.1-0.251 0.146l-0.015 0.007c-0.177 0.076-0.328 0.157-0.47 0.25l0.012-0.007c-0.048 0.043-0.102 0.081-0.161 0.113l-0.004 0.002c-0.211 0.077-0.389 0.16-0.559 0.256l0.018-0.009c-0.020 0.012-0.044 0.019-0.070 0.019s-0.050-0.007-0.071-0.020l0.001 0c0.051-0.085 0.125-0.151 0.214-0.191l0.003-0.001zM12.005 26.478c-0.054 0.054-0.118 0.098-0.19 0.127l-0.004 0.001c-0.069 0.031-0.136 0.093-0.223 0.073 0.113-0.102 0.255-0.174 0.412-0.201l0.005-0.001zM12.216 26.421c-0.020 0.015-0.046 0.024-0.073 0.024-0.018 0-0.034-0.004-0.050-0.010l0.001 0c0.040-0.105 0.064-0.125 0.322-0.252h0.011c0.050 0.018 0.101 0.037 0.153 0.050-0.099 0.060-0.218 0.123-0.341 0.179l-0.023 0.009z"></path>
<path d="M12.445 26.605c-0.121-0.034-0.234-0.084-0.353-0.121-0.044-0.014-0.047-0.060-0.017-0.096 0.016-0.022 0.042-0.035 0.071-0.035 0.008 0 0.017 0.001 0.025 0.003l-0.001-0c0.071 0.021 0.155 0.037 0.242 0.047l0.007 0.001c0.075 0.005 0.145 0.018 0.211 0.038l-0.006-0.002c-0 0.003-0.001 0.007-0.001 0.011s0 0.008 0.001 0.012l-0-0c-0.064 0.047-0.122 0.093-0.179 0.142zM11.951 27.040c-0.052 0.047-0.102 0.096-0.153 0.153l-0.287-0.095c-0.070-0.023-0.138-0.050-0.206-0.079-0.017-0.010-0.032-0.021-0.046-0.034l0 0c-0.009-0.013-0.014-0.029-0.014-0.047 0-0.040 0.027-0.073 0.064-0.083l0.001-0c0.011-0.001 0.024-0.002 0.037-0.002s0.026 0.001 0.039 0.002l-0.002-0c0.113 0.003 0.219 0.036 0.308 0.092l-0.003-0.002c0.074 0.036 0.161 0.069 0.251 0.093l0.010 0.002zM11.318 27.743c-0.034 0-0.069-0.015-0.104-0.020-0.114-0.012-0.217-0.034-0.316-0.066l0.011 0.003c-0.097-0.041-0.209-0.064-0.327-0.064-0.003 0-0.006 0-0.008 0h0c-0.008 0.001-0.017 0.001-0.026 0.001-0.034 0-0.066-0.004-0.097-0.012l0.003 0.001c-0.076-0.027-0.153-0.064-0.229-0.099 0-0.040 0-0.075 0.017-0.092 0.022-0.026 0.053-0.043 0.088-0.046l0-0c0.18 0.020 0.336 0.047 0.489 0.081l-0.030-0.006c0.173 0.041 0.339 0.098 0.509 0.153 0.040 0.012 0.078 0.029 0.118 0.044zM10.394 28.301l-0.214-0.053c-0.138-0.048-0.3-0.087-0.467-0.109l-0.013-0.001c-0.137-0.015-0.254-0.087-0.331-0.19l-0.001-0.001c-0.008-0.009-0.013-0.021-0.013-0.035 0-0.024 0.015-0.044 0.037-0.051l0-0c0.044-0.014 0.095-0.021 0.147-0.021 0.067 0 0.132 0.013 0.191 0.036l-0.004-0.001c0.057 0.032 0.126 0.065 0.197 0.092l0.011 0.004c0.084 0.039 0.182 0.070 0.284 0.089l0.007 0.001c0.115 0.018 0.218 0.047 0.315 0.086l-0.009-0.003c-0.050 0.048-0.096 0.099-0.137 0.154l-0.002 0.003zM9.096 28.663c-0.056-0.012-0.104-0.025-0.15-0.042l0.008 0.002c-0.153-0.053-0.28-0.153-0.439-0.194-0.010-0.002-0.018-0.009-0.021-0.018l-0-0c0-0.021-0.020-0.049-0.011-0.066 0.013-0.011 0.031-0.018 0.050-0.018 0.005 0 0.010 0.001 0.015 0.002l-0.001-0c0.053 0.029 0.114 0.049 0.18 0.056l0.002 0c0.088 0.001 0.172 0.021 0.247 0.055l-0.004-0.002c0.088 0.031 0.194 0.058 0.304 0.078l0.013 0.002c0.033 0.007 0.062 0.016 0.089 0.027l-0.004-0.001c0.055 0.021 0.107 0.049 0.162 0.066l0.075 0.023c-0.171 0.018-0.344 0.029-0.515 0.031z"></path>
<path fill="none" stroke="#000" stroke-linejoin="round" stroke-linecap="round" stroke-miterlimit="4" stroke-width="0.9171" d="M14.3 24.694s-5.938 2.877-8.968 3.168c-1.082 0.104-2.751 1.25-2.751 1.25s1.742 1.139 3.057 1.058c4.064-0.252 8.662-5.477 8.662-5.477z"></path>
<path d="M2.322 24.821c0.036-0.004 0.068-0.014 0.098-0.028l-0.002 0.001c0.007-0.005 0.011-0.013 0.011-0.022s-0.004-0.017-0.011-0.022l-0-0c-0.119-0.054-0.257-0.086-0.403-0.087h-0c-0.029 0.003-0.055 0.008-0.080 0.015l0.003-0.001c-0.009 0.017-0.041 0.044-0.029 0.057 0.081 0.064 0.185 0.102 0.298 0.102 0.041 0 0.080-0.005 0.118-0.015l-0.003 0.001zM1.698 25.499c0-0.043 0.008-0.089 0.012-0.131l0.888 0.243c0.020 0 0.026 0.020 0.047 0.037-0.030 0.020-0.065 0.038-0.102 0.051l-0.003 0.001c-0.012 0.001-0.027 0.001-0.041 0.001-0.062 0-0.123-0.006-0.182-0.017l0.006 0.001c-0.211-0.052-0.419-0.107-0.625-0.164-0.002-0.008 0-0.014 0-0.021zM2.543 26.595c0.040-0.014 0.074-0.035 0.103-0.061l-0 0s-0.026-0.024-0.050-0.027c-0.104-0.017-0.209-0.034-0.319-0.044-0.032-0.002-0.070-0.003-0.108-0.003s-0.076 0.001-0.113 0.003l0.005-0c-0.020 0.032-0.047 0.057-0.040 0.067 0.022 0.025 0.050 0.045 0.083 0.056l0.001 0c0.070 0.024 0.15 0.038 0.234 0.038 0.073 0 0.143-0.011 0.21-0.030l-0.005 0.001zM3.612 23.719l0.032-0.643 0.055 0.046v0.228c0 0.125 0.014 0.251 0.027 0.374v0.057c0 0.277-0.015 0.552-0.037 0.827-0.015 0.173-0.018 0.347-0.026 0.52-0.011 0.246-0.020 0.492-0.034 0.738-0.005 0.098-0.016 0.189-0.034 0.278l0.002-0.012c-0.008 0.035-0.041 0.078-0.058 0.075s-0.034-0.055-0.047-0.090c-0.002-0.007-0.002-0.015-0.002-0.024s0.001-0.017 0.002-0.024l-0 0.001c0.008-0.153 0.011-0.315 0.024-0.471 0.026-0.319 0.018-0.64 0.055-0.961 0.026-0.235 0.027-0.478 0.038-0.669 0-0.122-0.002-0.182 0.002-0.248zM3.538 26.274c0.023 0.021 0.037 0.052 0.037 0.085 0 0.025-0.008 0.049-0.022 0.068l0-0c-0.007 0.005-0.016 0.008-0.026 0.008s-0.019-0.003-0.026-0.009l0 0c-0.010-0.017-0.016-0.037-0.016-0.058 0-0.040 0.021-0.075 0.052-0.095l0-0zM3.541 26.777c-0.027 0.052-0.055 0.104-0.086 0.153 0-0.092 0.011-0.183 0.017-0.275-0-0.003-0-0.006-0-0.010 0-0.026 0.003-0.051 0.010-0.075l-0 0.002c0.016-0.033 0.032-0.061 0.051-0.087l-0.001 0.002c0 0.067 0.011 0.105 0.011 0.144s-0.002 0.098-0.002 0.147zM2.872 27.778c-0.041 0.055-0.081 0.118-0.116 0.184l-0.004 0.009v-0.099c0.009-0.174 0.023-0.349 0.037-0.521 0-0.060 0-0.128 0.076-0.174 0.012 0.061 0.021 0.133 0.023 0.206l0 0.002c0 0.128-0.008 0.263-0.015 0.394zM2.818 26.739c0.009-0.042 0.014-0.090 0.014-0.139 0-0.005-0-0.010-0-0.015v0.001c-0.007-0.051-0.011-0.111-0.011-0.171s0.004-0.12 0.012-0.178l-0.001 0.007c0.020-0.083 0.034-0.181 0.041-0.282l0-0.005c-0-0.006-0-0.014-0-0.021 0-0.214 0.011-0.426 0.033-0.635l-0.002 0.026c0.009-0.079 0-0.164 0-0.245 0-0.171 0.032-0.344 0.037-0.515s0.014-0.37 0.023-0.553c0-0.041 0-0.092 0.057-0.102 0.034 0.021 0.057 0.058 0.057 0.101 0 0.007-0.001 0.014-0.002 0.021l0-0.001c0 0.153-0.011 0.316-0.012 0.474 0 0.261-0.026 0.526-0.027 0.787 0 0.101 0 0.203-0.012 0.306-0.021 0.133-0.033 0.287-0.033 0.444 0 0.028 0 0.055 0.001 0.083l-0-0.004c0.010 0.045 0.015 0.096 0.015 0.149 0 0.017-0.001 0.035-0.002 0.052l0-0.002c-0.037 0.174-0.062 0.377-0.070 0.585l-0 0.007c0 0.001 0 0.003 0 0.005 0 0.050-0.027 0.094-0.068 0.117l-0.001 0c-0.034-0.064-0.053-0.139-0.053-0.219 0-0.027 0.002-0.053 0.006-0.078l-0 0.003zM3.057 23.35c0.011 0.043 0.018 0.091 0.018 0.142 0 0.032-0.003 0.063-0.008 0.094l0-0.003c-0.009 0.075 0.009 0.165-0.052 0.229-0.010-0.048-0.016-0.104-0.016-0.161 0-0.108 0.021-0.212 0.059-0.306l-0.002 0.006zM3.124 23.141c0 0.004 0.001 0.008 0.001 0.012 0 0.041-0.020 0.077-0.051 0.099l-0 0c-0.070-0.087-0.075-0.119-0.050-0.407v-0.012c0.045-0.034 0.085-0.068 0.123-0.104l-0 0c0 0.010 0 0.023 0 0.035 0 0.133-0.008 0.263-0.023 0.392l0.002-0.016z"></path>
<path d="M3.35 22.802c0.044 0.047 0.090 0.093 0.139 0.138-0.113 0.124-0.236 0.236-0.368 0.336l-0.007 0.005c-0.035 0.031-0.076 0.009-0.092-0.037-0.004-0.010-0.007-0.022-0.007-0.034 0-0.025 0.011-0.048 0.028-0.064l0-0c0.059-0.057 0.113-0.119 0.162-0.184l0.003-0.004c0.041-0.059 0.088-0.11 0.14-0.155l0.001-0.001zM3.71 23.515c0 0.078 0.012 0.153 0.021 0.234l-0.396 0.341c-0.057 0.049-0.115 0.093-0.174 0.136-0.015 0.010-0.033 0.017-0.052 0.023l-0.001 0c-0.001 0-0.001 0-0.002 0-0.047 0-0.086-0.038-0.086-0.086 0-0.009 0.001-0.017 0.004-0.025l-0 0.001c0.009-0.026 0.021-0.048 0.034-0.068l-0.001 0.001c0.059-0.093 0.14-0.167 0.235-0.217l0.003-0.002c0.146-0.098 0.273-0.202 0.39-0.316l-0.001 0.001zM3.821 24.373l0.024-0.026c0.009 0.032 0.015 0.066 0.024 0.098s0.012 0.043 0.017 0.063c-0.060 0.050-0.113 0.104-0.162 0.162l-0.002 0.002c-0.064 0.086-0.133 0.161-0.209 0.228l-0.002 0.001c-0.092 0.069-0.168 0.153-0.226 0.25l-0.002 0.004c-0.018 0.038-0.042 0.070-0.072 0.096l-0 0c-0.063 0.053-0.133 0.098-0.203 0.153-0.031-0.026-0.063-0.040-0.070-0.063-0.004-0.012-0.007-0.026-0.007-0.041 0-0.021 0.005-0.042 0.015-0.059l-0 0.001c0.101-0.13 0.201-0.245 0.307-0.354l-0.001 0.001c0.124-0.127 0.258-0.241 0.39-0.359 0.054-0.058 0.121-0.101 0.179-0.156zM4.011 25.267c0 0.002 0 0.004 0 0.006 0 0.070-0.004 0.139-0.011 0.208l0.001-0.008c-0.122 0.119-0.245 0.237-0.365 0.358-0.125 0.108-0.237 0.224-0.337 0.349l-0.004 0.005c-0.079 0.104-0.198 0.173-0.333 0.185l-0.002 0c-0.003 0-0.006 0.001-0.009 0.001-0.030 0-0.054-0.024-0.054-0.053 0-0.004 0-0.008 0.001-0.012l-0 0c0.031-0.114 0.096-0.21 0.184-0.279l0.001-0.001c0.072-0.044 0.134-0.088 0.192-0.137l-0.003 0.002c0.086-0.061 0.161-0.128 0.228-0.202l0.001-0.001c0.113-0.129 0.241-0.24 0.383-0.332l0.007-0.004zM3.433 26.97c-0.033 0.037-0.068 0.070-0.105 0.101l-0.002 0.001c-0.124 0.102-0.277 0.153-0.393 0.275-0.006 0.008-0.016 0.012-0.026 0.012-0.001 0-0.002-0-0.003-0h0c-0.023 0-0.054-0.009-0.063-0.024-0.001-0.004-0.001-0.009-0.001-0.014 0-0.019 0.007-0.037 0.020-0.050l-0 0c0.057-0.033 0.104-0.075 0.141-0.126l0.001-0.001c0.046-0.072 0.104-0.131 0.171-0.179l0.002-0.001c0.084-0.072 0.159-0.147 0.228-0.228l0.002-0.003c0.020-0.021 0.042-0.040 0.064-0.058l0.001-0.001c0.047-0.035 0.098-0.066 0.142-0.105l0.058-0.050c-0.070 0.153-0.156 0.306-0.238 0.452zM1.223 20.313c0-0.018-0.011-0.035-0.015-0.053-0.009-0.021-0.018-0.038-0.027-0.055l0.001 0.003c0.010-0.008 0.023-0.015 0.036-0.020l0.001-0c0.102-0.037 0.219-0.059 0.342-0.059 0.023 0 0.046 0.001 0.069 0.002l-0.003-0c0.011 0.003 0.020 0.014 0.020 0.026 0 0.006-0.002 0.011-0.004 0.015l0-0c-0.022 0.025-0.048 0.045-0.078 0.059l-0.001 0.001c-0.088 0.052-0.193 0.082-0.306 0.082-0.012 0-0.024-0-0.035-0.001l0.002 0zM1.325 20.94l0.764-0.060c0.018 0 0.031 0.009 0.057 0.020-0.027 0.027-0.058 0.073-0.083 0.083-0.060 0.027-0.13 0.047-0.203 0.059l-0.005 0.001c-0.179 0.020-0.356 0.035-0.533 0.049 0.003-0.049 0.003-0.099 0.003-0.151zM2.372 21.82c0.030-0.025 0.056-0.055 0.076-0.089l0.001-0.002s-0.034-0.015-0.058-0.011c-0.102 0.020-0.208 0.040-0.315 0.067-0.058 0.015-0.122 0.046-0.2 0.075-0.009 0.038-0.026 0.070-0.015 0.076 0.027 0.016 0.060 0.026 0.096 0.026 0.001 0 0.001 0 0.002 0h-0c0.157-0.004 0.3-0.058 0.416-0.145l-0.002 0.001zM2.571 19.164c0.043 0.058 0.089 0.113 0.136 0.168 0.023 0.078 0.047 0.153 0.069 0.234 0.046 0.167 0.101 0.33 0.153 0.497 0.073 0.235 0.153 0.469 0.219 0.706 0.024 0.072 0.044 0.16 0.058 0.25l0.001 0.010c0 0.037-0.011 0.087-0.027 0.090s-0.050-0.040-0.076-0.067c-0.008-0.013-0.013-0.029-0.017-0.045l-0-0.001c-0.046-0.153-0.096-0.306-0.138-0.449-0.084-0.306-0.2-0.611-0.275-0.925-0.047-0.197-0.112-0.391-0.165-0.559zM3.201 21.186c0.041 0.018 0.070 0.058 0.070 0.105 0 0.010-0.001 0.020-0.004 0.030l0-0.001c-0.008 0.010-0.020 0.017-0.034 0.017-0.006 0-0.011-0.001-0.017-0.003l0 0c-0.023-0.020-0.037-0.050-0.037-0.083 0-0.025 0.008-0.047 0.022-0.066l-0 0zM3.375 21.657c0 0.060-0.017 0.118-0.027 0.176l-0.078-0.263c-0.009-0.023-0.015-0.051-0.020-0.079l-0-0.002c0.004-0.036 0.011-0.070 0.021-0.102l-0.001 0.004c0.026 0.061 0.044 0.095 0.057 0.131s0.037 0.090 0.049 0.134zM3.086 22.826c-0.018 0.062-0.033 0.138-0.043 0.215l-0.001 0.008-0.032-0.095c-0.050-0.167-0.096-0.335-0.142-0.503-0.015-0.058-0.044-0.119 0.012-0.188 0.032 0.053 0.063 0.114 0.089 0.178l0.003 0.008c0.040 0.125 0.076 0.251 0.115 0.376zM2.681 21.868c-0.008-0.057-0.022-0.109-0.041-0.157l0.002 0.004c-0.047-0.093-0.085-0.202-0.109-0.315l-0.002-0.009c-0.014-0.107-0.034-0.204-0.063-0.297l0.003 0.012c-0.063-0.153-0.13-0.349-0.186-0.551l-0.010-0.041c-0.020-0.079-0.060-0.153-0.087-0.231-0.057-0.153-0.087-0.333-0.139-0.495s-0.113-0.353-0.168-0.529c-0.011-0.040-0.032-0.086 0.018-0.116 0.047 0.011 0.084 0.047 0.095 0.094l0 0.001c0.047 0.153 0.096 0.306 0.153 0.459 0.087 0.246 0.153 0.503 0.241 0.749 0.034 0.095 0.067 0.191 0.092 0.289 0.041 0.194 0.094 0.362 0.16 0.523l-0.007-0.020c0.034 0.053 0.061 0.114 0.080 0.178l0.001 0.005c0.033 0.221 0.081 0.416 0.143 0.605l-0.007-0.026c0.006 0.014 0.009 0.031 0.009 0.049 0 0.034-0.013 0.065-0.034 0.089l0-0c-0.074-0.070-0.126-0.163-0.145-0.268l-0-0.003zM1.761 18.597c0.041 0.062 0.072 0.134 0.088 0.212l0.001 0.004c0.017 0.073 0.064 0.153 0.029 0.234-0.074-0.122-0.118-0.27-0.118-0.427 0-0.008 0-0.015 0-0.023l-0 0.001zM1.747 18.38c0.007 0.015 0.012 0.033 0.012 0.052 0 0.026-0.008 0.051-0.023 0.071l0-0c-0.095-0.058-0.11-0.087-0.185-0.365v-0.011c0.026-0.039 0.053-0.085 0.076-0.133l0.003-0.007c0.040 0.105 0.080 0.237 0.112 0.372l0.004 0.022z"></path>
<path d="M1.97 18.189c-0.055 0.112-0.127 0.214-0.186 0.323-0.021 0.041-0.067 0.035-0.098 0-0.014-0.016-0.023-0.037-0.023-0.060 0-0.014 0.003-0.028 0.009-0.040l-0 0.001c0.035-0.066 0.067-0.144 0.093-0.225l0.003-0.011c0.019-0.073 0.045-0.137 0.079-0.197l-0.002 0.004 0.020 0.009zM2.302 18.759c0.038 0.060 0.075 0.119 0.115 0.179-0.049 0.089-0.098 0.176-0.153 0.263-0.037 0.064-0.076 0.127-0.118 0.186-0.013 0.015-0.027 0.028-0.042 0.039l-0.001 0c-0.010 0.004-0.021 0.006-0.032 0.006-0.045 0-0.082-0.035-0.085-0.079l-0-0c0-0.027 0.004-0.053 0.011-0.077l-0 0.002c0.025-0.113 0.079-0.21 0.153-0.288l-0 0c0.056-0.068 0.107-0.144 0.149-0.225l0.004-0.007zM2.87 19.517c-0.015 0.032-0.029 0.064-0.041 0.098-0.034 0.111-0.075 0.207-0.125 0.297l0.004-0.008c-0.060 0.090-0.104 0.196-0.127 0.309l-0.001 0.006c-0.005 0.043-0.017 0.082-0.035 0.118l0.001-0.002c-0.043 0.070-0.093 0.136-0.142 0.206-0.037-0.014-0.073-0.015-0.087-0.035-0.017-0.022-0.027-0.049-0.027-0.079 0-0.006 0-0.012 0.001-0.018l-0 0.001c0.055-0.177 0.11-0.321 0.173-0.461l-0.011 0.027c0.073-0.16 0.162-0.315 0.246-0.471 0.020-0.037 0.043-0.072 0.066-0.107zM3.236 20.535c-0.032 0.067-0.064 0.133-0.095 0.2-0.074 0.128-0.142 0.276-0.195 0.432l-0.005 0.018c-0.042 0.128-0.132 0.23-0.249 0.286l-0.003 0.001c-0.008 0.005-0.017 0.008-0.028 0.008-0.027 0-0.050-0.021-0.052-0.048v-0c-0.001-0.014-0.002-0.031-0.002-0.048 0-0.103 0.030-0.199 0.083-0.28l-0.001 0.002c0.044-0.055 0.088-0.118 0.128-0.183l0.005-0.008c0.055-0.078 0.104-0.166 0.142-0.26l0.003-0.009c0.039-0.107 0.086-0.199 0.142-0.285l-0.003 0.005c0.040 0.063 0.083 0.118 0.13 0.169l-0.001-0.001zM3.34 21.875c-0.021 0.046-0.043 0.090-0.067 0.133-0.089 0.113-0.18 0.24-0.264 0.372l-0.011 0.019c-0.004 0.010-0.013 0.016-0.023 0.018l-0 0c-0.023 0-0.052 0.009-0.066 0-0.005-0.010-0.008-0.021-0.008-0.034s0.003-0.024 0.008-0.034l-0 0c0.039-0.047 0.070-0.102 0.089-0.163l0.001-0.003c0.019-0.087 0.054-0.164 0.102-0.231l-0.001 0.002c0.048-0.083 0.095-0.18 0.134-0.281l0.005-0.014c0.014-0.031 0.027-0.056 0.043-0.081l-0.002 0.003c0.032-0.050 0.070-0.095 0.098-0.153l0.037-0.069c-0.020 0.176-0.044 0.344-0.075 0.515z"></path>
<path fill="none" stroke="#000" stroke-linejoin="round" stroke-linecap="round" stroke-miterlimit="4" stroke-width="0.9171" d="M0.459 15.998s1.666 6.384 1.363 9.414c-0.109 1.081 0.689 2.948 0.689 2.948s1.463-1.487 1.631-2.786c0.546-4.049-3.684-9.576-3.684-9.576z"></path>
<path d="M6.549 25.473c0.007 0.023 0.017 0.044 0.031 0.062l-0-0c0.004 0.004 0.009 0.007 0.015 0.007s0.012-0.003 0.015-0.007l0-0c0.010-0.043 0.015-0.092 0.015-0.142s-0.006-0.099-0.016-0.147l0.001 0.004c-0.005-0.020-0.012-0.036-0.019-0.052l0.001 0.002c-0.014 0-0.037-0.023-0.043-0.012-0.020 0.042-0.032 0.091-0.032 0.143s0.012 0.101 0.033 0.145l-0.001-0.002zM6.005 25.143l0.092-0.011c-0.015 0.212-0.031 0.42-0.046 0.63 0 0.014-0.011 0.020-0.020 0.037-0.017-0.021-0.044-0.047-0.047-0.064-0.012-0.042-0.019-0.090-0.019-0.139 0-0.005 0-0.010 0-0.015v0.001c0-0.153 0.015-0.298 0.026-0.446zM5.382 25.86c0.014 0.024 0.032 0.044 0.053 0.061l0 0s0.014-0.021 0.012-0.038c0-0.072 0-0.153-0.012-0.222 0-0.041-0.018-0.089-0.031-0.145-0.024-0.009-0.044-0.024-0.050-0.017-0.014 0.017-0.024 0.039-0.027 0.062l-0 0.001c-0.003 0.019-0.004 0.041-0.004 0.063 0 0.086 0.022 0.167 0.060 0.238l-0.001-0.003zM7.467 26.198l0.44-0.064c-0.009 0.014-0.017 0.029-0.024 0.043l-0.153 0.031c-0.086 0.020-0.168 0.044-0.251 0.070h-0.038c-0.188 0.034-0.374 0.064-0.564 0.086-0.119 0.014-0.237 0.035-0.355 0.052-0.168 0.026-0.336 0.053-0.504 0.076-0.056 0.009-0.12 0.014-0.185 0.014h-0c-0.024 0-0.058-0.017-0.058-0.029s0.034-0.029 0.055-0.044c0.005-0.001 0.010-0.001 0.016-0.001s0.011 0 0.017 0.001l-0.001-0c0.107-0.017 0.214-0.035 0.321-0.047 0.22-0.024 0.436-0.073 0.659-0.092 0.162-0.014 0.326-0.044 0.459-0.064zM5.729 26.491c-0.014 0.023-0.039 0.037-0.067 0.037-0.012 0-0.023-0.002-0.032-0.007l0 0c-0.004-0.005-0.006-0.011-0.006-0.018s0.002-0.013 0.006-0.018l-0 0c0.013-0.010 0.029-0.015 0.046-0.015 0.021 0 0.040 0.008 0.053 0.022l-0-0zM5.389 26.562l-0.118-0.038 0.188-0.026c0.009-0.001 0.019-0.001 0.029-0.001s0.020 0 0.030 0.001l-0.001-0c0.025 0.006 0.046 0.014 0.066 0.024l-0.002-0.001c-0.044 0.012-0.070 0.021-0.096 0.026zM4.622 26.242c-0.040-0.017-0.091-0.036-0.143-0.051l-0.010-0.003 0.067-0.011c0.119-0.018 0.238-0.032 0.358-0.046 0.041 0 0.086-0.017 0.127 0.027-0.038 0.016-0.083 0.031-0.131 0.043l-0.007 0.002zM5.318 26.067c0.002 0 0.005 0 0.007 0 0.036 0 0.071-0.004 0.104-0.013l-0.003 0.001c0.069-0.022 0.149-0.037 0.232-0.041l0.002-0c0.010 0 0.022 0 0.034 0 0.058 0 0.115-0.004 0.171-0.012l-0.006 0.001c0.115-0.028 0.259-0.053 0.406-0.070l0.019-0.002c0.055 0 0.11-0.026 0.165-0.035 0.115-0.021 0.237-0.024 0.353-0.044s0.252-0.041 0.378-0.060c0.027 0 0.061-0.014 0.076 0.024-0.012 0.031-0.040 0.052-0.073 0.055l-0 0c-0.109 0.017-0.215 0.034-0.322 0.053-0.177 0.034-0.359 0.053-0.537 0.087-0.058 0.014-0.128 0.025-0.2 0.032l-0.006 0c-0.131 0.007-0.253 0.024-0.372 0.052l0.015-0.003c-0.039 0.017-0.083 0.030-0.13 0.036l-0.003 0c-0.008-0-0.017-0-0.026-0-0.136 0-0.269 0.012-0.398 0.034l0.014-0.002c-0.006 0.001-0.013 0.002-0.021 0.002-0.028 0-0.054-0.013-0.071-0.033l-0-0c0.053-0.040 0.12-0.064 0.192-0.064h0zM7.642 25.778c-0.045 0.022-0.097 0.036-0.152 0.038l-0.001 0c-0.052 0-0.11 0.027-0.162 0 0.066-0.029 0.142-0.046 0.223-0.046 0.033 0 0.064 0.003 0.096 0.008l-0.003-0zM7.795 25.791c-0.007 0.002-0.015 0.003-0.023 0.003-0.023 0-0.044-0.009-0.060-0.023l0 0c0.050-0.060 0.072-0.067 0.269-0.089 0.026 0.023 0.054 0.045 0.084 0.065l0.003 0.002c-0.076 0.017-0.169 0.032-0.264 0.041l-0.009 0.001z"></path>
<path d="M8.052 25.898c-0.026 0.037-0.050 0.073-0.075 0.113-0.105-0.065-0.197-0.134-0.281-0.211l0.002 0.001c-0.026-0.018-0.017-0.049 0.012-0.066 0.010-0.006 0.022-0.010 0.034-0.010s0.025 0.004 0.035 0.010l-0-0c0.044 0.032 0.094 0.062 0.147 0.088l0.006 0.003c0.046 0.021 0.086 0.045 0.122 0.073l-0.001-0.001zM7.618 26.238q-0.078 0.021-0.153 0.046l-0.281-0.223c-0.040-0.031-0.076-0.064-0.115-0.099-0.008-0.009-0.016-0.020-0.021-0.031l-0-0.001c-0.001-0.004-0.002-0.009-0.002-0.014 0-0.033 0.027-0.060 0.060-0.060 0.002 0 0.003 0 0.005 0h-0c0.018 0.003 0.035 0.009 0.050 0.016l-0.001-0.001c0.073 0.027 0.134 0.073 0.18 0.131l0.001 0.001c0.080 0.080 0.167 0.153 0.26 0.218l0.006 0.004zM7.052 26.426l0.021 0.014-0.064 0.031-0.040 0.020c-0.039-0.032-0.082-0.062-0.127-0.088l-0.004-0.002c-0.071-0.033-0.131-0.071-0.187-0.113l0.003 0.002c-0.057-0.051-0.124-0.092-0.197-0.119l-0.004-0.001c-0.029-0.007-0.054-0.018-0.076-0.034l0.001 0c-0.044-0.037-0.083-0.078-0.127-0.119 0.014-0.023 0.020-0.047 0.034-0.055s0.029-0.012 0.046-0.012c0.008 0 0.016 0.001 0.024 0.003l-0.001-0c0.112 0.054 0.203 0.105 0.291 0.16l-0.013-0.008c0.102 0.067 0.199 0.144 0.295 0.217 0.044 0.035 0.081 0.075 0.127 0.105zM6.473 26.676c-0.038 0.008-0.087 0.015-0.135 0.019l-0.005 0c-0.096-0.067-0.193-0.134-0.29-0.199-0.083-0.066-0.177-0.127-0.276-0.179l-0.010-0.005c-0.081-0.041-0.142-0.113-0.169-0.199l-0.001-0.002c-0.009-0.024 0.012-0.055 0.035-0.050 0.083 0.006 0.157 0.038 0.214 0.089l-0-0c0.036 0.039 0.074 0.075 0.114 0.109l0.002 0.002c0.050 0.046 0.105 0.088 0.164 0.124l0.005 0.003c0.107 0.063 0.2 0.135 0.281 0.218l0 0c0.018 0.024 0.047 0.047 0.072 0.070zM5.244 26.514c-0.029-0.020-0.058-0.038-0.084-0.060-0.086-0.070-0.144-0.165-0.238-0.229-0.006-0.004-0.010-0.010-0.011-0.017l-0-0c0-0.015 0-0.037 0.009-0.044 0.007-0.004 0.015-0.006 0.023-0.006s0.016 0.002 0.023 0.006l-0-0c0.029 0.033 0.063 0.059 0.102 0.079l0.002 0.001c0.059 0.021 0.11 0.052 0.153 0.092l-0-0c0.055 0.044 0.115 0.086 0.179 0.123l0.007 0.004c0.018 0.012 0.034 0.024 0.049 0.037l-0-0c0.031 0.026 0.058 0.057 0.090 0.081l0.043 0.032c-0.122-0.026-0.242-0.060-0.347-0.098zM9.451 24.127l0.034-0.018c0.012 0 0.021-0.017 0.032-0.024l0.018 0.021c0.046 0.077 0.079 0.168 0.093 0.265l0 0.004c-0.001 0.010-0.009 0.018-0.020 0.018-0.002 0-0.004-0-0.006-0.001l0 0c-0.020-0.013-0.037-0.028-0.050-0.047l-0-0.001c-0.052-0.059-0.088-0.133-0.101-0.215l-0-0.002zM9.038 24.278c0.049 0.171 0.096 0.341 0.145 0.511v0.040c-0.026-0.012-0.048-0.026-0.068-0.043l0 0c-0.027-0.039-0.050-0.083-0.067-0.13l-0.001-0.004q-0.055-0.177-0.105-0.353zM8.584 25.105c0.020 0.017 0.045 0.031 0.072 0.038l0.001 0s0-0.023 0-0.040c-0.027-0.067-0.055-0.134-0.089-0.203-0.026-0.049-0.052-0.091-0.080-0.13l0.002 0.003c-0.026 0-0.050-0.008-0.053 0-0.003 0.011-0.004 0.023-0.004 0.035s0.002 0.025 0.004 0.036l-0-0.001c0.022 0.104 0.074 0.193 0.146 0.261l0 0zM10.409 24.883c-0.033 0.035-0.064 0.072-0.094 0.111l-0.003 0.003c-0.049 0.026-0.098 0.052-0.153 0.076-0.107 0.053-0.211 0.113-0.315 0.17l-0.449 0.245c-0.047 0.026-0.102 0.051-0.16 0.072l-0.008 0.003c-0.023 0.008-0.060 0-0.064-0.008s0.020-0.040 0.035-0.060c0.008-0.007 0.018-0.013 0.028-0.018l0.001-0c0.095-0.052 0.19-0.105 0.286-0.153 0.199-0.098 0.385-0.217 0.588-0.306 0.127-0.058 0.249-0.128 0.356-0.186-0.014 0.014-0.032 0.031-0.049 0.050zM9.125 25.58c-0.008 0.036-0.040 0.063-0.078 0.063-0.002 0-0.003-0-0.005-0h0c-0.009 0-0.021-0.024-0.015-0.032 0.013-0.023 0.037-0.038 0.065-0.038 0.012 0 0.023 0.003 0.033 0.008l-0-0zM8.83 25.761h-0.122l0.167-0.089c0.015-0.009 0.033-0.018 0.052-0.024l0.002-0.001c0.010-0.001 0.022-0.002 0.034-0.002s0.024 0.001 0.035 0.002l-0.001-0-0.079 0.057zM8 25.723c-0.023-0.001-0.050-0.002-0.076-0.002s-0.054 0.001-0.080 0.002l0.004-0 0.060-0.034c0.105-0.057 0.212-0.112 0.321-0.164 0.037-0.018 0.075-0.046 0.128-0.018-0.034 0.030-0.072 0.059-0.111 0.086l-0.004 0.002zM8.595 25.321c0.038-0.014 0.070-0.030 0.1-0.049l-0.002 0.001c0.059-0.046 0.127-0.086 0.199-0.117l0.006-0.002c0.072-0.024 0.133-0.050 0.192-0.081l-0.007 0.003c0.102-0.067 0.225-0.138 0.351-0.202l0.023-0.011c0.057-0.031 0.104-0.060 0.149-0.092l-0.005 0.003c0.101-0.060 0.214-0.104 0.316-0.162s0.223-0.124 0.336-0.183c0.024-0.014 0.052-0.034 0.079 0-0.001 0.034-0.022 0.063-0.051 0.076l-0.001 0c-0.095 0.052-0.191 0.105-0.284 0.16-0.153 0.092-0.319 0.171-0.474 0.264-0.050 0.032-0.111 0.065-0.173 0.095l-0.011 0.005c-0.123 0.052-0.228 0.108-0.327 0.173l0.008-0.005c-0.033 0.030-0.070 0.056-0.11 0.078l-0.003 0.001c-0.146 0.052-0.27 0.109-0.388 0.175l0.013-0.007c-0.014 0.009-0.030 0.014-0.048 0.014s-0.035-0.005-0.049-0.014l0 0c0.039-0.057 0.093-0.1 0.157-0.125l0.002-0.001zM10.682 24.258c-0.037 0.038-0.081 0.068-0.13 0.088l-0.002 0.001c-0.047 0.021-0.095 0.064-0.153 0.050 0.078-0.070 0.175-0.119 0.282-0.139l0.004-0.001zM10.828 24.22c-0.014 0.010-0.031 0.017-0.050 0.017-0.012 0-0.024-0.003-0.035-0.008l0.001 0c0.027-0.072 0.044-0.087 0.223-0.174 0.029 0.012 0.064 0.024 0.1 0.034l0.005 0.001c-0.067 0.042-0.147 0.085-0.23 0.124l-0.014 0.006z"></path>
<path d="M10.987 24.345c-0.084-0.021-0.162-0.057-0.243-0.083-0.031-0.009-0.034-0.040-0.012-0.066 0.011-0.015 0.029-0.025 0.049-0.025 0.006 0 0.011 0.001 0.017 0.002l-0-0c0.048 0.014 0.107 0.026 0.166 0.033l0.005 0c0.051 0.003 0.099 0.012 0.145 0.026l-0.004-0.001s0 0.011 0 0.017zM10.646 24.647l-0.105 0.101-0.197-0.064q-0.073-0.026-0.142-0.055c-0.012-0.006-0.023-0.014-0.032-0.023v0c-0.006-0.009-0.010-0.021-0.010-0.033 0-0.027 0.018-0.050 0.043-0.057l0-0c0.008-0.001 0.017-0.002 0.026-0.002s0.018 0.001 0.027 0.002l-0.001-0c0.079 0.001 0.153 0.024 0.216 0.064l-0.002-0.001c0.050 0.026 0.109 0.049 0.17 0.067l0.007 0.002zM10.21 25.133l-0.072-0.015c-0.078-0.007-0.149-0.022-0.218-0.045l0.007 0.002c-0.068-0.028-0.148-0.044-0.231-0.044h-0c-0.012 0.002-0.027 0.004-0.041 0.004s-0.029-0.001-0.043-0.004l0.001 0c-0.055-0.018-0.105-0.044-0.153-0.067 0-0.027 0-0.052 0.012-0.064 0.015-0.018 0.037-0.029 0.061-0.031h0c0.123 0.014 0.23 0.032 0.335 0.056l-0.021-0.004c0.119 0.027 0.235 0.067 0.352 0.102l0.081 0.031zM9.57 25.516l-0.153-0.037c-0.096-0.034-0.208-0.060-0.324-0.074l-0.008-0.001c-0.094-0.012-0.175-0.061-0.229-0.132l-0.001-0.001c-0.005-0.006-0.008-0.014-0.008-0.023 0-0.016 0.010-0.030 0.025-0.035l0-0c0.031-0.009 0.066-0.015 0.102-0.015 0.046 0 0.091 0.009 0.131 0.025l-0.002-0.001c0.042 0.022 0.093 0.044 0.145 0.062l0.008 0.002c0.057 0.026 0.125 0.048 0.194 0.062l0.006 0.001c0.078 0.013 0.148 0.032 0.215 0.059l-0.007-0.002c-0.035 0.033-0.066 0.069-0.093 0.108l-0.002 0.002zM8.677 25.767c-0.034-0.008-0.067-0.017-0.099-0.027-0.104-0.037-0.191-0.107-0.306-0.134-0.007-0.001-0.012-0.006-0.015-0.012l-0-0c0-0.015-0.014-0.034 0-0.046 0.009-0.008 0.020-0.012 0.032-0.012 0.004 0 0.008 0.001 0.012 0.002l-0-0c0.036 0.020 0.079 0.033 0.124 0.038l0.002 0c0.061 0.001 0.119 0.014 0.171 0.038l-0.003-0.001c0.061 0.022 0.134 0.041 0.21 0.054l0.009 0.001c0.020 0.003 0.038 0.008 0.055 0.013l-0.003-0.001c0.038 0.014 0.073 0.034 0.113 0.046l0.050 0.015c-0.115 0.018-0.234 0.026-0.352 0.027z"></path>
<path fill="none" stroke="#000" stroke-linejoin="round" stroke-linecap="round" stroke-miterlimit="4" stroke-width="0.9171" d="M12.266 23.029s-4.095 1.987-6.184 2.184c-0.746 0.072-1.903 0.864-1.903 0.864s1.201 0.784 2.105 0.728c2.812-0.173 5.982-3.775 5.982-3.775z"></path>
<path d="M5.211 20.329c0.023-0.006 0.044-0.016 0.062-0.029l-0 0c0.005-0.003 0.008-0.009 0.008-0.015s-0.003-0.012-0.008-0.015l-0-0c-0.053-0.014-0.113-0.022-0.175-0.022-0.039 0-0.076 0.003-0.113 0.009l0.004-0.001c-0.019 0.004-0.036 0.010-0.052 0.017l0.002-0.001c0 0.012-0.023 0.035-0.014 0.041 0.046 0.026 0.101 0.041 0.16 0.041 0.046 0 0.090-0.009 0.13-0.026l-0.002 0.001zM4.861 20.861v-0.092l0.627 0.067c0.014 0 0.020 0.011 0.037 0.021-0.023 0.015-0.049 0.043-0.067 0.046-0.037 0.008-0.078 0.013-0.121 0.013-0.011 0-0.022-0-0.033-0.001l0.002 0c-0.153-0.011-0.297-0.026-0.445-0.041zM5.554 21.51c0.025-0.013 0.046-0.030 0.062-0.052l0-0s-0.020-0.014-0.037-0.014h-0.222c-0.041 0-0.090 0.015-0.153 0.026-0.011 0.024-0.026 0.044-0.020 0.050 0.018 0.014 0.039 0.024 0.062 0.029l0.001 0c0.027 0.005 0.059 0.008 0.091 0.008 0.078 0 0.152-0.018 0.217-0.049l-0.003 0.001zM5.969 19.439c-0.017-0.153-0.034-0.295-0.049-0.443l0.043 0.026c0.009 0.060 0.021 0.138 0.024 0.153 0.017 0.086 0.037 0.168 0.061 0.252v0.038c0.026 0.19 0.050 0.378 0.064 0.567 0.011 0.119 0.026 0.238 0.040 0.356 0.020 0.17 0.041 0.338 0.058 0.507 0.005 0.046 0.008 0.1 0.008 0.155 0 0.011-0 0.021-0 0.032l0-0.002c0 0.024-0.018 0.057-0.032 0.057s-0.027-0.034-0.041-0.057c-0.001-0.005-0.001-0.010-0.001-0.016s0-0.011 0.002-0.017l-0 0.001c-0.012-0.107-0.027-0.215-0.035-0.323-0.017-0.222-0.058-0.439-0.067-0.662-0.008-0.162-0.034-0.327-0.047-0.459-0.014-0.076-0.021-0.122-0.026-0.167zM6.198 21.186c0.021 0.015 0.034 0.038 0.034 0.065 0 0.013-0.003 0.025-0.009 0.036l0-0s-0.029 0.011-0.035 0c-0.009-0.013-0.014-0.028-0.014-0.045 0-0.022 0.009-0.042 0.024-0.056h0zM6.256 21.528c-0.014 0.038-0.027 0.078-0.043 0.116l-0.018-0.19c-0.001-0.009-0.002-0.018-0.002-0.028s0.001-0.020 0.002-0.029l-0 0.001c0.007-0.024 0.016-0.046 0.027-0.066l-0.001 0.002c0.008 0.025 0.015 0.058 0.021 0.091l0.001 0.005c0.003 0.032 0.008 0.066 0.014 0.098zM5.909 22.284c-0.021 0.042-0.040 0.093-0.056 0.145l-0.002 0.008c0-0.023-0.008-0.046-0.009-0.069-0.014-0.119-0.023-0.238-0.032-0.358 0-0.041-0.015-0.087 0.032-0.127 0.015 0.039 0.028 0.085 0.037 0.133l0.001 0.006c0.011 0.081 0.020 0.171 0.029 0.261zM5.758 21.582c0-0.007 0.001-0.016 0.001-0.025 0-0.030-0.003-0.060-0.009-0.088l0 0.003c-0.020-0.070-0.031-0.15-0.032-0.233v-0c0.003-0.030 0.004-0.065 0.004-0.1s-0.001-0.070-0.004-0.105l0 0.005c-0.023-0.141-0.047-0.281-0.057-0.425-0.008-0.066-0.018-0.123-0.031-0.179l0.002 0.011c-0.017-0.116-0.015-0.237-0.031-0.353s-0.032-0.254-0.046-0.381c0-0.027-0.011-0.061 0.027-0.076 0.030 0.014 0.051 0.043 0.052 0.078v0c0.012 0.107 0.026 0.215 0.043 0.324 0.026 0.177 0.040 0.361 0.067 0.538 0.011 0.059 0.020 0.13 0.024 0.202l0 0.005c0.001 0.128 0.014 0.252 0.037 0.372l-0.002-0.013c0.016 0.039 0.027 0.085 0.030 0.133l0 0.002c-0.001 0.026-0.001 0.057-0.001 0.088 0 0.113 0.007 0.225 0.021 0.334l-0.001-0.013c0.001 0.005 0.002 0.011 0.002 0.017 0 0.029-0.014 0.056-0.035 0.073l-0 0c-0.039-0.053-0.063-0.12-0.063-0.193 0-0 0-0.001 0-0.001v0zM5.554 19.248c0.019 0.045 0.031 0.097 0.032 0.152v0.001c0 0.052 0.024 0.112-0.011 0.162-0.021-0.058-0.034-0.125-0.034-0.195 0-0.042 0.005-0.084 0.013-0.124l-0.001 0.004zM5.573 19.106c0.002 0.006 0.003 0.013 0.003 0.021 0 0.024-0.010 0.045-0.026 0.060l-0 0c-0.057-0.052-0.064-0.073-0.078-0.272 0.024-0.027 0.049-0.055 0.072-0.086 0.013 0.078 0.024 0.173 0.029 0.27l0 0.007z"></path>
<path d="M5.691 18.843c0.035 0.027 0.070 0.053 0.109 0.079-0.068 0.102-0.14 0.191-0.219 0.273l0-0c-0.020 0.024-0.049 0.015-0.066-0.015-0.006-0.010-0.010-0.022-0.010-0.034s0.004-0.025 0.010-0.035l-0 0c0.033-0.044 0.065-0.094 0.092-0.147l0.003-0.006c0.023-0.044 0.050-0.081 0.081-0.115l-0 0zM6.013 19.289c0.012 0.053 0.024 0.105 0.040 0.153l-0.232 0.275c-0.034 0.040-0.069 0.076-0.104 0.112-0.010 0.008-0.021 0.015-0.033 0.021l-0.001 0c-0.003 0.001-0.007 0.001-0.011 0.001-0.033 0-0.060-0.027-0.060-0.060 0-0.003 0-0.005 0-0.007l-0 0c0.005-0.019 0.011-0.035 0.018-0.051l-0.001 0.002c0.030-0.072 0.077-0.131 0.136-0.175l0.001-0.001c0.084-0.077 0.16-0.161 0.227-0.252l0.003-0.005zM6.181 19.861l0.014-0.020 0.027 0.064 0.018 0.041c-0.033 0.038-0.064 0.080-0.091 0.124l-0.002 0.004c-0.036 0.068-0.076 0.127-0.121 0.181l0.001-0.002c-0.053 0.056-0.096 0.122-0.125 0.195l-0.002 0.004c-0.009 0.028-0.022 0.052-0.039 0.074l0-0.001c-0.037 0.043-0.079 0.081-0.122 0.122-0.023-0.015-0.047-0.021-0.055-0.035-0.004-0.010-0.007-0.022-0.007-0.034s0.002-0.024 0.007-0.035l-0 0.001c0.053-0.093 0.105-0.186 0.167-0.274s0.153-0.193 0.226-0.287c0.035-0.041 0.070-0.078 0.102-0.122zM6.409 20.449c0.008 0.041 0.013 0.089 0.015 0.139l0 0.002c-0.070 0.095-0.141 0.188-0.209 0.283-0.069 0.082-0.133 0.174-0.188 0.271l-0.005 0.009c-0.045 0.081-0.121 0.14-0.212 0.162l-0.002 0c-0.024 0.009-0.053-0.014-0.047-0.037 0.008-0.082 0.043-0.155 0.095-0.211l-0 0c0.042-0.035 0.079-0.072 0.114-0.112l0.001-0.001c0.054-0.049 0.101-0.104 0.142-0.163l0.002-0.003c0.065-0.104 0.141-0.194 0.228-0.271l0.001-0.001zM6.203 21.672c-0.020 0.027-0.040 0.055-0.063 0.081-0.072 0.083-0.17 0.139-0.237 0.231-0.004 0.005-0.010 0.009-0.017 0.009h-0c-0.015 0-0.037 0-0.044-0.011s0-0.037 0-0.046c0.034-0.028 0.062-0.061 0.083-0.099l0.001-0.002c0.023-0.055 0.056-0.103 0.096-0.142l0-0c0.046-0.054 0.090-0.113 0.129-0.176l0.004-0.006c0.013-0.018 0.026-0.034 0.039-0.050l-0.001 0.001c0.027-0.029 0.060-0.055 0.084-0.086l0.035-0.043c-0.035 0.136-0.073 0.248-0.117 0.357l0.007-0.020zM3.974 17.382c0-0.012-0.011-0.023-0.015-0.035s-0.017-0.021-0.024-0.034l0.023-0.017c0.079-0.044 0.171-0.073 0.269-0.082l0.003-0c0.009 0.002 0.016 0.010 0.016 0.020 0 0.002-0 0.005-0.001 0.007l0-0c-0.013 0.020-0.029 0.036-0.048 0.049l-0.001 0c-0.060 0.051-0.136 0.085-0.22 0.093l-0.002 0zM4.107 17.799l0.515-0.125h0.040c-0.015 0.023-0.031 0.058-0.046 0.067-0.039 0.024-0.084 0.045-0.131 0.061l-0.005 0.002q-0.179 0.049-0.358 0.092c-0.005-0.027-0.009-0.063-0.015-0.096zM4.917 18.282c0.017-0.020 0.031-0.043 0.041-0.069l0.001-0.002s-0.024 0-0.040 0c-0.069 0.024-0.138 0.049-0.208 0.079-0.038 0.017-0.078 0.044-0.128 0.073 0 0.026-0.011 0.050 0 0.053s0.022 0.005 0.034 0.005 0.024-0.002 0.035-0.005l-0.001 0c0.104-0.018 0.195-0.067 0.266-0.136l-0 0zM4.761 16.451q0.052 0.052 0.11 0.101l0.073 0.153c0.049 0.109 0.104 0.215 0.153 0.323 0.076 0.153 0.153 0.306 0.226 0.459 0.025 0.048 0.049 0.104 0.068 0.163l0.002 0.008c0 0.023 0 0.060-0.011 0.064s-0.038-0.023-0.058-0.038c-0.007-0.008-0.013-0.018-0.017-0.028l-0-0.001c-0.047-0.098-0.098-0.193-0.142-0.292-0.092-0.202-0.203-0.393-0.289-0.599-0.053-0.128-0.119-0.254-0.174-0.362zM5.411 17.759c0.035 0.009 0.060 0.040 0.060 0.077 0 0.002-0 0.005-0 0.007l0-0c-0.004 0.010-0.014 0.017-0.025 0.017-0.003 0-0.006-0-0.009-0.001l0 0c-0.021-0.014-0.035-0.037-0.035-0.064 0-0.013 0.003-0.025 0.009-0.036l-0 0zM5.582 18.060v0.128l-0.079-0.176c-0.009-0.015-0.016-0.033-0.021-0.052l-0-0.002c-0.001-0.010-0.002-0.022-0.002-0.034s0.001-0.024 0.002-0.036l-0 0.001c0.024 0.038 0.041 0.060 0.053 0.083zM5.512 18.889c-0.001 0.023-0.002 0.050-0.002 0.076s0.001 0.054 0.002 0.080l-0-0.004c-0.011-0.020-0.023-0.040-0.032-0.061-0.053-0.107-0.102-0.217-0.153-0.326-0.017-0.038-0.043-0.078-0.012-0.13 0.029 0.035 0.057 0.073 0.082 0.114l0.002 0.004zM5.133 18.28c-0.013-0.039-0.028-0.072-0.046-0.104l0.001 0.003c-0.044-0.060-0.081-0.129-0.11-0.203l-0.002-0.006c-0.021-0.072-0.045-0.134-0.075-0.193l0.003 0.007c-0.061-0.101-0.127-0.227-0.186-0.356l-0.011-0.027c-0.021-0.050-0.058-0.096-0.084-0.153-0.057-0.102-0.096-0.217-0.153-0.323s-0.116-0.226-0.173-0.341c-0.012-0.026-0.031-0.055 0-0.081 0.034 0.002 0.063 0.024 0.075 0.054l0 0.001c0.049 0.096 0.098 0.194 0.153 0.29 0.087 0.153 0.16 0.326 0.248 0.483 0.032 0.061 0.067 0.122 0.093 0.186 0.046 0.126 0.098 0.233 0.158 0.335l-0.005-0.009c0.028 0.034 0.053 0.072 0.073 0.113l0.001 0.003c0.046 0.147 0.098 0.273 0.159 0.393l-0.006-0.014c0.008 0.014 0.013 0.031 0.013 0.049s-0.005 0.035-0.014 0.049l0-0c-0.052-0.040-0.092-0.093-0.114-0.155l-0.001-0.002zM4.147 16.154c0.036 0.038 0.065 0.084 0.083 0.135l0.001 0.003c0.020 0.047 0.061 0.096 0.044 0.153-0.066-0.080-0.112-0.179-0.128-0.287l-0-0.003zM4.113 16.008c0.010 0.014 0.015 0.030 0.015 0.049 0 0.013-0.003 0.025-0.008 0.036l0-0c-0.072-0.029-0.086-0.047-0.167-0.228v-0.008c0.014-0.034 0.027-0.069 0.038-0.104 0.039 0.069 0.079 0.153 0.115 0.239l0.006 0.016z"></path>
<path d="M4.246 15.855c-0.026 0.081-0.064 0.153-0.092 0.24-0.011 0.029-0.043 0.031-0.067 0.009-0.014-0.011-0.023-0.028-0.023-0.047 0-0.006 0.001-0.013 0.003-0.019l-0 0c0.016-0.048 0.029-0.106 0.037-0.165l0.001-0.006c0.006-0.052 0.017-0.099 0.032-0.144l-0.001 0.005h0.017zM4.533 16.202l0.096 0.11c-0.023 0.064-0.047 0.13-0.072 0.196s-0.038 0.093-0.060 0.139c-0.007 0.012-0.015 0.023-0.024 0.032l-0 0c-0.009 0.005-0.019 0.008-0.030 0.008-0.028 0-0.051-0.020-0.057-0.046l-0-0c-0.001-0.008-0.002-0.017-0.002-0.026s0.001-0.018 0.002-0.027l-0 0.001c0.004-0.080 0.029-0.153 0.071-0.214l-0.001 0.001c0.028-0.049 0.054-0.107 0.074-0.167l0.002-0.007zM5.003 16.66c0 0.023-0.012 0.047-0.017 0.072-0.012 0.079-0.029 0.15-0.053 0.218l0.003-0.008c-0.031 0.067-0.050 0.146-0.053 0.228l-0 0.001c0 0.004 0 0.009 0 0.014 0 0.024-0.004 0.047-0.012 0.068l0-0.001c-0.020 0.053-0.047 0.104-0.073 0.153-0.027 0-0.052 0-0.063-0.015-0.017-0.016-0.028-0.038-0.029-0.063v-0c0.019-0.122 0.041-0.226 0.067-0.327l-0.005 0.021c0.034-0.118 0.076-0.231 0.116-0.347 0.011-0.032 0.023-0.058 0.036-0.084l-0.002 0.004zM5.363 17.313c-0.014 0.047-0.029 0.096-0.043 0.153-0.036 0.093-0.066 0.204-0.086 0.318l-0.002 0.011c-0.014 0.093-0.066 0.172-0.139 0.222l-0.001 0.001c-0.006 0.005-0.014 0.008-0.023 0.008-0.017 0-0.031-0.011-0.035-0.026l-0-0c-0.007-0.027-0.011-0.057-0.011-0.089 0-0.051 0.011-0.1 0.030-0.144l-0.001 0.002c0.024-0.043 0.047-0.093 0.066-0.146l0.002-0.007c0.031-0.055 0.056-0.119 0.074-0.185l0.001-0.006c0.016-0.078 0.038-0.146 0.067-0.211l-0.003 0.007c0.031 0.034 0.065 0.064 0.101 0.092l0.002 0.001zM5.58 18.213c-0.010 0.040-0.021 0.072-0.033 0.104l0.002-0.006c-0.041 0.102-0.113 0.188-0.153 0.297-0.002 0.007-0.006 0.012-0.012 0.015l-0 0c-0.015 0-0.035 0.012-0.046 0-0.008-0.009-0.012-0.021-0.012-0.033 0-0.004 0.001-0.009 0.002-0.013l-0 0c0.021-0.035 0.036-0.076 0.043-0.121l0-0.002c0.004-0.062 0.020-0.119 0.045-0.171l-0.001 0.003c0.023-0.059 0.044-0.131 0.061-0.205l0.002-0.011c0.005-0.022 0.012-0.041 0.021-0.060l-0.001 0.002c0.015-0.037 0.037-0.072 0.050-0.11s0.011-0.034 0.017-0.050c0.010 0.098 0.015 0.211 0.015 0.326 0 0.012-0 0.025-0 0.037l0-0.002z"></path>
<path fill="none" stroke="#000" stroke-linejoin="round" stroke-linecap="round" stroke-miterlimit="4" stroke-width="0.9171" d="M2.976 14.52s1.834 4.165 1.958 6.267c0.046 0.749 0.793 1.933 0.793 1.933s0.827-1.172 0.806-2.077c-0.072-2.817-3.557-6.123-3.557-6.123z"></path>
<path fill="none" stroke="#000" stroke-linejoin="round" stroke-linecap="round" stroke-miterlimit="4" stroke-width="0.9171" d="M8.899 16.404c-0.382 1.029-0.775 1.872-1.174 2.805-3.179 7.454-7.22 12.333-7.22 12.333"></path>
<path fill="none" stroke="#000" stroke-linejoin="round" stroke-linecap="round" stroke-miterlimit="4" stroke-width="0.5533" d="M9.689 14.048q-0.128 0.371-0.258 0.738M10.641 11.184q-0.271 0.847-0.553 1.703M11.376 8.83q-0.161 0.524-0.327 1.070M12.002 6.725c-0.078 0.272-0.153 0.549-0.243 0.83M13.765 0.277s-0.483 1.943-1.275 4.747"></path>
<path d="M8.336 13.451l-0.131-0.139c-0.26 0.358-0.517 0.711-0.775 1.070-0.017 0.023-0.009 0.046-0.017 0.086 0.060-0.005 0.116-0.018 0.168-0.038l-0.004 0.001c0.082-0.064 0.153-0.135 0.217-0.213l0.002-0.002c0.191-0.248 0.374-0.497 0.556-0.747-0.005-0.006-0.010-0.012-0.015-0.017l-0-0zM7.448 14.776l-0.131-0.138c-0.26 0.359-0.518 0.712-0.775 1.070-0.017 0.023-0.011 0.046-0.018 0.086 0.060-0.005 0.116-0.018 0.167-0.040l-0.004 0.001c0.087-0.062 0.162-0.132 0.228-0.211l0.002-0.002c0.193-0.248 0.376-0.495 0.558-0.746zM8.653 15.554l0.153-0.109-0.931-0.932c-0.020-0.020-0.043-0.017-0.079-0.031-0.002 0.015-0.003 0.033-0.003 0.052 0 0.041 0.005 0.080 0.014 0.118l-0.001-0.003c0.050 0.099 0.108 0.184 0.174 0.261l-0.001-0.002c0.215 0.228 0.433 0.449 0.65 0.668zM7.022 14.242l0.153-0.109-0.929-0.931c-0.020-0.021-0.043-0.018-0.081-0.032-0.001 0.014-0.002 0.030-0.002 0.046 0 0.043 0.005 0.086 0.013 0.127l-0.001-0.004c0.050 0.099 0.108 0.184 0.175 0.261l-0.001-0.001c0.214 0.228 0.431 0.448 0.65 0.668z"></path>
<path fill="none" stroke="#000" stroke-linejoin="round" stroke-linecap="round" stroke-miterlimit="4" stroke-width="0.5533" d="M7.37 14.646s1.75-0.481 1.834-1.376-0.718-1.253-1.154-1.027-0.68 2.403-0.68 2.403z"></path>
<path fill="none" stroke="#000" stroke-linejoin="round" stroke-linecap="round" stroke-miterlimit="4" stroke-width="0.5533" d="M7.526 14.427s-1.718 0.595-1.744 1.493 0.798 1.204 1.223 0.949 0.521-2.442 0.521-2.442z"></path>
<path fill="none" stroke="#000" stroke-linejoin="round" stroke-linecap="round" stroke-miterlimit="4" stroke-width="0.5533" d="M7.213 14.554s-0.038-1.814-0.883-2.118-1.391 0.388-1.278 0.862 2.161 1.256 2.161 1.256zM7.529 14.438s0.501 1.746 1.397 1.823 1.246-0.731 1.015-1.165-2.412-0.659-2.412-0.659z"></path>
<path d="M12.801 13.917l-0.131-0.139-0.773 1.070c-0.017 0.023-0.011 0.046-0.018 0.086 0.060-0.005 0.116-0.018 0.168-0.038l-0.004 0.001c0.086-0.063 0.161-0.133 0.228-0.211l0.002-0.002c0.191-0.248 0.374-0.497 0.556-0.747-0.008-0.007-0.016-0.014-0.025-0.020l-0.001-0zM11.913 15.248l-0.131-0.138c-0.26 0.359-0.517 0.712-0.775 1.070-0.017 0.023-0.011 0.046-0.018 0.086 0.061-0.005 0.117-0.018 0.169-0.038l-0.004 0.001c0.086-0.064 0.161-0.134 0.228-0.212l0.002-0.002c0.191-0.246 0.374-0.495 0.556-0.746-0.008-0.007-0.016-0.014-0.025-0.021l-0.001-0.001zM13.117 16.026c0.052-0.034 0.105-0.072 0.153-0.107l-0.931-0.94c-0.020-0.020-0.043-0.017-0.079-0.031-0.001 0.014-0.002 0.029-0.002 0.045 0 0.043 0.005 0.085 0.013 0.125l-0.001-0.004c0.051 0.099 0.108 0.185 0.174 0.263l-0.002-0.002q0.322 0.339 0.651 0.666zM11.488 14.715c0.050-0.035 0.104-0.073 0.153-0.109l-0.929-0.932c-0.020-0.021-0.043-0.018-0.081-0.032-0.001 0.014-0.002 0.030-0.002 0.046 0 0.043 0.005 0.086 0.013 0.127l-0.001-0.004c0.050 0.096 0.107 0.179 0.174 0.253l-0.001-0.001c0.214 0.228 0.431 0.448 0.65 0.668z"></path>
<path fill="none" stroke="#000" stroke-linejoin="round" stroke-linecap="round" stroke-miterlimit="4" stroke-width="0.5533" d="M11.835 15.118s1.75-0.481 1.834-1.376-0.718-1.253-1.154-1.026-0.68 2.401-0.68 2.401z"></path>
<path fill="none" stroke="#000" stroke-linejoin="round" stroke-linecap="round" stroke-miterlimit="4" stroke-width="0.5533" d="M11.991 14.899s-1.715 0.595-1.75 1.493 0.799 1.204 1.223 0.949 0.527-2.442 0.527-2.442z"></path>
<path fill="none" stroke="#000" stroke-linejoin="round" stroke-linecap="round" stroke-miterlimit="4" stroke-width="0.5533" d="M11.678 15.026s-0.038-1.814-0.883-2.118-1.391 0.388-1.278 0.867 2.161 1.252 2.161 1.252zM11.995 14.912s0.5 1.744 1.396 1.822 1.246-0.731 1.015-1.163-2.41-0.659-2.41-0.659z"></path>
<path d="M9.732 9.331l-0.167-0.043c-0.031 0.396-0.060 0.786-0.089 1.177 0 0.026 0.012 0.040 0.026 0.073 0.037-0.035 0.096-0.075 0.107-0.105 0.034-0.078 0.060-0.169 0.074-0.264l0.001-0.006c0.029-0.278 0.052-0.555 0.073-0.832zM9.681 10.768l-0.165-0.044c-0.029 0.396-0.058 0.787-0.089 1.178 0 0.026 0.014 0.040 0.026 0.073 0.038-0.035 0.096-0.076 0.109-0.105 0.030-0.076 0.053-0.165 0.066-0.258l0.001-0.006c0.029-0.28 0.052-0.556 0.072-0.833zM10.968 10.793l0.069-0.153-1.149-0.272c-0.024 0-0.041 0-0.076 0.014 0.025 0.047 0.054 0.088 0.087 0.124l-0-0c0.073 0.045 0.158 0.085 0.247 0.114l0.008 0.002c0.271 0.072 0.541 0.138 0.812 0.203 0-0.011 0.001-0.022 0.003-0.033l-0 0.001zM9.105 10.56c0.023-0.050 0.046-0.105 0.069-0.153l-1.149-0.272c-0.024 0-0.041 0-0.076 0.014 0.025 0.047 0.054 0.088 0.087 0.124l-0-0c0.073 0.045 0.158 0.085 0.247 0.114l0.008 0.002c0.271 0.072 0.541 0.138 0.812 0.202z"></path>
<path fill="none" stroke="#000" stroke-linejoin="round" stroke-linecap="round" stroke-miterlimit="4" stroke-width="0.4968" d="M9.561 10.699s1.108-1.192 0.754-1.917-1.143-0.614-1.363-0.235 0.61 2.152 0.61 2.152z"></path>
<path fill="none" stroke="#000" stroke-linejoin="round" stroke-linecap="round" stroke-miterlimit="4" stroke-width="0.4968" d="M9.576 10.464s-1.027 1.264-0.625 1.963 1.177 0.543 1.376 0.153-0.75-2.115-0.75-2.115z"></path>
<path fill="none" stroke="#000" stroke-linejoin="round" stroke-linecap="round" stroke-miterlimit="4" stroke-width="0.4968" d="M9.399 10.708s-0.885-1.366-1.681-1.2-0.877 0.952-0.567 1.264 2.248-0.064 2.248-0.064zM9.585 10.472s1.204 1.094 1.926 0.732 0.611-1.146 0.225-1.366-2.151 0.634-2.151 0.634z"></path>
<path d="M13.117 9.782l-0.153 0.081 0.738 0.917c0.015 0.021 0.037 0.020 0.069 0.037 0.006-0.032 0.009-0.069 0.009-0.106 0-0.016-0.001-0.033-0.002-0.049l0 0.002c-0.036-0.095-0.080-0.176-0.132-0.251l0.003 0.004c-0.17-0.225-0.341-0.443-0.514-0.66zM14.062 10.87l-0.153 0.081c0.248 0.306 0.492 0.611 0.738 0.917 0.015 0.020 0.035 0.020 0.069 0.037 0.004-0.023 0.006-0.049 0.006-0.076s-0.002-0.053-0.006-0.079l0 0.003c-0.036-0.095-0.080-0.177-0.132-0.253l0.002 0.004c-0.168-0.223-0.341-0.442-0.514-0.659zM15.017 10.013c-0.017-0.053-0.037-0.109-0.057-0.162l-1.027 0.584c-0.023 0.012-0.026 0.032-0.046 0.063 0.045 0.016 0.097 0.027 0.151 0.030l0.002 0c0.101-0.022 0.19-0.053 0.273-0.093l-0.007 0.003c0.248-0.131 0.491-0.266 0.732-0.403-0.014-0.006-0.018-0.012-0.021-0.021zM13.496 11.112l-0.057-0.162-1.027 0.584c-0.023 0.012-0.024 0.034-0.046 0.063 0.045 0.017 0.097 0.028 0.152 0.030l0.001 0c0.1-0.020 0.189-0.051 0.273-0.092l-0.007 0.003c0.249-0.131 0.491-0.267 0.732-0.405z"></path>
<path fill="none" stroke="#000" stroke-linejoin="round" stroke-linecap="round" stroke-miterlimit="4" stroke-width="0.4968" d="M13.927 10.907s0-1.628-0.755-1.917-1.255 0.324-1.162 0.754 1.917 1.163 1.917 1.163z"></path>
<path fill="none" stroke="#000" stroke-linejoin="round" stroke-linecap="round" stroke-miterlimit="4" stroke-width="0.4968" d="M13.775 10.721s0.109 1.625 0.88 1.863 1.23-0.407 1.11-0.83-1.99-1.033-1.99-1.033z"></path>
<path fill="none" stroke="#000" stroke-linejoin="round" stroke-linecap="round" stroke-miterlimit="4" stroke-width="0.4968" d="M13.811 11.022s-1.583-0.397-2.042 0.261 0 1.296 0.445 1.311 1.597-1.573 1.597-1.573zM13.787 10.719s1.628-0.018 1.908-0.775-0.338-1.252-0.764-1.154-1.143 1.929-1.143 1.929z"></path>
<path d="M10.117 5.35l-0.168 0.037 0.459 1.091c0.009 0.024 0.029 0.031 0.057 0.055 0.021-0.041 0.038-0.090 0.048-0.14l0.001-0.004c-0.008-0.101-0.028-0.195-0.057-0.283l0.002 0.008c-0.099-0.261-0.203-0.52-0.306-0.776zM10.718 6.656l-0.168 0.037c0.15 0.373 0.303 0.735 0.455 1.102 0.009 0.024 0.029 0.029 0.057 0.055 0.021-0.041 0.038-0.090 0.048-0.14l0.001-0.004c-0.008-0.101-0.028-0.195-0.057-0.283l0.002 0.008c-0.099-0.263-0.203-0.52-0.306-0.776zM11.878 6.102c0-0.055 0-0.115-0.009-0.171l-1.156 0.275c-0.024 0-0.034 0.024-0.061 0.046 0.038 0.028 0.082 0.052 0.129 0.070l0.004 0.001c0.027 0.002 0.058 0.003 0.089 0.003 0.067 0 0.133-0.006 0.198-0.017l-0.007 0.001c0.275-0.057 0.546-0.119 0.816-0.182-0-0.010-0.001-0.019-0.003-0.029l0 0.001zM10.109 6.725c0-0.055 0-0.115-0.009-0.171l-1.149 0.272c-0.024 0-0.034 0.024-0.061 0.047 0.038 0.028 0.082 0.052 0.129 0.069l0.004 0.001c0.029 0.003 0.063 0.004 0.098 0.004 0.064 0 0.127-0.005 0.188-0.016l-0.007 0.001c0.275-0.057 0.546-0.119 0.816-0.183-0.004-0.007-0.007-0.015-0.009-0.024l-0-0.001z"></path>
<path fill="none" stroke="#000" stroke-linejoin="round" stroke-linecap="round" stroke-miterlimit="4" stroke-width="0.4968" d="M10.582 6.655s0.459-1.564-0.188-2.051-1.296-0.041-1.327 0.399 1.515 1.652 1.515 1.652z"></path>
<path fill="none" stroke="#000" stroke-linejoin="round" stroke-linecap="round" stroke-miterlimit="4" stroke-width="0.4968" d="M10.487 6.433s-0.35 1.591 0.322 2.034c0.136 0.096 0.303 0.159 0.483 0.174l0.004 0c0.459 0.029 0.81-0.329 0.812-0.659 0.003-0.44-1.62-1.55-1.62-1.55z"></path>
<path fill="none" stroke="#000" stroke-linejoin="round" stroke-linecap="round" stroke-miterlimit="4" stroke-width="0.4968" d="M10.438 6.733s-1.405-0.824-2.031-0.313-0.358 1.246 0.061 1.385 1.97-1.071 1.97-1.071zM10.498 6.436s1.568 0.442 2.050-0.211 0.026-1.296-0.413-1.322-1.637 1.533-1.637 1.533z"></path>
<path d="M13.863 5.92l-0.125 0.076 0.677 0.764c0.015 0.017 0.034 0.015 0.061 0.027 0.003-0.020 0.005-0.042 0.005-0.065s-0.002-0.045-0.005-0.067l0 0.002c-0.035-0.079-0.076-0.148-0.124-0.21l0.002 0.002c-0.153-0.183-0.306-0.362-0.472-0.541zM14.724 6.806l-0.125 0.076 0.686 0.76c0.015 0.017 0.034 0.015 0.061 0.027 0.003-0.020 0.005-0.042 0.005-0.065s-0.002-0.045-0.005-0.067l0 0.002c-0.035-0.079-0.076-0.147-0.124-0.209l0.002 0.002c-0.153-0.185-0.306-0.364-0.472-0.543zM15.506 6.024c-0.017-0.044-0.037-0.090-0.055-0.136l-0.854 0.55c-0.018 0.011-0.021 0.029-0.037 0.055 0.038 0.012 0.082 0.020 0.128 0.020h0c0.083-0.025 0.156-0.056 0.223-0.096l-0.005 0.003c0.206-0.124 0.408-0.252 0.611-0.381-0.005-0.002-0.009-0.008-0.012-0.015zM14.253 7.040l-0.057-0.136-0.854 0.549c-0.018 0.012-0.020 0.031-0.037 0.057 0.038 0.011 0.083 0.018 0.128 0.018h0c0.085-0.022 0.159-0.052 0.228-0.091l-0.005 0.002c0.206-0.124 0.408-0.252 0.611-0.381-0.006-0.005-0.011-0.011-0.015-0.018l-0-0z"></path>
<path fill="none" stroke="#000" stroke-linejoin="round" stroke-linecap="round" stroke-miterlimit="4" stroke-width="0.428" d="M14.612 6.843s-0.078-1.397-0.738-1.609-1.070 0.338-0.961 0.702 1.7 0.908 1.7 0.908z"></path>
<path fill="none" stroke="#000" stroke-linejoin="round" stroke-linecap="round" stroke-miterlimit="4" stroke-width="0.428" d="M14.473 6.69s0.171 1.391 0.844 1.559 1.038-0.407 0.917-0.764-1.761-0.795-1.761-0.795z"></path>
<path fill="none" stroke="#000" stroke-linejoin="round" stroke-linecap="round" stroke-miterlimit="4" stroke-width="0.428" d="M14.52 6.947s-1.376-0.266-1.742 0.322 0.067 1.111 0.446 1.105 1.296-1.428 1.296-1.428zM14.482 6.689s1.397-0.093 1.602-0.755-0.348-1.059-0.712-0.955-0.89 1.71-0.89 1.71z"></path>
<path d="M13.796 0.29s-1.648-0.319-1.694 0.229 0.666 0.292 0.98 0.121 0.714-0.35 0.714-0.35zM13.096 1.736s-2.41-0.468-2.478 0.335 0.974 0.428 1.434 0.179 1.044-0.514 1.044-0.514zM12.896 3.022s-2.412-0.469-2.478 0.341 0.974 0.426 1.434 0.177 1.044-0.518 1.044-0.518zM13.658 1.295s2.027 1.388 1.501 1.999-0.987-0.39-1.133-0.896-0.368-1.104-0.368-1.104zM13.359 2.751s2.027 1.388 1.501 1.999-0.987-0.394-1.134-0.896-0.367-1.104-0.367-1.104zM13.83 0.306s1.070 0.812 0.773 1.133-0.532-0.24-0.599-0.521-0.174-0.611-0.174-0.611z"></path>
</svg>
