<!-- Generated by IcoMoon.io -->
<svg version="1.1" xmlns="http://www.w3.org/2000/svg" width="36" height="32" viewBox="0 0 36 32">
<title>honey2</title>
<path fill="#ff0" d="M18.127 31.815c-0.066 0-5.706-3.256-5.739-3.313s-0.033-6.569 0-6.627c0.033-0.057 5.672-3.313 5.739-3.313s5.706 3.256 5.739 3.313c0.033 0.057 0.033 6.569 0 6.627s-5.672 3.313-5.739 3.313z"></path>
<path fill="#ff0" d="M5.805 31.939c-0.066 0-5.706-3.256-5.739-3.313s-0.033-6.569 0-6.627c0.033-0.057 5.672-3.313 5.739-3.313s5.706 3.256 5.739 3.313c0.033 0.057 0.033 6.569 0 6.627s-5.672 3.313-5.739 3.313z"></path>
<path fill="#ff0" d="M30.109 31.956c-0.066 0-5.706-3.256-5.739-3.313s-0.033-6.569 0-6.627c0.033-0.057 5.672-3.313 5.739-3.313s5.706 3.256 5.739 3.313c0.033 0.057 0.033 6.569 0 6.627s-5.672 3.313-5.739 3.313z"></path>
<path fill="#ff0" d="M12.146 21.147c-0.066 0-5.706-3.256-5.739-3.313s-0.033-6.569 0-6.627c0.033-0.057 5.672-3.313 5.739-3.313s5.706 3.256 5.739 3.313c0.033 0.057 0.033 6.569 0 6.627s-5.672 3.313-5.739 3.313z"></path>
<path fill="#fff" d="M22.391 10.953c-0.353-2.399-3.558-11.43 2.304-10.846 5.383 0.812 0.926 8.792-2.304 10.846z"></path>
<path fill="#fff" d="M23.916 11.63c-0.562-3.898 3.522-11.871 8.155-8.037 4.311 3.834-2.931 9.43-8.155 8.037z"></path>
<path fill="#ff0" d="M29.455 14.829c0 2.813-2.28 5.093-5.093 5.093s-5.093-2.28-5.093-5.093 2.28-5.093 5.093-5.093 5.093 2.28 5.093 5.093z"></path>
<path fill="#ff0" d="M22.594 10.869c0 2.813-2.28 5.093-5.093 5.093s-5.093-2.28-5.093-5.093 2.28-5.093 5.093-5.093 5.093 2.28 5.093 5.093z"></path>
<path fill="#000" d="M20.443 18.108c3.018-1.793 4.655-4.107 4.876-8.296 0.788 0.11 1.872 0.576 2.826 1.582-0.489 3.351-2.066 6.518-4.889 8.402-0.903-0.126-2.141-0.944-2.813-1.688z"></path>
<path fill="#fff" d="M21.565 9.267c0 1.055-0.855 1.91-1.91 1.91s-1.91-0.855-1.91-1.91 0.855-1.91 1.91-1.91 1.91 0.855 1.91 1.91z"></path>
<path fill="#000" d="M20.909 9.219c0 0.804-0.572 1.456-1.278 1.456s-1.278-0.652-1.278-1.456 0.572-1.456 1.278-1.456 1.278 0.652 1.278 1.456z"></path>
<path fill="#fff" d="M20.283 8.481c0 0.264-0.214 0.479-0.479 0.479s-0.479-0.214-0.479-0.479 0.214-0.479 0.479-0.479 0.479 0.214 0.479 0.479z"></path>
<path fill="#fff" d="M17.106 9.267c0 1.055-0.855 1.91-1.91 1.91s-1.91-0.855-1.91-1.91 0.855-1.91 1.91-1.91 1.91 0.855 1.91 1.91z"></path>
<path fill="#000" d="M16.45 9.219c0 0.804-0.572 1.456-1.278 1.456s-1.278-0.652-1.278-1.456 0.572-1.456 1.278-1.456 1.278 0.652 1.278 1.456z"></path>
<path fill="#fff" d="M15.823 8.481c0 0.264-0.214 0.479-0.479 0.479s-0.479-0.214-0.479-0.479 0.214-0.479 0.479-0.479 0.479 0.214 0.479 0.479z"></path>
<path fill="none" stroke="#000" stroke-linejoin="round" stroke-linecap="round" stroke-miterlimit="4" stroke-width="0.3957" d="M17.206 5.673c-0.197-1.025-0.195-2.562-1.241-1.397M17.844 5.702c0.493-0.92 0.948-2.388 1.6-0.965"></path>
<path fill="#ff0" stroke="#000" stroke-linejoin="miter" stroke-linecap="round" stroke-miterlimit="4" stroke-width="1.4878" d="M16.241 4.503c0 0.261-0.212 0.473-0.473 0.473s-0.473-0.212-0.473-0.473 0.212-0.473 0.473-0.473 0.473 0.212 0.473 0.473z"></path>
<path fill="#ff0" stroke="#000" stroke-linejoin="miter" stroke-linecap="round" stroke-miterlimit="4" stroke-width="1.4878" d="M20.237 5.104c0 0.261-0.212 0.473-0.473 0.473s-0.473-0.212-0.473-0.473 0.212-0.473 0.473-0.473 0.473 0.212 0.473 0.473z"></path>
<path fill="#000" d="M28.456 17.946l2.302 0.648-1.646-1.823-0.656 1.175z"></path>
</svg>
