<!-- Generated by IcoMoon.io -->
<svg version="1.1" xmlns="http://www.w3.org/2000/svg" width="29" height="32" viewBox="0 0 29 32">
<title>honey</title>
<path fill="#eceff9" d="M2.693 30.179h15.484c0.422 0 0.704-0.282 0.704-0.704v-5.982c0-0.422-0.211-0.845-0.563-1.126l-1.127-0.845c-0.704-0.563-1.126-1.338-1.126-2.252v-1.759h-11.261v1.759c0 0.915-0.422 1.689-1.126 2.252l-1.126 0.845c-0.352 0.281-0.563 0.704-0.563 1.126v5.982c-0 0.422 0.281 0.704 0.704 0.704z"></path>
<path fill="#97b4d3" d="M18.318 22.367l-1.126-0.845c-0.704-0.563-1.127-1.338-1.127-2.252v-1.759h-11.261v0.704h5.982c0.563 0 1.056 0.493 1.056 1.056 0 0.915 0.422 1.689 1.126 2.252l1.126 0.845c0.352 0.281 0.563 0.704 0.563 1.126v5.982c0 0.422-0.281 0.704-0.704 0.704h4.223c0.423 0 0.704-0.282 0.704-0.704v-5.982c0-0.422-0.211-0.845-0.563-1.126z"></path>
<path fill="#f19a22" d="M10.435 13.288c0 0 0 0 0 0 0.389 0 0.703 0.315 0.703 0.703 0 0 0 0 0 0v-0c0 0 0 0 0 0 0 0.389-0.315 0.704-0.704 0.704-0 0-0 0-0 0v0c-0 0-0 0-0 0-0.389 0-0.704-0.315-0.704-0.704 0-0 0-0 0-0v0c0-0 0-0 0-0 0-0.389 0.315-0.704 0.704-0.704 0 0 0 0 0 0v0zM5.509 10.473c0 0 0 0 0 0 0.389 0 0.703 0.315 0.703 0.703 0 0 0 0 0 0v-0c0 0 0 0 0 0 0 0.389-0.315 0.704-0.704 0.704-0 0-0 0-0 0v0c-0 0-0 0-0 0-0.389 0-0.703-0.315-0.703-0.703 0-0 0-0 0-0v0c0-0 0-0 0-0 0-0.389 0.315-0.704 0.704-0.704 0 0 0 0 0 0v0z"></path>
<path fill="#f6b545" d="M10.083 10.473c0.211 0 0.352-0.141 0.352-0.352v-7.742c0-0.211-0.141-0.352-0.352-0.352s-0.352 0.141-0.352 0.352v7.742c-0 0.211 0.141 0.352 0.352 0.352zM12.195 9.065c0.211 0 0.352-0.141 0.352-0.352v-4.927c0-0.211-0.141-0.352-0.352-0.352s-0.352 0.141-0.352 0.352v4.927c0 0.211 0.141 0.352 0.352 0.352zM14.306 7.657c0.211 0 0.352-0.141 0.352-0.352v-2.111c0-0.211-0.141-0.352-0.352-0.352s-0.352 0.141-0.352 0.352v2.111c0 0.211 0.141 0.352 0.352 0.352zM5.86 7.657c0.211 0 0.352-0.141 0.352-0.352v-2.111c0-0.211-0.141-0.352-0.352-0.352s-0.352 0.141-0.352 0.352v2.111c0 0.211 0.141 0.352 0.352 0.352zM7.972 9.065c0.211 0 0.352-0.141 0.352-0.352v-4.927c0-0.211-0.141-0.352-0.352-0.352s-0.352 0.141-0.352 0.352v4.927c-0 0.211 0.141 0.352 0.352 0.352zM18.881 24.549h-16.892v4.927c0 0.422 0.281 0.704 0.704 0.704h15.484c0.422 0 0.704-0.282 0.704-0.704v-4.927z"></path>
<path fill="#f19a22" d="M7.62 15.399c-0.422 0-0.704-0.281-0.704-0.704v-4.927c0-0.422 0.282-0.704 0.704-0.704s0.704 0.281 0.704 0.704v4.927c0 0.422-0.281 0.704-0.704 0.704zM13.25 13.992c-0.422 0-0.704-0.281-0.704-0.704v-2.111c0-0.422 0.281-0.704 0.704-0.704s0.704 0.281 0.704 0.704v2.111c0 0.422-0.281 0.704-0.704 0.704zM9.028 18.918c0.389 0 0.704 0.315 0.704 0.704s-0.315 0.704-0.704 0.704c-0 0-0 0-0 0v0c-0.389-0-0.704-0.315-0.704-0.704s0.315-0.704 0.704-0.704c0 0 0 0 0 0v0zM5.509 28.068c-0.422 0-0.704-0.282-0.704-0.704v-2.815h1.408v2.815c0 0.422-0.282 0.704-0.704 0.704z"></path>
<path fill="#fff" d="M6.212 23.141h-1.408v-0.704c0-0.422 0.282-0.704 0.704-0.704s0.704 0.282 0.704 0.704v0.704z"></path>
<path fill="#d98b37" d="M20.992 6.954h5.631c0.422 0 0.704-0.282 0.704-0.704s-0.282-0.704-0.704-0.704h-5.631c-0.422 0-0.704 0.282-0.704 0.704s0.282 0.704 0.704 0.704z"></path>
<path fill="#014463" d="M26.623 4.138h-5.631c-0.915 0-1.689 0.563-1.97 1.408h-2.956v-0.352c0-0.985-0.774-1.76-1.76-1.76-0.141 0-0.281 0-0.352 0.071-0.211-0.845-0.915-1.478-1.759-1.478-0.141 0-0.281 0-0.352 0.071-0.211-0.845-0.915-1.478-1.759-1.478s-1.549 0.633-1.759 1.478c-0.070-0.071-0.211-0.071-0.352-0.071-0.845 0-1.548 0.633-1.76 1.478-0.071-0.071-0.211-0.071-0.352-0.071-0.985 0-1.759 0.774-1.759 1.76v2.111c0 0.985 0.774 1.76 1.759 1.76 0.141 0 0.282 0 0.352-0.070 0.141 0.845 0.845 1.478 1.76 1.478 0.141 0 0.281 0 0.352-0.070 0.141 0.845 0.845 1.478 1.759 1.478s1.549-0.633 1.76-1.478c0.141 0 0.281 0.070 0.352 0.070 0.845 0 1.549-0.633 1.759-1.478 0.141 0 0.281 0.070 0.352 0.070 0.986 0 1.76-0.774 1.76-1.76v-0.352h2.956c0.281 0.845 1.056 1.408 1.97 1.408h5.631c1.197 0 2.111-0.915 2.111-2.111s-0.915-2.111-2.111-2.111zM6.212 7.306c0 0.211-0.141 0.352-0.352 0.352s-0.352-0.141-0.352-0.352v-2.111c0-0.211 0.141-0.352 0.352-0.352s0.352 0.141 0.352 0.352v2.111zM8.324 8.713c0 0.211-0.141 0.352-0.352 0.352s-0.352-0.141-0.352-0.352v-4.927c0-0.211 0.141-0.352 0.352-0.352s0.352 0.141 0.352 0.352v4.927zM10.435 3.787v6.334c0 0.211-0.141 0.352-0.352 0.352s-0.352-0.141-0.352-0.352v-7.742c0-0.211 0.141-0.352 0.352-0.352s0.352 0.141 0.352 0.352v1.408zM12.547 5.194v3.519c0 0.211-0.141 0.352-0.352 0.352s-0.352-0.141-0.352-0.352v-4.927c0-0.211 0.141-0.352 0.352-0.352s0.352 0.141 0.352 0.352v1.408zM14.658 7.306c0 0.211-0.141 0.352-0.352 0.352s-0.352-0.141-0.352-0.352v-2.111c0-0.211 0.141-0.352 0.352-0.352s0.352 0.141 0.352 0.352v2.111zM26.623 6.954h-5.631c-0.422 0-0.704-0.282-0.704-0.704s0.282-0.704 0.704-0.704h5.631c0.422 0 0.704 0.282 0.704 0.704s-0.282 0.704-0.704 0.704z"></path>
<path fill="#f19a22" d="M9.731 5.546v4.575c0 0.211 0.141 0.352 0.352 0.352s0.352-0.141 0.352-0.352v-4.575h-0.704zM11.843 6.25v2.463c0 0.211 0.141 0.352 0.352 0.352s0.352-0.141 0.352-0.352v-2.463h-0.704zM7.62 6.25v2.463c0 0.211 0.141 0.352 0.352 0.352s0.352-0.141 0.352-0.352v-2.463h-0.704zM13.954 6.954v0.352c0 0.211 0.141 0.352 0.352 0.352s0.352-0.141 0.352-0.352v-0.352h-0.704zM5.509 6.954v0.352c0 0.211 0.141 0.352 0.352 0.352s0.352-0.141 0.352-0.352v-0.352h-0.704zM14.658 24.549v3.519c0 0.774-0.633 1.408-1.408 1.408h-11.261c0 0.422 0.281 0.704 0.704 0.704h15.484c0.422 0 0.704-0.282 0.704-0.704v-4.927h-4.223z"></path>
<path fill="#c87729" d="M20.992 6.954h5.631c0.422 0 0.704-0.282 0.704-0.704h-7.038c0 0.422 0.282 0.704 0.704 0.704z"></path>
<path fill="#014463" d="M20.288 23.493v5.982c0 1.197-0.915 2.112-2.111 2.112h-15.484c-1.196 0-2.111-0.915-2.111-2.112v-5.982c0-0.914 0.422-1.69 1.126-2.252l1.126-0.844c0.352-0.281 0.563-0.704 0.563-1.126v-1.759c-0.422 0-0.704-0.282-0.704-0.704s0.282-0.704 0.704-0.704h14.076c0.422 0 0.704 0.282 0.704 0.704s-0.282 0.704-0.704 0.704v1.759c0 0.422 0.212 0.845 0.564 1.126l1.126 0.844c0.704 0.563 1.125 1.338 1.125 2.252zM18.881 29.475v-4.926l-0.070-1.408c-0.071-0.282-0.212-0.562-0.492-0.774l-1.127-0.844c-0.704-0.563-1.125-1.338-1.125-2.252v-1.759h-11.261v1.759c0 0.915-0.423 1.69-1.126 2.252l-1.126 0.844c-0.282 0.212-0.422 0.492-0.492 0.774l-0.071 1.408v4.926c0 0.422 0.282 0.704 0.704 0.704h15.484c0.422 0 0.704-0.282 0.704-0.704z"></path>
<path fill="#014463" d="M13.954 17.511v2.111c0 0.422-0.281 0.704-0.704 0.704-0.422 0-0.703-0.282-0.703-0.704v-2.111h1.407zM7.759 23.141h2.529l0.001-0.011c0.046 0.007 0.095 0.011 0.146 0.011h8.376l0.070 1.408h-16.892l0.071-1.408h5.56c0.047 0 0.094-0.004 0.138-0.010l0.001 0.010z"></path>
<path fill="#014463" d="M7.758 23.131c0.345-0.056 0.566-0.32 0.566-0.694v-0.704c0-0.421 0.281-0.703 0.704-0.703 0.422 0 0.703 0.282 0.703 0.703v0.704c0 0.372 0.219 0.635 0.558 0.693l-0.001 0.011h-2.529l-0.001-0.010z"></path>
</svg>
