<!-- Generated by IcoMoon.io -->
<svg version="1.1" xmlns="http://www.w3.org/2000/svg" width="25" height="32" viewBox="0 0 25 32">
<title>honey4</title>
<path fill="#000" d="M4.596 7.321c-3.708 0.277-1.956 2.946-1.791 3.014 0.579 5.020 1.048 10.077 2.097 14.94-0.381 1.011-0.117 2.052 1.311 3.145 4.151 0.882 9.612 0.695 13.105-0.038 0.641-0.66 1.654-1.668 1.179-3.063 1.12-4.648 1.575-9.813 1.966-15.028 1.27-1.269 0.411-2.832-1.704-3.058-0.053-0.337 0.051-1.157-0.071-1.152l0.661-0.027 0.016-0.65c-5.641-0.814-11.529-0.599-17.343-0.022l-0.005 0.694 0.533 0.045c0.080 0.007 0.066 0.795 0.046 1.2z"></path>
<path fill="#000" opacity="0.777" d="M4.273 5.346l0.031 0.602 0.34 0.062 0.031 1.328c-1.428 0.467-1.423 2.112-0.942 2.95 0.069 5.125 1.043 10.022 1.714 14.997 0.101 1.2 0.19 2.044 0.819 3.027l0.958 0.139c-0.524-0.886-0.573-1.939-0.757-2.935-0.594-5.141-1.491-10.244-1.483-15.461-0.197-0.411-0.864-2.378 0.958-2.935l0.015-1.174s-0.324-0.062-0.34-0.185c-0.016-0.124-0.031-0.54-0.031-0.54z"></path>
<path fill="#000" opacity="0.563" d="M16.645 4.959v0.695h-0.664l0.015 1.251 1.282 0.062c1.622 1.236 1.196 2.086 0.679 2.919-0.159 5.387-0.656 10.498-1.035 15.738 0.382 1.479-0.216 2.363-0.973 3.151l1.56-0.124c1.23-0.761 1.219-1.909 1.158-3.073 0.491-5.171 1.239-10.052 1.436-15.553 0.331-0.636 1.133-1.834-0.803-2.904l-1.004-0.062v-1.39l0.602-0.015-0.015-0.525z"></path>
<path fill="#000" d="M2.914 5.61l-0.044-2.752c2.396-1.807 17.456-1.853 19.702 0.044l-0.022 2.687c-6.404-0.843-12.941-0.882-19.637 0.022z"></path>
<path fill="#fff" d="M8.655 15.799c1.039 0 0.286-2.949 4.001-2.949s3.242 2.949 4.001 2.949c0.759 0 0.893 0.646 0.893 0.893v2.963c-0.95 1.965-9.407 1.704-9.787 0v-2.963c0-0.247-0.146-0.893 0.893-0.893z"></path>
<path fill="#f9a311" d="M12.655 13.44c-1.643 0-2.341 0.676-2.706 1.339-0.182 0.331-0.288 0.656-0.399 0.886-0.055 0.115-0.112 0.203-0.172 0.258s-0.115 0.082-0.202 0.082c-0.474 0-0.721 0.162-0.822 0.369s-0.061 0.428-0.061 0.514v2.588l0.002 0.013c0.051 0.226 0.228 0.41 0.476 0.563s0.571 0.278 0.952 0.381c0.762 0.206 1.745 0.318 2.744 0.333s2.013-0.070 2.836-0.269c0.823-0.199 1.468-0.502 1.702-0.985l0.010-0.023v-2.601c0-0.127-0.031-0.335-0.159-0.527s-0.364-0.356-0.724-0.356c-0.048 0-0.077-0.017-0.123-0.072s-0.095-0.147-0.146-0.264c-0.102-0.234-0.216-0.564-0.415-0.896-0.397-0.664-1.152-1.334-2.795-1.334zM12.655 13.655c1.587 0 2.241 0.61 2.611 1.229 0.185 0.309 0.294 0.623 0.402 0.87 0.054 0.123 0.106 0.23 0.177 0.315s0.172 0.148 0.289 0.148c0.3 0 0.453 0.119 0.548 0.261s0.123 0.321 0.123 0.41v2.542c-0.186 0.364-0.763 0.67-1.551 0.86-0.798 0.193-1.798 0.278-2.782 0.264s-1.954-0.128-2.69-0.328c-0.368-0.1-0.678-0.222-0.898-0.358-0.218-0.135-0.342-0.28-0.376-0.422v-2.557c0-0.128-0.021-0.294 0.041-0.422s0.2-0.248 0.63-0.248c0.138 0 0.26-0.053 0.351-0.138s0.154-0.197 0.215-0.322c0.121-0.251 0.224-0.566 0.394-0.875 0.341-0.619 0.932-1.226 2.519-1.226z"></path>
<path fill="#000" opacity="0.777" d="M12.054 16.236s-0.088 0.121-0.216 0.121c-0.015 0.008-0.031 0.015-0.048 0.013-0.015-0.002-0.015-0.017-0.002-0.023-0.014 0.002-0.041-0.004-0.025-0.037 0.011-0.025 0.076 0.013 0.076 0.013s0.068 0.021 0.196-0.105"></path>
<path fill="#f6f6f6" opacity="0.777" d="M12.498 15.416s-0.742-1.469-0.136-1.393c0.606 0.076 0.161 0.666 0.358 1.287z"></path>
<path fill="#000" opacity="0.777" d="M12.489 15.422l-0.014-0.033c-0.009-0.021-0.023-0.052-0.041-0.090-0.036-0.077-0.086-0.188-0.141-0.325-0.027-0.069-0.056-0.143-0.083-0.224s-0.053-0.168-0.073-0.261c-0.010-0.046-0.018-0.094-0.023-0.144s-0.007-0.101 0.001-0.152c0.004-0.026 0.010-0.051 0.020-0.075s0.025-0.046 0.042-0.063l0-0c0.018-0.017 0.038-0.030 0.059-0.037 0.019-0.007 0.041-0.011 0.064-0.013l0.001-0c0.011-0.001 0.021-0 0.032-0 0.011 0.001 0.021 0.002 0.032 0.003 0.021 0.004 0.041 0.006 0.062 0.011 0.042 0.009 0.082 0.023 0.121 0.044s0.074 0.052 0.1 0.092c0.027 0.040 0.041 0.089 0.047 0.137s0.007 0.096 0.005 0.142c-0.002 0.046-0.006 0.091-0.010 0.134-0.008 0.087-0.018 0.168-0.022 0.244s-0.005 0.146-0.001 0.207c0.004 0.062 0.010 0.115 0.018 0.158s0.018 0.076 0.027 0.097c0.009 0.021 0.015 0.032 0.015 0.032l-0.018 0.009s-0.001-0.013-0.005-0.037l-0.008-0.043c-0.003-0.017-0.008-0.036-0.011-0.058-0.009-0.043-0.015-0.096-0.020-0.158s-0.004-0.132-0.001-0.208c0.003-0.076 0.010-0.158 0.016-0.245 0.003-0.043 0.006-0.088 0.006-0.133s-0.001-0.092-0.009-0.137c-0.007-0.045-0.022-0.089-0.046-0.125s-0.057-0.063-0.093-0.082c-0.033-0.017-0.072-0.030-0.112-0.039l-0.003-0.001c-0.010-0.003-0.020-0.004-0.030-0.005l-0.031-0.005c-0.009-0.001-0.020-0.002-0.030-0.003-0.010 0-0.020-0.001-0.030 0-0.021 0.001-0.041 0.005-0.060 0.012l0.002-0.001c-0.018 0.007-0.036 0.017-0.050 0.032-0.030 0.028-0.047 0.073-0.054 0.12s-0.007 0.096-0.003 0.143c0.004 0.048 0.012 0.095 0.021 0.14 0.018 0.091 0.043 0.178 0.069 0.259 0.031 0.099 0.058 0.173 0.087 0.245l-0.007-0.021c0.054 0.14 0.1 0.246 0.149 0.351l-0.011-0.025c0.036 0.077 0.061 0.117 0.061 0.117l-0.017 0.013z"></path>
<path fill="#000" opacity="0.777" d="M12.494 15.265s-0.013-0.020-0.028-0.051c-0.007-0.015-0.015-0.033-0.022-0.052l-0.001-0.004c-0.008-0.021-0.016-0.043-0.022-0.067-0.004-0.011-0.006-0.023-0.009-0.035s-0.005-0.023-0.007-0.034c-0.002-0.011-0.004-0.022-0.005-0.032s-0.003-0.020-0.004-0.029-0.003-0.033-0.004-0.044l-0.001-0.017 0.001 0.017c0.001 0.011 0.002 0.026 0.005 0.044 0.001 0.009 0.002 0.019 0.005 0.029s0.004 0.021 0.006 0.032c0.003 0.011 0.005 0.022 0.008 0.034s0.006 0.023 0.010 0.034 0.015 0.045 0.024 0.065c0.009 0.022 0.017 0.039 0.026 0.056l-0.001-0.003c0.016 0.031 0.028 0.049 0.028 0.049l-0.009 0.009zM12.542 15.239s-0.006-0.020-0.010-0.052c-0.002-0.016-0.004-0.034-0.004-0.054s0-0.041 0.001-0.061l0.003-0.031 0.004-0.030c0.004-0.019 0.007-0.037 0.011-0.052s0.007-0.027 0.010-0.036l0.004-0.013-0.004 0.014c-0.002 0.009-0.006 0.021-0.009 0.036s-0.006 0.033-0.009 0.052l-0.003 0.030-0.002 0.031c-0.001 0.021-0.001 0.041 0.001 0.060s0.003 0.037 0.006 0.052c0.002 0.015 0.005 0.027 0.008 0.036l0.003 0.009 0.001 0.003-0.011 0.005zM13.893 15.931s0.18 0.019 0.228-0.009c0.009 0.020-0.099 0.112-0.223 0.096z"></path>
<path fill="#000" opacity="0.777" d="M13.929 15.94c0-0.102-0.026-0.199-0.073-0.289-0.001 0.232-0.018 0.458-0.049 0.678l0.003-0.025c0.076-0.109 0.12-0.233 0.12-0.365z"></path>
<path fill="#000" opacity="0.777" d="M13.502 15.305c0.023 0.311 0.012 0.634-0.034 0.954-0.021 0.148-0.045 0.271-0.073 0.392l0.005-0.026c0.174-0.076 0.316-0.187 0.409-0.32 0.028-0.196 0.045-0.422 0.046-0.652v-0.002c-0.073-0.139-0.196-0.258-0.354-0.346z"></path>
<path fill="#000" opacity="0.777" d="M13.502 15.305c-0.106-0.059-0.227-0.103-0.358-0.13 0.039 0.325 0.035 0.669-0.014 1.011-0.030 0.206-0.070 0.387-0.122 0.561l0.006-0.023c0.139-0.015 0.269-0.049 0.385-0.1 0.023-0.095 0.047-0.218 0.065-0.343l0.003-0.023c0.046-0.32 0.056-0.643 0.034-0.954z"></path>
<path fill="#000" opacity="0.777" d="M12.793 15.15c0.046 0.304 0.046 0.635-0.001 0.965-0.030 0.21-0.078 0.413-0.142 0.602 0.069 0.011 0.141 0.016 0.215 0.016 0.051 0 0.1-0.003 0.149-0.008 0.046-0.151 0.086-0.332 0.113-0.518l0.002-0.020c0.049-0.342 0.053-0.687 0.014-1.011-0.083-0.018-0.179-0.028-0.277-0.028-0 0-0.001 0-0.001 0h0c-0.024 0-0.048 0.001-0.072 0.002z"></path>
<path fill="#000" opacity="0.777" d="M12.793 15.15c-0.108 0.005-0.212 0.023-0.309 0.051 0.042 0.265 0.043 0.556 0.001 0.848-0.030 0.209-0.079 0.405-0.144 0.581 0.095 0.040 0.198 0.070 0.308 0.087 0.064-0.189 0.112-0.391 0.142-0.602 0.047-0.329 0.046-0.66 0.001-0.965z"></path>
<path fill="#000" opacity="0.777" d="M12.194 15.987c-0.025 0.175-0.066 0.338-0.118 0.484 0.076 0.063 0.166 0.117 0.267 0.159 0.064-0.176 0.114-0.371 0.144-0.581 0.042-0.292 0.041-0.584-0.001-0.848-0.103 0.030-0.198 0.071-0.283 0.121 0.027 0.203 0.026 0.43-0.007 0.665z"></path>
<path fill="#000" opacity="0.777" d="M12.201 15.322c-0.243 0.145-0.399 0.368-0.399 0.618 0 0.204 0.103 0.39 0.273 0.53 0.053-0.146 0.094-0.309 0.118-0.484 0.034-0.235 0.034-0.462 0.007-0.665z"></path>
<path fill="#f6f6f6" opacity="0.0777" d="M13.942 15.876c-0.012-0.035-0.028-0.068-0.047-0.101-0.080-0.139-0.216-0.258-0.389-0.346-0.116-0.059-0.249-0.103-0.393-0.13-0.092-0.018-0.197-0.028-0.305-0.028-0.028 0-0.057 0.001-0.085 0.002l0.004-0c-0.119 0.006-0.233 0.023-0.34 0.051-0.113 0.029-0.218 0.071-0.311 0.121-0.016 0.009-0.032 0.018-0.048 0.027 0.055-0.055 0.119-0.105 0.191-0.147 0.085-0.051 0.18-0.092 0.283-0.121 0.097-0.028 0.201-0.045 0.309-0.051 0.022-0.001 0.047-0.002 0.073-0.002 0.098 0 0.194 0.010 0.287 0.029l-0.010-0.002c0.131 0.026 0.252 0.071 0.358 0.13 0.158 0.088 0.281 0.207 0.354 0.346 0.037 0.069 0.060 0.144 0.069 0.221z"></path>
<path fill="#000" opacity="0.777" d="M12.279 15.537c0 0.389-0.301 0.704-0.672 0.704s-0.672-0.315-0.672-0.704c0-0.389 0.301-0.704 0.672-0.704s0.672 0.315 0.672 0.704z"></path>
<path fill="#000" opacity="0.777" d="M10.941 15.537l0.002 0.054c-0 0.018 0.004 0.039 0.007 0.064s0.011 0.053 0.018 0.084c0.004 0.016 0.010 0.031 0.016 0.048 0.003 0.008 0.006 0.017 0.009 0.025l0.012 0.025c0.008 0.017 0.016 0.035 0.027 0.052l0.016 0.026 0.008 0.013 0.009 0.013c0.048 0.069 0.113 0.136 0.194 0.187s0.177 0.087 0.28 0.097c0.013 0.001 0.026 0.001 0.039 0.002s0.027 0.002 0.039 0.001l0.041-0.003c0.007-0.001 0.014-0.001 0.020-0.002l0.020-0.004 0.040-0.007c0.013-0.003 0.027-0.007 0.040-0.011 0.027-0.006 0.053-0.019 0.080-0.029 0.105-0.048 0.206-0.127 0.281-0.238 0.010-0.013 0.018-0.028 0.026-0.043s0.017-0.029 0.024-0.045c0.007-0.016 0.014-0.031 0.021-0.047l0.017-0.050c0.003-0.008 0.005-0.017 0.007-0.025l0.006-0.026c0.002-0.009 0.004-0.017 0.006-0.026l0.004-0.027c0.002-0.018 0.006-0.035 0.006-0.053l0.002-0.053c-0.001-0.077-0.012-0.144-0.033-0.212l-0.017-0.049c-0.007-0.016-0.014-0.031-0.021-0.047s-0.016-0.030-0.024-0.045c-0.008-0.015-0.017-0.029-0.027-0.042-0.074-0.11-0.175-0.188-0.28-0.235-0.078-0.035-0.167-0.055-0.261-0.055-0.021 0-0.041 0.001-0.061 0.003l0.003-0c-0.102 0.010-0.198 0.045-0.278 0.096s-0.146 0.116-0.193 0.185c-0.048 0.069-0.077 0.14-0.096 0.2-0.007 0.031-0.016 0.058-0.019 0.083s-0.008 0.046-0.008 0.063l-0.003 0.053v-0zM10.932 15.537l0.002-0.054c-0-0.018 0.004-0.039 0.007-0.065s0.011-0.054 0.018-0.086c0.018-0.062 0.047-0.136 0.095-0.209s0.113-0.142 0.195-0.197c0.082-0.055 0.179-0.094 0.287-0.108 0.105-0.013 0.222 0.001 0.333 0.046 0.111 0.048 0.218 0.129 0.299 0.247 0.040 0.059 0.075 0.124 0.096 0.198 0.022 0.072 0.034 0.154 0.034 0.227l-0.003 0.060c-0 0.020-0.005 0.039-0.007 0.058l-0.004 0.029c-0.002 0.009-0.004 0.019-0.007 0.028l-0.007 0.028c-0.002 0.009-0.004 0.019-0.008 0.027-0.022 0.073-0.057 0.138-0.097 0.196-0.081 0.116-0.188 0.196-0.298 0.243-0.028 0.010-0.055 0.022-0.084 0.028-0.014 0.003-0.028 0.007-0.042 0.010s-0.028 0.004-0.042 0.006l-0.021 0.003c-0.007 0.001-0.014 0.001-0.021 0.001l-0.041 0.002c-0.014 0.001-0.027-0.001-0.041-0.002s-0.027-0.002-0.040-0.003c-0.106-0.014-0.204-0.053-0.285-0.107s-0.147-0.124-0.194-0.195c-0.047-0.072-0.076-0.145-0.095-0.207-0.007-0.032-0.016-0.059-0.019-0.085s-0.008-0.047-0.008-0.064l-0.003-0.054z"></path>
<path fill="#fff" opacity="0.777" d="M11.297 15.256c-0.025 0.175-0.134 0.298-0.244 0.275s-0.179-0.185-0.154-0.36c0.025-0.175 0.134-0.298 0.244-0.275s0.179 0.185 0.154 0.36z"></path>
<path fill="#000" opacity="0.777" d="M11.301 15.257l-0.003 0.020c-0.001 0.006-0.002 0.014-0.005 0.024s-0.005 0.020-0.008 0.032c-0.007 0.024-0.018 0.051-0.033 0.080s-0.037 0.059-0.066 0.083l-0.011 0.009-0.012 0.008c-0.008 0.006-0.017 0.009-0.025 0.014-0.018 0.007-0.037 0.013-0.058 0.012-0.005 0-0.010-0-0.015-0.001s-0.010-0.001-0.015-0.003l-0.015-0.004c-0.005-0.002-0.010-0.005-0.015-0.007-0.020-0.010-0.038-0.024-0.054-0.043-0.032-0.037-0.054-0.088-0.065-0.142s-0.012-0.112-0.005-0.168c0.008-0.055 0.025-0.11 0.051-0.156s0.060-0.085 0.1-0.107c0.040-0.022 0.086-0.024 0.124-0.007 0.020 0.008 0.036 0.021 0.051 0.035 0.007 0.008 0.014 0.015 0.020 0.024l0.009 0.012 0.008 0.013c0.020 0.035 0.032 0.072 0.039 0.106s0.009 0.064 0.009 0.089c0.001 0.012-0 0.024-0.001 0.033s-0.001 0.018-0.002 0.024l-0.002 0.020-0 0zM11.293 15.255l0.002-0.020c0.001-0.006 0.002-0.014 0.002-0.024s0.001-0.020 0.001-0.032c0-0.024-0.003-0.054-0.009-0.086s-0.018-0.069-0.038-0.102c-0.002-0.004-0.005-0.008-0.007-0.013s-0.006-0.008-0.009-0.012-0.013-0.015-0.019-0.023c-0.014-0.013-0.030-0.027-0.048-0.033-0.036-0.016-0.079-0.014-0.118 0.007s-0.072 0.058-0.097 0.103c-0.025 0.045-0.041 0.098-0.050 0.152-0.007 0.055-0.007 0.111 0.005 0.164s0.032 0.102 0.063 0.137c0.015 0.018 0.033 0.032 0.051 0.041 0.005 0.002 0.009 0.005 0.014 0.006l0.015 0.004c0.004 0.002 0.010 0.002 0.014 0.002s0.010 0.001 0.014 0.001c0.019 0.001 0.038-0.005 0.055-0.011 0.008-0.004 0.017-0.008 0.024-0.013l0.011-0.008 0.011-0.009c0.028-0.024 0.048-0.053 0.064-0.081s0.026-0.055 0.032-0.078c0.004-0.011 0.006-0.022 0.008-0.031s0.004-0.017 0.005-0.023l0.003-0.020-0 0z"></path>
<path fill="#000" opacity="0.777" d="M11.177 15.112s-0.010-0.053-0.020-0.132c-0.010-0.080-0.019-0.187-0.016-0.294 0.001-0.027 0.002-0.054 0.005-0.080s0.006-0.052 0.011-0.077c0.005-0.025 0.011-0.048 0.018-0.069 0.004-0.011 0.008-0.021 0.012-0.031s0.009-0.019 0.014-0.027c0.009-0.016 0.019-0.029 0.030-0.041l0-0 0.015-0.014 0.014-0.010c0.004-0.003 0.008-0.006 0.011-0.007l0.009-0.004 0.007-0.004 0.001 0.003-0.007 0.004-0.008 0.005c-0.003 0.002-0.007 0.004-0.011 0.007l-0.013 0.010-0.014 0.015c-0.010 0.012-0.020 0.026-0.027 0.041l-0 0.001c-0.005 0.008-0.008 0.018-0.012 0.027-0.002 0.006-0.006 0.016-0.009 0.026l-0.001 0.005c-0.006 0.021-0.012 0.044-0.016 0.069s-0.007 0.050-0.009 0.075c-0.002 0.026-0.003 0.052-0.003 0.079-0 0.106 0.012 0.211 0.023 0.29 0.006 0.039 0.012 0.071 0.016 0.094s0.007 0.035 0.007 0.035l-0.024 0.007zM11.226 15.085s0.002-0.018 0.008-0.047c0.005-0.030 0.014-0.072 0.026-0.122s0.027-0.108 0.047-0.168c0.010-0.030 0.021-0.061 0.033-0.092s0.025-0.062 0.039-0.092c0.015-0.030 0.030-0.059 0.046-0.087 0.009-0.015 0.017-0.028 0.026-0.041l-0.001 0.001c0.009-0.013 0.018-0.025 0.027-0.037 0.018-0.024 0.038-0.045 0.057-0.063 0.010-0.009 0.020-0.017 0.029-0.025s0.020-0.014 0.029-0.021 0.037-0.022 0.054-0.028l0.012-0.005 0.011-0.003 0.020-0.006c0.012-0.003 0.022-0.004 0.029-0.005l0.010-0.002 0.001 0.009-0.010 0.002c-0.006 0.001-0.016 0.002-0.028 0.005l-0.020 0.006-0.011 0.004-0.012 0.005c-0.016 0.006-0.033 0.017-0.052 0.028-0.009 0.007-0.018 0.013-0.028 0.021s-0.019 0.016-0.028 0.025-0.037 0.039-0.055 0.063c-0.009 0.012-0.018 0.024-0.026 0.037-0.008 0.012-0.016 0.025-0.023 0.038l-0.001 0.002c-0.016 0.027-0.030 0.057-0.044 0.086s-0.026 0.061-0.037 0.091c-0.012 0.031-0.022 0.062-0.031 0.091-0.019 0.060-0.033 0.118-0.044 0.167-0.007 0.027-0.015 0.068-0.022 0.109l-0.002 0.012c-0.002 0.008-0.004 0.024-0.006 0.040l-0.001 0.006-0.025-0.005z"></path>
<path fill="#000" opacity="0.777" d="M11.151 15.275c0 0.087-0.039 0.157-0.086 0.157s-0.086-0.070-0.086-0.157c0-0.087 0.039-0.157 0.086-0.157s0.086 0.070 0.086 0.157z"></path>
<path fill="#000" opacity="0.777" d="M11.094 15.748s0.006 0.007 0.018 0.018c0.015 0.014 0.033 0.027 0.051 0.039l0.002 0.001c0.023 0.014 0.052 0.027 0.083 0.033 0.016 0.003 0.032 0.004 0.049 0.004s0.033-0.004 0.050-0.009c0.016-0.005 0.032-0.012 0.047-0.020 0.008-0.004 0.015-0.008 0.022-0.014s0.014-0.010 0.021-0.015 0.025-0.023 0.037-0.034c0.011-0.012 0.021-0.023 0.030-0.035s0.017-0.022 0.024-0.031l0.020-0.023c0.011-0.013 0.019-0.019 0.019-0.019l0-0c0.001-0.001 0.002-0.001 0.002-0.001 0.003 0 0.005 0.003 0.005 0.006 0 0.001-0 0.001-0 0.002v-0s-0.003 0.011-0.011 0.028c-0.005 0.011-0.010 0.020-0.016 0.029l0-0-0.011 0.016c-0.004 0.006-0.009 0.011-0.014 0.017-0.009 0.012-0.021 0.024-0.032 0.036s-0.025 0.024-0.040 0.036c-0.007 0.006-0.015 0.011-0.022 0.016s-0.016 0.010-0.024 0.014-0.034 0.016-0.052 0.021c-0.018 0.004-0.036 0.007-0.055 0.007s-0.036-0.002-0.053-0.007c-0.034-0.008-0.063-0.024-0.087-0.040-0.020-0.014-0.037-0.029-0.054-0.046l0 0c-0.012-0.013-0.018-0.021-0.018-0.021l-0-0c-0.001-0.001-0.001-0.002-0.001-0.004 0-0.003 0.002-0.005 0.004-0.005 0.001 0 0.002 0.001 0.003 0.002v0z"></path>
<path fill="#000" opacity="0.777" d="M11.51 15.614s0.008-0.001 0.020 0.001c0.006 0.001 0.012 0.004 0.019 0.007s0.014 0.008 0.020 0.014c0.007 0.006 0.012 0.013 0.017 0.021l0 0c0.005 0.008 0.008 0.017 0.009 0.025s0.002 0.015 0.001 0.020c-0 0.003-0.001 0.005-0.001 0.007l0-0c-0.001 0.002-0.003 0.004-0.005 0.004s-0.002-0.001-0.003-0.002v0l-0.001-0.001s-0.002-0.002-0.004-0.005c-0.001-0.001-0.002-0.003-0.004-0.005s-0.003-0.004-0.005-0.006c-0.002-0.002-0.004-0.004-0.005-0.006s-0.004-0.004-0.006-0.007v0c-0.004-0.004-0.009-0.009-0.014-0.014l-0.028-0.029c-0.008-0.008-0.013-0.015-0.013-0.015l-0-0c-0.001-0.001-0.001-0.002-0.001-0.004 0-0.003 0.002-0.006 0.004-0.006h0z"></path>
<path fill="#f6f6f6" opacity="0.777" d="M12.574 15.358s0.62-1.934 1.404-1.37c0.784 0.564-1.127 1.405-1.225 1.417z"></path>
<path fill="#000" opacity="0.777" d="M12.574 15.357s0.006-0.018 0.017-0.053c0.023-0.072 0.040-0.12 0.058-0.168l-0.007 0.021c0.038-0.104 0.067-0.177 0.098-0.249l-0.010 0.026c0.036-0.085 0.079-0.18 0.13-0.28s0.11-0.206 0.18-0.311c0.070-0.105 0.151-0.209 0.249-0.299 0.046-0.043 0.099-0.082 0.154-0.114l0.005-0.003c0.058-0.032 0.12-0.055 0.185-0.063 0.032-0.005 0.065-0.004 0.098-0.002 0.033 0.004 0.065 0.009 0.097 0.020 0.064 0.020 0.124 0.056 0.179 0.098s0.108 0.095 0.144 0.167c0.018 0.036 0.030 0.076 0.033 0.119s-0.002 0.084-0.013 0.123c-0.011 0.039-0.027 0.074-0.045 0.107s-0.039 0.063-0.060 0.091c-0.043 0.056-0.090 0.106-0.138 0.15-0.097 0.089-0.197 0.162-0.294 0.227s-0.191 0.12-0.278 0.168c-0.088 0.049-0.169 0.089-0.242 0.124-0.028 0.015-0.090 0.044-0.154 0.072l-0.036 0.014c-0.024 0.012-0.066 0.028-0.107 0.043l-0.017 0.005c-0.014 0.005-0.026 0.008-0.033 0.010s-0.012 0.002-0.012 0.002-0-0-0-0c0-0 0-0 0-0s0.004-0.001 0.011-0.003c0.008-0.002 0.019-0.006 0.033-0.012 0.028-0.011 0.070-0.029 0.122-0.054 0.097-0.044 0.159-0.075 0.22-0.108l-0.033 0.016c0.072-0.037 0.152-0.081 0.238-0.131s0.179-0.107 0.274-0.173c0.095-0.066 0.193-0.141 0.287-0.23 0.047-0.044 0.093-0.093 0.134-0.147s0.077-0.115 0.097-0.184c0.010-0.034 0.014-0.070 0.011-0.106s-0.013-0.070-0.028-0.1-0.036-0.059-0.058-0.084c-0.012-0.012-0.023-0.025-0.036-0.035s-0.025-0.022-0.039-0.032c-0.105-0.081-0.23-0.127-0.351-0.11-0.061 0.007-0.119 0.029-0.174 0.058-0.059 0.033-0.109 0.070-0.156 0.113l0.002-0.002c-0.095 0.086-0.175 0.188-0.246 0.289s-0.131 0.205-0.183 0.303c-0.052 0.098-0.097 0.191-0.135 0.274-0.023 0.047-0.054 0.118-0.084 0.191l-0.010 0.027c-0.049 0.123-0.074 0.195-0.074 0.195s-0 0.001-0.001 0.001-0.001-0-0.001-0.001c0-0 0-0 0-0v0z"></path>
<path fill="#f6f6f6" opacity="0.777" d="M12.634 15.357s0.187-0.176 0.413-0.537z"></path>
<path fill="#000" opacity="0.777" d="M12.628 15.347s0.030-0.028 0.072-0.073c0.026-0.028 0.049-0.054 0.071-0.081l-0.001 0.001c0.027-0.032 0.052-0.063 0.077-0.095l0.001-0.001c0.024-0.030 0.048-0.063 0.072-0.095l0.003-0.004c0.023-0.032 0.045-0.063 0.063-0.089s0.033-0.049 0.043-0.065l0.016-0.025-0.016 0.025c-0.010 0.016-0.024 0.039-0.042 0.066s-0.038 0.059-0.061 0.092c-0.028 0.040-0.052 0.074-0.076 0.107l0.003-0.004c-0.026 0.036-0.051 0.068-0.076 0.1l0.001-0.001c-0.025 0.031-0.048 0.059-0.069 0.083-0.041 0.048-0.071 0.077-0.071 0.077-0.002 0.002-0.004 0.003-0.006 0.003-0.005 0-0.010-0.005-0.010-0.012 0-0.004 0.001-0.007 0.004-0.009l0-0z"></path>
<path fill="#f6f6f6" opacity="0.777" d="M12.696 15.375s0.347-0.176 0.513-0.404z"></path>
<path fill="#000" opacity="0.777" d="M12.693 15.363s0.035-0.017 0.087-0.047c0.026-0.015 0.056-0.033 0.088-0.053 0.016-0.010 0.032-0.021 0.049-0.032s0.033-0.023 0.050-0.035l0.049-0.037c0.016-0.013 0.031-0.025 0.046-0.038s0.029-0.025 0.042-0.037l0.036-0.035 0.029-0.032c0.009-0.009 0.016-0.019 0.022-0.026l0.019-0.023-0.018 0.024c-0.006 0.007-0.012 0.017-0.021 0.027l-0.029 0.033-0.036 0.037c-0.013 0.013-0.027 0.025-0.041 0.039s-0.030 0.026-0.045 0.040l-0.048 0.039c-0.016 0.012-0.033 0.025-0.049 0.037s-0.032 0.023-0.048 0.034-0.061 0.041-0.087 0.057c-0.052 0.032-0.087 0.051-0.087 0.051-0.001 0.001-0.003 0.001-0.004 0.001-0.005 0-0.010-0.005-0.010-0.012 0-0.005 0.002-0.009 0.006-0.011l0-0z"></path>
<path fill="#fff" opacity="0.777" d="M11.137 15.204c0 0.028-0.014 0.050-0.030 0.050s-0.030-0.023-0.030-0.050c0-0.028 0.014-0.050 0.030-0.050s0.030 0.023 0.030 0.050z"></path>
<path fill="#fff" opacity="0.777" d="M11.628 15.191c-0.032 0.224-0.171 0.381-0.312 0.351s-0.228-0.236-0.196-0.46c0.032-0.224 0.171-0.381 0.312-0.351s0.228 0.236 0.196 0.46z"></path>
<path fill="#000" opacity="0.777" d="M11.637 15.193l-0.005 0.025c-0.001 0.008-0.003 0.018-0.006 0.030s-0.006 0.026-0.011 0.041l-0.008 0.023-0.010 0.025c-0.003 0.009-0.007 0.017-0.012 0.026s-0.009 0.018-0.014 0.027c-0.020 0.037-0.048 0.075-0.085 0.106-0.005 0.004-0.009 0.008-0.014 0.012l-0.015 0.010c-0.010 0.007-0.022 0.012-0.033 0.018-0.006 0.003-0.012 0.004-0.018 0.006s-0.012 0.004-0.018 0.005l-0.019 0.003-0.019 0c-0.006 0.001-0.013-0.001-0.019-0.001s-0.013-0.001-0.020-0.003l-0.019-0.006c-0.006-0.002-0.013-0.006-0.019-0.009-0.025-0.013-0.049-0.031-0.069-0.055-0.041-0.047-0.069-0.112-0.084-0.181s-0.016-0.144-0.007-0.216c0.003-0.018 0.005-0.035 0.010-0.053l0.006-0.026c0.002-0.009 0.005-0.017 0.008-0.026 0.005-0.017 0.012-0.033 0.018-0.050 0.003-0.008 0.007-0.016 0.011-0.024s0.007-0.016 0.012-0.023c0.033-0.060 0.077-0.11 0.129-0.139s0.112-0.032 0.161-0.010l0.019 0.009 0.017 0.011c0.006 0.003 0.011 0.008 0.016 0.012s0.010 0.009 0.015 0.013c0.009 0.010 0.019 0.020 0.026 0.031l0.012 0.016 0.010 0.017c0.026 0.046 0.041 0.094 0.050 0.137 0.003 0.011 0.004 0.022 0.005 0.032s0.003 0.020 0.003 0.030l0.002 0.028 0 0.025c0.001 0.016-0.001 0.030-0.001 0.043s-0.002 0.023-0.003 0.031l-0.003 0.026-0 0zM11.62 15.189l0.003-0.025c0.001-0.008 0.002-0.018 0.002-0.030s0.001-0.026 0.001-0.041l-0.001-0.024-0.002-0.026c-0.001-0.009-0.002-0.019-0.004-0.028s-0.003-0.020-0.005-0.030c-0.008-0.041-0.023-0.086-0.048-0.129l-0.009-0.016-0.011-0.015c-0.007-0.011-0.016-0.019-0.024-0.028-0.004-0.005-0.009-0.008-0.014-0.012s-0.009-0.008-0.015-0.011l-0.015-0.010-0.016-0.008c-0.046-0.021-0.099-0.019-0.148 0.007s-0.091 0.072-0.123 0.129c-0.004 0.006-0.008 0.013-0.011 0.021l-0 0.001c-0.004 0.008-0.007 0.015-0.011 0.023-0.006 0.016-0.013 0.031-0.018 0.048-0.011 0.032-0.018 0.066-0.024 0.101-0.009 0.069-0.009 0.142 0.005 0.209s0.040 0.13 0.079 0.176c0.019 0.023 0.042 0.040 0.066 0.052 0.006 0.003 0.012 0.006 0.018 0.008l0.019 0.006c0.006 0.002 0.012 0.002 0.018 0.003s0.012 0.002 0.018 0.001l0.018-0.001 0.018-0.003c0.006-0.001 0.012-0.003 0.017-0.005s0.011-0.004 0.017-0.006c0.011-0.006 0.021-0.010 0.031-0.017l0.014-0.010 0.013-0.011c0.035-0.030 0.061-0.068 0.080-0.104 0.005-0.009 0.009-0.018 0.013-0.027s0.008-0.017 0.011-0.026l0.009-0.024 0.007-0.023c0.005-0.014 0.007-0.027 0.010-0.039s0.005-0.021 0.006-0.030l0.004-0.025z"></path>
<path fill="#000" opacity="0.777" d="M11.462 15.244c0 0.102-0.046 0.185-0.102 0.185s-0.102-0.083-0.102-0.185c0-0.102 0.046-0.185 0.102-0.185s0.102 0.083 0.102 0.185z"></path>
<path fill="#fff" opacity="0.777" d="M11.473 15.145c0 0.044-0.021 0.079-0.048 0.079s-0.048-0.035-0.048-0.079c0-0.044 0.021-0.079 0.048-0.079s0.048 0.035 0.048 0.079z"></path>
<path fill="#000" opacity="0.777" d="M12.219 16.242s-0.151 0.335-0.356 0.335c-0.025-0.013-0.049-0.025-0.077-0.021-0.024 0.003-0.023 0.029-0.002 0.039-0.022-0.004-0.065 0.006-0.041 0.063 0.018 0.043 0.122-0.022 0.122-0.022s0.266-0.029 0.396-0.37"></path>
<path fill="#f29400" opacity="0.777" d="M11.758 14.251c0 0.053-0.037 0.095-0.082 0.095s-0.082-0.043-0.082-0.095c0-0.053 0.037-0.095 0.082-0.095s0.082 0.043 0.082 0.095z"></path>
<path fill="#000" opacity="0.777" d="M11.763 14.251l-0 0.007c-0 0.004-0.001 0.012-0.003 0.021-0.006 0.024-0.019 0.044-0.036 0.057l-0 0c-0.011 0.008-0.024 0.014-0.037 0.015l-0 0c-0.004 0-0.007 0.001-0.011 0.001s-0.007-0-0.011-0.001-0.015-0.004-0.022-0.007c-0.014-0.007-0.028-0.019-0.037-0.036s-0.015-0.036-0.015-0.057v-0c0-0.009 0.001-0.020 0.004-0.030s0.007-0.019 0.011-0.027l-0 0c0.009-0.016 0.022-0.028 0.037-0.036l0.001-0c0.011-0.005 0.023-0.009 0.036-0.009 0.003 0 0.006 0 0.009 0.001l-0-0c0.014 0.002 0.027 0.007 0.039 0.016l-0-0c0.022 0.016 0.033 0.041 0.036 0.058 0.002 0.009 0.003 0.016 0.003 0.021l0 0.007v0zM11.752 14.251l-0-0.006c-0-0.006-0.001-0.012-0.003-0.018l0 0.001c-0.005-0.021-0.017-0.038-0.031-0.049l-0-0c-0.009-0.007-0.020-0.012-0.032-0.014l-0-0c-0.003-0-0.006-0.001-0.009-0.001-0.011 0-0.021 0.003-0.031 0.007l0.001-0c-0.013 0.007-0.025 0.017-0.033 0.031l-0 0c-0.004 0.007-0.007 0.015-0.010 0.023l-0 0.001c-0.002 0.008-0.003 0.017-0.004 0.027v0c0 0.008 0.001 0.018 0.003 0.026s0.006 0.017 0.010 0.024c0.008 0.014 0.020 0.025 0.033 0.032l0.001 0c0.006 0.003 0.013 0.005 0.020 0.006 0.003 0.001 0.007 0.001 0.010 0.001s0.006-0 0.009-0.001c0.013-0.002 0.024-0.007 0.034-0.014l-0 0c0.015-0.012 0.026-0.029 0.031-0.050l0-0.001c0.002-0.008 0.002-0.013 0.002-0.018l0-0.007v0z"></path>
<path fill="#f29400" opacity="0.777" d="M11.336 14.319c0 0.030-0.023 0.055-0.052 0.055s-0.052-0.025-0.052-0.055c0-0.030 0.023-0.055 0.052-0.055s0.052 0.025 0.052 0.055z"></path>
<path fill="#000" opacity="0.777" d="M11.235 14.318l0 0.004c0 0.003 0.001 0.006 0.002 0.010 0.002 0.008 0.009 0.021 0.021 0.028 0.006 0.004 0.013 0.006 0.020 0.007 0.002 0 0.004 0 0.006 0s0.004-0 0.006-0.001 0.008-0.002 0.012-0.003 0.015-0.009 0.021-0.017c0.005-0.008 0.009-0.017 0.009-0.028v-0c-0-0.011-0.003-0.021-0.009-0.029l0 0c-0.005-0.008-0.012-0.013-0.020-0.017l-0-0c-0.006-0.002-0.012-0.004-0.019-0.004-0.002 0-0.003 0-0.005 0l0-0c-0.007 0.001-0.014 0.003-0.020 0.007l0-0c-0.012 0.007-0.018 0.019-0.021 0.028-0.001 0.003-0.002 0.007-0.002 0.010v0l-0 0.004v-0zM11.227 14.319l0-0.005c0-0.003 0.001-0.007 0.002-0.013 0.003-0.011 0.011-0.025 0.024-0.034 0.007-0.005 0.015-0.008 0.024-0.009l0-0c0.008-0.001 0.018 0 0.027 0.004s0.018 0.011 0.024 0.020c0.007 0.009 0.011 0.022 0.011 0.035v0c-0 0.014-0.004 0.026-0.011 0.036l0-0c-0.007 0.010-0.015 0.016-0.024 0.020-0.005 0.002-0.009 0.003-0.014 0.004-0.002 0-0.004 0-0.007 0.001s-0.005-0-0.007-0c-0.009-0.001-0.017-0.004-0.024-0.009l0 0c-0.014-0.009-0.022-0.023-0.024-0.034-0.001-0.004-0.002-0.008-0.002-0.013v-0l-0-0.004v-0z"></path>
<path fill="#fec419" d="M11.73 17.593q0.002 0.038 0.016 0.072 0.012 0.036 0.045 0.057 0.003 0.002 0.012 0.006 0.009 0.006 0.012 0.006 0.009 0 0.022-0.004 0.014-0.002 0.022 0.006 0 0.015-0.010 0.027-0.010 0.013-0.014 0.030-0.003 0.027-0.005 0.051-0.003 0.025-0.003 0.051 0 0.023 0.014 0.042 0.012 0.019 0.019 0.040 0.016 0.015 0.029 0.038 0.012 0.023 0.033 0.032 0.002 0 0.002-0.006 0-0.015-0.009-0.036t-0.014-0.034v-0.032q-0.002-0.021 0.003-0.051 0.003-0.030 0.021-0.044 0.003 0 0.005-0.002h0.005q0.009 0 0.019 0.011 0.003 0.044 0.035 0.070 0.029 0.028 0.064 0.046 0.003-0.008 0.003-0.013 0-0.011-0.010-0.023-0.012-0.011-0.019-0.021 0.002-0.015-0.007-0.027-0.009-0.009-0.009-0.025v-0.004q-0.005-0.017-0.005-0.036 0-0.015 0.007-0.028-0.002-0.011 0.007-0.038 0.009-0.025 0.021-0.051t0.028-0.047q0.014-0.019 0.024-0.019l0.003-0.009q-0.003-0.009-0.010-0.015-0.007-0.004-0.010-0.013-0.002 0-0.010-0.004-0.009-0.002-0.017-0.006-0.009-0.002-0.016-0.006-0.009-0.002-0.010-0.002-0.033 0-0.064 0.009-0.033 0.011-0.059 0.023-0.028 0.013-0.048 0.023-0.022 0.011-0.038 0.011-0.022 0-0.040-0.019-0.019-0.019-0.031-0.038-0.003-0.002-0.007-0.002-0.002 0-0.005 0.004zM11.4 17.153q0 0.015 0.003 0.030t0.009 0.030q0.007 0.008 0.012 0.015 0.005 0.009 0.014 0.013l0.010-0.006q-0.002-0.038-0.010-0.063-0.010-0.025-0.010-0.040 0-0.011 0.005-0.023-0.007 0.002-0.007-0.011v-0.006q-0.026 0.023-0.026 0.059zM11.704 17.318h0.010v-0.008h-0.005q-0.005 0-0.005 0.008zM11.435 17.083q0.009 0.013 0.007 0.025v0.009q0.009-0.021 0.031-0.028 0.022-0.006 0.041-0.013-0.003-0.004 0.002-0.009 0.002 0.004 0.002 0.013 0.019-0.004 0.038-0.006 0.017-0.002 0.036-0.002 0.014-0.008 0.014-0.019v-0.006q-0.007-0.004-0.012-0.006-0.007-0.002-0.016-0.002-0.016 0-0.036 0.002t-0.040 0.006q-0.021 0.006-0.038 0.013-0.019 0.009-0.029 0.025v-0.002zM11.443 17.092l0.005-0.004v0.009l-0.005-0.006zM11.64 17.079q0.005 0.019 0.012 0.030l0.010 0.004q0.005 0.002 0.010 0.002 0.019 0 0.019-0.021 0-0.017-0.005-0.036-0.007-0.017-0.026-0.017-0.009 0-0.014 0.015t-0.007 0.023zM11.76 17.128q0 0.011 0.016 0.017t0.024 0.006q0.029 0 0.029-0.032 0-0.023-0.012-0.032-0.014-0.009-0.033-0.009t-0.022 0.017-0.003 0.034h0.002zM11.853 17.162q0.002 0.019 0.014 0.038 0.009 0.004 0.019 0.006l0.017 0.008q0.022-0.009 0.026-0.030-0.005-0.013-0.012-0.028-0.009-0.015-0.026-0.015-0.009 0-0.019 0.008t-0.019 0.015zM11.723 17.192q0.003 0.019 0.014 0.030 0.009 0.011 0.019 0.027 0.016 0.021 0.029 0.046 0.012 0.027 0.029 0.047 0.022 0.027 0.047 0.051 0.022 0.025 0.047 0.049 0.107 0.11 0.258 0.11 0.029 0 0.060-0.009 0.031-0.008 0.057-0.027 0.026-0.017 0.043-0.046 0.016-0.027 0.016-0.066 0-0.011-0.002-0.017 0-0.038-0.017-0.083-0.017-0.044-0.043-0.085-0.028-0.040-0.060-0.074-0.035-0.032-0.066-0.049-0.007-0.004-0.033-0.017-0.028-0.011-0.059-0.025-0.031-0.011-0.059-0.023-0.028-0.009-0.033-0.009h-0.016q-0.009 0-0.017-0.004-0.016 0-0.029-0.002h-0.041q-0.007 0-0.014 0.004 0.010 0.046 0.040 0.068 0.028 0.025 0.066 0.034 0.038 0.011 0.080 0.013 0.040 0.004 0.073 0.008l0.007 0.008q0.002 0.006 0.002 0.009v0.004q-0.016 0.013-0.033 0.027t-0.017 0.038q0 0.032 0.022 0.051t0.047 0.032q0.029 0.002 0.052 0.019 0.021 0.017 0.036 0.044-0.003 0.025-0.007 0.038-0.005 0.015-0.033 0.015-0.026 0-0.050-0.019-0.026-0.019-0.048-0.034-0.012-0.019-0.028-0.042-0.016-0.021-0.033-0.040-0.019-0.017-0.040-0.028-0.023-0.011-0.047-0.011-0.003 0-0.014 0.004 0.007 0.009 0.007 0.023 0 0.011-0.009 0.032-0.010 0.021-0.014 0.030l-0.012-0.013q-0.012-0.042-0.047-0.072-0.036-0.028-0.066-0.053-0.014-0.002-0.024-0.009-0.012-0.008-0.026-0.008-0.009 0-0.014 0.006zM11.386 18.097q0 0.009 0.002 0.032 0 0.023 0.003 0.030l0.031-0.008q0.016-0.004 0.033-0.011 0 0.008 0.009 0.008 0.007 0 0.017-0.011 0.009-0.011 0.019-0.027 0.009-0.013 0.016-0.028 0.007-0.013 0.010-0.019 0.033 0.034 0.062 0.072t0.067 0.066q0.024 0.017 0.048 0.036 0.022 0.019 0.052 0.030 0.005 0.002 0.012 0.006 0.005 0.004 0.007 0.013-0.005 0.006-0.014 0.009v0.011q-0.005 0-0.009-0.004l0.003-0.008q-0.003-0.002-0.010-0.004-0.009-0.002-0.014 0.002-0.003-0.002-0.012-0.002-0.029 0-0.057 0.015-0.029 0.017-0.059 0.017-0.033 0-0.048-0.023-0.017-0.021-0.017-0.057 0-0.009 0.002-0.019t0.009-0.017l-0.003-0.013q-0.002 0-0.002-0.002h-0.003q-0.007 0-0.021 0.008-0.007 0.015-0.010 0.032-0.005 0.017-0.005 0.034 0 0.023 0.012 0.044 0.012 0.023 0.031 0.040 0.017 0.019 0.040 0.030 0.021 0.011 0.040 0.011h0.029q0.014 0 0.028-0.004-0.009 0.017-0.014 0.036t-0.003 0.040v0.009l0.007 0.008q0.002 0.004 0.009 0.004 0.012-0.017 0.028-0.028t0.033-0.023q0.016-0.009 0.031-0.023 0.016-0.011 0.028-0.028-0.002-0.011 0.003-0.023 0.005-0.009 0.005-0.021 0-0.009-0.002-0.013 0.003-0.009 0.014-0.009 0.002 0 0.017 0.008 0.014 0.008 0.033 0.017 0.019 0.011 0.038 0.019 0.017 0.009 0.026 0.013 0.095 0.036 0.187 0.057t0.192 0.021q0.036 0 0.074-0.006l0.073-0.008q0.014 0.027 0.048 0.042 0.035 0.017 0.062 0.017 0.026 0 0.059-0.013t0.062-0.030q0.028-0.015 0.047-0.028l0.019-0.013 0.009 0.004 0.043 0.063h0.003q0.014 0 0.024-0.013 0.010-0.011 0.010-0.027t-0.014-0.032-0.022-0.027v-0.004q-0.002-0.002-0.002-0.004 0-0.009 0.007-0.015 0.005-0.006 0.012-0.006 0.010 0 0.021 0.015t0.019 0.023h0.002q0.009 0 0.017-0.013t0.009-0.023q0-0.013-0.012-0.027v-0.004q0-0.009 0.007-0.023t0.017-0.027q0.009-0.011 0.019-0.021 0.010-0.008 0.019-0.008h0.005l0.026 0.004h0.005l0.059-0.004q0.029-0.002 0.059-0.002h0.021q0.009 0 0.019 0.002 0.026 0.025 0.047 0.049 0.021 0.027 0.059 0.027 0.016 0 0.036-0.008 0.019-0.008 0.019-0.028 0-0.011-0.002-0.023t-0.005-0.021l0.007-0.008q0.002-0.002 0.005-0.002h0.002q0.031 0.017 0.048 0.061 0.016 0.046 0.016 0.082 0 0.013-0.002 0.021-0.005 0.009-0.016 0.023-0.012 0.015-0.012 0.025 0 0.004 0.002 0.004v0.006q0.014 0 0.022-0.013 0.009-0.011 0.014-0.023 0.014-0.015 0.017-0.040t0.009-0.046q-0.019-0.093-0.069-0.135-0.050-0.040-0.135-0.040-0.010 0-0.028 0.004t-0.035 0.009-0.029 0.009q-0.014 0.004-0.017 0.004h-0.003q-0.019 0.008-0.038 0.013-0.021 0.006-0.040 0.011-0.010-0.006-0.022-0.006-0.005 0-0.009 0.002l-0.012-0.011q0.021-0.038 0.052-0.066 0.029-0.028 0.062-0.055 0.014-0.004 0.026-0.015 0.010-0.011 0.026-0.011 0.040-0.030 0.092-0.049t0.1-0.019q0.038 0 0.074 0.017 0.035 0.017 0.074 0.017 0.024 0 0.054-0.019v-0.009q0-0.008-0.007-0.019t-0.017-0.025q-0.010-0.011-0.021-0.021t-0.016-0.013l0.010-0.004h0.009q0.002 0 0.012 0.004t0.024 0.008q0.012 0.006 0.022 0.009l0.010 0.004q0.028 0.015 0.050 0.051 0.021 0.038 0.021 0.070 0 0.013-0.002 0.036-0.002 0.025 0.002 0.049 0.002 0.025 0.010 0.042 0.007 0.019 0.026 0.019 0.014 0 0.028-0.011 0.014-0.009 0.021-0.009 0.005 0 0.007 0.006v0.011q0 0.027-0.010 0.057t-0.040 0.040q-0.010 0.015-0.028 0.017-0.019 0.002-0.036 0.002-0.021 0-0.035-0.013t-0.024-0.032-0.017-0.042-0.014-0.040q-0.003 0.004-0.005 0.019-0.003 0.017-0.003 0.023 0 0.047 0.029 0.089 0.028 0.042 0.073 0.042 0.074 0 0.118-0.046 0.041-0.046 0.041-0.127 0-0.064-0.024-0.123-0.026-0.059-0.067-0.104-0.043-0.046-0.097-0.072-0.055-0.027-0.114-0.027-0.078 0-0.163 0.028-0.085 0.030-0.152 0.074-0.003 0.021-0.022 0.027-0.019 0.008-0.028 0.023-0.041 0.032-0.078 0.074-0.038 0.044-0.069 0.089l-0.016 0.002q-0.003-0.015-0.003-0.025 0-0.021 0.026-0.057 0.024-0.034 0.057-0.074t0.064-0.078q0.029-0.038 0.041-0.064 0.010-0.023 0.017-0.047t0.016-0.049q0.005-0.006 0.009-0.021t0.007-0.032l0.003-0.034v-0.027q0-0.009-0.003-0.025-0.005-0.015-0.010-0.032l-0.010-0.030q-0.007-0.013-0.012-0.021-0.035-0.064-0.105-0.064-0.022 0-0.040 0.009-0.019 0.009-0.038 0.023-0.009-0.015-0.009-0.030 0-0.008 0.002-0.011-0.019-0.057-0.062-0.089-0.043-0.030-0.097-0.046v-0.006q0.047-0.008 0.092-0.028 0.045-0.019 0.074-0.063 0.003-0.008 0.003-0.013 0-0.009-0.005-0.011-0.021 0.002-0.038 0.011-0.019 0.011-0.041 0.011-0.029 0-0.059-0.009-0.031-0.008-0.060-0.017-0.028-0.008-0.059-0.009-0.033-0.002-0.062-0.002-0.035 0-0.080 0.009-0.045 0.011-0.085 0.032-0.040 0.023-0.066 0.057-0.028 0.034-0.028 0.083 0 0.040 0.024 0.059t0.059 0.019q0.026 0 0.048-0.002 0.022 0 0.043 0.002t0.043 0.006q0.021 0.004 0.047 0.013 0.045 0.015 0.088 0.047 0.043 0.034 0.069 0.078 0.005 0.008 0.009 0.023 0.002 0.015 0.016 0.015v-0.023q0-0.030-0.010-0.061-0.012-0.028-0.029-0.055-0.019-0.025-0.041-0.047-0.022-0.021-0.043-0.038l0.003-0.004h0.014q0.016 0 0.054 0.008 0.038 0.009 0.078 0.023 0.040 0.015 0.071 0.034 0.029 0.019 0.029 0.040 0 0.017-0.014 0.030t-0.028 0.021v0.009q0.017 0 0.029-0.009 0.010-0.008 0.023-0.019 0.010-0.009 0.026-0.019 0.016-0.008 0.041-0.008 0.024 0 0.047 0.015 0.022 0.017 0.031 0.044-0.076 0.011-0.076 0.097 0 0.036 0.014 0.064 0.014 0.030 0.014 0.066 0 0.059-0.026 0.102-0.026 0.046-0.057 0.082-0.033 0.038-0.060 0.070-0.029 0.034-0.033 0.074 0.003 0.013 0.009 0.030t0.014 0.028q0 0.008-0.005 0.019-0.007 0.013-0.016 0.025-0.009 0.013-0.017 0.023t-0.016 0.011q-0.009-0.004-0.016-0.009-0.007-0.004-0.016-0.008-0.024 0.006-0.024 0.030 0 0.011 0.005 0.023l-0.014 0.008q-0.009-0.006-0.016-0.021t-0.017-0.015h-0.003q-0.003 0.002-0.005 0.002l-0.016 0.017q-0.010 0.013-0.010 0.023 0.003 0.009 0.007 0.017t0.007 0.017q0.002 0.002 0.005 0.004 0.002 0.004 0.002 0.008 0 0.006-0.019 0.017-0.021 0.013-0.045 0.025-0.024 0.013-0.047 0.021-0.024 0.009-0.033 0.009-0.012 0-0.033-0.009-0.022-0.008-0.026-0.021l0.026-0.011q0.016-0.008 0.026-0.008h0.003q0.024-0.028 0.052-0.053 0.028-0.023 0.052-0.049 0.022-0.027 0.038-0.059t0.016-0.078q0-0.044-0.010-0.080t-0.022-0.064q-0.014-0.027-0.024-0.044-0.012-0.015-0.012-0.017 0-0.006 0.003-0.008 0.010 0.004 0.021 0.011t0.014 0.021q0.021-0.004 0.040 0 0.019 0.006 0.038 0.015 0.003 0 0.005-0.006 0.002-0.004 0.002-0.008 0-0.011-0.016-0.040-0.017-0.027-0.038-0.059t-0.040-0.064q-0.021-0.030-0.028-0.049l0.009-0.006q0.028 0.021 0.060 0.028 0.031 0.008 0.066 0.008 0.009 0 0.031-0.002 0.021-0.002 0.045-0.008 0.022-0.006 0.041-0.015 0.017-0.008 0.017-0.019v-0.004h-0.002q-0.041 0.006-0.074-0.004-0.035-0.008-0.066-0.025t-0.060-0.042q-0.029-0.023-0.062-0.046-0.054-0.038-0.105-0.064-0.052-0.025-0.114-0.044-0.009-0.004-0.014-0.006-0.007-0.002-0.016-0.002-0.005 0-0.016 0.004t-0.022 0.008-0.022 0.008q-0.012 0.006-0.016 0.008-0.017 0.009-0.022 0.034-0.007 0.025-0.007 0.044 0 0.044 0.021 0.085 0.019 0.042 0.048 0.081 0.028 0.042 0.062 0.082t0.064 0.081q0.028 0.044 0.047 0.089 0.017 0.046 0.016 0.095l-0.002 0.021h0.003q0.007-0.006 0.009-0.015t0.002-0.019q0.005-0.013 0.012-0.034t0.007-0.036q0-0.013 0.003-0.027 0.003-0.011 0.003-0.027 0-0.013-0.003-0.025-0.005-0.009-0.005-0.025 0-0.004 0.007-0.011 0.040 0.040 0.069 0.085 0.028 0.046 0.028 0.108 0 0.038-0.014 0.074t-0.043 0.059q-0.021 0.032-0.054 0.059-0.035 0.027-0.074 0.044-0.040 0.019-0.081 0.028t-0.078 0.009q-0.007 0-0.012-0.002h-0.016q0.014-0.011 0.024-0.017t0.024-0.015q0.029-0.019 0.064-0.055 0.035-0.034 0.054-0.066-0.002-0.015 0.003-0.028t0.005-0.028q0-0.017-0.010-0.040-0.012-0.021-0.022-0.036l-0.014 0.004q0.007 0.017 0.012 0.034 0.003 0.017 0.003 0.036 0 0.008-0.003 0.025-0.005 0.019-0.014 0.019-0.009-0.004-0.019-0.015-0.010-0.009-0.021-0.009-0.009 0-0.016 0.006-0.009 0.006-0.017 0.009h-0.005q-0.002-0.008-0.007-0.034-0.007-0.027-0.014-0.057-0.009-0.028-0.014-0.051-0.007-0.023-0.007-0.025 0-0.011 0.007-0.013 0.024 0.011 0.041 0.046 0.003-0.006 0.012-0.008h0.014q0.014 0 0.026 0.009 0.010 0.009 0.022 0.009l0.009-0.002q0-0.025-0.021-0.040t-0.035-0.030q-0.009-0.011-0.017-0.025l-0.017-0.027q-0.045-0.072-0.071-0.157t-0.041-0.171q-0.003-0.015-0.009-0.034-0.007-0.017-0.021-0.027h-0.010q-0.016-0.004-0.033 0.009-0.012-0.004-0.019 0.002t-0.012 0.013l-0.010 0.015q-0.005 0.009-0.014 0.013-0.017 0.028-0.028 0.047-0.010 0.021-0.017 0.042t-0.009 0.044q-0.003 0.025-0.003 0.059 0 0.046 0.014 0.085 0.012 0.040 0.033 0.076 0.019 0.036 0.043 0.070 0.024 0.036 0.047 0.070 0 0.015 0.003 0.032 0.002 0.019 0.016 0.028 0.009-0.015 0.012-0.032 0.002-0.015 0.002-0.030 0-0.034-0.007-0.059l0.002-0.004q0.002-0.002 0.003-0.002 0.003 0 0.016 0.013t0.026 0.030 0.026 0.032q0.012 0.017 0.016 0.023l-0.002 0.006q0.003 0.008 0.009 0.009t0.009 0.013q0.007 0.021 0.012 0.042t0.005 0.044q0 0.032-0.022 0.053-0.022 0.023-0.054 0.036t-0.064 0.019q-0.035 0.006-0.057 0.006l-0.010-0.004q-0.010-0.002-0.023-0.006-0.014-0.004-0.026-0.008t-0.016-0.006q-0.014 0.002-0.036-0.006-0.024-0.006-0.048-0.017-0.024-0.009-0.047-0.023-0.024-0.011-0.038-0.019-0.019-0.009-0.031-0.036-0.012-0.025-0.017-0.047 0.005-0.015 0.016-0.028t0.021-0.025q0.007-0.002 0.019-0.002 0.035 0 0.047 0.008t0.017 0.019q0.003 0.011 0.009 0.027 0.003 0.015 0.019 0.030 0.009 0.002 0.019 0.006 0.009 0.006 0.016 0.006 0.014 0 0.021-0.025 0.005-0.023 0.005-0.036t-0.003-0.019l0.012-0.006 0.026 0.028q0.009 0.011 0.014 0.025t0.007 0.028 0.002 0.042v0.011q0 0.008-0.002 0.013 0.012-0.015 0.017-0.025 0.003-0.008 0.003-0.028 0-0.044-0.017-0.080-0.019-0.034-0.047-0.059-0.029-0.023-0.066-0.036-0.038-0.011-0.074-0.011-0.047 0-0.078 0.025t-0.031 0.080q0 0.015 0.002 0.028t0.005 0.028q-0.010-0.004-0.024-0.015-0.014-0.009-0.028-0.023-0.014-0.011-0.028-0.025-0.014-0.011-0.024-0.019-0.055-0.047-0.105-0.116-0.052-0.068-0.090-0.148-0.040-0.078-0.062-0.161t-0.022-0.163q0-0.040 0.010-0.085 0.010-0.044 0.031-0.083 0.021-0.038 0.052-0.064 0.031-0.025 0.073-0.025 0.007 0 0.012 0.002 0.005 0.004 0.012 0.004t0.007-0.013q-0.009-0.009-0.019-0.013-0.010-0.002-0.021-0.002-0.036 0-0.060 0.008t-0.043 0.021q-0.021 0.015-0.038 0.036-0.017 0.023-0.038 0.051l-0.010 0.019q-0.005 0.009-0.003 0.019v0.008q-0.003 0.006-0.005 0.011-0.002 0.008-0.007 0.013 0 0.009-0.005 0.021t-0.009 0.023q-0.009 0.032-0.010 0.066-0.003 0.036-0.003 0.070 0 0.047 0.007 0.093 0.005 0.046 0.005 0.091v0.015q-0.002 0.008-0.005 0.013l0.007 0.008v0.034q0.002 0.040-0.005 0.091t-0.035 0.083zM12.522 17.401h0.005l0.003 0.013h-0.002q-0.007 0-0.007-0.008v-0.006zM13.668 18.129h0.003v0.008q-0.003-0.004-0.003-0.006v-0.002zM13.708 18.12l0.002-0.002v0.004h-0.002v-0.002zM13.698 18.095q0.003-0.008 0.007-0.008h0.002q0 0.008-0.007 0.008h-0.002zM13.656 18.027q0.003 0 0.007-0.002h0.005q0.009 0 0.019 0.008l0.003 0.006h-0.009q-0.012 0.002-0.026-0.011zM12.327 16.98q-0.007 0.006-0.019 0.013l-0.024 0.019q-0.012 0.011-0.021 0.023-0.009 0.013-0.009 0.025 0 0.015 0.005 0.032 0.005 0.019 0.012 0.034-0.005 0.006-0.005 0.013t0.005 0.021q0.003 0.013 0.007 0.023 0.010 0.013 0.033 0.042t0.029 0.046q0.040-0.027 0.060-0.059 0.019-0.032 0.038-0.061 0.017-0.027 0.043-0.046 0.024-0.019 0.074-0.019 0.043 0 0.071 0.023 0.028 0.025 0.048 0.066v-0.032q-0.007-0.019-0.021-0.044-0.016-0.023-0.035-0.046-0.021-0.021-0.041-0.036-0.022-0.013-0.043-0.013-0.038 0-0.080 0.008-0.041 0.009-0.073 0.038-0.005-0.011-0.009-0.025l-0.010-0.023q-0.005-0.009-0.014-0.017-0.009-0.006-0.024-0.006zM13.213 17.767q0 0.027 0.017 0.038 0.016 0.011 0.036 0.011 0.014 0 0.026-0.006 0.010-0.009 0.019-0.027t0.009-0.032q0-0.009-0.007-0.015t-0.016-0.009q-0.010-0.004-0.019-0.009-0.009-0.004-0.012-0.011l-0.007-0.004q-0.003-0.002-0.007-0.002-0.009 0-0.016 0.019-0.009 0.019-0.021 0.027-0.003 0.006-0.003 0.021zM13.317 17.67q0.009 0.027 0.031 0.038 0.021 0.011 0.045 0.015 0.014-0.009 0.024-0.021 0.009-0.009 0.009-0.030 0-0.025-0.014-0.044-0.016-0.019-0.035-0.034h-0.007q-0.035 0-0.043 0.021-0.010 0.023-0.010 0.055zM13.494 17.521q-0.014 0.002-0.036 0.015t-0.022 0.030q0 0.025 0.012 0.040 0.010 0.017 0.035 0.017 0.007 0 0.014-0.002 0.005 0 0.014-0.002 0.005-0.009 0.012-0.021 0.005-0.011 0.005-0.021 0-0.040-0.033-0.057zM13.563 17.583q0.014 0.044 0.057 0.044 0.012 0 0.023-0.006 0.007-0.013 0.012-0.028 0.003-0.015 0.003-0.030 0-0.011-0.002-0.019-0.016-0.013-0.029-0.013-0.007 0-0.017 0.004-0.012 0.006-0.022 0.013t-0.017 0.017-0.007 0.019zM13.682 17.602q0.093 0.011 0.142 0.108 0-0.011 0.007-0.011h0.003q0.002 0.004 0.003 0.006t0.002 0.006q-0.003 0.009 0.005 0.011 0.009 0.004 0.016 0.006v0.008q-0.014 0-0.021-0.002 0.002 0.015 0.009 0.027 0.007 0.013 0.007 0.028v0.006q-0.002 0.004-0.002 0.008-0.007 0.002-0.017 0.009l-0.003-0.008v-0.004q-0.003-0.008-0.007-0.011-0.003 0.006-0.003 0.011-0.002 0.006-0.007 0.009h-0.003q0 0.011-0.005 0.013-0.007 0.002-0.014 0.002-0.009 0-0.017-0.002-0.009 0-0.014 0.004-0.010-0.008-0.029-0.023-0.021-0.013-0.021-0.030l-0.005-0.006q-0.003-0.015-0.003-0.023l-0.007 0.004q-0.007 0.013-0.007 0.030 0 0.019 0.010 0.034t0.026 0.025q0.014 0.011 0.031 0.017t0.031 0.006q0.040 0 0.069-0.030 0.029-0.028 0.029-0.074 0-0.017-0.010-0.034-0.003-0.028-0.023-0.053t-0.045-0.044-0.054-0.030q-0.029-0.011-0.054-0.009h-0.012q-0.007 0.004-0.007 0.011v0.006z"></path>
<path fill="#f9a311" d="M10.507 18.807v0.318h0.204v-0.318h0.4v0.868h-0.4v-0.323h-0.204v0.323h-0.4v-0.868h0.4zM11.628 19.217q0 0.041 0.025 0.066t0.064 0.025 0.064-0.025q0.026-0.026 0.026-0.066 0-0.020-0.007-0.036t-0.018-0.029-0.029-0.019q-0.017-0.007-0.036-0.007-0.038 0-0.063 0.026t-0.025 0.065zM11.717 18.793q0.128 0 0.235 0.060t0.168 0.163 0.061 0.224-0.061 0.225q-0.060 0.104-0.168 0.164t-0.235 0.060-0.235-0.060-0.168-0.163-0.061-0.226q0-0.119 0.060-0.223 0.060-0.102 0.168-0.163t0.236-0.061zM12.61 18.807l0.208 0.29h0.002v-0.29h0.4v0.875h-0.303l-0.192-0.27h-0.002v0.263h-0.4v-0.868h0.286zM14.147 18.807v0.218h-0.351v0.108h0.244v0.218h-0.244v0.107h0.351v0.218h-0.75v-0.868h0.75zM14.589 18.807l0.14 0.197 0.139-0.197h0.405l-0.344 0.489v0.379h-0.4v-0.379l-0.345-0.489h0.405z"></path>
</svg>
