<!-- Generated by IcoMoon.io -->
<svg version="1.1" xmlns="http://www.w3.org/2000/svg" width="30" height="32" viewBox="0 0 30 32">
<title>jam</title>
<path d="M15.25 32c-0.004 0-0.010 0-0.015 0-2.392 0-4.723-0.258-6.968-0.747l0.215 0.039-0.278-0.058c-1.415-0.304-2.558-1.258-2.958-2.493l-1.914-5.908c-0.578-1.716-0.911-3.692-0.911-5.747 0-1.547 0.189-3.049 0.545-4.486l-0.027 0.128c0.062-0.258 0.29-0.448 0.564-0.448 0.001 0 0.002 0 0.003 0h-0c0 0 0 0 0.001 0 0.048 0 0.095 0.006 0.14 0.017l-0.004-0.001c0.151 0.039 0.275 0.134 0.352 0.261l0.001 0.003c0.054 0.087 0.087 0.193 0.087 0.307 0 0.048-0.006 0.095-0.017 0.139l0.001-0.004c-0.306 1.222-0.482 2.626-0.482 4.070 0 1.929 0.314 3.786 0.893 5.52l-0.036-0.123 1.914 5.908c0.272 0.839 1.074 1.493 2.091 1.711l0.278 0.058c1.953 0.433 4.197 0.681 6.498 0.681 0.010 0 0.019 0 0.029 0h-0.002c0.008 0 0.016 0 0.025 0 2.275 0 4.494-0.242 6.632-0.702l-0.206 0.037 0.354-0.076c1.030-0.216 1.835-0.885 2.104-1.725l1.96-6.193c0.52-1.577 0.819-3.393 0.819-5.279 0-1.578-0.21-3.107-0.603-4.56l0.028 0.122c-0.011-0.043-0.018-0.093-0.018-0.143 0-0.269 0.182-0.496 0.43-0.563l0.004-0.001c0.045-0.012 0.096-0.019 0.148-0.019h0c0.27 0 0.496 0.183 0.563 0.431l0.001 0.004c0.392 1.423 0.617 3.058 0.617 4.744 0 2.008-0.319 3.941-0.908 5.752l0.037-0.131-1.959 6.193c-0.396 1.249-1.536 2.213-2.976 2.516l-0.354 0.074c-2.004 0.44-4.306 0.692-6.666 0.692-0.011 0-0.023 0-0.034-0h0.002z"></path>
<path d="M15.25 31.8c-2.382-0-4.703-0.258-6.937-0.747l0.214 0.039-0.278-0.058c-1.354-0.288-2.431-1.193-2.808-2.358l-1.92-5.904c-0.571-1.697-0.901-3.652-0.901-5.684 0-1.531 0.187-3.018 0.54-4.44l-0.027 0.126c0.046-0.163 0.194-0.281 0.369-0.281 0.211 0 0.382 0.171 0.382 0.382 0 0.027-0.003 0.053-0.008 0.078l0-0.002c-0.313 1.243-0.492 2.669-0.492 4.138 0 1.947 0.315 3.82 0.898 5.572l-0.036-0.125 1.914 5.908c0.295 0.906 1.154 1.614 2.24 1.845l0.278 0.058c1.974 0.436 4.242 0.686 6.569 0.686 2.299 0 4.541-0.244 6.701-0.708l-0.209 0.038 0.354-0.076c1.101-0.23 1.964-0.945 2.254-1.861l1.96-6.193c0.524-1.592 0.826-3.424 0.826-5.327 0-1.6-0.213-3.15-0.613-4.623l0.029 0.123c-0.008-0.029-0.013-0.063-0.013-0.097 0-0.211 0.171-0.382 0.382-0.382 0.177 0 0.325 0.12 0.369 0.282l0.001 0.003c0.388 1.41 0.612 3.029 0.612 4.7 0 1.987-0.316 3.9-0.899 5.692l0.037-0.13-1.959 6.193c-0.373 1.18-1.456 2.093-2.831 2.381l-0.354 0.076c-1.981 0.43-4.257 0.676-6.59 0.676-0.019 0-0.038-0-0.057-0h0.003z"></path>
<path d="M17.799 14.724c-0.007 0-0.016 0-0.024 0-0.524 0-1.026-0.094-1.49-0.266l0.030 0.010c-0.616-0.226-1.097-0.61-1.564-0.984-0.317-0.278-0.672-0.525-1.054-0.73l-0.030-0.015c-0.179-0.083-0.388-0.131-0.608-0.131-0.008 0-0.015 0-0.023 0h0.001c-0.717 0-1.546 0.439-2.265 0.849-0.492 0.319-1.088 0.518-1.729 0.543l-0.007 0c-0.512-0.007-0.991-0.142-1.407-0.376l0.015 0.008c-0.297-0.166-0.553-0.345-0.789-0.546l0.007 0.006c-0.354-0.285-0.656-0.531-0.968-0.531-0.042 0-0.083 0.004-0.123 0.011l0.004-0.001c-0.451 0.108-0.847 0.257-1.218 0.446l0.031-0.014c-0.596 0.272-1.21 0.55-1.978 0.55-0.269-0.001-0.53-0.034-0.78-0.095l0.023 0.005c-0.756-0.177-1.295-0.587-1.516-1.154-0.149-0.379-0.219-0.987 0.281-1.737 1.019-1.529 3.312-3.305 4.395-4.098-0.639-1.168-1.513-2.76-1.102-4.098 0.197-0.605 0.628-1.088 1.182-1.349l0.014-0.006c1.196-0.61 2.785-0.738 4.184-0.846h0.019c0.324-0.025 0.637-0.051 0.932-0.081 0.542-0.060 1.173-0.095 1.811-0.096h0.001c2.323 0 4.6 0.414 6.803 0.814 1.090 0.198 2.215 0.403 3.325 0.552 0.269 0.037 0.566 0.053 0.885 0.073 1.159 0.065 2.477 0.14 3.185 1.239 0.612 0.947 0.449 2.185-0.499 3.786 0.885 0.572 2.654 1.75 3.236 2.477 0.261 0.308 0.419 0.71 0.419 1.148 0 0.345-0.098 0.667-0.268 0.94l0.004-0.008c-0.633 1.143-2.318 1.998-3.402 1.998-0.003 0-0.007 0-0.010 0-0.072 0-0.144-0.005-0.214-0.013l0.008 0.001c-0.501-0.066-0.944-0.159-1.374-0.283l0.065 0.016c-0.33-0.107-0.713-0.179-1.109-0.203l-0.013-0.001c-0.444 0-0.819 0.177-1.253 0.563-0.863 0.786-2.38 1.626-4.043 1.626zM13.043 11.448c0.010-0 0.023-0 0.035-0 0.39 0 0.76 0.085 1.093 0.237l-0.016-0.007c0.504 0.256 0.939 0.55 1.331 0.891l-0.008-0.007c0.355 0.319 0.763 0.587 1.209 0.788l0.030 0.012c0.321 0.119 0.692 0.188 1.079 0.188 0.007 0 0.014-0 0.020-0h-0.001c1.316 0 2.537-0.685 3.243-1.325 0.649-0.591 1.295-0.867 2.028-0.867 0.513 0.022 0.997 0.109 1.455 0.253l-0.040-0.011c0.319 0.1 0.709 0.189 1.108 0.249l0.046 0.006c0.015 0.001 0.033 0.001 0.050 0.001s0.035-0.001 0.053-0.002l-0.002 0c0.708 0 1.946-0.658 2.362-1.398 0.074-0.101 0.118-0.228 0.118-0.365 0-0.162-0.061-0.31-0.162-0.421l0 0.001c-0.469-0.587-2.355-1.858-3.434-2.521-0.132-0.082-0.227-0.213-0.263-0.366l-0.001-0.004c-0.009-0.039-0.015-0.083-0.015-0.129 0-0.119 0.036-0.229 0.097-0.321l-0.001 0.002c0.343-0.531 1.391-2.123 0.81-3.008-0.391-0.605-1.302-0.656-2.267-0.708-0.324-0.018-0.658-0.037-0.973-0.080-1.134-0.154-2.275-0.354-3.378-0.561-2.151-0.405-4.376-0.809-6.6-0.809-0.006 0-0.014 0-0.021 0-0.588 0-1.168 0.030-1.74 0.089l0.072-0.006c-0.308 0.032-0.637 0.058-0.977 0.085-1.293 0.104-2.758 0.221-3.747 0.727-0.287 0.125-0.507 0.36-0.61 0.65l-0.002 0.008c-0.265 0.86 0.503 2.265 1.010 3.185 0.090 0.166 0.177 0.322 0.251 0.465 0.043 0.079 0.068 0.173 0.068 0.273 0 0.195-0.096 0.368-0.243 0.474l-0.002 0.001c-0.041 0.032-3.358 2.357-4.517 4.101-0.101 0.15-0.255 0.435-0.177 0.66 0.076 0.193 0.338 0.354 0.708 0.444 0.145 0.037 0.311 0.058 0.482 0.058 0.001 0 0.002 0 0.003 0h-0c0.52 0 0.973-0.205 1.499-0.444 0.415-0.211 0.897-0.388 1.402-0.506l0.044-0.009c0.106-0.022 0.228-0.035 0.353-0.035h0c0.708 0 1.239 0.421 1.69 0.791 0.174 0.151 0.366 0.291 0.571 0.413l0.018 0.010c0.241 0.141 0.529 0.228 0.836 0.237l0.003 0c0.334 0 0.695-0.12 1.168-0.391 0.699-0.398 1.755-1.001 2.852-1.001z"></path>
<path d="M17.799 14.523c-0.008 0-0.016 0-0.025 0-0.499 0-0.977-0.089-1.419-0.252l0.028 0.009c-0.58-0.25-1.078-0.57-1.515-0.959l0.006 0.005c-0.328-0.286-0.696-0.54-1.092-0.749l-0.031-0.015c-0.924-0.425-2.028 0.126-3.080 0.727-0.809 0.462-1.725 0.803-2.935 0.177-0.283-0.163-0.528-0.338-0.754-0.535l0.005 0.005c-0.43-0.354-0.801-0.648-1.251-0.559-0.47 0.11-0.883 0.263-1.27 0.46l0.031-0.014c-0.757 0.354-1.539 0.708-2.606 0.448-0.69-0.163-1.178-0.531-1.377-1.032-0.131-0.331-0.191-0.869 0.264-1.55 1.062-1.603 3.632-3.539 4.487-4.151-0.028-0.050-0.057-0.103-0.085-0.156-0.614-1.139-1.465-2.696-1.079-3.946 0.182-0.553 0.577-0.994 1.084-1.233l0.013-0.005c1.161-0.593 2.727-0.708 4.108-0.828 0.333-0.027 0.653-0.051 0.955-0.083 2.925-0.299 5.789 0.221 8.56 0.725 1.092 0.198 2.222 0.403 3.333 0.554 0.278 0.037 0.579 0.055 0.897 0.073 1.109 0.062 2.367 0.133 3.026 1.152 0.748 1.157 0.081 2.629-0.605 3.74 0.791 0.501 2.755 1.785 3.362 2.535 0.231 0.274 0.371 0.632 0.371 1.022 0 0.309-0.088 0.598-0.241 0.842l0.004-0.007c-0.637 1.152-2.412 1.998-3.418 1.883-0.487-0.064-0.919-0.155-1.338-0.277l0.062 0.015c-0.993-0.255-1.647-0.425-2.56 0.405s-2.429 1.573-3.916 1.573zM13.043 11.649c0.006-0 0.012-0 0.019-0 0.366 0 0.713 0.080 1.025 0.224l-0.015-0.006c0.488 0.251 0.909 0.537 1.291 0.868l-0.008-0.007c0.425 0.34 0.826 0.66 1.293 0.832 1.592 0.584 3.471-0.2 4.545-1.177 1.219-1.109 2.213-0.851 3.266-0.58 0.325 0.097 0.722 0.183 1.127 0.239l0.044 0.005c0.738 0.083 2.189-0.639 2.654-1.495 0.089-0.13 0.142-0.29 0.142-0.463 0-0.209-0.078-0.401-0.206-0.546l0.001 0.001c-0.547-0.683-2.702-2.084-3.487-2.567-0.088-0.053-0.153-0.139-0.176-0.24l-0-0.003c-0.005-0.024-0.008-0.052-0.008-0.081 0-0.079 0.024-0.153 0.064-0.215l-0.001 0.001c0.354-0.552 1.461-2.231 0.812-3.234-0.448-0.692-1.415-0.747-2.426-0.803-0.32-0.018-0.651-0.037-0.957-0.078-1.129-0.152-2.267-0.354-3.362-0.559-2.718-0.495-5.527-1.005-8.344-0.708-0.308 0.032-0.635 0.058-0.973 0.085-1.311 0.106-2.797 0.225-3.824 0.748-0.333 0.151-0.588 0.428-0.705 0.769l-0.003 0.009c-0.288 0.932 0.504 2.383 1.030 3.346 0.088 0.165 0.177 0.318 0.248 0.462 0.028 0.051 0.044 0.112 0.044 0.177 0 0.129-0.064 0.243-0.163 0.312l-0.001 0.001c-0.034 0.021-3.381 2.366-4.572 4.142-0.143 0.223-0.295 0.552-0.177 0.844 0.101 0.258 0.407 0.465 0.84 0.568 0.812 0.191 1.415-0.081 2.113-0.4 0.402-0.205 0.869-0.377 1.359-0.492l0.043-0.008c0.8-0.156 1.373 0.308 1.879 0.708 0.183 0.16 0.387 0.307 0.604 0.434l0.019 0.010c0.741 0.387 1.318 0.354 2.201-0.157 0.674-0.38 1.704-0.966 2.748-0.966z"></path>
<path d="M5.090 6.518c0.432-0.039 0.86-0.050 1.286-0.050s0.853 0 1.277 0.023 0.848 0.037 1.27 0.071 0.844 0.067 1.263 0.131 0.84 0.136 1.26 0.214 0.84 0.133 1.263 0.177 0.848 0.042 1.272 0.037 0.849-0.041 1.272-0.073c0.848-0.087 1.69-0.166 2.53-0.225l1.26-0.115c0.419-0.050 0.839-0.074 1.26-0.111s0.84-0.060 1.262-0.087l0.632-0.046c0.211-0.014 0.423-0.018 0.633-0.037 0.423-0.030 0.848-0.051 1.274-0.069s0.851-0.041 1.285-0.037c0.024 0 0.044 0.020 0.044 0.044v0c-0 0.019-0.012 0.035-0.028 0.042l-0 0c-0.405 0.149-0.816 0.278-1.228 0.398-0.207 0.060-0.414 0.111-0.623 0.163s-0.418 0.104-0.626 0.149c-0.682 0.16-1.545 0.308-2.422 0.41l-0.115 0.011c-0.853 0.092-1.713 0.113-2.569 0.12q-0.646 0-1.286-0.023c-0.428-0.021-0.856-0.069-1.283-0.103s-0.853-0.103-1.276-0.119-0.851-0.050-1.277-0.053c-0.846-0.014-1.713 0.069-2.569 0.069-0.921-0.028-1.799-0.119-2.656-0.269l0.11 0.016c-0.968-0.15-1.813-0.348-2.633-0.604l0.127 0.034c-0.019-0.007-0.032-0.024-0.032-0.045 0-0.004 0.001-0.008 0.002-0.012l-0 0c0.006-0.018 0.022-0.031 0.040-0.034l0-0zM3.008 15.993c-0.044-0-0.087-0.005-0.128-0.015l0.004 0.001c-1.259-0.342-2.243-1.279-2.646-2.482l-0.008-0.027c-0.718-2.162 0.497-3.020 0.548-3.056 0.090-0.059 0.199-0.094 0.317-0.094 0.322 0 0.584 0.261 0.584 0.584 0 0.191-0.092 0.361-0.234 0.468l-0.002 0.001c-0.016 0.012-0.531 0.435-0.106 1.729 0.282 0.838 0.942 1.481 1.772 1.732l0.019 0.005c0.263 0.060 0.456 0.293 0.456 0.57 0 0.321-0.259 0.582-0.58 0.584h-0z"></path>
<path d="M3.008 15.791c-0.012 0.002-0.026 0.003-0.041 0.003s-0.028-0.001-0.042-0.003l0.002 0c-1.194-0.325-2.126-1.216-2.502-2.36l-0.007-0.025c-0.672-2.021 0.425-2.79 0.467-2.826 0.057-0.036 0.126-0.057 0.201-0.057 0.212 0 0.384 0.172 0.384 0.384 0 0.122-0.057 0.232-0.147 0.302l-0.001 0.001c-0.039 0.028-0.656 0.531-0.177 1.946 0.297 0.912 1.014 1.612 1.917 1.877l0.020 0.005c0.162 0.047 0.279 0.195 0.279 0.369 0 0.201-0.155 0.366-0.352 0.383l-0.001 0zM27.518 15.993c-0.004 0-0.008 0-0.013 0-0.322 0-0.584-0.261-0.584-0.584 0-0.249 0.156-0.462 0.375-0.546l0.004-0.001c0.055-0.028 0.72-0.393 1.177-1.769 0.495-1.493-0.080-2.587-0.104-2.633-0.045-0.081-0.071-0.177-0.071-0.279 0-0.219 0.121-0.41 0.3-0.51l0.003-0.002c0.081-0.046 0.177-0.072 0.28-0.073h0c0 0 0 0 0.001 0 0.219 0 0.409 0.12 0.509 0.298l0.002 0.003c0.286 0.589 0.453 1.281 0.453 2.012 0 0.556-0.097 1.089-0.274 1.584l0.010-0.033c-0.658 1.975-1.736 2.438-1.858 2.477-0.061 0.029-0.132 0.049-0.207 0.055l-0.002 0z"></path>
<path d="M27.518 15.791c-0 0-0.001 0-0.001 0-0.211 0-0.382-0.171-0.382-0.382 0-0.162 0.101-0.301 0.244-0.357l0.003-0.001s0.773-0.345 1.285-1.888c0.138-0.372 0.218-0.802 0.218-1.25 0-0.559-0.124-1.088-0.346-1.563l0.010 0.023c-0.029-0.053-0.046-0.116-0.046-0.182 0-0.144 0.079-0.27 0.196-0.337l0.002-0.001c0.053-0.030 0.116-0.047 0.184-0.047 0.143 0 0.268 0.079 0.334 0.196l0.001 0.002c0.272 0.561 0.431 1.22 0.431 1.916 0 0.533-0.093 1.044-0.264 1.518l0.010-0.031c-0.628 1.886-1.626 2.318-1.737 2.36-0.040 0.016-0.086 0.025-0.135 0.025-0.002 0-0.003 0-0.005-0h0zM8.847 7.077l-4.823 4.202 4.28-4.749c0.069-0.069 0.165-0.112 0.271-0.112 0.212 0 0.384 0.172 0.384 0.384 0 0.092-0.032 0.176-0.085 0.242l0.001-0.001zM10.335 6.987l-1.269 5.060 0.513-5.191c0.020-0.195 0.183-0.346 0.382-0.346 0.212 0 0.384 0.172 0.384 0.384 0 0.013-0.001 0.027-0.002 0.040l0-0.002c-0.002 0.021-0.005 0.040-0.009 0.058l0.001-0.003z"></path>
<path d="M7.222 6.9c-0.162-0.341-0.327-0.763-0.466-1.196l-0.021-0.076c-0.13-0.383-0.232-0.833-0.289-1.298l-0.003-0.033c-0.009-0.115-0.014-0.232-0.018-0.354 0.001-0.126 0.010-0.248 0.028-0.368l-0.002 0.014 0.030-0.177c0.016-0.057 0.039-0.113 0.057-0.177 0.045-0.122 0.093-0.225 0.147-0.323l-0.006 0.012c0.111-0.216 0.228-0.401 0.361-0.574l-0.007 0.009c0.128-0.183 0.304-0.324 0.509-0.408l0.008-0.003c-0.188 0.11-0.338 0.268-0.434 0.457l-0.003 0.006c-0.094 0.168-0.181 0.364-0.251 0.569l-0.007 0.025c-0.034 0.085-0.064 0.187-0.085 0.292l-0.002 0.012c0 0.048-0.021 0.096-0.027 0.145v0.152c0 0.107 0.008 0.213 0.023 0.316l-0.001-0.012c0.018 0.103 0.037 0.205 0.060 0.306 0.125 0.455 0.278 0.848 0.466 1.221l-0.017-0.037c0.211 0.436 0.417 0.799 0.644 1.147l-0.024-0.040c0.041 0.061 0.066 0.135 0.066 0.216 0 0.213-0.173 0.385-0.385 0.385-0.132 0-0.249-0.067-0.319-0.168l-0.001-0.001c-0.014-0.016-0.025-0.034-0.032-0.042zM6.058 11.877l1.019-1.511-0.531 1.739c-0.029 0.12-0.135 0.207-0.262 0.207-0.149 0-0.269-0.12-0.269-0.269 0-0.034 0.006-0.067 0.018-0.097l-0.001 0.002c0.005-0.027 0.014-0.050 0.025-0.072l-0.001 0.001zM12.775 11.725l0.506-1.748 0.019 1.821c-0.022 0.129-0.132 0.225-0.265 0.225s-0.244-0.097-0.265-0.224l-0-0.002c-0-0.005-0-0.010-0-0.016 0-0.020 0.002-0.040 0.006-0.059l-0 0.002zM22.948 12.162l-0.246-1.803 0.756 1.656c0.020 0.037 0.032 0.080 0.032 0.127 0 0.149-0.12 0.269-0.269 0.269-0.114 0-0.211-0.071-0.251-0.171l-0.001-0.002c-0.010-0.022-0.017-0.048-0.021-0.074l-0-0.002zM5.91 20.961c0-0.046-0.073-0.083-0.119-0.131-0.221 0.202-0.193 0.368 0.058 0.492 0.179-0.126 0.062-0.242 0.060-0.361zM5.496 20.448c0.018 0.097 0.030 0.207 0.225 0.239 0.025-0.039 0.064-0.076 0.067-0.111 0.002-0.040 0.003-0.087 0.003-0.135 0-0.334-0.050-0.657-0.143-0.961l0.006 0.023c0-0.034-0.092-0.053-0.186-0.106-0.028 0.092-0.048 0.2-0.055 0.311l-0 0.004c0.018 0.246 0.046 0.492 0.083 0.736zM5.485 19.194c0.074-0.061 0.122-0.152 0.122-0.255 0-0.020-0.002-0.040-0.005-0.059l0 0.002-0.073-0.708c-0.032-0.294-0.087-0.586-0.115-0.885-0.014-0.051-0.034-0.096-0.060-0.137l0.001 0.002c-0.165 0.067-0.163 0.149-0.163 0.225 0 0.23 0.009 0.46 0.016 0.692s0.016 0.462 0.042 0.692c-0 0.006-0 0.014-0 0.021 0 0.173 0.093 0.325 0.232 0.408l0.002 0.001zM5.768 21.763c0.085 0.218 0.212 0.423 0.177 0.674-0.014 0.11 0.057 0.214 0.248 0.234 0.028-0.046 0.044-0.102 0.044-0.162 0-0.046-0.010-0.090-0.028-0.13l0.001 0.002c-0.041-0.177-0.065-0.354-0.099-0.518-0.018-0.108-0.042-0.203-0.073-0.294l0.004 0.013c-0.014-0.041-0.069-0.071-0.127-0.124-0.159 0.111-0.188 0.198-0.147 0.306zM6.778 25.537c0.062 0.216 0.111 0.435 0.188 0.646 0.161 0.432 0.226 0.885 0.421 1.313 0.1 0.239 0.204 0.541 0.289 0.851l0.013 0.057c0.037 0.159 0.055 0.251 0.083 0.341 0.092 0.292 0.191 0.584 0.292 0.876 0.028 0.085 0.101 0.159 0.188 0.117 0.058-0.030 0.090-0.131 0.111-0.203 0.012-0.037-0.027-0.087-0.041-0.131-0.085-0.28-0.177-0.557-0.249-0.839-0.115-0.456-0.237-0.832-0.378-1.198l0.024 0.071c-0.087-0.23-0.147-0.471-0.216-0.708l-0.288-1.012c-0.040-0.135-0.094-0.252-0.163-0.36l0.003 0.006c-0.037-0.039-0.089-0.064-0.147-0.064-0.010 0-0.021 0.001-0.031 0.002l0.001-0c-0.051 0.018-0.080 0.103-0.111 0.163-0.007 0.014 0.004 0.050 0.011 0.073zM6.86 25.208c0.101-0.104 0.115-0.177 0-0.223-0.003-0-0.007-0-0.010-0-0.051 0-0.098 0.017-0.135 0.045l0.001-0c-0.060 0.096-0.002 0.149 0.145 0.179zM6.626 24.822c0.047 0.032 0.102 0.060 0.159 0.081l0.005 0.002c0.002-0.031 0.003-0.068 0.003-0.104s-0.001-0.073-0.003-0.109l0 0.005c-0.046-0.251-0.081-0.506-0.14-0.754-0.088-0.354-0.193-0.72-0.292-1.079 0-0.027-0.078-0.037-0.177-0.078-0.018 0.076-0.029 0.163-0.030 0.252v0.001c0.029 0.204 0.065 0.38 0.11 0.551l-0.007-0.033c0.104 0.386 0.214 0.771 0.329 1.154 0.005 0.042 0.020 0.080 0.043 0.112l-0.001-0.001zM5.338 13.406c0.013 0.042 0.020 0.090 0.020 0.14 0 0.126-0.046 0.241-0.121 0.329l0.001-0.001c-0.015 0.026-0.023 0.058-0.023 0.091 0 0.004 0 0.007 0 0.010l-0-0c-0.031 0.152-0.048 0.327-0.048 0.506 0 0.039 0.001 0.077 0.002 0.115l-0-0.005c0.001 0.030 0.001 0.065 0.001 0.101 0 0.228-0.014 0.452-0.041 0.672l0.003-0.027c-0.003 0.043-0.005 0.092-0.005 0.142s0.002 0.1 0.005 0.149l-0-0.007c0.003 0.028 0.004 0.061 0.004 0.093 0 0.092-0.012 0.182-0.034 0.268l0.002-0.007c-0.006 0.036-0.010 0.077-0.010 0.119 0 0.084 0.014 0.165 0.039 0.24l-0.002-0.005c0.014 0.060 0.087 0.106 0.218 0.055 0.019-0.074 0.035-0.163 0.044-0.254l0.001-0.008c0-0.269 0.030-0.531 0.044-0.807 0.015-0.377 0.053-0.732 0.111-1.079l-0.007 0.049c0.016-0.107 0.025-0.231 0.025-0.357 0-0.034-0.001-0.068-0.002-0.101l0 0.005c0.003-0.162 0.038-0.315 0.1-0.453l-0.003 0.007c0.034-0.074-0.034-0.177-0.057-0.271-0.209 0.037-0.297 0.152-0.267 0.288zM5.598 12.969l-0.005-0.007v0.002l0.005 0.005zM5.329 16.543c-0.299 0.177-0.294 0.278-0.011 0.432 0.067-0.051 0.109-0.131 0.109-0.22 0-0.085-0.038-0.161-0.098-0.211l-0-0zM5.602 13.116l-0.005-0.005 0.002 0.007 0.004-0.002z"></path>
<path d="M5.752 11.87c-0.051 0-0.101-0.011-0.152-0.018-0.009 0.051-0.015 0.109-0.015 0.168 0 0.012 0 0.024 0.001 0.035l-0-0.002c0.004 0.024 0.006 0.053 0.006 0.081 0 0.104-0.028 0.201-0.076 0.284l0.001-0.003c-0.049 0.064-0.078 0.146-0.078 0.234 0 0.126 0.060 0.239 0.153 0.31l0.001 0.001c0.048-0.062 0.12-0.119 0.142-0.188 0.088-0.287 0.177-0.572 0.264-0.856-0.070-0.030-0.152-0.048-0.238-0.048-0.003 0-0.006 0-0.008 0h0zM8.493 30.726l0.472 0.267c-0.14-0.322-0.285-0.635-0.435-0.948-0.034-0.073-0.119-0.122-0.177-0.177-0.061 0.076-0.098 0.174-0.098 0.281 0 0.122 0.048 0.232 0.127 0.314l-0-0c0.059 0.072 0.099 0.162 0.111 0.261l0 0.002zM3.34 18.077c-0.009 0.027-0.017 0.059-0.022 0.092l-0.001 0.004c-0.023 0.225 0.081 0.437 0.051 0.662 0 0 0 0.016 0.011 0.023 0.060 0.105 0.096 0.231 0.096 0.366 0 0.045-0.004 0.089-0.012 0.132l0.001-0.005c-0.002 0.014-0.002 0.030-0.002 0.047 0 0.159 0.080 0.3 0.202 0.384l0.002 0.001c0.053-0.074 0.099-0.111 0.103-0.147 0.011-0.159 0.016-0.318 0.012-0.476 0-0.276-0.023-0.55-0.021-0.826-0.003-0.094-0.012-0.183-0.026-0.27l0.002 0.012c-0.011-0.067-0.048-0.127-0.177-0.124s-0.196 0.051-0.218 0.126zM3.641 20.262c0.034 0.127 0.056 0.273 0.058 0.423l0 0.002c0.060 0.354 0.14 0.708 0.211 1.062 0.009 0.056 0.025 0.106 0.047 0.152l-0.001-0.003c0.033 0.051 0.083 0.088 0.142 0.104l0.002 0c0.059-0.033 0.102-0.089 0.116-0.156l0-0.002c0.001-0.012 0.002-0.025 0.002-0.039 0-0.044-0.006-0.087-0.016-0.128l0.001 0.003c-0.094-0.49-0.2-0.98-0.271-1.474-0.014-0.083 0-0.177-0.177-0.223-0.113 0.085-0.15 0.186-0.113 0.278zM3.539 17.488c-0.248 0.127-0.258 0.15-0.083 0.31 0.26-0.15 0.269-0.172 0.083-0.31zM4.172 22.884c0.039 0.188 0.060 0.38 0.106 0.566 0.062 0.249 0.136 0.495 0.219 0.736 0.028 0.083 0.028 0.188 0.255 0.202 0.014-0.067 0.021-0.144 0.021-0.223 0-0.033-0.001-0.066-0.004-0.098l0 0.004-0.442-1.769c-0.012-0.051-0.069-0.092-0.131-0.177-0.157 0.195-0.157 0.195-0.131 0.306 0.035 0.157 0.078 0.304 0.106 0.453zM4.708 25.062c0.042 0.062 0.071 0.137 0.079 0.217l0 0.002c-0.001 0.014-0.001 0.031-0.001 0.048 0 0.162 0.039 0.316 0.108 0.451l-0.003-0.006c0.079 0.11 0.144 0.238 0.187 0.374l0.003 0.009c0.045 0.331 0.121 0.63 0.227 0.913l-0.009-0.029c0.028 0.103 0.049 0.223 0.058 0.347l0 0.006c0.053 0.242 0.189 0.469 0.253 0.708s0.149 0.52 0.23 0.777c0.018 0.057 0.021 0.133 0.189 0.099 0.113-0.074 0.14-0.147 0.119-0.221-0.064-0.221-0.129-0.441-0.177-0.665-0.081-0.372-0.226-0.731-0.301-1.104-0.028-0.16-0.069-0.303-0.125-0.438l0.005 0.014c-0.111-0.211-0.19-0.456-0.224-0.716l-0.001-0.011c0-0.101 0.041-0.212-0.014-0.297-0.148-0.231-0.266-0.499-0.338-0.785l-0.004-0.019c-0.016-0.060-0.051-0.117-0.225-0.129-0.054 0.070-0.086 0.159-0.086 0.255 0 0.072 0.018 0.14 0.050 0.2l-0.001-0.002zM6.37 29.703c0.004-0.024 0.007-0.051 0.007-0.079 0-0.083-0.021-0.16-0.059-0.228l0.001 0.002c-0.048-0.099-0.027-0.244-0.218-0.283-0.006 0.032-0.009 0.069-0.009 0.106 0 0.181 0.079 0.344 0.205 0.456l0.001 0.001zM3.956 12.369c-0.1 0.060-0.217 0.116-0.339 0.161l-0.015 0.005c-0.009 0.034-0.021 0.067-0.030 0.103-0.028 0.111-0.035 0.228-0.057 0.341-0.035 0.218-0.092 0.434-0.106 0.653s-0.014 0.437-0.030 0.653c-0.007 0.231-0.040 0.451-0.097 0.662l0.005-0.020c-0.002 0.024-0.003 0.053-0.003 0.081 0 0.097 0.014 0.191 0.041 0.279l-0.002-0.007c0 0.039 0.032 0.087 0.009 0.119-0.075 0.112-0.121 0.251-0.121 0.399 0 0.057 0.007 0.112 0.019 0.165l-0.001-0.005c0.011 0.136 0.018 0.272 0.023 0.407v0.214c0 0.205 0.011 0.41 0.028 0.614 0 0.065 0.083 0.11 0.216 0.111 0.249-0.207 0.196-0.433 0.149-0.648-0.096-0.444 0-0.885 0-1.329 0-0.226 0.071-0.453 0.087-0.683 0.018-0.324 0.035-0.653 0.071-0.978 0.028-0.23 0.096-0.457 0.129-0.688 0.028-0.174 0.046-0.376 0.050-0.582l0-0.004c-0-0.016-0.004-0.030-0.011-0.043l0 0.001zM7.394 18.819c0-0.035-0.053-0.065-0.090-0.11-0.177 0.099-0.177 0.205-0.138 0.301 0.067 0.194 0.106 0.417 0.106 0.649 0 0.009-0 0.018-0 0.026v-0.001c0 0.134 0.019 0.269 0.034 0.403s0.041 0.267 0.062 0.402c0.009 0.121 0.077 0.223 0.175 0.28l0.002 0.001c0.034-0.023 0.065-0.037 0.067-0.046-0.005-0.342-0.036-0.673-0.092-0.995l0.005 0.038c-0.046-0.315-0.111-0.628-0.131-0.948zM7.544 21.322c0.085 0.382 0.189 0.761 0.269 1.145s0.177 0.747 0.278 1.12c0.044 0.177 0.074 0.368 0.122 0.549 0.031 0.101 0.065 0.185 0.104 0.266l-0.005-0.012c0.029 0.058 0.059 0.131 0.086 0.206l0.005 0.015c0.053 0.198 0.096 0.398 0.154 0.595 0.12 0.403 0.334 0.775 0.4 1.196 0.005 0.072 0.060 0.13 0.13 0.14l0.001 0c0.115-0.041 0.119-0.081 0.113-0.122-0.025-0.367-0.115-0.707-0.259-1.017l0.007 0.018c-0.019-0.027-0.036-0.057-0.049-0.089l-0.001-0.003c-0.043-0.244-0.102-0.458-0.177-0.664l0.009 0.027c-0.12-0.267-0.078-0.58-0.267-0.826-0.011-0.012 0.011-0.037 0-0.053-0.027-0.12-0.053-0.241-0.083-0.354-0.087-0.336-0.165-0.674-0.257-1.009l-0.384-1.299c-0.005-0.091-0.065-0.166-0.147-0.194l-0.002-0c-0.035 0.057-0.067 0.088-0.067 0.113-0.001 0.016-0.001 0.034-0.001 0.053 0 0.071 0.008 0.14 0.022 0.206l-0.001-0.006zM7.191 18.555c0.046-0.035 0.11-0.064 0.111-0.090 0-0.085 0.053-0.177-0.115-0.242-0.11 0.161-0.11 0.163 0.004 0.333zM7.118 17.516c0.085-0.034 0.144-0.116 0.144-0.211 0-0.021-0.003-0.042-0.008-0.061l0 0.002c0-0.053-0.021-0.108-0.136-0.12-0.17 0.172-0.173 0.214 0 0.391zM7.141 15.476c0.066-0.064 0.107-0.154 0.107-0.253 0-0.022-0.002-0.044-0.006-0.066l0 0.002c0-0.104 0.087-0.221-0.126-0.333-0.188 0.223-0.131 0.439 0.025 0.649zM7.169 16.474c0.223-0.237 0.032-0.474 0.088-0.708 0.014-0.060-0.018-0.12-0.108-0.163-0.189 0.11-0.219 0.156-0.195 0.559-0.004 0.016-0.006 0.035-0.006 0.054 0 0.129 0.095 0.237 0.218 0.257l0.002 0zM7.206 16.644c-0.017-0.021-0.043-0.034-0.072-0.034-0 0-0 0-0.001 0h0c-0.040 0.002-0.076 0.016-0.105 0.039l0-0c-0.103 0.12-0.080 0.237 0.078 0.363 0.191-0.129 0.127-0.249 0.099-0.368zM7.141 17.598c-0.211 0.195-0.124 0.354 0.030 0.51 0.122-0.096 0.131-0.097 0.122-0.177-0.011-0.106 0.055-0.237-0.152-0.333zM9.413 27.511c0.054-0.041 0.088-0.105 0.088-0.177 0-0.042-0.012-0.081-0.032-0.115l0.001 0.001c-0.016-0.051-0.050-0.099-0.163-0.080-0.117 0.212-0.106 0.242 0.106 0.37zM9.257 26.651c-0.014-0.009-0.032-0.015-0.050-0.015-0.010 0-0.019 0.002-0.028 0.004l0.001-0c-0.037 0.013-0.067 0.036-0.088 0.067l-0 0.001c-0.062 0.145-0.011 0.251 0.177 0.327 0.145-0.177 0.055-0.278-0.011-0.384zM9.457 27.591c-0.156 0.244-0.034 0.373 0.156 0.488 0.094-0.122 0.103-0.124 0.076-0.196-0.041-0.104-0.007-0.244-0.232-0.292zM7.498 12.695l-0.143-0.087c-0.012 0.029-0.022 0.063-0.028 0.098l-0 0.003c-0.076 0.366-0.136 0.738-0.177 1.109-0.002 0.009-0.003 0.020-0.003 0.031s0.001 0.022 0.003 0.032l-0-0.001c0.004 0.027 0.007 0.057 0.007 0.089 0 0.097-0.023 0.188-0.063 0.269l0.002-0.004c-0.033 0.104-0.051 0.225-0.051 0.349 0 0.002 0 0.003 0 0.005v-0c0 0.032 0.057 0.069 0.103 0.119 0.073-0.048 0.125-0.124 0.141-0.212l0-0.002c0.013-0.176 0.050-0.339 0.107-0.492l-0.004 0.012c0.193-0.396 0.177-0.817 0.251-1.23-0.051-0.044-0.097-0.060-0.143-0.088zM9.823 29.017c-0.007-0.018-0.011-0.039-0.011-0.060v0c-0.006-0.122-0.052-0.231-0.124-0.317l0.001 0.001c-0.054-0.091-0.096-0.197-0.121-0.31l-0.001-0.007c0-0.032 0.041-0.080 0.073-0.138 0.082 0.032 0.145 0.095 0.176 0.175l0.001 0.002c0.052 0.166 0.121 0.31 0.206 0.442l-0.004-0.007c0.28 0.354 0.334 0.796 0.476 1.203 0.023 0.065 0.053 0.142-0.088 0.232-0.003 0-0.007 0-0.011 0-0.106 0-0.195-0.076-0.215-0.176l-0-0.001c-0.12-0.345-0.237-0.685-0.356-1.039zM10.343 30.39c0.021-0.033 0.051-0.058 0.087-0.072l0.001-0c0.035-0.011 0.104-0.011 0.111 0 0.055 0.106 0.168 0.189 0.207 0.301l-0.311 0.12c-0.043-0.069-0.082-0.149-0.112-0.233l-0.003-0.009c-0.002-0.009-0.003-0.019-0.003-0.029 0-0.029 0.008-0.055 0.023-0.078l-0 0.001z"></path>
<path d="M3.572 15.841c0.337 0.36 0.773 0.624 1.265 0.748l0.018 0.004c0.073 0.019 0.177 0.046 0.195 0.081 0.081 0.134 0.29 0.203 0.451 0.297 0.169 0.117 0.365 0.21 0.575 0.269l0.014 0.003c0.149 0.177 0.552 0.202 0.738 0.354 0.054 0.024 0.118 0.039 0.185 0.039 0.057 0 0.111-0.010 0.162-0.029l-0.003 0.001c0.078-0.037 0.058-0.11-0.060-0.177-0.241-0.119-0.492-0.239-0.738-0.366-0.086-0.055-0.19-0.114-0.298-0.168l-0.021-0.009c-0.616-0.254-1.148-0.573-1.624-0.958l0.012 0.009c-0.18-0.136-0.398-0.232-0.636-0.271l-0.008-0.001c-0.221 0.004-0.313 0.080-0.226 0.173zM8.9 17.032c0.044 0.044 0.098 0.077 0.158 0.095l0.003 0.001c0.011 0.001 0.025 0.001 0.038 0.001 0.069 0 0.135-0.008 0.199-0.023l-0.006 0.001c0.016 0 0.021-0.021 0.030-0.032-0.019-0.062-0.221-0.111-0.354-0.085-0.032 0.005-0.076 0.037-0.069 0.042zM10.485 16.329c-0.218-0.097-0.435-0.2-0.653-0.304s-0.428-0.214-0.644-0.326c-0.062-0.032-0.177-0.046-0.226-0.081-0.246-0.193-0.533-0.348-0.844-0.451l-0.020-0.006c-0.028-0.009-0.051-0.027-0.067-0.049l-0-0c-0.106-0.177-0.4-0.295-0.635-0.437-0.485-0.295-0.977-0.609-1.442-0.947-0.301-0.219-0.566-0.464-0.885-0.69-0.325-0.216-0.607-0.431-0.874-0.662l0.011 0.009c-0.040-0.031-0.084-0.060-0.131-0.086l-0.005-0.002c-0.039 0.025-0.078 0.050-0.119 0.073s-0.058 0.032-0.087 0.048c0.014 0.101 0.113 0.177 0.212 0.255 0.175 0.126 0.33 0.256 0.473 0.397l-0-0c0.196 0.237 0.531 0.407 0.754 0.617 0.224 0.198 0.475 0.375 0.745 0.52l0.021 0.010c0.283 0.157 0.471 0.354 0.805 0.478 0.145 0.087 0.319 0.178 0.499 0.258l0.032 0.013c0.030 0.008 0.054 0.028 0.067 0.054l0 0.001c0.025 0.092 0.143 0.14 0.304 0.166 0.094 0.016 0.149 0.034 0.142 0.088 0 0.043 0.028 0.080 0.067 0.094l0.001 0c0.196 0.078 0.327 0.189 0.518 0.251 0.173 0.058 0.323 0.137 0.457 0.237l-0.004-0.003c0.238 0.154 0.515 0.306 0.803 0.439l0.042 0.017c0.116 0.050 0.259 0.1 0.405 0.141l0.024 0.006c0.048 0.012 0.103 0.019 0.159 0.019h0c0.129 0 0.214-0.046 0.159-0.094-0.019-0.020-0.041-0.037-0.064-0.052l-0.001-0.001zM3.507 14.011c-0.003 0.009-0.005 0.020-0.005 0.032 0 0.034 0.017 0.065 0.044 0.083l0 0c0.235 0.119 0.287 0.34 0.628 0.391 0.019 0 0.035 0.027 0.044 0.041 0.159 0.246 0.469 0.419 0.777 0.595 0.518 0.292 1.030 0.57 1.483 0.856 0.31 0.193 0.708 0.311 1.039 0.472 0.057 0.021 0.123 0.034 0.192 0.034 0.001 0 0.002 0 0.003 0h-0c0.203 0.011 0.308-0.053 0.214-0.136-0.078-0.061-0.167-0.114-0.263-0.155l-0.008-0.003c-0.246-0.115-0.508-0.23-0.757-0.354-0.531-0.257-0.931-0.596-1.499-0.867-0.064-0.029-0.118-0.068-0.164-0.115l-0-0c-0.156-0.177-0.444-0.285-0.72-0.395-0.092-0.034-0.171-0.080-0.24-0.137l0.002 0.001c-0.163-0.131-0.368-0.248-0.557-0.372-0.030-0.011-0.065-0.020-0.101-0.023l-0.002-0c-0.030 0.018-0.101 0.028-0.108 0.051zM8.010 16.688c0.127 0.057 0.283 0.097 0.453 0.152 0.050-0.044 0.113-0.074 0.103-0.096-0.085-0.103-0.211-0.171-0.353-0.177l-0.001-0c-0.018-0.003-0.040-0.005-0.061-0.005-0.046 0-0.090 0.008-0.13 0.024l0.003-0.001c-0.030 0.023-0.050 0.087-0.012 0.103zM3.686 19.349c0.052 0.041 0.116 0.068 0.186 0.076l0.002 0c0.304 0.048 0.575 0.158 0.811 0.316l-0.007-0.005c0.127 0.086 0.281 0.142 0.447 0.154l0.003 0c0.113 0 0.203 0.023 0.235 0.092s0.147 0.092 0.34 0.064c0.025-0.012 0.134-0.044 0.142-0.073s-0.053-0.076-0.11-0.096-0.219-0.025-0.269-0.064c-0.354-0.276-0.994-0.387-1.323-0.708-0.064-0.048-0.146-0.077-0.234-0.077-0.061 0-0.119 0.014-0.17 0.039l0.002-0.001c-0.067 0.020-0.115 0.082-0.115 0.154 0 0.051 0.024 0.097 0.062 0.127l0 0zM9.919 30.287c-0.021-0.003-0.046-0.005-0.070-0.005-0.086 0-0.166 0.022-0.236 0.061l0.002-0.001c-0.021-0.085-0.099-0.14-0.255-0.122-0.040 0.009-0.086 0.014-0.134 0.014-0.1 0-0.194-0.023-0.279-0.064l0.004 0.002c-0.025-0.008-0.055-0.013-0.085-0.013-0.065 0-0.124 0.022-0.172 0.058l0.001-0c-0.046 0.035-0.104 0.097-0.088 0.119 0.038 0.032 0.088 0.052 0.142 0.052 0.006 0 0.011-0 0.017-0.001l-0.001 0c0.076 0 0.191-0.057 0.237 0 0.104 0.126 0.317 0.090 0.564 0-0.023 0.090 0.030 0.138 0.157 0.152l0.825 0.094 0.14 0.014 0.655-0.255-0.223-0.016zM5.414 18.401c0.055 0.040 0.118 0.077 0.185 0.105l0.006 0.002c0.067 0.034 0.149 0.060 0.216 0.092 0.244 0.119 0.467 0.246 0.727 0.343 0.318 0.106 0.582 0.215 0.836 0.341l-0.038-0.017c0.044 0.025 0.096 0.045 0.15 0.058l0.004 0.001c0.031 0.007 0.067 0.012 0.104 0.012 0.089 0 0.171-0.025 0.242-0.068l-0.002 0.001c0.023-0.015 0.039-0.041 0.039-0.070 0-0.024-0.010-0.045-0.026-0.061l-0-0c-0.102-0.080-0.219-0.146-0.345-0.195l-0.009-0.003c-0.457-0.163-0.932-0.331-1.401-0.517-0.104-0.042-0.193-0.097-0.301-0.138-0.059-0.020-0.132-0.038-0.206-0.052l-0.010-0.002c-0.18 0.025-0.248 0.106-0.17 0.166zM3.286 17.419c0 0.124 0.131 0.177 0.267 0.221 0.354 0.113 0.724 0.219 1.088 0.317 0.011 0.001 0.023 0.001 0.036 0.001 0.042 0 0.082-0.004 0.122-0.012l-0.004 0.001c0-0.027 0-0.060-0.023-0.080-0.099-0.071-0.203-0.142-0.317-0.207l-0.656-0.391c-0.055-0.031-0.121-0.049-0.191-0.049-0.059 0-0.115 0.013-0.165 0.036l0.002-0.001c-0.073 0.035-0.106 0.108-0.159 0.165zM9.45 17.327c0.177 0.021 0.235 0.062 0.283 0.133 0.092 0.079 0.213 0.128 0.345 0.128 0.006 0 0.012-0 0.018-0l-0.001 0c0.133 0.012 0.281-0.039 0.267-0.099 0 0-0.016-0.028-0.041-0.039l-0.665-0.276c-0.030-0.010-0.064-0.016-0.1-0.016-0.059 0-0.114 0.016-0.161 0.043l0.002-0.001c-0.073 0.048-0.062 0.115 0.053 0.127zM7.974 20.685c0.052-0.015 0.098-0.035 0.14-0.061l-0.002 0.001c-0.058-0.048-0.083-0.097-0.15-0.117-0.223-0.071-0.455-0.14-0.708-0.202-0.317-0.081-0.699-0.11-0.945-0.257-0.018-0.012-0.040-0.020-0.063-0.021l-0-0c-0.002-0-0.004-0-0.007-0-0.065 0-0.127 0.010-0.186 0.028l0.004-0.001c-0.044 0.025-0.085 0.087-0.064 0.106 0.055 0.055 0.128 0.093 0.209 0.102l0.002 0c0.005-0 0.012-0 0.018-0 0.093 0 0.178 0.036 0.241 0.094l-0-0c0.081 0.045 0.175 0.077 0.275 0.091l0.005 0.001c0.343 0.061 0.641 0.137 0.929 0.234l-0.045-0.013c0.064 0.015 0.137 0.023 0.213 0.023 0.047 0 0.094-0.003 0.139-0.010l-0.005 0.001zM8.705 19.709c0.125 0.026 0.278 0.047 0.434 0.059l0.014 0.001c0.067-0.018 0.126-0.042 0.181-0.073l-0.004 0.002c0.004-0.007 0.006-0.016 0.006-0.026 0-0.026-0.017-0.048-0.041-0.056l-0-0q-0.52-0.152-1.062-0.318c-0.065-0.019-0.15-0.071-0.241-0.012-0.027 0.021-0.045 0.054-0.045 0.090 0 0.018 0.004 0.035 0.012 0.050l-0-0.001c0.030 0.044 0.075 0.077 0.128 0.090l0.002 0c0.198 0.071 0.405 0.14 0.617 0.193zM7.711 30.3c0.177 0.011 0.354 0.018 0.531 0.034 0.004 0 0.010 0 0.015 0 0.037 0 0.072-0.007 0.104-0.021l-0.002 0.001c0.061-0.035 0.113-0.070 0.163-0.109l-0.003 0.003c-0.051-0.033-0.109-0.063-0.17-0.088l-0.007-0.003c-0.177-0.048-0.384-0.074-0.545-0.136-0.32-0.12-0.741-0.129-1.136-0.177 0.429 0.176 0.774 0.342 1.109 0.525l-0.059-0.029zM8.723 13.951c-0.054-0.029-0.117-0.046-0.185-0.046-0.039 0-0.078 0.006-0.114 0.017l0.003-0.001c-0.065 0.044-0.042 0.097 0.039 0.149 0.138 0.076 0.302 0.124 0.476 0.131l0.002 0c0.044-0.096-0.055-0.175-0.221-0.249zM13.942 29.254c-0.018-0.005-0.038-0.008-0.059-0.009l-0.001-0c-0.423-0.032-0.812-0.115-1.29-0.111-0.12-0.003-0.235-0.015-0.347-0.034l0.015 0.002-0.759-0.085c-0.177-0.021-0.354-0.034-0.531-0.057l-0.807-0.127c-0.165-0.023-0.354-0.023-0.518-0.042l-1.214-0.15-1.539-0.177c-0.177-0.019-0.354-0.034-0.531-0.046-0.002-0-0.005-0-0.008-0-0.052 0-0.103 0.005-0.153 0.013l0.005-0.001c-0.177 0.060-0.265 0.163-0.205 0.226 0.034 0.027 0.072 0.049 0.114 0.066l0.003 0.001c0.182 0.073 0.393 0.116 0.615 0.116 0.042 0 0.083-0.002 0.123-0.004l-0.005 0c0.429 0.012 0.838 0.051 1.238 0.117l-0.053-0.007 1.217 0.15c0.146 0.013 0.278 0.036 0.406 0.068l-0.018-0.004c0.272 0.063 0.585 0.1 0.906 0.1 0.089 0 0.177-0.003 0.265-0.008l-0.012 0.001c0.047-0.001 0.102-0.002 0.158-0.002 0.272 0 0.54 0.017 0.802 0.051l-0.031-0.003c0.274 0.067 0.597 0.117 0.928 0.14l0.018 0.001c0.060-0.004 0.129-0.006 0.199-0.006 0.222 0 0.439 0.021 0.649 0.060l-0.022-0.003c0.016 0.001 0.035 0.002 0.055 0.002 0.084 0 0.165-0.014 0.241-0.041l-0.005 0.002c0.080-0.022 0.15-0.054 0.213-0.096l-0.003 0.002c0.076-0.060 0.012-0.094-0.058-0.104zM8.958 14.314c0.053 0.037 0.118 0.062 0.188 0.069l0.002 0c0.051 0 0.157-0.019 0.152-0.034-0.025-0.046-0.066-0.080-0.115-0.097l-0.001-0c-0.066-0.020-0.144-0.036-0.224-0.045l-0.006-0.001c-0.005 0.035-0.027 0.076 0.005 0.108zM8.953 14.206v-0.005h-0.009l-0.002 0.004 0.011 0.002zM5.131 18.072c-0.053 0.016-0.083 0.060-0.124 0.092 0.073 0.027 0.163 0.053 0.256 0.073l0.014 0.003c0.018 0 0.080-0.055 0.106-0.074-0.038-0.063-0.106-0.105-0.184-0.105-0.025 0-0.048 0.004-0.070 0.012l0.002-0zM8.937 18.477c0.281 0.039 0.453 0.156 0.771 0.154 0.055 0 0.094 0.035 0.143 0.051 0.048 0.020 0.107 0.040 0.168 0.055l0.009 0.002c0.157 0.034 0.311 0.023 0.336-0.014s-0.065-0.083-0.143-0.106-0.285-0.035-0.322-0.081c-0.12-0.147-0.464-0.177-0.708-0.255-0.415-0.122-0.767-0.259-1.105-0.422l0.043 0.019c-0.152-0.072-0.334-0.139-0.522-0.191l-0.025-0.006c-0.056-0.011-0.121-0.018-0.188-0.019l-0.001-0c-0.019 0.035-0.064 0.074-0.042 0.092 0.076 0.065 0.16 0.124 0.251 0.173l0.008 0.004c0.262 0.136 0.593 0.225 0.819 0.375 0.145 0.090 0.318 0.151 0.503 0.169l0.005 0zM4.777 21.035c-0.129-0.090-0.278-0.167-0.436-0.223l-0.013-0.004c-0.065-0.012-0.141-0.019-0.218-0.019s-0.152 0.007-0.225 0.020l0.008-0.001c-0.039 0-0.119 0.090-0.11 0.124 0.050 0.189 0.58 0.354 0.885 0.278 0.11-0.023 0.189-0.119 0.11-0.175zM11.428 26.54l-0.15-0.023c-0.025 0.030-0.067 0.064-0.069 0.087s0.058 0.019 0.108 0.034zM5.412 27.002c-0.005 0.012-0.008 0.027-0.008 0.042 0 0.041 0.023 0.077 0.057 0.094l0.001 0c0.247 0.090 0.564 0.182 0.887 0.256l0.058 0.011c0.384 0.081 0.794 0.133 1.198 0.191 0.177 0.025 0.38 0.028 0.552 0.058l1.398 0.258c0.046 0.015 0.099 0.026 0.154 0.032l0.003 0c0.674 0 1.239 0.129 1.851 0.177 0.472 0.039 1.021 0 1.415 0.115 0.027 0.002 0.057 0.003 0.088 0.003s0.062-0.001 0.092-0.004l-0.004 0c0.001 0 0.001 0 0.002 0 0.081 0 0.154-0.035 0.205-0.090l0-0c0.050-0.051 0.050-0.096-0.025-0.108-0.126-0.021-0.249-0.044-0.38-0.060l-1.279-0.168c-0.056-0.014-0.122-0.025-0.189-0.030l-0.004-0c-0.444-0.017-0.864-0.066-1.272-0.146l0.052 0.008c-0.333-0.042-0.687-0.067-1.026-0.108-0.193-0.023-0.354-0.073-0.563-0.087-0.316-0.015-0.615-0.061-0.902-0.134l0.031 0.007c-0.187-0.065-0.409-0.119-0.638-0.152l-0.020-0.002c-0.26-0.017-0.501-0.081-0.72-0.182l0.013 0.005c-0.065-0.039-0.141-0.067-0.223-0.081l-0.004-0.001c-0.193-0.025-0.402-0.035-0.612-0.051-0.085 0.062-0.173 0.106-0.188 0.145zM5.043 25.634c0.152 0.156 0.362 0.256 0.594 0.265l0.002 0c0.205 0 0.384 0.030 0.57 0.050 0.257 0.020 0.494 0.061 0.723 0.121l-0.028-0.006c0.352 0.097 0.759 0.16 1.179 0.177l0.010 0c0.388 0.009 0.76 0.055 1.12 0.133l-0.039-0.007c0.159 0.042 0.354 0.060 0.495 0.11 0.062 0.017 0.134 0.027 0.208 0.027 0.173 0 0.333-0.055 0.464-0.148l-0.002 0.002c-0.467-0.183-1.007-0.297-1.571-0.313l-0.007-0c-0.063-0.001-0.124-0.008-0.184-0.019l0.007 0.001c-0.448-0.083-0.901-0.163-1.339-0.258-0.403-0.058-0.761-0.144-1.107-0.259l0.045 0.013c-0.257-0.11-0.621-0.080-0.994-0.019-0.096 0.011-0.189 0.094-0.145 0.131zM10.347 26.351l0.002-0.005-0.011 0.005 0.004 0.002 0.005-0.002zM11.591 26.75c0.265 0.028 0.531 0.053 0.784 0.094 0.018 0.002 0.040 0.003 0.061 0.003 0.12 0 0.231-0.033 0.327-0.090l-0.003 0.002c0.025-0.016 0.047-0.036 0.065-0.058l0-0c-0.014-0.016-0.016-0.035-0.035-0.037-0.343-0.041-0.688-0.083-1.040-0.12-0.063 0.012-0.118 0.039-0.163 0.077l0.001-0c-0.044 0.050-0.11 0.119 0.004 0.131zM10.349 13.643c-0.034-0.025-0.064-0.050-0.101-0.073-0.219-0.14-0.441-0.287-0.658-0.437-0.141 0.025-0.303 0.039-0.469 0.041h-0.001c0.294 0.177 0.589 0.354 0.844 0.547 0.115 0.061 0.252 0.098 0.398 0.098 0.006 0 0.013-0 0.019-0l-0.001 0c0.11-0.018 0.099-0.080-0.030-0.175zM10.938 13.013c0.082 0.015 0.155 0.041 0.222 0.076l-0.004-0.002-0.297-0.090zM9.485 19.79c0 0.051 0.134 0.073 0.269 0.042 0.026-0.011 0.048-0.024 0.068-0.041l-0 0c-0.030-0.060-0.161-0.085-0.274-0.053-0.028 0.009-0.062 0.037-0.062 0.051zM8.328 13.654c-0.349-0.225-0.652-0.458-0.935-0.713l0.006 0.006c-0.081-0.081-0.167-0.156-0.257-0.227l-0.006-0.005c-0.326-0.242-0.658-0.49-0.975-0.764-0.223 0-0.090-0.053-0.409-0.076-0.083 0-0.165-0.018-0.244-0.030 0.448 0.437 0.978 0.802 1.415 1.18 0.081 0.069 0.207 0.126 0.295 0.191 0.27 0.163 0.497 0.318 0.715 0.485l-0.019-0.014c0.107 0.081 0.239 0.134 0.383 0.148l0.003 0c0.069-0.001 0.136-0.013 0.197-0.035l-0.004 0.001c-0.049-0.054-0.103-0.102-0.162-0.145l-0.003-0.002zM8.459 20.878c0.112 0.016 0.242 0.025 0.374 0.025 0.008 0 0.016-0 0.024-0h-0.001l0.196-0.087c-0.031-0.026-0.067-0.048-0.105-0.064l-0.003-0.001c-0.080-0.023-0.178-0.044-0.278-0.059l-0.012-0.001c-0.017-0.003-0.036-0.006-0.056-0.006-0.074 0-0.142 0.028-0.192 0.075l0-0c-0.006 0.011-0.010 0.025-0.010 0.039 0 0.038 0.027 0.071 0.063 0.079l0.001 0z"></path>
<path d="M10.527 26.559c0.088-0.012 0.177-0.014 0.265-0.023 0.025-0.006 0.048-0.016 0.068-0.029l-0.001 0c0.014-0.014 0.027-0.041 0.016-0.042-0.165-0.050-0.248-0.177-0.531-0.115-0.014 0.024-0.029 0.052-0.042 0.082l-0.002 0.005c-0.050 0.134-0.005 0.156 0.226 0.122zM4.892 21.347c0.037 0.034 0.083 0.059 0.134 0.069l0.002 0c0.199 0.014 0.38 0.078 0.535 0.18l-0.004-0.003c0.069 0.026 0.148 0.045 0.231 0.051l0.003 0c0.076 0.005 0.146 0.017 0.214 0.037l-0.007-0.002c0.237 0.095 0.524 0.185 0.819 0.252l0.040 0.008c0.315 0.096 0.708 0.129 0.955 0.274 0.028 0.013 0.061 0.021 0.095 0.023l0.001 0 0.637 0.078c0.051 0.003 0.097 0.021 0.135 0.048l-0.001-0.001c0.113 0.113 0.341 0.065 0.561 0.028 0.11-0.019 0.136-0.069 0.119-0.113s-0.046-0.042-0.076-0.060c-0.224-0.116-0.488-0.188-0.768-0.2l-0.004-0c-0.265-0.023-0.51-0.077-0.742-0.157l0.022 0.006c-0.119-0.033-0.264-0.063-0.412-0.082l-0.016-0.002c-0.289-0.033-0.553-0.095-0.803-0.185l0.025 0.008c-0.379-0.195-0.904-0.26-1.385-0.391-0.036-0.009-0.082-0.018-0.128-0.024l-0.006-0.001c-0.177 0.019-0.246 0.101-0.175 0.156zM10.758 20.1c0.051-0.003 0.099-0.016 0.142-0.038l-0.002 0.001c0.011-0.007 0.018-0.018 0.018-0.032s-0.007-0.025-0.018-0.032l-0-0c-0.171-0.084-0.372-0.135-0.584-0.142l-0.002-0c-0.042 0.004-0.080 0.010-0.118 0.019l0.006-0.001c-0.016 0.025-0.064 0.064-0.046 0.081 0.108 0.111 0.295 0.172 0.603 0.143zM9.388 20.952c0.017 0.019 0.040 0.033 0.066 0.039l0.001 0c0.423 0.129 0.84 0.255 1.27 0.37 0.084 0.021 0.181 0.032 0.281 0.032 0.012 0 0.024-0 0.036-0l-0.002 0c0.059-0.018 0.111-0.042 0.158-0.072l-0.002 0.001c-0.030-0.028-0.039-0.050-0.067-0.058l-1.279-0.386c-0.094-0.023-0.203-0.038-0.315-0.041l-0.002-0c-0.052 0.008-0.099 0.028-0.139 0.056l0.001-0.001c-0.010 0.008-0.016 0.020-0.016 0.034 0 0.010 0.003 0.019 0.009 0.026l-0-0zM4.459 22.736c-0.074 0.081-0.051 0.145 0.060 0.177 0.131 0.040 0.297 0.080 0.467 0.109l0.027 0.004c0.423 0.062 0.885 0.069 1.279 0.166 0.106 0.029 0.242 0.057 0.381 0.077l0.021 0.003c0.163 0.019 0.312 0.057 0.452 0.114l-0.012-0.004c0.185 0.067 0.402 0.119 0.626 0.147l0.015 0.002c0.506 0.083 1.062 0.119 1.463 0.283 0.067 0.026 0.144 0.041 0.225 0.041 0.002 0 0.003 0 0.005-0h-0c0.306 0.008 0.596 0.065 0.867 0.164l-0.019-0.006c0.37 0.103 0.804 0.18 1.251 0.216l0.025 0.002c0.001 0 0.001 0 0.002 0 0.093 0 0.184-0.008 0.273-0.023l-0.010 0.001c0.065-0.039 0.149-0.071 0.159-0.097s-0.030-0.062-0.074-0.071c-0.249-0.044-0.494-0.097-0.764-0.12-0.547-0.046-1.072-0.111-1.433-0.324-0.052-0.026-0.112-0.043-0.175-0.048l-0.001-0c-0.337-0.021-0.652-0.078-0.953-0.169l0.030 0.008c-0.269-0.088-0.589-0.161-0.918-0.206l-0.029-0.003c-0.389-0.058-0.741-0.154-1.155-0.193-0.065-0.005-0.126-0.015-0.184-0.030l0.007 0.002c-0.354-0.083-0.683-0.177-1.037-0.257-0.156-0.032-0.342-0.056-0.531-0.067l-0.010-0c-0.017-0.002-0.036-0.004-0.055-0.004-0.105 0-0.201 0.040-0.273 0.107l0-0zM11.014 22.693c0.059-0.019 0.109-0.047 0.153-0.084l-0.001 0.001s-0.037-0.037-0.073-0.044c-0.152-0.028-0.304-0.057-0.465-0.076-0.047-0.003-0.101-0.004-0.157-0.004s-0.11 0.002-0.164 0.005l0.008-0c-0.032 0.046-0.073 0.081-0.062 0.096 0.032 0.037 0.072 0.066 0.118 0.084l0.002 0.001c0.106 0.040 0.228 0.063 0.356 0.063 0.101 0 0.199-0.014 0.292-0.041l-0.007 0.002zM4.713 24.263c0.157 0.006 0.304 0.037 0.442 0.088l-0.010-0.003c0.155 0.075 0.335 0.126 0.525 0.141l0.005 0c0.278 0.047 0.517 0.105 0.749 0.177l-0.041-0.011c0.064 0.014 0.131 0.027 0.202 0.035 0.14 0.018 0.292 0.023 0.425 0.048 0.492 0.088 1.001 0.157 1.456 0.272 0.266 0.074 0.586 0.136 0.914 0.174l0.030 0.003c0.2 0.019 0.38 0.057 0.572 0.083l0.513 0.064c0.237 0.030 0.478 0.057 0.708 0.094s0.474 0.096 0.724 0.131c0.035 0.003 0.075 0.004 0.116 0.004 0.079 0 0.158-0.006 0.234-0.018l-0.008 0.001c0.115-0.011 0.203-0.088 0.163-0.177-0.042-0.012-0.12-0.042-0.209-0.064-0.545-0.129-1.239-0.133-1.75-0.308-0.104-0.022-0.226-0.036-0.35-0.041l-0.004-0c-0.216-0.028-0.432-0.058-0.639-0.096-0.223-0.066-0.483-0.112-0.751-0.129l-0.010-0c-0.003 0-0.007 0-0.011 0-0.249 0-0.489-0.043-0.712-0.121l0.015 0.005c-0.072-0.023-0.159-0.043-0.248-0.057l-0.010-0.001c-0.324-0.055-0.656-0.106-0.978-0.168-0.246-0.048-0.464-0.122-0.708-0.161-0.375-0.060-0.821-0.037-1.177-0.126-0.012-0.003-0.026-0.005-0.040-0.005s-0.028 0.002-0.041 0.005l0.001-0c-0.064 0.017-0.12 0.044-0.17 0.079l0.002-0.001c-0.016 0.025 0.027 0.074 0.071 0.081zM9.572 22.481h0.177c0.027-0.039 0.069-0.074 0.062-0.099s-0.058-0.034-0.101-0.039c-0.021-0.006-0.046-0.009-0.071-0.009-0.068 0-0.13 0.023-0.179 0.063l0.001-0c-0.083 0.074 0.032 0.074 0.111 0.085zM25.491 17.032c-0.044 0.044-0.098 0.077-0.158 0.095l-0.003 0.001c-0.011 0.001-0.025 0.001-0.038 0.001-0.069 0-0.135-0.008-0.199-0.023l0.006 0.001c-0.016 0-0.021-0.021-0.030-0.032 0.019-0.062 0.221-0.111 0.354-0.085 0.032 0.005 0.076 0.037 0.069 0.042zM23.996 16.469c0.057-0 0.112-0.008 0.164-0.020l-0.005 0.001c0.171-0.047 0.314-0.097 0.453-0.155l-0.023 0.009c0.331-0.15 0.608-0.303 0.873-0.473l-0.027 0.016c0.122-0.090 0.263-0.165 0.413-0.219l0.012-0.004c-0.008-0.061-0.012-0.131-0.012-0.203 0-0.023 0-0.046 0.001-0.070l-0 0.003c-0.159 0.076-0.295 0.164-0.419 0.266l0.003-0.003c-0.041 0.035-0.165 0.050-0.226 0.081-0.216 0.111-0.43 0.219-0.644 0.326s-0.435 0.207-0.653 0.304c-0.026 0.014-0.049 0.029-0.070 0.046l0-0c-0.055 0.048 0.030 0.099 0.159 0.094zM24.947 17.327c-0.177 0.021-0.235 0.062-0.283 0.133-0.092 0.079-0.213 0.128-0.345 0.128-0.006 0-0.012-0-0.018-0l0.001 0c-0.133 0.012-0.281-0.039-0.267-0.099 0 0 0.016-0.028 0.041-0.039l0.665-0.276c0.030-0.010 0.064-0.016 0.1-0.016 0.059 0 0.114 0.016 0.161 0.043l-0.002-0.001c0.065 0.048 0.055 0.115-0.053 0.127zM25.238 19.769c0.133-0.016 0.285-0.027 0.414-0.055 0.027-0.094 0.053-0.188 0.078-0.283l-0.626 0.186c-0.024 0.008-0.041 0.030-0.041 0.056 0 0.009 0.002 0.018 0.006 0.026l-0-0c0.049 0.028 0.105 0.053 0.165 0.070l0.005 0.001zM21.718 29.429h0.088c0.039-0.101 0.081-0.2 0.124-0.297-0.020 0.001-0.043 0.002-0.066 0.002s-0.047-0.001-0.069-0.002l0.003 0c-0.478 0-0.867 0.080-1.29 0.111-0.022 0.001-0.042 0.004-0.062 0.009l0.002-0c-0.071 0.011-0.134 0.044-0.057 0.096 0.061 0.040 0.131 0.072 0.205 0.093l0.005 0.001c0.070 0.025 0.151 0.039 0.236 0.039 0.019 0 0.038-0.001 0.057-0.002l-0.003 0c0.186-0.035 0.401-0.056 0.62-0.056 0.073 0 0.145 0.002 0.216 0.007l-0.010-0zM25.432 14.314c-0.053 0.037-0.118 0.062-0.188 0.069l-0.002 0c-0.051 0-0.157-0.019-0.152-0.034 0.025-0.046 0.066-0.080 0.115-0.097l0.001-0c0.066-0.020 0.144-0.036 0.224-0.045l0.006-0.001c0.005 0.035 0.027 0.076-0.005 0.108zM25.438 14.206v-0.005h0.009l0.002 0.004-0.011 0.002zM24.357 18.739c0.070-0.017 0.129-0.036 0.186-0.060l-0.009 0.003c0.050-0.016 0.088-0.051 0.143-0.051 0.318 0 0.49-0.115 0.771-0.154 0.187-0.023 0.355-0.086 0.502-0.18l-0.005 0.003 0.034-0.018c0.012-0.071 0.028-0.142 0.041-0.212 0-0.016 0-0.055 0.014-0.099-0.267 0.117-0.572 0.203-0.853 0.303-0.237 0.085-0.58 0.108-0.708 0.255-0.037 0.046-0.219 0.051-0.322 0.081s-0.177 0.044-0.143 0.106 0.191 0.057 0.349 0.023zM22.962 26.54l0.15-0.023c0.025 0.030 0.067 0.064 0.069 0.087s-0.058 0.019-0.108 0.034zM21.232 28.233c0.026 0.002 0.057 0.003 0.088 0.003s0.062-0.001 0.093-0.004l-0.004 0c0.257-0.061 0.551-0.095 0.854-0.095 0.038 0 0.076 0.001 0.114 0.002l-0.006-0c0.051-0.106 0.106-0.211 0.159-0.315l-1.109 0.143c-0.131 0.016-0.255 0.039-0.38 0.060-0.074 0.012-0.074 0.057-0.025 0.108 0.051 0.060 0.127 0.097 0.211 0.097 0.002 0 0.003 0 0.005-0h-0zM22.799 26.75c-0.265 0.028-0.531 0.053-0.784 0.094-0.018 0.002-0.040 0.003-0.061 0.003-0.119 0-0.231-0.033-0.327-0.090l0.003 0.002c-0.025-0.016-0.047-0.036-0.065-0.058l-0-0c0.014-0.016 0.016-0.035 0.035-0.037 0.343-0.041 0.688-0.083 1.040-0.12 0.063 0.012 0.118 0.039 0.163 0.077l-0.001-0c0.044 0.050 0.11 0.119-0.004 0.131zM24.042 13.643c0.034-0.025 0.064-0.050 0.101-0.073 0.219-0.14 0.441-0.287 0.658-0.437 0.141 0.025 0.303 0.039 0.469 0.041h0.001c-0.294 0.177-0.589 0.354-0.844 0.547-0.115 0.061-0.252 0.098-0.398 0.098-0.006 0-0.013-0-0.019-0l0.001 0c-0.11-0.018-0.099-0.080 0.030-0.175zM23.452 13.013c-0.082 0.015-0.155 0.041-0.222 0.076l0.004-0.002 0.297-0.090zM24.905 19.79c0 0.051-0.134 0.073-0.269 0.042-0.026-0.011-0.048-0.024-0.068-0.041l0 0c0.030-0.060 0.161-0.085 0.274-0.053 0.028 0.009 0.062 0.037 0.062 0.051zM23.633 20.1c-0.051-0.003-0.099-0.016-0.142-0.038l0.002 0.001c-0.011-0.007-0.018-0.018-0.018-0.032s0.007-0.025 0.018-0.032l0-0c0.171-0.084 0.372-0.135 0.584-0.142l0.002-0c0.042 0.004 0.080 0.010 0.118 0.019l-0.006-0.001c0.016 0.025 0.064 0.064 0.046 0.081-0.106 0.111-0.295 0.172-0.603 0.143zM25.002 20.952c-0.017 0.019-0.040 0.033-0.066 0.039l-0.001 0c-0.423 0.129-0.84 0.255-1.27 0.37-0.084 0.021-0.181 0.032-0.281 0.032-0.012 0-0.024-0-0.036-0l0.002 0c-0.059-0.018-0.111-0.042-0.158-0.072l0.002 0.001c0.030-0.028 0.039-0.050 0.067-0.058l1.279-0.386c0.094-0.023 0.203-0.038 0.315-0.041l0.002-0c0.052 0.008 0.099 0.028 0.139 0.056l-0.001-0.001c0.010 0.008 0.016 0.020 0.016 0.034 0 0.010-0.003 0.019-0.009 0.026l0-0zM24.017 23.845l0.018-0.035c-0.231 0.047-0.512 0.085-0.798 0.107l-0.023 0.001c-0.271 0.023-0.515 0.076-0.764 0.12-0.044 0-0.087 0.042-0.074 0.071s0.094 0.058 0.159 0.097c0.079 0.014 0.171 0.021 0.264 0.021 0.001 0 0.001 0 0.002 0h-0c0.424-0.038 0.807-0.1 1.181-0.188l-0.056 0.011c0.028-0.069 0.057-0.138 0.092-0.205zM23.376 22.693c-0.059-0.019-0.109-0.047-0.153-0.084l0.001 0.001s0.037-0.037 0.073-0.044c0.152-0.028 0.304-0.057 0.465-0.076 0.047-0.003 0.102-0.004 0.157-0.004s0.11 0.002 0.164 0.005l-0.008-0c0.032 0.046 0.073 0.081 0.062 0.096-0.032 0.037-0.072 0.066-0.118 0.084l-0.002 0.001c-0.106 0.040-0.228 0.063-0.356 0.063-0.101 0-0.199-0.014-0.292-0.041l0.007 0.002zM23.778 25.036c-0.494 0.134-1.111 0.149-1.608 0.267-0.088 0.021-0.166 0.051-0.209 0.064-0.041 0.090 0.048 0.168 0.163 0.177 0.068 0.011 0.146 0.017 0.225 0.017 0.041 0 0.081-0.002 0.122-0.005l-0.005 0c0.249-0.035 0.476-0.092 0.724-0.131 0.209-0.035 0.426-0.060 0.644-0.087-0.024-0.086-0.043-0.189-0.054-0.294l-0.001-0.008zM14.374 5.865c-0.055 0.008-0.104 0.025-0.149 0.049l0.002-0.001c0.064 0.060 0.151 0.096 0.246 0.096 0.088 0 0.168-0.031 0.23-0.083l-0.001 0c-0.081-0.099-0.218-0.051-0.329-0.062zM13.815 6.026c0.015 0.003 0.033 0.005 0.051 0.005 0.084 0 0.16-0.037 0.212-0.095l0-0c-0.027-0.018-0.058-0.032-0.091-0.042l-0.002-0.001c-0.157-0.016-0.339-0.025-0.524-0.025s-0.367 0.009-0.546 0.027l0.023-0.002c-0.032 0-0.062 0.042-0.124 0.087 0.082 0.018 0.182 0.034 0.284 0.043l0.010 0.001c0.235 0.004 0.472 0.005 0.708 0.002zM12.621 5.964c-0.069-0.046-0.155-0.073-0.246-0.073-0.015 0-0.030 0.001-0.044 0.002l0.002-0c-0.23 0-0.458 0-0.687 0.014-0.287 0.011-0.573 0.028-0.86 0.046-0.050 0.007-0.094 0.018-0.136 0.032l0.005-0.002c0.043 0.051 0.106 0.084 0.178 0.084 0.012 0 0.023-0.001 0.034-0.003l-0.001 0h1.327c0.017 0.001 0.037 0.002 0.056 0.002 0.137 0 0.266-0.038 0.375-0.105l-0.003 0.002zM15.108 6.016c0.131-0.022 0.283-0.034 0.437-0.034 0.095 0 0.19 0.005 0.282 0.014l-0.012-0.001c0.017 0.004 0.037 0.006 0.057 0.006 0.092 0 0.174-0.043 0.228-0.109l0-0.001c-0.064-0.028-0.139-0.045-0.217-0.045-0.023 0-0.046 0.001-0.069 0.004l0.003-0h-0.825c-0.058 0.013-0.109 0.030-0.157 0.053l0.004-0.002c0.051 0.072 0.134 0.118 0.228 0.118 0.014 0 0.027-0.001 0.041-0.003l-0.002 0zM19.093 5.936c0.23 0 0.46 0 0.688-0.011 0.469-0.021 0.936 0 1.415-0.030 0.345-0.027 0.699-0.016 0.978-0.021h0.354l0.943-0.014c0.092 0 0.188-0.025 0.177-0.073s-0.097-0.062-0.161-0.083c-0.021-0.003-0.046-0.004-0.071-0.004s-0.050 0.001-0.074 0.004l0.003-0h-0.897c-0.403 0-0.805 0-1.208 0.012-0.253 0.011-0.508 0-0.761 0-0.354 0-0.72 0-1.081 0.011-0.138 0.001-0.273 0.013-0.404 0.036l0.015-0.002c-0.051 0.009-0.117 0.055-0.113 0.080s0.080 0.053 0.129 0.074c0.020 0.010 0.042 0.018 0.066 0.021l0.001 0zM18.79 5.855c-0.032-0.033-0.077-0.054-0.127-0.054-0.033 0-0.063 0.009-0.090 0.024l0.001-0c-0.009 0.010-0.014 0.023-0.014 0.038s0.005 0.028 0.014 0.038l-0-0c0.024 0.015 0.053 0.023 0.084 0.023 0.055 0 0.103-0.027 0.132-0.069l0-0.001zM18.348 5.924c0.049-0.022 0.091-0.045 0.13-0.072l-0.003 0.002c-0.097-0.011-0.152-0.021-0.209-0.023-0.26 0-0.52-0.019-0.782-0.019-0.38 0-0.763 0.012-1.143 0.023-0.028 0-0.055 0.035-0.12 0.078 0.065 0.016 0.148 0.031 0.232 0.041l0.012 0.001c0.177 0 0.354 0.009 0.531 0 0.409 0 0.817-0.018 1.224-0.027 0.013 0.001 0.029 0.001 0.045 0.001 0.029 0 0.058-0.002 0.086-0.005l-0.003 0zM7.060 6.148c0.062-0.016 0.133-0.026 0.206-0.026 0.087 0 0.172 0.013 0.251 0.038l-0.006-0.002c0.015 0.003 0.032 0.004 0.050 0.004s0.035-0.002 0.051-0.004l-0.002 0c0.035 0.001 0.075 0.001 0.116 0.001 0.165 0 0.329-0.007 0.491-0.020l-0.021 0.001c0.239-0.030 0.474-0.012 0.708-0.019 0.090 0 0.177 0 0.271-0.012 0.051-0.006 0.111-0.009 0.171-0.009s0.12 0.003 0.178 0.010l-0.007-0.001c0.023 0.001 0.051 0.002 0.078 0.002 0.092 0 0.181-0.008 0.269-0.025l-0.009 0.001c0.057-0.009 0.099-0.046 0.050-0.11-0.078 0-0.166-0.018-0.255-0.018h-0.78c-0.334 0-0.669 0.014-1.001 0-0.174 0.014-0.377 0.021-0.581 0.021-0.102 0-0.204-0.002-0.306-0.006l0.015 0c-0.090 0.004-0.175 0.022-0.253 0.053l0.005-0.002c0.053 0.078 0.141 0.129 0.242 0.129 0.025 0 0.050-0.003 0.074-0.009l-0.002 0zM10.057 5.996c0.166 0.145 0.265 0.143 0.418 0-0.060-0.034-0.132-0.054-0.209-0.054s-0.149 0.020-0.211 0.055l0.002-0.001zM6.407 6.016c-0.317-0.014-0.633-0.025-0.95-0.028-0.053 0-0.105 0.005-0.156 0.015l0.005-0.001c0.056 0.058 0.109 0.12 0.157 0.186l0.004 0.005c0.113-0.002 0.222-0.011 0.329-0.026l-0.014 0.002c0.059-0.014 0.126-0.022 0.195-0.022 0.050 0 0.099 0.004 0.147 0.012l-0.005-0.001c0.044 0.012 0.095 0.019 0.147 0.019 0.129 0 0.247-0.042 0.343-0.114l-0.001 0.001c-0.058-0.021-0.125-0.038-0.195-0.047l-0.005-0.001zM23.799 5.766c0.068-0.025 0.148-0.045 0.23-0.058l0.007-0.001c0.375-0.027 0.75-0.050 1.127-0.065 0.008-0 0.017-0 0.027-0 0.070 0 0.139 0.005 0.206 0.015l-0.008-0.001v0.191h-0.057c-0.047 0.002-0.103 0.002-0.159 0.002-0.138 0-0.274-0.005-0.409-0.016l0.018 0.001c-0.060-0.010-0.13-0.016-0.201-0.016s-0.14 0.006-0.208 0.017l0.007-0.001c-0.061 0.017-0.131 0.027-0.204 0.027-0.138 0-0.268-0.036-0.38-0.098l0.004 0.002zM11.423 6.994c0.023 0.006 0.051 0.011 0.080 0.014l0.003 0c0.196 0.018 0.391-0.034 0.587 0 0.003 0.001 0.007 0.001 0.011 0.001s0.007-0 0.011-0.001l-0 0c0.094-0.027 0.202-0.043 0.313-0.043 0.047 0 0.094 0.003 0.14 0.008l-0.006-0.001c0.025 0.003 0.054 0.005 0.084 0.005 0.114 0 0.221-0.029 0.314-0.080l-0.003 0.002c-0.034-0.024-0.073-0.044-0.115-0.059l-0.003-0.001c-0.14-0.012-0.281-0.021-0.421-0.027l-0.74-0.023h-0.234c-0.078 0-0.117 0.021-0.12 0.088-0 0.003-0.001 0.007-0.001 0.011 0 0.056 0.044 0.102 0.099 0.104h0zM13.374 6.936c0.057-0.004 0.123-0.007 0.189-0.007s0.133 0.002 0.198 0.007l-0.009-0 0.957-0.016c0.014 0.002 0.029 0.003 0.045 0.003 0.083 0 0.161-0.027 0.223-0.072l-0.001 0.001c-0.056-0.053-0.132-0.085-0.215-0.085-0.020 0-0.040 0.002-0.059 0.006l0.002-0c-0.448 0-0.885 0.011-1.341 0.018-0.076 0-0.159 0-0.219 0.073 0.048 0.048 0.114 0.078 0.187 0.078 0.015 0 0.030-0.001 0.045-0.004l-0.002 0zM10.908 6.886c0.108 0.124 0.124 0.127 0.272 0.044-0.122-0.133-0.142-0.136-0.272-0.044zM15.844 6.9c0.191 0 0.38 0.012 0.571 0.009 0.253 0 0.508-0.014 0.763-0.027 0.087 0 0.177 0.009 0.257-0.101-0.086-0.021-0.189-0.036-0.294-0.044l-0.006-0c-0.603 0-1.207 0.016-1.81 0.028-0.074 0.012-0.14 0.028-0.203 0.050l0.008-0.002c0.154 0.097 0.154 0.097 0.267 0.096 0.149-0.009 0.299-0.009 0.448-0.009zM18.074 6.883c0.051-0.009 0.11-0.014 0.171-0.014 0.022 0 0.043 0.001 0.064 0.002l-0.003-0c0.086 0.013 0.185 0.021 0.286 0.021 0.076 0 0.151-0.004 0.226-0.013l-0.009 0.001c0.125-0.025 0.27-0.041 0.418-0.044l0.003-0c0.136 0.008 0.295 0.012 0.456 0.012s0.32-0.004 0.478-0.013l-0.022 0.001c0.119 0 0.239 0.016 0.354 0.018 0.248 0 0.504-0.027 0.752-0.027h0.812c0.058 0 0.133 0 0.152-0.078-0.031-0.053-0.088-0.088-0.153-0.088-0.008 0-0.017 0.001-0.025 0.002l0.001-0h-0.694c-0.38-0.011-0.768 0-1.148 0-0.066-0.004-0.144-0.006-0.222-0.006s-0.156 0.002-0.233 0.006l0.011-0c-0.148 0.018-0.32 0.028-0.494 0.028-0.095 0-0.189-0.003-0.283-0.009l0.013 0.001c-0.075-0.020-0.162-0.031-0.251-0.031-0.015 0-0.029 0-0.043 0.001l0.002-0c-0.255 0.044-0.549 0.069-0.849 0.069-0.006 0-0.013 0-0.019-0h0.001c-0.002-0-0.005-0-0.008-0-0.071 0-0.134 0.038-0.168 0.095l-0 0.001c0.093 0.048 0.202 0.076 0.318 0.076 0.038 0 0.076-0.003 0.112-0.009l-0.004 0.001zM23.037 6.704c-0.069-0.021-0.149-0.034-0.231-0.034-0.038 0-0.075 0.003-0.111 0.008l0.004-0c-0.11 0-0.242-0.023-0.338 0.064 0.082 0.020 0.177 0.031 0.273 0.031 0.144 0 0.283-0.025 0.411-0.071l-0.009 0.003zM24.084 6.658c-0.253-0.122-0.499-0.012-0.74-0.034-0.007-0.001-0.014-0.001-0.022-0.001-0.058 0-0.11 0.028-0.142 0.072l-0 0c0.124 0.106 0.177 0.115 0.591 0.092 0.115-0.005 0.235 0.004 0.313-0.129zM6.883 6.876c-0.177 0-0.34 0.016-0.508 0.034-0.067 0.022-0.126 0.052-0.179 0.090l0.002-0.001 0.060 0.039c0.207-0.055 0.416-0.11 0.625-0.161zM25.146 6.546c-0.009-0-0.019-0-0.029-0-0.283 0-0.559 0.033-0.823 0.095l0.024-0.005c-0.034 0.014-0.063 0.031-0.089 0.052l0.001-0.001 0.011 0.035c0.269-0.009 0.531 0.034 0.794 0.042 0.036-0.085 0.073-0.158 0.115-0.226l-0.004 0.007zM12.461 4.991c-0.047 0.009-0.089 0.023-0.129 0.042l0.003-0.001c0.056 0.057 0.133 0.092 0.218 0.092 0.028 0 0.055-0.004 0.081-0.011l-0.002 0c0.131-0.017 0.282-0.026 0.436-0.026 0.096 0 0.19 0.004 0.284 0.011l-0.012-0.001c0.281 0.009 0.564 0.009 0.846 0.009 0.013 0.001 0.029 0.002 0.045 0.002 0.101 0 0.196-0.023 0.281-0.065l-0.004 0.002c-0.016-0.019-0.023-0.037-0.032-0.037-0.667-0.053-1.341-0.016-2.015-0.016zM15.078 5.094c0.409 0 0.817-0.018 1.226-0.016s0.803-0.009 1.205-0.012h0.587c0.094 0 0.189-0.012 0.283-0.018s0.165-0.018 0.248-0.019h0.64c0.439-0.009 0.876-0.062 1.316-0.039 0.009 0.001 0.019 0.002 0.030 0.002 0.055 0 0.106-0.018 0.148-0.048l-0.001 0c0-0.060-0.044-0.067-0.088-0.071-0.161-0.015-0.349-0.024-0.539-0.024s-0.377 0.009-0.563 0.026l0.024-0.002c-0.035 0-0.071 0.012-0.106 0.012-0.23 0-0.462-0.016-0.69 0-0.303 0.027-0.609-0.032-0.909 0.032-0.016 0-0.034-0.011-0.051-0.011h-0.386c-0.364 0-0.727 0-1.092 0.016-0.472 0.012-0.945 0.035-1.415 0.055-0.011-0.001-0.024-0.002-0.038-0.002-0.073 0-0.14 0.021-0.197 0.058l0.001-0.001c0.029 0.017 0.063 0.032 0.099 0.043l0.004 0.001c0.077 0.010 0.169 0.016 0.261 0.018l0.002 0zM12.162 5.083c-0.034-0.025-0.057-0.057-0.083-0.058-0.090 0-0.193-0.034-0.265 0.050 0.053 0.030 0.116 0.048 0.183 0.048 0.060 0 0.118-0.014 0.168-0.040l-0.002 0.001zM11.064 5.097c-0.057-0.045-0.13-0.073-0.21-0.073-0.021 0-0.042 0.002-0.063 0.006l0.002-0c-0.057 0-0.115 0.011-0.131 0.067 0.056 0.039 0.126 0.063 0.201 0.063s0.145-0.023 0.202-0.063l-0.001 0.001zM8.93 5.12c-0.070-0.028-0.151-0.044-0.236-0.044-0.037 0-0.073 0.003-0.108 0.009l0.004-0.001c-0.11 0.011-0.241-0.032-0.338 0.080 0.084 0.027 0.181 0.043 0.282 0.043 0.144 0 0.28-0.032 0.402-0.090l-0.006 0.002zM9.977 5.076c-0.253-0.104-0.501 0-0.74-0.025-0.008-0.001-0.017-0.002-0.026-0.002-0.056 0-0.106 0.024-0.141 0.062l-0 0c0.126 0.092 0.177 0.099 0.593 0.080 0.111-0.005 0.234 0.002 0.313-0.115zM10.156 5.055c-0.014 0-0.039 0.027-0.035 0.037 0.005 0.023 0.020 0.042 0.040 0.051l0 0c0.045 0.019 0.097 0.030 0.152 0.030 0.085 0 0.164-0.026 0.23-0.071l-0.001 0.001c-0.070-0.043-0.155-0.069-0.246-0.069-0.050 0-0.098 0.008-0.143 0.022l0.003-0.001zM11.156 5.087c0.077 0.043 0.168 0.068 0.265 0.068s0.189-0.025 0.268-0.069l-0.003 0.001c-0.090-0.062-0.090-0.065-0.177-0.064-0.028-0.005-0.060-0.009-0.093-0.009-0.096 0-0.186 0.027-0.263 0.074l0.002-0.001zM21.833 4.922c-0.057-0.045-0.13-0.073-0.21-0.073-0.022 0-0.043 0.002-0.063 0.006l0.002-0c-0.058 0-0.117 0.011-0.131 0.067 0.056 0.039 0.126 0.063 0.201 0.063s0.145-0.023 0.202-0.063l-0.001 0.001zM20.926 4.88c-0.014 0-0.039 0.027-0.035 0.037 0.005 0.023 0.020 0.041 0.040 0.051l0 0c0.045 0.019 0.097 0.030 0.152 0.030 0.085 0 0.164-0.026 0.23-0.071l-0.001 0.001c-0.070-0.043-0.155-0.069-0.247-0.069-0.050 0-0.098 0.008-0.143 0.022l0.003-0.001zM21.927 4.912c0.077 0.043 0.168 0.068 0.265 0.068s0.189-0.025 0.268-0.069l-0.003 0.001c-0.092-0.062-0.092-0.065-0.177-0.064-0.106-0.004-0.235-0.037-0.354 0.064zM7.201 5.223c0.010 0.001 0.021 0.001 0.033 0.001s0.023-0 0.034-0.001l-0.001 0c0.055-0.009 0.119-0.014 0.183-0.014s0.128 0.005 0.19 0.015l-0.007-0.001c0.055 0.004 0.118 0.007 0.182 0.007s0.128-0.002 0.191-0.007l-0.008 0c0.035 0 0.067-0.032 0.115-0.058-0.068-0.035-0.148-0.055-0.233-0.055-0.003 0-0.006 0-0.008 0h0c-0.039 0.001-0.084 0.002-0.129 0.002-0.135 0-0.269-0.007-0.401-0.019l0.017 0.001c-0.209-0.018-0.453-0.029-0.699-0.029s-0.49 0.010-0.73 0.031l0.031-0.002c-0.074 0-0.163 0-0.2 0.087 0.058 0.046 0.131 0.074 0.212 0.074 0.021 0 0.041-0.002 0.061-0.005l-0.002 0zM5.634 5.235c0.021-0.010 0.036-0.029 0.039-0.053l0-0c0-0.019-0.028-0.051-0.046-0.051-0.126 0-0.249-0.041-0.375-0.037v0.166h0.28c0.037-0.001 0.073-0.010 0.104-0.025l-0.001 0.001zM23.47 4.94c-0.010 0.001-0.021 0.001-0.032 0.001s-0.022-0-0.033-0.001l0.001 0c-0.040-0.005-0.085-0.008-0.132-0.008-0.079 0-0.155 0.008-0.23 0.023l0.007-0.001c-0.081 0.009-0.175 0.014-0.27 0.014-0.030 0-0.059-0-0.089-0.001l0.004 0c-0.032 0-0.064-0.030-0.111-0.055 0.066-0.038 0.145-0.061 0.229-0.064h0.001c0.003 0 0.007 0 0.011 0 0.172 0 0.342-0.012 0.507-0.036l-0.019 0.002c0.286-0.036 0.616-0.056 0.952-0.056 0.143 0 0.284 0.004 0.425 0.011l-0.020-0.001c0.071 0 0.157 0 0.196 0.078-0.057 0.051-0.132 0.083-0.215 0.083-0.016 0-0.031-0.001-0.046-0.003l0.002 0zM24.995 4.899c-0.020-0.011-0.035-0.030-0.041-0.053l-0-0.001c0-0.018 0.028-0.051 0.046-0.051 0.124-0.011 0.246-0.050 0.372-0.051v0.166c-0.092 0.011-0.177 0.014-0.28 0.016-0.036-0.001-0.069-0.010-0.098-0.027l0.001 0.001z"></path>
<path d="M9.834 6.598c0.108-0.104 0.199-0.225 0.269-0.359l0.004-0.008c0.018-0.037 0.042-0.087 0.076-0.099 0.115-0.056 0.211-0.132 0.289-0.225l0.001-0.001c0.112-0.080 0.206-0.178 0.279-0.291l0.003-0.004c0.177-0.073 0.221-0.278 0.389-0.368 0.033-0.023 0.054-0.060 0.054-0.102 0-0.028-0.009-0.054-0.025-0.075l0 0c-0.035-0.041-0.113-0.032-0.177 0.027-0.134 0.122-0.267 0.248-0.4 0.37-0.064 0.052-0.122 0.104-0.177 0.159v0c-0.264 0.31-0.558 0.581-0.882 0.813l-0.015 0.010c-0.040 0.029-0.075 0.062-0.105 0.098l-0.001 0.001c0.161 0.013 0.305 0.033 0.446 0.059l-0.026-0.004zM10.616 4.206c0.046-0.018 0.085-0.046 0.115-0.081l0-0c0.018-0.027 0-0.076-0.016-0.115 0 0-0.025-0.011-0.039-0.016-0.065 0.016-0.112 0.074-0.112 0.143 0 0.012 0.001 0.024 0.004 0.035l-0-0.001c-0.002 0.018 0.032 0.039 0.048 0.035zM6.288 7.030c0.028-0.028 0.057-0.058 0.087-0.060 0.089-0.016 0.165-0.065 0.215-0.133l0.001-0.001c0.081-0.101 0.171-0.19 0.269-0.268l0.003-0.003c0.177-0.119 0.294-0.295 0.462-0.425 0.154-0.124 0.289-0.261 0.406-0.412l0.004-0.006c0.145-0.133 0.277-0.274 0.398-0.424l0.006-0.007c0.058-0.096 0.177-0.163 0.234-0.278 0.011-0.018 0.030-0.031 0.051-0.035l0.001-0c0.083-0.011 0.147-0.077 0.154-0.16l0-0.001c0-0.048 0.025-0.076 0.085-0.076 0.002 0 0.004 0 0.006 0 0.036 0 0.069-0.014 0.093-0.037l-0 0c0.069-0.101 0.186-0.177 0.244-0.269 0.064-0.095 0.146-0.174 0.241-0.233l0.003-0.002c0.189-0.144 0.355-0.286 0.514-0.437l-0.002 0.002c0.064-0.066 0.122-0.137 0.174-0.214l0.003-0.005c0.014-0.023 0.023-0.050 0.023-0.080v-0c0-0.003 0.001-0.007 0.001-0.010 0-0.043-0.035-0.078-0.078-0.078-0.015 0-0.030 0.004-0.042 0.012l0-0c-0.022 0.009-0.041 0.021-0.057 0.036l0-0c-0.239 0.221-0.479 0.442-0.717 0.667-0.034 0.032-0.042 0.096-0.080 0.117-0.189 0.11-0.342 0.263-0.45 0.445l-0.003 0.006c-0.012 0.017-0.029 0.029-0.049 0.035l-0.001 0c-0.165 0.082-0.303 0.198-0.408 0.339l-0.002 0.003c-0.262 0.26-0.52 0.531-0.784 0.782-0.177 0.168-0.364 0.317-0.52 0.495s-0.271 0.336-0.43 0.488c-0.057 0.061-0.107 0.13-0.148 0.205l-0.003 0.005c0.009 0.014 0.012 0.028 0.021 0.035zM8.286 6.598c0.178-0.105 0.328-0.236 0.45-0.391l0.003-0.003c0.242-0.277 0.494-0.529 0.761-0.764l0.009-0.008c0.188-0.157 0.304-0.363 0.474-0.531 0.021-0.027 0.034-0.060 0.035-0.097v-0c0.011-0.103-0.058-0.154-0.15-0.104-0.064 0.038-0.119 0.084-0.166 0.137l-0.001 0.001c-0.119 0.127-0.234 0.258-0.354 0.387-0.246 0.276-0.564 0.485-0.784 0.784-0.026 0.036-0.058 0.066-0.096 0.088l-0.001 0.001c-0.138 0.092-0.245 0.221-0.308 0.373l-0.002 0.005c-0.026 0.050-0.060 0.092-0.102 0.125l-0.001 0.001c-0.011 0.011-0.021 0.023-0.032 0.032zM10.205 4.653c0.061-0.068 0.119-0.143 0.172-0.221l0.005-0.007c-0.048-0.025-0.081-0.057-0.104-0.051-0.095 0.021-0.171 0.088-0.205 0.175l-0.001 0.002c-0.004 0.010-0.006 0.020-0.006 0.032 0 0.024 0.009 0.045 0.023 0.062l-0-0c0.030 0.018 0.097 0.027 0.115 0.009zM12.576 6.863c0.037-0.021 0.067-0.052 0.086-0.089l0.001-0.001c0.087-0.162 0.215-0.292 0.369-0.381l0.005-0.002c0.088-0.049 0.156-0.123 0.199-0.211l0.001-0.003c0.014-0.058 0.061-0.102 0.12-0.111l0.001-0c0.078-0.012 0.108-0.067 0.108-0.165 0-0.012-0.021-0.069-0.048-0.074-0.043 0.001-0.081 0.020-0.108 0.049l-0 0c-0.039 0.037-0.055 0.106-0.099 0.129-0.31 0.159-0.487 0.471-0.805 0.623-0.053 0.021-0.089 0.071-0.089 0.13 0 0.026 0.007 0.050 0.019 0.070l-0-0.001c0.036 0.039 0.087 0.063 0.144 0.063 0.036 0 0.070-0.010 0.099-0.027l-0.001 0zM24.744 5.085c-0.035 0.028-0.057 0.070-0.057 0.118 0 0.012 0.001 0.024 0.004 0.035l-0-0.001c-0.008-0.001-0.017-0.002-0.027-0.002-0.077 0-0.143 0.042-0.178 0.105l-0.001 0.001c-0.034 0.083-0.096 0.149-0.175 0.187l-0.002 0.001c-0.033 0.014-0.055 0.046-0.055 0.083 0 0.017 0.005 0.033 0.013 0.046l-0-0c0.018 0.027 0.058 0.064 0.083 0.060 0.042-0.012 0.077-0.035 0.102-0.067l0-0c0.028-0.037 0.011-0.101 0.081-0.113 0.156-0.030 0.195-0.138 0.195-0.269 0.019 0.007 0.041 0.011 0.064 0.011 0.055 0 0.105-0.024 0.14-0.062l0-0 0.37-0.377c0.021-0.019 0.042-0.042 0.064-0.064v-0.354c-0.034 0.034-0.069 0.067-0.103 0.103-0.177 0.184-0.345 0.373-0.518 0.559zM11.854 5.964c0.045-0.028 0.085-0.058 0.121-0.092l-0 0c0.037-0.032 0.069-0.071 0.108-0.104 0.138-0.117 0.285-0.223 0.412-0.354 0.13-0.141 0.271-0.267 0.424-0.378l0.008-0.006c0.032-0.020 0.059-0.044 0.081-0.072l0.001-0.001c0.023-0.023 0.036-0.054 0.036-0.088s-0.014-0.066-0.036-0.088v0c-0.024-0.014-0.052-0.023-0.083-0.023-0.021 0-0.040 0.004-0.058 0.011l0.001-0c-0.098 0.045-0.182 0.1-0.256 0.167l0.001-0.001c-0.23 0.223-0.449 0.453-0.674 0.679-0.051 0.051-0.111 0.096-0.159 0.149-0.024 0.031-0.046 0.066-0.064 0.103l-0.001 0.003c0.002 0.097 0.074 0.134 0.14 0.096zM10.959 6.976c0.034-0.026 0.062-0.058 0.084-0.094l0.001-0.002c0.115-0.177 0.228-0.354 0.338-0.531 0.011-0.019 0-0.051 0-0.078-0.025 0-0.057 0-0.076 0.011-0.071 0.048-0.142 0.099-0.209 0.154-0.127 0.108-0.253 0.216-0.377 0.327-0.022 0.021-0.038 0.048-0.044 0.079l-0 0.001c0.094 0.034 0.189 0.081 0.283 0.133zM10.97 3.93c0.027-0.076 0.095-0.131 0.176-0.14l0.001-0c0.085-0.027 0.15-0.092 0.176-0.175l0.001-0.002c0.004-0.010 0.006-0.022 0.006-0.034 0-0.056-0.045-0.101-0.101-0.101-0.003 0-0.005 0-0.008 0l0-0c-0.019 0.003-0.037 0.010-0.052 0.020l0.001-0c-0.126 0.11-0.253 0.218-0.37 0.333-0.015 0.015-0.025 0.035-0.025 0.058 0 0.031 0.018 0.058 0.044 0.071l0 0c0.017 0.013 0.039 0.021 0.062 0.021 0.038 0 0.070-0.020 0.088-0.050l0-0zM14.519 4.825c0-0.018-0.018-0.042-0.032-0.074-0.060 0.015-0.112 0.037-0.16 0.065l0.003-0.002c-0.12 0.106-0.237 0.214-0.354 0.329-0.122 0.171-0.26 0.318-0.415 0.446l-0.004 0.003c-0.012 0.009-0.028 0.019-0.030 0.030s-0.019 0.074 0 0.096 0.071 0.048 0.092 0.037c0.056-0.018 0.102-0.052 0.134-0.097l0.001-0.001c0.024-0.058 0.073-0.102 0.133-0.12l0.001-0c0.056-0.034 0.104-0.078 0.141-0.13l0.001-0.001c0.12-0.157 0.252-0.296 0.398-0.418l0.004-0.003c0.043-0.043 0.074-0.098 0.088-0.159l0-0.002zM13.613 4.386c0.055-0.065 0.105-0.136 0.15-0.212l0.004-0.007c-0.021-0.042-0.030-0.083-0.048-0.088-0.010-0.003-0.021-0.004-0.033-0.004-0.024 0-0.047 0.007-0.066 0.019l0.001-0c-0.177 0.166-0.354 0.336-0.531 0.508-0.032 0.032-0.099 0.069-0.050 0.119 0.030 0.018 0.066 0.029 0.104 0.029 0.014 0 0.028-0.002 0.042-0.004l-0.001 0c0.045-0.009 0.085-0.030 0.117-0.059l-0 0c0.103-0.097 0.214-0.193 0.311-0.299zM24.040 5.814c-0.106 0.078-0.2 0.177-0.311 0.241-0.222 0.168-0.415 0.359-0.58 0.572l-0.005 0.007c-0.046 0.048-0.018 0.11 0.048 0.134 0.016 0.007 0.034 0.012 0.053 0.012 0.035 0 0.067-0.014 0.090-0.036l-0 0c0.086-0.085 0.179-0.163 0.278-0.234l0.007-0.005c0.229-0.176 0.427-0.379 0.592-0.606l0.006-0.008c0.013-0.013 0.022-0.031 0.023-0.051v-0c-0.014-0.035-0.031-0.065-0.050-0.093l0.001 0.001c-0.060 0.022-0.11 0.045-0.157 0.071l0.007-0.003zM7.099 4.434c-0.035 0.057-0.030 0.127 0.016 0.149 0.017 0.009 0.037 0.014 0.058 0.014 0.040 0 0.077-0.018 0.101-0.047l0-0c0.049-0.051 0.079-0.12 0.079-0.196 0-0.018-0.002-0.035-0.005-0.052l0 0.002c-0.010-0.001-0.021-0.002-0.032-0.002-0.094 0-0.176 0.053-0.217 0.132l-0.001 0.001zM25.179 3.008l-0.034 0.027c-0.219 0.185-0.416 0.38-0.598 0.59l-0.006 0.007c-0.047 0.057-0.097 0.107-0.151 0.154l-0.002 0.001c-0.12 0.115-0.241 0.23-0.354 0.354-0.083 0.081-0.159 0.168-0.244 0.248-0.131 0.124-0.271 0.241-0.4 0.366-0.078 0.074-0.14 0.163-0.214 0.241-0.177 0.189-0.364 0.372-0.543 0.561-0.221 0.235-0.441 0.474-0.66 0.708-0.073 0.080-0.142 0.163-0.207 0.248-0.014 0.022-0.026 0.047-0.035 0.074l-0.001 0.002c-0 0.003-0 0.006-0 0.010 0 0.068 0.055 0.124 0.124 0.124 0.011 0 0.023-0.002 0.033-0.004l-0.001 0c0.038-0.011 0.071-0.027 0.1-0.047l-0.001 0.001c0.14-0.081 0.253-0.195 0.33-0.332l0.002-0.004c0.148-0.205 0.306-0.386 0.48-0.55l0.002-0.002c0.177-0.191 0.354-0.377 0.543-0.563 0.058-0.064 0.121-0.122 0.188-0.174l0.003-0.003c0.194-0.15 0.355-0.329 0.482-0.533l0.005-0.009c0.111-0.162 0.231-0.303 0.364-0.431l0.001-0.001c0.181-0.134 0.34-0.275 0.487-0.427l0.001-0.001c0.102-0.152 0.226-0.28 0.369-0.383l0.004-0.003c0.043-0.036 0.075-0.085 0.088-0.142l0-0.002c0.004-0.012 0.007-0.026 0.007-0.041 0-0.028-0.009-0.054-0.025-0.075l0 0c-0.041-0.042-0.094-0.018-0.14 0.011zM7.475 4.287c0.031-0.023 0.052-0.058 0.053-0.099v-0c0-0.027-0.046-0.076-0.062-0.073-0.041 0.009-0.075 0.032-0.097 0.065l-0 0.001c-0.010 0.030-0.016 0.064-0.016 0.1 0 0.006 0 0.012 0 0.018l-0-0.001c0.011 0.001 0.023 0.002 0.036 0.002 0.031 0 0.061-0.005 0.089-0.013l-0.002 0.001zM11.518 6.095c0.012 0.028 0.053 0.044 0.081 0.065 0.030-0.039 0.060-0.083 0.086-0.129l0.003-0.005c0-0.009-0.048-0.041-0.064-0.055-0.078 0.011-0.124 0.074-0.106 0.124zM12.267 4.209c0.074-0.138 0.234-0.219 0.274-0.379 0-0.028 0.055-0.046 0.081-0.069 0.035-0.028 0.066-0.058 0.095-0.090l0.001-0.001c0.062-0.078 0.076-0.156 0.034-0.168-0.071-0.021-0.113 0.030-0.152 0.067s-0.085 0.142-0.143 0.159c-0.193 0.055-0.26 0.225-0.384 0.34-0.172 0.19-0.352 0.363-0.544 0.524l-0.008 0.007c-0.093 0.080-0.174 0.169-0.245 0.266l-0.003 0.005c-0.018 0.019-0.018 0.051-0.032 0.094 0.037 0.011 0.076 0.034 0.096 0.023 0.078-0.038 0.146-0.080 0.208-0.128l-0.003 0.002c0.148-0.145 0.308-0.28 0.478-0.402l0.012-0.009c0.099-0.060 0.178-0.142 0.234-0.239l0.002-0.003zM14.236 6.435c-0.107 0.056-0.199 0.123-0.28 0.202l0-0c-0.038 0.058-0.060 0.128-0.060 0.205 0 0.004 0 0.008 0 0.012v-0.001c0 0.019 0.060 0.065 0.092 0.064 0.202-0.044 0.356-0.204 0.391-0.406l0-0.003c-0.004-0.049-0.044-0.087-0.094-0.087-0.018 0-0.036 0.005-0.050 0.015l0-0zM21.496 3.82l-0.069 0.069c0.021 0.016 0.041 0.041 0.065 0.044s0.039-0.025 0.067-0.046zM20.133 6.782c0.021 0.009 0.046 0.014 0.072 0.014s0.050-0.005 0.073-0.015l-0.001 0c0.199-0.141 0.372-0.279 0.537-0.426l-0.006 0.005c0.191-0.177 0.366-0.366 0.545-0.552 0.080-0.083 0.145-0.177 0.228-0.258 0.228-0.214 0.462-0.421 0.694-0.632 0.030-0.022 0.057-0.045 0.081-0.071l0-0c0.253-0.314 0.513-0.595 0.791-0.858l0.004-0.004c0.2-0.219 0.354-0.488 0.609-0.662 0.027-0.018 0.035-0.060 0.057-0.088s0.016-0.081-0.018-0.111c-0.016-0.016-0.037-0.025-0.061-0.025s-0.045 0.010-0.061 0.025v0c-0.067 0.057-0.133 0.113-0.196 0.177l-0.609 0.591c-0.036 0.026-0.067 0.056-0.095 0.088l-0.001 0.001c-0.164 0.209-0.338 0.394-0.527 0.563l-0.004 0.004c-0.152 0.154-0.29 0.32-0.437 0.478-0.085 0.090-0.177 0.165-0.264 0.258-0.116 0.151-0.245 0.283-0.388 0.398l-0.004 0.003c-0.133 0.091-0.248 0.188-0.353 0.297l-0.001 0.001c-0.106 0.129-0.232 0.236-0.376 0.317l-0.007 0.003c-0.057 0.025-0.105 0.058-0.147 0.098l0-0c-0.080 0.090-0.147 0.189-0.225 0.29 0.037 0.034 0.057 0.081 0.090 0.092zM18.712 6.789c0.169-0.039 0.312-0.13 0.417-0.255l0.001-0.001c0.068-0.101 0.136-0.189 0.209-0.272l-0.003 0.003c0.090-0.121 0.189-0.227 0.3-0.32l0.003-0.002c0.195-0.161 0.363-0.343 0.506-0.545l0.006-0.009c0.132-0.192 0.28-0.358 0.446-0.503l0.003-0.003c0.092-0.071 0.166-0.161 0.264-0.225 0.075-0.041 0.125-0.119 0.125-0.209 0-0.048-0.014-0.093-0.039-0.13l0.001 0.001c-0.317 0.187-0.582 0.428-0.791 0.713l-0.005 0.007c-0.021 0.031-0.044 0.059-0.070 0.083l-0 0c-0.214 0.205-0.426 0.414-0.646 0.616-0.161 0.174-0.334 0.332-0.521 0.472l-0.010 0.007c-0.156 0.111-0.263 0.28-0.29 0.476l-0 0.004c-0.007 0.055 0.048 0.11 0.096 0.092zM21.763 3.769c0.117-0.122 0.23-0.248 0.354-0.363 0.034-0.032 0.055-0.078 0.055-0.128 0-0.025-0.005-0.049-0.015-0.071l0 0.001c0-0.016-0.027-0.028-0.039-0.039s-0.041 0-0.050 0.012c-0.157 0.159-0.313 0.318-0.465 0.483-0.012 0.014 0 0.073 0.023 0.088s0.088 0.069 0.136 0.016zM5.253 5.149c0.11-0.108 0.218-0.218 0.331-0.32s0.258-0.196 0.366-0.311c0.205-0.242 0.415-0.461 0.637-0.666l0.005-0.005c0.032-0.034 0.051-0.080 0.051-0.13 0-0.031-0.007-0.059-0.020-0.085l0 0.001c-0.053-0.051-0.126-0.041-0.216 0.034l-0.067 0.057-0.554 0.547c-0.177 0.177-0.363 0.354-0.541 0.531zM25.098 6.607l0.027-0.028c0.080-0.151 0.17-0.282 0.274-0.4l-0.002 0.002v-0.327l-0.018 0.019c-0.117 0.119-0.246 0.228-0.354 0.354-0.079 0.086-0.156 0.178-0.227 0.274l-0.006 0.009c-0.048 0.062-0.014 0.122 0.032 0.177 0.024 0.025 0.059 0.041 0.097 0.041 0.025 0 0.048-0.007 0.068-0.019l-0.001 0c0.043-0.028 0.079-0.062 0.109-0.102l0.001-0.001zM5.239 3.464c0.004-0.012 0.006-0.026 0.006-0.040 0-0.028-0.009-0.054-0.024-0.076l0 0v0.156c0.009-0.014 0.014-0.028 0.018-0.041zM13.857 4.004c0.060-0.004 0.107-0.054 0.107-0.115 0-0.005-0-0.010-0.001-0.015l0 0.001c0-0.014-0.025-0.027-0.034-0.035-0.076 0.009-0.133 0.073-0.119 0.131 0.008 0.018 0.025 0.031 0.046 0.034l0 0zM6.966 4.565c-0.050 0.028-0.093 0.057-0.133 0.090l0.002-0.001c-0.18 0.187-0.369 0.36-0.569 0.522l-0.012 0.009c-0.065 0.049-0.123 0.1-0.177 0.155l-0 0c-0.177 0.191-0.354 0.386-0.522 0.579l-0.161 0.177c0.051 0.061 0.101 0.129 0.146 0.199l0.005 0.008c0.304-0.292 0.566-0.619 0.885-0.897 0.053-0.046 0.087-0.113 0.138-0.163 0.114-0.143 0.236-0.27 0.368-0.384l0.004-0.003c0.059-0.044 0.098-0.114 0.098-0.193 0-0.004-0-0.007-0-0.011l0 0c-0.002-0.025-0.041-0.051-0.071-0.087zM14.827 4.6c0.044-0.055 0.083-0.118 0.114-0.185l0.002-0.006-0.044-0.106c-0.035 0.013-0.066 0.029-0.093 0.049l0.001-0.001c-0.050 0.042-0.094 0.088-0.135 0.136l-0.001 0.002c-0.016 0.014-0.026 0.035-0.026 0.058 0 0.030 0.017 0.057 0.043 0.070l0 0c0.016 0.006 0.034 0.010 0.054 0.010 0.031 0 0.061-0.010 0.085-0.026l-0.001 0zM21.232 4.255c0.014-0.044 0.041-0.087 0.058-0.131 0.003-0.005 0.005-0.011 0.005-0.018s-0.002-0.013-0.005-0.018l0 0c0-0.009-0.032-0.019-0.037-0.014-0.101 0.073-0.251 0.097-0.283 0.241l0.074 0.032c0.108 0.042 0.143 0.025 0.188-0.092zM14.539 6.401c0.035-0.013 0.065-0.034 0.088-0.062l0-0c0.062-0.107 0.153-0.192 0.264-0.243l0.004-0.002c0.042-0.021 0.069-0.073 0.101-0.11s0.048-0.076 0.083-0.097c0.169-0.128 0.319-0.26 0.457-0.403l0.001-0.001c0.149-0.165 0.316-0.311 0.498-0.434l0.010-0.006c0.019-0.012 0.035-0.026 0.047-0.044l0-0c0.080-0.101 0.156-0.203 0.239-0.303 0.021-0.027 0.048-0.048 0.080-0.060l0.001-0c0.145-0.044 0.156-0.161 0.177-0.271 0.009-0.057-0.037-0.074-0.085-0.071-0.031 0.005-0.059 0.016-0.084 0.031l0.001-0.001c-0.164 0.084-0.298 0.204-0.398 0.35l-0.002 0.004c-0.096 0.128-0.205 0.239-0.327 0.333l-0.004 0.003c-0.068 0.061-0.13 0.127-0.185 0.198l-0.003 0.003c-0.107 0.138-0.227 0.258-0.362 0.361l-0.005 0.003c-0.257 0.182-0.476 0.395-0.66 0.637l-0.005 0.007c-0.016 0.019-0.032 0.040-0.046 0.061l-0.001 0.002c-0.009 0.099 0.053 0.14 0.115 0.111zM14.519 3.402c0.005-0.011 0.008-0.023 0.008-0.036s-0.003-0.026-0.009-0.037l0 0.001c-0.012-0.006-0.025-0.009-0.040-0.009s-0.028 0.003-0.040 0.009l0.001-0c-0.13 0.063-0.236 0.158-0.311 0.275l-0.002 0.003c-0.009 0.009 0 0.027 0 0.057s0.060 0.037 0.085 0.030c0.148-0.037 0.263-0.147 0.307-0.289l0.001-0.003zM15.131 4.153c0.022-0.005 0.041-0.015 0.057-0.029l-0 0c0.237-0.195 0.474-0.389 0.708-0.586 0.046-0.042 0.084-0.093 0.112-0.149l0.001-0.003c0.011-0.018-0.021-0.055-0.035-0.083-0.029 0.006-0.055 0.015-0.080 0.027l0.002-0.001c-0.244 0.195-0.49 0.391-0.731 0.589-0.049 0.043-0.091 0.092-0.124 0.148l-0.002 0.003c0 0.016 0 0.053 0.025 0.073s0.046 0.014 0.067 0.011zM15.766 6.746c0.023 0.018 0.051 0.028 0.082 0.028 0.037 0 0.070-0.015 0.095-0.039v0c0.081-0.071 0.155-0.146 0.224-0.225l0.002-0.003c0.153-0.228 0.309-0.427 0.478-0.613l-0.004 0.004c0.063-0.058 0.12-0.12 0.174-0.184l0.003-0.003c0.063-0.079 0.136-0.145 0.218-0.2l0.003-0.002c0.12-0.087 0.224-0.184 0.314-0.293l0.002-0.003c0.2-0.259 0.427-0.483 0.679-0.675l0.009-0.006c0.044-0.026 0.080-0.062 0.105-0.105l0.001-0.001c0.107-0.158 0.241-0.289 0.396-0.389l0.005-0.003c0.222-0.178 0.418-0.373 0.592-0.586l0.006-0.007c0.024-0.038 0.044-0.081 0.058-0.127l0.001-0.003c-0.021-0.037-0.030-0.081-0.055-0.090-0.005-0.001-0.012-0.001-0.018-0.001-0.030 0-0.057 0.011-0.078 0.030l0-0c-0.127 0.111-0.243 0.226-0.35 0.35l-0.004 0.004c-0.194 0.273-0.443 0.495-0.732 0.653l-0.011 0.006c-0.041 0.020-0.075 0.048-0.1 0.082l-0 0.001c-0.119 0.165-0.255 0.308-0.408 0.43l-0.004 0.003c-0.17 0.13-0.319 0.273-0.451 0.431l-0.004 0.004c-0.166 0.168-0.325 0.345-0.474 0.53l-0.010 0.013c-0.021 0.031-0.044 0.057-0.070 0.081l-0 0c-0.166 0.159-0.34 0.315-0.502 0.479-0.069 0.076-0.132 0.161-0.187 0.251l-0.004 0.007c-0.018 0.020-0.029 0.047-0.029 0.077 0 0.039 0.019 0.073 0.048 0.094l0 0zM17.382 3.539c0-0.027-0.025-0.058-0.046-0.083-0.026 0.004-0.049 0.015-0.067 0.030l0-0c-0.071 0.071-0.142 0.142-0.207 0.218-0.030 0.044-0.060 0.094-0.085 0.147l-0.003 0.007c0.041 0.019 0.065 0.044 0.085 0.041 0.046-0.010 0.086-0.027 0.122-0.050l-0.002 0.001c0.113-0.063 0.191-0.176 0.203-0.308l0-0.002zM17.304 6.789c0.052-0.079 0.116-0.145 0.191-0.198l0.002-0.002c0.108-0.064 0.199-0.145 0.273-0.24l0.002-0.002c0.108-0.117 0.224-0.224 0.348-0.321l0.006-0.005c0.032-0.029 0.061-0.060 0.087-0.092l0.001-0.002c0.055-0.065 0.101-0.14 0.161-0.2 0.223-0.23 0.433-0.469 0.678-0.676 0.165-0.134 0.312-0.276 0.446-0.431l0.004-0.004c0.078-0.094 0.177-0.177 0.255-0.267s0.143-0.159 0.218-0.239c0.103-0.111 0.203-0.223 0.311-0.329s0.246-0.218 0.354-0.333c0.040-0.047 0.073-0.102 0.094-0.163l0.001-0.004c0.025-0.057-0.028-0.11-0.134-0.103-0.028 0.019-0.083 0.053-0.133 0.092-0.308 0.248-0.531 0.582-0.856 0.807-0.053 0.049-0.1 0.102-0.141 0.16l-0.002 0.003c-0.094 0.101-0.177 0.202-0.285 0.297-0.135 0.102-0.252 0.219-0.351 0.349l-0.003 0.004c-0.082 0.132-0.188 0.242-0.311 0.327l-0.004 0.002c-0.048 0.036-0.090 0.075-0.129 0.116l-0.001 0.001c-0.145 0.152-0.285 0.308-0.432 0.457-0.113 0.113-0.242 0.212-0.354 0.331-0.156 0.177-0.246 0.395-0.421 0.559-0.010 0.009-0.016 0.022-0.016 0.036 0 0.001 0 0.002 0 0.003v-0c0 0.032 0.011 0.076 0.034 0.090 0.010 0.004 0.022 0.006 0.034 0.006 0.029 0 0.055-0.012 0.074-0.031v0zM16.771 4.22c0.016-0.024 0.032-0.052 0.046-0.080l0.002-0.005c-0.034-0.016-0.060-0.041-0.087-0.041s-0.051 0.027-0.069 0.046-0.060 0.088-0.011 0.127 0.090-0.009 0.119-0.048z"></path>
<path d="M14.627 8.818c-0.531 0-0.901-0.092-1.161-0.281-0.752-0.545-0.947-1.916-0.455-3.185 0.547-1.415 1.707-2.224 3.185-2.224 0.003 0 0.007-0 0.011-0 0.156 0 0.31 0.009 0.462 0.027l-0.018-0.002c3.59 0.386 4.050 3.519 4.059 3.551 0.004 0.025 0.006 0.053 0.006 0.082 0 0.241-0.147 0.448-0.356 0.535l-0.004 0.001c-0.893 0.352-3.901 1.495-5.729 1.495zM16.188 4.291c-1.318 0-1.874 0.927-2.088 1.479-0.329 0.851-0.189 1.649 0.053 1.824 0.102 0.051 0.222 0.081 0.349 0.081 0.032 0 0.064-0.002 0.095-0.006l-0.004 0c0.92 0 2.893-0.508 4.844-1.239-0.244-0.676-0.95-1.9-2.916-2.123-0.099-0.011-0.214-0.018-0.33-0.018-0.001 0-0.003 0-0.004 0h0z"></path>
<path d="M14.627 8.618c-0.441 0-0.807-0.071-1.042-0.242-0.681-0.495-0.848-1.769-0.386-2.955 0.57-1.472 1.851-2.247 3.432-2.072 3.445 0.38 3.88 3.362 3.892 3.381 0.002 0.015 0.003 0.033 0.003 0.051 0 0.161-0.099 0.298-0.24 0.355l-0.003 0.001c-0.74 0.294-3.843 1.481-5.658 1.481zM16.188 4.089c-1.483 0-2.081 1.106-2.275 1.608-0.354 0.906-0.218 1.812 0.122 2.059 0.547 0.398 3.294-0.304 5.662-1.212-0.189-0.651-0.872-2.183-3.142-2.435-0.11-0.013-0.237-0.021-0.366-0.021h-0z"></path>
<path d="M25.832 9.439c-1.822 0-4.839-1.145-5.72-1.495-0.213-0.090-0.36-0.297-0.36-0.538 0-0.029 0.002-0.057 0.006-0.085l-0 0.003c0-0.032 0.469-3.158 4.069-3.556 0.136-0.015 0.294-0.024 0.454-0.025h0.001c1.476 0 2.636 0.81 3.185 2.224 0.492 1.272 0.295 2.643-0.455 3.185-0.285 0.195-0.665 0.287-1.18 0.287zM21.020 7.047c1.946 0.734 3.921 1.239 4.841 1.239 0.027 0.003 0.059 0.005 0.091 0.005 0.127 0 0.248-0.030 0.355-0.083l-0.005 0.002c0.241-0.177 0.382-0.973 0.053-1.824-0.177-0.444-0.722-1.479-2.090-1.479-0.118 0.001-0.235 0.008-0.349 0.021l0.015-0.001c-1.948 0.219-2.663 1.444-2.911 2.121z"></path>
<path d="M25.832 9.238c-1.814 0-4.917-1.191-5.646-1.479-0.143-0.059-0.242-0.197-0.242-0.358 0-0.017 0.001-0.034 0.003-0.051l-0 0.002c0-0.030 0.441-3.008 3.892-3.383 1.578-0.177 2.861 0.6 3.431 2.072 0.46 1.191 0.295 2.461-0.386 2.955-0.253 0.172-0.617 0.242-1.053 0.242zM20.768 7.166c2.358 0.906 5.105 1.608 5.649 1.21 0.34-0.237 0.476-1.154 0.122-2.059-0.209-0.541-0.885-1.78-2.631-1.592-2.256 0.255-2.948 1.794-3.141 2.442z"></path>
<path d="M21.363 17.231h-0.050c-0.3-0.027-0.533-0.277-0.533-0.582 0-0.017 0.001-0.034 0.002-0.050l-0 0.002c0.249-2.918 0.483-5.676-0.718-8.387-0.218 0.207-0.487 0.492-0.734 0.778-0.87 1.005-1.051 2.314-1.239 3.701-0.177 1.219-0.341 2.477-0.991 3.638-0.102 0.18-0.292 0.299-0.51 0.299-0.002 0-0.004 0-0.005-0h0c-0.001 0-0.001 0-0.002 0-0.104 0-0.201-0.028-0.286-0.076l0.003 0.001c-0.179-0.102-0.298-0.292-0.298-0.509 0-0.105 0.028-0.203 0.076-0.288l-0.002 0.003c0.531-0.964 0.699-2.123 0.853-3.225 0.205-1.495 0.419-3.040 1.515-4.305s1.513-1.447 1.794-1.447c0.014-0.001 0.031-0.002 0.048-0.002s0.033 0.001 0.050 0.002l-0.002-0c0.219 0.024 0.403 0.156 0.501 0.34l0.002 0.003c1.649 3.185 1.385 6.286 1.106 9.567-0.026 0.3-0.276 0.534-0.58 0.536h-0z"></path>
<path d="M21.363 17.030h-0.034c-0.199-0.014-0.355-0.18-0.355-0.381 0-0.012 0-0.023 0.002-0.034l-0 0.001c0.258-3.029 0.503-5.897-0.851-8.735-0.341 0.307-0.652 0.627-0.942 0.966l-0.012 0.014c-0.909 1.049-1.093 2.389-1.288 3.806-0.166 1.2-0.338 2.442-0.968 3.565-0.067 0.118-0.191 0.196-0.334 0.196-0.211 0-0.382-0.171-0.382-0.382 0-0.069 0.018-0.133 0.050-0.189l-0.001 0.002c0.561-0.996 0.725-2.169 0.881-3.296 0.202-1.465 0.41-2.98 1.469-4.2 1.239-1.428 1.546-1.392 1.714-1.373 0.154 0.015 0.284 0.107 0.353 0.236l0.001 0.002c1.621 3.135 1.361 6.205 1.083 9.455-0.019 0.195-0.182 0.347-0.381 0.347-0.002 0-0.004 0-0.005-0h0z"></path>
</svg>
