<!-- Generated by IcoMoon.io -->
<svg version="1.1" xmlns="http://www.w3.org/2000/svg" width="31" height="32" viewBox="0 0 31 32">
<title>mushrooms</title>
<path d="M8.341 26.715c-0.001-0.009-0.002-0.019-0.002-0.030 0-0.111 0.080-0.202 0.186-0.22l0.001-0c0.027 0.034 0.069 0.064 0.076 0.098 0.028 0.154 0.044 0.332 0.044 0.514s-0.016 0.359-0.046 0.532l0.003-0.018c0 0.032-0.081 0.061-0.168 0.121-0.037-0.084-0.066-0.181-0.085-0.283l-0.001-0.008c-0.012-0.234-0.013-0.469-0.007-0.704zM8.466 27.911c0.089 0.056 0.147 0.154 0.147 0.265 0 0.006-0 0.011-0 0.017l0-0.001 0.012 0.673c0 0.281-0.015 0.562 0 0.841-0.009 0.050-0.023 0.095-0.042 0.136l0.001-0.003c-0.168-0.044-0.168-0.121-0.178-0.192-0.032-0.219-0.045-0.437-0.066-0.656s-0.037-0.437-0.037-0.657c-0.003-0.021-0.005-0.045-0.005-0.070 0-0.142 0.065-0.269 0.168-0.352l0.001-0.001zM10.319 28.037c0 0.034-0.042 0.069-0.072 0.114-0.18-0.074-0.192-0.168-0.168-0.267 0.027-0.121 0.043-0.259 0.043-0.401 0-0.086-0.006-0.171-0.017-0.254l0.001 0.010c-0.008-0.128-0.013-0.256-0.015-0.385s0.008-0.257 0.013-0.385c-0-0.005-0-0.012-0-0.018 0-0.109 0.052-0.206 0.132-0.267l0.001-0.001c0.037 0.018 0.067 0.027 0.069 0.035 0.022 0.193 0.035 0.416 0.035 0.642 0 0.095-0.002 0.19-0.007 0.284l0.001-0.013c-0.008 0.301-0.034 0.612-0.015 0.906zM10.174 25.658c0.037-0.37 0.092-0.738 0.124-1.11s0.087-0.726 0.134-1.088c0.022-0.177 0.027-0.356 0.052-0.533 0.019-0.1 0.041-0.184 0.068-0.266l-0.004 0.015c0.022-0.060 0.043-0.133 0.059-0.209l0.002-0.011c0.027-0.192 0.045-0.385 0.077-0.577 0.067-0.395 0.229-0.77 0.24-1.177-0-0.002-0-0.003-0-0.005 0-0.067 0.045-0.124 0.107-0.141l0.001-0c0.113 0.025 0.121 0.064 0.123 0.103 0.002 0.041 0.003 0.090 0.003 0.138 0 0.298-0.047 0.584-0.133 0.853l0.005-0.020c-0.012 0.024-0.025 0.054-0.035 0.085l-0.002 0.006c-0.012 0.227-0.042 0.439-0.091 0.645l0.005-0.024c-0.082 0.266 0 0.557-0.158 0.81-0.008 0.013 0.013 0.034 0.012 0.049-0.010 0.118-0.022 0.234-0.039 0.35-0.042 0.328-0.077 0.656-0.126 0.98l-0.214 1.269c0 0.004 0 0.009 0 0.013 0 0.082-0.048 0.153-0.117 0.186l-0.001 0.001c-0.040-0.049-0.074-0.076-0.077-0.099-0.012-0.057-0.018-0.123-0.018-0.191 0-0.019 0.001-0.037 0.002-0.056l-0 0.003zM10.156 28.309c0.049 0.029 0.111 0.049 0.116 0.072 0.013 0.081 0.072 0.168-0.081 0.242-0.131-0.14-0.126-0.141-0.035-0.314zM10.206 29.305c0.093 0.025 0.159 0.109 0.159 0.208 0 0.009-0.001 0.017-0.001 0.025l0-0.001c0 0.052 0 0.106-0.114 0.129-0.18-0.143-0.187-0.173-0.044-0.361zM10.256 30.914c0.094 0.029 0.19 0.054 0.284 0.081 0.004-0.011 0.006-0.023 0.006-0.035s-0.002-0.025-0.006-0.036l0 0.001c-0.081-0.207 0.072-0.451-0.168-0.649-0.104 0.030-0.179 0.124-0.179 0.236 0 0.026 0.004 0.051 0.012 0.075l-0-0.002c0.004 0.119 0.023 0.232 0.055 0.339l-0.002-0.009zM10.388 30.11c0 0.013-0.044 0.040-0.064 0.040-0.003 0-0.008 0-0.012 0-0.033 0-0.065-0.009-0.092-0.024l0.001 0c-0.109-0.103-0.103-0.215 0.032-0.353 0.195 0.101 0.15 0.22 0.134 0.336zM10.219 29.219c-0.222-0.168-0.158-0.319-0.030-0.484 0.124 0.076 0.133 0.076 0.134 0.148 0.002 0.106 0.077 0.215-0.104 0.336zM11.233 19.607c0.063 0.038 0.104 0.105 0.104 0.182 0 0.031-0.007 0.060-0.018 0.087l0.001-0.001c-0.010 0.050-0.037 0.099-0.145 0.092-0.133-0.187-0.129-0.215 0.059-0.36zM11.185 20.435c-0.017 0.013-0.039 0.021-0.062 0.021-0.004 0-0.008-0-0.012-0.001l0.001 0c-0.036-0.009-0.067-0.028-0.091-0.054l-0-0c-0.074-0.131-0.039-0.235 0.128-0.336 0.16 0.158 0.086 0.262 0.037 0.37zM11.265 19.526c-0.168-0.214-0.074-0.348 0.091-0.477 0.103 0.104 0.111 0.106 0.094 0.168-0.017 0.119 0.022 0.239-0.185 0.309zM11.805 17.12l-0.136 0.017c-0.079 0.336-0.15 0.673-0.22 0.995-0.002 0.009-0.003 0.018-0.003 0.029s0.001 0.020 0.003 0.029l-0-0.001c0.001 0.012 0.001 0.025 0.001 0.038 0 0.103-0.031 0.198-0.083 0.278l0.001-0.002c-0.039 0.091-0.067 0.197-0.079 0.308l-0 0.005c0 0.030 0.047 0.071 0.084 0.121 0.075-0.036 0.131-0.101 0.154-0.18l0.001-0.002c0.030-0.163 0.078-0.308 0.144-0.444l-0.004 0.010c0.224-0.372 0.225-0.79 0.314-1.19-0-0.005-0-0.011-0-0.017s0-0.012 0.001-0.018l-0 0.001z"></path>
<path d="M8.711 30.352c0.158-0.114 0.342-0.231 0.532-0.338l0.030-0.015c0.108-0.061 0.185-0.134 0.281-0.2 0.217-0.148 0.441-0.289 0.654-0.429 0.104-0.071 0.116-0.141 0.039-0.168-0.030-0.007-0.064-0.012-0.099-0.012-0.084 0-0.163 0.024-0.229 0.066l0.002-0.001c-0.158 0.168-0.536 0.235-0.656 0.419-0.2 0.084-0.372 0.192-0.524 0.323l0.002-0.002c-0.118 0.077-0.219 0.152-0.316 0.23l0.007-0.005c0.091 0.044 0.183 0.089 0.277 0.131zM11.938 29.552c0.037-0.047 0.084-0.085 0.139-0.108l0.002-0.001c0.033-0.005 0.071-0.008 0.11-0.008s0.077 0.003 0.114 0.008l-0.004-0c0.015 0 0.022 0.018 0.032 0.029-0.012 0.061-0.195 0.129-0.326 0.119-0.024-0.008-0.067-0.032-0.067-0.039zM11.639 31.274c0.2-0.112 0.372-0.244 0.522-0.398l0-0c0.034-0.037 0.15-0.066 0.205-0.103 0.192-0.129 0.38-0.257 0.57-0.38s0.387-0.245 0.58-0.363c0.024-0.013 0.044-0.030 0.060-0.050l0-0c0.047-0.050-0.039-0.089-0.168-0.071-0.055 0.007-0.105 0.020-0.153 0.039l0.005-0.002c-0.154 0.063-0.282 0.126-0.405 0.197l0.016-0.009c-0.283 0.171-0.527 0.345-0.757 0.535l0.011-0.009c-0.113 0.109-0.242 0.202-0.384 0.273l-0.009 0.004c-0.159 0.091-0.293 0.179-0.422 0.274l0.012-0.008c0.111 0.025 0.21 0.049 0.316 0.071zM10.166 30.889l0.020-0.013c0.22-0.141 0.454-0.279 0.673-0.417 0.091-0.051 0.169-0.11 0.239-0.178l-0 0c0.079-0.091-0.027-0.138-0.219-0.106-0.066 0.009-0.126 0.028-0.182 0.055l0.003-0.002c-0.279 0.183-0.631 0.336-0.898 0.545zM11.141 29.977c0.116-0.067 0.257-0.124 0.41-0.195 0.052 0.035 0.116 0.057 0.109 0.077-0.068 0.109-0.177 0.187-0.305 0.211l-0.003 0c-0.027 0.007-0.058 0.011-0.090 0.011s-0.063-0.004-0.092-0.012l0.003 0.001c-0.039-0.017-0.064-0.074-0.032-0.094zM8.383 27.317c0.042-0.042 0.168-0.054 0.245-0.089s0.106-0.074 0.094-0.104-0.118-0.044-0.143-0.052c-0.183 0-0.286 0.020-0.313 0.099-0.013 0.044-0.057 0.071-0.114 0.091l-0.045 0.264c0.104-0.063 0.194-0.132 0.277-0.209l-0.001 0.001zM8.498 28.656c0.050-0.046 0.105-0.087 0.164-0.122l0.005-0.003c0.062-0.039 0.134-0.072 0.195-0.111 0.215-0.14 0.414-0.286 0.647-0.407 0.28-0.133 0.514-0.265 0.738-0.411l-0.024 0.015c0.040-0.028 0.086-0.052 0.136-0.069l0.004-0.001c0.046-0.018 0.1-0.028 0.156-0.028 0.065 0 0.127 0.014 0.183 0.040l-0.003-0.001c0.027 0.013 0.046 0.041 0.046 0.073 0 0.020-0.007 0.038-0.019 0.052l0-0c-0.091 0.090-0.196 0.166-0.311 0.227l-0.007 0.003c-0.412 0.207-0.841 0.419-1.264 0.649-0.094 0.052-0.168 0.113-0.267 0.168-0.053 0.024-0.118 0.049-0.185 0.069l-0.012 0.003c-0.175-0.008-0.249-0.077-0.182-0.145zM12.427 29.211c0.156-0.039 0.215-0.086 0.252-0.158 0.084-0.094 0.202-0.157 0.334-0.168l0.002-0c0.124-0.027 0.269 0 0.262 0.064-0.007 0.017-0.019 0.030-0.033 0.040l-0 0-0.595 0.336c-0.037 0.017-0.079 0.027-0.124 0.027s-0.088-0.010-0.126-0.027l0.002 0.001c-0.082-0.025-0.079-0.089 0.027-0.114zM10.653 26.211c0.051 0.008 0.097 0.022 0.139 0.042l-0.003-0.001c-0.049 0.052-0.067 0.101-0.128 0.128-0.203 0.091-0.414 0.183-0.636 0.269-0.291 0.113-0.647 0.183-0.864 0.35-0.015 0.014-0.034 0.023-0.055 0.027l-0.001 0c-0.027 0.005-0.059 0.008-0.091 0.008s-0.063-0.003-0.094-0.008l0.003 0c-0.044-0.017-0.089-0.072-0.071-0.092 0.046-0.058 0.111-0.101 0.184-0.119l0.002-0c0.093-0.009 0.174-0.053 0.232-0.119l0-0c0.073-0.051 0.157-0.092 0.248-0.116l0.006-0.001c0.322-0.098 0.592-0.203 0.853-0.327l-0.037 0.016c0.093-0.033 0.199-0.053 0.311-0.054h0zM11.454 27.048c0.109-0.036 0.248-0.074 0.391-0.103l0.026-0.004c0.063 0.009 0.119 0.026 0.172 0.050l-0.004-0.002c0.006 0.008 0.009 0.019 0.009 0.030 0 0.022-0.013 0.041-0.032 0.049l-0 0c-0.316 0.134-0.637 0.276-0.963 0.42-0.061 0.027-0.134 0.086-0.227 0.040-0.032-0.020-0.053-0.054-0.053-0.093 0-0.012 0.002-0.024 0.006-0.035l-0 0.001c0-0.037 0.061-0.074 0.113-0.099 0.182-0.091 0.365-0.178 0.563-0.254zM10.394 18.601l0.906-0.224c0.158-0.037 0.336-0.059 0.484-0.099l0.747-0.212c0.168-0.042 0.336-0.076 0.504-0.114l0.706-0.168c0.085-0.026 0.19-0.049 0.297-0.066l0.014-0.002c0.451-0.050 0.807-0.168 1.204-0.251l0.056-0.017c0.066-0.018 0.121-0.057 0.044-0.098-0.061-0.029-0.132-0.051-0.206-0.062l-0.004-0c-0.042-0.010-0.090-0.015-0.139-0.015s-0.097 0.006-0.143 0.016l0.004-0.001c-0.227 0.072-0.492 0.122-0.764 0.141l-0.011 0.001c-0.339 0.066-0.633 0.149-0.916 0.253l0.040-0.013c-0.247 0.065-0.543 0.118-0.847 0.148l-0.024 0.002c-0.394 0.024-0.763 0.101-1.109 0.224l0.028-0.009c-0.098 0.038-0.217 0.073-0.34 0.1l-0.016 0.003-0.474 0.118c-0.010 0.114-0.027 0.239-0.040 0.345zM8.276 28.999c-0.050-0.017-0.093-0.041-0.13-0.073l0.001 0c0.068-0.034 0.15-0.069 0.235-0.098l0.014-0.004c0.015 0 0.079 0.044 0.108 0.059-0.033 0.071-0.103 0.12-0.186 0.12-0.015 0-0.029-0.002-0.043-0.004l0.001 0zM11.813 28.183c0.261-0.067 0.409-0.198 0.71-0.232 0.052 0 0.084-0.044 0.128-0.066 0.046-0.025 0.101-0.049 0.158-0.071l0.010-0.003c0.145-0.049 0.291-0.057 0.316-0.025s-0.050 0.086-0.123 0.118-0.264 0.066-0.294 0.113c-0.096 0.151-0.417 0.214-0.631 0.319-0.371 0.159-0.685 0.328-0.983 0.52l0.026-0.016c-0.142 0.086-0.308 0.169-0.481 0.239l-0.024 0.008c-0.046 0.015-0.103 0.029-0.161 0.039l-0.008 0.001c-0.022-0.032-0.069-0.064-0.050-0.082 0.066-0.073 0.14-0.138 0.219-0.194l0.004-0.003c0.23-0.16 0.533-0.281 0.728-0.449 0.127-0.101 0.28-0.176 0.446-0.215l0.008-0.002zM13.244 20.293l-0.14 0.037c-0.027-0.025-0.071-0.050-0.076-0.074s0.054-0.024 0.099-0.042zM10.177 19.84c0.118-0.030 0.239-0.055 0.363-0.081 0.187-0.037 0.336-0.103 0.521-0.146 0.316-0.077 0.646-0.14 0.955-0.219 0.315-0.105 0.698-0.198 1.091-0.263l0.046-0.006c0.069-0.013 0.129-0.030 0.187-0.053l-0.007 0.002 1.19-0.301c0.123-0.030 0.237-0.066 0.353-0.101 0.069-0.020 0.064-0.062 0.010-0.106-0.045-0.039-0.104-0.063-0.169-0.063-0.012 0-0.024 0.001-0.036 0.002l0.001-0c-0.060 0.001-0.118 0.006-0.174 0.016l0.006-0.001c-0.361 0.155-0.884 0.178-1.325 0.271-0.578 0.118-1.090 0.301-1.725 0.38-0.055 0.012-0.103 0.028-0.149 0.049l0.005-0.002-1.073 0.336c-0.029 0.086-0.049 0.182-0.071 0.284zM9.851 21.017c-0.039 0.124-0.077 0.249-0.118 0.373 0.294-0.096 0.592-0.19 0.888-0.282 0.047-0.015 0.104-0.028 0.162-0.036l0.006-0.001c0.544-0.083 1.033-0.249 1.479-0.486l-0.025 0.012c-0.105-0.058-0.23-0.091-0.362-0.091-0.102 0-0.199 0.020-0.288 0.056l0.005-0.002c-0.129 0.064-0.309 0.103-0.454 0.168-0.288 0.103-0.628 0.188-0.979 0.239l-0.029 0.004z"></path>
<path d="M12.245 20.595l0.003 0.005-0.010-0.003 0.002-0.002h0.005zM13.374 20.076c0.247-0.057 0.496-0.111 0.73-0.178 0.038-0.008 0.082-0.013 0.127-0.013 0.089 0 0.173 0.018 0.25 0.052l-0.004-0.002c0.026 0.013 0.049 0.030 0.069 0.049l-0-0c-0.012 0.017-0.013 0.034-0.030 0.039-0.319 0.077-0.639 0.156-0.967 0.23-0.063-0.002-0.121-0.021-0.169-0.053l0.001 0.001c-0.042-0.040-0.111-0.099-0.007-0.124zM12.182 26.884c0-0.049 0.118-0.084 0.249-0.071 0.026 0.006 0.048 0.017 0.068 0.031l-0.001-0c-0.022 0.059-0.141 0.098-0.254 0.081-0.027-0.003-0.061-0.022-0.062-0.040zM11.097 25.981c0.105-0.029 0.231-0.054 0.36-0.068l0.011-0.001 0.195 0.059c-0.027 0.029-0.058 0.054-0.092 0.073l-0.002 0.001c-0.069 0.029-0.157 0.060-0.247 0.086l-0.018 0.005c-0.025 0.008-0.054 0.013-0.084 0.013-0.060 0-0.116-0.019-0.161-0.052l0.001 0.001c-0.009-0.012-0.014-0.028-0.014-0.044 0-0.033 0.021-0.061 0.051-0.072l0.001-0z"></path>
<path d="M12.392 20.378h0.252c0.025 0.002 0.048 0.008 0.068 0.019l-0.001-0c0.015 0.010 0.030 0.035 0.022 0.039-0.15 0.064-0.215 0.188-0.488 0.168-0.017-0.022-0.034-0.048-0.049-0.074l-0.002-0.003c-0.064-0.128-0.025-0.153 0.197-0.148zM11.655 24.462c-0.21-0.012-0.432-0.030-0.526 0.089-0.032 0.030-0.073 0.051-0.118 0.060l-0.002 0-0.594 0.146c-0.032 0.006-0.061 0.018-0.087 0.034l0.001-0.001c-0.22 0.168-0.585 0.24-0.873 0.368-0.3 0.108-0.547 0.217-0.785 0.34l0.037-0.017c-0.018 0.045-0.035 0.091-0.054 0.138-0.037 0.081-0.074 0.149-0.115 0.214l0.004-0.007c0.268-0.086 0.501-0.194 0.717-0.326l-0.014 0.008c0.205-0.105 0.443-0.195 0.692-0.256l0.023-0.005c0.159-0.042 0.29-0.086 0.418-0.138l-0.023 0.008c0.19-0.092 0.411-0.169 0.642-0.22l0.020-0.004c0.266-0.044 0.504-0.141 0.711-0.28l-0.006 0.004c0.025-0.020 0.059-0.042 0.066-0.066s-0.020-0.087-0.134-0.092zM13.345 26.445c0.004-0 0.008-0 0.013-0 0.044 0 0.086 0.007 0.126 0.021l-0.003-0.001c0.010 0.007 0.016 0.018 0.016 0.030s-0.006 0.023-0.016 0.030l-0 0c-0.154 0.098-0.335 0.168-0.53 0.197l-0.008 0.001c-0.016 0.002-0.034 0.002-0.053 0.002s-0.037-0.001-0.055-0.003l0.002 0c-0.018-0.022-0.067-0.054-0.054-0.072 0.096-0.119 0.267-0.197 0.562-0.207zM11.956 25.797c0.015-0.021 0.035-0.037 0.060-0.045l0.001-0c0.383-0.168 0.763-0.336 1.153-0.493 0.086-0.032 0.187-0.055 0.291-0.065l0.005-0c0.058 0.010 0.11 0.027 0.158 0.050l-0.004-0.002c-0.027 0.029-0.032 0.050-0.057 0.062l-1.164 0.504c-0.084 0.036-0.183 0.065-0.286 0.083l-0.008 0.001c-0.050-0.002-0.097-0.015-0.138-0.038l0.002 0.001c-0.013-0.007-0.021-0.020-0.021-0.035 0-0.009 0.003-0.017 0.008-0.024l-0 0zM13.913 22.446c-0.018-0.001-0.038-0.001-0.059-0.001-0.068 0-0.135 0.004-0.201 0.012l0.008-0.001c-0.451 0.092-0.845 0.214-1.222 0.368l0.045-0.016c-0.227 0.115-0.49 0.2-0.767 0.242l-0.015 0.002c-0.079 0.010-0.15 0.033-0.215 0.067l0.003-0.002c-0.368 0.202-0.881 0.298-1.345 0.434-0.224 0.055-0.419 0.128-0.603 0.221l0.016-0.007c-0.096 0.052-0.208 0.096-0.325 0.127l-0.011 0.002c-0.024 0.092-0.047 0.185-0.072 0.277 0.336-0.081 0.631-0.195 0.953-0.282 0.336-0.087 0.623-0.19 0.899-0.315l-0.034 0.014c0.245-0.108 0.53-0.198 0.828-0.253l0.025-0.004c0.064-0.011 0.12-0.035 0.17-0.068l-0.001 0.001c0.316-0.24 0.804-0.361 1.315-0.467 0.252-0.052 0.477-0.131 0.706-0.202 0.042-0.012 0.077-0.050 0.064-0.074s-0.092-0.045-0.16-0.074zM13.291 23.968c0.058 0.012 0.109 0.035 0.155 0.065l-0.002-0.001c0.008 0-0.030 0.039-0.064 0.049-0.14 0.044-0.279 0.087-0.429 0.124-0.081 0.020-0.18 0.025-0.296 0.040-0.035-0.040-0.077-0.069-0.069-0.084 0.026-0.040 0.061-0.072 0.103-0.093l0.002-0.001c0.133-0.069 0.29-0.109 0.457-0.109 0.051 0 0.1 0.004 0.149 0.011l-0.005-0.001zM14.149 21.135c-0.012-0-0.027-0.001-0.041-0.001-0.1 0-0.197 0.011-0.291 0.031l0.009-0.002c-0.232 0.062-0.441 0.141-0.673 0.207s-0.434 0.113-0.654 0.168l-0.477 0.118c-0.178 0.047-0.336 0.103-0.53 0.145-0.339 0.078-0.63 0.172-0.91 0.286l0.039-0.014c-0.336 0.131-0.721 0.239-1.096 0.35-0.018 0.108-0.035 0.215-0.056 0.321l0.543-0.168c0.092-0.025 0.171-0.053 0.246-0.087l-0.011 0.004c0.189-0.095 0.409-0.163 0.641-0.191l0.010-0.001c0.265-0.046 0.501-0.116 0.725-0.21l-0.022 0.008c0.192-0.059 0.392-0.111 0.59-0.168 0.123-0.020 0.231-0.047 0.336-0.082l-0.015 0.004c0.464-0.222 1.118-0.304 1.617-0.491 0.081-0.030 0.15-0.066 0.19-0.084 0.030-0.082-0.061-0.146-0.171-0.145zM11.955 24.333c0.042-0.008 0.092-0.012 0.168-0.020 0.029 0.034 0.074 0.062 0.071 0.086s-0.052 0.039-0.092 0.049c-0.030 0.012-0.064 0.019-0.099 0.019-0.052 0-0.101-0.014-0.142-0.039l0.001 0.001c-0.091-0.064 0.022-0.077 0.094-0.094zM20.353 3.83c0.011 0.033 0.017 0.070 0.017 0.109 0 0.024-0.002 0.048-0.007 0.071l0-0.002c-0.033 0.071-0.073 0.131-0.119 0.186l0.001-0.001c0 0.012-0.029 0-0.042 0.012-0.042-0.044 0-0.235 0.084-0.336 0.018-0.025 0.057-0.049 0.066-0.039zM19.227 4.846c0.021-0.041 0.038-0.088 0.051-0.138l0.001-0.005c0.029-0.122 0.051-0.267 0.062-0.416l0.001-0.010c0.006-0.106 0.010-0.229 0.010-0.353 0-0.198-0.009-0.393-0.027-0.586l0.002 0.025c-0.011-0.068-0.017-0.147-0.017-0.228s0.006-0.159 0.018-0.236l-0.001 0.009c-0.092-0.035-0.168-0.071-0.241-0.112l0.009 0.005c-0.001 0.018-0.001 0.040-0.001 0.062 0 0.143 0.016 0.283 0.045 0.417l-0.002-0.013c-0.006 0.085-0.017 0.163-0.032 0.239l0.002-0.012v0.686c0 0.227-0.015 0.457-0.027 0.684-0.001 0.012-0.002 0.025-0.002 0.039s0.001 0.027 0.002 0.040l-0-0.002c0.015 0.067 0.089 0.019 0.148-0.094zM20.363 4.422c-0.027 0.046-0.042 0.101-0.042 0.16 0 0.050 0.011 0.097 0.031 0.139l-0.001-0.002c0.009 0.035 0.013 0.075 0.013 0.116 0 0.090-0.024 0.175-0.065 0.248l0.001-0.003c-0.047 0.118-0.156 0.22-0.2 0.182-0.009-0.014-0.015-0.032-0.015-0.050v-0c0.018-0.225 0.037-0.449 0.057-0.683 0.013-0.088 0.064-0.162 0.135-0.206l0.001-0.001c0.066-0.040 0.123-0.003 0.084 0.099zM22.554 5.237c0.044-0.121 0.101-0.254 0.134-0.375l-0.205-0.19q-0.057 0.309-0.116 0.61c-0.001 0.003-0.001 0.007-0.001 0.010 0 0.030 0.023 0.054 0.053 0.055h0c0.018 0 0.071-0.057 0.134-0.111zM18.033 2.69c0.001 0.013 0.002 0.028 0.002 0.043 0 0.053-0.010 0.103-0.029 0.15l0.001-0.003c-0.017 0.047-0.084 0.124-0.094 0.114-0.021-0.031-0.034-0.070-0.034-0.111 0-0.011 0.001-0.021 0.002-0.031l-0 0.001c0.017-0.083 0.038-0.155 0.065-0.224l-0.003 0.009c0.032 0.017 0.076 0.015 0.089 0.052z"></path>
<path d="M17.944 2.641l-0.005-0.002 0.003-0.007h0.005l-0.003 0.008zM21.3 5.532c0.014-0.051 0.025-0.112 0.032-0.175l0-0.005c0-0.050 0.008-0.098 0.023-0.143l-0.001 0.003c0.141-0.267 0.116-0.464 0.207-0.718 0.049-0.125 0.078-0.27 0.078-0.421 0-0.026-0.001-0.051-0.002-0.077l0 0.003v-0.035c-0.054-0.042-0.106-0.086-0.168-0.126l-0.077-0.055c-0.018 0.276-0.077 0.572-0.116 0.852-0.030 0.237-0.168 0.536-0.089 0.701 0.022 0.050-0.054 0.208-0.072 0.308s-0.042 0.168 0.029 0.168c0.044-0.007 0.118-0.135 0.158-0.281zM16.859 3.575c0-0.039-0.013-0.074-0.017-0.114-0.022-0.247-0.050-0.504-0.082-0.748 0.085-0.11 0.164-0.235 0.232-0.366l0.007-0.014c0.029 0.336 0.050 0.656 0.094 0.952 0 0.001 0 0.003 0 0.004 0 0.143-0.037 0.278-0.101 0.395l0.002-0.004c-0.067 0.082-0.109 0.049-0.134-0.104zM16.071 3.798c-0.020 0.065-0.032 0.139-0.032 0.216 0 0 0 0.001 0 0.001v-0l0.054-0.291zM22.426 5.527c0.042 0.024 0 0.145-0.081 0.245-0.018 0.016-0.039 0.029-0.062 0.038l-0.002 0.001c-0.037-0.052 0-0.168 0.076-0.256 0.018-0.020 0.057-0.035 0.069-0.029zM22.134 6.736c-0.025 0.040-0.056 0.074-0.092 0.102l-0.001 0.001c-0.005 0.003-0.011 0.004-0.017 0.004-0.019 0-0.035-0.014-0.037-0.033l-0-0c0.007-0.204 0.056-0.394 0.14-0.565l-0.004 0.008c0.022-0.033 0.043-0.062 0.065-0.089l-0.001 0.002c0.027 0 0.081-0.025 0.087 0 0.049 0.136 0.017 0.321-0.141 0.57zM23.452 5.95c0.003 0.011 0.005 0.024 0.005 0.038s-0.002 0.027-0.005 0.039l0-0.001c-0.076 0.412-0.151 0.819-0.24 1.232-0.028 0.106-0.066 0.199-0.114 0.285l0.003-0.006c-0.017 0.032-0.084 0.067-0.128 0.101-0.010-0.037-0.025-0.054-0.018-0.081 0.076-0.415 0.153-0.831 0.232-1.249 0.026-0.109 0.061-0.204 0.106-0.293l-0.003 0.008c0.028-0.038 0.064-0.069 0.104-0.092l0.002-0.001c0.005-0.002 0.012-0.004 0.018-0.004 0.017 0 0.032 0.010 0.039 0.024l0 0zM25.464 8.044l-0.022-0.030c-0.090 0.301-0.181 0.546-0.285 0.785l0.017-0.045c-0.099 0.239-0.16 0.469-0.23 0.698-0.013 0.042 0 0.092 0.025 0.094s0.091-0.054 0.153-0.092c0.047-0.062 0.091-0.133 0.129-0.207l0.004-0.008c0.119-0.28 0.234-0.622 0.325-0.974l0.012-0.054q-0.064-0.077-0.128-0.166zM24.212 8.082c-0.038 0.038-0.083 0.069-0.133 0.091l-0.003 0.001c-0.008 0-0.015-0.049 0-0.081 0.042-0.14 0.084-0.281 0.138-0.425 0.029-0.077 0.081-0.168 0.133-0.267 0.054 0 0.101-0.025 0.108-0.010 0.014 0.031 0.022 0.067 0.022 0.106 0 0.012-0.001 0.024-0.002 0.035l0-0.001c-0.029 0.216-0.124 0.405-0.263 0.552l0-0zM26.366 8.765c-0.103 0.474-0.36 1.009-0.476 1.475-0.020 0.084-0.029 0.168-0.037 0.203 0.059 0.074 0.168 0.034 0.222-0.059 0.059-0.082 0.113-0.175 0.156-0.273l0.004-0.010c0.077-0.227 0.129-0.444 0.203-0.673 0.062-0.192 0.136-0.387 0.209-0.582-0.109-0.023-0.203-0.051-0.293-0.087l0.013 0.004zM13.739 31.997c-0.139-0.001-0.267-0.051-0.366-0.134l0.001 0.001c-2.963-0.244-4.767-0.926-5.517-2.103-0.504-0.782-0.516-1.732-0.044-2.818 1.602-3.684 2.228-10.115 2.233-10.179 0.028-0.291 0.27-0.516 0.566-0.516 0 0 0.001 0 0.001 0h0.055c0.287 0.034 0.507 0.275 0.507 0.568 0 0.019-0.001 0.038-0.003 0.056l0-0.002c-0.025 0.271-0.649 6.677-2.322 10.525-0.316 0.728-0.336 1.3-0.042 1.75 0.965 1.513 5.073 1.633 6.423 1.681 1.409-0.039 5.728-0.153 6.726-1.703 0.286-0.444 0.274-1.009-0.037-1.722-1.681-3.85-2.297-10.905-2.322-11.203-0.001-0.015-0.002-0.032-0.002-0.049 0-0.297 0.227-0.541 0.518-0.568l0.002-0h0.050c0.296 0.002 0.538 0.228 0.566 0.517l0 0.002c0 0.072 0.632 7.166 2.233 10.848 0.466 1.074 0.451 2.018-0.049 2.791-0.775 1.207-2.68 1.907-5.823 2.14-0.097 0.078-0.221 0.126-0.356 0.126h-0z"></path>
<path d="M16.743 31.808h-3.005c-0.112-0.001-0.212-0.049-0.282-0.126l-0-0c-2.161-0.168-4.553-0.637-5.438-2.018-0.466-0.726-0.476-1.614-0.030-2.64 1.614-3.712 2.241-10.172 2.248-10.238 0.030-0.182 0.187-0.319 0.375-0.319 0.21 0 0.38 0.17 0.38 0.38 0 0.004-0 0.008-0 0.012v-0.001c-0.025 0.269-0.646 6.645-2.307 10.468-0.336 0.79-0.353 1.421-0.029 1.929 0.928 1.449 4.382 1.681 6.578 1.755 2.265-0.061 5.924-0.282 6.894-1.789 0.321-0.504 0.314-1.125-0.024-1.902-1.661-3.825-2.282-10.847-2.307-11.144-0.001-0.010-0.001-0.021-0.001-0.033 0-0.209 0.17-0.379 0.379-0.379 0.198 0 0.36 0.151 0.377 0.345l0 0.001c0 0.072 0.636 7.196 2.248 10.907 0.439 1.009 0.427 1.892-0.035 2.613-0.921 1.438-3.475 1.895-5.74 2.058-0.069 0.074-0.167 0.119-0.276 0.119-0.002 0-0.003 0-0.005-0h0z"></path>
<path d="M17.67 30.875h0.030l0.047-0.015c0.040-0.014 0.073-0.027 0.105-0.043l-0.006 0.002c0.075-0.033 0.139-0.069 0.199-0.11l-0.004 0.003c0.133-0.090 0.248-0.192 0.348-0.307l0.002-0.002c0.206-0.246 0.362-0.542 0.447-0.867l0.003-0.016c0.043-0.143 0.082-0.317 0.107-0.495l0.002-0.020c0.020-0.168 0.030-0.355 0.039-0.533s0-0.361-0.015-0.543l-0.057-0.545 0.146 0.531c0.044 0.178 0.072 0.361 0.108 0.543s0.042 0.372 0.052 0.56c0.001 0.035 0.002 0.077 0.002 0.118 0 0.16-0.009 0.317-0.027 0.472l0.002-0.019c-0.040 0.421-0.17 0.804-0.37 1.141l0.007-0.013c-0.114 0.186-0.244 0.346-0.394 0.486l-0.001 0.001c-0.076 0.073-0.159 0.14-0.247 0.199l-0.006 0.004c-0.040 0.029-0.087 0.058-0.135 0.085l-0.008 0.004c-0.025 0.013-0.047 0.027-0.077 0.040-0.027 0.014-0.059 0.027-0.092 0.039l-0.005 0.002c-0.030 0.009-0.064 0.014-0.1 0.014-0.201 0-0.364-0.163-0.364-0.364 0-0.165 0.11-0.305 0.261-0.349l0.003-0.001zM14.231 31.61c-0.063-0.142-0.127-0.319-0.18-0.5l-0.008-0.033c-0.052-0.168-0.092-0.351-0.128-0.53-0.063-0.313-0.099-0.673-0.099-1.042 0-0.012 0-0.024 0-0.036v0.002c0.013-0.379 0.056-0.74 0.128-1.091l-0.007 0.041 0.168-1.022v1.036c-0.001 0.043-0.002 0.094-0.002 0.145 0 0.305 0.023 0.604 0.066 0.897l-0.004-0.033c0.062 0.361 0.152 0.681 0.272 0.987l-0.012-0.034c0.061 0.153 0.124 0.304 0.198 0.449 0.078 0.161 0.155 0.296 0.239 0.424l-0.009-0.014c0.040 0.057 0.063 0.129 0.063 0.205 0 0.202-0.163 0.365-0.365 0.365-0.125 0-0.235-0.063-0.301-0.159l-0.001-0.001c-0.006-0.014-0.013-0.033-0.019-0.052l-0.001-0.005zM19.18 30.685c0.236-0.089 0.435-0.184 0.625-0.293l-0.020 0.011c0.205-0.114 0.382-0.244 0.541-0.393l-0.001 0.001c0.042-0.037 0.071-0.079 0.109-0.119s0.061-0.086 0.091-0.129c0.049-0.088 0.084-0.191 0.097-0.3l0-0.004 0.101-0.72 0.081 0.723c0.003 0.029 0.004 0.064 0.004 0.098s-0.001 0.069-0.004 0.103l0-0.004c-0.006 0.077-0.018 0.147-0.034 0.215l0.002-0.010c-0.022 0.062-0.044 0.129-0.071 0.192s-0.059 0.123-0.094 0.177c-0.148 0.229-0.314 0.428-0.503 0.604l-0.002 0.002c-0.182 0.177-0.381 0.34-0.591 0.486l-0.015 0.010c-0.058 0.040-0.13 0.064-0.207 0.064-0.202 0-0.367-0.164-0.367-0.367 0-0.125 0.063-0.236 0.159-0.302l0.001-0.001c0.028-0.017 0.060-0.032 0.095-0.041l0.003-0.001zM18.559 16.696c-0.012 0.228-0.019 0.495-0.019 0.763 0 0.323 0.010 0.644 0.029 0.962l-0.002-0.044c0.029 0.567 0.082 1.133 0.153 1.698s0.168 1.128 0.264 1.697l0.281 1.7-0.457-1.661c-0.151-0.553-0.313-1.105-0.444-1.67s-0.249-1.132-0.336-1.707c-0.087-0.495-0.155-1.098-0.19-1.709l-0.002-0.043c-0.001-0.010-0.002-0.023-0.002-0.035 0-0.201 0.163-0.365 0.365-0.365s0.365 0.163 0.365 0.365c0 0 0 0.001 0 0.001v-0 0.049zM16.716 17.278c0.071-0.009 0.133-0.041 0.18-0.087l-0 0c0.014-0.016 0.027-0.033 0.038-0.052l0.001-0.001 0.010-0.022c0-0.003 0.001-0.007 0.001-0.011s-0-0.008-0.001-0.011l0 0c-0.013 0.023-0.023 0.049-0.028 0.078l-0 0.001c-0.016 0.067-0.029 0.148-0.036 0.231l-0.001 0.007c-0.017 0.168-0.025 0.35-0.029 0.528 0 0.358 0 0.721 0.008 1.084-0.131-0.336-0.256-0.673-0.37-1.032-0.055-0.168-0.109-0.351-0.155-0.538-0.020-0.079-0.040-0.18-0.054-0.283l-0.002-0.015c-0.003-0.028-0.005-0.061-0.005-0.094s0.002-0.066 0.005-0.098l-0 0.004c0.001-0.025 0.005-0.048 0.011-0.070l-0.001 0.003v-0.035c0-0.017 0.013-0.035 0.020-0.052 0.008-0.021 0.016-0.038 0.025-0.055l-0.001 0.003c0.019-0.030 0.040-0.055 0.062-0.079l-0 0c0.061-0.063 0.142-0.106 0.233-0.121l0.002-0c0.013-0.002 0.027-0.002 0.042-0.002 0.201 0 0.364 0.163 0.364 0.364 0 0.186-0.14 0.34-0.32 0.361l-0.002 0z"></path>
<path d="M13.999 17.555c-0.043 0-0.094 0-0.145 0-2.123 0-4.173-0.307-6.11-0.88l0.152 0.039c-2.088-0.617-4.348-1.345-6.907-2.218-0.216-0.074-0.37-0.27-0.383-0.503l-0-0.001c-0.001-0.021-0.002-0.046-0.002-0.071 0-0.398 0.176-0.756 0.454-0.999l0.002-0.001c1.138-1.079 4.54-1.306 7.195-1.306 2.657 0.017 5.254 0.187 7.808 0.5l-0.324-0.032c0.821 0.098 1.772 0.155 2.736 0.155 0.006 0 0.013 0 0.019 0h-0.001c4.070-0.031 7.93-0.894 11.43-2.427l-0.187 0.073c0.072-0.034 0.156-0.055 0.245-0.055h0c0 0 0 0 0 0 0.315 0 0.57 0.255 0.57 0.57 0 0.149-0.057 0.284-0.15 0.385l0-0-0.025 0.027c-0.038 0.037-0.082 0.068-0.13 0.093l-0.003 0.001h-0.015c-0.291 0.148-0.72 0.767-1.034 1.219-0.243 0.374-0.495 0.699-0.772 1.001l0.005-0.006c-0.654 0.67-1.405 1.241-2.233 1.691l-0.049 0.024c-1.885 0.989-4.101 1.569-5.819 1.962-1.895 0.467-4.075 0.744-6.316 0.76l-0.011 0zM1.989 13.636c2.287 0.773 4.328 1.426 6.229 1.989 1.687 0.503 3.626 0.792 5.633 0.792 0.052 0 0.104-0 0.156-0.001l-0.008 0c2.16-0.012 4.253-0.272 6.259-0.754l-0.186 0.038c1.651-0.38 3.775-0.933 5.549-1.861 0.769-0.419 1.429-0.923 2.002-1.511l0.002-0.002c0.153-0.167 0.297-0.348 0.427-0.54l0.011-0.017c-2.84 0.994-6.114 1.582-9.522 1.611l-0.014 0c-1.030-0.001-2.045-0.062-3.042-0.18l0.121 0.012c-2.195-0.276-4.753-0.442-7.346-0.459l-0.022-0c-3.137 0-5.431 0.328-6.25 0.883z"></path>
<path d="M13.999 17.365c-0.046 0-0.099 0.001-0.153 0.001-2.102 0-4.132-0.304-6.051-0.869l0.151 0.038c-2.087-0.619-4.343-1.345-6.894-2.216-0.143-0.050-0.246-0.18-0.256-0.335l-0-0.001c-0.001-0.017-0.001-0.037-0.001-0.056 0-0.345 0.153-0.654 0.395-0.864l0.001-0.001c1.602-1.513 8.449-1.491 14.525-0.792 7.566 0.873 14.036-2.176 14.102-2.206 0.048-0.023 0.103-0.037 0.162-0.037 0.209 0 0.378 0.169 0.378 0.378 0 0.106-0.044 0.202-0.114 0.27l-0 0c-0.026 0.026-0.057 0.048-0.090 0.065l-0.002 0.001c-0.336 0.168-0.762 0.782-1.108 1.281-0.236 0.364-0.482 0.68-0.75 0.974l0.005-0.006c-0.641 0.656-1.377 1.216-2.186 1.657l-0.048 0.024c-1.866 0.979-4.067 1.554-5.774 1.945-1.886 0.463-4.055 0.735-6.284 0.748l-0.009 0zM1.623 13.713c2.413 0.82 4.555 1.506 6.542 2.092 3.511 1.039 7.644 1.068 11.95 0.079 1.663-0.382 3.802-0.94 5.592-1.876 0.787-0.429 1.462-0.945 2.048-1.547l0.002-0.002c0.231-0.256 0.448-0.536 0.643-0.832l0.016-0.026 0.141-0.203c-2.426 0.876-7.354 2.27-12.92 1.626-6.877-0.792-12.73-0.545-13.925 0.595-0.032 0.029-0.061 0.060-0.088 0.093l-0.001 0.002z"></path>
<path d="M1.177 14.53c-0 0-0 0-0.001 0-0.181 0-0.342-0.084-0.446-0.216l-0.001-0.001c-2.468-3.127 2.008-7.385 3.699-8.989 3.704-3.533 7.388-5.325 10.939-5.325h0.393c5.392 0.203 14.292 8.679 14.764 10.065 0.034 0.078 0.054 0.168 0.054 0.263 0 0.202-0.089 0.383-0.23 0.506l-0.001 0.001c-0.098 0.084-0.227 0.135-0.367 0.135-0.174 0-0.33-0.078-0.434-0.201l-0.001-0.001c-0.084-0.097-0.135-0.224-0.135-0.363 0-0.018 0.001-0.035 0.002-0.052l-0 0.002c-0.699-1.345-8.9-9.034-13.697-9.214h-0.348c-3.25 0-6.67 1.681-10.166 5.011-2.322 2.209-5.212 5.38-3.583 7.457 0.076 0.096 0.123 0.219 0.123 0.353 0 0.314-0.253 0.568-0.566 0.57h-0z"></path>
<path d="M1.177 14.339c-0.12-0-0.227-0.056-0.297-0.142l-0.001-0.001c-2.354-2.991 2.018-7.163 3.674-8.731 3.812-3.63 7.58-5.402 11.201-5.266 5.33 0.198 14.124 8.575 14.591 9.935 0.027 0.059 0.043 0.128 0.043 0.2 0 0.144-0.063 0.273-0.162 0.361l-0 0c-0.066 0.056-0.151 0.090-0.245 0.090-0.209 0-0.378-0.169-0.378-0.378 0-0.028 0.003-0.055 0.009-0.081l-0 0.002c-0.552-1.261-8.974-9.189-13.885-9.374-3.406-0.126-6.983 1.567-10.653 5.058-2.382 2.26-5.333 5.518-3.602 7.712 0.051 0.064 0.082 0.146 0.082 0.235 0 0.12-0.056 0.227-0.143 0.297l-0.001 0.001c-0.064 0.049-0.144 0.080-0.232 0.081h-0zM14.339 15.284c-0.088 0.005-0.17 0.024-0.245 0.056l0.005-0.002c0.109 0.096 0.254 0.155 0.412 0.155 0.137 0 0.264-0.044 0.367-0.119l-0.002 0.001c-0.131-0.143-0.353-0.074-0.536-0.091zM13.416 15.469c0.034 0.008 0.073 0.013 0.114 0.013 0.124 0 0.238-0.045 0.326-0.12l-0.001 0.001c-0.043-0.027-0.092-0.050-0.145-0.068l-0.005-0.001c-0.243-0.044-0.532-0.075-0.826-0.089l-0.014-0.001c-0.282-0.027-0.565-0.042-0.841-0.061-0.054 0-0.108 0.049-0.217 0.101 0.121 0.039 0.278 0.079 0.438 0.111l0.030 0.005 0.575 0.072c0.18 0.007 0.373 0.017 0.567 0.035zM11.486 15.183c-0.126-0.091-0.279-0.152-0.445-0.168l-0.004-0c-0.367-0.054-0.733-0.109-1.1-0.156-0.456-0.076-0.915-0.141-1.372-0.212-0.050-0.006-0.109-0.009-0.168-0.009-0.016 0-0.033 0-0.049 0.001l0.002-0c0.063 0.108 0.175 0.181 0.305 0.188l0.001 0 1.054 0.217c0.351 0.074 0.71 0.118 1.066 0.168 0.092 0.025 0.198 0.039 0.308 0.039 0.144 0 0.282-0.025 0.411-0.070l-0.009 0.003zM15.541 15.491c0.387-0.018 0.765-0.109 1.164-0.074 0.023 0.004 0.050 0.006 0.078 0.006 0.154 0 0.292-0.067 0.388-0.174l0-0.001c-0.090-0.027-0.193-0.043-0.3-0.043-0.059 0-0.116 0.005-0.172 0.014l0.006-0.001c-0.293 0.020-0.585 0.039-0.878 0.040h-0.481c-0.094 0.018-0.177 0.043-0.256 0.075l0.008-0.003c0.093 0.101 0.225 0.165 0.373 0.165 0.024 0 0.049-0.002 0.072-0.005l-0.003 0zM21.981 14.556c0.358-0.096 0.721-0.185 1.076-0.293 0.723-0.237 1.464-0.414 2.167-0.713 0.52-0.209 1.056-0.405 1.48-0.567 0.254-0.091 0.398-0.146 0.541-0.205 0.471-0.19 0.935-0.402 1.397-0.614 0.136-0.062 0.262-0.158 0.214-0.212s-0.177-0.013-0.284 0c-0.080 0.026-0.148 0.057-0.212 0.094l0.006-0.003-0.661 0.291-0.673 0.267-1.811 0.691c-0.38 0.143-0.767 0.277-1.158 0.392l-0.831 0.254-0.841 0.229c-0.246 0.069-0.445 0.138-0.639 0.216l0.041-0.015c-0.077 0.029-0.168 0.114-0.153 0.15s0.143 0.044 0.23 0.059c0.040-0.001 0.078-0.009 0.113-0.023l-0.002 0.001zM21.476 14.551c-0.044-0.027-0.098-0.043-0.155-0.043-0.076 0-0.146 0.028-0.199 0.075l0-0c-0.006 0.011-0.010 0.024-0.010 0.038 0 0.028 0.014 0.053 0.036 0.067l0 0c0.022 0.006 0.048 0.010 0.074 0.010 0.108 0 0.202-0.059 0.251-0.146l0.001-0.001zM20.792 14.796c0.069-0.044 0.129-0.091 0.184-0.142l-0.001 0.001c-0.156 0.018-0.247 0.024-0.336 0.039-0.415 0.074-0.841 0.116-1.254 0.19-0.153 0.024-0.304 0.056-0.457 0.076l-0.461 0.061-0.921 0.128c-0.045 0-0.084 0.057-0.185 0.124 0.096 0.015 0.207 0.023 0.32 0.023 0.028 0 0.056-0.001 0.084-0.002l-0.004 0c0.291-0.025 0.583-0.054 0.874-0.092 0.336-0.037 0.659-0.099 0.987-0.168s0.654-0.119 0.979-0.19c0.072-0.010 0.137-0.026 0.198-0.049l-0.007 0.002z"></path>
<path d="M2.742 13.137c0.255 0.041 0.483 0.138 0.677 0.277l-0.005-0.003c0.042 0.026 0.091 0.047 0.142 0.061l0.004 0.001c0.24 0.099 0.541 0.2 0.849 0.282l0.054 0.012c0.377 0.091 0.733 0.225 1.103 0.336 0.14 0.040 0.281 0.084 0.422 0.116 0.205 0.041 0.383 0.094 0.554 0.161l-0.022-0.008c0.154 0.054 0.335 0.096 0.521 0.118l0.012 0.001c0.092 0.013 0.168-0.020 0.119-0.129-0.119-0.042-0.251-0.096-0.388-0.134-0.404-0.114-0.809-0.22-1.207-0.348-0.257-0.081-0.516-0.151-0.77-0.237s-0.504-0.168-0.758-0.267c-0.435-0.168-0.905-0.245-1.322-0.476-0.117-0.044-0.253-0.072-0.394-0.079l-0.003-0c0.069 0.171 0.224 0.294 0.41 0.316l0.002 0zM7.406 14.43c0.208 0.262 0.368 0.298 0.654 0.168-0.134-0.114-0.309-0.183-0.501-0.183-0.054 0-0.107 0.006-0.158 0.016l0.005-0.001zM29.375 11.571c-0.116 0.075-0.217 0.153-0.312 0.237l0.002-0.002c0.018 0.001 0.039 0.002 0.060 0.002 0.106 0 0.209-0.014 0.307-0.040l-0.008 0.002 0.256-0.373zM9.285 16.309c0.044 0.015 0.087 0.034 0.133 0.047 0.319 0.096 0.661 0.064 0.982 0.155 0.005 0.001 0.011 0.001 0.018 0.001s0.012-0 0.018-0.001l-0.001 0c0.034-0.002 0.075-0.003 0.115-0.003 0.224 0 0.441 0.032 0.646 0.093l-0.016-0.004c0.083 0.019 0.179 0.030 0.277 0.030 0.149 0 0.292-0.025 0.425-0.072l-0.009 0.003c-0.055-0.041-0.117-0.076-0.185-0.102l-0.005-0.002c-0.234-0.045-0.469-0.081-0.701-0.128l-1.229-0.219c-0.126-0.029-0.256-0.049-0.383-0.067-0.099-0.015-0.198-0.008-0.222 0.084s0.035 0.146 0.138 0.185zM12.572 16.698c0.219 0 0.43 0.032 0.646 0.045 0.548 0.020 1.091 0.066 1.643 0.045 0.023 0.002 0.049 0.004 0.076 0.004 0.142 0 0.275-0.038 0.39-0.103l-0.004 0.002c-0.1-0.077-0.226-0.123-0.364-0.123-0.036 0-0.071 0.003-0.106 0.009l0.004-0.001h-0.573l-0.572-0.027c-0.378-0.022-0.762-0.025-1.138-0.062-0.037-0.011-0.080-0.017-0.124-0.017-0.095 0-0.184 0.029-0.257 0.079l0.002-0.001c0.091 0.093 0.219 0.15 0.359 0.15 0.007 0 0.014-0 0.020-0l-0.001 0zM8.469 15.987c0.136 0.208 0.168 0.22 0.434 0.153-0.16-0.227-0.193-0.237-0.434-0.153zM16.814 16.72c0.336-0.022 0.659-0.017 0.982-0.055 0.432-0.054 0.864-0.119 1.293-0.187 0.006 0 0.013 0 0.020 0 0.163 0 0.308-0.082 0.394-0.207l0.001-0.002c-0.188 0-0.353 0-0.515 0.010-0.504 0.061-1.009 0.138-1.528 0.185s-1.029 0.082-1.543 0.111c-0.128 0.016-0.242 0.040-0.352 0.071l0.016-0.004c0.267 0.136 0.269 0.14 0.464 0.133 0.264-0.018 0.514-0.042 0.768-0.055zM23.242 15.578c0.124-0.030 0.249-0.062 0.372-0.096s0.244-0.079 0.363-0.123c0.082-0.029 0.187-0.058 0.293-0.081l0.018-0.003c0.328-0.216 0.713-0.436 1.112-0.633l0.065-0.029-0.55 0.183c-0.304 0.099-0.612 0.193-0.918 0.276-0.237 0.066-0.476 0.133-0.711 0.207-0.345 0.132-0.759 0.248-1.185 0.329l-0.047 0.007c-0.173 0.002-0.341 0.024-0.5 0.065l0.015-0.003c-0.229 0.084-0.461 0.168-0.694 0.225s-0.477 0.108-0.718 0.153c-0.122 0.011-0.226 0.082-0.282 0.183l-0.001 0.002c0.097 0.024 0.208 0.037 0.322 0.037 0.144 0 0.283-0.022 0.414-0.062l-0.010 0.003c0.103-0.034 0.232-0.067 0.364-0.091l0.020-0.003c0.31-0.027 0.596-0.087 0.868-0.176l-0.027 0.008c0.225-0.077 0.451-0.168 0.673-0.222zM5.261 15.351c0.062 0.005 0.119 0.020 0.171 0.043l-0.003-0.001c0.227 0.141 0.495 0.238 0.782 0.275l0.010 0.001c0.195 0.042 0.39 0.089 0.585 0.134 0.103 0.027 0.205 0.054 0.308 0.077 0.296 0.066 0.592 0.133 0.889 0.19 0.013 0.004 0.029 0.006 0.044 0.006 0.073 0 0.136-0.047 0.159-0.112l0-0.001c-0.249-0.244-0.592-0.289-0.911-0.336-0.368-0.051-0.695-0.125-1.011-0.225l0.043 0.012-0.947-0.271c-0.323-0.094-0.642-0.22-0.965-0.326-0.459-0.15-0.925-0.281-1.377-0.449-0.321-0.114-0.632-0.256-0.95-0.382-0.262-0.099-0.531-0.192-0.8-0.281-0.048-0.007-0.105-0.011-0.161-0.011s-0.113 0.004-0.168 0.011l0.006-0.001c0.077 0.094 0.096 0.138 0.131 0.156 0.168 0.089 0.336 0.168 0.504 0.252s0.309 0.119 0.462 0.18c0.296 0.123 0.59 0.247 0.893 0.346l0.452 0.146 0.454 0.136c0.303 0.092 0.599 0.202 0.894 0.319 0.143 0.046 0.314 0.084 0.489 0.108l0.015 0.002zM11.433 13.777c-0.001 0-0.003-0-0.005-0-0.069 0-0.137 0.010-0.2 0.028l0.005-0.001c0.089 0.112 0.226 0.184 0.379 0.184 0.022 0 0.043-0.001 0.064-0.004l-0.002 0c0.393 0.003 0.776 0.039 1.148 0.107l-0.040-0.006c0.435 0.056 0.878 0.069 1.317 0.101 0.038 0.005 0.082 0.009 0.127 0.009 0.137 0 0.266-0.029 0.383-0.082l-0.006 0.002c-0.025-0.027-0.035-0.052-0.049-0.052-0.521-0.059-1.042-0.108-1.564-0.129-0.523-0.052-1.053-0.087-1.557-0.156zM15.48 14.189c0.168 0 0.321 0 0.479-0.010l0.479-0.035q0.479-0.035 0.958-0.064c0.311-0.034 0.624-0.072 0.935-0.113l0.467-0.061 0.464-0.079 0.906-0.146c0.175-0.036 0.319-0.075 0.461-0.121l-0.030 0.008c0.126-0.035 0.249-0.079 0.375-0.108 0.325-0.074 0.654-0.131 0.975-0.227s0.657-0.197 0.982-0.303 0.649-0.224 0.984-0.306c0.101-0.015 0.187-0.068 0.247-0.142l0.001-0.001c-0.034-0.081-0.094-0.069-0.168-0.056q-0.41 0.089-0.815 0.203c-0.134 0.037-0.267 0.081-0.4 0.123s-0.267 0.082-0.4 0.128c-0.050 0.018-0.101 0.045-0.153 0.059-0.346 0.089-0.699 0.168-1.041 0.257-0.18 0.052-0.414 0.104-0.652 0.144l-0.041 0.006c-0.114 0.022-0.23 0.049-0.345 0.076-0.132 0.028-0.244 0.061-0.353 0.101l0.017-0.005h-0.081l-0.594 0.099c-0.277 0.054-0.558 0.087-0.841 0.119l-0.841 0.111c-0.363 0.042-0.73 0.067-1.095 0.104-0.182 0.017-0.365 0.040-0.548 0.049l-0.55 0.020c-0.017-0.002-0.037-0.003-0.058-0.003-0.113 0-0.218 0.030-0.308 0.083l0.003-0.002c0.045 0.024 0.096 0.045 0.151 0.061l0.006 0.001c0.146 0.013 0.286 0.027 0.424 0.027zM10.949 13.834c-0.045-0.044-0.074-0.096-0.116-0.104-0.136-0.030-0.286-0.096-0.419 0 0.23 0.131 0.232 0.131 0.535 0.104zM9.259 13.543c-0.1-0.103-0.239-0.167-0.393-0.168h-0c-0.086-0.018-0.178-0.029-0.219 0.045 0.237 0.177 0.289 0.18 0.612 0.123zM6.033 12.74c-0.136-0.102-0.299-0.176-0.477-0.207l-0.007-0.001c-0.168-0.034-0.336-0.156-0.535-0.056 0.243 0.17 0.544 0.271 0.869 0.271 0.053 0 0.105-0.003 0.157-0.008l-0.006 0.001zM7.62 13.132c-0.336-0.247-0.747-0.22-1.1-0.336-0.040-0.018-0.086-0.028-0.135-0.028s-0.096 0.010-0.137 0.029l0.002-0.001c0.146 0.187 0.215 0.212 0.856 0.363 0.17 0.039 0.351 0.103 0.514-0.027zM7.902 13.169c-0.024 0-0.067 0.022-0.067 0.037 0.001 0.035 0.017 0.065 0.042 0.086l0 0c0.108 0.073 0.241 0.116 0.385 0.116 0.075 0 0.146-0.012 0.214-0.034l-0.005 0.001c-0.142-0.129-0.331-0.207-0.539-0.207-0.010 0-0.021 0-0.031 0.001l0.001-0zM9.406 13.559c0.154 0.119 0.35 0.191 0.563 0.191 0.092 0 0.18-0.013 0.264-0.038l-0.007 0.002c-0.124-0.109-0.123-0.119-0.245-0.14-0.18-0.032-0.365-0.123-0.575-0.015zM25.725 11.897c-0.043-0.012-0.093-0.018-0.144-0.018-0.105 0-0.203 0.028-0.288 0.077l0.003-0.001c-0.082 0.035-0.168 0.076-0.16 0.168 0.301 0.017 0.348-0.005 0.588-0.225zM24.38 12.309c-0.022 0.010-0.045 0.054-0.037 0.067 0.018 0.027 0.048 0.046 0.082 0.050l0.001 0c0.004 0 0.009 0 0.014 0 0.213 0 0.403-0.095 0.531-0.245l0.001-0.001c-0.042-0.008-0.090-0.012-0.139-0.012-0.169 0-0.326 0.052-0.456 0.142l0.003-0.002zM25.86 11.834c0.028 0.003 0.060 0.005 0.093 0.005 0.272 0 0.517-0.121 0.681-0.313l0.001-0.001c-0.168-0.030-0.168-0.035-0.279 0.015-0.166 0.074-0.373 0.092-0.496 0.294zM4.214 12.106l-0.279 0.054 0.136 0.066c0.149 0.069 0.328 0.135 0.513 0.187l0.026 0.006c0.011 0.001 0.025 0.001 0.038 0.001 0.056 0 0.11-0.008 0.161-0.022l-0.004 0.001c-0.090-0.087-0.199-0.155-0.32-0.197l-0.006-0.002zM28.010 10.991c0.036-0.010 0.066-0.022 0.095-0.037l-0.003 0.001 0.8-0.383c0.262-0.136 0.528-0.267 0.789-0.409 0.11-0.050 0.203-0.124 0.273-0.215l0.001-0.002-0.064-0.012c-0.498 0.285-1.075 0.536-1.681 0.722l-0.061 0.016c-0.119 0.067-0.239 0.136-0.355 0.214-0.192 0.116-0.42 0.233-0.657 0.335l-0.038 0.015c-0.118 0.052-0.218 0.127-0.297 0.219l-0.001 0.001c0.029 0.005 0.062 0.008 0.096 0.008s0.067-0.003 0.099-0.008l-0.003 0.001c0.196-0.071 0.362-0.148 0.52-0.239l-0.016 0.008c0.144-0.097 0.31-0.177 0.488-0.232l0.014-0.004z"></path>
<path d="M6.087 15.385c0.525-0.094 0.977-0.262 1.313-0.612 0.042-0.044 0.098-0.103 0.156-0.106 0.201-0.033 0.381-0.106 0.538-0.21l-0.005 0.003c0.207-0.069 0.385-0.172 0.538-0.304l-0.002 0.002c0.304-0.040 0.429-0.316 0.713-0.388 0.064-0.025 0.109-0.086 0.109-0.157 0-0.027-0.006-0.052-0.017-0.074l0 0.001c-0.040-0.066-0.168-0.079-0.281-0.017l-0.367 0.198-0.365 0.183c-0.134 0.051-0.244 0.102-0.351 0.16l0.015-0.007c-0.229 0.149-0.495 0.297-0.771 0.427l-0.041 0.017c-0.238 0.109-0.531 0.218-0.832 0.307l-0.050 0.013c-0.211 0.053-0.386 0.179-0.503 0.348l-0.002 0.003c-0.042 0.15 0.049 0.239 0.202 0.214zM8.856 12.156c0.074-0.008 0.14-0.034 0.196-0.073l-0.001 0.001c0.032-0.032 0.013-0.109 0.012-0.168 0-0.012-0.032-0.024-0.050-0.034-0.003-0-0.007-0-0.010-0-0.113 0-0.205 0.092-0.205 0.205 0 0.001 0 0.003 0 0.004v-0c0.005 0.025 0.045 0.067 0.059 0.066zM5.663 11.908l-0.024 0.017c-0.024 0.017-0.054 0.027-0.087 0.027-0 0-0.001 0-0.001 0h0c-0.298 0-0.513 0.148-0.757 0.254-0.504 0.22-1.019 0.427-1.547 0.622-0.345 0.128-0.711 0.202-1.046 0.336-0.25 0.125-0.556 0.251-0.871 0.356l-0.053 0.015c-0.128 0.050-0.239 0.112-0.34 0.186l0.004-0.003c0 0.027 0 0.050 0.012 0.066 0.015 0.017 0.035 0.029 0.058 0.032l0 0c0.079-0.010 0.168-0.056 0.23-0.034 0.048 0.014 0.103 0.023 0.16 0.023 0.090 0 0.176-0.021 0.252-0.058l-0.003 0.002c0.16-0.072 0.349-0.135 0.545-0.181l0.021-0.004c0.336-0.042 0.604-0.207 0.925-0.284 0.316-0.084 0.593-0.198 0.85-0.342l-0.018 0.009c0.257-0.133 0.562-0.193 0.795-0.372 0.131-0.101 0.345-0.126 0.472-0.256 0.020-0.015 0.044-0.024 0.071-0.024 0.008 0 0.016 0.001 0.024 0.002l-0.001-0c0.017 0.004 0.036 0.006 0.055 0.006 0.106 0 0.198-0.061 0.242-0.15l0.001-0.002c0.017-0.044 0.058-0.074 0.107-0.074 0.019 0 0.036 0.004 0.052 0.012l-0.001-0c0.024 0.010 0.051 0.016 0.080 0.016s0.056-0.006 0.081-0.017l-0.001 0.001c0.138-0.098 0.319-0.141 0.446-0.234-0.245 0.012-0.491 0.030-0.735 0.052zM3.477 14.724c0.030 0.016 0.065 0.025 0.103 0.025 0.023 0 0.046-0.004 0.067-0.010l-0.002 0c0.187-0.123 0.504-0.069 0.615-0.293 0-0.012 0.040-0.013 0.064-0.013 0.356-0.030 0.681-0.141 0.963-0.315l-0.010 0.005c0.491-0.244 0.982-0.488 1.498-0.696 0.348-0.138 0.6-0.367 0.915-0.528 0.042-0.028 0.073-0.070 0.087-0.12l0-0.002c0.054-0.138-0.032-0.23-0.185-0.203-0.113 0.027-0.212 0.069-0.302 0.124l0.005-0.003-0.673 0.385c-0.483 0.276-1.051 0.399-1.513 0.699-0.054 0.036-0.118 0.061-0.187 0.072l-0.003 0c-0.257 0.050-0.479 0.173-0.651 0.346l-0 0c-0.061 0.051-0.134 0.091-0.215 0.113l-0.004 0.001c-0.233 0.085-0.425 0.171-0.61 0.267l0.028-0.013c-0.017 0-0.022 0.032-0.040 0.064 0.007 0.022 0.017 0.079 0.049 0.092zM8.114 12.631c0.127-0.082 0.236-0.165 0.34-0.255l-0.004 0.003c-0.062-0.052-0.101-0.108-0.138-0.109-0.006-0-0.012-0-0.019-0-0.14 0-0.265 0.066-0.345 0.168l-0.001 0.001c-0.025 0.032-0.032 0.114 0 0.136s0.133 0.076 0.166 0.057zM11.235 16.446c0.068-0.020 0.125-0.059 0.168-0.11l0-0.001c0.153-0.234 0.435-0.35 0.689-0.474 0.145-0.052 0.264-0.144 0.348-0.263l0.002-0.002c0.036-0.081 0.116-0.136 0.208-0.136 0.001 0 0.003 0 0.004 0h-0c0.131 0 0.185-0.077 0.2-0.214-0.012-0.022-0.027-0.103-0.069-0.116-0.008-0.001-0.017-0.001-0.026-0.001-0.059 0-0.113 0.019-0.156 0.052l0.001-0c-0.067 0.047-0.101 0.141-0.168 0.168-0.269 0.101-0.502 0.226-0.714 0.378l0.009-0.006c-0.208 0.153-0.45 0.273-0.712 0.348l-0.016 0.004c-0.168 0.037-0.214 0.168-0.168 0.261 0.069 0.081 0.171 0.132 0.285 0.132 0.041 0 0.081-0.007 0.118-0.019l-0.003 0.001zM30.076 10.52c0.119-0.018 0.215-0.101 0.252-0.211l0.001-0.002c0.032-0.086 0.062-0.168 0.092-0.254l-0.057-0.018c-0.092-0.024-0.185-0.044-0.279-0.064-0.032 0.101-0.061 0.2-0.094 0.299s-0.044 0.168 0.027 0.232c-0.121 0.044-0.21 0.151-0.227 0.281l-0 0.002c0 0.004 0 0.009 0 0.014 0 0.139-0.056 0.264-0.147 0.355l0-0c-0.024 0.023-0.039 0.055-0.039 0.090 0 0.044 0.023 0.082 0.057 0.104l0 0c0.012 0.006 0.026 0.012 0.040 0.016l0.002 0q0.22-0.321 0.43-0.644c-0.004-0.075-0.026-0.144-0.060-0.204l0.001 0.002zM10.256 14.995c0.083-0.029 0.154-0.062 0.221-0.102l-0.005 0.003c0.067-0.035 0.128-0.082 0.197-0.119 0.245-0.128 0.504-0.242 0.726-0.388 0.215-0.161 0.458-0.315 0.713-0.448l0.030-0.014c0.053-0.024 0.098-0.054 0.138-0.090l-0.001 0.001c0.039-0.031 0.064-0.079 0.064-0.132 0-0.045-0.018-0.087-0.047-0.117l0 0c-0.042-0.031-0.094-0.049-0.151-0.049-0.022 0-0.043 0.003-0.063 0.008l0.002-0c-0.16 0.049-0.299 0.114-0.427 0.196l0.007-0.004c-0.395 0.267-0.785 0.531-1.195 0.795-0.092 0.059-0.198 0.106-0.289 0.168-0.050 0.039-0.093 0.083-0.13 0.131l-0.001 0.002c-0.001 0.006-0.001 0.013-0.001 0.021 0 0.085 0.069 0.153 0.153 0.153 0.022 0 0.043-0.005 0.061-0.013l-0.001 0zM8.314 16.141c0.025 0.006 0.054 0.009 0.084 0.009 0.116 0 0.221-0.048 0.296-0.126l0-0c0.242-0.21 0.477-0.422 0.704-0.639 0.024-0.024 0.013-0.072 0.020-0.109-0.028-0.007-0.061-0.011-0.095-0.011-0.010 0-0.021 0-0.031 0.001l0.001-0c-0.129 0.044-0.257 0.092-0.382 0.148l-0.713 0.326c-0.064 0.025-0.109 0.086-0.109 0.157 0 0.028 0.007 0.054 0.019 0.077l-0-0.001c0.057 0.067 0.125 0.123 0.201 0.166l0.004 0.002zM14.618 13.802c0.010-0.024-0.027-0.061-0.047-0.104-0.093 0.023-0.174 0.052-0.251 0.089l0.007-0.003c-0.19 0.138-0.38 0.281-0.56 0.434-0.235 0.198-0.402 0.457-0.71 0.602-0.020 0-0.049 0.024-0.052 0.039-0.013 0.045-0.039 0.103-0.017 0.134 0.034 0.039 0.085 0.064 0.141 0.064 0.001 0 0.003 0 0.004-0h-0c0.089-0.019 0.166-0.065 0.223-0.127l0-0c0.050-0.082 0.132-0.14 0.228-0.158l0.002-0c0.092-0.041 0.171-0.098 0.235-0.168l0-0c0.197-0.207 0.411-0.393 0.642-0.557l0.014-0.009c0.074-0.049 0.104-0.153 0.14-0.234zM13.283 13.115c0.090-0.090 0.172-0.187 0.246-0.291l0.005-0.007c-0.029-0.062-0.035-0.121-0.062-0.129-0.019-0.007-0.040-0.011-0.062-0.011-0.031 0-0.061 0.008-0.087 0.021l0.001-0.001c-0.293 0.22-0.582 0.417-0.881 0.637-0.054 0.039-0.168 0.082-0.094 0.168 0.054 0.038 0.121 0.061 0.194 0.061 0.008 0 0.016-0 0.024-0.001l-0.001 0c0.070-0.004 0.134-0.028 0.188-0.065l-0.001 0.001c0.201-0.125 0.374-0.252 0.538-0.39l-0.006 0.005zM26.485 14.164l0.466-0.234 0.084-0.072c0.052-0.099 0.096-0.214 0.127-0.335l0.003-0.012c0.129-0.397 0.275-0.735 0.449-1.057l-0.016 0.033c0.168-0.361 0.321-0.721 0.483-1.079 0.052-0.136 0.108-0.251 0.174-0.36l-0.006 0.010c0.092-0.141 0.17-0.303 0.225-0.475l0.004-0.014c-0.197 0.067-0.397 0.129-0.599 0.185v0.008c-0.066 0.146-0.104 0.301-0.168 0.449-0.074 0.18-0.155 0.36-0.235 0.54l-0.247 0.531c-0.203 0.446-0.409 0.896-0.627 1.345-0.072 0.148-0.136 0.298-0.197 0.451-0.012 0.035-0.018 0.075-0.018 0.117 0 0.001 0 0.003 0 0.004v-0c0.004 0.010 0.008 0.019 0.014 0.027l-0-0.001c0.029-0.025 0.057-0.045 0.087-0.062zM9.686 15.084c0.013 0.042 0.072 0.077 0.111 0.116 0.066-0.051 0.125-0.106 0.177-0.167l0.001-0.002c0.008-0.010-0.066-0.069-0.089-0.094-0.124-0.003-0.222 0.069-0.2 0.146zM11.422 12.086c-0.138 0.086-0.244 0.212-0.38 0.298-0.311 0.195-0.59 0.451-0.948 0.595-0.17 0.090-0.317 0.191-0.45 0.307l0.003-0.002c-0.032 0.022-0.042 0.066-0.076 0.121 0.054 0.025 0.106 0.069 0.138 0.062 0.134-0.031 0.25-0.070 0.361-0.119l-0.012 0.005c0.284-0.124 0.516-0.336 0.824-0.441 0.167-0.055 0.308-0.153 0.414-0.281l0.001-0.001c0.138-0.187 0.39-0.254 0.474-0.474 0.007-0.011 0.016-0.020 0.027-0.027l0-0zM14.076 16.081c-0.186 0.072-0.346 0.159-0.493 0.264l0.007-0.005c-0.070 0.082-0.114 0.189-0.119 0.305l-0 0.001c0 0.029 0.096 0.101 0.15 0.101 0.294 0 0.703-0.325 0.693-0.543-0.014-0.079-0.083-0.139-0.166-0.139-0.026 0-0.051 0.006-0.073 0.016l0.001-0zM26.145 11.097c-0.010 0.020-0.020 0.040-0.029 0.061-0.14 0.288-0.256 0.583-0.395 0.874-0.079 0.168-0.193 0.323-0.262 0.491-0.112 0.286-0.249 0.532-0.413 0.758l0.007-0.009c-0.145 0.171-0.277 0.361-0.391 0.564l-0.009 0.018c-0.117 0.242-0.272 0.446-0.461 0.615l-0.002 0.002c-0.074 0.058-0.136 0.125-0.188 0.2l-0.002 0.003c-0.091 0.168-0.168 0.336-0.244 0.504 0.076 0.045 0.124 0.104 0.183 0.103 0.001 0 0.002 0 0.003 0 0.086 0 0.165-0.029 0.228-0.078l-0.001 0.001c0.23-0.253 0.451-0.527 0.655-0.814l0.018-0.027c0.222-0.336 0.405-0.686 0.592-1.029 0.084-0.155 0.138-0.314 0.225-0.469 0.237-0.415 0.481-0.819 0.71-1.229 0.031-0.041 0.058-0.087 0.081-0.137l0.002-0.005c0.056-0.191 0.113-0.348 0.179-0.5l-0.011 0.027q-0.237 0.047-0.474 0.076zM23.98 11.77c-0.278 0.314-0.505 0.68-0.664 1.082l-0.009 0.025c-0.020 0.055-0.044 0.103-0.074 0.147l0.002-0.002c-0.24 0.385-0.493 0.747-0.763 1.115-0.22 0.291-0.388 0.624-0.688 0.874-0.2 0.183-0.325 0.446-0.325 0.737 0 0.012 0 0.023 0.001 0.034l-0-0.002c0.008 0.060 0.059 0.106 0.12 0.106 0.017 0 0.034-0.004 0.049-0.010l-0.001 0c0.247-0.136 0.518-0.281 0.605-0.504 0.081-0.182 0.162-0.333 0.252-0.478l-0.010 0.017c0.112-0.217 0.236-0.405 0.379-0.577l-0.004 0.005c0.124-0.139 0.235-0.293 0.329-0.459l0.007-0.013c0.094-0.168 0.168-0.336 0.247-0.504 0.13-0.342 0.288-0.637 0.478-0.908l-0.009 0.013c0.106-0.136 0.178-0.296 0.291-0.43 0.064-0.057 0.104-0.139 0.104-0.231 0-0.048-0.011-0.093-0.030-0.134l0.001 0.002c-0.094 0.032-0.192 0.067-0.288 0.096zM13.675 12.587c0.093 0 0.168-0.075 0.168-0.168v0c0-0.020-0.032-0.040-0.045-0.054-0.113 0-0.198 0.091-0.185 0.168 0.011 0.027 0.034 0.047 0.062 0.054l0.001 0zM15.094 13.485c0.067-0.079 0.126-0.169 0.175-0.265l0.004-0.008-0.066-0.15c-0.053 0.016-0.099 0.039-0.142 0.067l0.002-0.001c-0.076 0.060-0.144 0.124-0.205 0.193l-0.001 0.002c-0.056 0.064-0.054 0.151 0.022 0.183 0.025 0.009 0.053 0.014 0.083 0.014 0.048 0 0.092-0.013 0.13-0.037l-0.001 0.001zM14.588 16.050c0.059-0.017 0.109-0.048 0.15-0.089l0-0c0.113-0.155 0.265-0.274 0.442-0.344l0.007-0.002c0.071-0.029 0.114-0.103 0.168-0.156s0.077-0.108 0.134-0.138c0.275-0.173 0.514-0.366 0.728-0.583l0-0.001c0.266-0.222 0.454-0.504 0.768-0.673 0.028-0.018 0.052-0.040 0.070-0.066l0.001-0.001 0.336-0.456c0.029-0.043 0.069-0.077 0.116-0.098l0.002-0.001c0.214-0.087 0.212-0.254 0.222-0.415 0-0.081-0.064-0.099-0.136-0.086-0.046 0.015-0.085 0.035-0.121 0.060l0.001-0.001c-0.229 0.143-0.417 0.327-0.561 0.545l-0.004 0.007c-0.137 0.194-0.296 0.361-0.477 0.501l-0.005 0.004c-0.103 0.095-0.197 0.197-0.283 0.304l-0.004 0.006c-0.159 0.209-0.347 0.385-0.56 0.526l-0.008 0.005c-0.456 0.234-0.742 0.595-1.101 0.916-0.029 0.028-0.055 0.057-0.079 0.089l-0.001 0.002c-0.002 0.010-0.004 0.021-0.004 0.032 0 0.073 0.059 0.133 0.133 0.133 0.025 0 0.048-0.007 0.068-0.019l-0.001 0zM15.58 12.528c-0.065 0.059-0.121 0.125-0.166 0.2l-0.002 0.004c-0.013 0.022 0.013 0.076 0.037 0.103 0.019 0.011 0.041 0.018 0.065 0.018 0.010 0 0.019-0.001 0.028-0.003l-0.001 0c0.032-0.008 0.061-0.022 0.084-0.042l-0 0c0.101-0.079 0.202-0.168 0.301-0.251zM19.761 12.588c-0.049 0.036-0.090 0.081-0.12 0.132l-0.001 0.002c-0.146 0.273-0.322 0.507-0.528 0.711l-0 0c-0.113 0.11-0.219 0.225-0.319 0.346l-0.006 0.007c-0.103 0.116-0.198 0.237-0.293 0.363-0.217 0.288-0.486 0.55-0.684 0.859-0.033 0.048-0.067 0.089-0.105 0.128l0-0-0.19 0.192-0.198 0.178c-0.131 0.121-0.262 0.244-0.39 0.368-0.111 0.115-0.212 0.242-0.3 0.377l-0.006 0.010c-0.026 0.027-0.042 0.064-0.042 0.105 0 0.062 0.037 0.115 0.090 0.138l0.001 0c0.039 0.023 0.086 0.037 0.136 0.037 0.067 0 0.129-0.025 0.175-0.066l-0 0c0.132-0.109 0.25-0.223 0.359-0.345l0.003-0.003c0.252-0.296 0.42-0.652 0.708-0.94 0.091-0.091 0.176-0.189 0.254-0.292l0.005-0.007c0.091-0.126 0.196-0.233 0.316-0.323l0.004-0.003c0.171-0.139 0.316-0.299 0.436-0.478l0.005-0.008c0.288-0.39 0.504-0.809 0.886-1.13 0.056-0.045 0.1-0.101 0.13-0.165l0.001-0.003c0.033-0.082 0.068-0.152 0.109-0.218l-0.003 0.006c-0.14-0.002-0.286 0.010-0.432 0.020zM21.819 12.333c-0.050 0.084-0.103 0.168-0.158 0.249-0.136 0.209-0.336 0.383-0.41 0.612-0.090 0.22-0.22 0.407-0.383 0.559l-0.001 0.001c-0.059 0.062-0.114 0.13-0.164 0.201l-0.004 0.006-0.272 0.392c-0.092 0.129-0.188 0.254-0.288 0.378-0.151 0.19-0.336 0.363-0.483 0.558-0.215 0.288-0.318 0.631-0.582 0.9-0.011 0.011-0.018 0.027-0.018 0.044 0 0.005 0 0.009 0.002 0.014l-0-0c0.017 0.044 0.030 0.108 0.072 0.123 0.005 0.001 0.012 0.001 0.018 0.001 0.053 0 0.101-0.022 0.136-0.056v0c0.073-0.132 0.167-0.243 0.277-0.335l0.002-0.002c0.159-0.112 0.291-0.251 0.393-0.409l0.004-0.006c0.156-0.203 0.315-0.384 0.487-0.553l0.001-0.001c0.043-0.047 0.082-0.099 0.117-0.154l0.003-0.005c0.071-0.111 0.123-0.23 0.2-0.336 0.288-0.395 0.543-0.799 0.841-1.165 0.189-0.228 0.364-0.483 0.515-0.753l0.013-0.026c0.061-0.118 0.134-0.232 0.205-0.346-0.165 0.039-0.343 0.076-0.523 0.109zM4.861 8.388c-0.040 0.261-0.076 0.525-0.101 0.807l0.272-0.013c-0.007-0.293-0.045-0.574-0.11-0.844l0.006 0.027zM3.699 8.434l-0.074 0.103c0 0.217 0.015 0.432 0.024 0.642v0.094l0.303-0.025c-0.012-0.261-0.012-0.504-0.015-0.765-0.093-0.014-0.173-0.031-0.252-0.052l0.015 0.003zM12.526 9.189c-0.062 0.207-0.123 0.441-0.185 0.652-0.020 0.072-0.035 0.192-0.066 0.351 0.020 0.042 0.035 0.134 0.052 0.099 0.065-0.121 0.132-0.268 0.19-0.419l0.009-0.026c0.082-0.214 0.168-0.462 0.244-0.704zM11.351 9.348c-0.020 0.059-0.039 0.121-0.056 0.183-0.067 0.232-0.133 0.467-0.198 0.706 0.069 0.039 0.138 0.079 0.205 0.121 0.052-0.19 0.103-0.377 0.156-0.55 0.027-0.101 0.050-0.224 0.064-0.35l0.001-0.013c0-0.040 0-0.077 0.013-0.114zM10.305 9.36c-0.042 0.145-0.082 0.301-0.123 0.454l0.183 0.072c0.001-0.005 0.004-0.009 0.008-0.012l0-0c0.064-0.047 0.113-0.24 0.151-0.504z"></path>
</svg>
