<!-- Generated by IcoMoon.io -->
<svg version="1.1" xmlns="http://www.w3.org/2000/svg" width="36" height="32" viewBox="0 0 36 32">
<title>nuts</title>
<path fill="#793f3f" d="M11.491 27.433c-0.008 0.833-3.377 1.898-5.577 0.644-2.199-1.255-4.653-3.264-4.869-3.487s-0.79-1.479-0.79-1.479 1.032-0.651 3.199-0.848c2.167-0.197 3.344-0.171 5.252 1.39s2.807 1.537 2.785 3.781z"></path>
<path fill="#1a1919" d="M11.491 27.433l-0.254-0.003c-0 0.011-0.004 0.037-0.031 0.079-0.023 0.036-0.062 0.083-0.118 0.132-0.098 0.087-0.245 0.183-0.43 0.272-0.277 0.135-0.635 0.257-1.037 0.344-0.393 0.088-0.844 0.139-1.306 0.14h-0c-0.786 0-1.598-0.156-2.274-0.542-1.084-0.619-2.241-1.43-3.151-2.113-0.455-0.341-0.848-0.651-1.141-0.888-0.151-0.122-0.267-0.219-0.382-0.317l0.026 0.021c-0.045-0.038-0.081-0.070-0.117-0.102l0.006 0.006c-0.019-0.017-0.036-0.033-0.053-0.050l0 0c-0.008-0.009-0.016-0.018-0.023-0.028l-0.001-0.001c-0.027-0.037-0.056-0.080-0.083-0.125l-0.004-0.008c-0.060-0.099-0.131-0.228-0.202-0.365-0.051-0.087-0.149-0.282-0.244-0.479l-0.050-0.115c0.020 0.057-0.024-0.037-0.069-0.131l-0.065-0.155-0.231 0.106 0.136 0.215-0.061-0.097 0.061 0.098 0.001-0-0.061-0.097 0.061 0.098c0.003-0.002 0.997-0.62 3.087-0.81 0.546-0.050 1.024-0.084 1.46-0.084 0.644 0 1.194 0.074 1.759 0.284s1.151 0.562 1.849 1.133c0.479 0.392 0.895 0.685 1.243 0.935 0.261 0.187 0.484 0.349 0.667 0.508 0.137 0.119 0.252 0.235 0.348 0.358 0.144 0.185 0.248 0.386 0.321 0.655s0.112 0.606 0.112 1.047c0 0.025-0 0.052-0 0.079v-0.001l0.254 0.003 0.254 0.002c0-0.027 0-0.055 0-0.083-0-0.558-0.058-0.992-0.184-1.357-0.095-0.273-0.23-0.508-0.401-0.713l0.003 0.004c-0.126-0.153-0.269-0.29-0.428-0.424-0.476-0.398-1.086-0.766-1.869-1.407-0.726-0.594-1.362-0.981-1.994-1.216s-1.254-0.317-1.937-0.317c-0.463 0-0.955 0.036-1.506 0.086-2.21 0.2-3.283 0.868-3.312 0.886-0.072 0.046-0.119 0.125-0.119 0.215 0 0.038 0.009 0.075 0.024 0.107l-0.001-0.002c0.001 0.002 0.145 0.317 0.318 0.663 0.086 0.173 0.18 0.354 0.268 0.509 0.050 0.090 0.092 0.159 0.136 0.227l-0.009-0.015c0.020 0.031 0.041 0.060 0.061 0.088s0.041 0.053 0.065 0.078c0.022 0.022 0.046 0.045 0.079 0.075 0.061 0.055 0.148 0.13 0.26 0.223 0.781 0.65 2.759 2.191 4.587 3.234 0.778 0.443 1.675 0.609 2.526 0.609 0.864-0.001 1.682-0.17 2.303-0.419 0.311-0.125 0.572-0.269 0.771-0.434 0.099-0.083 0.183-0.172 0.248-0.273s0.108-0.218 0.109-0.346v-0.001l-0.254-0.002z"></path>
<path fill="#dec178" d="M9.39 5.031c0.187-1.541 1.168-1.997 2.939-2.6s3.912-0.565 5.384-0.64c1.473-0.075 4.776-0.743 6.384-0.579s2.789 0.579 3.743 1.671 1.151 1.394 0.469 1.959c-0.683 0.565-0.865 1.206-1.66 1.62s-1.999 0.942-3.544 0.791c-1.546-0.151-4.002-0.612-5.091-0.362s-1.797 2.246-4.325 2.246c-2.529 0-4.79-0.075-4.3-4.106z"></path>
<path fill="#1a1919" d="M9.39 5.031l0.189 0.023c0.045-0.367 0.135-0.659 0.267-0.904 0.1-0.183 0.223-0.341 0.375-0.483 0.227-0.214 0.519-0.394 0.881-0.562s0.792-0.325 1.288-0.494c0.862-0.294 1.826-0.434 2.758-0.509s1.832-0.084 2.574-0.122c0.338-0.017 0.76-0.064 1.233-0.124 0.709-0.090 1.531-0.21 2.336-0.308s1.593-0.172 2.225-0.172c0.206 0 0.394 0.008 0.561 0.025 0.793 0.081 1.471 0.223 2.062 0.473s1.098 0.608 1.557 1.134c0.286 0.327 0.501 0.581 0.638 0.782 0.069 0.1 0.117 0.186 0.147 0.258s0.041 0.129 0.041 0.177c0 0 0 0 0 0 0 0.033-0.006 0.065-0.016 0.094l0.001-0.002c-0.016 0.047-0.046 0.101-0.098 0.164s-0.126 0.135-0.222 0.214c-0.362 0.3-0.589 0.617-0.814 0.893-0.113 0.138-0.225 0.267-0.354 0.385-0.133 0.122-0.283 0.229-0.446 0.315l-0.012 0.006c-0.689 0.36-1.673 0.796-2.916 0.796-0.184-0-0.365-0.009-0.544-0.027l0.023 0.002c-0.607-0.059-1.364-0.168-2.124-0.262s-1.525-0.174-2.158-0.174c-0.329 0-0.623 0.021-0.87 0.077-0.161 0.037-0.31 0.105-0.452 0.191-0.247 0.152-0.474 0.358-0.713 0.579-0.358 0.333-0.744 0.7-1.235 0.984s-1.086 0.486-1.883 0.487c-0.573 0-1.127-0.004-1.631-0.056-0.378-0.039-0.728-0.104-1.036-0.212-0.231-0.081-0.439-0.184-0.62-0.317-0.272-0.2-0.49-0.465-0.645-0.836s-0.245-0.851-0.245-1.47c0-0.3 0.021-0.633 0.066-1.001l-0.379-0.046c-0.046 0.381-0.069 0.729-0.069 1.047 0 0.776 0.133 1.379 0.382 1.846 0.187 0.35 0.44 0.62 0.737 0.82 0.447 0.301 0.987 0.45 1.572 0.526s1.22 0.081 1.867 0.081c0.657 0 1.204-0.131 1.665-0.332 0.692-0.302 1.19-0.757 1.609-1.145 0.209-0.194 0.399-0.372 0.579-0.508s0.348-0.228 0.515-0.266c0.202-0.046 0.473-0.068 0.785-0.068 0.602-0 1.356 0.078 2.111 0.171s1.513 0.202 2.134 0.263c0.191 0.019 0.377 0.027 0.559 0.027 1.333 0 2.383-0.469 3.092-0.839 0.205-0.108 0.382-0.233 0.54-0.378l-0.002 0.002c0.225-0.205 0.394-0.427 0.566-0.642s0.348-0.425 0.589-0.624c0.144-0.12 0.258-0.232 0.341-0.356 0.039-0.056 0.072-0.121 0.096-0.19l0.002-0.006c0.023-0.069 0.035-0.141 0.035-0.213 0-0.109-0.026-0.217-0.070-0.323-0.067-0.16-0.173-0.32-0.314-0.505s-0.32-0.392-0.536-0.639c-0.494-0.567-1.056-0.964-1.696-1.234s-1.357-0.418-2.172-0.502c-0.183-0.019-0.384-0.027-0.6-0.027-0.881 0-2.008 0.136-3.081 0.279-0.536 0.071-1.059 0.145-1.528 0.205s-0.885 0.105-1.204 0.122c-0.73 0.037-1.637 0.047-2.585 0.123s-1.941 0.218-2.85 0.528c-0.445 0.151-0.843 0.294-1.196 0.45-0.265 0.117-0.504 0.241-0.718 0.382-0.321 0.211-0.585 0.463-0.78 0.779s-0.318 0.693-0.373 1.147l0.189 0.023z"></path>
<path fill="#9b763c" d="M18.413 2.85c0.361 0.199 0.706 0.428 1.074 0.611 0.144 0.072 0.334 0.055 0.503 0.079 0.006-0.040 0.014-0.079 0.020-0.119-0.543-0.265-1.087-0.53-1.63-0.795l-0.521-0.030c0.149 0.061 0.276 0.128 0.396 0.206l-0.009-0.006c0.047 0 0.101 0.017 0.166 0.053z"></path>
<path fill="#9b763c" d="M15.262 6.462c-0.045-0.004-0.089-0.009-0.134-0.013-0.002-0.071-0.004-0.141-0.006-0.206-0.029 0.019-0.089 0.057-0.149 0.094-0.017-0.022-0.037-0.041-0.033-0.045 0.229-0.337 0.42-0.69 0.717-0.993 0.268-0.274 0.39-0.691 0.577-1.046 0.035-0.067 0.069-0.134 0.138-0.183-0.098 0.929-0.656 1.635-1.109 2.391zM13.902 6.16c-0.021 0.024-0.069 0.026-0.106 0.036l-0.004 0.013c-0.008 0.004-0.013 0.006-0.019 0.009l0.002-0.001c-0.221 0.306-0.44 0.612-0.66 0.919-0.025-0.017-0.051-0.033-0.076-0.050 0.053-0.144-0.072-0.353 0.219-0.415 0.091-0.020 0.136-0.211 0.228-0.295 0.079-0.072 0.19-0.109 0.289-0.158 0.005-0.006 0.009-0.013 0.013-0.019l0.007-0.002c0.047-0.147 0.094-0.293 0.152-0.468-0.182-0.226-0.395-0.49-0.607-0.756 0.015-0.022 0.031-0.045 0.046-0.069 0.167 0.106 0.347 0.197 0.498 0.323 0.169 0.141 0.3 0.218 0.45-0.018 0.067-0.104 0.174-0.182 0.263-0.272 0.031 0.020 0.062 0.039 0.093 0.059-0.093 0.178-0.171 0.367-0.284 0.532-0.154 0.221-0.332 0.425-0.504 0.632zM15.001 2.838c-0.112 0.059-0.395 0.064-0.553 0.090-0.286 0.011-0.566-0.004-0.84-0.032-0.208 0.125-0.325 0.127-0.544 0.038 0.113-0.007 0.194-0.012 0.284-0.018-0.011-0.022-0.022-0.041-0.033-0.059l0.001 0.002c-0.293-0.042-0.524-0.084-0.753-0.134l0.072 0.013c-0.017-0.005-0.033-0.009-0.050-0.014 0.053 0.037 0.106 0.076 0.158 0.114-0.122-0.028-0.228-0.089-0.343-0.118-0.070-0.017-0.189-0.012-0.221 0.031-0.257 0.349-0.476 0.721-0.467 1.174 0.001 0.060 0.104 0.15 0.176 0.17 0.139 0.039 0.288 0.038 0.374 0.047-0.219 0.202-0.15 0.59-0.179 0.953-0.005 0.079 0.057 0.163 0.088 0.244 0.076-0.035 0.177-0.050 0.223-0.108 0.207-0.265 0.396-0.542 0.631-0.87-0.154 0.018-0.243 0.028-0.358 0.042 0.079-0.193 0.157-0.303 0.354-0.161 0.071 0.051 0.261 0.604 0.206 0.683-0.092 0.132-0.223 0.239-0.308 0.373-0.224 0.35-0.431 0.71-0.645 1.066-0.106 0.177-0.17 0.42-0.326 0.517-0.342 0.214-0.262 0.467-0.169 0.749 0.004 0.012-0.014 0.031-0.023 0.050 0.001-0.002-0.088-0.013-0.176-0.023l-0.081-0.008c0.024 0.222 0.132 0.397 0.312 0.38 0.155-0.015 0.295-0.174 0.442-0.269 0.076-0.066 0.235-0.103 0.242-0.16 0.023-0.186 0.161-0.392-0.050-0.574-0.049-0.042-0.032-0.174-0.020-0.261 0.003-0.021 0.123-0.053 0.167-0.033 0.091 0.042 0.167 0.101 0.228 0.173l0.001 0.001c0.057 0.069 0.097 0.159 0.122 0.246 0.021 0.071 0.030 0.157 0.009 0.225-0.108 0.341-0.2 0.594-0.301 0.843l0.028-0.079c-0.058 0.146-0.139 0.283-0.21 0.424-0.022-0.010-0.044-0.020-0.066-0.030 0.004 0.118 0.007 0.236 0.012 0.407 0.556-0.011 0.888-0.61 1.44-0.581 0.311-0.197 0.631-0.33 0.994-0.28 0.514-0.267 0.974-0.506 1.432-0.744l-0.046-0.085c-0.203 0.109-0.406 0.218-0.662 0.355 0.022-0.336 0.039-0.593 0.050-0.755 0.115-0.16 0.196-0.262 0.265-0.371 0.070-0.113 0.128-0.234 0.19-0.352 0.121-0.318 0.292-0.624 0.409-0.948 0.124-0.342 0.198-0.702 0.293-1.054 0.029-0.095 0.087-0.187 0.106-0.286 0.022-0.112 0.007-0.23 0.010-0.403l0.521 0.613c0.043-0.293 0.021-0.559 0.011-0.826-0.001-0.048 0.051-0.097 0.078-0.146 0.038 0.029 0.087 0.052 0.112 0.089 0.033 0.053 0.048 0.119 0.108 0.275 0.138-0.165 0.29-0.27 0.321-0.402 0.039-0.164 0.099-0.245 0.198-0.245-0.111-0.072-0.238-0.14-0.371-0.195l-0.016-0.006c-0.103-0.006-0.208-0.012-0.312-0.018 0.146-0.012 0 0.006-0.145 0.024l-0.279 0.027c-0.329 0.070-0.658 0.14-1.054 0.224 0.302-0.479 0.688-0.463 1.077-0.434-0.704-0.077-1.465 0.095-2.145 0.419z"></path>
<path fill="#9b763c" d="M17.464 4.51c0.116 0.38 0.023 0.651-0.149 0.906-0.025 0.038-0.064 0.067-0.097 0.098-0.056 0.053-0.113 0.105-0.17 0.157-0.003-0.089-0.027-0.184-0.006-0.266 0.052-0.194 0.115-0.387 0.194-0.572 0.044-0.102 0.129-0.186 0.227-0.323zM11.349 5.91c0.368 0.051 0.096-0.288 0.311-0.401-0.006 0.212 0.024 0.396-0.027 0.552-0.039 0.121 0.153 0.341-0.105 0.345-0.061 0-0.129-0.242-0.186-0.376-0.013-0.030 0.004-0.074 0.007-0.12zM11.148 5.225c0.198-0.122 0.33-0.203 0.523-0.322-0.065 0.202-0.109 0.34-0.154 0.48-0.106-0.046-0.212-0.091-0.369-0.159zM26.527 5.589c-0.11-0.085-0.261-0.15-0.316-0.261-0.042-0.087 0.021-0.239 0.068-0.35 0.063-0.148 0.137-0.3 0.242-0.418 0.097-0.109 0.252-0.165 0.361-0.266 0.077-0.071 0.122-0.176 0.175-0.27 0.035-0.061 0.061-0.183 0.089-0.182 0.075 0.001 0.167 0.036 0.218 0.090 0.275 0.296 0.076 0.907-0.314 0.988-0.326 0.067-0.41 0.264-0.23 0.548 0.035 0.054 0.075 0.105 0.12 0.169-0.049 0.077-0.098 0.152-0.182 0.283-0.071-0.149-0.122-0.255-0.173-0.363-0.020 0.010-0.040 0.021-0.061 0.032zM25.014 2.417c0.207 0.113 0.388 0.198 0.552 0.307 0.067 0.044 0.129 0.137 0.135 0.214 0.005 0.066-0.062 0.186-0.114 0.196-0.071 0.014-0.18-0.033-0.234-0.090-0.125-0.136-0.235-0.29-0.335-0.447-0.028-0.044-0.004-0.122-0.004-0.18zM24.667 2.744c-0.262-0.004-0.499-0.2-0.484-0.374 0.005-0.059 0.101-0.147 0.163-0.155 0.16-0.019 0.498 0.242 0.471 0.359-0.018 0.077-0.115 0.136-0.149 0.17zM22.507 3.452c0.122-0.134 0.202-0.225 0.27-0.299 0.113 0.030 0.217 0.049 0.313 0.087 0.060 0.024 0.147 0.072 0.151 0.118 0.006 0.053-0.062 0.161-0.101 0.163-0.198 0.010-0.398-0.003-0.597-0.019-0.027-0.002-0.049-0.071-0.035-0.050zM23.072 2.198c0.258 0.047 0.465 0.085 0.673 0.124 0.016 0.021 0.032 0.043 0.049 0.065-0.095 0.067-0.191 0.187-0.288 0.188-0.213 0.001-0.386-0.103-0.435-0.376zM27.033 3.384c-0.407-0.13-0.445-0.399-0.44-0.746 0.279 0.184 0.297 0.464 0.44 0.746zM23.544 3.265c0.22-0.014 0.392-0.026 0.578-0.038 0.033 0.056 0.079 0.132 0.126 0.209-0.216 0-0.418 0.005-0.617-0.006-0.025-0.001-0.047-0.087-0.087-0.165zM24.918 3.381c0.167 0.137 0.358 0.294 0.569 0.466-0.474 0.005-0.543-0.060-0.569-0.466zM26.073 2.519c-0.142-0.045-0.231-0.062-0.307-0.101-0.057-0.030-0.099-0.089-0.149-0.135 0.050-0.048 0.096-0.126 0.154-0.137 0.052-0.010 0.133 0.041 0.172 0.089 0.049 0.060 0.069 0.144 0.129 0.284zM22.977 4.544c-0.078-0.14-0.156-0.278-0.234-0.418 0.033-0.022 0.066-0.043 0.099-0.065 0.232 0.030 0.199 0.246 0.231 0.418-0.032 0.021-0.064 0.043-0.096 0.065z"></path>
<path fill="#dec178" d="M23.062 3.206c-2.35-1.861-3.382-3.015-5.3-3.015s-4.204 1.645-3.93 3.015c0.274 1.371 1.918 4.478 2.558 5.209s1.736 0.457 2.559 1.645c0.822 1.188 2.924 3.746 5.118 4.477s4.021 0.549 4.751 0c0.731-0.548 1.188-3.472-0.456-5.574-1.646-2.102-4.148-4.844-5.3-5.758z"></path>
<path fill="#1a1919" d="M23.062 3.206l0.118-0.15c-1.171-0.927-2.016-1.682-2.825-2.215-0.405-0.267-0.802-0.478-1.225-0.622s-0.87-0.22-1.368-0.22c-0.479 0-0.972 0.096-1.445 0.261-0.709 0.247-1.372 0.645-1.867 1.118-0.247 0.237-0.453 0.492-0.599 0.761s-0.232 0.551-0.232 0.837c0 0.089 0.008 0.179 0.026 0.267l-0-0c0.073 0.364 0.231 0.822 0.436 1.325 0.308 0.752 0.723 1.6 1.124 2.331 0.2 0.366 0.396 0.702 0.574 0.983s0.336 0.507 0.468 0.658c0.182 0.208 0.397 0.344 0.617 0.446 0.166 0.077 0.335 0.137 0.503 0.197 0.252 0.091 0.502 0.183 0.741 0.329s0.468 0.344 0.685 0.656c0.418 0.603 1.154 1.547 2.068 2.438 0.457 0.445 0.958 0.877 1.488 1.246s1.087 0.675 1.658 0.865c1.038 0.346 1.997 0.492 2.808 0.492 0.467-0 0.884-0.048 1.241-0.137s0.653-0.216 0.877-0.384l-0 0c0.12-0.090 0.22-0.216 0.308-0.368 0.132-0.228 0.238-0.519 0.313-0.856s0.118-0.722 0.118-1.134c0-0.549-0.077-1.146-0.26-1.745s-0.473-1.196-0.9-1.742c-0.827-1.056-1.866-2.27-2.845-3.336-0.489-0.533-0.963-1.029-1.389-1.45s-0.801-0.767-1.099-1.003l-0.237 0.299c0.278 0.221 0.648 0.56 1.067 0.975 1.259 1.247 2.973 3.181 4.201 4.75 0.395 0.505 0.665 1.060 0.836 1.618s0.243 1.12 0.243 1.633c0 0.513-0.072 0.979-0.186 1.341-0.056 0.181-0.123 0.336-0.194 0.457s-0.144 0.207-0.207 0.254l-0 0c-0.167 0.126-0.419 0.24-0.739 0.319s-0.709 0.126-1.149 0.126c-0.765 0-1.687-0.139-2.688-0.473-0.525-0.175-1.053-0.463-1.561-0.816-0.761-0.53-1.476-1.208-2.074-1.863s-1.083-1.287-1.386-1.726c-0.219-0.316-0.461-0.541-0.708-0.705-0.371-0.247-0.746-0.362-1.068-0.482-0.162-0.059-0.311-0.12-0.443-0.194s-0.249-0.163-0.353-0.281c-0.072-0.082-0.164-0.205-0.268-0.359-0.182-0.269-0.401-0.63-0.629-1.038-0.342-0.611-0.704-1.327-1.002-1.999-0.149-0.336-0.282-0.661-0.388-0.956s-0.185-0.559-0.227-0.77l-0-0c-0.012-0.057-0.019-0.123-0.019-0.19 0-0.001 0-0.001 0-0.002v0c0-0.139 0.028-0.283 0.083-0.431 0.096-0.259 0.277-0.528 0.522-0.783 0.366-0.382 0.874-0.731 1.431-0.98s1.164-0.401 1.725-0.4c0.46 0 0.862 0.069 1.245 0.199 0.575 0.196 1.115 0.535 1.735 1.005s1.316 1.069 2.201 1.77l0.119-0.15z"></path>
<path fill="#9b763c" d="M20.197 7.441c-0.006 0.070-0.027 0.142-0.014 0.208 0.033 0.177 0.081 0.352 0.132 0.566 0.266-0.234 0.474-0.183 0.654 0.094-0.774 0.219-0.88 0.177-1.051-0.434-0.298 0.268-0.515 0.16-0.627-0.071 0.038-0.328 0.068-0.586 0.101-0.873-0.32 0.168-0.568 0.299-0.865 0.456-0.219-0.090-0.363-0.247-0.321-0.58 0.024-0.18-0.081-0.377-0.139-0.604 0.275-0.346 0.219-0.491-0.451-0.976-0.35 0.309-0.153 0.617-0.007 0.93 0.136 0.293 0.259 0.593 0.388 0.89-0.033 0.029-0.066 0.058-0.099 0.087-0.468-0.346-0.955-0.67-1.4-1.044-0.255-0.214-0.36-0.184-0.483 0.103-0.17 0.395 0.038 0.648 0.307 0.869 0.583 0.48 1.169 0.954 1.768 1.415 1.008 0.777 1.825 1.72 2.518 2.783 0.288 0.443 0.626 0.855 0.947 1.276 0.797 1.049 1.985 1.339 3.173 1.628 0.213 0.052 0.424 0.103 0.636 0.155 0.006-0.018 0.012-0.036 0.019-0.053-0.715-0.3-1.435-0.592-2.144-0.906-0.159-0.070-0.303-0.201-0.42-0.334-0.185-0.212-0.338-0.432-0.675-0.425-0.085 0.002-0.183-0.177-0.261-0.284-0.223-0.305-0.438-0.616-0.655-0.921-0.053-0.321-0.113-0.678-0.17-1.020 0.456 0.103 0.583 0.255 0.522 0.776-0.043 0.365 0.161 0.335 0.362 0.249 0.207-0.089 0.389-0.239 0.582-0.362 0.030 0.081 0.062 0.161 0.093 0.241l-0.329 0.207c0.198 0.054 0.198 0.054 0.857-0.843-0.278 0.42-0.213 1.103-0.967 1.164 0.008 0.034 0.015 0.069 0.022 0.102 0.193 0.048 0.384 0.094 0.524 0.129 0.189-0.378 0.348-0.701 0.509-1.023 0.059 0.013 0.117 0.025 0.176 0.038-0.043 0.314-0.086 0.626-0.129 0.94 0.326-0.16 0.515-0.732 0.308-1.108-0.462-0.832-0.899-1.69-1.472-2.444-0.334-0.44-0.896-0.717-1.385-1.022-0.128-0.080-0.363 0.012-0.549 0.025l0.016-0.006zM21.983 7.404c0.154-0.186 0.307-0.371 0.552-0.667-0.317-0.047-0.543-0.105-0.77-0.106-0.231-0.001-0.463 0.053-0.783 0.094 0.215-0.292 0.35-0.476 0.49-0.668-0.433-0.162-0.45-0.155-0.805 0.375 0.401 0.375 0.804 0.751 1.207 1.126 0.041 0.038 0.088 0.070 0.125 0.111 0.427 0.484 0.536 0.483 1.006-0.006-0.174-0.795-0.614-0.276-0.979-0.125-0.014-0.045-0.029-0.089-0.043-0.134zM24.554 8.456c0.319 0.813 0.811 0.297 1.262 0.1 0.015 0.031 0.031 0.062 0.046 0.093-0.118 0.238-0.237 0.476-0.329 0.662 0.143 0.14 0.254 0.257 0.378 0.364 0.045 0.038 0.129 0.081 0.167 0.062 0.046-0.020 0.101-0.126 0.082-0.159-0.066-0.131-0.16-0.248-0.293-0.443 0.196-0.109 0.398-0.222 0.617-0.344-0.132-0.148-0.255-0.373-0.444-0.467-0.149-0.075-0.39-0.025-0.567 0.035-0.226 0.077-0.391 0.116-0.478-0.186 0.189-0.029 0.356-0.056 0.549-0.085-0.302-0.382-0.302-0.382-0.989 0.369zM17.725 3.233c-0.253 0.116-0.507 0.233-0.788 0.362 0.058-0.282 0.113-0.54 0.167-0.797-0.044-0.019-0.089-0.038-0.134-0.057-0.279 0.292-0.48 0.502-0.683 0.711l0.064-0.067c0.383 0.266 0.728 0.507 1.15 0.799 0.126-0.321 0.225-0.575 0.325-0.83-0.034-0.040-0.069-0.080-0.102-0.12zM18.732 1.937c0.002 0.024 0.014 0.103 0.031 0.232 0.177-0.091 0.329-0.168 0.542-0.276-0.2-0.099-0.341-0.169-0.474-0.236-0.014-0.241-0.027-0.464-0.040-0.687-0.042-0.020-0.083-0.040-0.126-0.060-0.204 0.203-0.408 0.404-0.668 0.661 0.269 0.133 0.487 0.242 0.735 0.365zM18.635 4.045c-0.247-0.151-0.397-0.242-0.615-0.374-0.127 0.204-0.285 0.401-0.36 0.625-0.015 0.044 0.354 0.316 0.441 0.273 0.207-0.102 0.35-0.331 0.534-0.524zM22.935 6.411c0.118 0.068 0.229 0.16 0.355 0.195 0.103 0.029 0.225-0.010 0.395-0.023-0.248-0.356-0.441-0.634-0.634-0.911-0.047 0.027-0.093 0.053-0.139 0.080 0.079 0.151 0.16 0.302 0.24 0.453-0.155 0.015-0.309 0.030-0.463 0.044 0.067 0.205 0.121 0.416 0.208 0.612 0.026 0.057 0.146 0.073 0.223 0.106 0.021-0.032 0.043-0.065 0.064-0.097-0.098-0.121-0.195-0.24-0.293-0.361 0.015-0.033 0.029-0.066 0.044-0.098zM22.737 8.832c0.263 0.521 0.396 0.505 0.975-0.118-0.238-0.514-0.368-0.498-0.975 0.118zM24.236 7.079c-0.164-0.12-0.328-0.24-0.492-0.36-0.062 0.101-0.123 0.202-0.195 0.322-0.032-0.005-0.116-0.017-0.29-0.044 0.099 0.231 0.17 0.396 0.241 0.56 0.241-0.107 0.483-0.213 0.724-0.319 0.004-0.053 0.008-0.105 0.012-0.159zM18.983 2.557c-0.215 0.141-0.371 0.244-0.53 0.348 0.177 0.18 0.316 0.345 0.482 0.476 0.060 0.048 0.24 0.051 0.267 0.009 0.072-0.108 0.149-0.272 0.112-0.376-0.053-0.159-0.2-0.287-0.33-0.457z"></path>
<path fill="#9b763c" d="M19.49 6.43c1.868 0.655 1.557 0.529 1.245 0.404l-2.187-0.776c0.048 0.312 0.078 0.508 0.107 0.705 0.278-0.053 0.555-0.106 0.832-0.16 0.001-0.058 0.002-0.116 0.002-0.174zM17.158 1.966c0.347 0.263 0.647 0.491 0.947 0.718 0.020-0.017 0.063-0.053 0.107-0.088l0.026-0.021c1.074 1.685 0.863 1.375 0.652 1.065l-1.292-2.015c-0.585 0.443-0.728 0.555-0.871 0.667l0.432-0.326zM25.031 7.611c-0.147-0.167-0.273-0.311-0.417-0.476-0.275 0.222-0.539 0.436-0.812 0.657 0.163 0.182 0.305 0.341 0.438 0.491 0.061-0.304 0.117-0.591 0.174-0.878 0.26-0.016 0.25 0.549 0.618 0.205zM20.18 7.447c0.094-0.111 0.189-0.222 0.311-0.365-0.308-0.104-0.574-0.193-0.884-0.297 0.003 0.277 0.005 0.494 0.007 0.767 0.214-0.041 0.397-0.076 0.581-0.112l-0.015 0.006zM19.358 4.508c-0.189-0.078-0.326-0.133-0.549-0.224-0.074 0.232-0.22 0.455-0.191 0.653 0.031 0.213 0.238 0.309 0.414 0.055 0.102-0.145 0.198-0.294 0.325-0.484zM28.14 10.138c-0.001-0.005-0.133-0.104-0.267-0.203l-0.141-0.1c-0.039 0.125-0.063 0.198-0.107 0.338-0.161-0.215-0.283-0.379-0.405-0.541-0.037 0.020-0.074 0.041-0.112 0.062 0.131 0.239 0.216 0.535 0.412 0.695 0.103 0.084 0.4-0.071 0.61-0.119 0.003-0.044 0.006-0.088 0.008-0.132zM23.823 8.949c-0.113 0.099-0.221 0.206-0.34 0.296-0.257 0.194-0.254 0.492 0.025 0.633 0.064 0.032 0.237-0.002 0.247-0.038 0.078-0.28 0.131-0.567 0.19-0.852-0.040-0.012-0.081-0.025-0.122-0.039zM19.719 5.74c0.577 0.493 0.809 0.465 1.107-0.265l-1.107 0.265zM16.736 4.438c-0.188-0.14-0.35-0.262-0.596-0.446-0.096 0.383-0.183 0.726-0.268 1.068 0.064 0.014 0.128 0.029 0.192 0.044 0.032-0.209 0.065-0.417 0.102-0.66 0.193 0.175 0.396 0.415 0.57-0.006zM23.73 10.206c0.159 0.14 0.3 0.263 0.423 0.373 0.274-0.324 0.503-0.594 0.761-0.9-0.401 0.179-0.758 0.338-1.185 0.528zM23.114 7.802c-0.219 0.202-0.437 0.403-0.665 0.613 0.256 0.16 0.599 0.081 0.788-0.19 0.066-0.094 0.024-0.263 0.031-0.398-0.052-0.008-0.103-0.017-0.154-0.025zM16.612 4.878c0.093 0.115 0.186 0.23 0.289 0.358-0.132 0.056-0.241 0.101-0.349 0.148 0.004 0.046 0.008 0.093 0.013 0.139 0.121-0.023 0.32-0.014 0.348-0.077 0.091-0.219 0.442-0.409 0.17-0.685-0.079-0.081-0.296-0.028-0.447-0.036-0.009 0.051-0.017 0.101-0.025 0.153zM20.088 2.698c-0.068 0.081-0.134 0.162-0.189 0.229l0.636 0.731c0.216-0.257 0.12-0.467-0.446-0.96zM19.584 5.644c0.003 0 0.161-0.18 0.318-0.36l0.164-0.193c-0.022-0.045-0.045-0.091-0.068-0.137-0.154 0.033-0.366 0.016-0.447 0.11-0.101 0.119-0.094 0.329-0.134 0.5 0.056 0.027 0.112 0.053 0.167 0.080zM15.402 3.405c0.1-0.416 0.201-0.832 0.307-1.268-0.261 0.134-0.479 0.836-0.307 1.268zM19.74 2.918c0.004-0.184 0.050-0.329-0.001-0.39-0.112-0.132-0.271-0.227-0.42-0.32-0.019-0.011-0.137 0.075-0.144 0.123-0.008 0.070 0.024 0.168 0.076 0.216 0.118 0.111 0.258 0.199 0.489 0.371zM19.427 3.664c0.142 0.148 0.253 0.289 0.389 0.4 0.072 0.059 0.186 0.085 0.283 0.087 0.028 0 0.1-0.152 0.079-0.202-0.039-0.091-0.121-0.2-0.208-0.225-0.161-0.048-0.339-0.041-0.543-0.060zM21.599 4.668c0.184 0.103 0.316 0.172 0.441 0.25 0.12 0.075 0.233 0.161 0.348 0.243 0.036-0.041 0.072-0.081 0.107-0.122-0.214-0.181-0.424-0.367-0.648-0.533-0.022-0.017-0.133 0.086-0.247 0.162zM15.843 2.656c0.095 0.163 0.19 0.326 0.285 0.49 0.045-0.008 0.090-0.016 0.137-0.024 0.020-0.15 0.093-0.32 0.043-0.441-0.036-0.088-0.235-0.108-0.36-0.159-0.035 0.045-0.070 0.090-0.104 0.135zM27.020 9.179c-0.344-0.28-0.515-0.052-0.696 0.092-0.024 0.020-0.022 0.123 0.005 0.146 0.044 0.038 0.133 0.077 0.176 0.057 0.164-0.078 0.318-0.179 0.515-0.295zM22.106 5.556c-0.222-0.19-0.4-0.342-0.641-0.549 0.077 0.522 0.276 0.691 0.641 0.549zM25.488 11.39c-0.042-0.376-0.219-0.578-0.675-0.483 0.26 0.186 0.467 0.334 0.675 0.483zM17.793 0.799c0.56 0.143 0.569 0.135 0.539-0.417-0.182 0.141-0.351 0.271-0.539 0.417zM24.555 5.625l0.261 0.648c0.028-0.011 0.055-0.023 0.083-0.036-0.059-0.222-0.117-0.444-0.177-0.665-0.056 0.017-0.111 0.035-0.167 0.053zM24.154 9.168c-0.041 0.155-0.079 0.31-0.121 0.465 0.024 0.023 0.048 0.046 0.072 0.069 0.096-0.073 0.245-0.129 0.273-0.222 0.027-0.095-0.064-0.226-0.102-0.341-0.041 0.010-0.082 0.019-0.122 0.029z"></path>
<path fill="#dec178" d="M15.952 9.696c-1.568-0.347-3.814-0.349-5.374-1.592s-4.16-3.087-6.665-2.189c-2.506 0.898-2.222 2.553-2.034 4.255s1.56 5.909 5.39 6.098c3.829 0.189 5.848 0.284 7.392 1.419s4.28 2.458 5.985 1.513c1.704-0.945 2.749-2.931 2.841-3.593s-0.963-0.756-2.019-1.986c-1.056-1.229-3.16-3.401-5.515-3.924z"></path>
<path fill="#1a1919" d="M15.952 9.696l0.041-0.186c-0.802-0.177-1.753-0.264-2.692-0.461s-1.86-0.501-2.605-1.095c-0.64-0.51-1.457-1.124-2.379-1.613s-1.95-0.855-3.015-0.856c-0.482-0-0.97 0.076-1.454 0.249-0.457 0.164-0.83 0.354-1.132 0.569-0.453 0.322-0.747 0.703-0.919 1.115s-0.227 0.85-0.227 1.295c0 0.486 0.064 0.984 0.119 1.476 0.049 0.442 0.173 1.035 0.392 1.685 0.329 0.974 0.872 2.075 1.71 2.96 0.419 0.442 0.913 0.83 1.489 1.116s1.235 0.47 1.979 0.507c1.915 0.094 3.373 0.166 4.532 0.352 0.58 0.093 1.084 0.215 1.536 0.381s0.85 0.376 1.221 0.648c0.598 0.44 1.368 0.905 2.193 1.263s1.707 0.609 2.534 0.61c0.52 0 1.021-0.101 1.463-0.347 0.887-0.493 1.591-1.246 2.089-1.96 0.249-0.358 0.447-0.706 0.589-1.011 0.071-0.152 0.129-0.294 0.172-0.421s0.073-0.24 0.087-0.341l0-0c0.005-0.035 0.007-0.070 0.007-0.104 0-0.001 0-0.001 0-0.002 0-0.103-0.023-0.2-0.065-0.287l0.002 0.004c-0.036-0.076-0.084-0.143-0.14-0.204-0.097-0.107-0.216-0.197-0.35-0.291-0.201-0.141-0.44-0.289-0.698-0.486s-0.538-0.439-0.819-0.765c-0.533-0.62-1.33-1.479-2.296-2.252s-2.102-1.463-3.323-1.734l-0.083 0.373c1.135 0.251 2.229 0.908 3.167 1.66s1.722 1.593 2.245 2.202c0.524 0.611 1.052 0.953 1.43 1.207 0.189 0.126 0.339 0.232 0.428 0.326 0.045 0.047 0.075 0.089 0.093 0.127s0.027 0.075 0.027 0.122c0 0.016-0.001 0.034-0.004 0.053l0-0c-0.009 0.065-0.032 0.159-0.070 0.27-0.067 0.195-0.177 0.445-0.329 0.72-0.227 0.412-0.545 0.88-0.941 1.318s-0.869 0.847-1.405 1.144c-0.374 0.207-0.807 0.299-1.278 0.299-0.749 0.001-1.588-0.234-2.382-0.578s-1.543-0.797-2.119-1.22c-0.401-0.295-0.834-0.522-1.315-0.699-0.722-0.265-1.55-0.417-2.555-0.523s-2.189-0.163-3.625-0.234c-0.923-0.046-1.69-0.331-2.335-0.761-0.966-0.644-1.653-1.622-2.113-2.6-0.461-0.976-0.694-1.953-0.762-2.568-0.055-0.497-0.117-0.982-0.117-1.434 0-0.276 0.023-0.539 0.081-0.787 0.088-0.372 0.253-0.708 0.554-1.015s0.743-0.586 1.39-0.818c0.441-0.158 0.883-0.227 1.325-0.227 0.975-0 1.948 0.34 2.836 0.811s1.688 1.070 2.32 1.575c0.816 0.65 1.798 0.967 2.764 1.17s1.922 0.29 2.688 0.46l0.041-0.186z"></path>
<path fill="#9b763c" d="M7.553 6.582c0.009 0.036 0.022 0.071 0.035 0.105 0.169 0.053 0.334 0.107 0.493 0.168-0.166-0.086-0.337-0.173-0.529-0.273z"></path>
<path fill="#9b763c" d="M8.144 6.88l0.008 0.011c-0.023-0.012-0.047-0.024-0.071-0.036-0.159-0.061-0.324-0.115-0.493-0.168 0.138 0.343 0.494 0.619 0.745 0.549 0.287-0.081 0.485 0.017 0.671 0.301h-1.058c0.342 0.18 0.663 0.359 0.993 0.517 0.042 0.020 0.136-0.062 0.185-0.087-0.050-0.114-0.089-0.205-0.165-0.379 0.067 0.034 0.132 0.067 0.198 0.1-0.215-0.406-0.585-0.635-1.013-0.806zM14.776 12.584c-0.218 0.014-0.373 0.028-0.529 0.033-0.247 0.007-0.456-0.029-0.572-0.307-0.081-0.194-0.398-0.153-0.485 0.089-0.147 0.406-0.43 0.432-0.776 0.38-0.097-0.176 0.067-0.514-0.325-0.512-0.032 0-0.072-0.161-0.094-0.25-0.050-0.196-0.090-0.394-0.127-0.563 0.239 0.127 0.514 0.274 0.823 0.439 0.022-0.109 0.036-0.176 0.059-0.29 0.14 0.199 0.261 0.371 0.428 0.608 0.101-0.123 0.188-0.229 0.276-0.335-0.015-0.037-0.031-0.074-0.047-0.111 0.361 0.035 0.724 0.063 1.084 0.11 0.062 0.007 0.128 0.085 0.17 0.145 0.126 0.178 0.251 0.357 0.357 0.546 0.12 0.218 0.219 0.447 0.346 0.711-0.274 0.088-0.479 0.122-0.648 0.217-0.312 0.176-0.507-0.079-0.698-0.199-0.176-0.11-0.047-0.332 0.21-0.353 0.229-0.018 0.408-0.095 0.549-0.361zM9.214 13.559c0.076-0.042 0.161-0.074 0.226-0.129 0.142-0.12 0.267-0.225 0.187-0.471-0.053-0.166-0.021-0.413 0.072-0.56 0.129-0.204 0.051-0.398 0.089-0.586 0.064-0.309-0.212-0.508-0.172-0.88l0.421 0.389c0.149-0.026 0.342-0.061 0.533-0.094 0.215 0.309 0.262 0.763 0.027 1.014-0.173 0.185-0.45 0.273-0.742 0.44 0.112 0.064 0.227 0.131 0.436 0.249 0.022 0.216 0.055 0.539 0.079 0.773-0.246-0.019-0.402-0.036-0.558-0.041-0.192-0.006-0.383-0.001-0.575-0.001-0.007-0.035-0.015-0.070-0.022-0.104zM8.419 11.189c-0.132-0.033-0.337-0.030-0.46-0.128-0.15-0.121-0.256-0.316-0.333-0.499-0.022-0.056 0.117-0.257 0.177-0.255 0.163 0.005 0.347 0.052 0.481 0.143 0.201 0.137 0.318 0.376 0.641 0.318 0.172-0.031 0.249 0.512 0.115 0.784-0.111 0.225-0.211 0.456-0.323 0.699h-0.293c-0.038 0.295 0.505 0.411 0.25 0.721 0.385 0.327 0.003-0.010-0.381-0.346l-0.796-0.685c0.163-0.081 0.299-0.147 0.461-0.227 0.011 0.15 0.021 0.288 0.032 0.425 0.028 0.017 0.057 0.034 0.086 0.051 0.136-0.133 0.332-0.244 0.388-0.405 0.057-0.164-0.022-0.376-0.046-0.595zM14.352 15.251c-0.459 0.205-0.554 0.166-0.564-0.303-0.17 0.061-0.318 0.114-0.481 0.172-0.13-0.518-0.621-0.552-1.009-0.703-0.2-0.079-0.253-0.159-0.147-0.311 0.261-0.371 0.27-0.365 0.192-0.874 0.476 0.322 0.888 0.601 1.329 0.901-0.172 0.217-0.294 0.37-0.466 0.585 0.21 0.056 0.389 0.116 0.572 0.142 0.028 0.004 0.078-0.149 0.139-0.276 0.076-0.019 0.207-0.053 0.365-0.093 0.018 0.259 0.038 0.516 0.057 0.773l0.013-0.012zM11.441 12.548c0.059 0.065 0.107 0.165 0.178 0.186 0.325 0.091 0.438 0.354 0.277 0.672-0.057 0.113-0.1 0.233-0.162 0.378 0.113 0.023 0.195 0.041 0.213 0.045-0.021 0.118-0.040 0.22-0.065 0.359-0.019 0.009-0.104 0.046-0.231 0.102-0.153-0.524-0.543-0.373-0.904-0.279-0.119-0.456 0.062-0.869 0.435-1.115 0.116-0.078 0.183-0.23 0.272-0.348l-0.014 0.002zM5.136 10.138c0.006-0.586 0.454-0.288 0.773-0.402-0.046 0.2-0.073 0.408-0.152 0.595-0.022 0.056-0.221 0.106-0.281 0.068-0.348-0.219-0.542-0.199-0.774 0.15-0.157 0.234-0.323 0.425-0.571 0.391 0.104-0.422 0.209-0.848 0.316-1.274 0.082-0.33 0.369-0.253 0.618-0.323-0.013 0.261-0.025 0.495-0.036 0.728 0.036 0.022 0.072 0.044 0.108 0.066zM15.807 15.895c0.203 0.074 0.336 0.123 0.475 0.173-0.047 0.276 0.097 0.487 0.349 0.598 0.305 0.135 0.28 0.304 0.115 0.582-0.051-0.146-0.064-0.258-0.125-0.331-0.064-0.076-0.168-0.134-0.266-0.163-0.318-0.095-0.646-0.16-0.956-0.273-0.050-0.018-0.051-0.222-0.041-0.336 0.004-0.055 0.107-0.093 0.134-0.153 0.041-0.090 0.055-0.193 0.079-0.291-0.098-0.021-0.198-0.043-0.322-0.071 0.041-0.12 0.084-0.251 0.128-0.383 0.247 0.152 0.486 0.299 0.733 0.452-0.047 0.030-0.141 0.091-0.303 0.196zM6.538 9.87c0.179 0.162 0.376 0.273 0.464 0.441 0.072 0.138 0.015 0.343 0.015 0.581 0.004 0.002 0.082 0.042 0.158 0.079-0.002 0.028 0.004 0.058-0.008 0.071-0.736 0.775-0.736 0.775-1.101 0.772 0.109-0.152 0.194-0.274 0.3-0.42-0.146-0.138-0.314-0.298-0.481-0.457 0.027-0.032 0.056-0.064 0.083-0.096 0.113 0.1 0.226 0.201 0.431 0.382 0.050-0.48 0.093-0.897 0.141-1.352zM15.669 13.847c0.045 0.168 0.106 0.236 0.325 0.238 0.206 0.001 0.485 0.135 0.597 0.301 0.133 0.197 0.076 0.483-0.145 0.666-0.045 0.037-0.122 0.037-0.251 0.073 0.081-0.13 0.125-0.202 0.171-0.277-0.185-0.244-0.348-0.474-0.74-0.344-0.158 0.052-0.378-0.083-0.573-0.134-0.022-0.447 0.317-0.463 0.603-0.539l0.012 0.016zM7.697 15.298c0.159 0.2 0.729 0.54 0.948 0.506 0.309-0.048 0.651 0.109 0.937-0.204 0.073-0.079 0.413 0.085 0.63 0.139-0.061 0.075-0.112 0.198-0.185 0.213-0.235 0.047-0.477 0.051-0.717 0.076-0.262 0.029-0.525 0.065-0.788 0.094-0.242 0.027-0.846-0.273-0.925-0.497-0.030-0.086 0.063-0.216 0.1-0.326zM7.729 8.033c-0.161 0.008-0.315 0.142-0.492 0.23 0.065 0.057 0.12 0.105 0.209 0.183-0.115 0.013-0.188 0.022-0.271 0.032v0.768c0.040 0.014 0.080 0.030 0.119 0.045 0.137-0.164 0.274-0.327 0.406-0.483 0.032 0.065-0.024-0.029-0.079-0.123l-0.089-0.164c0.162-0.059 0.297-0.109 0.502-0.183-0.062 0.147-0.099 0.234-0.135 0.32 0.028 0.012 0.056 0.024 0.083 0.036 0.065-0.156 0.211-0.337 0.172-0.458-0.035-0.108-0.279-0.209-0.426-0.202zM11.159 10.882c0.214-0.446 0.393-0.817 0.569-1.182 0.078 0.24 0.246 0.493 0.18 0.608-0.156 0.266 0.053 0.342 0.133 0.498 0.022 0.044-0.071 0.21-0.096 0.206-0.279-0.040-0.619 0.149-0.786-0.13zM15.476 12.265c0.35 0.266 0.659 0.5 1.030 0.782-0.263 0.135-0.462 0.237-0.662 0.339-0.391-0.726-0.391-0.726-0.368-1.12zM17.504 15.665c0.15-0.024 0.302-0.077 0.449-0.064 0.114 0.009 0.24 0.082 0.322 0.165 0.025 0.025-0.119 0.179-0.119 0.273 0 0.257-0.509 0.377-0.097 0.732-0.048 0.007-0.096 0.015-0.145 0.022-0.093-0.125-0.215-0.239-0.273-0.379-0.099-0.235-0.159-0.486-0.23-0.732-0.002-0.007 0.054-0.029 0.082-0.044 0.006 0.003 0.009 0.012 0.011 0.026zM3.336 8.599v-1.266c0.723 0.762 0.72 0.802 0 1.266zM6.568 14.79c0.2-0.331 0.346-0.572 0.492-0.812 0.386 0.19 0.467 0.519 0.252 0.912-0.272-0.036-0.524-0.070-0.744-0.1zM12.303 9.793c0.476 0.164 0.919 0.316 1.415 0.487-1.133 0.231-1.283 0.178-1.415-0.487z"></path>
<path fill="#9b763c" d="M11.441 12.548l0.014-0.002c-0.109-0.004-0.229 0.016-0.322-0.024-0.035-0.016-0.011-0.168-0.016-0.258-0.007-0.144-0.015-0.286-0.029-0.539 0.181 0.083 0.373 0.115 0.47 0.229 0.081 0.095 0.062 0.286 0.057 0.431-0.001 0.022 0.093 0.345-0.174 0.162zM3.39 9.207c0.163 0.247 0.287 0.436 0.443 0.673-0.153 0.251-0.469 0.159-0.745 0.248 0.102-0.31 0.193-0.588 0.302-0.921zM18.078 17.226c-0.072 0.1-0.131 0.181-0.19 0.263-0.032-0.013-0.065-0.027-0.098-0.040 0.077-0.186 0.115-0.406 0.241-0.548 0.1-0.111 0.308-0.126 0.467-0.184 0.015 0.035 0.030 0.070 0.045 0.105-0.070 0.055-0.14 0.109-0.255 0.2 0.155 0.095 0.293 0.181 0.426 0.263-0.375 0.184-0.375 0.184-0.636-0.060zM5.386 14.317c-0.273 0.030-0.694-0.256-0.667-0.471 0.011-0.092 0.148-0.205 0.25-0.237 0.065-0.020 0.211 0.075 0.248 0.152 0.078 0.165 0.111 0.352 0.168 0.556zM11.704 15.257c0.28 0.164 0.502 0.296 0.725 0.426-0.005 0.052-0.010 0.103-0.014 0.154-0.231 0.035-0.462 0.070-0.711 0.106v-0.686zM4.473 7.576c0.067 0.010 0.136 0.032 0.203 0.027 0.1-0.008 0.229-0.086 0.293-0.047 0.279 0.168 0.467 0.038 0.728-0.227-0.43 0.036-0.757 0.057-1.082 0.097-0.053 0.006-0.094 0.099-0.142 0.151zM17.504 15.665c-0.002-0.014-0.005-0.023-0.011-0.026-0.19-0.192-0.216-0.407-0.079-0.694 0.089 0.271 0.516-0.022 0.512 0.325-0.161 0.151-0.291 0.274-0.421 0.396zM9.915 10.483c0.115-0.217 0.23-0.433 0.333-0.626 0.114 0.193 0.197 0.332 0.241 0.406-0.085 0.15-0.153 0.269-0.22 0.389-0.153-0.097-0.312-0.197-0.47-0.298 0.038 0.043 0.078 0.085 0.117 0.128zM8.273 14.787c0.366 0.075 0.657 0.135 1.033 0.212-0.491 0.352-0.62 0.322-1.033-0.212zM10.472 14.909c0.17 0.064 0.369 0.095 0.501 0.206 0.059 0.051-0.015 0.259-0.029 0.395-0.048 0.017-0.097 0.034-0.147 0.050 0.656 0.999 0.533 0.823 0.409 0.646l-0.785-1.188c0.016-0.036 0.033-0.072 0.050-0.108zM3.228 11.945c0.078 0.186 0.156 0.373 0.233 0.559-0.041 0.034-0.081 0.068-0.122 0.1-0.117-0.106-0.26-0.196-0.339-0.325-0.041-0.069 0.031-0.206 0.052-0.312 0.059-0.008 0.118-0.016 0.176-0.022zM17.622 13.958c-0.142-0.12-0.489-0.079-0.299-0.513 0.163 0.114 0.316 0.22 0.469 0.326-0.061 0.061-0.122 0.123-0.183 0.185l0.012 0.001zM6.188 7.672c0.124 0.106 0.236 0.241 0.379 0.302 0.052 0.021 0.179-0.136 0.346-0.272-0.297-0.058-0.477-0.093-0.657-0.129-0.022 0.033-0.045 0.066-0.067 0.099zM4.353 12.659l-0.209 0.707c-0.040-0.012-0.078-0.023-0.118-0.036-0.143-0.296 0.042-0.499 0.234-0.702 0.031 0.010 0.062 0.020 0.092 0.030zM5.434 10.906v0.31c0.020-0.004 0.072-0.011 0.124-0.018l0.028-0.003c0.012 0.029 0.025 0.057 0.038 0.086-0.133 0.058-0.266 0.115-0.399 0.173-0.029-0.025-0.058-0.049-0.086-0.073 0.063-0.167 0.126-0.335 0.188-0.502 0.036 0.009 0.072 0.017 0.107 0.026zM15.777 17.986c-0.837-0.544-1.050-0.689-1.263-0.835l0.609 0.394c0.299-0.173 0.359-0.136 0.653 0.441zM18.839 13.764l-0.845-0.502c0.018-0.033 0.037-0.065 0.055-0.096l0.872 0.447c-0.027 0.051-0.055 0.101-0.082 0.152z"></path>
<path fill="#9b763c" d="M17.622 13.958l-0.012-0.001c0.26 0.065 0.231 0.232 0.145 0.435-0.073 0.005-0.155 0.024-0.232 0.012-0.059-0.009-0.112-0.057-0.167-0.087 0.031-0.053 0.060-0.109 0.097-0.159 0.053-0.069 0.113-0.134 0.17-0.2zM16.675 14.073c-0.175-0.088-0.335-0.169-0.497-0.25-0.020-0.053-0.031-0.082-0.044-0.111l0.009 0.023c0.088-0.026 0.177-0.052 0.265-0.078-0.012 0.196 0.52 0.030 0.267 0.415zM6.278 6.656c-0.044 0.048-0.041 0.211 0.003 0.25 0.082 0.070 0.211 0.085 0.358 0.137-0.051-0.204-0.079-0.318-0.119-0.481-0.062 0.021-0.183 0.029-0.242 0.094zM8.651 9.082c0.154-0.088 0.25-0.143 0.435-0.249 0 0.16 0.013 0.274-0.006 0.382-0.008 0.044-0.111 0.118-0.126 0.107-0.098-0.061-0.183-0.141-0.303-0.24zM5.403 6.393c-0.113 0.025-0.214 0.107-0.32 0.166 0.057 0.064 0.121 0.187 0.167 0.18 0.122-0.018 0.236-0.091 0.439-0.179-0.147-0.090-0.228-0.18-0.286-0.167zM14.564 10.619c0.203 0.064 0.406 0.127 0.693 0.217-0.37 0.221-0.518-0.050-0.726-0.098 0.011-0.040 0.022-0.079 0.033-0.119zM14.352 15.251l-0.013 0.012c0.361 0.022 0.321 0.232 0.234 0.492-0.258-0.107-0.319-0.271-0.221-0.504zM16.774 18.442c-0.092-0.222-0.532-0.006-0.489-0.496 0.223 0.151 0.396 0.266 0.569 0.384-0.026 0.037-0.053 0.075-0.080 0.113zM15.656 13.831v0z"></path>
<path fill="#dec178" d="M36.118 22.656c0.304-1.89-0.597-4.237-2.793-5.017s-4.867 0.298-6.793-0.271c-1.928-0.57-5.367-1.959-7.83-0.749s-3.344 2.034-3.344 2.034-1.117 0.031-1.625 1.020c-0.507 0.99-1.422 2.61 0.258 4.005s4.418 1.575 6.103 1.218c1.684-0.357 2.182-0.843 3.754 0.205s3.654 3.599 6.88 2.495c3.226-1.104 4.914-1.975 5.39-4.938z"></path>
<path fill="#1a1919" d="M36.118 22.656l0.188 0.030c0.038-0.227 0.060-0.488 0.060-0.754 0-0.002 0-0.004 0-0.006v0c-0-0.896-0.241-1.83-0.733-2.634s-1.24-1.477-2.244-1.833c-0.662-0.235-1.357-0.307-2.053-0.307-0.584 0-1.169 0.050-1.739 0.1s-1.125 0.098-1.645 0.098c-0.491 0-0.951-0.044-1.365-0.166-0.68-0.201-1.563-0.51-2.531-0.768s-2.021-0.469-3.052-0.469c-0.829 0-1.646 0.136-2.386 0.5-2.479 1.216-3.375 2.051-3.39 2.066l0.13 0.139-0.005-0.191c-0.014 0.001-0.312 0.009-0.685 0.152-0.186 0.071-0.391 0.177-0.586 0.334-0.213 0.173-0.387 0.385-0.513 0.627l-0.005 0.011c-0.143 0.28-0.324 0.619-0.471 0.996s-0.259 0.795-0.259 1.234c-0 0.333 0.066 0.679 0.23 1.020s0.425 0.674 0.805 0.989c0.629 0.522 1.393 0.876 2.191 1.101s1.631 0.32 2.405 0.32c0.607-0 1.178-0.059 1.668-0.163 0.468-0.099 0.845-0.208 1.169-0.29s0.596-0.136 0.861-0.136c0.219 0 0.437 0.036 0.69 0.128s0.541 0.243 0.888 0.475c0.314 0.21 0.659 0.488 1.034 0.789 0.563 0.451 1.196 0.951 1.92 1.34s1.542 0.669 2.467 0.669c0.511 0 1.054-0.086 1.627-0.282 0.809-0.277 1.524-0.54 2.154-0.828 0.472-0.216 0.895-0.445 1.271-0.706 0.564-0.39 1.023-0.852 1.37-1.431s0.585-1.272 0.721-2.123l-0.377-0.061c-0.117 0.725-0.306 1.313-0.569 1.807-0.2 0.372-0.442 0.692-0.724 0.97l-0.001 0.001c-0.43 0.424-0.968 0.772-1.627 1.092s-1.438 0.61-2.343 0.919c-0.536 0.183-1.035 0.261-1.504 0.261-0.565-0-1.087-0.113-1.576-0.298-0.734-0.277-1.393-0.717-1.992-1.173s-1.137-0.927-1.641-1.264c-0.364-0.243-0.678-0.41-0.969-0.516s-0.559-0.151-0.821-0.151c-0.317 0-0.62 0.063-0.954 0.147s-0.702 0.19-1.155 0.287c-0.46 0.097-1.006 0.154-1.589 0.154-0.742 0-1.543-0.092-2.302-0.306s-1.474-0.548-2.051-1.027c-0.345-0.286-0.567-0.575-0.705-0.861s-0.192-0.57-0.193-0.854c-0-0.373 0.097-0.746 0.233-1.096s0.309-0.676 0.454-0.96c0.114-0.222 0.26-0.388 0.418-0.515 0.236-0.19 0.5-0.292 0.704-0.345 0.069-0.019 0.153-0.036 0.24-0.047l0.010-0.001c0.023-0.003 0.052-0.006 0.082-0.008l0.004-0 0.003-0-0.001-0.017 0.001 0.017h0l-0.001-0.017 0.001 0.017c0.049-0.001 0.092-0.021 0.125-0.052l-0 0-0.013-0.014 0.013 0.014 0-0-0.013-0.014 0.013 0.014c0.012-0.011 0.886-0.819 3.297-2.002 0.673-0.331 1.43-0.461 2.218-0.461 0.979-0 2.003 0.201 2.953 0.456s1.826 0.56 2.521 0.766c0.464 0.137 0.96 0.182 1.474 0.182 0.544-0 1.109-0.050 1.678-0.1s1.144-0.098 1.706-0.098c0.67-0 1.321 0.070 1.925 0.285 0.916 0.326 1.593 0.934 2.046 1.673s0.677 1.607 0.677 2.435c0 0.238-0.018 0.472-0.055 0.699l0.188 0.030z"></path>
<path fill="#9b763c" d="M25.127 24.696l0.004 0 0.006-0.006-0.009 0.006zM32.504 23.66l0.010 0.012 0.001-0.011-0.002-0.003-0.008 0.002zM32.948 23.487l0.006 0.002 0.014-0.008-0.014-0.002-0.006 0.008zM17.16 24.305c-0.236-0.431-0.82-0.684-1.412-0.617 0.161 0.13 0.32 0.259 0.478 0.387 0.021 0.006 0.042 0.014 0.064 0.021 0.189 0.057 0.482 0.129 0.778 0.192l0.093 0.017z"></path>
<path fill="#9b763c" d="M29.179 23.756c-0.197-0.026-0.369-0.044-0.539-0.077-0.047-0.009-0.116-0.059-0.121-0.097-0.006-0.044 0.036-0.119 0.078-0.141 0.157-0.081 0.504 0.106 0.581 0.314zM23.464 22.459c-0.044-0.263 0.14-0.438 0.417-0.361 0.259 0.071 0.527 0.113 0.78 0.198 0.133 0.046 0.242 0.158 0.399 0.264-0.585-0.037-1.087-0.069-1.596-0.101zM32.967 23.481l-0.014 0.008-0.006-0.002c-0.076 0.118-0.153 0.238-0.264 0.41-0.063-0.089-0.116-0.163-0.168-0.236l-0.001 0.011-0.010-0.012c-0.285 0.078-0.569 0.157-0.923 0.256 0.083-0.237 0.124-0.352 0.159-0.451 0.178 0.005 0.353 0.010 0.614 0.018 0.011 0.013 0.081 0.094 0.151 0.177l0.008-0.002 0.002 0.003c0.006-0.105 0.012-0.208 0.020-0.324 0.138 0.050 0.275 0.1 0.413 0.15l0.006-0.008 0.014 0.002c0.087-0.057 0.173-0.114 0.267-0.175-0.127-0.075-0.236-0.138-0.344-0.203-0.427-0.258-0.848-0.536-1.369-0.554-0.099-0.003-0.201 0.067-0.302 0.104 0.043 0.073 0.089 0.144 0.125 0.219 0.039 0.079 0.070 0.164 0.103 0.246-0.026 0.026-0.051 0.052-0.077 0.078-0.119-0.087-0.238-0.172-0.358-0.259 0.005 0.017 0.009 0.036 0.013 0.054-0.288-0.045-0.575-0.088-0.863-0.133 0.052-0.101 0.12-0.109 0.144-0.147 0.090-0.141 0.216-0.286 0.232-0.44 0.009-0.096-0.153-0.297-0.238-0.297-0.137 0-0.272 0.131-0.412 0.199-0.097 0.048-0.2 0.119-0.3 0.117-0.192-0.005-0.384-0.052-0.575-0.087-0.194-0.037-0.388-0.080-0.581-0.12 0.004-0.038 0.007-0.076 0.010-0.114l0.724-0.258c-0.435-0.118-0.834-0.244-1.242-0.331-0.398-0.085-0.838-0.052-1.198-0.21-0.481-0.212-1.082-0.049-1.473-0.501-0.034-0.038-0.112-0.050-0.171-0.055-0.34-0.031-0.68-0.057-1.019-0.084 0.192-0.515 0.114-0.334 0.036-0.153l-0.269 0.702c0.192 0.101 0.362 0.191 0.529 0.28-1.602 1.108-1.815 1.262-2.029 1.416l1.374-0.947c-0.069-0.071-0.153-0.212-0.274-0.272-0.272-0.135-0.564-0.229-0.847-0.338-0.025-0.024-0.050-0.049-0.075-0.073-0.102 0.070-0.204 0.141-0.306 0.21-0.077 0.16-0.154 0.318-0.23 0.476-0.23 0.422-0.301 0.543-0.372 0.664l0.159-0.293 0.004-0.019c-0.037 0.027-0.083 0.085-0.111 0.077-0.42-0.123-0.793-0.048-1.133 0.26 0.36 0.178 0.134 0.344 0.018 0.527-0.165-0.113-0.306-0.211-0.461-0.318 0.097-0.062 0.195-0.124 0.293-0.186-0.131-0.308-0.397-0.468-0.628-0.318-0.276 0.179-0.607 0.369-0.587 0.764 0.014 0.313 0.101 0.623 0.151 0.904-0.081-0.007-0.227-0.043-0.368-0.029-0.166 0.016-0.329 0.070-0.492 0.116-0.188 0.052-0.399 0.076-0.556 0.178-0.14 0.092-0.254 0.163-0.353 0.215 0.35 0.058 0.713 0.097 1.083 0.105 0.206-0.022 0.573-0.008 0.721-0.076 0.905-0.369 1.902-0.532 2.806-0.381l0.013 0.002c0.205 0.022 0.409 0.044 0.614 0.065 0.341-0.008 0.683-0.017 1.025-0.025 0.068-0.010 0.145-0.047 0.202-0.027 1.381 0.447 2.017 0.675 2.651 0.909l-0.732-0.237c0.048 0.018 0.078 0.089 0.114 0.135 0.77 0.099 0.464 0.048 0.158-0.002l-1.058-0.144c-0.241 0.261 0.067 0.313 0.181 0.364 0.47 0.217 0.954 0.398 1.452 0.6-0.034 0.083-0.077 0.187-0.118 0.286l-0.379-0.035c-0.013 0.030-0.025 0.061-0.038 0.091 0.269 0.131 0.533 0.273 0.813 0.374 0.030 0.011 0.15-0.223 0.188-0.282 0.351 0.001 0.664 0.013 0.977 0 0.325-0.012 0.676-0.135 0.969-0.049 0.318 0.092 0.588 0.058 0.881-0.011 0.389-0.091 0.775-0.204 1.168-0.252 0.207-0.025 0.429 0.064 0.643 0.101-0.004 0.036-0.007 0.073-0.010 0.109 0.546-0.147 0.543-0.148 0.836-0.662 0.052-0.091 0.139-0.218 0.193 0.008 0.054-0.027 0.12-0.043 0.16-0.084 0.064-0.062 0.109-0.141 0.161-0.214v-0.001c0.228-0.359 0.123-0.634-0.348-0.962 0.162-0.147 0.33-0.299 0.574-0.519-0.23-0.038-0.35-0.058-0.467-0.078zM15.679 20.631c0.022-0.215 0.034-0.43 0.066-0.642 0.056-0.364 0.123-0.727 0.186-1.1 0.219 0.071 0.72-0.157 0.718-0.312-0.007-0.404-0.405-0.196-0.577-0.32 0.549-0.285 1.095-0.569 1.64-0.852 0.017 0.025 0.036 0.050 0.055 0.075-0.084 0.104-0.169 0.208-0.218 0.268 0.134 0.018 0.27 0.036 0.429 0.057 0.003-0.076 0.009-0.187 0.013-0.247 0.179 0.054 0.357 0.166 0.511 0.139 0.189-0.034 0.359-0.18 0.531-0.288 0.175-0.109 0.329-0.258 0.515-0.341 0.286-0.127 0.499 0.086 0.728 0.211 0.092 0.049 0.194 0.11 0.293 0.113 0.433 0.012 0.867 0.005 1.3 0.005 0.009 0.055 0.019 0.111 0.027 0.165-0.172 0.063-0.346 0.127-0.52 0.186-0.204 0.069-0.404 0.169-0.613 0.192-0.427 0.048-0.86 0.070-1.289 0.060-0.067-0.001-0.129-0.223-0.23-0.41-0.034 0.041-0.148 0.126-0.133 0.173 0.114 0.384-0.177 0.569-0.318 0.745-0.229 0.015-0.403 0.026-0.599 0.038-0.005 0.103-0.009 0.194-0.010 0.254 0.129 0.018 0.257 0.002 0.338 0.055 0.114 0.076 0.193 0.204 0.286 0.309-0.125 0.027-0.248 0.062-0.375 0.079-0.243 0.034-0.492 0.044-0.73 0.1-0.045 0.011-0.104 0.236-0.063 0.286 0.329 0.399 0.314 0.643-0.134 1.043 0.057-0.283 0.107-0.531 0.157-0.779-0.045-0.020-0.090-0.039-0.135-0.059-0.148 0.221-0.297 0.442-0.457 0.68-0.020-0.027-0.046-0.093-0.093-0.122-0.105-0.064-0.22-0.118-0.337-0.152-0.013-0.003-0.055 0.154-0.11 0.208-0.13 0.128-0.276 0.238-0.371 0.319 0.334 0.069 0.172 0.027 0.010-0.015l-0.492-0.108 0.001-0.015zM28.229 18.287c0.451-0.309 0.903-0.311 1.222-0.067 0.036 0.027 0.092 0.062 0.125 0.051 0.547-0.193 0.829 0.351 1.269 0.447 0.099 0.021 0.211 0.011 0.312-0.010 0.508-0.111 0.988 0.034 1.463 0.17 0.094 0.027 0.144 0.204 0.214 0.313-0.137 0.008-0.306 0.070-0.406 0.013-0.329-0.188-0.629-0.236-0.954-0.001-0.058 0.042-0.165 0.027-0.248 0.023-0.88-0.051-1.784 0.088-2.638-0.319 0.418-0.311 0.916 0.253 1.313-0.127-0.546-0.16-1.074-0.317-1.67-0.492zM27.299 20.446c-0.126 0.092-0.238 0.235-0.311 0.217-0.442-0.109-0.682-0.442-0.872-0.949 0.317 0.089 0.571 0.173 0.832 0.228 0.222 0.047 0.453 0.049 0.677 0.090 0.3 0.056 0.606 0.104 0.892 0.206 0.403 0.143 0.789 0.331 1.234 0.522-0.133 0.142-0.225 0.331-0.332 0.339-0.299 0.022-0.606-0.023-0.909-0.055-0.13-0.014-0.255-0.061-0.393-0.061-0.147-0.039-0.2-0.349-0.453-0.127-0.009 0.008-0.124-0.087-0.175-0.147-0.075-0.087-0.136-0.186-0.191-0.263z"></path>
<path fill="#9b763c" d="M15.679 20.631l-0.001 0.015c-0.024 0.458-0.049 0.917-0.072 1.376-0.029 0.026-0.056 0.052-0.084 0.078-0.255-0.256-0.509-0.512-0.763-0.768 0.092-0.159 0.163-0.281 0.283-0.485-0.204 0.061-0.329 0.114-0.46 0.128-0.041 0.005-0.136-0.095-0.134-0.145 0.006-0.167 0.048-0.334-0.21-0.355 0.091 0.006 0.18 0.013 0.183 0.014 0.050-0.127 0.072-0.238 0.132-0.323 0.173-0.244 0.594-0.281 0.566-0.716-0.006-0.086 0.215-0.187 0.412-0.346 0.053 0.547 0.1 1.037 0.148 1.528zM32.062 19.785l-0.43 0.223c-0.476 0.362-0.738-0.184-1.166-0.266 0.055 0.059 0.11 0.118 0.166 0.177-0.329 0.193-0.781-0.116-1.113 0.243-0.42-0.161-0.884-0.34-1.366-0.526 0.208-0.353 0.456-0.352 0.766-0.296 0.422 0.076 0.859 0.067 1.286 0.128 0.622 0.087 1.269 0.041 1.856 0.329l0.002-0.011zM25.505 18.026c0.488 0.229 0.927 0.436 1.366 0.641 0.411 0.191 0.854 0.339 1.077 0.783-0.159 0.001-0.313 0.016-0.464 0-0.106-0.011-0.206-0.067-0.309-0.101-0.062-0.021-0.128-0.056-0.191-0.054-0.401 0.010-0.725-0.142-0.982-0.444-0.152-0.179-0.312-0.352-0.451-0.541-0.043-0.060-0.028-0.162-0.046-0.284zM20.526 21.1c0.010 0.034 0.027 0.118 0.064 0.192 0.142 0.291 0.020 0.556-0.267 0.487-0.343-0.083-0.642-0.084-0.949 0.079-0.032 0.018-0.099-0.033-0.203-0.073 0.11-0.078 0.177-0.125 0.306-0.216-0.285-0.049-0.515-0.088-0.744-0.127 0.031-0.41 0.343-0.643 0.727-0.556 0.331 0.076 0.667 0.134 1.067 0.213zM22.202 21.355c-0.077 0.16-0.154 0.318-0.23 0.476-0.227 0.234-0.471 0.081-0.71 0.028-0.103-0.022-0.204-0.056-0.269-0.074-0.042-0.17-0.109-0.354-0.128-0.543-0.011-0.116 0.015-0.305 0.088-0.344 0.127-0.069 0.191-0.206 0.448-0.172 0.455 0.059 0.627 0.303 0.802 0.628zM22.582 21.217c-0.025-0.024-0.050-0.049-0.075-0.073-0.149-0.11-0.299-0.221-0.456-0.337 0.39-0.569 0.779-1.057 1.572-0.4-0.071 0.195-0.163 0.46-0.266 0.721-0.013 0.033-0.081 0.059-0.126 0.062-0.216 0.014-0.432 0.018-0.649 0.026zM21.161 18.283c0.363-0.264 0.39-0.26 1.023 0.181-0.563 0.652-1.332 0.931-1.847 0.673 0.272-0.261 0.233-0.791 0.734-0.856-0.094 0.175-0.187 0.35-0.28 0.525 0.022 0.033 0.045 0.066 0.067 0.099 0.198-0.136 0.397-0.27 0.655-0.448-1.509-0.692-1.625-0.75-1.74-0.809l1.388 0.634zM31.126 21.203c0.356-0.563 0.689-0.463 1.566-0.143-0.123 0.192-0.215 0.387-0.353 0.541-0.163 0.183-0.205 0.17-0.484 0.013-0.243-0.138-0.484-0.282-0.727-0.423l-0.002 0.012zM24.886 19.643c-0.024-0.109-0.049-0.217-0.074-0.329 0.727-0.172 1.064 0.113 0.891 0.802-0.113-0.033-0.227-0.099-0.339-0.095-0.454 0.014-0.785-0.297-1.185-0.427-0.040-0.012-0.076-0.146-0.057-0.204 0.025-0.078 0.119-0.203 0.161-0.195 0.101 0.020 0.211 0.088 0.28 0.169 0.075 0.087 0.108 0.21 0.16 0.318-0.026 0.004 0.028-0.010 0.083-0.024l0.079-0.017zM22.075 19.869c0.002 0.156 0.005 0.279 0.008 0.386-0.069 0.020-0.156 0.054-0.247 0.072-0.132 0.027-0.267 0.046-0.401 0.065-0.068 0.009-0.137 0.018-0.206 0.016-0.136-0.006-0.339 0.030-0.393-0.041-0.107-0.146-0.153-0.349-0.174-0.533-0.004-0.038 0.22-0.15 0.332-0.142 0.271 0.021 0.537 0.095 0.806 0.144 0.095 0.017 0.193 0.024 0.275 0.033zM22.28 17.842c0.046-0.035 0.134-0.075 0.131-0.104-0.058-0.471 0.322-0.261 0.489-0.279 0.236-0.025 0.486 0.061 0.772 0.107-0.069 0.238-0.139 0.483-0.236 0.822-0.397-0.142-0.783-0.28-1.168-0.419 0.004-0.043 0.009-0.085 0.012-0.128zM20.361 20.412c-0.227 0.053-0.407 0.095-0.68 0.158 0.008-0.151 0.018-0.31 0.030-0.538-0.076 0.027-0.222 0.050-0.331 0.126-0.107 0.076-0.176 0.206-0.291 0.346-0.193-0.379 0.071-0.631 0.216-0.724 0.202-0.131 0.538-0.143 0.791-0.088 0.43 0.093 0.205 0.486 0.265 0.719zM18.287 22.265c-0.238-0.017-0.297 0.317-0.618 0.247-0.338-0.073-0.334-0.231-0.304-0.47 0.009-0.074 0.033-0.147 0.072-0.313-0.15 0.112-0.223 0.166-0.297 0.222-0.023-0.030-0.046-0.060-0.069-0.089 0.136-0.103 0.268-0.286 0.407-0.291 0.181-0.008 0.367 0.127 0.552 0.201 0.076 0.156 0.164 0.335 0.251 0.514l0.004-0.021zM16.3 21.812c-0.070-0.214-0.462-0.336-0.234-0.618 0.121-0.148 0.396-0.234 0.598-0.228 0.134 0.003 0.385 0.238 0.37 0.337-0.054 0.347-0.344 0.478-0.734 0.509zM17.423 22.952c-0.082 0.305-0.14 0.51-0.207 0.757-0.218-0.095-0.461-0.179-0.676-0.308-0.078-0.046-0.091-0.201-0.134-0.306 0.092-0.029 0.181-0.073 0.274-0.084 0.221-0.025 0.445-0.036 0.742-0.060zM15.956 23.099c-0.517 0.202-0.807 0.062-1.020-0.405-0.015-0.033-0.021-0.071-0.027-0.106-0.027-0.167-0.053-0.334-0.081-0.502 0.144 0.107 0.303 0.198 0.425 0.324 0.112 0.117 0.167 0.288 0.278 0.405 0.097 0.102 0.237 0.162 0.425 0.285zM19.227 18.192c0.301 0.070 0.554 0.129 0.897 0.209-0.057 0.13-0.097 0.352-0.229 0.468-0.088 0.078-0.341 0.062-0.463-0.009-0.281-0.164-0.294-0.44-0.206-0.668z"></path>
<path fill="#9b763c" d="M31.126 21.203l0.002-0.012c-0.253 0.154-0.983-0.043-1.065-0.298-0.022-0.067 0.001-0.205 0.045-0.228 0.117-0.059 0.297-0.139 0.379-0.089 0.184 0.11 0.325 0.292 0.482 0.448 0.056 0.056 0.105 0.119 0.157 0.179zM25.068 18.548c-0.235-0.028-0.484-0.058-0.767-0.091 0.117-0.305-0.083-0.347-0.327-0.361 0.139-0.138 0.254-0.252 0.39-0.389 0.081 0.395 0.829 0.159 0.703 0.841zM23.044 17.052c-0.439-0.010-0.799-0.015-1.158-0.026-0.080-0.002-0.16-0.022-0.293-0.042 0.174-0.151 0.307-0.268 0.467-0.409 0.252 0.224 0.808-0.168 0.984 0.477zM20.279 17.082c0.035-0.241 0.902-0.6 1.284-0.532-0.304 0.49-0.304 0.49-1.284 0.532zM18.287 22.265l-0.004 0.021c0.076-0.134 0.123-0.323 0.238-0.383 0.084-0.044 0.375 0.106 0.37 0.135-0.039 0.229-0.127 0.449-0.248 0.672-0.068-0.215-0.526-0.077-0.356-0.446zM22.772 24.088c0.341-0.008 0.683-0.017 1.025-0.025 0.125 0.054 0.249 0.109 0.452 0.198-0.234 0.054-0.378 0.088-0.523 0.121-0.358-0.042-0.715-0.083-1.073-0.125 0.040-0.056 0.079-0.113 0.12-0.169zM32.060 19.796c0.166 0 0.331-0.002 0.496 0.002 0.148 0.004 0.296 0.016 0.479 0.027 0.024 0.088 0.060 0.222 0.093 0.348-0.252 0.012-0.522 0.073-0.766 0.018-0.124-0.028-0.202-0.262-0.3-0.404l-0.002 0.010zM33.993 21.59c-0.111-0.039-0.221-0.113-0.312-0.094-0.062 0.013-0.088 0.163-0.151 0.235-0.139 0.157-0.291 0.302-0.488 0.504-0.057-0.65 0.502-1.062 1.148-0.942-0.077 0.115-0.146 0.221-0.198 0.298zM24.492 17.324c-0.421-0.095-0.789-0.178-1.156-0.26-0.011-0.034-0.021-0.066-0.031-0.099 0.118-0.046 0.237-0.132 0.355-0.132 0.331 0.002 0.723-0.075 0.832 0.491zM17.724 23.064c0.316 0.076 0.631 0.151 0.947 0.227 0.001 0.037 0.002 0.074 0.004 0.11-0.282 0.037-0.527 0.285-0.834 0.128-0.102-0.052-0.146-0.224-0.216-0.342 0.032-0.041 0.066-0.082 0.099-0.123zM19.433 16.736c0.373-0.142 0.747-0.283 1.196-0.452-0.159 0.376-0.159 0.376-1.14 0.583-0.019-0.044-0.037-0.087-0.056-0.131zM27.733 18.082c-0.405 0.027-0.924-0.235-1.164-0.644 0.456 0.193 0.84 0.356 1.223 0.519l-0.060 0.125zM32.026 18.187c-0.364 0.263-1.22 0.233-1.451-0.050 0.494 0.016 0.927 0.031 1.451 0.050zM17.934 20.998c0.057-0.149 0.112-0.29 0.167-0.431 0.039-0.017 0.078-0.034 0.117-0.052 0.094 0.141 0.295 0.318 0.261 0.415-0.097 0.279-0.329 0.165-0.545 0.068zM25.136 24.69c-0.363 0.186-0.624-0.040-0.925-0.211 0.45-0.182 0.778-0.098 0.914 0.217l0.011-0.006zM33.208 25.039c0.223 0.113 0.451 0.218 0.665 0.345 0.046 0.027 0.070 0.144 0.055 0.206-0.015 0.056-0.106 0.136-0.151 0.128-0.058-0.009-0.11-0.088-0.155-0.146-0.141-0.175-0.277-0.355-0.414-0.532v-0.002zM22.073 18.932c0.654-0.101 0.654-0.101 0.701 0.501-0.248-0.177-0.444-0.317-0.701-0.501zM30.941 22.726c-0.071-0.078-0.179-0.168-0.243-0.283-0.017-0.030 0.095-0.189 0.159-0.196 0.121-0.013 0.25 0.040 0.412 0.074-1.005 1.27-1.113 1.402-1.22 1.534l0.892-1.129zM14.434 19.63c0.205-0.17 0.41-0.34 0.614-0.51 0.011 0.008 0.021 0.017 0.031 0.025-0.167 0.207-0.335 0.413-0.502 0.619-0.056-0.051-0.103-0.095-0.149-0.139l0.005 0.005zM21.758 22.202v0z"></path>
<path fill="#9b763c" d="M22.1 24.291l-0.364-0.042c-0.008-0.020-0.016-0.039-0.025-0.059 0.149-0.056 0.298-0.112 0.447-0.168 0.205 0.022 0.409 0.044 0.614 0.065-0.040 0.056-0.079 0.113-0.12 0.169-0.184 0.012-0.368 0.023-0.552 0.034z"></path>
<path fill="#793f3f" d="M6.726 29.853c-0.423-0.718 1.908-3.372 4.439-3.436s5.67 0.386 5.972 0.465c0.301 0.079 1.44 0.856 1.44 0.856s-0.547 1.092-2.298 2.381c-1.753 1.291-2.774 1.877-5.215 1.528s-3.197 0.138-4.338-1.794z"></path>
<path fill="#1a1919" d="M6.726 29.853l0.219-0.129c-0.006-0.010-0.015-0.031-0.015-0.077-0.001-0.065 0.022-0.172 0.077-0.3 0.095-0.226 0.284-0.513 0.544-0.808 0.39-0.443 0.94-0.906 1.57-1.257s1.339-0.592 2.050-0.61c0.167-0.004 0.337-0.006 0.509-0.006 1.198-0 2.485 0.099 3.505 0.206 0.51 0.054 0.953 0.11 1.285 0.157 0.166 0.024 0.304 0.045 0.408 0.062 0.052 0.009 0.095 0.016 0.129 0.023s0.057 0.012 0.064 0.014c0.009 0.002 0.051 0.018 0.103 0.043 0.093 0.044 0.222 0.117 0.359 0.199 0.206 0.123 0.432 0.268 0.606 0.382 0.087 0.057 0.161 0.106 0.213 0.141 0.026 0.017 0.047 0.031 0.061 0.041l0.021 0.014 0.143-0.21-0.125-0.063-0.102-0.052-0 0.001 0.102 0.051-0.102-0.052c-0.002 0.003-0.532 1.047-2.222 2.291-0.706 0.52-1.282 0.916-1.864 1.178s-1.172 0.399-1.941 0.4c-0.363 0-0.766-0.031-1.223-0.097-0.62-0.089-1.133-0.124-1.563-0.157-0.323-0.025-0.599-0.049-0.838-0.092-0.18-0.032-0.338-0.073-0.485-0.131-0.219-0.088-0.414-0.211-0.619-0.412s-0.417-0.483-0.65-0.878l-0.438 0.259c0.294 0.497 0.57 0.852 0.87 1.11 0.224 0.193 0.461 0.328 0.713 0.419 0.188 0.069 0.384 0.114 0.59 0.147 0.619 0.098 1.336 0.095 2.35 0.24 0.476 0.068 0.903 0.102 1.295 0.102 0.83 0.001 1.509-0.154 2.15-0.445s1.244-0.708 1.956-1.232c1.787-1.315 2.36-2.441 2.375-2.472 0.017-0.033 0.027-0.072 0.027-0.114 0-0.087-0.044-0.164-0.11-0.21l-0.001-0.001c-0.001-0.001-0.288-0.196-0.615-0.403-0.163-0.103-0.337-0.21-0.492-0.297-0.051-0.030-0.123-0.069-0.196-0.105l-0.023-0.010c-0.068-0.032-0.127-0.058-0.194-0.076-0.022-0.006-0.055-0.013-0.088-0.020l-0.010-0.002c-0.145-0.028-0.408-0.069-0.764-0.117-1.064-0.143-2.937-0.341-4.66-0.341-0.176 0-0.35 0.002-0.522 0.006-0.623 0.016-1.226 0.178-1.78 0.422-0.832 0.368-1.556 0.921-2.081 1.478-0.263 0.279-0.476 0.559-0.627 0.824-0.076 0.133-0.136 0.262-0.179 0.388s-0.069 0.249-0.069 0.373c-0 0.114 0.023 0.231 0.085 0.336l0.219-0.129z"></path>
<path fill="#95675f" d="M14.536 27.213s-2.776-0.858-4.14 0c-1.364 0.858-2.995 1.056-1.965 1.574 1.031 0.519 1.583 0.716 2.701 0 1.119-0.715 1.963-0.559 2.748-0.745 0.786-0.185 1.796-0.57 0.656-0.829zM7.499 23.677s-0.818-0.992-2.361-0.951c-1.542 0.041-4.064 0.474-4.064 0.474s-0.214 0.539 0.483 0.509c0.698-0.030 2.534-0.644 2.608-0.256s-1.591 0.403-0.704 0.61c0.886 0.207 3.899 0.397 4.038-0.386z"></path>
</svg>
