<!-- Generated by IcoMoon.io -->
<svg version="1.1" xmlns="http://www.w3.org/2000/svg" width="19" height="32" viewBox="0 0 19 32">
<title>oak_leaf</title>
<path fill="#677821" d="M3.987 0.55c-0.302-0.033-0.58 0.104-0.832 0.253-0.412 0.25-0.752 0.591-1.022 0.986-0.156 0.273-0.296 0.558-0.338 0.873-0.023 0.169-0.014 0.301-0.011 0.472 0.097 0.633 0.354 1.225 0.611 1.807 0.055 0.28 0.287 0.596 0.202 0.897-0.030 0.105-0.259 0.413-0.354 0.492-0.063 0.052-0.142 0.079-0.214 0.119l-0.098 0.131-0.035-0.026c0.031-0.042 0.062-0.084 0.094-0.125-0.027-0.102-0.056-0.255-0.12-0.345-0.039-0.055-0.109-0.084-0.143-0.143-0.111-0.195-0.026-0.546-0.151-0.738-0.066-0.329-0.065-0.342-0.148-0.672-0.119-0.471-0.279-0.932-0.251-1.426 0.011-0.106 0.012-0.214 0.032-0.32 0.086-0.456 0.355-0.866 0.645-1.216 0.347-0.385 0.736-0.732 1.209-0.956 0.305-0.119 0.604-0.197 0.934-0.152l-0.010 0.090zM2.019 6.629c-0.315 0.024-0.608 0.131-0.899 0.245-0.221 0.093-0.411 0.224-0.547 0.422-0.17 0.389-0.118 0.737-0.014 1.137 0.157 0.327 0.329 0.645 0.564 0.923 0.279 0.329 0.618 0.605 0.945 0.885 0.098 0.101 0.205 0.192 0.293 0.302 0.308 0.383 0.131 0.311 0.479 0.628 0.083 0.075 0.183 0.129 0.272 0.197 0.084 0.064 0.164 0.133 0.247 0.2l-0.027 0.034c-0.102-0.083-0.404-0.334-0.516-0.395-0.377-0.203-0.832-0.177-1.165-0.475-0.586-0.494-1.197-1.073-1.482-1.806-0.049-0.126-0.071-0.261-0.106-0.392-0.019-0.119-0.048-0.238-0.057-0.358-0.024-0.315 0.039-0.701 0.209-0.975 0.029-0.047 0.072-0.084 0.108-0.127 0.228-0.219 0.447-0.277 0.749-0.351 0.309-0.080 0.628-0.116 0.946-0.138l0.002 0.045z"></path>
<path fill="#677821" d="M2.498 11.034c0.073 0.366 0.351 0.63 0.587 0.9 0.325 0.293 0.694 0.543 1.071 0.765 0.24 0.135 0.484 0.346 0.567 0.622 0.020 0.066 0.019 0.136 0.028 0.204-0.008 0.16-0.007 0.316-0.050 0.473-0.024 0.088-0.068 0.168-0.1 0.254-0.109 0.293-0.217 0.571-0.355 0.852-0.138 0.173-0.247 0.366-0.378 0.544-0.167 0.227-0.246 0.265-0.351 0.527-0.072 0.181-0.089 0.381-0.115 0.571l-0.043-0.006c0.009-0.062 0.075-0.524 0.079-0.585 0.036-0.52-0.024-0.112-0.015-0.662 0.003-0.163 0.054-0.537 0.074-0.697 0.035-0.105 0.066-0.212 0.106-0.315 0.066-0.168 0.163-0.323 0.228-0.492 0.024-0.061 0.031-0.127 0.051-0.189 0.089-0.272 0.025-0.004 0.073-0.223 0.045-0.299-0.028 0.142 0.038-0.129 0.032-0.132-0.098-0.261-0.157-0.36-0.305-0.34-0.657-0.637-0.925-1.011-0.236-0.3-0.464-0.649-0.505-1.037l0.090-0.005z"></path>
<path fill="#677821" d="M4.032 15.292c-0.091 0.45-0.13 0.905-0.139 1.364-0.025 0.643 0.16 1.1 0.542 1.603 0.346 0.426 0.737 0.585 1.248 0.738 0.457 0.169 0.95 0.204 1.4 0.401 0.127 0.055 0.259 0.107 0.365 0.196 0.112 0.094 0.183 0.228 0.274 0.343 0.36 0.809 0.017-0.028 0.259 0.761 0.032 0.105 0.081 0.203 0.122 0.305l-0.040 0.016c-0.040-0.1-0.056-0.212-0.119-0.3-0.134-0.188-0.345-0.271-0.538-0.373-0.532-0.175-0.060-0.005-0.585-0.238-0.446-0.197-0.919-0.328-1.381-0.481-0.614-0.288-1.023-0.544-1.348-1.163-0.066-0.141-0.198-0.41-0.243-0.558-0.126-0.412-0.111-0.837-0.081-1.261 0.073-0.453 0.147-0.906 0.223-1.359l0.043 0.006z"></path>
<path fill="#677821" d="M7.947 20.512c-0.015 0.398-0.049 0.795-0.069 1.192-0.075 0.16-0.070 0.346-0.138 0.507-0.045 0.107-0.134 0.212-0.201 0.306-0.031 0.033-0.147 0.136-0.069 0.183 0.024 0.015 0.055 0.018 0.080 0.032 0.219 0.292 0.566 0.453 0.844 0.679 0.082 0.066 0.156 0.141 0.235 0.211 0.17 0.15 0.337 0.268 0.44 0.48 0.026 0.053 0.167 0.604 0.179 0.67 0.020 0.112 0.014 0.227 0.036 0.339 0.020 0.105 0.059 0.205 0.089 0.308l0.103 0.309-0.041 0.014-0.102-0.308c-0.040-0.097-0.063-0.203-0.12-0.291-0.048-0.075-0.348-0.369-0.426-0.426-0.076-0.055-0.168-0.083-0.245-0.137-0.095-0.066-0.318-0.286-0.398-0.362-0.465-0.34-0.934-0.705-1.253-1.192-0.026-0.082-0.065-0.16-0.077-0.245-0.024-0.176 0.053-0.37 0.154-0.512 0.036-0.051 0.1-0.078 0.129-0.135 0.027-0.023 0.081-0.065 0.101-0.093 0.018-0.025 0.026-0.057 0.045-0.082 0.091-0.123 0.181-0.195 0.215-0.362 0.030-0.059 0.065-0.116 0.091-0.177 0.126-0.299 0.153-0.629 0.26-0.934l0.137 0.026z"></path>
<path fill="#677821" d="M9.531 25.148c0.107 0.242 0.338 0.407 0.526 0.585 0.336 0.317 0.176 0.176 0.556 0.479 0.454 0.344 0.891 0.713 1.381 1.006 0.242 0.145 0.494 0.272 0.74 0.411 0.321 0.2 0.68 0.323 1.030 0.46 0.105 0.041 0.42 0.169 0.55 0.177 0.069 0.005 0.137-0.024 0.205-0.036 0.368-0.109 0.67-0.362 0.926-0.641 0.123-0.134 0.258-0.262 0.351-0.418 0.095-0.16 0.139-0.346 0.208-0.519l0.167-0.5 0.041 0.014-0.168 0.503c-0.069 0.174-0.152 0.344-0.206 0.523-0.055 0.185-0.068 0.38-0.12 0.565-0.075 0.267-0.257 0.759-0.447 0.977-0.276 0.317-0.445 0.304-0.819 0.402-0.295-0.062-0.434-0.078-0.712-0.189-0.481-0.193-0.894-0.513-1.347-0.758-0.739-0.485-1.431-1.045-2.065-1.66-0.396-0.404-0.893-0.78-1.034-1.356l0.236-0.022zM2.777 0.956c0.356-0.187 0.711-0.373 1.078-0.537 0.088-0.040 0.174-0.088 0.265-0.122 0.101-0.037 0.207-0.056 0.309-0.087 0.344-0.104 0.663-0.211 1.028-0.21 0.129 0 0.257 0.020 0.386 0.031 0.595 0.107 1.092 0.408 1.528 0.818 0.112 0.105 0.227 0.208 0.32 0.329s0.157 0.261 0.235 0.391c0.184 0.229 0.2 0.541 0.349 0.786 0.067 0.11 0.17 0.193 0.254 0.289l-0.032 0.028c-0.085-0.097-0.16-0.204-0.256-0.291-0.209-0.19-0.48-0.304-0.666-0.524-0.105-0.092-0.215-0.179-0.314-0.277-0.096-0.095-0.176-0.206-0.271-0.302-0.345-0.35-0.745-0.656-1.211-0.822-0.107-0.025-0.212-0.059-0.32-0.076-0.314-0.049-0.667-0.041-0.979 0.017-0.196 0.036-0.381 0.12-0.581 0.139-0.379 0.123-0.755 0.259-1.102 0.458l-0.021-0.038zM7.748 0.87c0.394 0.059 0.791 0.098 1.189 0.099 0.225-0.011 0.45-0.015 0.674-0.040 0.077-0.009 0.153-0.026 0.23-0.031 0.104-0.007 0.408 0.003 0.507 0.005 0.563 0.059 1.015 0.379 1.347 0.828 0.075 0.101 0.134 0.212 0.202 0.319 0.223 0.426 0.445 0.891 0.444 1.384-0.001 0.311-0.049 0.37-0.15 0.659-0.099 0.29-0.122 0.591-0.14 0.893l-0.043-0.003c0.018-0.302 0.029-0.585-0.106-0.868-0.143-0.238-0.183-0.281-0.282-0.537-0.145-0.374-0.194-0.78-0.368-1.144-0.231-0.421-0.497-0.84-0.97-1.013-0.448-0.115-0.914-0.111-1.369-0.185-0.4-0.072-0.8-0.143-1.186-0.273l0.021-0.095z"></path>
<path fill="#677821" d="M11.838 3.337c-0.195 0.358-0.185 0.656-0.090 1.043 0.225 0.513 0.556 0.681 1.064 0.843 0.31 0.095 0.632 0.058 0.95 0.054 0.239-0.003 0.256 0.005 0.496 0.027 0.092 0.031 0.193 0.044 0.277 0.093 0.325 0.186 0.518 0.559 0.542 0.927 0.021 0.311-0.076 0.556-0.159 0.849-0.185 0.362-0.217 0.758-0.269 1.152l-0.043-0.005c0.051-0.39 0.124-0.768-0.008-1.153-0.376-1.363 0.136 0.47-0.202-0.674-0.030-0.102-0.067-0.344-0.149-0.436-0.026-0.030-0.065-0.047-0.097-0.071-0.239-0.061-0.423-0.056-0.666-0.082-0.206-0.022-0.371-0.049-0.573-0.099-0.099-0.025-0.196-0.057-0.294-0.085-0.093-0.042-0.191-0.076-0.28-0.127-0.445-0.253-0.732-0.677-0.822-1.177-0.006-0.087-0.022-0.174-0.019-0.261 0.011-0.3 0.133-0.601 0.292-0.851l0.050 0.034z"></path>
<path fill="#677821" d="M14.55 7.399c0.076 0.282 0.193 0.558 0.411 0.76 0.053 0.049 0.114 0.090 0.171 0.135 0.060 0.042 0.118 0.089 0.182 0.127 0.139 0.083 0.27 0.128 0.417 0.193 0.221 0.098 0.441 0.198 0.658 0.304 0.077 0.041 0.16 0.073 0.232 0.123 0.308 0.217 0.606 0.613 0.732 0.967 0.038 0.108 0.054 0.223 0.082 0.334 0.021 0.16 0.076 0.515 0.061 0.679-0.031 0.33-0.223 0.66-0.447 0.898-0.075 0.080-0.167 0.142-0.251 0.213-0.169 0.318-0.078 0.165-0.27 0.461l-0.036-0.023c0.189-0.292 0.1-0.141 0.267-0.454-0.023-0.192-0.036-0.385-0.066-0.575-0.041-0.267-0.072-0.255-0.073-0.521-0-0.084 0.018-0.167 0.019-0.25 0-0.079-0.011-0.158-0.016-0.237-0.058-0.266-0.116-0.568-0.28-0.795-0.081-0.113-0.21-0.186-0.28-0.309-0.374-0.322-0.826-0.544-1.162-0.915-0.238-0.331-0.433-0.689-0.418-1.109l0.069-0.003z"></path>
<path fill="#677821" d="M16.837 11.658c0.36 0.152 0.73 0.287 1.106 0.395 0.29 0.105 0.666 0.19 0.901 0.403 0.099 0.090 0.287 0.378 0.36 0.484 0.064 0.214 0.147 0.453 0.168 0.678 0.012 0.125 0.002 0.251-0.003 0.376-0.015 0.455-0.090 0.759-0.213 1.194-0.192 0.55-0.405 1.112-0.8 1.553-0.277 0.31-0.379 0.343-0.725 0.567-0.239 0.168-0.513 0.28-0.754 0.445-0.22 0.151-0.416 0.332-0.625 0.498l-0.027-0.034c0.021-0.017 0.609-0.482 0.623-0.496 0.206-0.211 0.317-0.437 0.462-0.688 0.122-0.298 0.183-0.459 0.321-0.749 0.218-0.456 0.479-0.892 0.66-1.366 0.185-0.533 0.395-1.099 0.258-1.668-0.012-0.063-0.014-0.129-0.036-0.189-0.019-0.052-0.055-0.096-0.084-0.142-0.161-0.255-0.366-0.38-0.631-0.516-0.35-0.193-0.714-0.355-1.046-0.579l0.084-0.165z"></path>
<path fill="#677821" d="M17.048 17.914c-0.325 0.236-0.616 0.517-0.871 0.827-0.244 0.312-0.531 0.607-0.709 0.965-0.078 0.156-0.136 0.322-0.211 0.48-0.11 0.377-0.18 0.801-0.044 1.183 0.029 0.082 0.075 0.156 0.113 0.234 0.178 0.512 0.62 0.927 0.676 1.483 0.014 0.137-0.016 0.275-0.024 0.413-0.023 0.393-0.207 0.737-0.335 1.1-0.424 1.202 0.233-0.556-0.208 0.61l-0.040-0.015c0.057-0.151 0.178-0.44 0.193-0.604 0.030-0.337-0.12-0.645-0.276-0.93-0.061-0.084-0.13-0.163-0.184-0.252-0.162-0.267-0.265-0.574-0.399-0.855-0.051-0.108-0.113-0.21-0.164-0.318-0.052-0.111-0.096-0.227-0.144-0.34-0.046-0.21-0.122-0.522-0.138-0.737-0.035-0.457 0.106-0.902 0.322-1.3 0.049-0.092 0.089-0.189 0.147-0.276 0.059-0.089 0.133-0.167 0.202-0.248 0.276-0.328 0.563-0.645 0.89-0.923 0.341-0.284 0.677-0.632 1.122-0.741l0.080 0.245zM16.144 24.19c0.053 0.46 0.055 0.926 0.051 1.389-0.022 0.233-0.021 0.412-0.113 0.633-0.020 0.049-0.285 0.482-0.319 0.54-0.085 0.146-0.165 0.294-0.249 0.441l-0.037-0.021c0.1-0.176 0.156-0.245 0.201-0.449 0.065-0.294 0.014-0.267-0.001-0.567-0.008-0.169 0.008-0.426 0.016-0.594 0.017-0.287 0.035-0.573 0.052-0.859 0.005-0.078 0.003-0.156 0.013-0.233 0.007-0.051 0.059-0.26 0.074-0.325l0.31 0.046zM5.335 5.359c0.767 0.835 1.516 1.685 2.254 2.546 0.887 1.125 1.674 2.336 2.35 3.6 0.49 0.917 0.692 1.41 1.122 2.366 0.493 1.047 1.022 2.381 1.479 3.748l0.082 0.284c0.154 0.47 0.311 0.939 0.439 1.416 0.259 0.968 0.407 1.89 0.586 2.874 0.463 4.224-0.126-1.329 0.246 2.762 0.189 1.631 0.111 0.834 0.237 2.391l-0.043 0.003c-0.051-0.634-0.13-1.777-0.237-2.388-0.086-0.49-0.529-2.207-0.647-2.673-0.535-2.144-0.144-0.648-0.75-2.791-0.132-0.469-0.25-0.941-0.391-1.407-0.412-1.366-0.909-2.706-1.411-4.040-0.89-2.103-1.8-4.215-3.171-6.058-0.172-0.236-0.337-0.476-0.515-0.707-0.515-0.666-1.106-1.266-1.662-1.896l0.032-0.029z"></path>
<path fill="#677821" d="M5.114 9.824c0.785 0.499 1.612 0.925 2.438 1.352 0.551 0.275 0.818 0.394 1.346 0.716 0.214 0.13 0.408 0.293 0.628 0.413 0.090 0.049 1.122 0.482 1.244 0.533l-0.017 0.040c-0.199-0.084-0.398-0.167-0.596-0.252-0.217-0.093-0.426-0.204-0.649-0.282-0.238-0.084-0.491-0.12-0.731-0.201-0.595-0.202-0.84-0.353-1.395-0.639-0.574-0.299-1.143-0.598-1.695-0.935-0.125-0.076-0.255-0.147-0.375-0.232-0.162-0.115-0.24-0.205-0.369-0.339l0.171-0.174zM6.333 15.608c0.203 0.037 0.415 0.072 0.613 0.129 0.282 0.080 0.899 0.302 1.148 0.394 0.243 0.090 0.488 0.176 0.727 0.277 0.261 0.11 0.514 0.238 0.772 0.357 0.753 0.438 1.537 0.89 2.105 1.57 0.489 0.585 0.769 1.308 1.040 2.008l0.223 0.557-0.040 0.016-0.221-0.553c-0.12-0.187-0.227-0.383-0.358-0.562-0.364-0.494-0.562-0.652-1.013-1.074-0.606-0.566-1.224-1.12-1.961-1.516-0.549-0.305-0.832-0.481-1.402-0.729-0.55-0.24-1.131-0.4-1.691-0.615l0.060-0.258z"></path>
<path fill="#677821" d="M16.208 14.537c-0.61 0.383-1.034 1.003-1.442 1.582-0.576 0.833-0.972 1.764-1.379 2.685-0.617 1.393-0.055 0.072-0.635 1.455-0.27 0.626-0.347 1.295-0.432 1.963l-0.043-0.005c0.025-0.2 0.044-0.4 0.076-0.599 0.075-0.469 0.197-0.93 0.249-1.404 0.114-0.588 0.176-1.013 0.372-1.584 0.090-0.262 0.205-0.515 0.319-0.767 0.317-0.697 0.696-1.366 1.143-1.987 0.465-0.594 0.971-1.292 1.735-1.507l0.035 0.17zM11.289 6.591c-0.176 1.006-0.228 2.027-0.334 3.042-0.079 0.709-0.072 0.867-0.247 1.561-0.116 0.461-0.307 0.972-0.447 1.427-0.473 1.546 0.101-0.211-0.386 1.255l-0.041-0.014c0.11-0.329 0.314-0.916 0.385-1.251 0.101-0.481 0.12-0.98 0.166-1.467 0.024-0.258 0.050-0.516 0.080-0.774 0.030-0.259 0.065-0.518 0.097-0.777 0.061-0.628 0.079-0.839 0.147-1.456 0.003-0.024 0.117-1.018 0.135-1.108 0.049-0.255 0.098-0.347 0.19-0.564l0.254 0.127zM12.956 9.942c-0.173 0.658-0.44 1.287-0.618 1.943-0.065 0.241-0.116 0.485-0.174 0.727-0.168 0.835-0.42 1.646-0.474 2.501-0.032 0.512 0.003 1.142 0.066 1.652 0.031 0.252 0.083 0.501 0.124 0.752l-0.042 0.007c-0.042-0.252-0.093-0.502-0.125-0.756-0.104-0.843-0.074-1.688-0.038-2.534 0.013-0.291 0.015-0.583 0.047-0.873 0.031-0.276 0.094-0.547 0.141-0.821 0.22-0.919 0.397-1.882 0.891-2.702l0.201 0.103zM13.22 24.155c0.013 0.042 0.032 0.082 0.040 0.125 0.029 0.152 0.034 0.308 0.058 0.46 0.132 0.821-0.023-0.195 0.143 0.74 0.028 0.156 0.047 0.313 0.071 0.47 0.242 0.718 0.257 1.495 0.507 2.209 0.093 0.266 0.308 0.654 0.442 0.907l-0.038 0.020c-0.561-1.066 0.126 0.259-0.444-0.912-0.339-0.698-0.753-1.368-0.831-2.161-0.032-0.162-0.076-0.322-0.097-0.486-0.025-0.201-0.019-0.566-0.011-0.777 0.006-0.155 0.007-0.311 0.027-0.465 0.006-0.043 0.020-0.084 0.031-0.126l0.103-0.006z"></path>
<path fill="#677821" d="M14.060 24.715c-0.283-0.018-0.275 0.206-0.297 0.421 0.027 0.317 0.139 0.602 0.252 0.896 0.056 0.145 0.102 0.294 0.164 0.436 0.11 0.254 0.362 0.724 0.488 0.963 0.39 0.855 0.833 1.693 1.087 2.603 0.047 0.167 0.077 0.338 0.115 0.506-0.006 0.288-0.036 0.737 0.039 1.025 0.039 0.148 0.126 0.279 0.189 0.418l-0.039 0.018c-0.063-0.14-0.111-0.288-0.19-0.42-0.105-0.177-0.523-0.675-0.647-0.826-0.069-0.157-0.145-0.311-0.208-0.471-0.063-0.162-0.113-0.33-0.169-0.495-0.242-0.707-0.458-1.424-0.765-2.106-0.118-0.349-0.232-0.7-0.352-1.049-0.054-0.157-0.121-0.309-0.167-0.468-0.101-0.352-0.169-0.73-0.11-1.094 0.021-0.079 0.028-0.164 0.065-0.237 0.11-0.222 0.339-0.278 0.557-0.219l-0.012 0.1z"></path>
</svg>
