<!-- Generated by IcoMoon.io -->
<svg version="1.1" xmlns="http://www.w3.org/2000/svg" width="30" height="32" viewBox="0 0 30 32">
<title>sause4</title>
<path  d="M25.691 4.277l0.332 0.185-0.108 0.112 1.365 1.884-6.061 6.764-0.445 0.924c-0.157 0.45-0.248 0.969-0.248 1.509 0 0.343 0.037 0.677 0.106 0.998l-0.006-0.031c0.199 0.913 0.174 1.736-0.072 2.477-0.224 0.591-0.617 1.194-1.184 1.811l-9.093 10.202c-0.123 0.245-0.358 0.458-0.7 0.627-0.642 0.347-1.469 0.347-2.479 0-1.405-0.491-2.672-1.307-3.805-2.44-1.281-1.033-2.231-2.202-2.848-3.509-0.465-0.964-0.566-1.787-0.296-2.477l0.556-0.74 9.129-10.201c0.566-0.642 1.133-1.087 1.699-1.332 0.69-0.347 1.516-0.469 2.477-0.369 0.154 0.020 0.333 0.031 0.514 0.031 0.688 0 1.339-0.162 1.915-0.45l-0.025 0.011c0.394-0.174 0.689-0.358 0.888-0.556l6.060-6.764 1.996 1.148 0.112-0.112 0.221 0.296z"></path>
<path  d="M20.222 14.37c-0.25 0.293-1-0.101-2.257-1.184-1.205-1.108-1.689-1.812-1.44-2.108 0.123-0.123 0.394-0.062 0.812 0.184 0.444 0.249 0.924 0.592 1.44 1.036 0.439 0.386 0.828 0.81 1.169 1.271l0.015 0.022c0.296 0.422 0.383 0.678 0.26 0.779z"></path>
<path  d="M16.414 10.266c0.394-0.174 0.689-0.358 0.888-0.556l6.060-6.764 0.481 0.26c-4.238 4.927-6.531 7.505-6.873 7.725-0.444 0.271-0.718 0.419-0.816 0.444-0.27 0.076-0.949 0.098-2.032 0.076-0.765-0.025-1.454 0.098-2.068 0.369-0.419 0.173-0.74 0.383-0.964 0.627l-10.125 11.35-0.371 0.739c-0.149 0.664 0.025 1.466 0.519 2.401l-0.668-1.144c-0.465-0.964-0.566-1.787-0.296-2.477l0.556-0.74 9.129-10.201c0.566-0.642 1.133-1.087 1.699-1.332 0.69-0.347 1.516-0.469 2.477-0.369 0.154 0.020 0.333 0.031 0.514 0.031 0.688 0 1.339-0.162 1.915-0.45l-0.025 0.011z"></path>
<path  d="M11.277 13.298c0.419-0.469 0.996-0.765 1.736-0.888 0.787-0.173 1.43-0.061 1.92 0.333 0.322 0.245 0.31 0.494-0.036 0.739-0.786 0.517-1.332 0.95-1.625 1.293l-10.756 12.013c-0.347-0.296-0.643-0.664-0.888-1.108-0.148-0.271-0.235-0.567-0.261-0.888v-0.405l9.909-11.089z"></path>
<path  d="M22.994 5.018c0.22 0.517 0.602 0.975 1.144 1.369l-4.584 5.136c-0.591-0.444-0.909-0.974-0.96-1.588l4.401-4.917z"></path>
<path  d="M18.594 15.775c0.271-0.322 0.592-0.174 0.96 0.444l0.112 0.293c0.076 0.296 0.087 0.642 0.036 1.036-0.046 0.913-0.43 1.725-1.144 2.44l-9.797 10.941-0.368-0.072c-0.148-0.025-0.322-0.112-0.519-0.26l-0.257-0.184c6.703-7.296 10.263-11.277 10.681-11.941 0.419-0.639 0.519-1.538 0.296-2.696z"></path>
<path  d="M15.601 15.775c-0.117 0.116-0.27 0.195-0.44 0.219l-0.004 0.001c-0.008 0-0.018 0.001-0.027 0.001-0.176 0-0.336-0.070-0.452-0.185l0 0c-0.148-0.098-0.224-0.246-0.224-0.444-0.006-0.030-0.009-0.064-0.009-0.098 0-0.149 0.060-0.283 0.157-0.381l-0 0c0.321-0.322 0.642-0.332 0.96-0.036 0.119 0.115 0.2 0.268 0.223 0.44l0 0.004c0 0.007 0 0.015 0 0.023 0 0.178-0.070 0.339-0.184 0.458l0-0zM16.929 15.146c-0.122 0.148-0.256 0.148-0.404 0-0.127-0.127-0.127-0.249 0-0.371 0.097-0.174 0.22-0.184 0.368-0.036s0.159 0.281 0.036 0.408zM16.266 13.039c-0.123 0.123-0.261 0.137-0.408 0.036-0.123-0.123-0.123-0.26 0-0.408 0.127-0.123 0.249-0.123 0.371 0 0.17 0.101 0.185 0.224 0.037 0.371zM17.522 18.139c-0.123 0.123-0.246 0.123-0.369 0-0.101-0.097-0.101-0.209 0-0.332 0.044-0.047 0.106-0.076 0.175-0.076 0.003 0 0.007 0 0.010 0h-0c0.072 0 0.123 0.025 0.148 0.076 0.123 0.072 0.133 0.184 0.036 0.332zM19.998 19.284c-0.174 0.249-0.358 0.296-0.553 0.148-0.174-0.123-0.148-0.318 0.072-0.589 0.070-0.096 0.174-0.163 0.293-0.187l0.003-0c0.123-0.021 0.21-0.011 0.261 0.040 0.169 0.17 0.148 0.368-0.076 0.589zM2.736 27.748c-0.174 0.224-0.383 0.235-0.628 0.040-0.22-0.224-0.235-0.445-0.036-0.668 0.195-0.195 0.405-0.209 0.628-0.036 0.246 0.246 0.26 0.469 0.036 0.664zM6.804 30.412c-0.101 0.148-0.224 0.148-0.371 0-0.123-0.127-0.138-0.261-0.036-0.408 0.148-0.123 0.282-0.123 0.408 0 0.123 0.123 0.123 0.261 0 0.408z"></path>
<path  d="M18.15 9.306l3.548 1.772c0.42 0.444 0.445 0.924 0.076 1.443l-0.775 1.145c-0.791-0.271-1.541-0.751-2.257-1.441-0.426-0.425-0.775-0.928-1.023-1.485l-0.012-0.031-0.256-0.703 0.7-0.7zM9.537 12.743c0.224-0.297 0.481-0.556 0.776-0.776 0.668 1.7 1.935 3.39 3.808 5.064 2.094 1.92 3.993 3.018 5.692 3.289l-0.739 0.96-8.649 9.648c-1.159 0-1.92-0.050-2.292-0.148-1.108-0.271-2.401-1.011-3.88-2.216-2.069-1.7-3.268-3.675-3.585-5.917l8.868-9.904z"></path>
<path d="M10.608 11.634c0.668 1.65 1.935 3.34 3.809 5.065 2.068 1.848 3.967 2.941 5.692 3.288-0.148 0.271-0.394 0.581-0.74 0.924l-8.797 9.869c-1.873 0-3.894-0.971-6.060-2.92-2.098-1.873-3.278-3.732-3.549-5.581l8.869-9.905 0.775-0.74z"></path>
<path  d="M9.057 13.259h0.444l-0.296 0.852c-0.123 0.369-0.347 0.787-0.664 1.256l0.257-0.112c0.249-0.072 0.519-0.097 0.815-0.072 0.492 0.026 0.874-0.061 1.145-0.26l-0.481 1.48c-0.148 0.368-0.332 0.653-0.555 0.848l0.296-0.185c0.249-0.123 0.483-0.199 0.704-0.22 0.347 0 0.642-0.076 0.887-0.224l-0.184 0.408c-0.126 0.322-0.26 0.567-0.408 0.74l-0.333 0.368c0.369-0.097 0.628-0.184 0.776-0.26 0.148-0.047 0.318-0.061 0.517-0.036l-0.444 1.148c0.098-0.199 0.459-0.311 1.073-0.335 0.689-0.047 1.209-0.159 1.552-0.332l-0.296 1.443-0.184 0.517 0.26-0.148c0.22-0.123 0.505-0.185 0.848-0.185 0.541 0.026 0.924-0.025 1.148-0.148-0.097 0.466-0.224 0.751-0.371 0.848l-0.184 0.188 1.479-0.296v0.332c0 0.271-0.050 0.492-0.148 0.664l-0.26 0.408 0.555-0.149 0.553-0.076-0.036 0.261c-0.011 0.118-0.051 0.225-0.113 0.316l0.001-0.002c0.22-0.216 0.44-0.422 0.667-0.61 0.287-0.202 0.615-0.388 0.96-0.541l0.037-0.015-0.073 0.224-8.429 9.425c-1.873 0-3.894-0.971-6.060-2.92-2.098-1.873-3.278-3.732-3.549-5.581l8.093-9.021z"></path>
<path  d="M21.33 13.111c-0.617-0.148-1.343-0.578-2.18-1.292-0.888-0.812-1.394-1.639-1.516-2.477l4.473-5.028c0.271 0.667 0.826 1.382 1.664 2.144 0.837 0.765 1.599 1.22 2.292 1.368l-4.732 5.285z"></path>
<path  d="M24.583 3.87l2.735 2.588-1.148 1.256c-0.639-0.271-1.404-0.837-2.292-1.7-0.566-0.542-0.946-1.046-1.144-1.516l-0.113-0.517 0.592-0.7 1.369 0.589z"></path>
<path  d="M28.058 6.978c-0.224 0.246-0.667 0.246-1.332 0-0.664-0.274-1.357-0.729-2.072-1.368-0.715-0.642-1.231-1.282-1.552-1.924-0.343-0.614-0.405-1.058-0.184-1.329 0.245-0.249 0.703-0.235 1.368 0.036 0.643 0.246 1.318 0.689 2.032 1.329 0.715 0.642 1.246 1.282 1.592 1.924 0.343 0.639 0.394 1.083 0.148 1.332z"></path>
<path  d="M23.214 3.281c0.051 0.394 0.138 0.725 0.26 0.996-0.689-0.934-0.877-1.577-0.555-1.92 0.199-0.199 0.566-0.224 1.108-0.076-0.566 0.051-0.837 0.383-0.812 1z"></path>
<path  d="M23.842 3.205c0.765 0.715 1.087 1.231 0.96 1.552-0.123 0.322-0.419 0.199-0.884-0.368-0.347-0.445-0.494-0.802-0.445-1.073 0.047-0.245 0.17-0.285 0.369-0.112z"></path>
<path  d="M22.882 6.718c0.494 0.343 0.663 0.899 0.516 1.664-0.14 0.637-0.41 1.195-0.783 1.669l0.007-0.009c-0.566 0.74-1.118 1.209-1.663 1.407-0.715 0.271-1.354 0.072-1.92-0.591-0.42-0.52-0.578-1.037-0.481-1.552 0.098-0.444 0.43-0.964 0.996-1.552 1.282-1.332 2.39-1.678 3.329-1.036z"></path>
<path  d="M8.021 20.543c-0.986 0.047-1.723 0.43-2.217 1.144-0.419 0.541-0.703 1.047-0.848 1.516-0.249-0.076-0.383-0.347-0.408-0.812-0.025-0.322-0.015-0.556 0.036-0.704l0.26-0.591-0.332 0.148c-0.25 0.148-0.408 0.296-0.481 0.444-0.312 0.432-0.554 0.938-0.696 1.485l-0.007 0.031c-0.149 0.541-0.138 0.985 0.036 1.332-0.466-0.494-0.567-1.159-0.297-1.996 0.322-1.133 0.914-1.848 1.776-2.144 0.466-0.148 0.74-0.335 0.812-0.556l0.036 0.333c0 0.18-0.025 0.347-0.072 0.498 0.437-0.585 0.943-0.96 1.516-1.126 0.466-0.148 1.072-0.184 1.808-0.112 0.617 0.076 1.036 0.015 1.26-0.184 0.271-0.221 0.455-0.43 0.553-0.628l0.076-0.22v1.144c-0.1 0.941-0.404 1.794-0.867 2.538l0.015-0.025c-0.46 0.754-1.083 1.366-1.824 1.799l-0.024 0.013c-0.369 0.224-0.7 0.371-0.996 0.444l1.552 0.296c0.444 0.026 0.751-0.133 0.924-0.48l-0.296 0.848c-0.271 0.617-0.602 1.072-1 1.368-0.566 0.419-1.231 0.607-1.996 0.556l-0.996-0.224c0.296 0.050 0.812-0.047 1.552-0.293 0.74-0.274 1.185-0.591 1.333-0.964-0.278-0.207-0.628-0.332-1.007-0.332-0.010 0-0.020 0-0.030 0l0.002-0c-0.303-0.043-0.577-0.12-0.834-0.228l0.022 0.008-0.372-0.188c0.347-0.17 0.95-0.664 1.812-1.477s1.405-1.649 1.628-2.513c-0.371-0.127-0.837-0.173-1.407-0.148z"></path>
<path  d="M14.565 24.828c-0.174 0.224-0.383 0.357-0.628 0.408s-0.433 0.015-0.556-0.112c-0.148-0.123-0.209-0.307-0.184-0.553 0.033-0.264 0.154-0.495 0.332-0.667l0-0c0.198-0.195 0.408-0.333 0.627-0.405 0.224-0.050 0.408-0.014 0.556 0.112 0.148 0.123 0.209 0.307 0.184 0.553s-0.133 0.469-0.332 0.664z"></path>
<path d="M16.486 23.72c-0.246 0.27-0.441 0.357-0.589 0.26-0.127-0.123-0.061-0.322 0.184-0.592s0.43-0.347 0.553-0.22c0.127 0.097 0.076 0.282-0.148 0.553z"></path>
<path  d="M11.089 27.936c-0.126 0.157-0.306 0.265-0.512 0.295l-0.004 0.001c-0.198 0.022-0.357-0.025-0.48-0.148-0.114-0.118-0.184-0.28-0.184-0.458 0-0.009 0-0.018 0.001-0.027l-0 0.001c0-0.195 0.072-0.369 0.22-0.517 0.148-0.173 0.322-0.271 0.517-0.296 0.198-0.051 0.357-0.011 0.483 0.112 0.318 0.322 0.307 0.664-0.040 1.036z"></path>
<path  d="M12.642 27.788c-0.271 0.271-0.492 0.332-0.664 0.184-0.174-0.173-0.138-0.394 0.112-0.664 0.271-0.296 0.491-0.357 0.664-0.188 0.199 0.148 0.163 0.372-0.112 0.668z"></path>
<path  d="M12.717 22.832c-0.118 0.142-0.286 0.237-0.477 0.259l-0.003 0c-0.008 0-0.018 0.001-0.027 0.001-0.176 0-0.336-0.070-0.452-0.185l0 0c-0.127-0.098-0.188-0.246-0.188-0.445s0.061-0.368 0.188-0.516c0.296-0.297 0.614-0.322 0.96-0.076 0.296 0.296 0.296 0.616 0 0.96z"></path>
<path  d="M7.8 17.511c-0.321 0.321-0.578 0.383-0.775 0.184s-0.174-0.469 0.072-0.812c0.321-0.296 0.581-0.347 0.776-0.148 0.126 0.072 0.173 0.184 0.148 0.332-0.022 0.176-0.103 0.329-0.221 0.444l-0 0z"></path>
<path  d="M5.545 18.471c-0.17 0.199-0.332 0.245-0.481 0.148-0.122-0.123-0.097-0.282 0.076-0.481 0.221-0.198 0.383-0.245 0.481-0.148 0.123 0.123 0.098 0.282-0.076 0.481z"></path>
<path  d="M8.245 15.146c-0.148 0.148-0.26 0.184-0.333 0.108-0.101-0.097-0.076-0.22 0.073-0.368 0.122-0.123 0.235-0.163 0.332-0.112 0.076 0.076 0.051 0.199-0.072 0.371z"></path>
<path  d="M2.96 20.984c-0.199 0.224-0.358 0.274-0.483 0.148-0.098-0.098-0.047-0.257 0.148-0.481 0.199-0.22 0.347-0.281 0.444-0.184 0.123 0.123 0.087 0.296-0.108 0.517z"></path>
<path  d="M10.905 29.968c-0.322 0.322-0.566 0.394-0.74 0.221-0.195-0.195-0.148-0.445 0.148-0.74 0.271-0.318 0.52-0.394 0.74-0.221 0.173 0.174 0.123 0.42-0.148 0.74z"></path>
<path  d="M24.286 2.69l1.588-2.588 4.216 3.732-2.551 2.032c-0.541-0.025-1.221-0.419-2.032-1.18-0.664-0.642-1.073-1.159-1.221-1.552v-0.444z"></path>
<path  d="M29.794 2.946c0.296 0.469 0.383 0.791 0.257 0.964-0.145 0.148-0.481 0.097-0.997-0.148-0.516-0.274-1.072-0.668-1.663-1.184-0.592-0.542-1.036-1.047-1.329-1.516-0.322-0.491-0.408-0.812-0.26-0.96 0.123-0.174 0.444-0.123 0.96 0.148 0.517 0.246 1.072 0.639 1.664 1.184 0.591 0.517 1.047 1.022 1.368 1.513z"></path>
</svg>
