<!-- Generated by IcoMoon.io -->
<svg version="1.1" xmlns="http://www.w3.org/2000/svg" width="13" height="32" viewBox="0 0 13 32">
<title>sause2</title>
<path fill="#000" d="M11.829 11.495c0.731 0.534 1.1 1.010 1.1 1.425 0 0.557 0.149 4.806 0.444 12.75 0 0.574-0.108 1.349-0.325 2.319-0.238 1.129-0.525 1.929-0.862 2.406-0.238 0.299-0.894 0.627-1.961 0.981-1.251 0.418-2.467 0.624-3.657 0.624-1.149-0.020-2.316-0.227-3.506-0.624-1.030-0.357-1.654-0.682-1.871-0.981-0.337-0.455-0.636-1.257-0.892-2.406-0.2-0.952-0.299-1.724-0.299-2.319 0.279-7.944 0.418-12.196 0.418-12.75 0-0.415 0.366-0.891 1.097-1.425 0.694-0.496 1.408-0.841 2.142-1.042 0.475-0.116 0.842-0.186 1.1-0.206 0.058 0 0.703 0.008 1.93 0.029 1.227-0.021 1.872-0.029 1.933-0.029 0.258 0.020 0.612 0.087 1.068 0.206 0.734 0.18 1.448 0.525 2.142 1.042z"></path>
<path fill="#80d967" d="M3.657 10.454c0.418-0.107 0.816-0.171 1.187-0.192-0.351 0.031-0.675 0.099-0.983 0.2l0.030-0.009c-0.693 0.18-1.355 0.525-1.99 1.042-0.694 0.534-1.039 1.010-1.039 1.425 0 0.557-0.128 4.806-0.386 12.75 0 0.594 0.098 1.366 0.296 2.319 0.218 1.149 0.487 1.95 0.804 2.406 0.218 0.299 0.801 0.627 1.753 0.981 0.707 0.266 1.531 0.47 2.386 0.575l0.053 0.005c-0.892-0.081-1.791-0.276-2.705-0.58-1.030-0.357-1.654-0.682-1.871-0.981-0.34-0.455-0.636-1.257-0.895-2.406-0.197-0.952-0.296-1.724-0.296-2.319 0.276-7.944 0.415-12.196 0.415-12.75 0-0.415 0.368-0.891 1.1-1.425 0.694-0.496 1.408-0.841 2.142-1.042zM12.482 12.92c0-0.415-0.337-0.891-1.010-1.425-0.655-0.496-1.317-0.841-1.99-1.042-0.278-0.093-0.601-0.161-0.936-0.191l-0.016-0.001c0.424 0.027 0.819 0.095 1.199 0.201l-0.041-0.010c0.734 0.18 1.448 0.525 2.139 1.042 0.734 0.534 1.1 1.010 1.1 1.425 0 0.557 0.152 4.806 0.447 12.75 0 0.574-0.11 1.349-0.328 2.319-0.239 1.129-0.525 1.929-0.863 2.406-0.238 0.299-0.879 0.627-1.929 0.981-0.673 0.233-1.462 0.416-2.278 0.514l-0.056 0.005c0.691-0.098 1.39-0.27 2.095-0.519 0.97-0.357 1.565-0.682 1.782-0.981 0.316-0.473 0.586-1.277 0.804-2.406 0.198-0.97 0.296-1.744 0.296-2.317-0.276-7.946-0.415-12.195-0.415-12.752z"></path>
<path fill="#000" d="M4.667 11.257c0.554 0.177 0.743 0.386 0.563 0.624-0.276 0.377 0.624 0.813 2.705 1.309l-1.396 0.058c-0.993 0.061-1.547 0.099-1.666 0.119-0.374 0.058-0.473 0.16-0.296 0.296 0.279 0.218 1.507 0.467 3.686 0.743h-1.309c-1.822 0-3.378-0.276-4.667-0.83-0.731-0.299-1.030-0.595-0.891-0.894 0.337-0.316 0.554-0.563 0.653-0.743 0.139-0.198 0.467-0.403 0.981-0.624 0.259-0.099 0.505-0.186 0.743-0.267l0.894 0.209z"></path>
<path fill="#000" d="M4.281 30.693c1.166 0.415 2.525 0.543 4.068 0.386-0.711 0.357-1.782 0.444-3.207 0.267-1.21-0.16-2.031-0.377-2.467-0.653-0.357-0.238-0.389-0.369-0.091-0.386 0.317-0.041 0.883 0.087 1.695 0.386z"></path>
<path fill="#000" d="M10.817 15.12c0.673-0.177 1.198-0.366 1.576-0.563l0.594 10.608-0.833 0.923c-1.010 0.633-2.643 1.010-4.901 1.129l-0.239 0.029-0.386-0.029-0.418 0.029-0.238-0.029c-2.258-0.12-3.883-0.496-4.873-1.129l-0.833-0.923 0.566-10.608 1.573 0.563c1.257 0.382 2.705 0.618 4.204 0.653l0.019 0c1.445-0.038 2.841-0.256 4.188-0.653z"></path>
<path fill="#000" d="M11.321 11.939c0.119 0.18 0.337 0.426 0.656 0.743 0.137 0.299-0.16 0.595-0.891 0.894-0.476 0.198-0.874 0.337-1.19 0.415 0.18-0.496 0.18-1.010 0-1.544-0.18-0.557-0.496-0.973-0.952-1.251l0.685-0.148 0.711 0.267c0.516 0.221 0.845 0.426 0.981 0.624z"></path>
<path fill="#000" d="M1.010 26.86c0.061-0.119 0.169-0.131 0.328-0.029 0.384 0.23 0.827 0.431 1.293 0.58l0.045 0.012c0.905 0.3 1.947 0.474 3.029 0.476h0.001c-0.625 0.049-1.065 0.091-1.503 0.139l0.226-0.020c-0.694 0.098-1.091 0.247-1.19 0.447-0.197 0.357-0.127 0.772 0.209 1.248 0.141 0.216 0.277 0.4 0.423 0.577l-0.009-0.011c-0.632-0.16-1.218-0.34-1.753-0.537l-0.624-0.267-0.177-0.476c-0.357-1.129-0.458-1.843-0.299-2.139z"></path>
<path fill="#000" d="M12.572 26.293h0.325c0 0.656-0.177 1.318-0.533 1.991-0.357 0.574-0.604 0.944-0.743 1.103l-0.476 0.505c-0.047 0.046-0.090 0.094-0.131 0.145l-0.003 0.003c0.035-0.113 0.058-0.241 0.073-0.386 0-0.415 0.012-0.714 0.032-0.891l0.029-0.714c0-0.198-0.020-0.317-0.061-0.357-0.038-0.061-0.148-0.099-0.325-0.119-0.516 0.041-0.894 0.029-1.129-0.029 0.157-0.099 0.386-0.209 0.682-0.328l1.399-0.505c0.415-0.119 0.702-0.259 0.862-0.418z"></path>
<path fill="#000" d="M7.996 20.588l0.267 1.903c0.198 1.326 0.345 2.139 0.444 2.438l0.418 1.216c-0.061 0.259-0.734 0.386-2.020 0.386h-0.119c-0.812 0-1.387-0.058-1.724-0.178l-0.299-0.209 0.415-1.218c0.102-0.296 0.25-1.109 0.447-2.438l0.267-1.9 0.952 0.743 0.952-0.743z"></path>
<path fill="#000" d="M7.014 19.192v-0.090l0.029 0.061 0.030-0.061v0.090c1.366 1.822 2.446 2.972 3.239 3.447l1.457 0.863c-1.227 0.238-2.101 0.276-2.615 0.119l-0.804-0.238-0.119 0.595c-0.116 0.455-0.276 0.801-0.473 1.039-0.238 0.279-0.467 0.476-0.684 0.594v0.059l-0.030-0.030-0.029 0.030v-0.059c-0.218-0.119-0.447-0.316-0.684-0.594-0.198-0.238-0.357-0.584-0.476-1.039l-0.119-0.595-0.801 0.238c-0.316 0.099-0.854 0.107-1.606 0.029l-1.010-0.148 1.454-0.863c0.595-0.357 1.268-0.972 2.023-1.843 0.218-0.279 0.624-0.813 1.218-1.605z"></path>
<path fill="#000" d="M6.034 18.777c0.154-0.207 0.477-0.682 0.795-1.161l0.185-0.296v-0.090l0.029 0.029 0.030-0.029v0.090c0.098 0.16 0.426 0.644 0.981 1.454 0.595 0.833 1.12 1.408 1.576 1.724l1.158 0.804c-0.973 0.218-1.666 0.258-2.081 0.119l-0.624-0.209-0.087 0.536c-0.102 0.415-0.23 0.732-0.389 0.952-0.218 0.276-0.394 0.464-0.533 0.563v0.029h-0.059v-0.029c-0.139-0.099-0.319-0.287-0.536-0.563-0.157-0.22-0.288-0.536-0.386-0.952l-0.090-0.536-0.624 0.209c-0.415 0.139-1.109 0.099-2.078-0.119l1.158-0.802c0.455-0.319 0.981-0.894 1.576-1.724z"></path>
<path fill="#000" d="M4.4 19.25l-0.714-0.087 1.010-0.595c0.613-0.357 1.388-1.158 2.319-2.406v-0.032l0.029 0.032 0.030-0.032v0.032c0.931 1.247 1.703 2.048 2.319 2.406l1.010 0.595c-0.871 0.157-1.495 0.177-1.872 0.058l-0.533-0.148-0.090 0.415c-0.082 0.299-0.198 0.537-0.357 0.714l-0.476 0.418v0.029l-0.030-0.029-0.029 0.029v-0.029l-0.476-0.418c-0.14-0.177-0.259-0.415-0.357-0.714l-0.090-0.415-0.534 0.148c-0.238 0.078-0.623 0.090-1.158 0.029z"></path>
<path fill="#000" d="M10.074 9.534c0.061 0.316 0.119 0.673 0.18 1.071 0.038 0.276 0.029 0.485-0.029 0.624-0.377 0.694-1.408 1.079-3.091 1.158l-0.239 0.029h-0.418l-0.239-0.029c-1.683-0.079-2.713-0.464-3.091-1.158-0.078-0.139-0.099-0.348-0.058-0.624 0.099-0.397 0.169-0.754 0.209-1.071 0.079-0.397 0.12-1.002 0.12-1.814-0.013-0.401-0.024-0.941-0.031-1.482l-0.001-0.062c0-0.279 0.287-0.516 0.862-0.714 0.595-0.218 1.317-0.328 2.171-0.328l0.267 0.061 0.267-0.061c0.854 0 1.576 0.11 2.168 0.328 0.578 0.198 0.863 0.435 0.863 0.714 0 0.198-0.009 0.711-0.030 1.544 0 0.813 0.041 1.417 0.12 1.814z"></path>
<path fill="#000" d="M6.33 9.058c-0.079 0.198-0.259 0.328-0.534 0.386-0.218 0.061-0.386 0.316-0.505 0.775-0.139 0.455-0.168 0.859-0.090 1.215 0.078 0.435 0.603 0.674 1.576 0.714l-0.714 0.090c-0.377 0.041-0.821-0.020-1.338-0.18-0.533-0.157-0.87-0.337-1.010-0.534-0.119-0.136-0.148-0.328-0.090-0.562 0.081-0.299 0.131-0.546 0.148-0.743l0.151-1.338 2.406 0.177z"></path>
<path fill="#000" d="M9.687 8.494l0.029 1.129c0.041 0.177 0.111 0.444 0.209 0.801 0.082 0.316 0.082 0.537 0 0.656-0.119 0.197-0.357 0.366-0.711 0.504 0.099-0.337 0.099-0.705 0-1.1-0.061-0.435-0.119-0.755-0.18-0.952-0.099-0.357-0.276-0.546-0.534-0.566l1.187-0.473z"></path>
<path fill="#a88b56" d="M3.030 0.56c0.714-0.238 1.658-0.409 2.824-0.508 1.349-0.119 2.585-0.038 3.715 0.238 0.574 0.16 1.010 0.319 1.309 0.476l-0.505 5.618c-0.081 0.178-0.299 0.354-0.656 0.534-0.711 0.337-1.721 0.493-3.030 0.476-1.367-0.020-2.398-0.209-3.091-0.566l-0.624-0.534c-0.119-1.625-0.23-2.664-0.328-3.12l-0.296-2.29 0.682-0.325z"></path>
<path fill="#cca869" d="M3.596 2.818c-0.317-0.099-0.673-0.267-1.071-0.505l-0.177-1.428c0.119 0 0.247 0.061 0.386 0.18 0.16 0.119 0.415 0.207 0.772 0.267 0.2 0.058 0.467 0.148 0.804 0.267l0.801 0.148c0.238 0.061 0.537 0.090 0.891 0.090 0.201 0 0.496-0.011 0.894-0.032h1.010c0.058-0.017 0.119-0.058 0.177-0.119 0.020-0.078 0.041-0.136 0.061-0.177 0.020-0.058 0.070-0.090 0.148-0.090 0.021 0.198 0.099 0.337 0.238 0.418 0.038 0.018 0.189 0.059 0.444 0.12 0.16 0.037 0.238 0.136 0.238 0.296s-0.098 0.288-0.296 0.386c-0.061 0.040-0.23 0.098-0.505 0.18-0.533 0.157-1.329 0.235-2.377 0.235-1.169 0.003-1.982-0.078-2.438-0.235z"></path>
<path fill="#000" d="M5.648 0.41c0.119 0 0.177 0.040 0.177 0.119 0 0.081-0.041 0.148-0.119 0.209-0.058 0.038-0.227 0.058-0.505 0.058h-1.1c-0.021-0.256 0.366-0.386 1.158-0.386h0.389z"></path>
<path fill="#000" d="M5.796 1.184c-0.061-0.139 0.020-0.22 0.238-0.238 0.119 0 0.276 0.009 0.476 0.029l0.444 0.058c-0.061 0.12-0.139 0.189-0.238 0.21h-0.325l-0.595-0.059z"></path>
<path fill="#000" d="M7.253 0.351h0.148c0.001 0 0.002 0 0.002 0 0.080 0 0.153 0.035 0.203 0.090l0 0c-0.058 0.009-0.125 0.013-0.193 0.013s-0.135-0.005-0.2-0.014l0.007 0.001 0.032-0.090z"></path>
<path fill="#000" d="M9.034 0.38c-0.058-0.017-0.102-0.061-0.119-0.118l-0-0.001c-0.020-0.040-0.009-0.069 0.029-0.090 0.238 0.041 0.644 0.14 1.219 0.299h-0.119c-0.575 0-0.912-0.030-1.010-0.091z"></path>
<path fill="#000" d="M10.015 0.795c-0.040-0.038-0.049-0.078-0.029-0.119h0.563c-0.058 0.139-0.238 0.18-0.534 0.119z"></path>
<path fill="#a68e54" d="M2.644 3.175l-0.296-2.29 0.801 0.595c0.775 0.377 1.785 0.566 3.033 0.566h2.972c-0.119-0.082-0.218-0.169-0.296-0.27-0.201-0.197-0.25-0.337-0.151-0.415 0.081-0.079 0.319-0.079 0.714 0 0.197 0.040 0.386 0.090 0.565 0.148 0.415-0.119 0.711-0.366 0.892-0.743l-0.505 5.618c-0.081 0.178-0.299 0.354-0.656 0.534-0.711 0.337-1.721 0.493-3.030 0.476-1.367-0.020-2.398-0.209-3.091-0.566l-0.624-0.534c-0.119-1.625-0.227-2.664-0.328-3.12z"></path>
<path fill="#8c7347" d="M6.805 6.028l-0.177-0.18c-0.18 0.258-0.201 0.435-0.061 0.536 0.16 0.12 0.308 0.050 0.447-0.209-0.020-0.061-0.090-0.11-0.209-0.148zM7.816 4.69l-0.12-0.119c-0.037 0.058-0.058 0.227-0.058 0.505h0.267c0.037-0.239 0.008-0.366-0.090-0.386zM7.845 2.699h-0.149c-0.177 0.020-0.247 0.168-0.209 0.444 0.041 0.259 0.148 0.406 0.328 0.447 0.159 0.020 0.247-0.070 0.267-0.267 0.020-0.299-0.058-0.504-0.238-0.623zM5.201 2.342c-0.14-0.061-0.328-0.18-0.566-0.357l-0.087-0.090c0.477 0.096 1.024 0.151 1.585 0.151 0.017 0 0.034-0 0.051-0h2.879c0.032 0.107 0.108 0.191 0.206 0.234l0.002 0.001c0.061 0.099 0.169 0.148 0.328 0.148 0.157-0.017 0.259-0.107 0.296-0.267 0.021-0.058 0.032-0.218 0.032-0.473v-0.18h0.117c0 0.516-0.088 0.824-0.267 0.923-0.139 0.079-0.345 0.108-0.624 0.087-0.296-0.037-0.435-0.136-0.415-0.296-0.357-0.099-0.636-0.14-0.833-0.119l-1.158-0.029c0.731 0.136 1.256 0.296 1.573 0.475l0.386 0.415c0.18 0.139 0.287 0.218 0.328 0.238 0.075 0.099 0.12 0.224 0.12 0.359 0 0.010-0 0.019-0.001 0.029l0-0.001c0 0.119-0.11 0.296-0.328 0.534-0.198 0.197-0.288 0.366-0.267 0.504 0 0.021 0.020 0.061 0.061 0.119 0.024 0.025 0.039 0.059 0.039 0.097 0 0.019-0.004 0.036-0.010 0.053l0-0.001c0 0.119-0.070 0.25-0.21 0.386l-0.177 0.299c-0.020 0.079 0 0.189 0.058 0.328 0 0.218-0.078 0.345-0.238 0.386-0.099 0.038-0.215 0.029-0.354-0.032-0.084-0.044-0.183-0.084-0.286-0.116l-0.012-0.003c-0.038 0.061-0.119 0.131-0.238 0.21l-0.149 0.061-0.119 0.119c-0.258 0.020-0.444 0.049-0.563 0.087-0.217 0.16-0.406 0.238-0.565 0.238-0.178 0.021-0.575-0.049-1.187-0.206-0.102-0.020-0.16-0.032-0.18-0.032-0.034-0.043-0.064-0.091-0.088-0.143l-0.002-0.005c-0.019-0.102-0.060-0.193-0.12-0.269l0.001 0.001c-0.137-0.048-0.255-0.119-0.355-0.21l0.001 0.001c-0.2 0.14-0.438 0.119-0.714-0.058l-0.238-0.238-0.061-0.863 0.209 0.328c0.16 0.197 0.337 0.267 0.534 0.206 0.102-0.099 0.189-0.177 0.27-0.238 0.198 0.337 0.473 0.545 0.83 0.627 0.102 0.037 0.267 0.066 0.505 0.087 0.18 0.041 0.27 0.139 0.27 0.296 0.178 0 0.305-0.017 0.386-0.058 0.038-0.197 0.099-0.328 0.177-0.386 0.119 0.159 0.299 0.168 0.534 0.029 0.041-0.296 0.168-0.476 0.389-0.534 0.079-0.020 0.169-0.041 0.267-0.061 0.078-0.038 0.136-0.116 0.177-0.236 0.024-0.081 0.038-0.173 0.038-0.269 0-0.127-0.025-0.249-0.070-0.361l0.002 0.006c-0.042-0.102-0.115-0.184-0.206-0.237l-0.002-0.001c-0.099-0.081-0.169-0.049-0.21 0.088-0.177-0.018-0.316-0.157-0.415-0.415l-0.239-0.595c-0.258-0.337-0.623-0.595-1.1-0.772z"></path>
<path fill="#615031" d="M9.925 1.689c0 0.256-0.008 0.415-0.029 0.473-0.040 0.16-0.139 0.25-0.299 0.267-0.157 0-0.267-0.049-0.325-0.148 0.178 0.081 0.325 0.041 0.444-0.119 0.067-0.077 0.108-0.178 0.108-0.289 0-0.045-0.007-0.088-0.019-0.129l0.001 0.003c0-0.099-0.020-0.168-0.061-0.209l-0.206-0.087c-0.108-0.038-0.207-0.067-0.299-0.090 0.186 0.032 0.412 0.081 0.684 0.148v0.18z"></path>
<path fill="#735e39" d="M8.973 4.155c-0.136 0.038-0.215 0.157-0.235 0.354 0 0.201 0.069 0.308 0.206 0.328 0.201 0.061 0.328 0 0.389-0.177 0.038-0.16 0.018-0.328-0.061-0.505h-0.299zM9.777 2.432c0.177-0.099 0.267-0.406 0.267-0.923l0.119-0.058 0.119 0.476c0.020 0.099-0.021 0.305-0.119 0.624-0.041 0.178-0.061 0.456-0.061 0.831 0 0.217-0.099 0.426-0.296 0.623-0.078 0.14-0.090 0.386-0.029 0.743 0.021 0.14 0.058 0.337 0.119 0.595-0.061 0.337-0.16 0.566-0.299 0.685-0.077 0.044-0.167 0.075-0.263 0.087l-0.004 0c-0.098 0.040-0.168 0.13-0.177 0.237l-0 0.001c-0.2 0-0.418 0.078-0.655 0.238-0.316 0.218-0.505 0.337-0.563 0.357-0.18 0.079-0.427 0.119-0.743 0.119-0.357-0.020-0.615-0.032-0.775-0.032-0.534 0-0.929-0.017-1.187-0.058-0.238 0-0.426-0.020-0.566-0.061l-0.621-0.264-0.565-0.119c-0.198-0.119-0.366-0.198-0.505-0.239l-0.058-0.594 0.235 0.238c0.279 0.177 0.517 0.198 0.714 0.058 0.079 0.081 0.198 0.151 0.357 0.209 0.057 0.075 0.098 0.165 0.118 0.263l0.001 0.004c0.026 0.058 0.056 0.107 0.091 0.152l-0.001-0.002c0.020 0 0.078 0.009 0.177 0.029 0.615 0.16 1.010 0.227 1.19 0.209 0.157 0 0.345-0.081 0.563-0.238 0.119-0.041 0.308-0.070 0.565-0.090l0.119-0.119 0.149-0.059c0.119-0.081 0.197-0.148 0.238-0.209 0.114 0.035 0.212 0.075 0.305 0.123l-0.010-0.005c0.14 0.058 0.259 0.070 0.357 0.029 0.16-0.037 0.238-0.168 0.238-0.386-0.061-0.14-0.078-0.247-0.061-0.328l0.18-0.296c0.14-0.139 0.21-0.267 0.21-0.386 0.017-0.061 0.008-0.11-0.032-0.148-0.038-0.061-0.058-0.099-0.058-0.119-0.021-0.139 0.069-0.308 0.267-0.505 0.218-0.238 0.328-0.418 0.328-0.536 0-0.008 0.001-0.016 0.001-0.025 0-0.136-0.045-0.262-0.121-0.363l0.001 0.002c-0.041-0.017-0.148-0.099-0.328-0.235l-0.386-0.418c-0.316-0.18-0.842-0.337-1.576-0.475l1.161 0.029c0.197-0.021 0.475 0.020 0.833 0.119-0.021 0.16 0.116 0.259 0.415 0.296 0.276 0.021 0.485-0.008 0.624-0.087z"></path>
<path fill="#4d4027" d="M10.878 0.766l-0.299 2.438c-0.157 0-0.218 0.137-0.177 0.415 0 0.16 0.041 0.258 0.119 0.296l-0.148 2.467c-0.081 0.18-0.299 0.357-0.656 0.536-0.711 0.337-1.721 0.493-3.030 0.476-1.288-0.020-2.278-0.189-2.972-0.508-0.418-0.197-0.665-0.394-0.743-0.595 0.14 0.041 0.308 0.12 0.505 0.239l0.563 0.119 0.623 0.267c0.14 0.041 0.328 0.061 0.566 0.061 0.259 0.038 0.653 0.058 1.19 0.058 0.157 0 0.415 0.012 0.772 0.032 0.316 0 0.563-0.040 0.743-0.119 0.061-0.020 0.247-0.139 0.563-0.357 0.238-0.16 0.458-0.238 0.655-0.238 0.021-0.12 0.079-0.198 0.178-0.239 0.119-0.020 0.209-0.049 0.267-0.087 0.139-0.119 0.238-0.348 0.299-0.685-0.061-0.259-0.098-0.455-0.119-0.595-0.061-0.357-0.049-0.603 0.029-0.743 0.198-0.197 0.299-0.406 0.299-0.623 0-0.377 0.017-0.653 0.058-0.831 0.098-0.319 0.139-0.525 0.119-0.624l-0.119-0.476c0.357-0.198 0.594-0.426 0.714-0.685z"></path>
<path fill="#000" d="M3.715 3.68c-0.296 0.038-0.484-0.169-0.566-0.624-0.017-0.201 0-0.369 0.061-0.508 0.058-0.157 0.16-0.247 0.296-0.267 0.139-0.020 0.267 0.032 0.386 0.148 0.119 0.119 0.189 0.279 0.21 0.476 0.061 0.438-0.070 0.693-0.386 0.775z"></path>
<path fill="#000" d="M5.825 4.661c-0.476 0.198-0.842 0.050-1.1-0.447-0.276-0.496-0.189-0.863 0.267-1.1h0.238c0.259 0 0.435 0.020 0.537 0.061 0.157 0.079 0.255 0.227 0.296 0.444 0.041 0.2 0.050 0.397 0.029 0.595-0.040 0.238-0.128 0.386-0.267 0.447z"></path>
<path fill="#000" d="M3.834 4.629c-0.025-0.063-0.040-0.135-0.040-0.212 0-0.040 0.004-0.079 0.012-0.117l-0.001 0.004c0.018-0.16 0.079-0.239 0.177-0.239l0.299 0.061c0.157 0.059 0.206 0.296 0.148 0.711-0.337 0.041-0.537-0.029-0.595-0.209z"></path>
<path fill="#000" d="M2.795 4.304c0.197-0.061 0.276 0.069 0.235 0.386l-0.206 0.058-0.029-0.444z"></path>
<path fill="#705c39" d="M7.816 3.59c-0.178-0.041-0.288-0.189-0.328-0.447-0.038-0.276 0.032-0.423 0.209-0.444h0.151c0.178 0.119 0.256 0.325 0.236 0.623-0.018 0.198-0.108 0.288-0.267 0.267z"></path>
<path fill="#000" d="M7.816 3.59c-0.178-0.041-0.288-0.189-0.328-0.447-0.038-0.276 0.032-0.423 0.209-0.444h0.151c0.178 0.119 0.256 0.325 0.236 0.623-0.018 0.198-0.108 0.288-0.267 0.267z"></path>
<path fill="#705c39" d="M7.816 4.69c0.098 0.021 0.13 0.148 0.090 0.386h-0.267c0-0.279 0.018-0.447 0.058-0.505l0.12 0.119z"></path>
<path fill="#000" d="M7.816 4.69c0.098 0.021 0.13 0.148 0.090 0.386h-0.267c0-0.279 0.018-0.447 0.058-0.505l0.12 0.119z"></path>
<path fill="#705c39" d="M6.805 6.028c0.119 0.038 0.189 0.087 0.209 0.148-0.139 0.259-0.287 0.328-0.447 0.209-0.14-0.101-0.119-0.279 0.061-0.536l0.177 0.18z"></path>
<path fill="#000" d="M6.805 6.028c0.119 0.038 0.189 0.087 0.209 0.148-0.139 0.259-0.287 0.328-0.447 0.209-0.14-0.101-0.119-0.279 0.061-0.536l0.177 0.18z"></path>
<path fill="#615031" d="M8.973 4.155h0.299c0.079 0.178 0.099 0.345 0.061 0.505-0.061 0.177-0.188 0.238-0.389 0.177-0.137-0.020-0.206-0.127-0.206-0.328 0.020-0.198 0.099-0.316 0.235-0.354z"></path>
<path fill="#000" d="M8.973 4.155h0.299c0.079 0.178 0.099 0.345 0.061 0.505-0.061 0.177-0.188 0.238-0.389 0.177-0.137-0.020-0.206-0.127-0.206-0.328 0.020-0.198 0.099-0.316 0.235-0.354z"></path>
<path fill="#4d4027" d="M10.52 3.918c-0.078-0.041-0.119-0.139-0.119-0.299-0.041-0.276 0.020-0.415 0.177-0.415l-0.058 0.714z"></path>
<path fill="#000" d="M10.52 3.918c-0.078-0.041-0.119-0.139-0.119-0.299-0.041-0.276 0.020-0.415 0.177-0.415l-0.058 0.714z"></path>
<path fill="#615031" d="M9.716 2.162c-0.116 0.16-0.267 0.2-0.444 0.119-0.061-0.119-0.13-0.198-0.209-0.235h0.090l-0.119-0.12v0.030c-0.139-0.14-0.218-0.23-0.238-0.267l-0.119-0.119-0.029-0.151c0.139-0.137 0.435-0.128 0.891 0.032l0.209 0.087c0.041 0.041 0.061 0.11 0.061 0.209 0.011 0.037 0.018 0.079 0.018 0.123 0 0.112-0.042 0.215-0.111 0.292l0-0z"></path>
<path fill="#000" d="M9.716 2.162c-0.116 0.16-0.267 0.2-0.444 0.119-0.061-0.119-0.13-0.198-0.209-0.235h0.090l-0.119-0.12v0.030c-0.139-0.14-0.218-0.23-0.238-0.267l-0.119-0.119-0.029-0.151c0.139-0.137 0.435-0.128 0.891 0.032l0.209 0.087c0.041 0.041 0.061 0.11 0.061 0.209 0.011 0.037 0.018 0.079 0.018 0.123 0 0.112-0.042 0.215-0.111 0.292l0-0z"></path>
<path fill="#000" d="M9.716 6.919c0.36-0.18 0.577-0.357 0.656-0.534v-0.299l0.087-1.1c0.993 0.516 1.486 1.109 1.486 1.785 0 0.711-0.513 1.317-1.544 1.811-1.010 0.496-2.249 0.743-3.715 0.743s-2.705-0.247-3.715-0.743c-1.030-0.494-1.544-1.1-1.544-1.811 0-0.656 0.473-1.239 1.425-1.753l0.090 1.215v0.032l0.058 0.058v0.061h0.029l0.238 0.239 0.152 0.087 0.029 0.029 0.562 0.27 0.389 0.119 0.235 0.030 0.508 0.119 0.325 0.029 0.149 0.029 1.071 0.061c1.309 0.017 2.319-0.14 3.030-0.476z"></path>
<path fill="#80d967" d="M10.401 8.582c-0.778 0.383-1.689 0.615-2.734 0.699 0.935-0.093 1.768-0.328 2.496-0.699 0.972-0.514 1.457-1.12 1.457-1.811 0-0.615-0.386-1.16-1.161-1.637v-0.148c0.993 0.516 1.486 1.109 1.486 1.785 0 0.711-0.513 1.317-1.544 1.811zM5.067 9.205c-0.815-0.113-1.544-0.331-2.185-0.653-0.97-0.496-1.454-1.091-1.454-1.782 0-0.656 0.473-1.239 1.425-1.753l0.029 0.148c-0.752 0.435-1.129 0.97-1.129 1.605 0 0.691 0.456 1.285 1.367 1.782 0.569 0.311 1.219 0.528 1.947 0.653z"></path>
<path fill="#000" d="M6.12 7.363v0.267c-1.186 0.16-1.822 0.34-1.9 0.537-0.119 0.238-0.009 0.545 0.328 0.92-0.061 0-0.267-0.070-0.624-0.206-0.574-0.221-0.993-0.627-1.247-1.219-0.259-0.595-0.14-0.952 0.354-1.071 0.16-0.061 0.586 0.11 1.28 0.505 0.673 0.238 1.277 0.328 1.811 0.267z"></path>
<path fill="#000" d="M9.806 8.733c-0.099-0.714-0.444-1.231-1.039-1.547l0.357-0.090c0.296-0.12 0.592-0.259 0.891-0.415 0.16-0.099 0.279-0.128 0.357-0.090 0.513 0.119 0.644 0.476 0.386 1.071-0.217 0.493-0.533 0.851-0.952 1.071z"></path>
</svg>
