<!-- Generated by IcoMoon.io -->
<svg version="1.1" xmlns="http://www.w3.org/2000/svg" width="15" height="32" viewBox="0 0 15 32">
<title>sause</title>
<path fill="#000" d="M7.604 5.038l0.344-0.083-0.006 0.124 2.112 0.294-0.017 7.221 0.264 0.771c0.169 0.342 0.427 0.686 0.762 0.99 0.212 0.193 0.444 0.361 0.691 0.503l-0.023-0.014c0.703 0.403 1.195 0.88 1.482 1.436 0.211 0.459 0.311 1.020 0.3 1.686l0.008 10.863c0.066 0.207 0.036 0.459-0.097 0.748-0.231 0.557-0.804 1.022-1.719 1.395-1.278 0.514-2.661 0.767-4.148 0.767-1.527 0.139-2.91 0.015-4.146-0.374-0.919-0.281-1.499-0.688-1.738-1.229l-0.072-0.73 0.018-10.883c-0.005-0.68 0.113-1.25 0.354-1.706 0.264-0.584 0.761-1.118 1.489-1.601 0.119-0.076 0.25-0.17 0.376-0.272 0.477-0.387 0.828-0.844 1.050-1.331l-0.010 0.020c0.165-0.319 0.257-0.589 0.272-0.813l0.017-7.22 2.094-0.476 0.008-0.126 0.336 0.042z"></path>
<path fill="#c9200a" d="M10.051 13.707c0.008 0.306-0.755 0.529-2.293 0.672-1.519 0.099-2.289-0.003-2.298-0.31 0.009-0.139 0.234-0.264 0.676-0.375 0.584-0.147 1.123-0.235 1.663-0.278l-0.027 0.003c0.554-0.046 1.085-0.040 1.606 0.013l0.012 0.001c0.466 0.058 0.684 0.147 0.661 0.273z"></path>
<path fill="#940000" d="M4.857 13.606c0.165-0.325 0.256-0.598 0.271-0.823l0.016-7.235 0.493-0.139c0.111 5.168 0.116 7.914 0.015 8.236-0.139 0.407-0.237 0.648-0.29 0.718-0.14 0.2-0.596 0.609-1.359 1.229-0.545 0.433-0.947 0.903-1.204 1.41-0.183 0.339-0.276 0.641-0.28 0.906l0.004 12.115 0.199 0.621c0.308 0.45 0.922 0.786 1.842 1.008l-1.17-0.235c-0.917-0.254-1.496-0.645-1.734-1.179l-0.072-0.73 0.016-10.906c-0.004-0.681 0.113-1.255 0.353-1.72 0.264-0.593 0.76-1.142 1.487-1.648 0.64-0.436 1.11-0.98 1.412-1.627z"></path>
<path fill="#000" d="M3.199 18.347c-0-0.501 0.217-1 0.653-1.5 0.438-0.554 0.951-0.869 1.534-0.94 0.374-0.054 0.52 0.089 0.432 0.425-0.225 0.742-0.335 1.297-0.326 1.655l-0.023 12.846c-0.422 0.041-0.855 0.013-1.299-0.086-0.27-0.061-0.513-0.173-0.729-0.333l-0.25-0.221 0.008-11.846z"></path>
<path fill="#000" d="M6.192 6.978c0.471 0.154 1.019 0.181 1.637 0.079v5.484c-0.683 0.103-1.231-0.001-1.645-0.306l0.008-5.257z"></path>
<path fill="#000" d="M9.791 15.425c-0.011-0.334 0.303-0.441 0.938-0.319l0.258 0.095c0.235 0.117 0.457 0.3 0.665 0.545 0.532 0.526 0.768 1.193 0.715 2.001l-0.022 11.7-0.299 0.175c-0.118 0.073-0.292 0.127-0.52 0.162l-0.291 0.050c0.132-7.901 0.137-12.156 0.016-12.763-0.105-0.594-0.59-1.143-1.461-1.646z"></path>
<path fill="#fff" opacity="0.851" d="M10.026 25.157c1.268-0.177 1.931-2.14 1.085-2.988 0.548 0.993 0.21 2.444-0.789 2.69-0.026-0.070-0.094-0.093-0.173-0.102 0.198-0.267 0.6-0.332 0.759-0.638 0.575-1.164-0.286-2.53-1.532-2.033 0.494 0.007 1.011-0.008 1.337 0.349 0.446 0.487 0.328 1.558-0.382 1.704 0.15-0.27 0.459-0.708 0.233-1.124-0.225 0.391-0.527 0.705-0.954 0.897-0.18 0.389-0.384 0.755-0.959 0.753 0.517-0.42 0.207-1.545-0.205-1.972 0.493 0.116 1.266 0.343 1.194 1.11 0.317-0.622-0.513-0.81-0.754-1.161 0.14-0.081 0.33-0.113 0.469-0.196-0.264-0.139-0.489 0.227-0.674 0.167 0.107-0.287 0.424-0.367 0.661-0.527-0.336-0.019-0.603 0.329-0.831 0.533-0.105-0.072-0.152-0.018-0.275-0.098 0.233-0.57 0.96-0.966 1.803-0.891 0.478 0.043 0.814 0.342 1.071 0.502-0.225-0.519-1.451-0.824-2.12-0.394 0.067-0.152 0.361-0.303 0.532-0.342 1.602-0.372 2.96 1.171 2.066 2.735-0.299 0.524-0.887 0.923-1.561 1.026zM10.386 22.842c-0.19-0.291-0.677-0.55-0.998-0.361 0.435 0.004 0.734 0.163 0.998 0.361zM8.104 26.556c0.029 0.079 0.16-0.124 0.237-0.008-0.045 0.106-0.194 0.109-0.23 0.224 0.079 0.084 0.275 0.037 0.312 0.169-0.465 0.030-0.869-0.108-1.259-0.064 0.104-0.106 0.299-0.226 0.47-0.16-0.032-0.176-0.409 0.042-0.413-0.166 0.734 0.019 0.887-0.535 1.085-1.045-0.267-0.445-0.851-0.725-1.025-1.152 0.465 0.309 1.602 0.331 1.465 1.1-0.032 0.179-0.282 0.311-0.39 0.517-0.112 0.215-0.099 0.421-0.251 0.584z"></path>
<path fill="#fff" opacity="0.851" d="M6.66 19.266c0.182 0.248 0.546 0.596 0.616 1.094-0.048 0.398-0.432 0.588-0.408 0.95 0.032 0.501 0.721 0.696 1.087 0.97 0.454 0.438 0.966 1.143 0.883 1.948-0.071 0.184-0.192 0.319-0.324 0.443-0.187 0.025-0.321-0.009-0.476-0.019-0.883-0.537-1.684-0.968-2.535-1.567-0.16-0.847 0.405-1.439 1.153-1.048-0.141-0.322-1.376-0.246-1.169 0.581-0.82-0.55-0.117-1.569 0.405-2.029 0.343-0.303 0.917-0.569 0.569-1.207 0.086 0.264 0.038 0.825-0.274 0.909 0.048-0.193 0.193-0.404 0.015-0.54-0.141 0.243-0.238 0.528-0.522 0.63-0.156-0.151-0.007-0.411-0.087-0.537-0.21-0.077-0.332 0.017-0.542 0.055-0.045-0.159 0.155-0.349 0.325-0.407-0.303-0.624 0.636-0.774 1.066-0.613-0.125 0.146-0.248 0.428-0.463 0.376 0.090 0.116-0.096 0.326 0.113 0.32-0.183-0.13 0.143-0.258 0.122-0.4 0.212-0.065 0.322 0.18 0.445 0.092zM5.687 19.588c-0.007-0.18 0.105-0.139 0.234-0.116-0.032-0.289-0.466-0.039-0.234 0.116zM7.35 22.48c-0.081-0.232-0.266-0.544-0.493-0.487 0.227 0.091 0.329 0.323 0.493 0.487zM7.932 22.604c-0.029-0.105-0.168-0.28-0.245-0.207 0.102 0.046 0.143 0.161 0.245 0.207zM7.074 23.317c0.192 0.258 0.651 0.403 0.9 0.472-0.181-0.228-0.72-0.529-0.9-0.472zM7.193 23.817c0.272 0.109 0.641 0.482 0.863 0.402-0.186-0.312-0.569-0.4-0.902-0.544-0 0.063 0.012 0.111 0.039 0.143z"></path>
<path fill="#940000" d="M6.583 5.423l3.492-0.184-0.018 1.356c-0.61 0.225-1.489 0.363-2.636 0.41-0.726 0.035-1.301-0.019-1.728-0.16l-0.397-0.216-0.022-0.729 1.31-0.478z"></path>
<path fill="#000" d="M10.907 5.090c-0.003 0.265-0.31 0.524-0.921 0.778-0.629 0.238-1.39 0.395-2.278 0.463-0.892 0.067-1.643 0.019-2.262-0.144-0.616-0.135-0.934-0.341-0.948-0.618 0.016-0.279 0.342-0.539 0.969-0.779 0.597-0.242 1.338-0.393 2.227-0.461 0.892-0.067 1.653-0.028 2.29 0.121 0.632 0.149 0.941 0.362 0.925 0.641z"></path>
<path fill="#940000" d="M5.272 5.901c0.278 0.186 0.543 0.316 0.795 0.393-1.054-0.107-1.581-0.349-1.571-0.725 0.015-0.225 0.254-0.453 0.72-0.688-0.361 0.358-0.343 0.697 0.056 1.020z"></path>
<path fill="#000" d="M5.66 5.493c0.971-0.056 1.512 0.037 1.623 0.287 0.114 0.247-0.167 0.353-0.839 0.316-0.514-0.040-0.837-0.149-0.97-0.326-0.119-0.161-0.058-0.255 0.186-0.277z"></path>
<path fill="#608d5e" d="M5.649 4.952l-0.499-2.342 5.222-0.424-0.51 2.601c-0.39 0.303-1.103 0.485-2.135 0.543-0.856 0.037-1.458-0.006-1.803-0.135l-0.274-0.242z"></path>
<path fill="#8ec18b" d="M9.618 1.874c0.495 0.084 0.753 0.209 0.773 0.376-0.009 0.166-0.273 0.334-0.781 0.502-0.526 0.151-1.154 0.261-1.882 0.325-0.744 0.050-1.363 0.033-1.856-0.052-0.526-0.080-0.784-0.206-0.773-0.373-0.022-0.167 0.231-0.326 0.756-0.48 0.509-0.168 1.136-0.278 1.883-0.326 0.728-0.063 1.356-0.053 1.881 0.027z"></path>
<path fill="#608d5e" d="M6.862 2.414l-0.279-1.666 2.522-0.218-0.206 1.833c-0.184 0.208-0.527 0.326-1.025 0.351-0.414 0.013-0.706-0.027-0.875-0.124l-0.136-0.176z"></path>
<path fill="#8ec18b" d="M8.736 0.296c0.241 0.067 0.368 0.16 0.38 0.279-0.002 0.117-0.127 0.232-0.37 0.343-0.252 0.099-0.555 0.167-0.906 0.201-0.36 0.024-0.66 0.002-0.9-0.066-0.256-0.065-0.383-0.158-0.38-0.276-0.013-0.118 0.107-0.227 0.358-0.328 0.244-0.111 0.546-0.179 0.907-0.201 0.352-0.033 0.656-0.016 0.911 0.049z"></path>
<path fill="#fff" opacity="0.831715" d="M3.772 25.943c0.004 0.365 0.617 0.631 0.861 0.707-0.145-0.277-0.652-0.402-0.738-0.725l-0.053 0.003-0.071 0.015zM4.071 26.174c0.155 0.163 0.873 0.506 0.445 0.146-0.129-0.024-0.354-0.38-0.445-0.145zM3.91 26.406c0.155 0.165 0.855 0.486 0.403 0.146-0.111-0.020-0.326-0.35-0.403-0.146zM3.834 26.511c0.156 0.166 0.855 0.487 0.403 0.147-0.111-0.020-0.326-0.35-0.403-0.147zM3.693 26.685c-0.007 0.28 0.873 0.566 0.541 0.116-0.172-0.047-0.432-0.434-0.541-0.116zM3.887 26.711c0.324 0.137 0.355 0.408 0 0zM3.508 26.323c0.326 0.202-0.546 0.3-0.108 0.428 0.162 0.072 0.635 0.7 0.814 0.397-0.37-0.167-0.781-0.443-0.393-0.789-0.060-0.115-0.277-0.235-0.313-0.035zM4.897 27.506c0.143 0.25 0.591 0.119 0.184-0.047-0.299-0.284 0.538 0.331 0.318-0.051-0.294-0.082-0.711-0.621-0.91-0.426 0.401 0.237-0.49 0.222-0.107 0.434 0.169-0.006 0.801 0.742 0.781 0.324-0.067-0.060-0.364-0.103-0.266-0.235zM4.635 27.107c0.424 0.008-0.005 0.552 0.072 0.125 0.088-0.043-0.070-0.083-0.072-0.125zM5.27 27.294c0.36 0.089 0.363-0.49-0.041-0.506-0.215-0.342-0.617-0.082-0.458 0.21 0.179 0.075 0.332 0.197 0.499 0.295zM4.988 26.775c0.197 0.088 0.587 0.417 0.166 0.146-0.025-0.048-0.229-0.070-0.166-0.145zM4.909 26.888c0.186 0.079 0.591 0.422 0.179 0.155-0.036-0.049-0.236-0.075-0.179-0.155z"></path>
<path fill="#fff" opacity="0.831715" d="M5.883 27.499c-0.071 0.057-0.509-0.147-0.262 0.127 0.391 0.225-0.431-0.161-0.215 0.18 0.463 0.073-0.453 0.114 0.045 0.282 0.421-0.017 0.696-0.5 0.676-0.812-0.114 0.147-0.606-0.19-0.425 0.143 0.044 0.061 0.129 0.035 0.181 0.081zM6.002 28.173c0.228 0.305 0.532-0.024 0.139-0.101-0.201-0.25 0.553 0.132 0.242-0.17-0.49-0.311 0.575 0.079 0.088-0.25-0.073-0.244-0.235-0.377-0.353-0.022-0.096 0.168-0.602 0.852-0.175 0.653l0.026-0.050 0.033-0.060z"></path>
<path fill="#fff" opacity="0.831715" d="M7.034 27.897c-0.098-0.394-0.763-0.017-0.366 0.207-0.2 0.167 0.418 0.323-0.024 0.191-0.418-0.167-0.233 0.668-0.044 0.163 0.328-0.059-0.074 0.499 0.3 0.288-0.087-0.314 0.463-0.016 0.075-0.039 0.159 0.494 0.625-0.292 0.047-0.288 0.274 0.154 0.278-0.108 0.489-0.066 0.142-0.196-0.057-0.549-0.277-0.388 0.049-0.161-0.188-0.284-0.201-0.069zM7.382 28.231c-0.266-0.070-0.987-0.414-0.318-0.162 0.085 0.060 0.29 0.061 0.318 0.162zM7.179 28.284c-0.222 0.078-0.528-0.259-0.096-0.037l0.096 0.037z"></path>
<path fill="#fff" opacity="0.831715" d="M7.912 28.131c-0.357-0.122-0.513 0.077-0.186 0.237-0.219-0.040-0.44 0.247-0.038 0.212 0.42 0.055-0.034 0.123-0.215 0.115-0.041 0.276 0.522 0.016 0.405 0.391 0.239 0.047 0.134-0.393 0.459-0.178 0.51-0.178-0.698-0.219-0.091-0.284 0.486 0.093 0.174-0.181 0.027-0.225 0.265-0.049 0.329-0.28-0.032-0.238-0.136 0.039-0.328-0.381-0.331-0.032zM7.904 28.439c-0.149-0.376 0.518 0.055 0 0z"></path>
<path fill="#fff" opacity="0.831715" d="M9.010 28.145c-0.335 0.137 0.037 0.491 0.067 0.47-0.24 0.263 0.016 0.389 0.151 0.114 0.148 0.409 0.205-0.119 0.189-0.058 0.3 0.191 0.268-0.19-0.012-0.174 0.201-0.141-0.043-0.494-0.219-0.406 0.369-0.070 0.096-0.259-0.118-0.177-0.041-0.182-0.566 0.501-0.059 0.229zM9.078 28.325c0.123 0.169-0.149 0.046 0 0zM9.231 28.277c0.171-0.072 0.021 0.215 0 0zM8.453 28.162c-0.288 0.036 0.072 0.3-0.024 0.43 0.418-0.057-0.158 0.209 0.2 0.262-0.002-0.111 0.023 0.419 0.186 0.126-0.033-0.174 0.316-0.456-0.030-0.436 0.217-0.172-0.129-0.655-0.375-0.455l0.042 0.073zM8.617 28.414c-0.203-0.208 0.143-0.167 0 0z"></path>
<path fill="#fff" opacity="0.831715" d="M10.232 27.94c-0.194-0.284-0.522 0.131-0.348-0.239 0.295-0.244 0.529 0.482 0.342 0.544 0.649 0.107-0.042-1.118-0.417-0.756-0.378-0.19 0.063 0.471-0.336 0.267-0.354-0.26-0.183 0.512 0.068 0.602 0.125 0.219 0.333 0.427 0.377 0.080 0.387 0.010-0.030-0.305-0.117-0.457-0.029-0.19 0.434 0.305 0.43-0.041zM9.461 27.988c0.22-0.186 0.184 0.317 0 0zM9.651 28.228c0.247-0.187 0.168 0.346 0 0z"></path>
<path fill="#fff" opacity="0.831715" d="M11.069 27.134c-0.262-0.142-0.148-0.221-0.126-0.348-0.418-0.105-0.836 0.177-0.793 0.618-0.035 0.254 0.255-0.076 0.364 0.198 0.274 0.093 0.029 0.469 0.354 0.314 0.080-0.295 0.284-0.449 0.537-0.57 0.079-0.345-0.377 0.153-0.192-0.236l-0.044-0.011-0.102 0.035zM11.031 27.248c-0.002 0.195-0.206 0.119 0 0zM10.765 27.503c0.356 0.002-0.134 0.24 0 0zM10.572 27.053c-0.173-0.099 0.218-0.092 0 0zM10.398 27.096c-0.037-0.166 0.185-0.088 0 0zM10.453 27.167c-0.102 0.213-0.087-0.151 0 0zM10.469 27.329c0.113-0.138 0.465-0.408 0.137-0.082-0.037-0.002-0.090 0.165-0.137 0.082zM10.587 27.439c0.113-0.138 0.466-0.408 0.137-0.082-0.039-0.002-0.088 0.167-0.137 0.082zM11.483 26.083c0.167 0.152 0.237 1.117 0.391 0.547 0.498 0.087 0.060-0.575-0.229-0.663-0.222-0.315-0.327 0.286-0.524 0.063-0.226 0.111 0.265 0.457-0.136 0.313-0.406-0.175 0.13 0.308-0.171 0.181-0.035 0.275 0.473 0.381 0.3 0.133 0.24 0.126 0.022 0.486 0.352 0.263 0.19 0.346 0.439-0.098 0.061-0.148-0.125-0.169 0.256-0.065 0.065-0.326-0.037-0.12-0.113-0.235-0.11-0.364zM11.719 26.233c0.324 0.143 0.133 0.532 0.039 0.075l-0.039-0.075zM11.378 26.534c-0.079 0.214-0.276-0.229 0.005-0.037-0.184-0.686 0.215 0.22-0.005 0.038z"></path>
<path fill="#fff" opacity="0.832" d="M3.304 19.093c-0.176 0.276-0.431-0.349-0.56 0.073 0.222 0.069 0.233 0.419-0.014 0.242-0.113-0.132-0.646-0.55-0.233-0.484 0.129 0.257 0.484-0.095 0.167-0.186 0.018-0.277 0.272-0.016 0.368 0.093l0.272 0.261zM3.674 18.466c0.413 0.428-0.659 0.647-0.541 0.107 0.049-0.201 0.387-0.31 0.541-0.107zM3.601 18.688c-0.023-0.348-0.55-0.060-0.157 0.090 0.071 0.029 0.161-0.021 0.157-0.090zM4.241 18.402c-0.227 0.29-0.653-0.109-0.707-0.306 0.032-0.241 0.237 0.054 0.334-0.081 0.156 0.074-0.153 0.264 0.147 0.349 0.174 0.091 0.083-0.187 0.225 0.038zM4.975 17.707c0.226 0.286-0.474 0.586-0.468 0.32 0.187 0.034 0.498-0.288 0.144-0.176-0.479 0.177-0.495-0.551-0.023-0.494 0.39 0.166-0.359 0.18-0.173 0.323 0.154-0.003 0.418-0.146 0.519 0.026zM5.37 17.359c-0.405-0.017 0.231 0.651-0.235 0.389-0.088-0.192-0.33-0.436 0.056-0.444 0.118-0.147 0.095-0.058 0.179 0.055zM5.824 17.577c-0.237 0.225-0.581-0.624-0.21-0.397 0.057 0.137 0.139 0.264 0.21 0.397zM5.535 17.039c-0.165 0.183-0.327-0.143-0.053-0.098l0.021 0.039 0.032 0.059zM6.207 17.064c-0.403-0.066 0.131 0.667-0.294 0.353-0.057-0.199-0.264-0.468 0.124-0.429 0.139-0.13 0.104-0.046 0.17 0.076zM6.747 17.179c-0.078-0.289-0.311 0.229-0.008 0.007l0.008-0.007zM6.771 17.256c-0.316 0.352-0.571-0.316-0.12-0.313-0.168 0.064-0.516 0.019-0.206-0.123 0.31-0.201 0.725 0.487 0.35 0.468l-0.024-0.032zM7.42 17.254c-0.594 0.098-0.33-0.841 0.113-0.475 0.085 0.164-0.501-0.003-0.271 0.3 0.129 0.063 0.535-0.019 0.232 0.165l-0.074 0.010zM8.303 17.28c-0.339 0.097-0.053-0.644-0.39-0.31 0.144 0.19-0.177 0.42-0.177 0.136l0.019-0.579c0.306-0.087 0.052 0.364 0.328 0.215 0.321 0.062 0.226 0.342 0.221 0.538zM8.836 17.26c0.073-0.28-0.404 0.072-0.011 0.003l0.011-0.003zM8.818 17.337c-0.469 0.175-0.368-0.504 0.048-0.318-0.186-0.013-0.486-0.193-0.127-0.19 0.388-0.046 0.423 0.715 0.085 0.546l-0.005-0.038zM10.139 17.655c-0.134 0.31-0.835-0.076-0.58-0.199 0.079 0.157 0.569 0.239 0.252 0.025-0.453-0.277 0.223-0.639 0.45-0.255 0.077 0.376-0.385-0.185-0.407 0.025 0.095 0.114 0.386 0.246 0.285 0.406zM10.528 17.956c0.166-0.242-0.416-0.042-0.012-0l0.012-0.001zM10.487 18.023c-0.517 0.038-0.191-0.569 0.152-0.284-0.178-0.063-0.409-0.311-0.061-0.212 0.392 0.061 0.173 0.781-0.099 0.532l0.007-0.037zM11.234 18.545c-0.33-0.156-0.555-0.424-0.203-0.665 0.239-0.114 0.124 0.231 0.002 0.308 0.083 0.379 0.461-0.421 0.46 0.016l-0.259 0.341zM11.605 18.828c-0.532-0.305 0.399-0.772 0.456-0.249-0.062 0.163-0.384-0.315-0.441 0.032 0.051 0.122 0.425 0.321 0.051 0.256l-0.065-0.040z"></path>
<path fill="#fff" opacity="0.832" d="M12.458 19.179l-0.324-0.254c-0.125 0.174 0.518 0.431 0.027 0.341-0.567-0.266 0.186-0.892 0.403-0.332 0.023 0.096-0.031 0.187-0.105 0.245zM12.384 18.998c0.074-0.275-0.337-0.13 0 0z"></path>
</svg>
