<!-- Generated by IcoMoon.io -->
<svg version="1.1" xmlns="http://www.w3.org/2000/svg" width="41" height="32" viewBox="0 0 41 32">
<title>tea</title>
<path d="M16.762 11.654c0.021-0.036-0.018-0.102-0.031-0.164-0.272 0.054-0.328 0.2-0.19 0.419 0.202-0.020 0.166-0.169 0.222-0.254zM16.339 12.887c0.048-0.146 0.107-0.287 0.164-0.432 0.030-0.071 0.059-0.157 0.080-0.245l0.002-0.011c0-0.039-0.023-0.089-0.043-0.164-0.059 0.002-0.116 0.014-0.168 0.034l0.003-0.001c-0.007 0.285-0.042 0.558-0.102 0.822l0.005-0.028zM18.969 10.655c0.015-0.030-0.012-0.077-0.020-0.13-0.189 0-0.24 0.077-0.254 0.164-0.049 0.222-0.132 0.419-0.243 0.595l0.005-0.008c-0.059 0.11-0.113 0.223-0.164 0.337s-0.095 0.231-0.141 0.348c-0.024 0.045-0.039 0.098-0.039 0.154s0.014 0.11 0.039 0.156l-0.001-0.002h0.074c0.135-0.225 0.266-0.488 0.377-0.763l0.014-0.038c0.117-0.271 0.215-0.552 0.353-0.814zM17.683 13.37h0.266l0.184-0.703c0.015-0.028 0.024-0.060 0.024-0.095 0-0.050-0.018-0.096-0.048-0.132l0 0c-0.056 0.028-0.095 0.038-0.108 0.057-0.043 0.061-0.081 0.131-0.109 0.205l-0.002 0.007c-0.074 0.218-0.141 0.437-0.21 0.657zM21.020 9.955c0.014 0.060 0.043 0.112 0.082 0.155l-0-0c0.056 0.038 0.12 0.070 0.188 0.092l0.005 0.002c0.013 0 0.026 0 0.039-0.011 0.013-0.059-0.121-0.195-0.241-0.238-0.028-0.010-0.084-0.007-0.074 0.002zM22.616 10.157c-0.066-0.090-0.189-0.271-0.31-0.453l-0.063-0.101c0-0.015-0.018-0.030-0.028-0.044-0.078 0.015-0.17 0.026-0.265 0.031l-0.005 0c0.048 0.074 0.095 0.148 0.144 0.222 0.087 0.122 0.176 0.229 0.271 0.33l-0.001-0.001c0.035 0.034 0.073 0.065 0.115 0.090l0.003 0.002c0.1 0.066 0.192 0.066 0.164 0-0.005-0.028-0.015-0.053-0.027-0.075l0.001 0.001z"></path>
<path d="M18.995 10.807c-0.092-0.113-0.185-0.227-0.277-0.343-0.095 0.046-0.189 0.090-0.284 0.133 0.095 0.117 0.187 0.248 0.27 0.385l0.009 0.016c0.027 0.046 0.059 0.085 0.095 0.12l0 0c0.078 0.074 0.184 0.12 0.3 0.121h0c0.041-0.002 0.074-0.036 0.074-0.077 0-0.008-0.001-0.015-0.003-0.022l0 0.001c-0.047-0.127-0.109-0.238-0.186-0.336l0.002 0.003zM21.316 10.454c0.123 0.097 0.156 0.164 0.164 0.241s0.102 0.182 0.227 0.274 0.243 0.103 0.259 0.049c0-0.002 0-0.005 0-0.007 0-0.016-0.005-0.031-0.014-0.044l0 0-0.397-0.537c-0.053-0.063-0.131-0.103-0.218-0.103h-0c-0.082 0.002-0.107 0.061-0.021 0.126zM18.151 11.774c-0.213-0.217-0.502-0.422-0.629-0.657-0.009-0.020-0.022-0.036-0.039-0.047l-0-0-0.102-0.051-0.164 0.051c0.020 0.067 0.059 0.124 0.112 0.164l0.001 0.001c0.078 0.042 0.136 0.111 0.163 0.195l0.001 0.002c0.020 0.064 0.112 0.14 0.179 0.208 0.217 0.188 0.414 0.385 0.596 0.595l0.006 0.007c0.073 0.066 0.158 0.121 0.25 0.162l0.006 0.002c0.041 0.011 0.089 0.017 0.137 0.018h0c-0.023-0.067-0.020-0.118-0.062-0.164-0.141-0.154-0.294-0.32-0.456-0.486zM19.584 11.983c0.099 0.089 0.206 0.175 0.317 0.255l0.011 0.008c0.049 0.014 0.105 0.023 0.163 0.025h0.001c0.015-0.010 0.024-0.026 0.024-0.045 0-0.014-0.006-0.027-0.015-0.037l0 0q-0.341-0.369-0.689-0.76c-0.043-0.048-0.085-0.128-0.185-0.125-0.050 0.005-0.090 0.045-0.094 0.095l-0 0c0.003 0.052 0.026 0.099 0.061 0.133l0 0c0.134 0.164 0.266 0.311 0.406 0.452l-0-0zM21.314 11.851c-0.067-0.072-0.21-0.164-0.217-0.218-0.026-0.174-0.287-0.356-0.435-0.537-0.231-0.249-0.447-0.52-0.641-0.807l-0.015-0.024c-0.073-0.114-0.153-0.214-0.242-0.304l0 0-0.184 0.049-0.030 0.016c0.006 0.012 0.011 0.023 0.017 0.032l-0.001-0.001c0.141 0.235 0.361 0.463 0.469 0.691 0.080 0.149 0.186 0.273 0.314 0.371l0.003 0.002c0.205 0.164 0.284 0.34 0.54 0.492 0.043 0.026 0.057 0.072 0.087 0.11 0.039 0.049 0.078 0.092 0.12 0.133l0 0c0.108 0.1 0.236 0.164 0.272 0.149 0.064-0.025-0.008-0.098-0.059-0.156zM20.165 12.427c-0.023 0.041 0.072 0.121 0.192 0.164 0.011 0.002 0.024 0.003 0.037 0.003s0.026-0.001 0.038-0.003l-0.001 0c0-0.062-0.089-0.144-0.194-0.174-0.026-0.008-0.066-0.002-0.072 0.010zM18.831 12.803c0.089 0.071 0.188 0.14 0.292 0.202l0.012 0.007 0.197 0.026c-0.014-0.039-0.033-0.074-0.055-0.105l0.001 0.001c-0.063-0.066-0.128-0.127-0.198-0.184l-0.004-0.003c-0.046-0.043-0.109-0.069-0.177-0.069-0.019 0-0.037 0.002-0.054 0.006l0.002-0c-0.023 0.013-0.038 0.038-0.038 0.065 0 0.021 0.009 0.041 0.023 0.054l0 0zM16.375 12.147c0.043 0.029 0.081 0.063 0.113 0.101l0.001 0.001c0.178 0.227 0.362 0.429 0.559 0.617l0.002 0.002c0.154 0.164 0.359 0.328 0.506 0.506h0.369c-0.032-0.034-0.064-0.070-0.094-0.107l-0.003-0.003c-0.093-0.096-0.191-0.186-0.294-0.268l-0.006-0.005c-0.199-0.154-0.373-0.323-0.527-0.51l-0.004-0.006c-0.185-0.258-0.39-0.483-0.618-0.682l-0.005-0.004c0.005 0.112 0.007 0.235 0.002 0.358zM21.025 13.283c0.038 0.020 0.082 0.034 0.129 0.038l0.001 0c0.019-0.001 0.034-0.017 0.034-0.036 0-0.005-0.001-0.010-0.003-0.015l0 0c-0.106-0.158-0.239-0.288-0.394-0.389l-0.005-0.003c-0.028-0.015-0.060-0.028-0.093-0.038l-0.004-0.001c-0.023 0.011-0.080 0.020-0.076 0.043 0.031 0.14 0.153 0.277 0.41 0.402zM19.697 13.521c0.112 0.018 0.222 0.039 0.328 0.062l-0.105-0.117c-0.066-0.068-0.139-0.128-0.218-0.181l-0.005-0.003c-0.035-0.015-0.075-0.023-0.118-0.023-0.006 0-0.012 0-0.017 0.001l0.001-0c-0.020 0.003-0.035 0.020-0.035 0.041 0 0.001 0 0.003 0 0.004v-0c0.005 0.025 0.017 0.047 0.034 0.064l0 0zM13.145 25.009c0.037-0.045 0.084-0.081 0.137-0.104l0.002-0.001c0.032-0.004 0.070-0.007 0.107-0.007s0.075 0.003 0.112 0.007l-0.004-0c0.015 0 0.021 0.018 0.031 0.028-0.013 0.059-0.192 0.125-0.328 0.113-0.021-0.007-0.071-0.030-0.057-0.036zM14.578 25.383c-0.054 0.007-0.103 0.019-0.149 0.036l0.005-0.002c-0.151 0.058-0.277 0.117-0.398 0.184l0.016-0.008c-0.281 0.166-0.522 0.333-0.749 0.515l0.012-0.010c-0.107 0.095-0.229 0.177-0.361 0.242l-0.010 0.004c0.017 0.070 0.031 0.154 0.037 0.24l0 0.006c0.135-0.083 0.252-0.176 0.356-0.282l0-0c0.034-0.036 0.148-0.061 0.202-0.097 0.189-0.125 0.376-0.245 0.563-0.363s0.382-0.233 0.573-0.345c0.023-0.013 0.042-0.029 0.059-0.047l0-0c0.048-0.053-0.036-0.090-0.156-0.074zM13.624 24.682c0.154-0.034 0.212-0.080 0.249-0.149 0.083-0.088 0.199-0.145 0.327-0.153l0.001-0c0.121-0.025 0.264 0.010 0.256 0.066-0.007 0.017-0.019 0.030-0.034 0.039l-0 0-0.586 0.318c-0.036 0.017-0.077 0.026-0.121 0.026s-0.086-0.010-0.123-0.027l0.002 0.001c-0.079-0.034-0.075-0.099 0.030-0.121zM13.114 22.458c-0.121 0.028-0.261 0.053-0.378 0.090l-0.044 0.268 0.56-0.231c0.020-0.009 0.034-0.028 0.034-0.051 0-0.010-0.003-0.020-0.007-0.028l0 0c-0.047-0.020-0.102-0.037-0.16-0.047l-0.004-0.001zM13.46 27.511c0.045-0.039 0.101-0.067 0.162-0.082l0.003-0.001c0.046-0.010 0.146 0 0.143 0.016-0.018 0.045-0.053 0.081-0.096 0.101l-0.001 0c-0.059 0.025-0.129 0.047-0.202 0.062l-0.008 0.002c0-0.034-0.026-0.067 0-0.1zM14.026 23.323c-0.065 0.023-0.12 0.047-0.172 0.074l0.008-0.004c-0.043 0.020-0.075 0.056-0.126 0.061-0.294 0.030-0.44 0.154-0.696 0.217-0.17 0.037-0.319 0.108-0.448 0.204l0.003-0.002c-0.008 0.008-0.017 0.015-0.027 0.021l-0.001 0c0 0.066-0.011 0.133-0.016 0.199v0.094c0.235-0.133 0.507-0.243 0.757-0.363 0.21-0.1 0.525-0.154 0.622-0.302 0.030-0.044 0.197-0.067 0.289-0.105s0.164-0.059 0.121-0.113-0.171-0.025-0.314 0.020zM14.558 15.991l-0.135 0.033c-0.026-0.023-0.071-0.051-0.074-0.072s0.053-0.023 0.097-0.041zM14.689 15.781c0.241-0.051 0.492-0.1 0.714-0.164 0.035-0.007 0.074-0.011 0.115-0.011 0.090 0 0.176 0.020 0.253 0.055l-0.004-0.002c0.025 0.013 0.047 0.029 0.066 0.048l-0-0c-0.011 0.016-0.013 0.033-0.030 0.036-0.314 0.071-0.627 0.144-0.947 0.212-0.061-0.004-0.117-0.023-0.166-0.053l0.001 0.001c-0.041-0.041-0.107-0.098-0.003-0.121zM13.419 22.407c0-0.048 0.117-0.080 0.243-0.066 0.026 0.007 0.048 0.018 0.068 0.032l-0.001-0c-0.023 0.057-0.141 0.094-0.249 0.076-0.020-0.005-0.059-0.028-0.061-0.041zM14.561 21.995c0.005-0 0.011-0 0.018-0 0.041 0 0.081 0.007 0.118 0.021l-0.002-0.001c0.009 0.007 0.015 0.018 0.015 0.030s-0.006 0.023-0.015 0.030l-0 0c-0.151 0.093-0.329 0.158-0.52 0.185l-0.007 0.001c-0.016 0.002-0.034 0.003-0.053 0.003s-0.037-0.001-0.055-0.003l0.002 0c-0.016-0.021-0.064-0.053-0.049-0.071 0.094-0.115 0.268-0.195 0.548-0.195zM13.215 21.339c0.015-0.019 0.035-0.034 0.058-0.042l0.001-0c0.378-0.164 0.752-0.315 1.136-0.465 0.084-0.029 0.182-0.050 0.284-0.059l0.005-0c0.056 0.011 0.106 0.029 0.153 0.052l-0.003-0.002c-0.025 0.028-0.031 0.049-0.056 0.059l-1.149 0.479c-0.083 0.031-0.181 0.055-0.282 0.068l-0.007 0.001c-0.049-0.002-0.094-0.016-0.133-0.038l0.001 0.001c-0.009-0.007-0.015-0.019-0.015-0.031 0-0.009 0.003-0.017 0.007-0.023l-0 0zM13.846 18.58l-0.013 0.034c0.199-0.064 0.451-0.126 0.708-0.173l0.040-0.006c0.246-0.048 0.468-0.12 0.693-0.185 0.041-0.012 0.075-0.048 0.062-0.072s-0.092-0.044-0.164-0.074c-0.037-0.003-0.080-0.005-0.123-0.005s-0.086 0.002-0.129 0.006l0.005-0c-0.399 0.082-0.739 0.179-1.069 0.298l0.054-0.017c-0.020 0.064-0.039 0.13-0.066 0.195zM14.548 19.579c0.056 0.013 0.106 0.035 0.149 0.065l-0.001-0.001s-0.031 0.038-0.062 0.046c-0.136 0.041-0.274 0.082-0.422 0.117-0.079 0.018-0.176 0.021-0.289 0.034-0.033-0.041-0.074-0.069-0.066-0.084 0.026-0.038 0.061-0.069 0.102-0.090l0.002-0.001c0.126-0.063 0.274-0.099 0.431-0.099 0.055 0 0.109 0.005 0.162 0.013l-0.006-0.001zM13.952 17.457c0.442-0.164 1.011-0.243 1.458-0.402 0.079-0.028 0.148-0.062 0.187-0.079 0.028-0.085-0.061-0.149-0.164-0.149-0.018-0.001-0.039-0.001-0.060-0.001-0.091 0-0.18 0.009-0.265 0.026l0.009-0.001c-0.227 0.057-0.432 0.131-0.657 0.192-0.189 0.051-0.389 0.095-0.586 0.141 0.029 0.076 0.056 0.167 0.077 0.262l0.002 0.012zM33.463 21.477c0-0.048 0.094-0.074 0.151-0.115 0.23 0.253 0.174 0.422-0.131 0.506-0.187-0.166-0.034-0.266-0.020-0.391zM33.712 21.224c0.215 0 0.251-0.099 0.281-0.192l-0.010-0.051c-0.044-0.25-0.084-0.492-0.121-0.747-0.119 0.252-0.195 0.546-0.212 0.856l-0 0.006c0 0.038 0.039 0.079 0.062 0.128zM33.513 22.355c-0.128 0.228-0.309 0.432-0.317 0.719 0 0.125-0.103 0.228-0.328 0.21-0.017-0.040-0.027-0.087-0.027-0.136 0-0.072 0.021-0.138 0.057-0.194l-0.001 0.001c0.075-0.181 0.138-0.369 0.2-0.555 0.036-0.117 0.076-0.216 0.124-0.311l-0.005 0.012c0.023-0.043 0.092-0.066 0.164-0.115 0.177 0.159 0.195 0.259 0.133 0.368zM31.793 26.171c-0.095 0.213-0.179 0.432-0.291 0.637-0.23 0.422-0.353 0.89-0.614 1.298-0.145 0.251-0.289 0.548-0.412 0.856l-0.017 0.047c-0.056 0.164-0.082 0.256-0.121 0.346l-0.397 0.877c-0.039 0.085-0.126 0.153-0.223 0.094-0.061-0.060-0.102-0.14-0.113-0.23l-0-0.002c-0.010-0.041 0.038-0.087 0.056-0.131 0.117-0.282 0.241-0.561 0.348-0.847 0.16-0.447 0.326-0.82 0.516-1.178l-0.024 0.049c0.123-0.227 0.213-0.469 0.318-0.706 0.148-0.328 0.289-0.676 0.443-1.009 0.061-0.126 0.135-0.234 0.224-0.329l-0.001 0.001c0.038-0.027 0.085-0.043 0.136-0.043 0.028 0 0.055 0.005 0.081 0.014l-0.002-0.001c0.056 0.030 0.077 0.125 0.107 0.194 0.013 0.013-0.005 0.041-0.015 0.064zM31.742 25.81c-0.102-0.13-0.108-0.21 0.021-0.235 0.064 0.009 0.12 0.036 0.164 0.077l-0-0c0.059 0.118-0.015 0.158-0.185 0.158zM32.059 25.456c-0.057 0.024-0.124 0.043-0.194 0.054l-0.005 0.001c0.007-0.082 0.019-0.156 0.037-0.229l-0.002 0.010c0.084-0.253 0.164-0.511 0.264-0.755 0.153-0.363 0.328-0.699 0.492-1.064 0.013-0.028 0.095-0.025 0.213-0.049 0.002 0.025 0.003 0.054 0.003 0.083 0 0.072-0.006 0.143-0.017 0.212l0.001-0.008c-0.068 0.209-0.135 0.379-0.21 0.544l0.013-0.032c-0.174 0.378-0.356 0.752-0.537 1.128-0.011 0.041-0.031 0.077-0.059 0.105l0-0zM29.461 31.142c0.019-0.029 0.041-0.053 0.065-0.075l0-0c0.187-0.164 0.212-0.369 0.067-0.622-0.074 0.054-0.164 0.095-0.217 0.164-0.112 0.182-0.22 0.366-0.328 0.55 0.14-0.003 0.276-0.008 0.412-0.016zM34.239 25.344c0.047-0.133 0.097-0.308 0.138-0.486l0.007-0.036-0.121 0.271c-0.017 0.055-0.027 0.118-0.027 0.183 0 0.024 0.001 0.047 0.004 0.071l-0-0.003zM33.945 25.733c-0.124 0.29-0.29 0.539-0.493 0.751l0.001-0.001c-0.074 0.076-0.033 0.2-0.051 0.302-0.013 0.071-0.031 0.134-0.055 0.194l0.002-0.007c0.075-0.043 0.153-0.080 0.231-0.117 0.169-0.315 0.352-0.714 0.516-1.122l0.031-0.088c-0.121-0.003-0.161 0.038-0.182 0.087zM32.075 18.937c0.010-0.038 0.072-0.059 0.121-0.097 0.189 0.141 0.164 0.251 0.108 0.343-0.116 0.199-0.196 0.433-0.224 0.683l-0.001 0.008c-0.059 0.282-0.138 0.56-0.223 0.834-0.026 0.127-0.117 0.227-0.235 0.267l-0.003 0.001c-0.038-0.031-0.072-0.051-0.071-0.061 0.076-0.694 0.361-1.315 0.527-1.978zM31.544 21.562c-0.144 0.392-0.328 0.77-0.476 1.16s-0.328 0.748-0.492 1.124c-0.079 0.182-0.141 0.373-0.22 0.555-0.050 0.098-0.1 0.18-0.154 0.259l0.005-0.008c-0.045 0.062-0.089 0.133-0.129 0.206l-0.005 0.010c-0.089 0.199-0.164 0.404-0.254 0.601-0.189 0.405-0.476 0.763-0.599 1.2-0.018 0.073-0.082 0.126-0.16 0.126-0.002 0-0.003-0-0.005-0h0c-0.126-0.062-0.126-0.107-0.118-0.151 0.073-0.387 0.215-0.731 0.415-1.033l-0.006 0.010c0.020-0.030 0.054-0.054 0.067-0.087 0.080-0.249 0.174-0.463 0.285-0.666l-0.010 0.019c0.174-0.261 0.164-0.604 0.422-0.821 0.013-0.012 0-0.041 0-0.057 0.049-0.121 0.099-0.245 0.153-0.364 0.149-0.338 0.294-0.681 0.455-1.013 0.21-0.428 0.424-0.855 0.622-1.292 0.030-0.062 0.030-0.141 0.195-0.179 0.033 0.067 0.064 0.105 0.062 0.133-0.007 0.097-0.025 0.188-0.055 0.273l0.002-0.008zM32.353 18.701c-0.046-0.048-0.115-0.092-0.112-0.12 0.008-0.092-0.033-0.208 0.172-0.231 0.103 0.199 0.102 0.199-0.061 0.351zM32.629 17.616c-0.073-0.040-0.121-0.117-0.121-0.205 0-0.037 0.008-0.071 0.023-0.102l-0.001 0.001c0.015-0.056 0.048-0.11 0.181-0.095 0.156 0.22 0.151 0.254-0.082 0.401zM33.106 16.262l0.026-0.097c-0.075-0.197-0.15-0.359-0.235-0.516l0.011 0.023c-0.030 0.021-0.049 0.055-0.049 0.094v0c0 0.248-0.259 0.448-0.067 0.752 0.277-0.018 0.282-0.146 0.314-0.256zM32.711 16.69c0.019-0.013 0.042-0.020 0.068-0.020 0.008 0 0.016 0.001 0.024 0.002l-0.001-0c0.043 0.013 0.080 0.036 0.11 0.066l0 0c0.087 0.151 0.041 0.268-0.164 0.361-0.19-0.181-0.099-0.292-0.036-0.409zM32.584 17.703c0.205 0.254 0.079 0.399-0.13 0.53-0.12-0.128-0.13-0.13-0.105-0.207 0.033-0.115-0.013-0.261 0.235-0.323zM28.576 27.78c-0.053-0.044-0.086-0.109-0.086-0.183 0-0.055 0.019-0.106 0.051-0.146l-0 0c0.026-0.053 0.069-0.099 0.195-0.057 0.112 0.254 0.1 0.286-0.159 0.386zM28.843 26.885c0.014-0.006 0.029-0.009 0.046-0.009s0.032 0.003 0.047 0.010l-0.001-0c0.038 0.021 0.069 0.050 0.091 0.086l0.001 0.001c0.054 0.164-0.013 0.269-0.235 0.32-0.149-0.208-0.034-0.305 0.051-0.407zM28.518 27.857c0.154 0.287 0 0.405-0.223 0.492-0.095-0.144-0.105-0.149-0.067-0.222 0.053-0.1 0.030-0.254 0.291-0.271zM27.975 29.338c0.011-0.018 0.017-0.039 0.018-0.062v-0c0.016-0.127 0.076-0.238 0.164-0.32l0-0c0.068-0.094 0.124-0.203 0.162-0.32l0.002-0.008c0.012-0.031-0.038-0.090-0.071-0.164-0.097 0.016-0.178 0.074-0.224 0.154l-0.001 0.002c-0.073 0.167-0.162 0.312-0.268 0.441l0.003-0.003c-0.348 0.345-0.443 0.811-0.63 1.231-0.030 0.066-0.067 0.146 0.089 0.261 0.014 0.003 0.029 0.004 0.045 0.004 0.106 0 0.195-0.070 0.224-0.167l0-0.002c0.171-0.346 0.328-0.694 0.488-1.047zM27.294 30.738c-0.023-0.039-0.056-0.070-0.096-0.090l-0.001-0.001c-0.039-0.016-0.118-0.023-0.128-0.008-0.069 0.108-0.202 0.185-0.253 0.302l0.353 0.164c0.052-0.072 0.099-0.153 0.139-0.239l0.004-0.009c0.003-0.011 0.004-0.024 0.004-0.037 0-0.030-0.008-0.059-0.023-0.083l0 0.001z"></path>
<path d="M32.548 17.71c0.082 0.049 0.181 0.077 0.286 0.077 0.038 0 0.074-0.004 0.11-0.011l-0.004 0.001c0.173-0.059 0.373-0.096 0.581-0.1l0.002-0c-0.016-0.107-0.036-0.212-0.056-0.315l-0.821 0.185c-0.146 0.034-0.181 0.107-0.099 0.163zM30.695 16.697c-0.059 0.037-0.128 0.061-0.204 0.067l-0.002 0c-0.097-0.016-0.183-0.043-0.264-0.080l0.007 0.003c-0.016 0-0.018-0.028-0.026-0.043 0.036-0.064 0.276-0.071 0.424-0.010 0.039 0.015 0.084 0.057 0.066 0.062zM30.917 15.392c0.169-0.070 0.365-0.116 0.571-0.129l0.006-0c0.231-0.015 0.407-0.098 0.648-0.126 0.048-0.003 0.088-0.036 0.102-0.080l0-0.001c0-0.059 0.075-0.062 0.184-0.053h0.043c-0.061-0.074-0.123-0.148-0.19-0.22-0.044 0.022-0.081 0.047-0.116 0.076l0.001-0.001c-0.025 0.020-0.056 0.032-0.090 0.033h-0c-0.4 0.017-0.774 0.107-1.116 0.257l0.020-0.008c-0.082 0.014-0.178 0.023-0.276 0.026l-0.003 0c-0.547 0.128-1.088 0.251-1.63 0.364-0.034 0.007-0.064 0.018-0.092 0.034l0.002-0.001c-0.076 0.041 0 0.12 0.164 0.146 0.053 0.012 0.113 0.018 0.175 0.018 0.004 0 0.008-0 0.011-0h-0.001c0.193-0.009 0.374-0.029 0.55-0.060l-0.027 0.004c0.427-0.087 0.784-0.184 1.133-0.3l-0.067 0.020zM32.397 16.444c0.249-0.054 0.525-0.085 0.793-0.126-0.038-0.108-0.079-0.215-0.125-0.328l-0.763 0.136c-0.128 0.020-0.244 0.054-0.352 0.102l0.009-0.003c-0.128 0.066-0.023 0.164 0.21 0.199 0.055 0.014 0.118 0.023 0.183 0.023 0.016 0 0.032-0 0.048-0.002l-0.002 0zM31.788 16.539c-0.164 0.030-0.343 0.036-0.548 0.054-0.046-0.059-0.113-0.108-0.097-0.128 0.094-0.073 0.214-0.118 0.345-0.118 0.033 0 0.065 0.003 0.097 0.008l-0.003-0c0.078 0.005 0.15 0.029 0.212 0.067l-0.002-0.001c0.034 0.039 0.041 0.11-0.003 0.118zM27.785 30.679c0.003-0 0.006-0 0.009-0 0.124 0 0.239 0.036 0.336 0.098l-0.003-0.002c0.031-0.085 0.123-0.135 0.299-0.095 0.070 0.023 0.151 0.036 0.235 0.036s0.165-0.013 0.24-0.037l-0.006 0.002c0.017-0.003 0.037-0.005 0.057-0.005 0.089 0 0.171 0.034 0.232 0.089l-0-0c0.053 0.043 0.113 0.117 0.097 0.136-0.038 0.023-0.084 0.036-0.132 0.036-0.018 0-0.036-0.002-0.053-0.005l0.002 0c-0.087 0-0.215-0.085-0.271-0.031-0.125 0.118-0.366 0.053-0.645-0.074 0.023 0.099-0.041 0.143-0.185 0.143h-1.108l-0.739-0.345h0.256c0.453 0.015 0.919 0.039 1.379 0.054zM31.872 19.453c0.066-0.002 0.129-0.012 0.189-0.031l-0.005 0.001c0.271-0.075 0.599-0.139 0.934-0.178l0.031-0.003c0.276-0.047 0.508-0.101 0.735-0.166l-0.047 0.012c-0.013-0.102-0.025-0.204-0.038-0.305l-0.057 0.013c-0.563 0.094-1.131 0.164-1.686 0.251-0.163 0.026-0.309 0.074-0.444 0.142l0.009-0.004c-0.022 0.016-0.036 0.042-0.036 0.071s0.014 0.055 0.036 0.071l0 0c0.099 0.078 0.225 0.125 0.362 0.125 0.006 0 0.012-0 0.018-0l-0.001 0zM30.009 16.892c-0.197-0.016-0.282 0.016-0.35 0.084-0.086 0.048-0.189 0.077-0.299 0.077-0.049 0-0.097-0.006-0.144-0.017l0.004 0.001c-0.154-0.015-0.314-0.105-0.284-0.164 0.014-0.017 0.032-0.029 0.053-0.034l0.001-0c0.269-0.051 0.535-0.11 0.821-0.164 0.014-0.002 0.030-0.003 0.047-0.003 0.093 0 0.178 0.035 0.243 0.092l-0-0c0.069 0.071 0.043 0.144-0.092 0.13zM31.137 20.807c-0.057-0.025-0.106-0.054-0.151-0.088l0.002 0.001c0.074-0.041 0.11-0.089 0.187-0.099 0.266-0.034 0.54-0.064 0.821-0.087 0.371-0.028 0.811 0.015 1.118-0.090 0.016-0.007 0.036-0.011 0.056-0.011 0.007 0 0.014 0 0.020 0.001l-0.001-0c0.079 0.012 0.15 0.034 0.216 0.066l-0.004-0.002c0.046 0.033 0.082 0.107 0.056 0.121-0.063 0.042-0.141 0.067-0.224 0.067-0.012 0-0.023-0-0.035-0.001l0.002 0c-0.027-0.006-0.057-0.009-0.088-0.009-0.080 0-0.155 0.022-0.219 0.061l0.002-0.001c-0.087 0.029-0.186 0.045-0.29 0.045-0.014 0-0.027-0-0.040-0.001l0.002 0c-0.013-0-0.029-0-0.045-0-0.354 0-0.703 0.024-1.044 0.070l0.040-0.004c-0.018 0.001-0.039 0.001-0.059 0.001-0.114 0-0.224-0.015-0.329-0.043l0.009 0.002zM30.434 19.628c-0.025 0-0.055 0.001-0.085 0.001-0.154 0-0.307-0.007-0.458-0.020l0.020 0.001c-0.070-0.031-0.131-0.067-0.186-0.11l0.002 0.002c-0.002-0.005-0.003-0.012-0.003-0.018 0-0.033 0.026-0.060 0.058-0.062h0l1.262-0.141c0.031-0.011 0.066-0.017 0.103-0.017 0.065 0 0.125 0.019 0.175 0.052l-0.001-0.001c0.026 0.022 0.043 0.055 0.043 0.092 0 0.027-0.009 0.053-0.025 0.073l0-0c-0.042 0.041-0.1 0.067-0.164 0.069h-0c-0.238 0.030-0.481 0.064-0.742 0.080zM30.777 30.615c-0.028-0.001-0.061-0.002-0.093-0.002-0.16 0-0.316 0.015-0.467 0.044l0.016-0.002c-0.187 0.039-0.424 0.038-0.63 0.062-0.082 0.018-0.154 0.042-0.223 0.072l0.008-0.003c0.052 0.045 0.109 0.089 0.168 0.129l0.006 0.004c0.038 0.021 0.084 0.035 0.132 0.038l0.001 0c0.194 0 0.394 0.026 0.593 0.041 0.143-0.145 0.304-0.271 0.48-0.376l0.011-0.006zM23.228 29.093c0.011-0.001 0.023-0.001 0.035-0.001s0.025 0 0.037 0.001l-0.002-0c0.204-0.012 0.442-0.019 0.683-0.019 0.287 0 0.571 0.010 0.852 0.030l-0.038-0.002c0.058 0.003 0.125 0.006 0.193 0.006s0.135-0.002 0.202-0.006l-0.009 0h0.878c0.204 0 0.417 0.012 0.619 0.008 0.314 0 0.616-0.023 0.932-0.025 0.189 0 0.401 0.026 0.594 0.031l1.398 0.026 1.766 0.062 0.245 0.015c-0.081 0.108-0.162 0.231-0.236 0.359l-0.010 0.019c-0.381-0.048-0.822-0.076-1.27-0.076-0.025 0-0.050 0-0.075 0l0.004-0c-0.473-0.016-0.936-0.021-1.4-0.028-0.047-0.003-0.101-0.004-0.156-0.004-0.102 0-0.203 0.005-0.303 0.015l0.013-0.001c-0.129 0.011-0.28 0.018-0.432 0.018-0.318 0-0.63-0.029-0.933-0.083l0.032 0.005c-0.303-0.045-0.654-0.071-1.010-0.071-0.020 0-0.040 0-0.060 0l0.003-0c-0.369 0.012-0.68 0.085-1.096 0.046-0.165-0.026-0.355-0.041-0.548-0.041-0.145 0-0.288 0.008-0.429 0.025l0.017-0.002c-0.008 0-0.017 0-0.026 0-0.112 0-0.219-0.020-0.319-0.057l0.006 0.002c-0.093-0.027-0.174-0.071-0.242-0.129l0.001 0.001c-0.074-0.085 0-0.113 0.084-0.125zM30.367 18.258c-0.328-0.016-0.543 0.077-0.909 0.012-0.002-0-0.004-0-0.006-0-0.060 0-0.118 0.010-0.172 0.029l0.004-0.001c-0.063 0.012-0.139 0.022-0.217 0.026l-0.005 0c-0.185 0-0.361-0.034-0.381-0.080-0.033-0.076 0.090-0.080 0.185-0.090 0.123-0.013 0.328 0.016 0.384-0.025 0.164-0.138 0.56-0.094 0.845-0.138 0.489-0.047 0.929-0.121 1.358-0.224l-0.067 0.013c0.19-0.042 0.415-0.073 0.645-0.086l0.012-0.001c0.078 0.001 0.153 0.009 0.227 0.023l-0.008-0.001c0.015 0.043 0.059 0.092 0.031 0.107-0.094 0.051-0.203 0.096-0.317 0.129l-0.011 0.003c-0.328 0.087-0.726 0.11-1.006 0.227-0.146 0.052-0.315 0.082-0.491 0.082-0.036 0-0.071-0.001-0.106-0.004l0.005 0zM26.376 26.404h0.172c0.026 0.036 0.072 0.080 0.071 0.107s-0.069 0.010-0.126 0.018zM24.032 27.778c0.144 0 0.291-0.016 0.443-0.018h1.487c0.034-0.003 0.073-0.005 0.112-0.005s0.079 0.002 0.117 0.005l-0.005-0c0.286 0.028 0.619 0.044 0.955 0.044 0.159 0 0.318-0.004 0.476-0.011l-0.022 0.001c0.386 0 0.791 0.038 1.183 0.049 0.222 0 0.42-0.018 0.648 0 0.175 0.019 0.379 0.031 0.584 0.031 0.148 0 0.294-0.006 0.439-0.017l-0.019 0.001c0.191-0.028 0.411-0.044 0.634-0.044 0.045 0 0.090 0.001 0.135 0.002l-0.007-0c0.075 0.008 0.162 0.012 0.251 0.012 0.202 0 0.399-0.024 0.587-0.068l-0.017 0.003c0.075-0.027 0.162-0.043 0.252-0.043 0.004 0 0.009 0 0.013 0h-0.001c0.075 0 0.154 0.012 0.233 0.018-0.098 0.131-0.192 0.278-0.275 0.433l-0.009 0.018c-0.075 0-0.149 0-0.227 0.010-0.443 0.013-0.916 0-1.38-0.015-0.207 0-0.435-0.036-0.635-0.033-0.542 0.008-1.072 0.030-1.607 0.046-0.042 0.007-0.091 0.011-0.141 0.011-0.014 0-0.028-0-0.042-0.001l0.002 0c-0.77-0.103-1.42-0.051-2.134-0.080-0.545-0.023-1.17-0.143-1.641-0.064-0.078-0.005-0.15-0.016-0.221-0.033l0.009 0.002c-0.093-0.009-0.174-0.055-0.228-0.124l-0.001-0.001c-0.044-0.076-0.039-0.123 0.048-0.13zM31.588 26.697c0.088-0.006 0.191-0.009 0.295-0.009 0.179 0 0.357 0.010 0.531 0.029l-0.022-0.002c0.212 0.016 0.419 0.026 0.657 0.064 0.049 0.009 0.105 0.014 0.162 0.014 0.174 0 0.337-0.047 0.478-0.128l-0.005 0.002 0.057-0.117c-0.039-0.042-0.088-0.075-0.144-0.094l-0.002-0.001c-0.415-0.141-0.821-0.25-1.131-0.189-0.358 0.074-0.813 0.036-1.223 0.046-0.512 0.013-1.036 0.013-1.556 0.018-0.006 0-0.013 0-0.020 0-0.064 0-0.126-0.005-0.187-0.014l0.007 0.001c-0.224-0.032-0.482-0.051-0.745-0.051-0.387 0-0.764 0.040-1.128 0.116l0.036-0.006c0.254 0.181 0.492 0.287 0.748 0.243 0.172-0.030 0.392-0.015 0.578-0.033 0.084-0.004 0.183-0.006 0.282-0.006 0.341 0 0.676 0.025 1.003 0.073l-0.037-0.004c0.277 0.039 0.596 0.062 0.921 0.062 0.156 0 0.311-0.005 0.465-0.015l-0.021 0.001zM27.634 26.375l-0.002-0.007 0.012 0.008h-0.005l-0.005-0.002zM26.166 26.608c-0.307-0.010-0.616-0.023-0.909-0.016-0.163-0.007-0.312-0.063-0.434-0.153l0.002 0.002c-0.026-0.023-0.049-0.047-0.070-0.074l-0.001-0.001c0.020-0.016 0.025-0.036 0.046-0.034 0.399 0 0.799 0.012 1.206 0.026 0.069 0.022 0.129 0.059 0.177 0.107l-0-0c0.046 0.062 0.113 0.149-0.018 0.144zM29.528 19.571c0 0.056-0.164 0.056-0.312 0-0.028-0.015-0.052-0.034-0.072-0.056l-0-0c0.043-0.059 0.194-0.064 0.32 0 0.030 0.003 0.066 0.041 0.064 0.056zM30.554 20.917c-0.165-0.006-0.321-0.024-0.473-0.052l0.020 0.003-0.215-0.126c0.037-0.020 0.081-0.036 0.127-0.045l0.003-0.001c0.088-0.009 0.191-0.013 0.295-0.013 0.016 0 0.032 0 0.049 0l-0.002-0c0.002-0 0.005-0 0.008-0 0.106 0 0.201 0.046 0.266 0.12l0 0c0.004 0.010 0.007 0.021 0.007 0.033 0 0.045-0.037 0.082-0.082 0.082-0.001 0-0.001 0-0.002-0h0z"></path>
<path d="M27.412 26.57c-0.1-0.028-0.199-0.044-0.3-0.069-0.028-0.009-0.053-0.023-0.074-0.041l0 0c-0.015-0.016-0.026-0.048-0.015-0.049 0.194-0.026 0.302-0.143 0.619-0.036 0.013 0.027 0.027 0.060 0.039 0.095l0.002 0.007c0.034 0.153-0.018 0.167-0.271 0.094zM30.104 22.409c0.034-0.014 0.073-0.022 0.113-0.022 0.018 0 0.035 0.002 0.052 0.005l-0.002-0 0.732 0.061c0.017 0.003 0.037 0.004 0.057 0.004s0.040-0.002 0.059-0.005l-0.002 0c0.307-0.1 0.755-0.057 1.133-0.1 0.371-0.014 0.724-0.058 1.066-0.132l-0.040 0.007c0.036-0.004 0.078-0.006 0.121-0.006s0.084 0.002 0.126 0.007l-0.005-0c0.025 0.002 0.053 0.003 0.082 0.003 0.069 0 0.136-0.007 0.201-0.021l-0.006 0.001c0.129-0.058 0.28-0.092 0.439-0.092 0.008 0 0.017 0 0.025 0l-0.001-0c-0.021-0.082-0.041-0.164-0.062-0.243-0.553 0.039-1.138 0.021-1.584 0.164-0.236 0.076-0.604 0.044-0.916 0.051-0.075-0.004-0.163-0.007-0.251-0.007s-0.176 0.002-0.263 0.007l0.012-0.001c-0.126 0.016-0.272 0.025-0.419 0.025s-0.294-0.009-0.437-0.026l0.017 0.002c-0.116-0.020-0.249-0.031-0.385-0.031-0.182 0-0.36 0.020-0.531 0.058l0.016-0.003c-0.036 0.013-0.082 0.025-0.097 0.048s0 0.102 0.115 0.148c0.241 0.090 0.488 0.192 0.635 0.099zM28.029 19.683c-0.058-0.013-0.11-0.035-0.156-0.065l0.002 0.001c-0.009-0.008-0.015-0.020-0.015-0.033 0-0.017 0.009-0.031 0.023-0.038l0-0c0.156-0.076 0.428-0.057 0.691-0.051 0.049 0.012 0.092 0.025 0.132 0.042l-0.006-0.002c0.013 0.030 0.064 0.080 0.041 0.097-0.136 0.103-0.361 0.135-0.712 0.049zM29.489 20.822c-0.023 0.016-0.051 0.026-0.082 0.026h-0c-0.492 0.046-0.985 0.074-1.477 0.085-0.129-0.003-0.253-0.020-0.371-0.050l0.012 0.002c-0.063-0.030-0.116-0.065-0.166-0.105l0.002 0.001c0.036-0.018 0.049-0.038 0.080-0.038 0.492-0.020 0.985-0.049 1.487-0.090 0.018-0.001 0.040-0.001 0.061-0.001 0.107 0 0.212 0.009 0.314 0.025l-0.011-0.002c0.058 0.018 0.108 0.047 0.152 0.083l-0.001-0.001c0.008 0.008 0.013 0.019 0.013 0.031s-0.005 0.023-0.013 0.031v0zM30.941 23.854c0.090 0.008 0.195 0.012 0.301 0.012 0.158 0 0.313-0.010 0.465-0.029l-0.018 0.002c0.095-0.016 0.204-0.025 0.316-0.025 0.070 0 0.14 0.004 0.208 0.011l-0.009-0.001c0.103 0.008 0.223 0.013 0.344 0.013 0.043 0 0.086-0.001 0.128-0.002l-0.006 0c0.453 0 0.985 0.084 1.487 0.094 0.017 0 0.038 0.001 0.058 0.001 0.1 0 0.198-0.005 0.295-0.015l-0.012 0.001v-0.392c-0.148-0.016-0.32-0.025-0.495-0.025-0.048 0-0.096 0.001-0.144 0.002l0.007-0c-0.422 0.023-0.821 0.059-1.234 0.079-0.006 0-0.012 0-0.019 0-0.063 0-0.126-0.004-0.187-0.012l0.007 0.001c-0.476-0.057-0.891-0.038-1.341-0.064-0.144-0.011-0.312-0.018-0.481-0.018-0.218 0-0.433 0.011-0.645 0.031l0.027-0.002c-0.13 0.011-0.281 0.018-0.433 0.018-0.227 0-0.45-0.014-0.67-0.042l0.026 0.003c-0.021-0.003-0.045-0.004-0.070-0.004-0.052 0-0.101 0.007-0.149 0.020l0.004-0.001c-0.442 0.156-1.051 0.121-1.684 0.069-0.312-0.026-0.598-0.013-0.89-0.010-0.053 0-0.105 0.031-0.097 0.064s0.099 0.082 0.164 0.138c0.083 0.027 0.184 0.051 0.287 0.069l0.013 0.002c0.223 0.020 0.482 0.031 0.744 0.031s0.521-0.011 0.777-0.033l-0.033 0.002c0.148-0.024 0.319-0.037 0.492-0.037s0.344 0.014 0.511 0.040l-0.018-0.002c0.040 0.007 0.087 0.012 0.134 0.012s0.094-0.004 0.139-0.012l-0.005 0.001c0.488-0.089 1.119-0.010 1.705 0.013zM27.392 22.266c-0.064-0.032-0.119-0.074-0.164-0.124l-0-0.001s0.049-0.031 0.090-0.031c0.177 0 0.356 0 0.542 0.013 0.14 0.017 0.262 0.039 0.381 0.067l-0.023-0.005c0.028 0.057 0.069 0.103 0.053 0.118-0.042 0.034-0.093 0.057-0.149 0.067l-0.002 0c-0.056 0.009-0.121 0.014-0.187 0.014-0.196 0-0.382-0.044-0.548-0.122l0.008 0.003zM31.634 25.288c0.154 0 0.328 0.030 0.492 0.041 0.035 0.002 0.075 0.003 0.116 0.003s0.081-0.001 0.121-0.003l-0.006 0c0.164-0.014 0.355-0.022 0.547-0.022 0.096 0 0.192 0.002 0.287 0.006l-0.014-0c0.069 0.009 0.149 0.014 0.23 0.014 0.138 0 0.272-0.015 0.402-0.042l-0.013 0.002c0.068-0.011 0.147-0.018 0.227-0.018s0.158 0.006 0.235 0.019l-0.008-0.001c0.015-0.044 0.028-0.087 0.041-0.131l-0.089-0.049c-0.026-0.014-0.056-0.023-0.089-0.023h-0c-0.414 0.008-0.916-0.117-1.348-0.138-0.292-0.015-0.552 0.015-0.837 0.012-0.373 0-0.755-0.020-1.133-0.030-0.045-0.003-0.097-0.005-0.15-0.005s-0.105 0.002-0.157 0.005l0.007-0c-0.108 0.015-0.232 0.024-0.358 0.024-0.164 0-0.324-0.015-0.479-0.043l0.016 0.002c-0.146-0.018-0.315-0.029-0.486-0.029-0.139 0-0.277 0.007-0.412 0.021l0.017-0.001c-0.241 0-0.492 0-0.74-0.016-0.103-0.014-0.221-0.022-0.342-0.022-0.021 0-0.041 0-0.062 0.001l0.003-0c-0.607 0.097-1.398-0.020-2.042 0.033-0.103 0.008-0.197 0.028-0.248 0.034-0.056 0.092 0.034 0.194 0.164 0.225 0.114 0.035 0.247 0.059 0.383 0.069l0.006 0c0.291 0 0.558-0.020 0.845-0.021s0.545 0.013 0.821 0.023l0.593 0.025c0.222 0 0.433 0 0.657 0.016 0.164 0.012 0.356 0.019 0.549 0.019s0.385-0.007 0.575-0.020l-0.026 0.001c0.543-0.018 1.134 0.012 1.704 0.021zM29.070 22.342c-0.053 0-0.11-0.020-0.199-0.038-0.023-0.046-0.064-0.095-0.053-0.12s0.074-0.023 0.123-0.020c0.004-0 0.009-0 0.014-0 0.102 0 0.195 0.043 0.26 0.112l0 0c0.077 0.102-0.054 0.076-0.146 0.066z"></path>
<path fill="none" stroke="#000" stroke-linejoin="round" stroke-linecap="round" stroke-miterlimit="4" stroke-width="0.9849" d="M15.242 12.383v0c2.142 0.687 4.607 1.083 7.164 1.083s5.022-0.396 7.336-1.13l-0.172 0.047"></path>
<path fill="none" stroke="#000" stroke-linejoin="round" stroke-linecap="round" stroke-miterlimit="4" stroke-width="0.9849" d="M23.924 8.076c0 0.839-0.68 1.518-1.518 1.518s-1.518-0.68-1.518-1.518c0-0.839 0.68-1.518 1.518-1.518s1.518 0.68 1.518 1.518z"></path>
<path fill="none" stroke="#000" stroke-linejoin="round" stroke-linecap="round" stroke-miterlimit="4" stroke-width="0.9849" d="M30.83 13.46s4.88-4.337 8.647 0c4.596 5.29-5.637 12.114-5.637 12.114"></path>
<path fill="none" stroke="#000" stroke-linejoin="round" stroke-linecap="round" stroke-miterlimit="4" stroke-width="0.9849" d="M32.637 15.513s2.597-2.462 4.729 0c2.6 2.994-2.756 6.659-2.756 6.659"></path>
<path fill="none" stroke="#000" stroke-linejoin="round" stroke-linecap="round" stroke-miterlimit="4" stroke-width="0.9849" d="M17.417 31.516h9.977c0 0 0 0 0.001 0 1.831 0 3.46-0.864 4.502-2.206l0.010-0.013c1.549-1.999 2.483-4.542 2.483-7.303 0-6.618-5.365-11.983-11.983-11.983s-11.983 5.365-11.983 11.983c0 2.808 0.966 5.391 2.584 7.433l-0.019-0.025c1.040 1.293 2.622 2.114 4.396 2.114 0.012 0 0.023-0 0.035-0h-0.002z"></path>
<path fill="none" stroke="#000" stroke-linejoin="round" stroke-linecap="round" stroke-miterlimit="4" stroke-width="0.9849" d="M11.191 26.212c-2.941 0-4.736-4.268-4.736-7.206v-1.538c0-1.47-1.192-2.662-2.662-2.662v0l0.502-3.283h1.477c1.627 0.003 2.7 1.116 3.229 2.429 0.492 1.213 1.252 3.079 2.38 3.34v0"></path>
<path d="M3.88 9.946c0.020-0.087 0.032-0.187 0.032-0.29 0-0.224-0.055-0.435-0.152-0.62l0.003 0.007c-0.059 0.149-0.094 0.321-0.094 0.501 0 0.191 0.039 0.373 0.109 0.539l-0.003-0.009c0.034-0.044 0.071-0.085 0.105-0.128zM2.063 6.014c0.010-0.071-0.059-0.151-0.097-0.236-0.269 0.243-0.272 0.492-0.036 0.77 0.212-0.133 0.112-0.353 0.133-0.533zM1.732 5.111c0 0.151 0 0.328 0.189 0.425 0.037-0.043 0.068-0.093 0.089-0.148l0.001-0.003c0.108-0.563 0.057-1.129 0.025-1.694 0-0.053-0.089-0.1-0.182-0.202-0.040 0.133-0.075 0.294-0.098 0.459l-0.002 0.017c-0.018 0.381-0.023 0.763-0.021 1.146zM1.884 3.178c0.096-0.108 0.155-0.252 0.155-0.409 0-0.020-0.001-0.040-0.003-0.060l0 0.002c0-0.369 0-0.74-0.018-1.11-0.020-0.465-0.053-0.926-0.085-1.389-0.015-0.081-0.036-0.153-0.063-0.221l0.003 0.007c-0.106 0.056-0.178 0.165-0.178 0.292 0 0.018 0.001 0.035 0.004 0.052l-0-0.002c-0.010 0.714-0.021 1.43-0.020 2.144-0.003 0.030-0.005 0.065-0.005 0.1 0 0.226 0.079 0.433 0.212 0.595l-0.001-0.002zM1.753 7.203c0.038 0.379 0.123 0.757 0.034 1.149-0.009 0.033-0.015 0.070-0.015 0.109 0 0.155 0.086 0.29 0.213 0.359l0.002 0.001c0.060-0.103 0.095-0.227 0.095-0.36 0-0.035-0.002-0.069-0.007-0.102l0 0.004c0-0.291 0.010-0.581 0.013-0.872 0.004-0.071 0.006-0.154 0.006-0.238s-0.002-0.167-0.007-0.25l0.001 0.012c-0.025-0.093-0.060-0.174-0.106-0.249l0.002 0.004c-0.141 0.067-0.237 0.209-0.237 0.373 0 0.021 0.002 0.041 0.004 0.061l-0-0.002zM2.017 13.158c0.131-0.12 0.164-0.233 0.067-0.353-0.024-0.014-0.052-0.022-0.082-0.022s-0.059 0.008-0.083 0.022l0.001-0c-0.092 0.131-0.046 0.241 0.097 0.353zM1.881 12.441c0.043 0.079 0.092 0.146 0.147 0.208l-0.001-0.001c0.025-0.164 0.046-0.246 0.051-0.328 0.021-0.422 0.053-0.844 0.054-1.266 0-0.617-0.015-1.233-0.031-1.85 0-0.044-0.072-0.089-0.164-0.192-0.036 0.109-0.068 0.241-0.090 0.377l-0.002 0.015c-0.015 0.289-0.025 0.579-0.021 0.868 0.008 0.657 0.025 1.313 0.039 1.98-0 0.010-0.001 0.021-0.001 0.033 0 0.055 0.007 0.109 0.020 0.161l-0.001-0.005zM0 4.394c0.009 0.092 0.014 0.199 0.014 0.307s-0.005 0.215-0.015 0.321l0.001-0.014q0 0.773 0.018 1.548c-0.003 0.021-0.005 0.046-0.005 0.070 0 0.139 0.052 0.266 0.138 0.362l-0-0.001c0.174-0.117 0.164-0.284 0.164-0.44q0-1.087-0.018-2.17c0-0.121 0.016-0.256-0.138-0.356-0.099 0.072-0.163 0.187-0.163 0.318 0 0.019 0.001 0.038 0.004 0.057l-0-0.002zM0.038 8.389c0 0.309-0.028 0.616-0.025 0.924 0 0.41 0.021 0.821 0.043 1.233 0 0.141-0.018 0.302 0.195 0.417 0.043-0.142 0.076-0.309 0.093-0.481l0.001-0.011c-0.003-0.972-0.016-1.947-0.034-2.92-0.020-0.119-0.052-0.226-0.094-0.327l0.004 0.010c-0.194 0.248-0.194 0.248-0.19 0.432 0.003 0.241 0.011 0.483 0.008 0.724zM3.775 2.923c0-0.061-0.053-0.121-0.090-0.202-0.125 0.072-0.209 0.206-0.209 0.358 0 0.043 0.007 0.085 0.019 0.124l-0.001-0.003c0.033 0.202 0.052 0.436 0.052 0.674 0 0.168-0.009 0.333-0.028 0.495l0.002-0.020c-0.026 0.455-0.031 0.911-0.039 1.366-0.003 0.024-0.004 0.052-0.004 0.081 0 0.164 0.050 0.317 0.136 0.444l-0.002-0.003c0.044-0.028 0.084-0.038 0.085-0.054 0.158-1.080 0.066-2.17 0.079-3.26zM3.787 7.441c-0.008-0.164-0.016-0.328-0.023-0.492 0.002-0.018 0.004-0.038 0.004-0.059 0-0.123-0.048-0.236-0.127-0.319l0 0c-0.051 0.080-0.094 0.12-0.1 0.164-0.025 0.127-0.042 0.275-0.046 0.426l-0 0.004v0.63zM3.57 2.442c0.057-0.054 0.131-0.094 0.136-0.136 0.015-0.144 0.082-0.31-0.108-0.428-0.151 0.256-0.151 0.256-0.028 0.565zM3.56 0.657c0.106-0.081 0.173-0.207 0.173-0.349 0-0.032-0.003-0.062-0.010-0.092l0.001 0.003c0-0.092-0.023-0.187-0.153-0.212-0.202 0.291-0.204 0.343-0.011 0.65zM3.583 0.821c-0.253 0.314-0.164 0.581 0 0.867 0.144-0.148 0.154-0.148 0.149-0.277-0.003-0.195 0.079-0.402-0.149-0.589z"></path>
</svg>
